<svg xmlns="http://www.w3.org/2000/svg" width="320" height="163" viewBox="0 0 320.02 163"><defs><style>.cls-2{fill:#243c78}.cls-3{fill:#2f4e9c}.cls-4{fill:#d9e2f8}.cls-5{fill:none;stroke:#a1b7ef;stroke-linecap:round;stroke-miterlimit:10;stroke-width:.5px}.cls-6,.cls-8{fill:#a1b7ef}.cls-6{opacity:.57}.cls-10{fill:#6d8fe7}</style></defs><g id="Layer_2"><g id="FULL_PAGE_MOCKUP"><rect width="320" height="163" fill="#5072c9"/><polygon points="250.84 118.87 163.12 99.91 174.93 125.96 250.84 118.87" class="cls-2"/><path d="M172,130.22l1.34.14,77.73-7.72a1.33,1.33,0,0,0,1.19-1.33v-1.12a1.33,1.33,0,0,0-1.45-1.32L174.1,126Z" class="cls-3"/><path d="M240.2,116s-43.73-1.08-63.82,11.06l2.5-44.79L228,97.94Z" class="cls-4"/><path d="M233.31,111.73s-34.86-1.56-57.81,13" class="cls-5"/><path d="M234.36,107.39s-39.46,5.55-58,19.68l2.5-44.79L228,97.94Z" class="cls-6"/><path d="M242.64,102.56s-47,7.34-66.26,24.51c0,0-2.9,3,0-.92,7.07-9.57,49.4-40.67,49.4-40.67Z" class="cls-4"/><path d="M232.21,98.74s-34.57,8-58.28,26" class="cls-5"/><path d="M227.88,94.39s-34.57,8-58.28,26" class="cls-5"/><path d="M229.8,89.56s-36,16.06-53.42,37.51l9.67-15.56,39.73-26Z" class="cls-6"/><path d="M237.11,83.12s-45.86,20.64-60.73,43.95a93.91,93.91,0,0,1,7.86-14.56c6.61-9.79,30.36-42.1,30.36-42.1Z" class="cls-4"/><path d="M227.26,82.28s-39.14,20.88-52.33,40.94" class="cls-5"/><path d="M221.78,79.44s-39.15,20.89-52.33,40.94" class="cls-5"/><path d="M216.75,76.7s-39.14,20.89-52.32,40.94" class="cls-5"/><path d="M222.54,74.9S194.44,94.42,174.93,126c7.39-16.91,39.67-55.55,39.67-55.55Z" class="cls-6"/><path d="M226.67,67.46s-40.44,31.14-50.29,58.69l24.26-66.51Z" class="cls-4"/><path d="M216.75,64.48s-30.52,34.12-40.37,61.67l24.26-66.51Z" class="cls-6"/><path d="M222.47,54.18s-38.77,41-46.09,72l17-77.28Z" class="cls-4"/><path d="M211.93,56.47c-15.05,13.64-30.09,42.27-30.09,42.27" class="cls-5"/><path d="M206.75,54.89c-15.05,13.64-30.09,42.28-30.09,42.28" class="cls-5"/><path d="M201,54.23c-15.69,14.73-28.66,48-28.66,48" class="cls-5"/><path d="M105.23,44.53,87.7,112l84.56,18.33a5.67,5.67,0,0,0,6-3.82L196.8,47a3.39,3.39,0,0,0-3.38-4.16Z" class="cls-2"/><path d="M101.43,46.23,85,109.6a2.32,2.32,0,0,0,1.77,2.85l85,17.72a2.32,2.32,0,0,0,2.73-1.74l19.32-82.8a2.32,2.32,0,0,0-2.3-2.84l-87.83,1.7A2.32,2.32,0,0,0,101.43,46.23Z" class="cls-3"/><path d="M107.37,51.23,93.48,104.67a2,2,0,0,0,1.49,2.4l71.67,15a2,2,0,0,0,2.3-1.47l16.29-69.83a1.94,1.94,0,0,0-1.94-2.39l-74.06,1.43A2,2,0,0,0,107.37,51.23Z" class="cls-4"/><g opacity=".57"><path d="M137.7,76.13l-.24,5.78,3.19.13-.05,1.29-3.19-.14L137.17,89l3.19.14-.05,1.28-3.19-.13-.22,5.09a6,6,0,0,0,3.26-1.53l-.1,2.45A14.14,14.14,0,1,1,150,87.57c-.32-.32-.64-.64-.95-1,0,0,0-.13,0-.19.16-.78.34-1.56.5-2.34,0-.11,0-.22,0-.37h-.21l-3.12-.14a.55.55,0,0,1-.33-.14c-.44-.43-.86-.87-1.29-1.31a.58.58,0,0,1-.12-.29,19.91,19.91,0,0,0-.72-5.21.27.27,0,0,0-.29-.24L138,76.14Zm-1.31,0-.16,0-5.68-.24a.22.22,0,0,0-.25.18,18.86,18.86,0,0,0-1.1,4.56c0,.33-.07.65-.1,1l7.05.3Zm-.54,12.84.24-5.77-7-.29a1.47,1.47,0,0,0,0,.21c0,.52,0,1,0,1.56a18.52,18.52,0,0,0,.67,3.83.26.26,0,0,0,.28.22l5.56.23Zm13.82-6.51c0-.35,0-.68-.07-1a12.68,12.68,0,0,0-1.33-4.7.24.24,0,0,0-.23-.15l-2.82-.11h-.15a21,21,0,0,1,.73,5.79Zm-21.86-.92A21.2,21.2,0,0,1,129,75.78l-.21,0-2.69-.11a.3.3,0,0,0-.31.17,12.78,12.78,0,0,0-1.74,4.7c0,.27-.07.54-.1.82Zm-.06,1.31-3.86-.16q0,.34,0,.66a12.73,12.73,0,0,0,1.36,5,.26.26,0,0,0,.26.17l2.73.11h.2A21.33,21.33,0,0,1,127.75,82.81Zm15.5-7.75a1.82,1.82,0,0,0-.08-.19c-.35-.68-.67-1.38-1.07-2a7.15,7.15,0,0,0-2.7-2.59,4.77,4.77,0,0,0-1.43-.5l-.21,5.07Zm-12.32-.51,5.51.23.21-5.08a5.36,5.36,0,0,0-2,.63,8.45,8.45,0,0,0-3,2.87C131.45,73.62,131.21,74.08,130.93,74.55ZM130.32,90a.61.61,0,0,1,0,.11,10.8,10.8,0,0,0,1.76,3,6.16,6.16,0,0,0,3,2.1,3.43,3.43,0,0,0,.46.11l.21-5.07Zm17.07-14.76a12.92,12.92,0,0,0-5.16-4.37c.43.63.92,1.26,1.32,1.95s.68,1.42,1,2.14c0,.08.05.17.19.18Zm-20.58-.85h.24l2.29.1a.26.26,0,0,0,.28-.18,12.42,12.42,0,0,1,1.44-2.4c.39-.5.83-1,1.24-1.45A12.78,12.78,0,0,0,126.81,74.39Zm4.56,19.8a12.41,12.41,0,0,1-2.43-4.14c0-.1-.11-.12-.21-.13l-2.15-.08-.38,0A12.69,12.69,0,0,0,131.37,94.19Z" class="cls-8"/><path d="M148.77,93.41l.51,1.26c.33.79.66,1.59,1,2.39a.66.66,0,0,1-.4,1l-2.4,1a.64.64,0,0,1-.91-.37c-.46-1.11-.91-2.22-1.36-3.33l-.11-.25c-.13.14-.23.26-.34.36l-1.6,1.48a.66.66,0,0,1-1.14-.53l.51-12.2a.66.66,0,0,1,.41-.66.67.67,0,0,1,.77.21l7.58,7.72,1,1a.64.64,0,0,1,.15.73.63.63,0,0,1-.65.39L149,93.42Zm-5.41,1.5.17-.14,1.32-1.22a.66.66,0,0,1,1.12.25c.3.72.59,1.45.89,2.17.22.53.44,1.06.66,1.61l1.33-.55c0-.09-.06-.15-.08-.21-.51-1.25-1-2.5-1.53-3.75a1,1,0,0,1-.06-.44.71.71,0,0,1,.79-.54l2,.08h.26l-6.46-6.58Z" class="cls-8"/></g><path d="M137.84,74.8l-.24,5.78,3.19.13,0,1.29-3.19-.14-.24,5.79,3.19.14-.05,1.28-3.19-.13L137.05,94a6,6,0,0,0,3.25-1.53L140.2,95a14.14,14.14,0,1,1,9.94-8.71c-.32-.32-.64-.64-.94-1,0,0,0-.13,0-.19.17-.78.34-1.56.5-2.34,0-.11,0-.22,0-.37h-.21l-3.12-.14a.52.52,0,0,1-.32-.14c-.44-.43-.87-.87-1.29-1.31a.45.45,0,0,1-.12-.29,20.35,20.35,0,0,0-.73-5.21.27.27,0,0,0-.29-.24l-5.54-.23Zm-1.31,0-.16,0c-1.89-.08-3.78-.15-5.67-.24a.23.23,0,0,0-.26.18,18.86,18.86,0,0,0-1.1,4.56c0,.33-.07.65-.1,1l7,.3ZM136,87.6l.24-5.77-7-.29a1.55,1.55,0,0,0,0,.21c0,.52,0,1,.05,1.56a19.21,19.21,0,0,0,.67,3.83.27.27,0,0,0,.29.22l5.55.23Zm13.82-6.51c0-.35,0-.68-.06-1a12.69,12.69,0,0,0-1.34-4.7.24.24,0,0,0-.22-.15l-2.83-.11h-.15a21,21,0,0,1,.73,5.79ZM128,80.17a21.2,21.2,0,0,1,1.19-5.72l-.2,0-2.69-.11a.3.3,0,0,0-.32.17,12.78,12.78,0,0,0-1.74,4.7c0,.27-.07.54-.1.82Zm0,1.31L124,81.32q0,.34,0,.66a12.9,12.9,0,0,0,1.36,5,.26.26,0,0,0,.26.17l2.73.11h.2A20.93,20.93,0,0,1,127.9,81.48Zm15.49-7.75a2,2,0,0,0-.07-.19c-.36-.68-.68-1.38-1.08-2a7.15,7.15,0,0,0-2.7-2.59,4.68,4.68,0,0,0-1.43-.5l-.21,5.07Zm-12.32-.51,5.51.23.21-5.08a5.36,5.36,0,0,0-2,.63,8.45,8.45,0,0,0-2.95,2.87C131.59,72.29,131.35,72.75,131.07,73.22Zm-.6,15.45a.35.35,0,0,0,0,.11,10.77,10.77,0,0,0,1.75,3,6.21,6.21,0,0,0,3,2.1,3.43,3.43,0,0,0,.46.11l.21-5.07Zm17.06-14.76a12.92,12.92,0,0,0-5.16-4.37c.43.63.92,1.26,1.32,1.95s.69,1.42,1,2.14c0,.08.06.17.2.18ZM127,73.06h.24l2.29.1a.26.26,0,0,0,.28-.18,12.42,12.42,0,0,1,1.44-2.4c.39-.5.83-1,1.24-1.45A12.9,12.9,0,0,0,127,73.06Zm4.56,19.8a12.58,12.58,0,0,1-2.43-4.14c0-.1-.1-.12-.21-.13l-2.15-.08-.38,0A12.75,12.75,0,0,0,131.51,92.86Z" class="cls-3"/><path d="M148.91,92.08l.51,1.25c.33.8.66,1.6,1,2.4a.66.66,0,0,1-.4,1l-2.4,1a.63.63,0,0,1-.9-.37c-.46-1.11-.92-2.22-1.37-3.33l-.11-.25a4,4,0,0,1-.34.36l-1.6,1.48a.66.66,0,0,1-.76.16.63.63,0,0,1-.37-.69c.16-4.07.34-8.14.5-12.2a.66.66,0,0,1,1.18-.45l7.58,7.72,1,1a.64.64,0,0,1,.15.73.63.63,0,0,1-.65.39l-2.73-.12Zm-5.41,1.5.17-.14L145,92.22a.65.65,0,0,1,1.11.25c.3.72.59,1.45.89,2.17.22.53.44,1.06.66,1.61L149,95.7a1.56,1.56,0,0,0-.08-.21l-1.53-3.75a.84.84,0,0,1,0-.44.7.7,0,0,1,.79-.54l2,.08h.26l-6.46-6.58Z" class="cls-3"/><path fill="#ecf0fb" d="M141.11,49.15l-16.42.31c14.29,20.59,31.15,39.28,47.14,58.73l4.75-20.37Z" opacity=".48"/><ellipse cx="181.84" cy="83.15" class="cls-2" rx="3.58" ry="1.77" transform="translate(64.75 245.23) rotate(-78.73)"/><path d="M134,.32c.08-.06,0-.15-.25,0l-.14.21Z" class="cls-10"/><path d="M132.21.52c-.28.16-.59.39-.35.48.25-.23.34-.19.61-.46.26-.1.47-.08.44,0s.41-.08.52-.22a2.2,2.2,0,0,0-1.21.32C132.12.62,132.2.55,132.21.52Z" class="cls-10"/><path d="M108,10.22l.15-.07Z" class="cls-10"/><path d="M94.66,19.33c.1-.08.13-.12.12-.14S94.63,19.33,94.66,19.33Z" class="cls-10"/><path d="M92.35,20.89l.14-.09A.31.31,0,0,0,92.35,20.89Z" class="cls-10"/><path d="M108,10.22l-.4.18C107.63,10.46,107.84,10.32,108,10.22Z" class="cls-10"/><path d="M128.88,1.91l.21-.11-.21.08Z" class="cls-10"/><path d="M114.3,6.79l.12,0a.41.41,0,0,0,.07-.11Z" class="cls-10"/><path d="M119.31,4.54c-.12,0-.11.19-.13.27a.54.54,0,0,1,.22-.2A.17.17,0,0,0,119.31,4.54Z" class="cls-10"/><path d="M127.54,1.75l.14-.07Z" class="cls-10"/><path d="M110.78,8.53l-.07,0S110.74,8.53,110.78,8.53Z" class="cls-10"/><path d="M88.41,24.12h0C88.51,24,88.46,24.06,88.41,24.12Z" class="cls-10"/><path d="M57.79,58.87c.47-.25-.53.69.15.27C57.85,59.14,58.33,58.5,57.79,58.87Z" class="cls-10"/><path d="M128.74,1.94l-.21.07Z" class="cls-10"/><path d="M57.94,59.14h0l.07,0Z" class="cls-10"/><path d="M80.5,32.75a.24.24,0,0,0,.12,0Z" class="cls-10"/><path d="M86.48,26.42l-.16.15A1.2,1.2,0,0,0,86.48,26.42Z" class="cls-10"/><path d="M77.78,36.37a1.22,1.22,0,0,0-.21.23l.05,0A.45.45,0,0,1,77.78,36.37Z" class="cls-10"/><path d="M74.86,40l.07-.05.09-.12Z" class="cls-10"/><path d="M1.68,88.24a1.18,1.18,0,0,1-.23.09C1.57,88.33,1.18,88.88,1.68,88.24Z" class="cls-10"/><path d="M128.85,1.84s0,.07-.11.1l.14-.06S128.89,1.84,128.85,1.84Z" class="cls-10"/><path d="M78.53,37.21l-.49.57C78.19,37.62,78.36,37.41,78.53,37.21Z" class="cls-10"/><path d="M29.88,72.41l-.16,0A.34.34,0,0,0,29.88,72.41Z" class="cls-10"/><path d="M76.68,39.51a2.16,2.16,0,0,0-.33.27.32.32,0,0,0,0,.09Z" class="cls-10"/><path d="M1.45,88.33Z" class="cls-10"/><path d="M131.41.9l-.34,0c.18-.06.13.08,0,.14-.42.23-.65.14-.69.1l.31-.13c-.41-.17-1.3.41-1.94.62l.2-.28-.61.38c-.16,0-.29-.08,0-.22-.5.06-.39.21-.82.23-.05,0,0,0,0,0l-.43.21c.07-.07-.13-.12.16-.18-.85.16-1.27.58-1.63.53l.07,0c-1.11.45-.06.17-.84.65l-.7-.15,0,.19c-.12,0-.35.11-.33,0-.4.26.09,0-.12.22-.61.08-1.51.63-1.72.45-.16.18.56-.11,0,.18-.27-.18-.67.3-1.21.4.1-.19.6-.32.06-.22-.22.33-1,.36-1.4.57,0,.18-.89.46-1.58.81a20.57,20.57,0,0,0-2,.74v0c0,.23-.73.5-1.21.76,0-.11,0-.19.29-.35l-.46.21a1.88,1.88,0,0,1-.49.36l0-.18A16.33,16.33,0,0,1,112,8c0,.13.77,0,0,.49-.06,0-.15-.13,0-.27a1.08,1.08,0,0,1-.38.22l.28-.26c-.38.13-.14.18-.43.31,0-.09-.24,0-.23-.05s.26-.09.35-.18a3.28,3.28,0,0,1-.89.29s.06.12-.16.26c-.59.32-.26,0-.63.14-.11.14-.52.28-.46.42a.46.46,0,0,1-.32.05c-.28.22-1.42.79-1,.74l.08,0,0,0c-.91.71-2.1,1.11-3,1.76l0,0c-.54.4-1.25.82-1.6,1.16-.17.1-.45.18-.41.09a5,5,0,0,1-1.09.73c.38-.35-.19,0,.41-.34a4.22,4.22,0,0,0-1.28.87c.13-.25-.5.15-.74.37l.43-.2a9.31,9.31,0,0,1-.81.57l0-.24c-1.25.63-1.8,1.74-2.84,2.12-.21.31.65-.4.47-.09-.51.36-1.18.59-1.33.72-.74.47-.45.76-1.19,1.2.13,0,.31.05-.2.49s-.78.26-.48,0c.12-.1.19-.13.19-.11.16-.13.36-.32.12-.22l0,.1c-.29.14-1,.66-.89.46-.35.33-.1.2.2,0-.71.41-1,.79-1.69,1.26.12-.06.26-.08.16,0-1,.71-.36.42-1,1-.42.23,0-.28-.6.32-.43.29-.18,0-.06-.21a9.93,9.93,0,0,1-1.46,1.16l.26-.31a4.77,4.77,0,0,1-.45.45l.25-.07c-.19.15-.34.29-.37.25-.12.22.27,0,0,.42-.27.17-.66.69-.84.66.76-.64-.19,0,.4-.63a3,3,0,0,1-.44.4s0,0,0-.1c-.78.56-.19.43-.9,1.12,0-.15-.28,0-.38.16.29-.27.24,0,0,.28-.5.39-.45.51-.68.74l.28-.24c0,.15-.25.37-.53.7-.08,0,.24-.32.11-.23-.22.46-.88.68-1.27,1.24-.25.19-.14-.09-.36.09-.43.63-.64.52-1.11,1.17.24-.09.24-.14,0,.36l.83-1-.44.74c.26-.29.5-.66.68-.82-.2.36-.19.31,0,.23-.5.28-.66.86-1.16,1.24l-.2-.21c-.72.63-1,1.35-1.85,2.23l.29-.26c0,.2-.47.58-.69.91,0-.09-.24.07-.4.16.07,0-.58.68-.5.9l-.44.33c-.67.72-.5,1-1.12,1.76.09-.29-.23,0,.11-.54-.2.24-.4.45-.35.5-.16.1-.45.76-.7.93a.91.91,0,0,1-.23.5s0,0,0,0-.3.47,0,.3c-.85.56-1.67,2.13-2.41,2.63-.4.56-.89,1.23-1.27,1.72,0-.05,0,0,0-.11-.6.61-.1.59-.79,1.29-.44.29.25-.46,0-.25-.34-.1-.7.95-1.26,1.35l.09-.14a16.22,16.22,0,0,0-1.21,1.66s0,0,0,0a13.34,13.34,0,0,1-1.32,2c.06-.27.17-.32,0-.29-.21.29.23.05-.2.62-.2.13-.58.49-.73.45l.43-.52c-.36.15-.55.67-.8.92l0-.09c-.64.8-.51.94-1.24,1.76l.12,0c-.25.58-.41.31-.7.85h-.27c-.23.32-.79,1.16-1.24,1.71a13.67,13.67,0,0,1,1-1.5,6.44,6.44,0,0,0-1,1.21,1.57,1.57,0,0,1,.32-.4,5.63,5.63,0,0,1-1.13,1.54c-.18-.36-1.47,1.42-2.09,1.6a30.62,30.62,0,0,1-3.17,3c.62-.16-.35.32-.07.48a1.92,1.92,0,0,1-.42.37c-.32.21-.65.4-1,.6s.23-.28.16-.31c-.64.5-.35.12-.81.4.15,0-.12.3-.5.57l.59-.31c-.78.86-.92.43-1.73,1.26l.23-.3a18.94,18.94,0,0,0-2.07,1.83c-.1,0-.26,0-.06-.12-.58.4-1.2.89-1.8,1.32a7.49,7.49,0,0,1-1.7,1.06l0-.12c-.21.15-.32.35-.64.45,0,0,0-.12-.06-.06a3.49,3.49,0,0,1-.87.58l.23-.21c-1.27.52-1.78,1.16-2.82,1.65-.1-.21-1.1.19-1.62.33v0c-1.49.53-2.47,1.11-3.88,1.58-1,0-3.05.68-4.54.84.23,0,0,.17-.26.25s-.91.33-.9.12l.13,0a3.71,3.71,0,0,0-1.55.14l0,.28c-1.52-.11-3.77.82-4.63.65-.34.13-.77.21-1.11.35v-.14a21.94,21.94,0,0,0-2.65.56l.22-.15c-.68.15-.76.59-1.37.77l-.24-.16a14.29,14.29,0,0,0-3.46,1.12s0-.1.2-.18c-.27.1-.8.25-1.23.41s-.74.36-.59.44c-.09-.17-1.15.49-1.71.84l0-.17a5.27,5.27,0,0,1-1.08.84c-.17.07-.19,0,0-.1-.57.22-.36.33-1,.62l.2-.21a1.71,1.71,0,0,0-.74.55,2.88,2.88,0,0,1-1.18.53,1.25,1.25,0,0,1-.59.54c-.07,0,0-.11.08-.16-1,.47-1.22,1-1.87,1.29a.2.2,0,0,0-.15,0,14.1,14.1,0,0,1,1.18-.82c-.07-.11-.64.25-.3-.2A9.57,9.57,0,0,1,8.94,79.6l-.1,0,0-.06a1.43,1.43,0,0,0-.32.27,2.74,2.74,0,0,0-.46.29c-.12,0-.62.45-.89.67.12.09-.23.35.15.18,0,0,0-.06.21-.21a.94.94,0,0,0,.1-.1v0l.63-.55a1.83,1.83,0,0,1-.66.63c-.08.18-.16.37-.22.47-.47.15-1.22.63-1.39.62a12.46,12.46,0,0,0-2,2.35c-.17.24-.28.19-.38.24a4.08,4.08,0,0,0,.27-.38c-.35.48-1.15,1.29-1.1,1.52-.56.48.15-.42-.51.34l.05-.13A12.94,12.94,0,0,0,.15,88.9c0,.46,0,.92.05,1.38.23-.52.89-1.33,1.16-1.92l.09,0a.26.26,0,0,1-.27-.08c.2-.25.28-.53.45-.55a.4.4,0,0,0-.12.29l.16-.3c.32-.12-.23.39-.13.47A12.55,12.55,0,0,1,2.6,86.59c.19,0-.68.94-.15.52l-.53.56c.58-.29-.3.35.26.11a20.71,20.71,0,0,1,1.33-1.64c.08-.23-.15,0-.07-.27.84-1.16,1.05-.54,1.62-1.44a1.31,1.31,0,0,1,.66-.92l0,.31c.71-.65.21-.58,1-1.19-.08.18-.51.57-.39.49.58-.34.26-.41.65-.74l.19.06c.78-.66,1.54-1.54,2.47-2.21,0,.08-.15.23.1.12A14,14,0,0,1,11.55,79c.66-.38,1.33-.74,1.94-1.06.12-.14.26-.25.39-.38s.23,0,.13,0c.5-.2,0-.09.18-.26s.4-.12.25,0c.39-.28,1-.66,1.56-1a11.56,11.56,0,0,1,1.74-.72l-.16.12c.74-.25.68-.65,1.43-.76l-.13.07c.82-.25,1.65-.59,2.46-.85a10.86,10.86,0,0,1,2.24-.49c.19-.27,1.67-.32,1.71-.62A17,17,0,0,0,27.38,73c.37-.06.51-.29.95-.4l0,.15.58-.28.36.12.41-.12c-.17,0-.37,0-.35,0A3.88,3.88,0,0,1,31,72.29l1.54-.41c0,.07-.28.13-.48.21.81-.31.18.13.92-.15-.11,0,0-.1,0-.13A8.9,8.9,0,0,0,35,71.5l-.11.12c1.17-.2,2.44-.55,3.74-.87-.48.07-.41-.14,0-.25l.19.12c.22-.16-.41,0,.06-.21.49-.1.37.1.11.22l.57-.2c.05,0-.08.09-.1.16.21-.15,1.06-.13,1.35-.39l.05,0a30,30,0,0,0,2.86-1.06c0-.14.38-.26.65-.47.74-.29,1.61-.53,2.48-1,.57-.36.12-.19.36-.4.1.09.95-.36.55,0a19.72,19.72,0,0,0,2.51-1.53c-.16,0-.33.1-.27,0,.22-.15.55-.26.55-.18l-.06,0a15.88,15.88,0,0,1,2.3-1.37,8.25,8.25,0,0,0,2-1.39l0,.06,1-.94c.51-.36-.24.31.18.09,1-1.06,1.81-1.43,2.63-2.32,1-.33,2.43-2.23,3.48-2.94h-.11c.17-.29.31-.25.49-.4-.07,0-.3.19-.19,0,1.87-2,4-4,5.9-6.07.69-.77,0-.75,1-1.59l-.11.38c1.19-1.7,2.7-3.26,3.83-4.94-.05.12,0,.15-.13.31a3.45,3.45,0,0,0,.91-1.3c.21-.24.12,0,.28-.12.32-.29.54-.94.78-1,0,0,0,.11-.09.18.13-.25.82-1,.55-.88.52-.56.85-1.18,1.29-1.6.12-.41.86-1,.77-1.2.14.18,1-.92,1.19-1.36,0,.17.31-.28.27-.07.34-.43.62-.84.47-.84.84-.61,1.11-1.7,1.74-1.92.94-1.32,1.85-2.51,2.78-3.63.14.19-1,1.22-.82,1.33a23.84,23.84,0,0,1,2.18-2.8c.26-.24-.06.22-.12.33.86-1.08,1.84-1.93,2.6-2.89a.72.72,0,0,1-.14.23c.16-.18.42-.38.33-.43l-.15.18c-.38.17.46-.89.44-1-.09.5.92-.79.71-.07.1-.12.21-.3.14-.32.18-.15.26-.18.14.05.58-.65.29-.51.87-1,0,0-.07.16-.09.26a4.24,4.24,0,0,1,1-1.1s.08,0-.07.16a21.34,21.34,0,0,1,2.32-2.2c-.16.4.37-.21.54-.1l.49-.46-.27.09a9.25,9.25,0,0,1,1.24-1l-.31.32.86-.68-.54.31c.42-.43-.19-.15.47-.58-.11.1.47-.32.8-.46h0a2.77,2.77,0,0,1,.73-.72c.13,0,.06.22.14.2.12-.3,1-.89,1.24-1.24-.08.1,0,.19,0,.18l.12-.25c.23-.14.28-.14.29-.05.67-.47-.35,0,.49-.54-.05.06,0,.05-.13.16.81-.54,1.48-1.17,2.26-1.64.32,0-.62.49-.28.44a38.42,38.42,0,0,1,3.17-2.33l-.21.11c0-.32.87-.38,1.34-.83-.12.1-.1.24-.08.19.75-.43,1.47-1,2.55-1.69l-.1.14c.46-.21,1.17-.64,1.67-.86.11-.14.39-.28.17-.28,1.66-.48,2.75-1.69,4.24-2.06-.16.08-.35.24-.23.18.37-.21.74-.43,1.12-.62-.14-.07-.19,0-.46,0a2.34,2.34,0,0,1,.7-.47c-.49.31.09.17.34.12,0,0,0-.08,0-.11.69-.09,0-.25.89-.51l0,.08A6.43,6.43,0,0,1,117,6c.2,0-.3.2-.28.31.47-.21.82-.66,1.31-.72-.19.12-.48.25-.66.38a3.33,3.33,0,0,0,.92-.25h0l.84-.27-.22,0c.46-.57,1.18-.57,1.9-1.11-.7.52-.08.17-.09.33.23,0,.55-.13.48,0,.33-.28.67-.17,1.15-.54,0,0,.41-.15.37,0,.48-.22-.15,0-.13-.11.71-.44,1.88-.48,2.91-1.11.94-.41,1.07-.62,1.94-1,.33,0-.19.25-.19.25a5.11,5.11,0,0,0,1.32-.43c-.08.07,0,.07.18.08.37-.13.2-.25.71-.34a1.77,1.77,0,0,1-.31.31c.42-.2.83-.41,1.27-.58.15.05-.23.2-.38.3A5.57,5.57,0,0,0,131.41.9Z" class="cls-10"/><path d="M9.59,80.19h0l-.26.21Z" class="cls-10"/><path d="M10.71,79.38l-.49.34c-.07,0-.05-.08.06-.16S10.52,79.46,10.71,79.38Z" class="cls-10"/><path d="M7.76,80.36c.16-.16.23-.18.28-.18l-.29.27v0A.27.27,0,0,1,7.76,80.36Z" class="cls-10"/><path d="M7.57,80.76l-.06.07.12-.06,0-.08Z" class="cls-10"/><path d="M108.21,10.14h0Z" class="cls-10"/><polygon points="28.38 72.76 28.37 72.72 28.26 72.78 28.38 72.76" class="cls-10"/><path d="M115.25,7.06a.12.12,0,0,0,.1,0Z" class="cls-10"/><path d="M118.27,5.73l.45-.14Z" class="cls-10"/><path d="M120.64,4.82a.15.15,0,0,0,0-.08h0Z" class="cls-10"/><path d="M87.27,27l-.06.07C87.07,27.22,87.17,27.1,87.27,27Z" class="cls-10"/><path d="M96.15,18.88a1.07,1.07,0,0,1-.15.17l-.14.14A1.5,1.5,0,0,0,96.1,19C96.16,19,96.17,18.91,96.15,18.88Z" class="cls-10"/><polygon points="78.58 37.15 78.58 37.15 78.53 37.21 78.58 37.15" class="cls-10"/><path d="M95.41,19.52a2.5,2.5,0,0,0,.45-.33A2.73,2.73,0,0,0,95.41,19.52Z" class="cls-10"/><path d="M131.05,1.27l.12,0s0,0,0,0Z" class="cls-10"/><path d="M131.18,1.22l.12-.05A.19.19,0,0,0,131.18,1.22Z" class="cls-10"/><path d="M131.57,1.06l-.27.11A.76.76,0,0,0,131.57,1.06Z" class="cls-10"/><path d="M127.82,2.2l0,.06S127.82,2.23,127.82,2.2Z" class="cls-10"/><path d="M126.86,2.54a6.15,6.15,0,0,0,.92-.23l0-.05C127.67,2.39,127.05,2.38,126.86,2.54Z" class="cls-10"/><path d="M122.62,3.38l.82-.26c-.16,0-.37,0,0-.15C122.36,3.2,123.68,3,122.62,3.38Z" class="cls-10"/><path d="M120.11,4.29c.41-.21,0-.08,0-.11C119.83,4.34,119.77,4.37,120.11,4.29Z" class="cls-10"/><path d="M103,13.17l0-.13C102.68,13.25,103,13.08,103,13.17Z" class="cls-10"/><polygon points="100.34 15.79 100.66 15.65 100.73 15.46 100.34 15.79" class="cls-10"/><polygon points="98.04 16.34 98.16 16.23 97.71 16.64 98.04 16.34" class="cls-10"/><path d="M75.28,39.3h.19C75.6,39.11,75.49,39,75.28,39.3Z" class="cls-10"/><path d="M66.61,50.2a1.37,1.37,0,0,0-.56.56C66.26,50.53,66.52,50.34,66.61,50.2Z" class="cls-10"/><polygon points="31.78 70.85 32.05 70.75 31.54 70.88 31.78 70.85" class="cls-10"/><path d="M93.27,159.73v.07A.09.09,0,0,0,93.27,159.73Z" class="cls-10"/><path d="M88.79,154s.07,0,.08,0S88.79,154,88.79,154Z" class="cls-10"/><path d="M88,153l0,.06S88,153,88,153Z" class="cls-10"/><path d="M93.27,159.73l0-.2S93.24,159.63,93.27,159.73Z" class="cls-10"/><path d="M94.46,162.72l0,.06.07,0Z" class="cls-10"/><path d="M94,161l0,0Z" class="cls-10"/><path d="M86.38,151.42h0S86.42,151.44,86.38,151.42Z" class="cls-10"/><path d="M67.23,143.55c.23.14-.4.14,0,.3C67.16,143.79,67.52,143.65,67.23,143.55Z" class="cls-10"/><path d="M67.19,143.85Z" class="cls-10"/><path d="M82.05,148.43s0,.06,0,.08S82.07,148.48,82.05,148.43Z" class="cls-10"/><path d="M85.15,150.82l-.06-.07Z" class="cls-10"/><path d="M80.2,147.57s0-.06-.12-.07v0A.15.15,0,0,1,80.2,147.57Z" class="cls-10"/><polygon points="78.32 146.61 78.34 146.65 78.41 146.67 78.32 146.61" class="cls-10"/><path d="M45.85,160a.47.47,0,0,1-.15.06C45.81,160.08,45.75,160.38,45.85,160Z" class="cls-10"/><path d="M79.59,148.5l-.28-.17A1.89,1.89,0,0,0,79.59,148.5Z" class="cls-10"/><path d="M54.26,148.47l0,.05A.12.12,0,0,0,54.26,148.47Z" class="cls-10"/><path d="M78.45,147.9a.52.52,0,0,0-.12-.17l0,0Z" class="cls-10"/><path d="M45.7,160.09Z" class="cls-10"/><path d="M44.31,163H45c.15-.17.08-.15.26-.22-.24-.08,0-.19-.14-.37.18-.25.24,0,.23-.33.1-.13.13.15.13.15.07-.3-.15-.18-.24-.26,0-.38.17-.14.29-.24s-.12-.45-.08-.61c0,0,0,0,.08,0-.09-.27.16-.7.07-1a.08.08,0,0,1,.06,0,.66.66,0,0,1-.26,0c0-.14,0-.29.1-.3,0,.08,0,.1,0,.15v-.16c.2-.07,0,.21.12.25a2.35,2.35,0,0,1,.11-.84c.18,0-.11.5.13.27l-.17.3c.33-.16-.07.19.27.05.17-.4.07-.49.26-.89-.06-.12-.14,0-.2-.14.06-.66.58-.31.54-.82-.06-.15-.25-.28,0-.54l.13.18c.19-.37-.15-.33.15-.68,0,.1-.08.33,0,.28.26-.2,0-.23.08-.44l.17,0c.18-.41.3-.92.52-1.37,0,.05,0,.15.14.07a5.31,5.31,0,0,1,1.15-1.58l0-.28s.11,0,.1,0c.18-.15-.07-.06,0-.19s.17-.09.16,0a2.87,2.87,0,0,1,.93-1.35l0,.1c.27-.22,0-.49.35-.64l0,.06A6.28,6.28,0,0,1,52,150.2c-.07-.24.62-.41.47-.67a3.75,3.75,0,0,0,.9-.33c.13-.09.08-.29.22-.44l.1.12.12-.29.22.07.14-.14c-.07,0-.18,0-.19,0,.2-.22.65-.31.7-.24.16-.17.34-.32.51-.48,0,.06-.07.14-.12.22.23-.32.14.11.35-.19-.06,0,0-.09,0-.12a2.08,2.08,0,0,0,.75-.37v.12c.45-.22.93-.53,1.45-.78-.21,0-.24-.14-.1-.23l.13.12c.06-.13-.19,0,0-.19s.21.12.12.21l.21-.15s0,.09,0,.15c.06-.14.47,0,.55-.25l0,0c.53-.19.75-.35,1.19-.5,0-.13.15-.16.25-.31.34-.07.74-.07,1.13-.18s.06-.13.16-.25c.06.12.45,0,.27.15a10.68,10.68,0,0,0,1.21-.38c-.08,0-.16-.05-.13-.1s.27,0,.26.08l0,0c.67-.33,1.65.18,2.18-.14h0a5.54,5.54,0,0,1,.58-.17c.27,0-.16.1,0,.18.63-.22,1,0,1.51-.12.38.41,1.42,0,1.94.36l0-.09c.14-.07.16.07.26.11s-.14-.1,0-.14a12.36,12.36,0,0,1,3.53.92c.42.14.37-.37.85,0l-.2.12a20.59,20.59,0,0,1,2.61.75c-.06,0-.08.06-.16,0,.13.18.63.26.68.18s0,.09,0,.17.49,0,.54.19-.07,0-.1,0c.13,0,.5.25.46.08.27.2.59.21.8.4.22-.06.48.31.62.15-.12.19.43.44.66.45-.09,0,.13.15,0,.19.21.11.42.18.45.06.25.44.87.27.91.69a13.5,13.5,0,0,1,1.83.87c-.14.18-.6-.38-.71-.16a5.71,5.71,0,0,1,1.43.68c.11.12-.13,0-.2,0,.55.28.94.72,1.45.94,0,0-.08,0-.13,0s.18.18.23.09l-.1,0c0-.22.53,0,.59,0-.33.11.37.39-.09.5.07,0,.17.05.2,0,.07.09.07.14-.06.13.33.2.29,0,.56.25,0,0-.1,0-.16,0a.94.94,0,0,1,.6.29s0,.06-.1,0c.39.32.82.37,1.17.81-.26.05.1.17,0,.33l.26.16,0-.15c.19.18.44.24.57.44l-.2-.08.38.31-.15-.24c.26.11.14-.19.36.09-.07,0,.19.18.21.35a.62.62,0,0,1,.38.27c0,.07-.17.11-.18.17.21,0,.47.4.7.4a.12.12,0,0,0-.14.08h.17c.05.11.05.14,0,.18.23.28.09-.25.31.13,0,0,0,0-.09,0,.26.35.63.56.84.9-.07.21-.26-.23-.29,0a7.46,7.46,0,0,1,1.21,1.24l0-.1c.26-.09.13.41.38.57-.06,0-.17,0-.14,0a12.67,12.67,0,0,0,.79,1.08l-.09,0c0,.22.21.54.28.77.08,0,.13.17.19.06-.09.81.67,1.27.55,2,0-.07-.11-.16-.09-.1l.21.53c.1-.08.05-.09.11-.23a.67.67,0,0,1,.2.29h.21a.69.69,0,0,0,0-.13c.11,0,.17,0,.25.12l-.06-.21c-.08,0-.12-.1-.18-.23h.14a3.35,3.35,0,0,1-.35-.93c-.13,0-.25.4-.45,0,.06,0,.17-.09.23,0s-.09-.1-.09-.17l.16.12c0-.19-.12-.06-.15-.2s0-.12.11-.12,0,.13.06.17a.83.83,0,0,1,0-.45.11.11,0,0,1-.18-.06c-.11-.28.08-.14.06-.32s-.09-.26-.23-.21,0-.12,0-.17-.31-.67-.38-.44v0l0,0c-.34-.4-.41-1-.74-1.4l0,0c-.22-.22-.41-.55-.62-.66-.06-.07-.06-.22,0-.23a1.06,1.06,0,0,1-.37-.46c.21.13,0-.11.2.15-.16-.26-.14-.37-.45-.53.17,0,0-.28-.15-.36l.07.22a2.92,2.92,0,0,1-.29-.34l.17,0c-.27-.61-1-.59-1.09-1.16-.2,0,.18.3,0,.29-.19-.22-.23-.59-.29-.66-.22-.33-.43-.07-.68-.4,0,.08-.08.23-.34.06s-.08-.42.09-.33.06.08,0,.09.19.12.15,0l-.07,0c-.06-.14-.34-.41-.21-.41-.19-.11-.13,0,0,.14-.2-.32-.41-.4-.65-.68,0,.06,0,.15,0,.11-.36-.42-.25-.08-.55-.3-.1-.21.2-.12-.13-.3-.13-.2.07-.16.17-.13-.34-.14-.43-.48-.57-.62l.17.08a1.24,1.24,0,0,1-.24-.16v.15c-.07-.08-.14-.14-.11-.17-.13,0-.06.2-.29.15-.07-.14-.37-.22-.31-.37.31.32.06-.16.37.06a.63.63,0,0,1-.21-.17s0,0,.06,0c-.24-.37-.26,0-.6-.26.1,0,0-.2,0-.23.13.12,0,.17-.2.13-.18-.23-.27-.15-.39-.24l.12.13c-.1,0-.21-.06-.38-.16,0-.06.17.07.13,0-.26,0-.29-.43-.6-.52-.08-.13.09-.15,0-.25-.34-.11-.22-.32-.58-.45,0,.16.05.14-.22.1.17.09.36.17.53.27l-.41-.08c.15.1.35.15.42.23-.2,0-.16,0-.15.09-.09-.29-.46-.18-.62-.44l.18-.24c-.28-.34-.71-.3-1.12-.66l.12.14c-.13,0-.3-.17-.48-.22.07-.08,0-.17,0-.26,0,.07-.34-.21-.48-.07l-.14-.24c-.35-.27-.57,0-.93-.26.17,0,0-.18.32-.11-.12-.07-.23-.15-.26-.09,0-.09-.41-.07-.48-.22-.07,0-.14.09-.28,0a0,0,0,0,1,0,0s-.25-.06-.18.1c-.23-.5-1.09-.54-1.32-.94-.29-.1-.64-.24-.9-.35,0,0,0,0,.07,0-.32-.23-.34.17-.7-.1-.15-.23.25,0,.14-.09.07-.33-.5-.17-.71-.46h.08c-.17-.19-.56-.1-.91-.23a0,0,0,0,0,0,0,2.9,2.9,0,0,1-1.11-.11c.14-.08.17,0,.15-.15s0,.21-.34.14c-.07-.1-.28-.22-.27-.36l.3.08c-.1-.22-.38-.1-.53-.18l.05-.07c-.46-.1-.52.09-1-.06l0,.07c-.3.12-.18-.17-.48-.09l0-.2a9.51,9.51,0,0,1-1,0,3.13,3.13,0,0,1,.83-.14c-.17,0-.59-.11-.7,0a.36.36,0,0,1,.23,0,1.42,1.42,0,0,1-.88,0c.13-.38-.89-.23-1.11-.56-.64,0-1.24-.19-2-.22.25.31-.21,0-.18.3-.17,0-.24,0-.25,0l-.51-.19c-.13-.08.16-.07.14-.13-.37,0-.15-.13-.4-.21,0,.11-.13.16-.35.12l.3.14c-.52.16-.46-.26-1-.09l.17-.1c-.27,0-1,.08-1.26.34-.05,0-.12-.11,0-.14-.66,0-1.41.42-1.93.35l0-.08c-.12,0-.18.18-.35.14,0,0,0-.08,0-.08a.94.94,0,0,1-.46.19l.12-.11c-.65,0-.9.43-1.4.61,0-.22-.55-.14-.8-.1v0a7,7,0,0,0-1.73.93c-.49-.06-1.36.49-2,.7.11,0,.07.16,0,.23s-.31.35-.39.16l0,0c-.2-.11-.46.1-.69.23l.1.25c-.78,0-1.39,1.06-1.88,1-.09.15-.25.27-.34.42l-.08-.12a6,6,0,0,0-1,.76l0-.14c-.25.19,0,.57-.23.76l-.21-.1a4,4,0,0,0-1.17,1.16.12.12,0,0,1,0-.15c-.18.18-.78.64-.5.76-.15-.12-.39.42-.5.7l-.08-.12a1,1,0,0,1-.17.64s-.09,0-.08,0c-.12.14,0,.23-.23.42v-.15c-.17.22-.12.23-.13.42s-.33.41-.46.38a.32.32,0,0,1-.07.37c-.06,0-.05-.07,0-.1-.35.34-.24.67-.52.87a.11.11,0,0,0-.1,0,3,3,0,0,1,.35-.54c-.11-.07-.29.17-.31-.13a2.18,2.18,0,0,1-.28,1h-.06v0a.33.33,0,0,0-.08.18l-.15.19c-.11,0-.21.29-.28.42.13,0,0,.22.2.11,0,0,0,0,0-.13a.14.14,0,0,0,0-.06h0l.16-.33a.37.37,0,0,1-.14.38,2.55,2.55,0,0,1,.1.29c-.27.09-.53.41-.66.41-.14.45-.4,1-.26,1.38,0,.13-.13.11-.18.14s0-.16,0-.21c-.05.26-.26.73-.1.85-.19.28-.1-.23-.22.2l0-.07c-.57.76,0,1.5-.59,2.35,0-.06.06-.09.1-.09A7.48,7.48,0,0,0,44.31,163Z" class="cls-10"/><path d="M47.6,155.37h0l-.06.13Z" class="cls-10"/><path d="M47.91,154.84l-.14.22a.06.06,0,0,1-.05-.1S47.83,154.9,47.91,154.84Z" class="cls-10"/><path d="M46.41,155.51c0-.1.07-.12.1-.12l-.06.17h0Z" class="cls-10"/><path d="M46.49,155.75s0,0,0,0l.06,0,0-.05Z" class="cls-10"/><path d="M93.29,159.82v0S93.28,159.82,93.29,159.82Z" class="cls-10"/><polygon points="53.75 148.91 53.73 148.88 53.7 148.94 53.75 148.91" class="cls-10"/><path d="M84.65,151.61l0,0C84.51,151.55,84.57,151.59,84.65,151.61Z" class="cls-10"/><path d="M88.89,154.84l-.17-.07C88.78,154.85,88.83,154.9,88.89,154.84Z" class="cls-10"/><polygon points="79.62 148.52 79.62 148.52 79.59 148.5 79.62 148.52" class="cls-10"/><path d="M88.54,154.6a.36.36,0,0,0,.18.17A.73.73,0,0,0,88.54,154.6Z" class="cls-10"/><path d="M92,157.42l.12-.06C92,157.25,92.05,157.39,92,157.42Z" class="cls-10"/><polygon points="90.42 156.59 90.46 156.75 90.59 156.73 90.42 156.59" class="cls-10"/><polygon points="90.42 155.25 90.48 155.29 90.26 155.13 90.42 155.25" class="cls-10"/><path d="M78.71,146.66l0,.16C78.8,146.84,78.9,146.7,78.71,146.66Z" class="cls-10"/><path d="M72.77,144.59a.3.3,0,0,0-.33-.14C72.57,144.49,72.69,144.59,72.77,144.59Z" class="cls-10"/><polygon points="54.41 146.94 54.49 146.83 54.31 147 54.41 146.94" class="cls-10"/><path d="M28.29,124.27s0,.14.05.13l0-.16Z" class="cls-10"/><path d="M28.61,124.62a.45.45,0,0,0,.19-.33c-.11.13-.11.06-.21.23-.06,0-.08-.06-.07-.12s-.08-.05-.12,0,.13.14.24.06S28.62,124.59,28.61,124.62Z" class="cls-10"/><path d="M30.75,128.4v0S30.75,128.38,30.75,128.4Z" class="cls-10"/><path d="M31.13,131.13s0,0,0,0S31.12,131.14,31.13,131.13Z" class="cls-10"/><path d="M31,131.61v0S31,131.6,31,131.61Z" class="cls-10"/><path d="M30.75,128.4l0,.08C30.77,128.47,30.75,128.43,30.75,128.4Z" class="cls-10"/><path d="M29.41,124.59s0,0-.06,0l0,0Z" class="cls-10"/><path d="M30.25,127.29v0h-.07Z" class="cls-10"/><path d="M29.85,126.47s.13,0,.19-.06a.16.16,0,0,1-.1,0Z" class="cls-10"/><path d="M29.22,125.17h0Z" class="cls-10"/><path d="M30.44,127.92l-.05,0Z" class="cls-10"/><path d="M26.85,124.56l0,0S26.86,124.55,26.85,124.56Z" class="cls-10"/><polygon points="28.29 124.64 28.27 124.65 28.25 124.72 28.29 124.64" class="cls-10"/><path d="M30.81,132.45Z" class="cls-10"/><path d="M27.23,137c0,.14-.18.12-.11.28C27.13,137.18,27.29,137.06,27.23,137Z" class="cls-10"/><path d="M29.43,124.62l0,0S29.44,124.62,29.43,124.62Z" class="cls-10"/><polygon points="27.12 137.23 27.12 137.23 27.13 137.25 27.12 137.23" class="cls-10"/><path d="M30.7,134.36h0Z" class="cls-10"/><path d="M31.08,133l0,0Z" class="cls-10"/><path d="M30.7,135.11s0,0,0,0h0S30.67,135.12,30.7,135.11Z" class="cls-10"/><polygon points="30.42 135.81 30.45 135.81 30.45 135.79 30.42 135.81" class="cls-10"/><path d="M25.5,126.91h.13C25.53,126.9,25.55,126.77,25.5,126.91Z" class="cls-10"/><path d="M29.37,124.65a.09.09,0,0,1,.06,0h0A.05.05,0,0,0,29.37,124.65Z" class="cls-10"/><path d="M31.74,135.49l-.06.13A.39.39,0,0,0,31.74,135.49Z" class="cls-10"/><path d="M24.28,132.84l0,0S24.26,132.83,24.28,132.84Z" class="cls-10"/><path d="M31.54,136a.33.33,0,0,0-.13,0l0,0Z" class="cls-10"/><path d="M25.63,126.93h0Z" class="cls-10"/><path d="M25.71,126c-.06.12.14.14.22.21s-.16,0-.27,0,.13.26.09.32-.05,0-.07,0c.09.15-.13.28,0,.46h-.05a.75.75,0,0,1,.24.08s.07.14-.05.11,0-.05-.06-.08l0,.08c-.18,0,0-.1-.14-.15,0,.13.09.31,0,.37s0-.21-.16-.16l.11-.1c-.29,0,.05-.08-.25-.09-.12.15,0,.22-.11.38.07.07.13,0,.21.1.07.3-.47,0-.32.31.09.08.28.17.13.26l-.16-.1c-.08.16.23.18.05.31-.06-.05,0-.15-.05-.13s.08.11.05.2l-.17,0c0,.19,0,.42,0,.63-.05,0-.09-.07-.15,0a1.32,1.32,0,0,1-.32.76l.13.13a.08.08,0,0,1-.1,0c-.07.08.09,0,.14.08s-.1.06-.14,0c.09.2.17.54,0,.69l0,0c-.08.13.27.21.12.31l0,0c-.11.29,0,.65-.26.86.2.06-.11.3.18.34-.16.17-.21.11-.33.36,0,.07.19.11.21.19h-.15l.16.12-.19.06,0,.07a.14.14,0,0,1,.12-.06c.06.13-.12.3-.19.3l.14.29c-.07,0-.09-.05-.13-.09.16.16-.16,0,0,.18,0,0,.09,0,.12,0a.31.31,0,0,0,0,.35h-.1a3.72,3.72,0,0,0,.13.7c0-.09.22-.1.24,0l-.15.05c.11,0,.05-.08.18,0s-.17.09-.23.05l.08.1c-.05,0-.08,0-.14,0,.1,0-.13.22,0,.26h0a4.3,4.3,0,0,0,.2.55c.13,0,.13.05.26.08a1.34,1.34,0,0,0,0,.52c.12.09.13,0,.23,0-.12.06,0,.22-.15.17a1.09,1.09,0,0,0,.4.44s0-.09.08-.1,0,.13,0,.16h0c.16.08.2.28.28.47s.15.38.35.36h0l.3.06c.09.1-.11,0-.08.16.38,0,.42.28.71.22,0,.21.21.26.39.29a.63.63,0,0,1,.49.12v-.09c.08-.08.08.06.13.09s-.07-.09,0-.13c.52-.1,1.13.15,1.79-.05.23-.07-.08-.47.26-.41V138c.31-.37.76-.55.92-1,0,0,.05.08,0,.11.16,0,.2-.27.12-.32s.08,0,.15,0,0-.27.12-.25,0,.05,0,.06.14-.22,0-.24c.13-.1.09-.28.2-.35-.11-.13.17-.2,0-.31.21.1.27-.17.19-.29.05.05.09-.06.17,0,0-.11,0-.21-.1-.23.33-.11-.11-.42.25-.43a7.88,7.88,0,0,1-.09-.89c.22,0,0,.3.21.33-.05-.28-.23-.44-.14-.68,0-.07.09,0,.12.07-.05-.26.07-.49,0-.72,0,0,0,0,.06,0s0-.1-.06-.1l0,0c-.15.06-.3-.18-.38-.19.29.08.08-.22.45-.09a.14.14,0,0,0-.14-.06s.06-.05.14,0c0-.16-.16-.1-.16-.25.05,0,.07,0,.13.05-.1-.07-.19-.15-.15-.26s.07,0,.07,0c0-.2-.27-.34-.18-.56.22.05.06-.08.25-.1l-.07-.12-.08.05c0-.1-.15-.19-.09-.28l.08.07L31.8,131l-.06.11c-.11-.09-.24,0-.2-.11,0,0,0-.1.1-.17h0c-.06,0-.13-.09-.09-.17a2.12,2.12,0,0,1,.24,0c-.16,0-.07-.24-.24-.29a.29.29,0,0,0,.16,0l-.13,0s.05-.06.13-.06-.23.08-.16-.11c0,0,0,0,.06,0,0-.18-.13-.32-.09-.49s.06.13.21.05c-.07-.22-.31-.43-.31-.65v0c-.26,0,.09-.19-.05-.27,0,0,.15,0,.12,0,0-.16-.13-.29-.28-.49h.08c0-.11,0-.24,0-.35s-.07-.06-.16,0c.28-.4-.36-.48-.16-.84,0,0,.09.06.08,0l-.14-.19c-.1.06-.06,0-.12.13a.18.18,0,0,1-.17-.09c.11.06.17-.07.22-.14l-.11,0c.15-.19-.22.07-.15-.13l.05,0c-.05,0-.14-.06-.15-.13s.08,0,.18,0-.3-.06-.21-.19.07.07.12.09c.11-.15.06-.15.06-.22h0v-.17l0,.05c-.37.06-.16-.18-.44-.21.26,0,.12,0,.26-.1s0-.13.07-.14c-.15,0,0-.16-.19-.16,0,0,0-.07.07-.12-.08-.07-.06.06-.12.09-.22,0,0-.42-.36-.46s-.34,0-.52,0c0-.1.16-.1.16-.1a.19.19,0,0,0-.19-.17s0-.06.06-.13-.15.11-.19,0a1.4,1.4,0,0,1,.18-.12c-.11,0-.24,0-.34,0s.11-.09.17-.12c-.11,0-.29-.07-.37,0l0,.07s0-.11.07-.12.09.1.08.14h-.07c-.08.28.23.08.34.18l-.17.13.2-.05c0,.06-.07.16-.13.14,0,.14.1,0,.08.13s0,0,0,0h.1s-.09.11-.1.06c0,.18.27.06.19.21h0c.18.11.13-.08.37-.08l-.24.32.13-.08a.06.06,0,0,1,0,.09c.13,0,.05,0,.16-.07-.06.16.21.2,0,.35.12,0,0-.13.15-.08-.2.16.11.09,0,.23s-.11-.07-.17.07c.23-.07.05.17.12.22s.14.12.25.21c-.05,0,0,.26,0,.4h0c.18,0,.2.07.26.15a.31.31,0,0,1-.21,0l0,.08a.15.15,0,0,1,.14,0l-.14,0c.05.1.24.16.2.33.12,0,.3-.23.43-.11-.07,0-.18.07-.22,0s.07,0,.05.06l-.13,0c0,.08.11,0,.11.06s-.05.06-.13.08,0-.06,0-.07a.28.28,0,0,1-.09.2s.12,0,.15,0-.1.07-.13.15,0,.09.17.05-.06.06-.09.08.09.26.22.16v0h0c.19.15,0,.41.12.58h0c.08.1.09.25.21.3s-.08.1-.14.1.11.08.05.22c-.1-.07-.06,0-.07-.08,0,.12-.1.16.06.26-.14,0-.14.11-.1.15l.08-.09a.33.33,0,0,1,0,.17H30.8c-.17.26.41.37.09.59.12,0,.07-.14.21-.1,0,.11-.24.25-.24.28s.26.11.22.27c.05,0,.21-.06.27.05s-.24.16-.29.09,0,0,0,0-.05-.07-.11,0H31c-.06.06,0,.21-.14.18.06.08.1,0,.13,0-.08.14,0,.21,0,.35,0,0,.1-.05.1,0-.06.21.12.08.15.22s-.22,0-.14.12-.16,0-.21,0c.12.12-.06.24-.08.31l0-.07a.11.11,0,0,1,0,.11l.12,0s0,.07-.07.07.2,0,.3,0c-.06.05.07.16-.09.18.05-.17-.16,0-.18-.13,0,0,0,.06,0,.1s0,0,0,0c-.14.16.18.08.17.24-.09,0-.17,0-.15.06s.15,0,.22,0c-.08.1,0,.11,0,.17l0-.06c.09,0,.08.08.1.15s0-.07-.08,0c.16.09-.17.17-.07.29-.06,0-.17,0-.21,0s-.14.12-.06.26c.12,0,.1,0,.2.07l-.06-.22.16.16c0-.07-.06-.15,0-.19s.06.07.17.05c-.19.07.08.19,0,.28l-.3,0c-.14.14.11.29,0,.48l.06-.05c.11,0,0,.12,0,.2s-.14,0-.2,0,0,.14.14.2l-.14.06c-.1.14.23.25.15.39-.09-.07-.18,0-.22-.14s-.05.08,0,.1.09.18,0,.19.13.08.11.13h-.05c.05,0,0,.11.15.09-.34,0-.14.44-.45.45a1.91,1.91,0,0,1-.1.34s0,0,0,0c-.15.06.19.22,0,.3s0-.12-.1-.11c-.28-.18-.07.18-.29.14v0c-.13,0,0,.21-.14.29l0,0a.54.54,0,0,1-.13.45c0-.13,0-.09-.08-.18s.13.16.05.25-.17-.05-.25-.17l.09,0c-.14-.13-.11.07-.17.07l0-.08c-.11.1,0,.27-.21.32l0,0c0,.21-.11-.08-.16.09l-.08-.18a1,1,0,0,1-.28.27,1.68,1.68,0,0,1,.21-.34c-.06,0-.19,0-.2.14s0-.07.07-.05-.14.27-.28.26c0-.38-.34-.09-.42-.38-.21.1-.4-.09-.6-.15,0,.31-.07,0-.15.28-.06,0-.08,0-.08,0A.79.79,0,0,1,27,137c0-.1.07,0,.09-.1s0-.14,0-.25c0,.11-.11.13-.14.06v.17c-.22.06,0-.27-.2-.23l.09-.05c-.09,0-.21-.16-.44,0,0,0,.06-.11.1-.1-.1-.15-.5-.17-.46-.4l.07,0s-.15,0-.12-.06.08,0,.07,0-.16,0-.15-.1H26c0-.22-.34-.19-.44-.36a.36.36,0,0,0,.22-.34h0c0-.25-.29-.36-.42-.59.21-.19,0-.52.14-.77,0,0-.17,0-.2,0s-.17-.15,0-.15v0c.2-.06.14-.17.14-.26h-.26c.37-.25-.14-.64.2-.77-.06-.06-.06-.14-.12-.2h.14a.89.89,0,0,0,.05-.44l.1.05c0-.11-.4-.18-.39-.29h.21c0-.2.22-.38.07-.6,0,0,.09,0,.09.05s.2-.33-.09-.35c.18,0,0-.2,0-.32l.13,0c-.16-.12-.2-.14-.23-.27s.12,0,.07,0-.11-.1,0-.21l.07.07c0-.11,0-.11-.1-.19s.08-.18.2-.17c-.07,0-.15-.11-.1-.16a.12.12,0,0,1,.08,0c.13-.15-.1-.29.07-.38h.08c0,.14-.07.25-.08.23s.17-.07.33.06c-.08-.11-.24-.31-.15-.4h.05a0,0,0,0,0,0-.07A.21.21,0,0,0,26,129c.11,0,.09-.11.11-.16s-.09-.1-.22-.06,0,0,0,0v0h0a1.15,1.15,0,0,1,0,.14c-.06-.07-.11-.13,0-.17l-.19-.14c.21,0,.36-.13.48-.11,0-.19.07-.4-.14-.58,0-.06.09,0,.13,0s0,.07,0,.1.07-.28-.1-.37c.12-.09.14.12.17,0l0,0c.4-.19-.23-.69.27-.87,0,0,0,0-.07,0,.32-.3.26-.86.71-1,.11-.06,0-.14,0-.25l.13.07-.06-.2c0-.22.45,0,.43-.25l-.08-.07c.06,0,.15-.18.2-.07s0-.11,0-.07l0,.06a1.63,1.63,0,0,1,.09-.19c.12,0,.09.3.19.29s.11-.23.12-.28-.06,0-.06-.12l.08,0c0-.23.23-.46-.1-.64a.87.87,0,0,0-.21.15l-.09-.09a.58.58,0,0,1,.19,0c-.13-.11-.18,0-.23.1a.19.19,0,0,0-.12-.1.82.82,0,0,0-.11.28c-.06-.07,0-.21-.13-.19s.15.14.07.27c-.12,0-.15-.14-.18,0a.1.1,0,0,1,0-.13c0,.11-.18.16-.13.29-.15-.05-.18.2-.33,0a.42.42,0,0,1,0,.27c-.11-.27-.18.19-.38,0,.13.22-.11.33-.1.54,0,0,0-.06,0-.06s-.14.05-.21.07c.16.12.13.26.19.38-.22,0-.16-.17-.33-.24.13.08,0,.24.17.28a.43.43,0,0,1-.25,0c.21.13,0,.09.1.22-.16,0-.21-.08-.21.07S25.71,126,25.71,126Zm-.67,3h0v0Zm-.06.24a.29.29,0,0,0,0-.1s.1,0,.09.05S25,129.15,25,129.17Zm1.08-.24s0,0,0,0v-.07h0Z" class="cls-10"/><path d="M25.9,128.82v0h0l0,0Z" class="cls-10"/><path d="M30.76,128.36Z" class="cls-10"/><polygon points="24.21 132.55 24.25 132.55 24.22 132.53 24.21 132.55" class="cls-10"/><path d="M30.8,126.93l0,0Z" class="cls-10"/><path d="M30.59,126.37v-.09A.14.14,0,0,0,30.59,126.37Z" class="cls-10"/><path d="M30.43,125.93l-.05,0h0Z" class="cls-10"/><path d="M32,133v0S32,133,32,133Z" class="cls-10"/><path d="M31.64,130.83a.16.16,0,0,1,.07.07S31.72,130.83,31.64,130.83Z" class="cls-10"/><polygon points="31.75 135.48 31.75 135.48 31.74 135.49 31.75 135.48" class="cls-10"/><path d="M31.72,131s0-.07,0-.09S31.7,131,31.72,131Z" class="cls-10"/><path d="M29,124.32h0v0Z" class="cls-10"/><path d="M29,124.33h0A0,0,0,0,0,29,124.33Z" class="cls-10"/><path d="M28.85,124.34h.08A.06.06,0,0,0,28.85,124.34Z" class="cls-10"/><path d="M29.55,124.77l0,0Z" class="cls-10"/><path d="M29.71,124.9s0-.16-.09-.18l0,0C29.67,124.71,29.63,124.93,29.71,124.9Z" class="cls-10"/><path d="M29.69,125.89l-.05-.14s-.07.12-.12.08C29.49,126.06,29.6,125.73,29.69,125.89Z" class="cls-10"/><path d="M29.85,126.31c-.06,0-.07,0-.1,0S29.84,126.38,29.85,126.31Z" class="cls-10"/><path d="M30.89,129.38l-.13,0S30.81,129.39,30.89,129.38Z" class="cls-10"/><polygon points="31.65 129.9 31.72 129.82 31.6 129.81 31.65 129.9" class="cls-10"/><polygon points="30.8 130.4 30.78 130.38 30.84 130.47 30.8 130.4" class="cls-10"/><path d="M30.37,135.64l.14.05C30.5,135.64,30.35,135.56,30.37,135.64Z" class="cls-10"/><path d="M29,137.18c-.05-.07-.12-.1-.13,0S29,137.2,29,137.18Z" class="cls-10"/><polygon points="25.48 133.2 25.53 133.25 25.48 133.16 25.48 133.2" class="cls-10"/><path d="M242,25.67s.13,0,.12,0l-.14-.09Z" class="cls-10"/><path d="M242.38,25.67a.81.81,0,0,0-.29-.23c.12.11,0,.08.21.2,0,0-.07,0-.12,0s-.05,0,0,.07.14,0,.07-.08A.2.2,0,0,1,242.38,25.67Z" class="cls-10"/><path d="M244,25.42v0Z" class="cls-10"/><path d="M244.6,26.14h0Z" class="cls-10"/><path d="M244.51,26.37v0S244.49,26.37,244.51,26.37Z" class="cls-10"/><path d="M244,25.42v.06C244,25.43,244,25.44,244,25.42Z" class="cls-10"/><path d="M242.26,25.18a.08.08,0,0,0,0,0v0Z" class="cls-10"/><path d="M243.55,25.47h0v0Z" class="cls-10"/><path d="M243.27,25.53l0-.2a.58.58,0,0,1,0,.1A.93.93,0,0,0,243.27,25.53Z" class="cls-10"/><path d="M242.72,25.53v0Z" class="cls-10"/><path d="M243.75,25.53v0Z" class="cls-10"/><path d="M242.06,26.23v0Z" class="cls-10"/><polygon points="242.69 26.86 242.68 26.86 242.67 26.94 242.69 26.86" class="cls-10"/><path d="M244.43,26.69h0S244.42,26.68,244.43,26.69Z" class="cls-10"/><path d="M243.78,29c.1.09.06.16.17.25S243.86,29,243.78,29Z" class="cls-10"/><path d="M242.28,25.18l0,0Z" class="cls-10"/><polygon points="243.96 29.24 243.96 29.24 243.97 29.25 243.96 29.24" class="cls-10"/><path d="M244.59,27.31h0Z" class="cls-10"/><path d="M244.74,26.79h0Z" class="cls-10"/><path d="M244.76,27.59s0,0,0,0h0S244.74,27.6,244.76,27.59Z" class="cls-10"/><polygon points="244.71 27.87 244.74 27.88 244.73 27.86 244.71 27.87" class="cls-10"/><path d="M241,27.18l.12.05C241,27.18,241,27.1,241,27.18Z" class="cls-10"/><path d="M242.32,25.23s0,0,0-.05v0Z" class="cls-10"/><path d="M245.86,27.76l0,.06A.09.09,0,0,0,245.86,27.76Z" class="cls-10"/><path d="M241.7,30.05h0Z" class="cls-10"/><path d="M245.81,28a.22.22,0,0,0-.1,0h0Z" class="cls-10"/><path d="M241.09,27.23Z" class="cls-10"/><path d="M241.13,26.64c0,.05.11.15.17.23s-.12-.06-.21-.1.1.21.08.24L241.1,27c.09.13-.09.13,0,.28h0l.22.13s.07.1,0,0,0,0-.06-.06l0,.05c-.16-.07,0-.06-.14-.13s.11.2,0,.21,0-.11-.17-.13l.09,0c-.25-.09,0,0-.23-.13-.09.07,0,.14-.07.21.08.06.13.05.21.11s-.44-.07-.26.12.3.13.17.16l-.18-.08c0,.09.25.13.1.19s0-.09-.07-.08.1.07.09.11l-.17,0c0,.11.11.23.14.34a.29.29,0,0,0-.16,0c.08.15,0,.31-.08.48l.15,0a.11.11,0,0,1-.09,0c0,.07.09,0,.16,0s-.08.06-.12.05c.15.07.33.17.24.32h0c0,.09.31-.07.22.05h0c0,.18.24.23.17.47.16-.13.05.18.26,0,0,.17-.09.19,0,.35s.15-.12.2-.12l-.08.13.13-.1-.07.17.06,0s0-.07,0-.11.08.17,0,.24l.19-.05c0,.05-.06.06-.09.09.14-.11,0,.15.07.05a.6.6,0,0,1,.06-.11c0,.1.07.13.14.12l0,.09c.1.07.24,0,.36.05a.31.31,0,0,1,.05-.24l0,.16c0-.09,0-.07.05-.18s0,.19,0,.24l.06,0a.79.79,0,0,1,0,.13c0-.09.07.18.13,0v.05c.13,0,.19,0,.3,0s0-.11.07-.22.15.15.24.13,0-.12,0-.21c0,.13.11.11.07.2a.36.36,0,0,0,.24-.17c0-.05,0-.07,0-.11s.06,0,.08.1h0c.08-.21.46.25.48-.05h0c0-.06,0-.11.05-.18s0,.11.08.15c0-.24.21-.07.22-.26.29.26.22-.19.45-.09l-.06-.06c0-.09.06,0,.09,0s-.08,0-.1-.08c.09-.24.44-.29.65-.47s-.37-.28-.13-.27l.12.11c-.08-.25.18-.34.09-.57,0,0,.08,0,.07.06s.05-.13,0-.16.09,0,.14,0-.12-.13,0-.12l0,0s0-.1-.09-.12c.08,0,0-.13.06-.16-.14-.07.1-.1-.12-.15.22.05.21-.08.1-.13.07,0,.08,0,.17,0s0-.1-.15-.1c.28-.06-.2-.19.15-.21a2.62,2.62,0,0,1-.26-.39c.23,0,0,.13.27.12-.1-.12-.3-.17-.26-.29s.1,0,.14,0,0-.23-.15-.31h.06s0-.05-.07,0h0c-.14.06-.32,0-.4,0,.3,0,.05-.11.42-.15a.24.24,0,0,0-.14,0s.06,0,.14,0c-.08-.06-.17,0-.19-.07h.13c-.11,0-.21,0-.18-.08s.06,0,.06,0-.29-.06-.24-.19c.21-.06.05-.06.21-.14l-.07,0-.07.06c0-.05-.16,0-.13-.09h.09l-.08-.07,0,.08c-.11,0-.21.12-.19,0s0,0,.06-.11h0c-.06,0-.13,0-.11,0l.21-.14c-.14.07-.1-.07-.25,0l.13-.09-.12.06s0-.05.1-.1-.17.16-.14,0,0,0,0,0-.16-.06-.16-.15.08,0,.17-.12c-.11-.06-.32,0-.37-.09v0c-.16.21,0-.15-.1-.07s.09-.12.07-.1-.17,0-.3,0l0-.06c0-.07-.1-.08-.13-.12s-.06,0-.07.14c-.05-.42-.29.14-.37-.19,0,0,0-.05,0-.05l-.11.05c0,.12,0,.07,0,.16s0,.12-.07.12,0-.18,0-.25v.11c-.06-.2,0,.24-.08.1V25s0,.11-.07.1,0-.07,0-.18,0,.26-.1.14,0-.05,0-.09-.06-.11-.09-.13h0l-.09-.06,0,0c0,.35-.1.08-.1.32,0-.22,0-.12-.06-.26s-.08-.08-.08-.12c0,.13-.1-.07-.09.12,0-.05,0,0-.07-.11,0,.06,0,.08.06.13s-.26-.1-.24.16.06.27.06.37a.28.28,0,0,1-.1-.15c-.07,0-.09,0-.08.08a.33.33,0,0,0-.11-.09s.12.14,0,.12a.48.48,0,0,1-.12-.16,1.42,1.42,0,0,0,.05.22.32.32,0,0,1-.12-.15.22.22,0,0,0,.09.24h0s-.1-.05-.11-.08.07,0,.11,0v0c.24.15,0-.11.09-.15l.13.16-.09-.16a.62.62,0,0,1,.14.15c.09.06,0-.07.07,0s0,0,0,0v-.07s.09.11.06.1,0-.18.08-.06h0c0-.1-.08-.13-.11-.32l.22.31-.07-.14s0,0,.05.06c0-.1,0-.05-.06-.15.09.1.08-.11.18.12,0-.12-.07-.07-.06-.16.1.23,0-.07.11,0s0,.07,0,.18c0-.23.08,0,.09,0s0-.09.08-.15.1.08.14.15v0c0-.18,0-.15.08-.19a.81.81,0,0,1,0,.2h0a.14.14,0,0,1,0-.11v.14s.09-.16.13-.06c0-.12,0-.36.08-.43a.81.81,0,0,1-.05.21s0,0,0,0l-.05.11c0,.05,0-.1.05-.08a.86.86,0,0,0,0,.15s0-.05,0,0a.23.23,0,0,1,0,.16c0-.06,0-.13.05-.14s0,.12,0,.17,0,0,.07-.13c0,0,0,.07,0,.11s.08,0,.12-.14h0c.13-.11.1.14.18.12l0,0c.06,0,.09,0,.18-.05s0,.09-.07.14.08-.05.06,0,0,.06-.06,0-.05.13.07,0c-.09.09-.09.14-.05.12l.05-.08s0,0,0,0l-.12.1c-.11.18.35-.12.12.14.1-.05,0-.08.16-.15s-.17.21-.17.22.23-.1.21,0a.48.48,0,0,1,.25-.11s-.2.16-.25.17,0,0,0,0a.14.14,0,0,0-.1,0l0,0s0,.08-.1.12a.13.13,0,0,0,.11-.07c-.06.08,0,.07,0,.13l.09,0c0,.09.12,0,.16,0s-.2.07-.11.09a.4.4,0,0,1-.2.07c.13,0,0,.09,0,.12h-.06s0,0,0,0l.11-.05s0,0-.06,0a1.77,1.77,0,0,1,.29-.07c-.05,0,.08,0-.07.09,0-.07-.15.05-.18,0s0,0,0,0h0c-.12.08.18,0,.19,0s-.16.05-.14.05.14,0,.21,0,.06,0,.05.05l0,0c.09,0,.08,0,.12,0s-.06,0-.08,0c.16,0-.15.09,0,.12-.06,0-.17,0-.2,0,.12,0-.12.06,0,.09a.37.37,0,0,1,.21,0l-.1-.07.18,0s-.08-.05-.06-.06a.33.33,0,0,0,.17,0c-.18,0,.11.06,0,.11l-.29,0c-.13.06.16.09.08.17l.05,0c.12,0,0,.05.07.07l-.2,0c.07,0,0,.05.19.07l-.13,0c-.06.05.27.09.23.15s-.18,0-.25-.06,0,0,.05,0,.12.07,0,.08.14,0,.13.05h-.05c.05,0,.06.05.17.05-.31,0,0,.18-.28.18a.29.29,0,0,1,0,.15s-.05,0,0,0,.26.11.14.15-.07-.06-.14-.06c-.31-.1,0,.08-.17,0h0c-.11,0,.09.11,0,.15l0,0a.41.41,0,0,1,.18.26.42.42,0,0,0-.17-.1s.19.08.2.14a1.2,1.2,0,0,1-.27-.08l0,0c-.17-.07,0,.05-.06.05l-.07,0c0,.07.16.17.11.22l0,0c.14.14-.1,0,0,.08l-.16-.1a.87.87,0,0,1,.1.24,1.78,1.78,0,0,1-.18-.27s0,.07,0,.14,0-.06,0-.05.14.2.1.24c-.28-.26-.16,0-.39-.16,0,.16-.15.06-.2.13.2.22,0,0,.17.26,0,0,0,0,0,0l-.16-.11c-.06-.07,0-.07-.06-.13s-.09-.1-.15-.15.07.14,0,.11l.1.11c0,.17-.17-.2-.14,0l0-.09c0,.06-.08,0,0,.27a.35.35,0,0,1-.05-.13c-.06,0-.07.3-.17.16v-.07s0,.14,0,.07,0-.07,0-.07,0,.13,0,.09v-.08c-.08-.1-.08.22-.16.27a.52.52,0,0,0-.09-.33v0c-.07,0-.14.18-.24.25,0-.24-.14-.13-.17-.28a.54.54,0,0,1-.08.17s-.1.13,0-.06h0c.05-.19,0-.15,0-.17l-.11.24c.1-.37-.25,0-.11-.29a1.27,1.27,0,0,1-.12.07l.09-.11c0-.05,0-.08-.08-.09l.08-.07s-.31.27-.34.25l.14-.15c0-.05.08-.19-.1-.13l.09,0s.08-.14-.17,0c.17-.09,0-.05-.1-.05l.13,0c-.17,0-.22.06-.28,0s.11-.05.08,0-.14,0-.08-.05h.09s0,0-.15,0,0-.07.15-.09c-.08,0-.18,0-.15,0h.09c.1-.06-.16-.07,0-.11h.09s0,.07,0,.07a1.57,1.57,0,0,1,.33,0c-.1,0-.32-.06-.25-.09h.06s0,0,0,0l0,0c.11,0,.06,0,.07,0a1.24,1.24,0,0,0-.23,0s0,0,0,0h0v.05c-.07,0-.13-.05,0-.06l-.22-.06a2.73,2.73,0,0,1,.43,0c-.06-.07,0-.12-.25-.25,0,0,.08,0,.12,0s0,0,0,.05,0-.1-.15-.18c.09,0,.15.09.14,0l.05,0c.29.06-.31-.41.08-.3l-.06,0c.21,0,.12-.35.39-.2,0,0,0-.07,0-.16l.08.13,0-.18c0-.15.21.33.2.07l0-.09s.07-.08.09,0,0-.11,0-.06v.08a1.21,1.21,0,0,1,.05-.14c.05.06,0,.31.06.33a1.87,1.87,0,0,0,.08-.28s0-.05,0-.13l0,0c0-.23.11-.46,0-.63l-.09.14,0-.12h.07c0-.11-.07,0-.09.05a.33.33,0,0,0,0-.13c0,.08,0,.16-.06.23,0-.09,0-.18,0-.23,0,.11.05.2,0,.28,0-.1,0-.19-.08-.09a.19.19,0,0,1,0-.13c0,.08-.1,0-.09.17-.07-.12-.12.07-.18-.14,0,0,0,.18,0,.2,0-.27-.13,0-.23-.23.06.24-.12.18-.12.34,0,0,0-.06,0-.05s-.1,0-.15-.06c.1.16.07.24.12.36-.16-.12-.12-.2-.24-.34.1.13,0,.19.12.28a.58.58,0,0,1-.19-.13c.16.19,0,.06.07.19-.12,0-.17-.15-.16-.05S241.13,26.64,241.13,26.64Zm-.27,1.6h0v0Zm0,.13v-.06s.1,0,.1,0S240.9,28.35,240.86,28.37Zm1-.15s0,0,0,0l0,0h.06Z" class="cls-10"/><path d="M241.65,28.18h0Z" class="cls-10"/><path d="M244,25.4h0v0Z" class="cls-10"/><polygon points="241.54 30.03 241.56 30 241.53 30.02 241.54 30.03" class="cls-10"/><path d="M243.51,24.83a0,0,0,0,0,0,0Z" class="cls-10"/><path d="M243.23,24.82l0,0S243.22,24.82,243.23,24.82Z" class="cls-10"/><path d="M243,24.81l0,.06h0Z" class="cls-10"/><path d="M245.66,26.59h0S245.69,26.6,245.66,26.59Z" class="cls-10"/><path d="M245,25.79h.07S245.08,25.74,245,25.79Z" class="cls-10"/><polygon points="245.86 27.75 245.86 27.75 245.86 27.76 245.86 27.75" class="cls-10"/><path d="M245.1,25.82s0,0,0,0S245.08,25.82,245.1,25.82Z" class="cls-10"/><polygon points="242.1 25.35 242.09 25.35 242.11 25.37 242.1 25.35" class="cls-10"/><path d="M242.11,25.37v0S242.12,25.38,242.11,25.37Z" class="cls-10"/><path d="M242.13,25.43l0,0S242.1,25.4,242.13,25.43Z" class="cls-10"/><path d="M242.37,25.14l0,0Z" class="cls-10"/><path d="M242.44,25.07s-.12-.05-.12,0l0,0C242.31,25,242.48,25.15,242.44,25.07Z" class="cls-10"/><path d="M243,25.44H243s.07.1.06.13S243,25.45,243,25.44Z" class="cls-10"/><path d="M243.2,25.47s0,.07,0,.1S243.24,25.51,243.2,25.47Z" class="cls-10"/><path d="M244.21,25.67l-.08.1S244.16,25.73,244.21,25.67Z" class="cls-10"/><polygon points="244.85 25.37 244.89 25.29 244.8 25.36 244.85 25.37" class="cls-10"/><polygon points="244.25 26.07 244.24 26.07 244.29 26.07 244.25 26.07" class="cls-10"/><path d="M244.6,27.8l.16,0S244.56,27.76,244.6,27.8Z" class="cls-10"/><path d="M244.42,28.63c-.07,0-.12-.05-.07,0S244.43,28.65,244.42,28.63Z" class="cls-10"/><polygon points="242.39 29.06 242.43 29.02 242.38 29.05 242.39 29.06" class="cls-10"/><path d="M295.7,62.7s0-.14-.05-.12l0,.16Z" class="cls-10"/><path d="M295.34,62.38a.42.42,0,0,0-.13.36c.08-.15.09-.08.17-.27.06,0,.09.06.08.12s.09,0,.12-.06-.15-.14-.26,0A.2.2,0,0,1,295.34,62.38Z" class="cls-10"/><path d="M292,58.92v0A0,0,0,0,0,292,58.92Z" class="cls-10"/><path d="M291.78,55.77a0,0,0,0,0,0,0S291.79,55.76,291.78,55.77Z" class="cls-10"/><path d="M292,55.24v0S292,55.24,292,55.24Z" class="cls-10"/><path d="M292,58.92l0-.1C292,58.83,292,58.87,292,58.92Z" class="cls-10"/><path d="M294.52,62.65a.09.09,0,0,0,.06,0h-.05Z" class="cls-10"/><path d="M292.66,60.13v0l.07,0Z" class="cls-10"/><path d="M293.25,60.94s-.12.07-.17.11.08,0,.11,0A.28.28,0,0,0,293.25,60.94Z" class="cls-10"/><path d="M294.44,62h0Z" class="cls-10"/><path d="M292.38,59.45l.05,0Z" class="cls-10"/><path d="M297.27,62.49v0S297.26,62.5,297.27,62.49Z" class="cls-10"/><polygon points="295.7 62.34 295.71 62.33 295.72 62.25 295.7 62.34" class="cls-10"/><path d="M292.24,54.28h0S292.25,54.29,292.24,54.28Z" class="cls-10"/><path d="M296.13,48c0-.14.2-.1.13-.28C296.24,47.77,296.07,47.89,296.13,48Z" class="cls-10"/><path d="M294.49,62.63h0Z" class="cls-10"/><polygon points="296.26 47.71 296.26 47.71 296.25 47.7 296.26 47.71" class="cls-10"/><path d="M292.59,52.06h0Z" class="cls-10"/><path d="M292,53.67l0,0S292.05,53.66,292,53.67Z" class="cls-10"/><path d="M292.66,51.17s0,0,0-.05h0S292.69,51.15,292.66,51.17Z" class="cls-10"/><polygon points="292.99 50.32 292.95 50.33 292.95 50.35 292.99 50.32" class="cls-10"/><path d="M299,59.78h-.13C298.93,59.8,298.91,60,299,59.78Z" class="cls-10"/><path d="M294.54,62.57s0,0-.05.06h0S294.54,62.59,294.54,62.57Z" class="cls-10"/><path d="M291.63,50.77l.07-.14A.31.31,0,0,0,291.63,50.77Z" class="cls-10"/><path d="M299.58,52.85l0,0S299.6,52.86,299.58,52.85Z" class="cls-10"/><path d="M291.85,50.18l.12,0,0,0Z" class="cls-10"/><path d="M298.83,59.78Z" class="cls-10"/><path d="M298.72,60.9c.08-.15-.13-.15-.21-.23s.16,0,.27,0-.11-.28-.07-.35,0,0,.07,0c-.08-.16.12-.33,0-.53h.05a1.15,1.15,0,0,1-.25-.06c0-.07-.07-.15.06-.14s0,.06.05.09l0-.08c.18,0,0,.1.14.15,0-.15-.09-.34,0-.43s0,.25.17.16l-.11.14c.3,0-.05.09.26.07.11-.19,0-.26.1-.45-.08-.07-.14,0-.22-.1-.08-.33.48-.12.31-.39-.09-.08-.3-.15-.15-.28l.17.09c.07-.19-.23-.17-.07-.35.07,0,0,.17.06.14s-.09-.11-.07-.22h.17a6.35,6.35,0,0,0-.06-.72s.1.07.16,0a1.91,1.91,0,0,1,.23-.93l-.13-.12s.07,0,.09,0-.09,0-.14-.08.09-.08.13,0c-.11-.21-.23-.59-.07-.79l.05,0c.06-.16-.3-.19-.16-.34l0,0c.08-.35-.07-.74.15-1-.21,0,.08-.36-.22-.37.13-.21.19-.15.27-.45,0-.08-.19-.1-.23-.19h.15l-.17-.12.17-.08,0-.09a.13.13,0,0,1-.11.08c-.08-.13.07-.35.15-.36l-.18-.31c.06,0,.09.05.14.09-.18-.15.15-.06,0-.2,0,0-.09,0-.12,0a.4.4,0,0,0,0-.41h.11a5.05,5.05,0,0,0-.21-.78c0,.11-.21.13-.24.06l.15-.08c-.11,0,0,.1-.19,0,0-.11.17-.12.23-.07l-.08-.11s.07,0,.14,0c-.12,0,.1-.26-.09-.29l0,0a5.83,5.83,0,0,0-.25-.59c-.13,0-.13-.06-.26-.08a1.73,1.73,0,0,0-.08-.58c-.13-.1-.13,0-.23,0,.11-.06,0-.25.14-.19a1.48,1.48,0,0,0-.41-.5c0,.06,0,.1-.08.11a.12.12,0,0,1,0-.17h0c-.33-.18-.2-.92-.63-1h0a1.83,1.83,0,0,0-.33-.11c-.1-.1.13,0,.09-.14-.39-.06-.46-.35-.79-.35,0-.21-.26-.28-.48-.31a1.25,1.25,0,0,1-.63-.1l0,.09c-.09.09-.11,0-.18-.06s.1.07.05.12a5,5,0,0,0-2,.8c-.19.17.23.41-.11.49l-.08-.17c-.14.48-.58.76-.64,1.23,0,0-.07-.07,0-.1-.15,0-.17.29-.09.34s-.08,0-.15,0,0,.27-.09.26,0,0,0-.06-.13.25,0,.26c-.13.12-.07.3-.19.39.11.13-.17.22,0,.33-.2-.1-.27.19-.2.33-.05-.06-.09.06-.17,0,0,.11,0,.22.09.24-.33.12.08.46-.28.48,0,.36,0,.68,0,1-.22-.06.05-.33-.18-.38,0,.31.17.51.06.78,0,.06-.08-.06-.12-.1,0,.3-.13.55,0,.82,0,0,0,0-.05-.06s-.05.11.05.12l0-.06c.16,0,.28.25.36.27-.28-.13-.11.23-.46,0a.14.14,0,0,0,.13.08s-.07.06-.14,0c0,.19.15.14.13.3-.05,0-.07,0-.12-.07s.17.19.12.32-.07,0-.07,0c0,.24.22.42.12.67-.22-.09-.08.08-.27.09l.05.14.09,0c0,.12.12.23.06.33l-.07-.09,0,.23.07-.13c.1.12.24,0,.19.15,0,0,0,.12-.12.18h0c.06.06.12.12.08.21s-.21,0-.25,0c.16.06.05.29.22.35a.27.27,0,0,0-.15,0l.12,0c0,.05-.05.06-.13.06,0,.17.23-.07.14.14,0,0,0,0,0,0-.05.2.11.38.06.57s-.06-.16-.21-.08c.06.27.28.53.28.79l0-.05c.27,0-.1.21,0,.32,0,0-.15,0-.12,0,0,.18.15.34.29.58h-.07c0,.12,0,.27,0,.39s.09.08.17,0c-.27.47.42.55.26,1,0,0-.1-.05-.09,0l.19.22c.09-.08,0-.07.1-.16a.23.23,0,0,1,.18.09c-.12-.06-.16.09-.19.17l.1,0c-.11.23.2-.09.19.14l-.06,0c.07,0,.17,0,.2.12s-.1,0-.19,0c.07.09.32,0,.27.19-.05,0-.09-.07-.15-.09-.06.18,0,.17,0,.25h0c0,.07.05.13.07.19V61.3c.36-.13.24.17.52.14-.27,0-.1.07-.22.17s0,.14,0,.16c.15,0,.05.18.27.12,0,0,.07.07,0,.15.12.05,0-.08.08-.13.22,0,.24.42.59.36s.35-.14.55-.14c0,.1-.11.15-.11.15a.23.23,0,0,0,.27.1s0,.07,0,.13.1-.16.19-.06a1,1,0,0,1-.13.17c.11,0,.23-.09.33-.11s-.08.11-.13.16c.12,0,.31,0,.36-.16l-.06,0s0,.12,0,.14-.13-.07-.13-.12l.08,0c0-.3-.29,0-.43-.06l.11-.19-.19.14c0-.06,0-.18.08-.19s-.11,0-.15-.1,0,0,0,0l-.11,0s0-.14.08-.09c-.1-.17-.31,0-.3-.12h0c-.23,0-.09.13-.33.2l.09-.38-.1.11a.05.05,0,0,1,0-.09c-.14,0,0,.06-.12.12,0-.17-.3-.15-.17-.35-.11.06,0,.14-.12.12.14-.22-.14-.06-.14-.21s.14,0,.14-.12c-.2.12-.1-.18-.18-.21s-.2-.08-.32-.17c.05,0-.08-.29-.1-.43h0c-.18.08-.21-.07-.3-.14.1-.05.15-.06.22,0l-.05-.08a.21.21,0,0,1-.15,0l.13,0c-.06-.11-.26-.16-.24-.35-.12,0-.27.27-.42.13.06,0,.17-.09.21-.05s-.07,0-.06-.07l.14,0c0-.09-.11,0-.12-.06s0-.07.12-.09,0,.06,0,.07a.26.26,0,0,1,.07-.22c-.05,0-.12,0-.15,0s.1-.08.12-.17,0-.11-.17-.07.05-.06.09-.09-.11-.29-.24-.17v0h0c-.21-.18,0-.47-.14-.67h.05c-.08-.12-.08-.28-.2-.36s.07-.1.13-.1-.11-.09-.05-.25c.1.09.07,0,.08.09,0-.13.1-.17-.05-.29.13,0,.15-.12.11-.17l-.08.1a.43.43,0,0,1,0-.19H292c.17-.27-.37-.45,0-.67-.12-.07-.08.15-.22.09,0-.13.25-.26.25-.3s-.24-.15-.18-.33a.2.2,0,0,1-.27-.09c0-.13.25-.15.3-.07a0,0,0,0,1,0,0s.05.1.11.05l-.06,0c.07-.06.06-.23.16-.18-.06-.1-.1,0-.13,0,.09-.15,0-.25.08-.4,0,0-.11,0-.1,0,.08-.24-.11-.12-.13-.28s.22.05.15-.12.16,0,.2,0c-.1-.15.11-.26.13-.34l0,.08a.26.26,0,0,1,0-.12l-.12,0s0-.08.08-.08-.2,0-.3-.09c.07,0-.05-.19.11-.19-.07.18.16,0,.17.16,0,0,0-.07,0-.12s0,0,0,0c.17-.16-.16-.11-.13-.29.08,0,.17,0,.16-.06s-.15,0-.21-.06,0-.14,0-.2l0,.07c-.08,0-.06-.1-.08-.19s0,.08.07.06c-.14-.12.2-.19.12-.33s.16,0,.21,0,.15-.14.09-.31c-.13,0-.1,0-.19-.09l0,.26-.14-.19c0,.07,0,.17,0,.22s-.06-.09-.16-.07c.2-.07-.07-.23.08-.32l.29.06c.17-.14-.08-.35.05-.56l-.07.06c-.1-.06,0-.15,0-.23s.14,0,.21,0,.05-.17-.13-.24l.15-.07c.1-.16-.21-.29-.11-.46.08.09.17,0,.21.17,0-.06.05-.1,0-.12s-.07-.21,0-.23-.12-.08-.09-.15a.07.07,0,0,1,0,0s0-.12-.15-.1c.36-.07.18-.51.49-.56a2.24,2.24,0,0,1,.1-.41s.05,0,0,0c.15-.11-.21-.22,0-.35s0,.13.11.11c.3.12.07-.23.3-.24v0c.14,0,0-.26.12-.38l0,0a.67.67,0,0,1,.05-.54c.07.12,0,.1.13.15s-.18-.11-.12-.24.19,0,.3,0l-.07.1c.18.07.09-.13.16-.15l.05,0c.11-.14,0-.28.13-.42l-.06,0c0-.22.15,0,.14-.16l.15.13a.86.86,0,0,1,.19-.4,3.57,3.57,0,0,1-.09.43c.05-.05.17-.14.15-.24s0,.09-.05.07a.33.33,0,0,1,.19-.36c.12.37.37,0,.51.27a.23.23,0,0,1,.3,0c.11,0,.21.09.32.12,0-.31.07,0,.16-.28.07,0,.09,0,.09,0a2,2,0,0,1,.09.26c0,.09-.08,0-.1.09s0,.14,0,.25c0-.1.11-.12.15-.05s0-.11,0-.17c.25,0,0,.31.21.28l-.1,0c.11,0,.24.22.49.13,0,0-.06.11-.11.09.12.2.55.29.52.55l-.08,0c.05,0,.17,0,.13.09s-.07,0-.06,0,.18.05.16.13h-.1c0,.27.36.26.49.46a.38.38,0,0,0-.2.4h0c.08.29.34.43.5.68-.19.24,0,.62,0,.93,0,0,.17,0,.2,0s.19.16,0,.18v0c-.19.08-.12.21-.11.32l.26,0c-.33.34.24.74-.09.93.07.06.08.15.15.21h-.14a1.15,1.15,0,0,0,0,.52l-.11,0c0,.14.42.16.43.28l-.21,0c0,.24-.17.47,0,.7,0,0-.09,0-.1,0s-.15.42.14.39c-.18,0,0,.24.05.37l-.14,0c.18.11.22.12.26.27s-.11,0-.07,0c-.08.11.13.1,0,.24l-.08-.06c0,.12,0,.11.12.19s-.06.23-.18.23c.07,0,.17.1.12.17a.07.07,0,0,1-.08,0c-.12.19.12.32,0,.45a.09.09,0,0,0-.08,0,1.37,1.37,0,0,1,.06-.28c-.13,0-.17.11-.33,0,.08.11.27.32.19.43h-.06s0,0,0,.08,0,.06,0,.1-.09.13-.1.19.1.1.23,0c0,0,0,0,0,0s0,0,0,0h0v-.16c.07.07.12.13,0,.19a1.4,1.4,0,0,1,.2.13c-.21.05-.34.2-.46.19,0,.21-.06.46.17.65,0,.06-.09,0-.13,0s0-.07,0-.1c0,.13-.06.32.11.4-.12.12-.14-.12-.17.07l0,0c-.38.27.25.75-.26,1a.19.19,0,0,1,.08,0c-.33.37-.31,1-.81,1.18-.12.06,0,.15,0,.27l-.13-.09c0,.07,0,.15,0,.22s-.47-.06-.53.23l.08.07c-.08,0-.21.19-.25.07s0,.11,0,.07l0-.07-.15.19c-.17,0-.06-.3-.26-.29s-.2.26-.17.31a.13.13,0,0,1,.1.11l-.09.06c0,.23-.1.48.19.61l.17-.16.08.1-.16,0c.11.09.16,0,.21-.08a.15.15,0,0,0,.11.1c0-.09.08-.18.11-.27.06.08,0,.2.12.2s-.15-.16,0-.27c.12.07.14.15.2,0a.11.11,0,0,1,0,.14c.06-.1.21-.15.19-.28.15.06.25-.18.37,0a.55.55,0,0,1,.07-.3c.05.3.25-.18.41,0-.1-.25.2-.37.21-.6,0,0,0,0,0,.06s.15-.06.23-.09c-.15-.12-.1-.28-.15-.42.23,0,.15.19.32.26-.13-.08,0-.28-.15-.31.15,0,.09,0,.25,0-.2-.13,0-.1-.08-.24.17-.06.22.08.23-.09S298.72,60.9,298.72,60.9Zm.59-3.49h0v0Zm0-.29s0,.08,0,.13-.1,0-.09,0S299.3,57.16,299.34,57.12Zm-1,.44c0-.05,0-.05,0-.06a.25.25,0,0,0,0,.08h0Z" class="cls-10"/><path d="M298.46,57.67s0,0,0,0l0,0,0,0Z" class="cls-10"/><path d="M292,59h0l0,0Z" class="cls-10"/><polygon points="299.69 53.16 299.65 53.17 299.68 53.19 299.69 53.16" class="cls-10"/><path d="M292.17,60.57a.05.05,0,0,0,0,0S292.16,60.59,292.17,60.57Z" class="cls-10"/><path d="M292.53,61.18l0,.11A.81.81,0,0,0,292.53,61.18Z" class="cls-10"/><path d="M292.85,61.64l0,0h0Z" class="cls-10"/><path d="M291.11,53.56v0C291.09,53.48,291.09,53.52,291.11,53.56Z" class="cls-10"/><path d="M291.24,56.05a.24.24,0,0,1-.06-.08C291.17,56,291.16,56.05,291.24,56.05Z" class="cls-10"/><polygon points="291.62 50.79 291.62 50.79 291.63 50.77 291.62 50.79" class="cls-10"/><path d="M291.18,55.86a.09.09,0,0,0,0,.11A.14.14,0,0,0,291.18,55.86Z" class="cls-10"/><path d="M295,62.77h0s0,0,0,0Z" class="cls-10"/><path d="M295.05,62.76l0,0S295.05,62.74,295.05,62.76Z" class="cls-10"/><path d="M295.14,62.71l-.06,0S295.13,62.75,295.14,62.71Z" class="cls-10"/><path d="M294.3,62.53l0,0S294.29,62.55,294.3,62.53Z" class="cls-10"/><path d="M294.08,62.46s.09.15.17.15l0,0C294.21,62.63,294.15,62.4,294.08,62.46Z" class="cls-10"/><path d="M293.62,61.49a.69.69,0,0,0,.11.13c0-.06,0-.14.08-.12C293.74,61.27,293.77,61.64,293.62,61.49Z" class="cls-10"/><path d="M293.3,61.11c.08,0,.06-.06.08-.08S293.29,61,293.3,61.11Z" class="cls-10"/><path d="M291.9,57.79H292C292,57.71,292,57.79,291.9,57.79Z" class="cls-10"/><polygon points="291.15 57.13 291.08 57.21 291.2 57.23 291.15 57.13" class="cls-10"/><polygon points="292.04 56.64 292.06 56.67 292.01 56.56 292.04 56.64" class="cls-10"/><path d="M293,50.52l-.15,0C292.9,50.53,293.06,50.61,293,50.52Z" class="cls-10"/><path d="M294.3,48.24c.07,0,.16,0,.14-.05S294.31,48.2,294.3,48.24Z" class="cls-10"/><polygon points="298.35 52.57 298.29 52.52 298.35 52.62 298.35 52.57" class="cls-10"/><path d="M304.59,59.62s0,.13,0,.12l0-.17Z" class="cls-10"/><path d="M304.91,59.94a.48.48,0,0,0,.11-.37c-.07.15-.08.09-.15.27-.05,0-.08-.05-.07-.11s-.08,0-.11.06.14.14.23,0S304.92,59.91,304.91,59.94Z" class="cls-10"/><path d="M308.14,62.68v0S308.13,62.67,308.14,62.68Z" class="cls-10"/><path d="M308.45,65.42s0,0,0,0S308.43,65.42,308.45,65.42Z" class="cls-10"/><path d="M308.25,65.88v0S308.23,65.88,308.25,65.88Z" class="cls-10"/><path d="M308.14,62.68l0,.08C308.16,62.75,308.14,62.71,308.14,62.68Z" class="cls-10"/><path d="M305.62,59.62l-.05,0h.05Z" class="cls-10"/><path d="M307.48,61.68h0l-.07,0Z" class="cls-10"/><path d="M306.88,61.06s.1-.09.15-.13a.17.17,0,0,1-.1,0Z" class="cls-10"/><path d="M305.72,60.21l0,0Z" class="cls-10"/><path d="M307.78,62.25l0,0Z" class="cls-10"/><path d="M303.19,59.67v0S303.2,59.66,303.19,59.67Z" class="cls-10"/><polygon points="304.59 59.98 304.57 59.99 304.57 60.07 304.59 59.98" class="cls-10"/><path d="M308,66.71h0S308,66.7,308,66.71Z" class="cls-10"/><path d="M304.32,72.12c0,.13-.17.12-.1.28C304.23,72.35,304.38,72.22,304.32,72.12Z" class="cls-10"/><path d="M305.65,59.64h0Z" class="cls-10"/><polygon points="304.22 72.4 304.22 72.4 304.23 72.42 304.22 72.4" class="cls-10"/><path d="M307.63,68.64h0Z" class="cls-10"/><path d="M308.18,67.26l0,0Z" class="cls-10"/><path d="M307.56,69.43s0,0,0,0h0S307.53,69.44,307.56,69.43Z" class="cls-10"/><polygon points="307.24 70.16 307.27 70.16 307.27 70.13 307.24 70.16" class="cls-10"/><path d="M301.44,62a.29.29,0,0,1,.13,0C301.47,62,301.49,61.82,301.44,62Z" class="cls-10"/><path d="M305.61,59.7s0-.05,0-.06h0A.13.13,0,0,0,305.61,59.7Z" class="cls-10"/><path d="M308.58,69.87l-.07.12A.63.63,0,0,0,308.58,69.87Z" class="cls-10"/><path d="M300.87,68.17l0,0S300.85,68.16,300.87,68.17Z" class="cls-10"/><path d="M308.35,70.39a.21.21,0,0,0-.12,0l0,0Z" class="cls-10"/><path d="M301.57,62Z" class="cls-10"/><path d="M301.72,61c-.09.12.11.15.19.23s-.16,0-.27,0,.11.27.07.34,0,0-.08,0c.08.16-.14.3,0,.49h-.05a.67.67,0,0,1,.24.08s.07.14-.05.12,0-.06-.06-.09l0,.08c-.18,0,0-.1-.14-.15,0,.14.08.31,0,.38s0-.22-.17-.15l.12-.12c-.29,0,.05-.07-.26-.08-.12.17,0,.23-.1.4.08.07.14,0,.21.1.08.31-.48.08-.31.34.1.08.3.16.15.26l-.17-.09c-.07.17.24.17.07.32-.07,0,0-.15-.06-.13s.09.11.07.2l-.17,0c0,.2.06.44.06.65-.05,0-.1-.06-.16,0a1.43,1.43,0,0,1-.22.82l.14.12a.09.09,0,0,1-.1,0c-.07.09.09,0,.14.06s-.09.07-.13,0c.12.19.24.52.08.71l-.05,0c-.06.15.3.17.17.3l0,0c-.07.31.08.66-.13.91.21,0-.07.32.23.32-.13.19-.19.15-.27.41,0,.07.2.09.24.17l-.15,0L301,68l-.17.09.05.07s.06-.08.1-.08-.06.32-.14.33l.18.27c-.06,0-.09,0-.13-.07.18.13-.16.06,0,.18s.09,0,.12,0,0,.25,0,.36h-.11a4.64,4.64,0,0,0,.23.69c0-.11.2-.14.24-.07l-.15.07c.11,0,0-.09.18,0s-.15.11-.22.08l.09.09s-.08,0-.14,0c.1,0-.09.24.1.25l-.05,0a3.94,3.94,0,0,0,.27.51c.13,0,.14,0,.27,0a1.08,1.08,0,0,0,.09.52c.13.08.13,0,.23,0-.11.07,0,.23-.14.19a1.42,1.42,0,0,0,.43.41c0-.06,0-.1.07-.11s0,.12,0,.16h0c.33.12.25.84.66.81h0l.31,0c.1.09-.11,0-.07.16.38,0,.43.28.74.21.12.45.71.13,1,.33l0-.09c.07-.09.1,0,.16.06s-.09-.07-.05-.13a6.11,6.11,0,0,0,1.78-.64c.18-.13-.22-.41.11-.45l.07.17c.14-.44.56-.64.63-1.07,0,0,.07.07,0,.1.15,0,.17-.26.09-.31s.08,0,.14,0,0-.26.1-.24,0,0,0,.06.13-.21,0-.23c.12-.1.07-.27.19-.34-.11-.13.17-.19,0-.3.2.1.27-.16.2-.29.06.06.1,0,.17,0,0-.1,0-.2-.08-.23.32-.08-.08-.43.28-.41a8.78,8.78,0,0,1,0-.89c.22.07-.06.29.17.34,0-.27-.16-.46-.05-.69,0-.06.08,0,.12.09,0-.28.13-.49,0-.74a.15.15,0,0,1,.05.06s.05-.09-.05-.11l0,0c-.16,0-.27-.22-.35-.24.28.12.11-.21.46,0a.18.18,0,0,0-.13-.08s.07,0,.14,0c0-.17-.15-.12-.13-.27.05,0,.06,0,.12.06s-.17-.17-.12-.28.07,0,.07,0c0-.21-.23-.37-.12-.59.21.08.08-.08.27-.08l-.05-.13-.09,0c0-.11-.13-.21-.07-.3l.08.08,0-.2-.07.11c-.09-.11-.24,0-.18-.13,0,0,0-.11.11-.17h0c-.05-.06-.12-.11-.08-.19a2.08,2.08,0,0,1,.25,0c-.16,0,0-.26-.22-.31a.25.25,0,0,0,.15,0l-.12,0c0-.06.05-.06.13-.06s-.23.06-.14-.12c0,0,0,0,.05,0,0-.18-.12-.33-.07-.51s.06.14.21.07c-.06-.24-.3-.46-.3-.7v0c-.26,0,.09-.2-.06-.28,0,0,.15,0,.12,0,0-.17-.14-.31-.3-.51h.07c0-.11-.05-.25-.06-.36s-.09-.06-.16,0c.22-.46-.44-.45-.31-.84,0,0,.09,0,.08,0s-.12-.11-.19-.17,0,.07-.08.16a.23.23,0,0,1-.19,0c.12,0,.15-.11.17-.19s-.07,0-.09.07c.08-.23-.2.12-.19-.09l.05,0c-.06,0-.16,0-.19-.08s.09,0,.17-.07-.31,0-.28-.11c.06,0,.1,0,.16,0,0-.17,0-.15,0-.22h0l-.07-.17v.06c-.31.17-.23-.12-.5,0,.25-.08.09-.08.19-.2s0-.14,0-.16c-.13.06-.06-.16-.25-.07,0,0-.08,0,0-.14-.12,0,0,.08-.06.13-.22.09-.25-.37-.56-.23s-.3.17-.48.2.09-.16.09-.16a.18.18,0,0,0-.25-.06.19.19,0,0,0,0-.13c-.08,0-.08.16-.17.07a1.74,1.74,0,0,1,.11-.18c-.1,0-.19.11-.29.14s.07-.12.11-.17-.27,0-.31.17l.06.06s0-.12,0-.14.12.06.11.11l-.06,0c0,.29.25,0,.38,0l-.09.2.15-.15c0,.06,0,.17,0,.2s.09-.06.13.06,0,0,0,0l.1,0s0,.15-.07.1c.1.16.27-.07.27.09h0c.21,0,.07-.14.28-.25,0,.12,0,.26-.05.39l.08-.13a.06.06,0,0,1,0,.09c.11-.06,0-.06.1-.13,0,.17.29.07.18.29.1-.08,0-.12.1-.14-.11.24.13,0,.14.19s-.13,0-.12.14c.17-.15.11.14.19.15s.17.05.31.1c-.05,0,.1.23.12.37l0,0c.16-.1.21,0,.29.07a.24.24,0,0,1-.2.06l.05.07a.14.14,0,0,1,.15,0l-.13.05c.06.09.25.11.25.27.12,0,.25-.27.41-.18-.06,0-.16.1-.21.08s.08,0,.06.05h-.13c0,.08.1,0,.12,0s-.05.07-.12.1,0-.06,0-.06a.29.29,0,0,1-.06.21s.11-.06.15,0-.1.09-.11.17,0,.09.17,0-.05.06-.08.09.11.24.24.13v0h0c.21.13.06.4.16.57l-.05,0c.08.09.1.23.22.3s-.08.09-.14.09.11.08,0,.22c-.1-.07-.07,0-.08-.08,0,.12-.09.16.06.26-.13,0-.15.1-.1.15l.08-.09a.33.33,0,0,1,0,.17h-.17c-.17.24.39.39.06.59.11.05.07-.13.21-.09,0,.11-.25.23-.25.27s.25.13.18.28c.06,0,.22,0,.27.08s-.25.13-.29.06,0,0,0,0,0-.08-.11,0h.06c-.06.06-.06.2-.15.17s.09,0,.12,0c-.08.14,0,.22-.07.36,0,0,.1,0,.1,0-.09.21.11.1.12.25s-.21,0-.14.1-.16,0-.21,0c.11.14-.1.23-.13.3l0-.07a.15.15,0,0,1,0,.11l.12,0s0,.08-.08.07.2,0,.3.09c-.07,0,0,.17-.12.16.08-.16-.16,0-.16-.14a.1.1,0,0,1,0,.1s0,0,0,0c-.16.14.17.1.14.26-.08,0-.17,0-.16,0s.15,0,.21.07c-.09.09,0,.12,0,.18l0-.06c.09,0,.07.09.08.17s0-.08-.07-.06c.14.11-.19.16-.11.29s-.17,0-.22,0-.15.1-.08.26c.12,0,.1,0,.19.09l0-.24.14.19c0-.07,0-.16,0-.2s0,.08.16.07c-.2,0,.06.2-.09.28l-.28-.07c-.17.12.07.31-.06.49l.07,0c.1.06,0,.13,0,.21a.27.27,0,0,0-.2,0c.07,0-.06.14.12.22l-.15,0c-.1.14.21.27.11.42-.08-.09-.17,0-.2-.17,0,0-.06.09,0,.11s.07.19,0,.2.12.08.09.14a.07.07,0,0,1,0,0s0,.11.15.11c-.36,0-.18.44-.48.46a3.58,3.58,0,0,1-.11.35s0,0,0,0,.21.23,0,.32,0-.12-.11-.11c-.29-.15-.06.2-.28.19v0c-.14,0,0,.24-.12.34l0,0a.59.59,0,0,1-.05.49c-.06-.12,0-.09-.12-.16s.17.12.11.24a.57.57,0,0,1-.28-.08l.06-.09c-.16-.08-.08.11-.15.13l-.05-.06c-.1.12,0,.27-.11.38l.05,0c0,.21-.13,0-.13.13l-.13-.14a.94.94,0,0,1-.17.37,1.66,1.66,0,0,1,.08-.41c-.05,0-.16.13-.14.22s0-.08.05-.07a.31.31,0,0,1-.17.34c-.12-.36-.34,0-.47-.27-.16.17-.36,0-.56-.06,0,.31-.06,0-.12.29-.07,0-.09,0-.09,0a1.47,1.47,0,0,1-.1-.22c0-.1.07,0,.09-.11s0-.14,0-.24c0,.1-.1.12-.13.06v.16c-.21.08,0-.26-.2-.22l.09,0c-.09,0-.23-.16-.45,0,0,0,.05-.12.1-.11-.12-.14-.52-.17-.51-.4l.07,0s-.15,0-.12-.06.07,0,.06,0-.17,0-.16-.09h.1c0-.22-.35-.19-.49-.33a.39.39,0,0,0,.19-.39h0c-.08-.24-.33-.34-.5-.55.19-.22-.06-.53,0-.81,0,0-.17,0-.2,0s-.19-.13,0-.17v0c.19-.09.11-.19.1-.29l-.26,0c.32-.31-.25-.63.08-.81-.08,0-.09-.13-.16-.18H302a1,1,0,0,0,0-.46l.11,0c0-.12-.42-.12-.43-.23l.21,0c0-.21.16-.42,0-.62,0,0,.09,0,.1,0s.15-.37-.14-.34c.18,0,0-.21-.06-.33l.14,0c-.17-.1-.22-.11-.26-.25s.11,0,.07,0-.13-.09,0-.21l.08.06c0-.11,0-.1-.12-.17s.05-.2.18-.2c-.07,0-.17-.1-.13-.16a.12.12,0,0,1,.09,0c.11-.16-.12-.28,0-.39a.09.09,0,0,0,.08,0,1.43,1.43,0,0,1-.05.24c.12,0,.16-.09.33,0-.09-.1-.27-.28-.2-.38H302s0,0,0-.07.05,0,.05-.08.09-.11.1-.17-.1-.09-.23,0,0,0,0,0,0,0,0,0h0v.14c-.07-.06-.12-.12,0-.16l-.2-.13c.2,0,.34-.16.46-.15,0-.18.05-.4-.18-.58,0,0,.09,0,.14,0s0,.07,0,.1c0-.12.06-.28-.1-.37.11-.09.14.12.16,0l.05,0c.38-.19-.26-.69.26-.86a.11.11,0,0,1-.08,0c.32-.28.32-.85.8-.94.12,0,0-.13,0-.25l.12.1v-.2c.07-.22.42.15.48-.14l-.06-.08c.07,0,.2-.15.22,0s0-.11,0-.07l0,.08.14-.18c.15,0,0,.31.23.3s.19-.25.16-.3-.08,0-.09-.12l.08,0c0-.23.08-.48-.17-.62l-.15.16-.06-.11.14,0c-.1-.09-.14,0-.18.07a.35.35,0,0,0-.09-.11,1.83,1.83,0,0,0-.11.26c0-.08,0-.2-.1-.21s.12.17,0,.27c-.11-.08-.12-.16-.17,0a.09.09,0,0,1,0-.13c-.06.08-.2.1-.19.23-.13-.08-.23.16-.33,0a.54.54,0,0,1-.09.27c0-.3-.23.15-.37-.1.05.24-.21.33-.25.54,0,0,0-.06,0-.06s-.16,0-.23,0c.14.14.08.28.13.42-.22,0-.14-.2-.3-.28.13.09,0,.26.13.3-.15,0-.1,0-.25,0,.19.15,0,.1.07.24-.16,0-.21-.09-.22.06S301.72,61,301.72,61Zm-.64,3.13h0v0Zm0,.25a.36.36,0,0,0,0-.11c.05,0,.1,0,.09,0S301.1,64.32,301.05,64.35Zm1-.35s0,0,0,0a.18.18,0,0,0,0-.06h0Z" class="cls-10"/><path d="M301.93,63.9v0l0,0,0,0Z" class="cls-10"/><path d="M308.15,62.64h0Z" class="cls-10"/><polygon points="300.76 67.89 300.8 67.89 300.76 67.87 300.76 67.89" class="cls-10"/><path d="M307.92,61.2l0,0S307.92,61.19,307.92,61.2Z" class="cls-10"/><path d="M307.52,60.71l0-.1A.41.41,0,0,0,307.52,60.71Z" class="cls-10"/><path d="M307.18,60.34l0,0h0Z" class="cls-10"/><path d="M309.11,67.39s0,0,0,0S309.13,67.43,309.11,67.39Z" class="cls-10"/><path d="M309,65.17l.07.07S309.06,65.17,309,65.17Z" class="cls-10"/><polygon points="308.58 69.86 308.58 69.86 308.58 69.87 308.58 69.86" class="cls-10"/><path d="M309.05,65.34a.09.09,0,0,0,0-.1S309,65.31,309.05,65.34Z" class="cls-10"/><path d="M305.19,59.54h0v0Z" class="cls-10"/><path d="M305.16,59.55l0,0S305.15,59.57,305.16,59.55Z" class="cls-10"/><path d="M305.07,59.6l.06,0S305.09,59.56,305.07,59.6Z" class="cls-10"/><path d="M305.82,59.71l0-.05A.17.17,0,0,1,305.82,59.71Z" class="cls-10"/><path d="M306,59.75s-.09-.14-.16-.13l0,0C305.89,59.59,306,59.82,306,59.75Z" class="cls-10"/><path d="M306.49,60.63l-.11-.1c0,.06,0,.14-.06.12C306.4,60.87,306.34,60.52,306.49,60.63Z" class="cls-10"/><path d="M306.81,60.93c-.07,0,0,.06-.07.08S306.83,61,306.81,60.93Z" class="cls-10"/><path d="M308.31,63.65l-.13,0S308.23,63.66,308.31,63.65Z" class="cls-10"/><polygon points="309.06 64.2 309.13 64.13 309.01 64.11 309.06 64.2" class="cls-10"/><polygon points="308.18 64.66 308.16 64.64 308.21 64.73 308.18 64.66" class="cls-10"/><path d="M307.19,70l.15.06S307.17,69.89,307.19,70Z" class="cls-10"/><path d="M306,71.91c-.07,0-.15,0-.13,0S306,72,306,71.91Z" class="cls-10"/><polygon points="302.11 68.35 302.17 68.39 302.11 68.31 302.11 68.35" class="cls-10"/><path d="M278.3,141.48l-.09.16A1.14,1.14,0,0,0,278.3,141.48Z" class="cls-10"/><path d="M284.89,124.77c0,.13,0,.19,0,.2S284.92,124.74,284.89,124.77Z" class="cls-10"/><path d="M285.89,121.85l-.06.17A.5.5,0,0,0,285.89,121.85Z" class="cls-10"/><path d="M278.3,141.48l.25-.42C278.51,141,278.41,141.27,278.3,141.48Z" class="cls-10"/><path d="M275.13,148.72l-.06.13a.61.61,0,0,0,0,.14Z" class="cls-10"/><path d="M272.61,154.24c.07-.12,0-.22-.07-.29a.58.58,0,0,1,0,.31A.12.12,0,0,0,272.61,154.24Z" class="cls-10"/><path d="M277,144.79l.06,0S277,144.77,277,144.79Z" class="cls-10"/><path d="M210.84,7.15h0S210.84,7.1,210.84,7.15Z" class="cls-10"/><path d="M211.49.06v.1l.07,0Z" class="cls-10"/><path d="M287.21,116.34v0C287.2,116.52,287.21,116.43,287.21,116.34Z" class="cls-10"/><path d="M270.46,69.16c.35.49-.82-.52-.26.18C270.18,69.24,271,69.71,270.46,69.16Z" class="cls-10"/><path d="M270.2,69.34h0l.06.07Z" class="cls-10"/><path d="M287.43,103.3a.26.26,0,0,0-.05.14A.29.29,0,0,0,287.43,103.3Z" class="cls-10"/><path d="M287.34,113l0-.24C287.36,112.86,287.35,112.94,287.34,113Z" class="cls-10"/><path d="M286.41,98.37a1.35,1.35,0,0,0-.07-.35v.06A.66.66,0,0,1,286.41,98.37Z" class="cls-10"/><path d="M285.14,93.29v.1l.06.16Z" class="cls-10"/><path d="M216,22.23a.85.85,0,0,1,0-.27C215.94,22.07,215.52,21.43,216,22.23Z" class="cls-10"/><path d="M285.28,98.38l-.16-.8C285.16,97.81,285.21,98.1,285.28,98.38Z" class="cls-10"/><path d="M241.25,49.68l-.16-.1A.59.59,0,0,0,241.25,49.68Z" class="cls-10"/><path d="M284.53,95.23a1.89,1.89,0,0,0,0-.47l-.06-.08Z" class="cls-10"/><path d="M216,22h0Z" class="cls-10"/><path d="M254.61,59.29c.71.52,1.47,1.14,2.37,1.71.66.35.24,0,.57.13,0,.14.87.71.36.48,1.08.68,1.37.87,2.78,1.66-.12-.14-.27-.27-.16-.25s.52.41.46.44l-.08,0c1.64.81,3.24,2.6,4.57,3.17l-.07,0c.42.24.83.52,1.24.78.52.44-.37-.17,0,.2a11.48,11.48,0,0,1,1.64,1.18c.45.38.82.79,1.36,1.17a9.23,9.23,0,0,0,1.61,1.71A16.3,16.3,0,0,1,273,73.53v-.12c.31.2.26.34.4.56,0-.08-.18-.35,0-.21a39.26,39.26,0,0,1,5.26,7.54c.53,1,.71.32,1.21,1.66l-.33-.27a48.89,48.89,0,0,1,3.05,6.1c-.08-.11-.13-.09-.21-.29a4.64,4.64,0,0,0,.7,1.59c.11.33-.06.11,0,.32.09.47.55,1,.5,1.33,0,.05-.07-.11-.11-.19.15.27.41,1.37.46,1,.18.82.53,1.51.61,2.17.26.38.29,1.4.54,1.48-.22,0,.14,1.46.36,2-.1-.15,0,.47-.1.28.13.59.26,1.12.36,1-.06,1.13.6,2.16.35,2.83a32.6,32.6,0,0,1,.7,5c-.23,0-.08-1.77-.33-1.68.1.75.17,1.35.25,1.94a8.19,8.19,0,0,1,.06,2c0,.39-.09-.23-.12-.36,0,.76,0,1.49,0,2.21s-.12,1.39-.12,2.07a.73.73,0,0,1,0-.29c0,.27-.09.61,0,.6v-.27c.2-.4.2,1.09.25,1.15-.23-.49-.26,1.32-.52.56,0,.17,0,.4.08.37,0,.25-.11.33-.15.06-.08,1,.1.63-.07,1.49-.05,0,0-.19-.07-.29a5.56,5.56,0,0,1-.15,1.61s-.08,0,0-.19a24.08,24.08,0,0,1-.6,3.49c-.12-.45-.18.44-.39.46l-.15.73.17-.26c-.18.62-.2,1.22-.41,1.74l.06-.49c-.1.4-.2.79-.31,1.18l.27-.64c-.1.66.25,0-.06.82,0-.18-.2.62-.41.92h0a3.62,3.62,0,0,1-.27,1.11c-.1.1-.16-.16-.23-.09.05.35-.46,1.46-.44,1.89,0-.14-.08-.18-.11-.14l0,.29c-.14.27-.17.31-.23.24-.32.85.33-.19-.14.79a2,2,0,0,1,0-.23c-.44,1-.66,2-1.09,2.9-.28.21.28-.82,0-.57-.5,1.35-.89,2.85-1.49,4.11l.12-.23c.17.28-.52.91-.68,1.6,0-.16-.05-.26,0-.21-.43.86-.72,1.82-1.24,3.17v-.19c-.28.49-.64,1.34-.92,1.88,0,.19-.16.5,0,.35-1.14,1.54-1.31,3.34-2.3,4.71.08-.18.15-.45.08-.31l-.54,1.32c.15-.06.14-.14.35-.38a3,3,0,0,1-.28.9c.2-.61-.17-.07-.34.15.05,0,0,.08.09.07-.5.59.16.21-.39,1.07l0-.07a8.73,8.73,0,0,1-.39,1.07c-.19.09.12-.4,0-.47a7.24,7.24,0,0,1-.58,1.55c.06-.23.21-.55.28-.79a3.28,3.28,0,0,0-.57.9l0,0-.47.85.14-.21c0,.8-.55,1.36-.75,2.33.2-.94-.05-.19-.16-.32-.14.21-.34.53-.33.41-.08.47-.41.65-.51,1.31-.06,0-.21.44-.28.3-.22.56.13-.09.17,0-.23.9-1.08,1.87-1.43,3.16-.39,1.07-.33,1.33-.69,2.32-.22.29,0-.34,0-.34a7.52,7.52,0,0,0-.39.72h.32a.56.56,0,0,1,.1-.15s0,0,0,0l.17-.51c0,.11.17,0,0,.27.51-.82.51-1.46.8-1.73l0,.08c.49-1.23-.09-.18.17-1.15l.62-.45-.09-.18c.07-.13.19-.37.22-.3.12-.5-.09.05-.06-.25.4-.54.7-1.68,1-1.71,0-.26-.34.53-.12-.14.32-.07.3-.75.66-1.25,0,.23-.26.71.1.22-.05-.43.54-1,.71-1.52-.16-.1.39-1,.69-1.83,0,.07.76-1.41,1.15-2.1l0,0c-.1-.21.27-.94.48-1.49.09.06.09.18,0,.49l.23-.51a2,2,0,0,1,.18-.65l.06.19a18.92,18.92,0,0,1,1-2.26c-.1-.1-.64.54-.3-.41.08,0,.2,0,.12.26a1.86,1.86,0,0,1,.17-.45l-.06.42c.23-.38,0-.25.16-.56.09,0,.17-.21.23-.13a2.14,2.14,0,0,0-.19.4,3.6,3.6,0,0,1,.57-.87c-.07,0-.13-.06,0-.32.31-.68.22-.18.44-.56,0-.19.28-.59.15-.66a.54.54,0,0,1,.24-.27c.1-.38.72-1.64.4-1.31l-.05.08,0-.06c.39-1.2,1.15-2.36,1.59-3.53l.05,0c.25-.71.62-1.55.73-2.08.09-.2.29-.45.3-.34a6.7,6.7,0,0,1,.55-1.35c-.14.56.14-.16-.16.57a5.61,5.61,0,0,0,.62-1.59c0,.3.36-.46.45-.8l-.27.45c.13-.38.26-.7.4-1l.09.23c.73-1.35.64-2.68,1.33-3.67,0-.42-.35.76-.36.37a16.26,16.26,0,0,1,.79-1.47c.38-.89,0-.93.4-1.87-.09.1-.28.17-.11-.56s.48-.75.41-.31c0,.16-.09.23-.1.22-.05.22-.11.51,0,.27l0-.11c.17-.31.42-1.25.45-1,.09-.53,0-.24-.17.13.33-.85.38-1.36.68-2.24-.06.14-.17.25-.13.11.39-1.31,0-.61.22-1.51.21-.49.16.23.3-.69.19-.54.18-.08.18.15a12.51,12.51,0,0,1,.51-2l0,.45c0-.27.07-.49.11-.71l-.16.23c.06-.25.11-.47.15-.46,0-.28-.23.17-.23-.37.13-.33.11-1.06.28-1.16-.21,1.08.18-.09.06.83,0-.17.05-.39.1-.65,0,0,0,0,0,.11.28-1-.11-.5,0-1.58.07.15.21-.23.21-.41-.06.43-.17.19-.19-.22a4.47,4.47,0,0,0,.07-1.12l-.07.41a3.12,3.12,0,0,1,0-1c.07,0,0,.44.05.27-.12-.55.29-1.2.2-2,.07-.35.17,0,.22-.34-.09-.85.14-.91.07-1.81-.13.26-.09.3-.2-.32,0,.49,0,1,.05,1.46l-.15-.94c0,.44.05.93,0,1.2-.09-.45-.06-.41-.17-.2a11.57,11.57,0,0,0,0-1.88h.3a6.83,6.83,0,0,0-.08-1.5c-.05-.5-.13-1-.18-1.72v.44a6.77,6.77,0,0,1-.19-1.27c.1,0,.11-.25.15-.44-.06,0-.1-1-.33-1.09l0-.62c-.11-1.09-.48-1.18-.64-2.22.17.29.15-.2.35.49-.06-.35-.1-.67-.17-.66,0-.21-.3-.93-.29-1.26a1.12,1.12,0,0,1-.27-.55s.05,0,.05,0-.2-.59-.23-.23c.09-1.13-.75-2.92-.75-3.9l-.78-2.26s.05,0,.08.12c-.24-.94-.47-.47-.74-1.53,0-.58.28.52.22.17.24-.25-.47-1.23-.6-2l.09.16c-.12-.57-.65-1.23-1-2.08,0,0,0,0,0,0a16.85,16.85,0,0,1-1.41-2.32c.23.19.23.33.28.12-.2-.34-.13.2-.53-.48-.06-.26-.28-.79-.2-.92L281,83c0-.42-.47-.84-.64-1.2h.09c-.57-1-.74-.91-1.39-2l0,.14c-.53-.46-.21-.54-.69-1l.05-.28c-.26-.37-1-1.18-1.53-1.79a12.41,12.41,0,0,1,1.39,1.41,7,7,0,0,0-1.1-1.34,1.92,1.92,0,0,1,.37.44,7.65,7.65,0,0,1-1.43-1.58c.42-.13-1.38-1.81-1.56-2.5-.53-.57-1.09-1.1-1.62-1.71a17.64,17.64,0,0,0-1.76-1.84c.27.65-.4-.35-.52,0a2.61,2.61,0,0,1-.46-.42l-.82-1c-.17-.27.34.22.36.15-.68-.64-.2-.38-.62-.82,0,.16-.36-.08-.75-.44l.5.57c-1.12-.68-.72-.9-1.85-1.57l.39.17c-.29-.17-.76-.58-1.28-.91a6.22,6.22,0,0,0-1.4-.72c-.08-.09-.16-.25.09-.1-1.3-.94-3.08-1.75-4-2.54h.14a2.6,2.6,0,0,1-.78-.42s.14,0,0-.08a5.24,5.24,0,0,1-1-.56l.33.11a26.52,26.52,0,0,0-3.21-1.78c.13-.18-.85-.9-1.33-1.26l0,0c-1.47-1-2.59-1.59-4-2.48-.7-.79-2.79-2.09-4.06-3.16.18.18-.14.12-.38,0s-.94-.54-.77-.66l.11.09c-.12-.34-.78-.78-1.27-1.17l-.24.15c-1.05-1.31-3.46-2.51-4-3.33-.35-.18-.71-.51-1-.71l.1-.1c-.8-.73-1.2-1.1-2.24-2l.27.1c-.57-.5-1-.31-1.53-.76l0-.3c-.51-.43-1-.89-1.47-1.34A11.55,11.55,0,0,0,233,41.14s.11,0,.27.11c-.45-.43-1.64-1.76-1.68-1.4.12-.14-1-1-1.55-1.39l.18,0a3.63,3.63,0,0,1-1.24-.83c-.12-.16,0-.21.12,0-.4-.54-.45-.29-1-.93l.27.16a2,2,0,0,0-.79-.64,3,3,0,0,1-.83-1.14,1.51,1.51,0,0,1-.7-.54c0-.07.12,0,.18.06-.71-.9-1.3-1.13-1.68-1.84,0,0,0-.1,0-.16.56.72,1.07,1.25,1,1.21.1-.09-.38-.64.15-.33a7.66,7.66,0,0,1-1.67-1.61.38.38,0,0,1,0-.1l.06,0a2,2,0,0,0-.3-.34c-.13-.19-.21-.31-.34-.48,0-.13-.49-.69-.72-1-.09.11-.37-.28-.18.14,0-.05.06.05.21.23l.11.11h0l.58.7a2.12,2.12,0,0,1-.67-.74,5.47,5.47,0,0,1-.5-.26,14.91,14.91,0,0,1-.66-1.51,17,17,0,0,0-2.17-2.54.64.64,0,0,1-.18-.46,3.36,3.36,0,0,0,.34.37c-.43-.47-1.1-1.52-1.31-1.57-.33-.74.38.3-.21-.63l.13.09a10.78,10.78,0,0,0-1.53-2.42,8.65,8.65,0,0,1-1.37-2.72c.05.16.08.24.06.29-.25-.64-.56-1.26-.83-1.9s-.52-1.3-.77-2a17.61,17.61,0,0,1-1.14-4,4.42,4.42,0,0,0-.43-1.25l.12-.19L212,9.07a4.29,4.29,0,0,1-.15-1.58,5.29,5.29,0,0,0-.15-1.8l-.08.19c0-.26-.06-.67-.09-1s0-.59.06-.55a.44.44,0,0,1-.05-.37h.07l-.14-1.27c.08-1,.29.16.4-1.25,0-.53-.13-1.53-.2-1.34s-.08.55-.16.56V.16c-.23-.11-.44-.52-.68.68l.08.86-.13.27,0-.72a1.7,1.7,0,0,0,0,1,.68.68,0,0,0-.14.36l.23.84c-.09.1-.18-.38-.23.18.11.39.2-.37.28.27-.11.41-.19.3-.1.77-.06.07-.1,0-.13-.22a4.86,4.86,0,0,0,.23,1.34c-.1.43.16,1.42-.06,1.4a10.73,10.73,0,0,1,.32,1.11c-.39-.66.24,1.44-.07,1.31a4.09,4.09,0,0,1,.38,1.22,10.15,10.15,0,0,0,.48,1.5.5.5,0,0,1-.11-.22,6.57,6.57,0,0,1,.15,1c.2,0,.46.79.7,1.17.05.67-.35-.29-.45-.05.13-.07.54,1,.59.75.06.5.09.42,0,.71.26,0,.2.42.49.75.14.71-.15.25.2,1,.06.38-.27-.24-.27-.24.28.75.3.28.46.4.42.85,0,.45.1.79.3.51.66.85.84,1.25,0,.05,0,.13-.06.05.42.5.78,1.7,1.33,2.23a.51.51,0,0,1,0,.1c0-.14.09-.2.16-.21.19.3.44.51.4.68a.63.63,0,0,0-.24-.25l.23.29c0,.38-.31-.4-.42-.34a15.58,15.58,0,0,1,1.21,1.76c-.08.18-.71-1.1-.46-.38l-.38-.77c.1.7-.25-.47-.19.2.53,1,.72,1.05,1.25,2.06.21.16.08-.15.29,0,1,1.25.35,1.28,1.21,2.13a1.7,1.7,0,0,1,.9.91l-.32-.12c.61.91.58.35,1.14,1.37-.18-.12-.55-.67-.47-.52.31.7.38.37.72.83l-.06.19c.76.89,1.67,1.81,2.51,2.79-.09,0-.27-.16-.12.11,1.06,1.25,2.29,2.62,3.28,3.85l.51.34c.1.11.13.24,0,.15.37.49.09,0,.33.13s.25.4.07.27a34.51,34.51,0,0,1,3.06,2.89l-.19-.12c.6.66.93.47,1.43,1.14l-.13-.09c.67.68,1.41,1.38,2.11,2a18.16,18.16,0,0,1,1.87,1.78c.35,0,1.38,1.31,1.67,1.16A16,16,0,0,0,239,48c.3.28.57.27,1,.55l-.09.13.65.3.18.37.4.26c-.15-.13-.28-.3-.23-.32a4.75,4.75,0,0,1,1.34,1.27l1.48,1c-.07,0-.32-.14-.53-.25.84.45,0,.23.81.65-.07-.1.11,0,.14,0a10.8,10.8,0,0,0,1.66,1.36h-.18c1,.82,2.28,1.57,3.47,2.43-.4-.35-.2-.43.17-.19l0,.23c.29.08-.33-.31.21-.08s.19.36-.1.22l.58.34c0,.07-.14,0-.21,0,.29.08.85.8,1.27.89v.06c1.2.85,1.77,1.19,2.76,1.87C253.87,58.91,254.25,59.19,254.61,59.29Z" class="cls-10"/><path d="M223.51,32.57h0l-.24-.29Z" class="cls-10"/><path d="M224.49,33.77c-.12-.15-.27-.33-.42-.53,0-.07.07-.06.17.07C224.16,33.26,224.37,33.56,224.49,33.77Z" class="cls-10"/><path d="M223.17,30.61c.17.18.2.26.2.3l-.28-.31,0,0Z" class="cls-10"/><path d="M222.75,30.39l-.07-.07.07.13.09,0Z" class="cls-10"/><path d="M278.19,141.67l0,0s0,0,0,.05Z" class="cls-10"/><polygon points="239.84 48.68 239.86 48.65 239.74 48.59 239.84 48.68" class="cls-10"/><path d="M274.21,149.2a.18.18,0,0,0-.08.09S274.17,149.25,274.21,149.2Z" class="cls-10"/><path d="M272.64,152.53l-.26.45C272.5,152.79,272.58,152.64,272.64,152.53Z" class="cls-10"/><path d="M271.39,155.06a.22.22,0,0,0,0,.08h0Z" class="cls-10"/><path d="M286.39,113.11V113C286.38,112.75,286.38,112.92,286.39,113.11Z" class="cls-10"/><path d="M283.9,126.14c0-.14,0-.28.07-.43C283.89,125.94,283.83,126.11,283.9,126.14Z" class="cls-10"/><polygon points="285.3 98.47 285.3 98.47 285.28 98.39 285.3 98.47" class="cls-10"/><path d="M284.16,125.12a2.35,2.35,0,0,0-.19.59A5.09,5.09,0,0,0,284.16,125.12Z" class="cls-10"/><path d="M267.83,162.79l0-.06A0,0,0,0,0,267.83,162.79Z" class="cls-10"/><path d="M268.3,161.75a6.44,6.44,0,0,0-.52.93l0,0C267.81,162.54,268.27,162,268.3,161.75Z" class="cls-10"/><path d="M270.85,157.71l-.43.84c.12-.13.28-.29.11.11C271.18,157.63,270.31,158.83,270.85,157.71Z" class="cls-10"/><path d="M272.16,155.06c-.19.47.08,0,.09.06C272.34,154.8,272.37,154.73,272.16,155.06Z" class="cls-10"/><path d="M281,135.6l.1.09C281.2,135.32,281,135.67,281,135.6Z" class="cls-10"/><polygon points="281.86 131.56 281.65 131.89 281.7 132.1 281.86 131.56" class="cls-10"/><polygon points="283.56 129.62 283.52 129.78 283.69 129.15 283.56 129.62" class="cls-10"/><path d="M285.52,94.15l-.13.16C285.49,94.56,285.68,94.57,285.52,94.15Z" class="cls-10"/><path d="M279.19,80a1.67,1.67,0,0,0-.43-.77C278.94,79.48,279.08,79.81,279.19,80Z" class="cls-10"/><polygon points="243.87 50.2 244.15 50.35 243.66 50.03 243.87 50.2" class="cls-10"/><path d="M288.69,1.71c.07.33.21.69.37.49-.15-.31-.11-.39-.27-.73,0-.27.1-.46.15-.41,0-.1.08-.41,0-.56a2.09,2.09,0,0,0-.13,1.24C288.76,1.84,288.72,1.74,288.69,1.71Z" class="cls-10"/><path d="M298.31,25.54l-.1-.14A.94.94,0,0,0,298.31,25.54Z" class="cls-10"/><path d="M309.61,37.23c-.09-.08-.13-.11-.15-.1S309.62,37.26,309.61,37.23Z" class="cls-10"/><path d="M311.43,39.33l-.1-.13A.36.36,0,0,0,311.43,39.33Z" class="cls-10"/><path d="M298.31,25.54l.24.37C298.61,25.9,298.43,25.72,298.31,25.54Z" class="cls-10"/><path d="M289.22,5.28a1.23,1.23,0,0,0-.08-.23l.05.22Z" class="cls-10"/><path d="M293.92,19.84l-.07-.12-.11-.06Z" class="cls-10"/><path d="M291.23,15c0,.12.19.1.27.12a.51.51,0,0,1-.2-.21S291.25,14.94,291.23,15Z" class="cls-10"/><path d="M288.82,6.57l0-.15Z" class="cls-10"/><path d="M296.15,23.12a.08.08,0,0,0,0,.07S296.15,23.15,296.15,23.12Z" class="cls-10"/><path d="M298.22,159.88h0S298.2,159.91,298.22,159.88Z" class="cls-10"/><path d="M314.72,43.15v0C314.61,43,314.66,43.1,314.72,43.15Z" class="cls-10"/><path d="M289.22,5.42l0,.22C289.24,5.54,289.23,5.47,289.22,5.42Z" class="cls-10"/><path d="M316.81,45.26l.12.18A1.86,1.86,0,0,0,316.81,45.26Z" class="cls-10"/><path d="M305.86,147.73a.7.7,0,0,1-.22.12C305.76,147.84,305.44,148.46,305.86,147.73Z" class="cls-10"/><path d="M289.14,5.29s.06.06.08.13l0-.15S289.15,5.25,289.14,5.29Z" class="cls-10"/><path d="M305.64,147.85Z" class="cls-10"/><path d="M320,115.41a13.77,13.77,0,0,1-1.23,3.11c-.07.35-.23.77-.3,1.12l-.12-.07c-.4.9-.61,1.35-1,2.49v-.27c-.27.63,0,1-.2,1.55l-.27.09a25.36,25.36,0,0,0-1.42,3.31s-.06-.09,0-.27c-.24.51-1,1.93-.69,1.86-.17-.06-.53,1.12-.74,1.74l-.08-.15a3.4,3.4,0,0,1-.32,1.32c-.09.16-.17.09,0-.11-.33.52-.09.48-.47,1.11l0-.28a1.71,1.71,0,0,0-.27.88,2.49,2.49,0,0,1-.71,1.07,1.32,1.32,0,0,1-.22.77c-.07,0,0-.11,0-.18-.54.89-.55,1.46-1,2-.05,0-.09,0-.13.07.38-.73.69-1.32.67-1.26s-.44.53-.35,0a8.91,8.91,0,0,1-.74,2,.21.21,0,0,1-.08.06l0-.07a1.59,1.59,0,0,0-.17.38c-.12.17-.19.28-.29.45-.13,0-.4.65-.56.94.14,0-.09.42.2.11,0,.05,0-.06.12-.26a1.12,1.12,0,0,0,.05-.13v0l.38-.74a1.81,1.81,0,0,1-.38.83c0,.19,0,.4,0,.51-.39.31-.9,1-1.07,1.08a15.54,15.54,0,0,0-1.18,2.81c-.11.27-.23.25-.32.33a2.88,2.88,0,0,0,.17-.43c-.22.54-.81,1.5-.72,1.71-.43.59.05-.44-.42.45l0-.15c-1.24,1.55-1.2,3-2.66,4.67.1-.11.15-.17.19-.18-1.42,2-2.56,4.44-4.13,6.35a2.7,2.7,0,0,0-.53,1.08l-.21,0-.26.7c-.47.93-1.31,1.28-1.85,2.49l.18-.08c-.28.37-.8,1.25-.86,1.12a.4.4,0,0,1-.15.31l-.07,0-.55,1c-.44.54-.31.08-.58.32h1.26l.17-.51c.13,0-.05.38.28,0,.12-.35-.36.15-.08-.36.3-.24.31-.1.48-.5.08,0,.06.08,0,.23.16-.35.55-.84.56-1.07.32-.24.7-1.08.86-.92a4.53,4.53,0,0,1,.42-1c-.14.68.74-1.08.89-.78a16.59,16.59,0,0,1,1.2-2.25.42.42,0,0,1-.08.2,7.05,7.05,0,0,1,.61-.69c-.13-.16.23-.8.34-1.2.47-.38,0,.42.26.37-.15-.06.4-.93.19-.84.33-.31.25-.29.51-.39-.17-.2.18-.37.25-.76.44-.48.28,0,.59-.66.24-.24,0,.33,0,.33.38-.6,0-.38,0-.56.4-.76.32-.27.55-.46.24-.49.3-.92.52-1.26,0,0,.09-.07.07,0,.17-.56.86-1.44,1-2.09a.27.27,0,0,1,.09-.06c-.14.05-.23,0-.27,0,.16-.27.2-.57.36-.61a.55.55,0,0,0-.08.3l.13-.31c.3-.18-.18.42-.07.49a13.6,13.6,0,0,1,.83-1.74c.2,0-.54,1.05-.07.54l-.45.64c.53-.38-.25.4.27.07.55-.86.51-1,1-1.89,0-.24-.16,0-.13-.25.57-1.34.94-.78,1.26-1.82a1.39,1.39,0,0,1,.36-1.1l.05.32c.49-.86,0-.63.64-1.48,0,.2-.32.72-.23.6.46-.52.13-.47.38-.93h.2c.48-.94.9-2,1.42-3.07,0,.08,0,.28.14.06.6-1.34,1.45-2.78,2.16-4l.11-.56c.05-.11.16-.18.13,0,.29-.48-.08-.07,0-.33s.25-.34.21-.14a18.23,18.23,0,0,1,1.53-3.49l-.05.2c.39-.71.1-.95.53-1.57l0,.14c.78-1.55,1.41-3.37,2.13-4.5-.09-.32.75-1.56.51-1.77a12.33,12.33,0,0,0,1.06-1.85c.15-.34,0-.58.17-1l.14,0Z" class="cls-10"/><path d="M295.4,22c.13,0-.12-.77.49-.08,0,.07-.11.17-.28,0a1.13,1.13,0,0,1,.28.34l-.31-.23c.2.35.21.11.38.37-.08.06.08.23,0,.24a1.78,1.78,0,0,0-.23-.32,3.2,3.2,0,0,1,.43.85c0-.07.1-.08.27.12.42.52.05.25.25.59.16.09.37.47.49.39a.52.52,0,0,1,.11.32c.27.23,1.06,1.24.93.84l-.05-.08,0,0c.85.78,1.49,1.85,2.31,2.64l0,0a15.41,15.41,0,0,0,1.47,1.35c.14.15.26.41.16.38a5.49,5.49,0,0,1,.93.94c-.43-.31.08.18-.42-.33a4.75,4.75,0,0,0,1.1,1.09c-.26-.09.25.47.5.66l-.27-.39c.27.24.49.47.71.7h-.24c.84,1.11,2,1.48,2.52,2.46.35.17-.47-.58-.15-.45a12.18,12.18,0,0,1,.89,1.22c.55.67.75.39,1.35,1.07,0-.12,0-.31.51.12s.38.73.06.48c-.11-.11-.15-.17-.13-.18-.16-.13-.37-.3-.24-.08l.1,0c.19.26.8.87.59.8.38.29.21.07,0-.2.5.63.89.89,1.43,1.53-.07-.12-.11-.25,0-.16.8.93.46.31,1.05.89.26.4-.27,0,.36.58.3.41,0,.18-.22.07A6.52,6.52,0,0,1,313.68,42l-.3-.27a4.62,4.62,0,0,1,.44.46l-.06-.25c.14.18.27.33.23.36.22.13,0-.27.42,0,.16.27.68.67.63.86-.6-.78-.05.18-.61-.43a2.62,2.62,0,0,1,.38.45s0,0-.09-.05c.49.81.41.21,1,1-.15,0,0,.28.13.39-.25-.3,0-.24.28,0a4,4,0,0,0,.65.77l-.2-.32c.14.05.33.3.62.63,0,.07-.28-.28-.21-.14.42.28.53,1,1,1.44.14.29-.12.12,0,.37.54.54.37.73.88,1.34,0-.26-.07-.28.33.12l-.78-1,.6.59c-.22-.32-.51-.65-.64-.85.31.27.26.26.24,0,.15.55.67.84.91,1.42l-.25.15a5.85,5.85,0,0,0,.7,1.12V48.28c-.22-.29-.43-.6-.66-1s.2.12.3.2a36.85,36.85,0,0,0-2.43-3.14s.12.08.21.17c-.16-.19-.32-.47-.39-.39l.17.18c.13.39-.84-.58-.94-.55.49.13-.73-1,0-.72-.12-.11-.29-.24-.32-.16-.14-.2-.15-.29.06-.15-.6-.64-.49-.32-1-.92,0,0,.15.07.25.1a4.42,4.42,0,0,1-1.09-1s0,0,.08,0c-.77-.78-1.47-1.22-2.26-2.16.41.12-.25-.36-.16-.54l-.52-.44.13.26c-.42-.43-.89-.7-1.21-1.11l.37.26-.82-.76.4.49c-.49-.35-.12.22-.64-.38a4.92,4.92,0,0,1-.57-.71h0a3,3,0,0,1-.79-.67c0-.12.21-.08.18-.16-.31-.09-1-.94-1.4-1.08.11.06.19,0,.17-.05l-.26-.08c-.17-.22-.19-.26-.1-.28-.58-.6,0,.35-.61-.41.06,0,.05,0,.18.11-.67-.73-1.42-1.28-2-2-.05-.32.6.53.49.2-1-.89-2.07-1.75-2.91-2.69l.15.18c-.32.06-.55-.77-1.08-1.15.12.1.25.05.2,0-.56-.66-1.24-1.25-2.17-2.18l.16.08c-.29-.42-.83-1.05-1.16-1.49-.16-.08-.34-.33-.3-.12-.74-1.56-2.14-2.44-2.69-3.88.1.14.28.32.2.2-.25-.34-.51-.68-.75-1,0,.14,0,.17.1.45a2.75,2.75,0,0,1-.55-.65c.37.45.16-.1.08-.35,0,.06-.08,0-.1,0-.17-.67-.27,0-.61-.83h.08a6.6,6.6,0,0,1-.59-.84c0-.2.23.28.34.25-.26-.45-.72-.77-.81-1.25.13.17.27.46.41.63a2.85,2.85,0,0,0-.3-.9v0l-.33-.81.06.22c-.61-.43-.61-1.17-1.18-1.87.55.69.17.08.34.08-.06-.22-.13-.55-.06-.48-.26-.33-.16-.67-.53-1.14,0,0-.15-.41,0-.37-.21-.49,0,.15-.12.13-.42-.73-.42-1.88-.93-3-.33-1-.51-1.12-.78-2.05,0-.33.21.24.22.23a5.53,5.53,0,0,0-.2-1.37c.06.09.08,0,.11-.17-.06-.38-.22-.24-.18-.76a1.62,1.62,0,0,1,.22.37c-.07-.45-.19-.89-.27-1.36.08-.13.15.27.22.44a9.93,9.93,0,0,0-.26-1.54l-.05.35c0-.2.11-.11.14,0,.09.45,0,.66-.08.68l0-.33c-.26.36.11,1.36.18,2l-.25-.26.27.68c0,.15-.13.27-.21-.06,0,.5.13.42.08.86,0,0,0,0,0,0A4,4,0,0,0,289,7c-.06-.08-.13.11-.16-.19.06.88.44,1.34.35,1.7l0-.07c.37,1.15.18.08.58.9l-.2.69.17.07c0,.12.1.36,0,.33.24.41,0-.09.21.13.06.61.58,1.54.41,1.74.19.16-.12-.56.19,0-.18.27.31.67.4,1.22-.19-.1-.31-.61-.22-.05.32.22.38,1,.61,1.4.16-.05.49.87.91,1.53a15.16,15.16,0,0,0,.9,2h0c.22,0,.59.68.9,1.12-.1,0-.19,0-.39-.24l.27.43a1.62,1.62,0,0,1,.42.46l-.19,0A18.24,18.24,0,0,1,295.4,22Z" class="cls-10"/><path d="M311.25,137.54h0l-.15.31C311.13,137.78,311.17,137.69,311.25,137.54Z" class="cls-10"/><path d="M311.88,136.29c-.07.15-.17.34-.28.54-.06,0-.08-.05,0-.18C311.58,136.74,311.75,136.45,311.88,136.29Z" class="cls-10"/><path d="M309.66,138.46c.08-.2.14-.25.18-.27s-.09.21-.16.35v0A.43.43,0,0,1,309.66,138.46Z" class="cls-10"/><path d="M309.64,138.9l0,.09.09-.1v-.09Z" class="cls-10"/><path d="M298.2,25.38v0a.14.14,0,0,1,0-.06S298.19,25.36,298.2,25.38Z" class="cls-10"/><path d="M294.07,18.86s0-.05,0-.1Z" class="cls-10"/><path d="M292.49,16l-.17-.44A3.75,3.75,0,0,0,292.49,16Z" class="cls-10"/><path d="M291.46,13.64a.11.11,0,0,0-.07,0h.07Z" class="cls-10"/><path d="M317.44,44.54l.07.07C317.67,44.78,317.57,44.66,317.44,44.54Z" class="cls-10"/><path d="M309,35.83l.33.23C309.13,35.9,309,35.78,309,35.83Z" class="cls-10"/><path d="M309.68,36.46a2.15,2.15,0,0,0-.4-.4A3.78,3.78,0,0,0,309.68,36.46Z" class="cls-10"/><path d="M289.09,3V2.92h0Z" class="cls-10"/><path d="M289.07,2.91V2.77A.49.49,0,0,0,289.07,2.91Z" class="cls-10"/><path d="M289,2.49l0,.28A.59.59,0,0,0,289,2.49Z" class="cls-10"/><path d="M289.31,6.36l.06,0A.06.06,0,0,0,289.31,6.36Z" class="cls-10"/><path d="M289.51,7.36c0-.24,0-.61-.1-.94l0,0C289.45,6.54,289.37,7.15,289.51,7.36Z" class="cls-10"/><path d="M290,11.65l-.24-.83c0,.16,0,.37-.14,0C289.84,11.91,289.69,10.57,290,11.65Z" class="cls-10"/><path d="M291,14.19c-.22-.42-.07,0-.11,0C291,14.47,291.05,14.53,291,14.19Z" class="cls-10"/><path d="M302.2,29.92l-.12.06C302.34,30.22,302.11,29.94,302.2,29.92Z" class="cls-10"/><polygon points="305.28 32.07 305.09 31.77 304.89 31.74 305.28 32.07" class="cls-10"/><polygon points="306.2 34.25 306.08 34.15 306.54 34.53 306.2 34.25" class="cls-10"/><path d="M39.43,100.31s0,.14,0,.13l0-.17Z" class="cls-10"/><path d="M39.77,100.65a.46.46,0,0,0,.17-.35c-.1.13-.11.07-.2.25-.06,0-.09-.06-.07-.12s-.09,0-.12.06.14.15.25.05S39.78,100.62,39.77,100.65Z" class="cls-10"/><path d="M42.69,104.31v0S42.68,104.3,42.69,104.31Z" class="cls-10"/><path d="M43.27,107.24a.05.05,0,0,0,0,0S43.25,107.25,43.27,107.24Z" class="cls-10"/><path d="M43.13,107.76v0S43.11,107.75,43.13,107.76Z" class="cls-10"/><path d="M42.69,104.31l0,.1C42.72,104.39,42.69,104.36,42.69,104.31Z" class="cls-10"/><path d="M40.6,100.51h0Z" class="cls-10"/><path d="M42,103.18v0h0Z" class="cls-10"/><path d="M41.48,102.36s.13-.06.18-.09-.08,0-.1,0Z" class="cls-10"/><path d="M40.54,101.12h0Z" class="cls-10"/><path d="M42.31,103.83l0,0Z" class="cls-10"/><path d="M37.94,100.41v0S38,100.41,37.94,100.41Z" class="cls-10"/><polygon points="39.42 100.68 39.41 100.69 39.39 100.76 39.42 100.68" class="cls-10"/><path d="M43,108.66h0S42.94,108.65,43,108.66Z" class="cls-10"/><path d="M38.13,113c.06.14-.18.12-.08.29C38.05,113.26,38.22,113.13,38.13,113Z" class="cls-10"/><path d="M40.62,100.54l.05,0A.06.06,0,0,0,40.62,100.54Z" class="cls-10"/><polygon points="38.05 113.32 38.05 113.32 38.06 113.33 38.05 113.32" class="cls-10"/><path d="M42.69,110.66h0Z" class="cls-10"/><path d="M43.2,109.21l0,0S43.2,109.22,43.2,109.21Z" class="cls-10"/><path d="M42.57,111.45s0,0,0,0h0S42.54,111.46,42.57,111.45Z" class="cls-10"/><polygon points="42.13 112.12 42.16 112.13 42.17 112.1 42.13 112.12" class="cls-10"/><path d="M36.06,102.71a.31.31,0,0,1,.13,0C36.1,102.7,36.14,102.56,36.06,102.71Z" class="cls-10"/><path d="M40.57,100.58s0,0,0,0h0A.06.06,0,0,0,40.57,100.58Z" class="cls-10"/><path d="M43.53,112l-.1.14A.71.71,0,0,0,43.53,112Z" class="cls-10"/><path d="M34.33,109.09l0,0S34.31,109.08,34.33,109.09Z" class="cls-10"/><path d="M43.19,112.55l-.13,0a.08.08,0,0,0,0,0Z" class="cls-10"/><path d="M36.19,102.74Z" class="cls-10"/><path d="M36.45,101.72c-.09.12.11.16.18.25s-.16,0-.27,0,.07.28,0,.34,0,0-.06,0c.06.18-.17.29-.08.5h-.05a.82.82,0,0,1,.23.11c0,.05,0,.15-.07.12s0-.06-.05-.1l0,.09c-.18,0,0-.11-.12-.18,0,.15,0,.34-.05.41s.06-.23-.13-.19l.13-.1c-.29,0,.06-.08-.25-.12-.14.16,0,.24-.17.4.07.08.13,0,.2.13,0,.33-.48,0-.37.3.08.1.27.21.1.29l-.15-.12c-.1.17.2.21,0,.34-.06-.06,0-.16,0-.14s.07.13,0,.22l-.16,0c-.06.2,0,.46-.08.68,0,0-.08-.08-.14,0a1.72,1.72,0,0,1-.4.81l.11.15s-.08,0-.1,0,.09,0,.13.1-.1,0-.13,0c.07.23.12.59-.07.75l0,0c-.09.14.26.23.1.35l0,0c-.14.32,0,.71-.3.94.2.08-.13.33.16.38-.16.18-.22.12-.32.4,0,.07.18.12.21.21H34.3l.16.12-.18.07,0,.09a.11.11,0,0,1,.12-.07c.06.13-.1.33-.18.34l.15.31c-.07,0-.09,0-.13-.09.16.16-.16,0,0,.19,0,0,.09,0,.12,0a.41.41,0,0,0,0,.4h-.11a4.07,4.07,0,0,0,.2.78c0-.11.21-.13.24-.06l-.15.07c.11,0,0-.1.19,0s-.16.12-.23.08l.09.1s-.08,0-.14,0c.11,0-.08.27.11.28l0,0a2.64,2.64,0,0,0,.31.58c.13-.06.14,0,.27,0a1.53,1.53,0,0,0,.18.56c.14.08.12,0,.22,0-.09.09.06.24-.09.21a1.26,1.26,0,0,0,.54.37c0-.06,0-.1,0-.12a.1.1,0,0,1,0,.16h0c.36.08.47.79.87.69h0l.33,0c.11.07-.11.06-.05.17.36-.08.46.18.75.11.12.43.68.08.91.34v-.09c.08-.08.08.06.13.08s-.07-.08,0-.13a2.5,2.5,0,0,1,.86,0,4.19,4.19,0,0,0,.94,0c.24,0,0-.48.33-.35l0,.18a2,2,0,0,1,.61-.35,1.52,1.52,0,0,0,.55-.42s0,.08,0,.11c.15,0,.28-.22.22-.29s.07,0,.13.06.08-.27.19-.22,0,0,0,.07.21-.21.06-.26c.17-.07.17-.27.31-.33-.08-.16.22-.19,0-.33.19.14.31-.15.26-.29,0,.06.11,0,.17,0,.05-.11.07-.22,0-.26.34-.08,0-.47.34-.45,0-.38,0-.69,0-1,.22.06-.05.32.18.37,0-.31-.17-.5-.07-.76,0-.07.09,0,.12.08,0-.29.11-.53,0-.79,0,0,0,0,.06.06s0-.11-.06-.12l0,0c-.15.07-.29-.21-.37-.22.29.1.09-.24.45-.09a.14.14,0,0,0-.13-.07s.06-.06.14,0c0-.18-.16-.12-.16-.28,0,0,.07,0,.13,0-.1-.08-.19-.16-.15-.29s.07,0,.07,0c0-.22-.27-.37-.18-.62.22.06.07-.09.26-.11l-.07-.13-.09.06c0-.12-.15-.21-.1-.31l.09.08-.06-.21-.06.12c-.1-.1-.23,0-.19-.11,0,0,0-.12.09-.19h0c-.07,0-.14-.1-.1-.18s.2,0,.24,0c-.16,0-.08-.26-.25-.3a.24.24,0,0,0,.15,0l-.13,0c0-.06,0-.07.13-.08s-.23.09-.16-.11c0,0,0,0,.05,0,0-.2-.14-.35-.12-.53.17-.09.08.14.22,0-.1-.24-.34-.46-.37-.7v0c-.27,0,.07-.21-.08-.3,0,0,.15,0,.12,0,0-.18-.17-.31-.33-.52h.07a1.59,1.59,0,0,0-.06-.37c-.08,0-.09-.06-.17,0,.23-.46-.44-.49-.28-.89,0,0,.09,0,.08,0a1.63,1.63,0,0,0-.17-.2c-.09.08,0,.06-.1.15a.21.21,0,0,1-.19-.08c.13.06.17-.09.2-.16l-.1,0c.11-.22-.21.09-.18-.13l.06,0c-.06,0-.16-.05-.18-.12s.09,0,.18,0-.32,0-.26-.17c.06,0,.09.06.15.08.07-.17,0-.16,0-.23h0l0-.18v.06c-.35.1-.21-.17-.5-.16.27,0,.12-.06.24-.15s0-.14.05-.15c-.14,0,0-.18-.23-.14,0,0-.06-.07,0-.14-.1-.06,0,.08-.1.11-.22,0-.13-.44-.48-.42s-.35.06-.54,0c0-.1.14-.12.14-.12a.21.21,0,0,0-.24-.15s0-.07,0-.13-.13.14-.19,0a1.17,1.17,0,0,1,.16-.15l-.34,0c0-.08.1-.1.15-.14-.12,0-.32,0-.38.11l.06.07s0-.12,0-.14.13.09.11.13h-.07c0,.28.26,0,.39.13l-.14.16.2-.09c0,.06,0,.17-.11.17s.11,0,.11.11,0,0,0,0h.11s-.07.13-.1.07c.06.19.3,0,.25.18h0c.21.09.11-.11.36-.14l-.17.36.12-.1a.06.06,0,0,1,0,.1c.14,0,0-.06.14-.1,0,.18.26.18.1.36.11,0,0-.13.14-.1-.18.19.12.07.09.23s-.12-.06-.16.09c.22-.09.08.19.17.22s.17.1.29.19c-.06,0,.07.27.07.42h0c.17-.07.21.07.29.13a.24.24,0,0,1-.21,0l.05.08a.17.17,0,0,1,.15,0l-.13,0c.06.11.25.15.24.33.12,0,.26-.27.41-.15-.06,0-.16.09-.21.06s.08,0,.07.07l-.14,0c0,.09.1,0,.12.06s0,.06-.12.09,0-.06,0-.07a.26.26,0,0,1-.07.22s.12,0,.15,0-.09.09-.11.18,0,.1.18,0-.05.07-.08.09.12.27.25.15v0h0c.2.15.08.44.19.62h0c.09.11.11.26.24.32s-.06.11-.12.11.11.08.07.23c-.11-.07-.07,0-.09-.08,0,.13-.08.18.08.27-.13,0-.13.13-.08.18l.07-.11a.38.38,0,0,1,0,.18h-.17c-.15.29.44.38.12.63.13,0,.07-.15.21-.11s-.23.27-.22.31.26.11.22.28a.21.21,0,0,1,.28.06c0,.12-.24.16-.29.1a0,0,0,0,1,0-.05s0-.08-.11,0h.06c-.06.07,0,.22-.14.19.06.08.1,0,.13,0-.08.16,0,.23,0,.39,0,0,.1,0,.1,0-.07.23.11.09.14.24s-.21,0-.13.13-.16,0-.21,0c.12.13-.07.25-.09.33l-.05-.07a.15.15,0,0,1,0,.11l.12,0s0,.07-.08.07.2,0,.31.06c-.06.06.06.18-.1.19.06-.17-.16,0-.18-.14a.09.09,0,0,1,0,.11s0,0,0,0c-.14.16.18.09.16.26-.08,0-.17,0-.15.06s.15,0,.21,0,0,.13,0,.19l0-.07c.08,0,.07.09.09.17s0-.07-.07,0c.15.11-.19.18-.1.31-.07.05-.17,0-.22,0,.1.15-.13.13-.07.28.13,0,.1,0,.19.09a1.09,1.09,0,0,0,0-.25l.15.18c0-.07-.05-.16,0-.2s.05.08.16.06c-.19.07.07.21-.08.3l-.29-.06c-.17.12.1.32,0,.51l.07,0c.11.06,0,.13,0,.21a.27.27,0,0,0-.2,0c.07,0,0,.14.12.23l-.16,0c-.11.14.19.29.09.44-.08-.1-.17-.06-.2-.19,0,0,0,.09,0,.12s0,.19-.07.19.12.1.08.15a.07.07,0,0,1,0,0s0,.12.13.12c-.34,0-.26.42-.56.39a2.14,2.14,0,0,1-.2.32s0,0,0,0c-.16,0,.13.27-.08.31s0-.12-.06-.13c-.23-.24-.13.16-.33.08v0c-.13,0-.11.21-.24.26a.14.14,0,0,0,0,0,.59.59,0,0,1-.27.42c0-.14,0-.09,0-.2-.05,0,.1.19,0,.27s-.17-.07-.22-.2l.1,0c-.11-.14-.13.06-.2,0l0-.08c-.16.07-.11.26-.3.29l0,.06c-.07.22-.11-.1-.19.06l-.07-.19a1.69,1.69,0,0,1-.34.28c.06-.16.2-.25.27-.35s-.22,0-.25.15.06-.08.09,0a.33.33,0,0,1-.33.24c0-.38-.38-.09-.47-.38-.25.12-.47-.1-.74-.12,0,.32-.08,0-.12.3-.07,0-.1,0-.1,0l-.15-.22c0-.1.08-.06.09-.12s0-.14-.08-.24c0,.11-.1.15-.15.08l.06.16c-.24.1-.07-.3-.29-.21l.09-.07c-.12,0-.31-.12-.51,0,0,0,0-.12.08-.12-.17-.12-.57-.07-.61-.3l.06,0s-.15,0-.13,0,.06,0,.05-.06-.17,0-.17-.07l.09,0c-.07-.21-.38-.12-.53-.27.19-.12.14-.29.15-.4h0c-.09-.23-.36-.31-.51-.54.16-.21,0-.55.05-.83a.15.15,0,0,1-.2,0c0-.07-.18-.15,0-.16v0c.2-.07.13-.18.12-.28h-.26c.37-.28-.17-.69.19-.83-.07-.07-.06-.14-.13-.21h.14a1.17,1.17,0,0,0,.06-.47l.1,0c0-.12-.4-.2-.39-.32h.21c0-.22.24-.4.1-.65,0,0,.09,0,.09.07s.22-.36-.08-.38c.19,0,.06-.22,0-.35l.13,0c-.15-.14-.2-.16-.21-.3s.12,0,.07,0c.1-.09-.11-.12,0-.23l.07.07c0-.1,0-.11-.09-.2s.1-.2.23-.18c-.07,0-.15-.12-.1-.18a.11.11,0,0,1,.08.06c.15-.16-.07-.33.11-.4H36a1.55,1.55,0,0,1-.1.24c.12,0,.18-.07.32.08-.07-.12-.21-.35-.11-.44h0v0a.06.06,0,0,0,0-.08.12.12,0,0,0,.07-.07c.11,0,.1-.11.13-.17-.13,0-.08-.11-.21-.08s0,0,0,0v0h0a1.55,1.55,0,0,0,0,.15c0-.07-.09-.14,0-.18a1.74,1.74,0,0,1-.18-.16c.21,0,.37-.11.49-.08,0-.21.13-.42-.06-.64,0-.06.09,0,.14,0s0,.07,0,.1c0-.12.11-.29,0-.4.14-.08.12.15.18,0l0,0c.42-.17-.12-.75.41-.9a.11.11,0,0,1-.08,0c.39-.27.42-.88.93-1,.12,0,0-.14,0-.26l.12.1,0-.22c.07-.23.47.12.51-.2l-.07-.07c.08,0,.2-.16.23,0s0-.11,0-.07l0,.07.15-.17c.14,0,0,.29.2.3s.19-.23.17-.28a.12.12,0,0,1-.07-.12l.09,0c0-.23.19-.46-.1-.64l-.2.14-.08-.11h.18c-.11-.11-.17,0-.22.07a.2.2,0,0,0-.11-.11c-.05.09-.09.18-.13.26,0-.08,0-.19-.11-.21s.14.18,0,.27-.12-.15-.18,0a.11.11,0,0,1,0-.13c0,.1-.21.13-.19.26-.15-.08-.22.18-.34,0a.41.41,0,0,1-.08.27c0-.3-.23.17-.38-.07.07.24-.21.32-.23.55,0,0,0-.06,0-.07s-.16,0-.23,0c.13.14.07.28.11.42-.22,0-.13-.2-.29-.29.12.1,0,.26.12.31-.15,0-.09,0-.25,0,.18.17,0,.1.05.25-.17,0-.2-.11-.22.05C36.45,101.88,36.45,101.72,36.45,101.72Zm-1.13,3.13h0v0Zm-.09.25a1,1,0,0,0,0-.1s.1,0,.08,0S35.28,105.08,35.23,105.1Zm1.1-.18s0,0,0,0a.2.2,0,0,1,0-.07h0S36.32,104.9,36.33,104.92Z" class="cls-10"/><path d="M36.19,104.78v0h0l0,0Z" class="cls-10"/><path d="M42.7,104.27h0l0,0Z" class="cls-10"/><polygon points="34.27 108.78 34.3 108.78 34.27 108.75 34.27 108.78" class="cls-10"/><path d="M42.52,102.75a.05.05,0,0,0,0,0Z" class="cls-10"/><path d="M42.2,102.18v-.11C42.19,102.12,42.2,102.15,42.2,102.18Z" class="cls-10"/><path d="M42,101.72l-.06,0h0Z" class="cls-10"/><path d="M44.14,109.27v0S44.16,109.3,44.14,109.27Z" class="cls-10"/><path d="M43.77,106.91a.27.27,0,0,1,.08.07S43.85,106.9,43.77,106.91Z" class="cls-10"/><polygon points="43.54 111.99 43.54 111.99 43.53 112 43.54 111.99" class="cls-10"/><path d="M43.85,107.09a.09.09,0,0,0,0-.11A.14.14,0,0,0,43.85,107.09Z" class="cls-10"/><path d="M40.13,100.31h0s0,0,0,0Z" class="cls-10"/><path d="M40.1,100.32h0Z" class="cls-10"/><path d="M40,100.34h.08S40,100.31,40,100.34Z" class="cls-10"/><path d="M40.79,100.66l0,0Z" class="cls-10"/><path d="M41,100.77s0-.16-.13-.18l0,0C40.89,100.58,40.89,100.82,41,100.77Z" class="cls-10"/><path d="M41.2,101.79l-.08-.14s0,.13-.1.09C41,102,41.07,101.63,41.2,101.79Z" class="cls-10"/><path d="M41.45,102.2c-.07,0-.06,0-.09.07S41.45,102.28,41.45,102.2Z" class="cls-10"/><path d="M42.93,105.36l-.13,0C42.84,105.45,42.85,105.38,42.93,105.36Z" class="cls-10"/><polygon points="43.73 105.89 43.8 105.81 43.67 105.8 43.73 105.89" class="cls-10"/><polygon points="42.91 106.46 42.89 106.44 42.95 106.53 42.91 106.46" class="cls-10"/><path d="M42.12,111.93l.13.08C42.26,112,42.12,111.85,42.12,111.93Z" class="cls-10"/><path d="M40.27,113.26c0-.07-.12-.1-.14,0S40.25,113.29,40.27,113.26Z" class="cls-10"/><polygon points="35.54 109.45 35.6 109.5 35.55 109.41 35.54 109.45" class="cls-10"/><ellipse cx="180.92" cy="83.82" class="cls-3" rx="3.58" ry="1.77" transform="translate(63.35 244.87) rotate(-78.73)"/></g></g></svg>