<svg xmlns="http://www.w3.org/2000/svg" width="320" height="163" viewBox="0 0 320 163.03"><defs><clipPath id="clip-path"><path fill="none" d="M113.29 120.67l89.29-21.33V44.76l-89.29-15v90.91z"/></clipPath><style>.cls-13{fill:none}.cls-3{opacity:.3}.cls-4{fill:#fff}.cls-5{fill:#4bb390}.cls-6{fill:#66c4a5}.cls-11{fill:#007477}.cls-9{fill:#b2edd5}.cls-11{opacity:.16}.cls-13{stroke:#66c4a5;stroke-linecap:round;stroke-miterlimit:10;stroke-width:.25px}</style></defs><g id="Layer_2"><g id="FULL_PAGE_MOCKUP"><path fill="#83d4b9" d="M0 .03h320v163H0z"/><g class="cls-3"><path d="M88.65 38.53v.12-.16zM88.89 38.87a.64.64 0 00.18-.34c-.1.14-.09.07-.19.24 0 0-.06-.06 0-.12s-.06 0-.09.06.09.14.18 0-.07.13-.08.16zM90.47 41.77s0-.01 0 0zM90.74 43.85zM90.58 44.21s-.01 0 0 0zM90.47 41.77v0zM89.57 38.77zM90.06 40.94h-.07zM89.76 40.33a1.2 1.2 0 00.18-.07.12.12 0 01-.1 0zM89.34 39.32zM90.2 41.42zM87.44 38.72s.01-.01 0 0zM88.64 38.9h-.01l-.02.08.03-.08zM90.41 44.85s-.01-.01 0 0zM87.88 48.16c0 .13-.14.12-.1.28.01-.06.14-.19.1-.28zM89.57 38.8zM87.78 48.44v.01-.01zM90.35 46.27zM90.68 45.23s0 .01 0 0zM90.4 46.85s-.03.01 0 0zM90.19 47.37h.03v-.02l-.03.02zM86.39 40.57h.13c-.1-.01-.1-.11-.13 0zM89.52 38.83zM91.44 47.23v.1a.47.47 0 000-.1zM85.45 45.14zM91.28 47.65h-.12z" class="cls-4"/><path d="M86.51 39.81c-.05.09.14.13.23.2s-.15 0-.25 0 .14.22.11.26 0 0-.08 0c.1.14-.09.22 0 .38a1.1 1.1 0 01.24.09s.07.12 0 .08 0 0-.06-.07v.07c-.18 0 0-.08-.15-.13s.11.25 0 .3 0-.17-.17-.14l.1-.08c-.28 0 0-.05-.25-.09-.1.11 0 .18-.08.3.08.06.14 0 .21.1.1.24-.45 0-.29.22s.29.15.15.21l-.17-.09c-.06.12.24.16.08.25s0-.12-.06-.1.08.09.06.16h-.16a4.38 4.38 0 000 .5c-.05 0-.09-.06-.15 0a.81.81 0 01-.27.58l.13.11a.09.09 0 01-.1 0c-.07.06.09 0 .14.07s-.09 0-.13 0c.1.16.19.43 0 .54-.07.1.28.17.13.25-.11.23 0 .5-.24.66.21.06-.11.23.18.27-.15.13-.2.08-.32.27s.19.09.22.16h-.16l.16.09-.18.05v.06h.12c.05 0-.11.23-.19.24l.14.22c-.07 0-.09 0-.13-.07.16.12-.16 0 0 .13a.49.49 0 01.12 0 .21.21 0 000 .28h-.11a4.45 4.45 0 00.11.55c0-.08.23-.09.25 0h-.15c.1 0 0-.07.18 0s-.17.07-.23 0l.07.08h-.14c.11 0-.13.18 0 .2 0 .2.12.27.17.43h.25c.12 0-.06.29 0 .43s.12 0 .22 0c-.12.06 0 .19-.16.16a.84.84 0 00.34.34s0-.09.08-.1 0 .1 0 .14c.27.08.11.74.48.68h.26c.08.08-.1 0-.08.16.32-.07.33.23.58.16 0 .2.16.24.31.26s.3 0 .39.11v-.09c.06-.08 0 .06.09.08s0-.08 0-.13c.41-.1.9.15 1.45 0 .19 0-.1-.46.19-.37v.17c.23-.33.62-.44.72-.81v.1c.15 0 .16-.21.08-.27s.08 0 .14 0 0-.23.09-.2c0-.07.11-.17 0-.2.11-.08.06-.23.16-.28-.11-.12.15-.15 0-.25.21.09.25-.13.17-.23.06.05.09 0 .17 0a.13.13 0 00-.11-.18c.31-.07-.14-.34.22-.34a5.45 5.45 0 01-.13-.69c.23 0 0 .23.22.26-.05-.22-.24-.36-.16-.54s.09 0 .13.06c-.07-.2 0-.38-.06-.56a.08.08 0 01.06 0s0-.08-.06-.08c-.15 0-.3-.15-.38-.16.29.07.08-.16.45-.06a.21.21 0 00-.14 0h.14c.08 0-.16-.08-.16-.19h.13c-.1-.06-.19-.11-.15-.2s.06 0 .06 0c0-.16-.26-.26-.17-.44.22 0 .07-.06.25-.08l-.11-.06h-.09c0-.08-.14-.14-.09-.21l.09.05v-.15l-.06.09c-.11-.07-.24 0-.2-.08s0-.08.1-.13c-.07 0-.13-.07-.1-.13a2.5 2.5 0 01.25 0c-.16 0-.06-.19-.23-.21a.35.35 0 00.15 0h-.13a.15.15 0 01.14 0c0-.12-.23.06-.15-.08 0-.14-.12-.24-.08-.37s.07.09.22 0c-.07-.17-.29-.33-.28-.5-.27 0 .1-.15 0-.2h.12c-.03 0-.11-.22-.24-.37H91v-.26c0-.08-.07-.05-.16 0 .3-.33-.33-.35-.1-.65h.07l-.12-.14c-.1.05-.05 0-.13.11a.16.16 0 01-.15-.06c.1 0 .17-.07.22-.13h-.1c.15-.16-.22.08-.14-.09h.06s-.14 0-.15-.09.08 0 .18 0-.28 0-.19-.13.07.05.11.06.08-.12.08-.18v-.14c-.35.08-.14-.13-.4-.13.25 0 .12 0 .26-.11s0-.11.08-.12c-.14 0 0-.14-.17-.12l.08-.11c-.07 0-.06.06-.11.09-.21 0 0-.35-.3-.35h-.45c0-.09.15-.11.15-.11s-.06-.13-.15-.13 0-.06.06-.12-.13.12-.15 0a.7.7 0 01.16-.13 2.85 2.85 0 00-.29 0c0-.08.1-.09.16-.12s-.25 0-.32.08v.06s0-.11.06-.12.08.09.06.13h-.06c-.09.28.19.06.27.14l-.16.14.18-.07c0 .05-.08.15-.13.14s.09 0 0 .11h.08s-.09.11-.1.06c0 .15.23 0 .14.15.15.06.12-.1.34-.12l-.25.3.13-.08a.07.07 0 010 .08c.12 0 .05 0 .15-.08-.07.14.18.14 0 .29.11 0 0-.11.15-.08-.22.15.08.06 0 .18s-.1 0-.17.07c.22-.07 0 .14.08.17s.13.08.23.14c-.06 0 0 .22 0 .32.17-.05.18 0 .24.1a.27.27 0 01-.21 0v.06a.15.15 0 01.13 0h-.14c0 .08.21.11.16.24.13 0 .31-.2.43-.11-.06 0-.17.07-.21 0s.07 0 0 .05h-.12c0 .07.1 0 .1 0s-.06 0-.13.07 0-.05 0-.05a.22.22 0 01-.1.16h.15c.03 0-.11.06-.14.12s0 .07.16 0-.06 0-.09.07.07.2.21.11c.18.11 0 .32.09.45.07.07.07.18.19.22s-.08.08-.14.08.11 0 0 .16h-.07c0 .09-.1.12.05.19-.13 0-.14.09-.1.13l.08-.08a.2.2 0 010 .13h-.16c-.18.2.39.27.06.44.12 0 .07-.1.21-.08 0 .09-.24.2-.24.22s.26.08.21.2.21 0 .27 0-.24.12-.29.07a.07.07 0 00-.11 0h.06c-.06 0 0 .16-.14.14.06.06.1 0 .12 0-.07.11 0 .16 0 .27s.1 0 .1 0 .12.07.15.17-.22 0-.14.09-.16 0-.21 0c.12.09-.07.17-.09.23h-.05a.09.09 0 010 .08h.12s0 .05-.07.05h.3c-.06 0 .07.12-.09.13 0-.12-.16 0-.18-.09a.06.06 0 010 .07s.18.06.17.18-.17 0-.15 0h.22c-.08.08 0 .09 0 .13.08 0 .07.06.09.12s0-.06-.07 0c.15.07-.17.13-.07.22h-.21c-.04 0-.13.09 0 .19s.09 0 .2.06l-.07-.17.17.13s-.07-.12 0-.14.06.05.16 0c-.19 0 .09.15 0 .22h-.29c-.15.1.11.22 0 .36h.06c.11 0 0 .1 0 .16s-.13 0-.2 0c.08 0 0 .11.16.16h-.14c-.08.1.24.21.17.31-.09-.06-.17 0-.22-.13s0 .07 0 .09.09.14 0 .14.14.07.11.11 0 .09.15.09c-.33 0-.1.34-.39.31a1 1 0 01-.06.26s.2.21.05.25 0-.1-.11-.11c-.27-.18 0 .15-.24.08-.12 0 0 .18-.08.23a.43.43 0 010 .39c0-.13 0-.09-.09-.18s.13.16.07.24a.64.64 0 01-.22-.18h.06c-.12-.14-.08 0-.12 0v-.08c-.07.08 0 .25-.12.28v.06c0 .2-.09-.09-.12.07l-.07-.18a.65.65 0 01-.2.26 2.75 2.75 0 01.15-.33.14.14 0 00-.14.13s0-.07 0 0-.1.26-.2.25c0-.38-.26-.1-.31-.39-.16.11-.29-.08-.43-.12 0 .31 0 0-.13.29h-.06a.8.8 0 010-.21c0-.1.06 0 .08-.11s0-.14 0-.23c0 .1-.09.12-.11.07v.15c-.18.09 0-.25-.13-.18l.08-.06c-.07 0-.14-.1-.35 0 0 0 .07-.1.1-.1s-.41-.07-.35-.26h.07-.1.07s-.15 0-.13-.06h.09c0-.17-.3-.11-.39-.23a.36.36 0 00.25-.29c0-.18-.26-.25-.38-.42.22-.15 0-.39.16-.59a.23.23 0 01-.2 0s-.16-.11 0-.11c.2 0 .14-.13.15-.2h-.27c.37-.19-.14-.49.2-.58-.06 0-.06-.1-.12-.15h.14a.52.52 0 000-.33h.1c0-.09-.4-.15-.4-.23h.22c0-.16.21-.28 0-.46h.1c.01 0 .18-.25-.11-.27.19 0 0-.15 0-.25h.13c-.16-.1-.21-.11-.23-.22s.11 0 .07 0-.12-.08 0-.16h.08c0-.07 0-.08-.11-.14s.07-.14.19-.13c-.07 0-.16-.09-.11-.13a.19.19 0 01.08 0c.12-.11-.11-.23.05-.29h.08c0 .1-.06.18-.07.17s.17 0 .33.06c-.08-.09-.25-.25-.17-.32s0 0 0-.06c.11 0 .08-.08.1-.12-.14 0-.1-.08-.23-.07v.11c-.06-.06-.11-.11 0-.13l-.2-.12c.21 0 .34-.08.46-.06 0-.15.05-.3-.17-.47h.13c.05 0 0 .05 0 .08s0-.22-.11-.3c.11-.06.14.11.15 0 .36-.11-.28-.56.18-.66h-.07c.28-.21.17-.67.56-.77.09 0 0-.11 0-.21l.13.08-.08-.18c0-.19.41.09.34-.16l-.08-.07s.1-.15.16 0 0-.1 0-.07v.07a.85.85 0 010-.17c.09 0 .1.3.15.3s.06-.23.06-.28v-.13h.06c0-.22.22-.45-.07-.63a.68.68 0 00-.18.15l-.08-.1a.76.76 0 01.16 0c-.12-.11-.15 0-.2.09a.14.14 0 00-.11-.1.9.9 0 00-.07.27c-.06-.08 0-.2-.13-.2s.15.16.08.27c-.1-.06-.14-.14-.16 0 0-.05-.05-.09 0-.13s-.15.14-.09.26c-.14-.06-.14.16-.29 0 0 .06.05.21 0 .25-.13-.25-.15.14-.35 0 .14.2-.07.28 0 .45v-.05c0-.05-.12 0-.19 0 .16.12.15.23.22.34-.2 0-.17-.16-.34-.23.14.08.06.21.19.25h-.23c.21.12 0 .07.11.19-.15 0-.21-.09-.19 0s-.14-.03-.14-.03zm-.42 2.33zm0 .19a.24.24 0 000-.08h.09c-.01 0-.1.06-.18.08zm1-.12zM86.92 42.11zM90.49 41.74z" class="cls-4"/><path d="M85.39 44.92h.03l-.03-.02v.02zM90.62 40.61zM90.47 40.18v-.08s-.01.06 0 .08zM90.36 39.83zM91.62 45.26s.02.03 0 0zM91.26 43.61h.07s0-.01-.07 0zM91.45 47.21l-.01.02.01-.02zM91.33 43.73v-.07s-.02.05 0 .07zM89.23 38.55zM89.2 38.56zM89.11 38.58h.06s-.04-.03-.06 0zM89.67 38.93zM89.8 39s0-.14-.06-.16c.04.01-.02.22.06.16zM89.67 39.87v-.1s-.08.1-.12.07c-.08.16.06-.09.12.03zM89.77 40.2h-.09c-.03 0 .07.06.09 0zM90.56 42.52h-.13s.05.01.13 0zM91.29 42.89l.07-.06h-.11l.04.06zM90.43 43.3l-.02-.02.06.07-.04-.05zM90.12 47.23l.15.05s-.18-.11-.15-.05zM89.19 48.38c0-.07-.09-.11-.09 0s.08.02.09 0zM86.65 45.42l.05.03-.04-.06-.01.03z" class="cls-4"/></g><g class="cls-3"><path d="M81.91 60.06v-.12.16zM81.73 59.73a.72.72 0 00-.12.35c.07-.15.07-.08.13-.26 0 0 .05.06 0 .12s0 .05.07-.06-.06-.14-.13-.05a.3.3 0 01.05-.1zM80.43 57.81zM80.2 56.36s.01-.01 0 0zM80.36 56.1s.01 0 0 0zM80.43 57.81v-.06.06zM81.22 60zM80.8 58.34h.06zM81.06 58.72l-.17.1h.1zM81.39 59.41zM80.68 58zM82.79 60.13s-.01 0 0 0zM81.9 59.7l.01-.01v-.08l-.01.09zM80.54 55.67s.01.01 0 0zM82.49 53.79c0-.13.11-.14.09-.29-.02.06-.11.2-.09.29zM81.21 59.94zM82.58 53.5l-.01-.01.01.01zM80.6 54.75zM80.26 55.4zM80.55 54.35s.02 0 0 0zM80.74 54.05l-.03-.02v.02h.03zM83.9 58.89h-.12c.09 0 .08.11.12 0zM81.26 59.9h-.05s.04.01.05 0zM79.57 53.83l.07-.08a.27.27 0 00-.07.08zM84.75 55.51zM79.76 53.51h.11z" class="cls-4"/><path d="M83.74 59.48c.05-.06-.12-.14-.2-.22s.14.05.23.08-.11-.21-.08-.24 0 0 .06 0c-.08-.13.11-.15 0-.31a1.57 1.57 0 01-.23-.13s-.07-.11 0-.06 0 0 .06.07c.16.06 0 .07.14.13 0-.09-.1-.22 0-.24s0 .13.16.14h-.1c.26.08 0 0 .24.13.09-.07 0-.15.08-.22-.07-.07-.13-.06-.2-.13s.44.09.29-.11-.28-.17-.15-.2l.16.11c.06-.09-.23-.17-.07-.21s0 .09.06.09-.09-.09-.07-.14l.17.06c0-.11-.06-.27 0-.39s.08.06.14 0c0-.17.12-.3.26-.42l-.13-.09h.09c.02 0-.09 0-.13-.07s.09 0 .13 0c-.09-.13-.2-.33 0-.41.08-.07-.28-.14-.13-.19.1-.17 0-.37.22-.49-.21 0 .11-.18-.19-.2.15-.1.2-.07.31-.21s-.18-.06-.21-.11h.15l-.16-.07h.18a.16.16 0 01-.11 0c-.08-.07.09-.18.17-.19l-.14-.16c.06 0 .08 0 .12.05-.16-.08.16 0 0-.11s-.09 0-.12 0a.14.14 0 000-.22h.11c0-.14-.11-.27-.15-.42a.23.23 0 01-.24.07l.15-.06c-.1 0 0 .06-.18 0s.17-.09.23-.08h-.07.13c-.1 0 .13-.17 0-.15a3.28 3.28 0 00-.21-.31c-.13.06-.12 0-.24 0s.06-.26 0-.34-.12 0-.21.07c.11-.08 0-.16.13-.17a.62.62 0 00-.32-.19s0 .09-.07.11 0-.09 0-.13c-.24 0-.15-.57-.44-.44h-.21c-.06 0 .08-.08.07-.17-.25.15-.26-.11-.44 0 0-.4-.39-.08-.49-.3v.08c0 .09 0 0-.07-.07s0 .08 0 .13c-.31.09-.62-.17-1-.14-.14 0 0 .46-.16.29v-.17c-.18.24-.52.23-.65.5v-.1c0-.02-.16.14-.09.21s-.07-.06-.12-.09 0 .21-.1.15v-.05c0 .06-.14.11 0 .18-.11 0-.09.16-.18.18.1.13-.15.09 0 .22-.19-.13-.24 0-.17.15s-.09 0-.16-.06 0 .14.09.18c-.31 0 .12.29-.23.23a5.18 5.18 0 01.1.56c-.22-.06 0-.18-.21-.23.05.18.23.3.15.43s-.09 0-.13-.06c.07.16-.08.29 0 .43h-.06l.07.06c.14 0 .3.12.38.13-.29-.06-.08.12-.45 0a.21.21 0 00.14 0h-.14c-.08 0 .16.07.16.15a.79.79 0 01-.13 0c.1.05.19.09.15.15s-.07 0-.07 0 .26.19.17.32c-.21 0-.06 0-.25.06l.06.07h.09c0 .06.14.1.08.16h-.08v.11l.06-.07c.1.05.24 0 .19.05s0 .06-.1.1c.06 0 .13 0 .09.09s-.21 0-.25 0c.16 0 .07.13.24.14h-.16.13l-.13.05c-.13.05.23-.06.14 0 0 .1.11.17.07.27s-.06-.07-.21 0c.06.13.29.21.27.34.26-.05-.1.13 0 .15h-.11c0 .1.1.16.23.25h-.07v.19c0 .06.07 0 .15 0-.3.3.3.21.08.47h-.06l.11.09c.1-.06.06 0 .12-.11s.14 0 .15 0-.17.08-.21.14l.1-.06c-.15.16.21-.1.13 0h-.06.13s-.07 0-.17.05.27-.05.18.06h-.1c-.11.12-.07.11-.07.15v.11c.32-.14.13.07.36 0-.22.06-.11.06-.23.15s0 .1-.08.12c.13 0 0 .13.15.06l-.07.11c.08 0 .06-.07.11-.1s0 .29.26.22.26-.12.38-.14-.12.14-.12.14 0 .1.13.07a.22.22 0 000 .13s.1-.15.12-.05a1.58 1.58 0 01-.12.15 1.33 1.33 0 00.21-.09c0 .09-.08.11-.12.15a.25.25 0 00.25-.15v-.05.13c0 .02-.06-.06-.05-.11h.05c.06-.26-.14 0-.21-.06l.12-.18-.14.12s.07-.16.11-.17-.07 0 0-.07h-.07s.08-.13.09-.09c0-.13-.2.07-.12-.08-.12 0-.1.12-.28.19l.22-.32-.12.11v-.08c0-.08 0 .05-.13.11.06-.14-.16-.07 0-.24-.1.07 0 .1-.14.11.19-.18-.07 0 0-.14s.09 0 .16-.11c-.2.12 0-.1-.07-.11s-.12 0-.21-.05c.06 0 0-.16 0-.25-.17.08-.17 0-.23 0a.43.43 0 01.2-.07h-.12l.12-.05s-.2 0-.15-.14c-.12 0-.29.2-.41.16a.91.91 0 01.2-.08s-.06 0 0 0h.12c0-.05-.1 0-.1 0s.06 0 .13-.07a.32.32 0 01.11-.14c-.05 0-.12.06-.14 0s.1-.07.14-.12 0 0-.16 0 .06 0 .1-.07-.07-.13-.21 0c-.18-.05 0-.23-.08-.31-.07-.05-.06-.13-.18-.14s.08-.07.14-.07-.11 0 0-.12.07 0 .08 0 .1-.09 0-.13c.13 0 .14-.07.1-.09l-.08.06a.1.1 0 010-.09h.17c.17-.15-.38-.16-.06-.3-.12 0-.07.08-.21.07 0-.06.24-.15.24-.17s-.26 0-.2-.13-.22 0-.28 0 .25-.09.3-.06a.1.1 0 00.12 0h-.06s0-.11.14-.1a.09.09 0 00-.13 0c.08-.07 0-.11 0-.18h-.1c.07-.11-.12 0-.15-.11s.22 0 .14-.07a.23.23 0 01.2 0c-.12-.07.08-.12.1-.16h-.12H80.24c.07 0-.06-.09.1-.09-.06.08.16 0 .18.06s0 0 0-.05c.14-.07-.18 0-.17-.12s.17 0 .15 0h-.22c-.07 0 0-.07 0-.1-.09 0-.08 0-.1-.08s0 0 .07 0c-.15-.06.18-.08.08-.15h.21c.04 0 .14-.05.05-.13s-.09 0-.2-.06l.07.12-.16-.1s.06.09 0 .11-.06 0-.16 0c.18 0-.09-.11 0-.14l.29.06c.14 0-.14-.17 0-.25h-.06c-.11 0 0-.06 0-.11a1 1 0 00.2 0c-.07 0 0-.06-.15-.14h.13c.08-.06-.23-.2-.17-.26s.16.06.22.14 0 0 0-.06-.08-.12 0-.1-.12-.08-.1-.1 0-.07-.15-.1c.31.09.1-.23.36-.12a.46.46 0 01.07-.16c.11 0-.17-.23 0-.22s0 .1.08.13c.22.24 0-.11.2 0 .09.08 0-.14.08-.15a.4.4 0 010-.34c0 .13 0 .08.06.19s-.09-.19 0-.25a.91.91 0 01.15.24c.09.16.06 0 .1 0v.07c.06 0 0-.23.11-.23v-.06c0-.2.06.1.09 0v.19c0-.06.09-.22.15-.25a2.2 2.2 0 01-.12.32.16.16 0 00.12-.12s0 .07 0 0 .09-.22.16-.22c0 .39.18.11.21.4.12-.13.21.06.31.08 0-.3 0 0 .1-.3v.2c0 .09 0 .06-.07.12s0 .13 0 .22c0-.1.07-.14.09-.1v.15c.14-.13 0 .25.11.13l-.06.08s.09.07.26-.12c0 0-.05.11-.08.12s.35-.11.29.08h-.06s.12-.07.08 0h-.06.11-.08c0 .12.26 0 .36 0a.47.47 0 00-.24.27c0 .11.26.09.38.18-.22.14 0 .27-.15.41a.28.28 0 01.2 0s.17.05 0 .08c-.2.05-.14.09-.14.14h.26c-.38.15.16.32-.18.4.07 0 .06.06.13.1h-.14a.22.22 0 000 .22h-.1s.41.1.41.16h-.21c0 .11-.21.18 0 .31h-.1c-.01 0-.17.16.12.19-.19 0 0 .1 0 .18h-.13c.16.08.21.1.24.18s-.11 0-.07 0 .12.07 0 .12l-.13-.03c0 .05 0 .06.11.12s-.06.09-.19.06c.07 0 .16.09.12.11a.14.14 0 01-.08 0c-.12.06.11.18 0 .2h-.09c0-.07.05-.13.06-.12s-.16 0-.32-.09c.08.07.26.22.18.25-.1 0-.08 0-.1.07.14 0 .1.07.22.08v-.07c.06.05.11.09 0 .09l.2.13h-.44c0 .12 0 .22.18.38h-.12c-.04 0 0 0 0-.06s0 .14.11.24c-.1 0-.13-.11-.15 0-.33 0 .27.5-.17.44h.07c-.13 0-.16.15-.21.26a.26.26 0 01-.29.15c-.07 0 0 .09 0 .19l-.1-.11.05.17c0 .16-.31-.25-.27 0l.05.09s-.08.11-.12 0 0 .1 0 .05v-.07a.78.78 0 010 .14c-.08 0-.06-.31-.12-.3a.94.94 0 00-.06.3v.12c0 .23-.06.47.1.62l.09-.16.05.1h-.09c.06.09.09 0 .11-.08a.22.22 0 00.07.12 2 2 0 00.05-.24c0 .08 0 .18.09.22s-.1-.19 0-.27c.08.09.1.17.13.07v.13c0 .03.11-.09.08-.21.1.1.13-.11.23.09a.4.4 0 010-.22c.07.26.15-.07.29.17-.08-.23.09-.22.08-.39s.12 0 .18 0c-.13-.15-.11-.24-.16-.35.18.08.14.18.28.29-.12-.1 0-.19-.15-.26a.57.57 0 01.22.09c-.18-.16 0-.06-.1-.19.14 0 .19.13.18 0s-.13.13-.13.13zm.46-1.75zm0-.14v.06c0 .06-.09 0-.09 0s.09-.05.13-.06zm-1-.07zM83.39 57.62zM80.41 57.83z" class="cls-4"/><path d="M84.83 55.68h-.03l.03.01v-.01zM80.27 58.7zM80.41 59v.07a.2.2 0 000-.07zM80.51 59.26zM79.32 55.34s-.02-.02 0 0zM79.68 56.55h-.07s-.01.01.07 0zM79.57 53.83zM79.61 56.47v.05c0 .05.02-.04 0-.05zM81.48 60.09l.02.01v-.02l-.02.01zM81.51 60.08zM81.57 60s-.01.08 0 0zM81.13 59.85s-.01.02 0 0zM81 59.8s0 .13.06.13c-.06.07.03-.19-.06-.13zM81.13 59.05v.08c0-.05.07-.11.1-.1.08-.17-.05.1-.1.02zM81.05 58.82s.06 0 .09-.06-.07.01-.09.06zM80.36 57.28h.13s-.05-.02-.13 0zM79.64 57.08l-.08.05h.12l-.04-.05zM80.5 56.72l.02.01-.06-.04.04.03zM80.8 54.17l-.13-.09s.15.14.13.09zM81.55 53.55c0 .07.06.11.07 0s-.06-.03-.07 0zM83.54 55.39l-.05-.02.05.04v-.02z" class="cls-4"/></g><g class="cls-3"><path d="M41.74 129.6v-.13.16zM41.57 129.26a.83.83 0 00-.13.35 1 1 0 00.14-.26v.13c0 .07 0 0 .07-.06s-.07-.15-.13 0a.2.2 0 01.05-.16zM40.27 127.34zM40 125.89zM40.2 125.64s.01 0 0 0zM40.27 127.34v-.06.06zM41.06 129.5zM40.64 127.87h.06zM40.9 128.26s-.12.06-.17.09h.09zM41.23 128.94zM40.52 127.55zM42.63 129.67s-.01 0 0 0zM41.74 129.23l.01-.01v-.08l-.01.09zM40.37 125.21s.02 0 0 0zM42.33 123.33c0-.14.1-.14.08-.29-.01.05-.11.19-.08.29zM41.05 129.48zM42.41 123.04v-.02.02zM40.44 124.29h-.06zM40.1 124.94zM40.39 123.89s.02 0 0 0zM40.58 123.58l-.03-.01v.01h.03zM43.73 128.43l-.12-.05c.09.05.09.13.12.05zM41.09 129.43zM39.41 123.36l.07-.07a.16.16 0 00-.07.07zM44.59 125.05zM39.6 123a.15.15 0 00.11 0z" class="cls-4"/><path d="M43.57 129c.06-.07-.12-.15-.19-.23s.13.05.23.08-.12-.21-.09-.24 0 0 .07 0c-.09-.13.11-.15 0-.31l-.22-.12s-.07-.12 0-.06 0 0 .06.07v-.06c.16.06 0 .07.14.14 0-.09-.11-.23 0-.25s0 .13.16.15h-.1c.26.09 0 0 .24.13.09-.07 0-.15.08-.22-.08-.06-.13-.06-.2-.12s.43.09.29-.11-.29-.18-.15-.2l.16.1c.06-.09-.23-.16-.07-.21s0 .1.05.09-.08-.09-.06-.13h.16v-.38c0-.11.09.06.15 0 0-.17.11-.3.25-.42l-.12-.09h.09c.02 0-.09 0-.14-.07s.1 0 .13 0c-.08-.13-.19-.33 0-.4.07-.07-.28-.14-.13-.19.1-.17 0-.37.22-.49-.21 0 .1-.17-.19-.2.15-.09.2-.06.31-.21s-.18-.06-.21-.1h.15l-.16-.06h.18a.17.17 0 01-.12 0c-.07-.06.1-.17.18-.18l-.14-.16h.12c-.16-.08.16 0 0-.11s-.09 0-.12 0a.13.13 0 000-.21h.11c0-.14-.12-.27-.15-.41 0 .06-.22.1-.24.06l.15-.06c-.1 0 0 .06-.18 0s.17-.09.23-.07l-.07-.05a1.3 1.3 0 01.13 0c-.1 0 .13-.16-.06-.15-.07-.15-.15-.19-.21-.31-.13.06-.12 0-.24 0s.06-.25 0-.34-.11 0-.2.07c.1-.08 0-.16.13-.17a.66.66 0 00-.32-.18c0 .05 0 .08-.07.1s0-.09 0-.13c-.24 0-.16-.57-.44-.44h-.2c-.06 0 .08-.07.06-.16-.24.14-.25-.12-.44 0 0-.41-.38-.09-.48-.31v.32c0 .08 0-.05-.07-.08s0 .09 0 .13c-.31.1-.62-.17-1-.14-.14 0 0 .46-.17.29v-.17c-.19.24-.52.24-.65.5v-.09c0-.01-.16.13-.1.2s-.06-.06-.11-.08 0 .21-.1.14-.13.11 0 .18c-.11 0-.09.17-.18.18.1.13-.15.1 0 .23-.19-.13-.24 0-.17.14h-.16c-.07 0 0 .13.08.17-.3 0 .13.29-.22.23.06.22.06.4.1.56-.22 0 0-.17-.22-.23.05.18.24.3.16.43s-.09 0-.13 0c.07.16-.08.28 0 .42h-.06s0 .06.07.06c.15 0 .31.12.39.13-.29-.06-.08.11-.45 0a.29.29 0 00.14 0 .13.13 0 01-.14 0c0 .09.16.06.15.14h-.12c.09 0 .19.08.14.15s-.06 0-.06 0 .26.19.17.32c-.22 0-.07 0-.25.06l.06.07h.09c0 .06.14.1.08.15h-.08v.1l.07-.07c.1 0 .23 0 .19.06s0 .05-.11.1c.07 0 .13 0 .09.09a1.75 1.75 0 00-.24 0c.16 0 .07.13.24.14a.76.76 0 00-.16 0h.13a.2.2 0 01-.13 0c0 .08.23-.07.14 0 0 .11.11.17.07.27s-.06-.07-.21 0c.06.12.28.21.27.34.26-.06-.11.12 0 .15h-.12c.03 0 .11.15.24.24h-.07v.2c0 .06.07 0 .16 0-.3.31.3.21.08.48h-.07l.12.09c.1-.07.05-.05.12-.12s.13 0 .15 0-.17.09-.21.14h.1c-.15.16.2-.1.12 0s.12 0 .13 0-.07 0-.17.05.27 0 .18.06-.06 0-.11 0-.06.11-.06.16v.12-.05c.32-.14.13.08.36 0-.22.07-.11.07-.23.15s0 .11-.08.13c.12 0 0 .12.15.05l-.07.11c.07 0 .05-.06.1-.1s0 .3.27.22.26-.11.38-.13a.25.25 0 01-.12.13c0 .09 0 .1.12.08s0 .07 0 .12.11-.14.13-.05a.65.65 0 01-.13.16l.22-.09a.24.24 0 01-.12.14.24.24 0 00.25-.14v-.06.14c0 .02-.07-.07-.05-.11h.05c.06-.27-.14 0-.21-.07l.12-.17-.14.12c0-.06.06-.16.11-.17s-.08 0 0-.08h-.07s.08-.12.08-.08c0-.13-.19.06-.11-.09-.12 0-.1.11-.28.18l.22-.31-.12.1v-.07c-.11 0 0 .05-.13.1.06-.13-.16-.07 0-.23-.11.06 0 .09-.14.1.19-.17-.07 0 0-.14s.09 0 .15-.1c-.19.11 0-.11-.07-.11h-.2c-.09 0 0-.16.05-.25-.16.08-.16 0-.22 0a.39.39 0 01.2-.06.15.15 0 01-.13 0h.13s-.2 0-.15-.14c-.12 0-.3.2-.41.16a.53.53 0 01.2-.07s-.06 0 0 0h.12c0-.06-.1 0-.1 0s.06 0 .13-.08a.27.27 0 01.11-.14h-.14c-.02 0 .1-.06.14-.11s0 0-.16 0 .06 0 .09-.07-.06-.12-.2 0c-.18-.05 0-.23-.09-.31h.05c-.07 0-.07-.12-.18-.14s.08-.06.13-.07-.1 0 0-.11.07 0 .08 0 .1-.1 0-.13c.13 0 .14-.08.1-.1l-.08.06a.1.1 0 010-.09h.16c.18-.15-.37-.15-.05-.3-.12 0-.07.08-.21.07 0-.06.24-.15.23-.17s-.25 0-.19-.12-.22 0-.28 0 .24-.1.29-.07a.08.08 0 00.11 0h-.06c.06 0 .05-.11.15-.1a.09.09 0 00-.13 0c.08-.08 0-.11 0-.19s-.1 0-.1 0-.12 0-.15-.12.22 0 .14-.06.15 0 .2 0c-.12-.06.08-.12.1-.15a.05.05 0 010-.05h-.12.07a1.89 1.89 0 01-.3 0c.06 0-.06-.09.1-.09-.06.08.16 0 .18.07.15-.07-.17 0-.17-.13s.17 0 .15 0h-.21c-.07 0 0-.06 0-.09-.09 0-.08 0-.1-.09s0 0 .07 0c-.15-.06.18-.08.08-.14h.21c.04 0 .13 0 .05-.12a.3.3 0 01-.2-.06l.07.12-.16-.1s.06.08 0 .1-.06 0-.16 0c.19 0-.08-.11 0-.15l.29.06c.15 0-.13-.17 0-.24h-.06c-.11 0 0-.06 0-.11a.38.38 0 00.2 0c-.07 0 0-.06-.16-.13h.14c.07 0-.24-.2-.17-.26s.16.07.21.14 0 0 0-.06-.08-.12 0-.09-.12-.08-.1-.11 0-.08-.14-.11c.31.1.09-.23.36-.11a.43.43 0 01.06-.17s-.16-.24 0-.22 0 .09.08.12c.22.25 0-.11.19 0 .09.08 0-.14.07-.15A.37.37 0 0141 123a.47.47 0 00.06.19s-.06-.19-.06-.3a.71.71 0 01.16.24h-.05c.08.17.06 0 .1 0v.08c.06 0 0-.23.11-.24 0-.21.06.09.09-.06v.19s.09-.21.15-.24c0 .14-.09.21-.12.32s.1 0 .11-.13 0 .07 0 0 .09-.23.16-.22c0 .38.18.1.21.4.12-.14.21.05.31.07 0-.3 0 0 .1-.29 0 0 .05 0 0 0v.2c0 .09-.05.05-.07.12s0 .13 0 .21c0-.1.07-.14.09-.09v-.15c.14-.12 0 .25.11.13l-.06.08c.05 0 .09.07.26-.11a.52.52 0 01-.08.11c0 .08.35-.1.28.09s.12-.07.08 0h-.06.11-.08c0 .13.26 0 .36 0a.53.53 0 00-.24.27c0 .11.26.08.37.17-.21.15 0 .27-.14.41a.35.35 0 01.2 0s.16.06 0 .08c-.19 0-.14.1-.14.14h.27c-.38.16.16.32-.18.4.06 0 .06.07.13.1h-.15a.26.26 0 000 .23h-.1s.4.1.41.16h-.21c0 .1-.21.17 0 .3h-.09s-.18.15.11.19c-.18 0 0 .1 0 .17h-.14c.17.09.22.1.25.18s-.11 0-.07 0 .11.07 0 .11h-.08l.12.11c.12.11-.07.09-.19.07.07 0 .16.08.12.11a.26.26 0 01-.09 0c-.11.06.12.18 0 .2a.15.15 0 00-.08 0c0-.07.05-.12.06-.11s-.16 0-.32-.09c.08.07.26.22.18.25h-.11s-.08 0-.1.06.1.08.22.09v-.08c.06.05.1.1 0 .1l.19.12a3.94 3.94 0 01-.44 0c0 .11 0 .21.19.37h-.13c-.04 0 0 0 0-.06s0 .15.11.24c-.11 0-.14-.11-.15 0-.34 0 .27.49-.17.44a.1.1 0 01.07 0c-.14 0-.17.15-.21.26a.26.26 0 01-.29.15c-.07 0 0 .09 0 .18l-.11-.11.06.17c0 .16-.31-.25-.28 0l.06.09s-.09.11-.12 0 0 .11 0 .06v-.08.15c-.08 0-.06-.31-.13-.31a1.45 1.45 0 00-.06.3V129.36c0 .23-.07.48.1.62l.09-.16.05.11h-.09c.06.1.09 0 .11-.07a.23.23 0 00.07.11 2 2 0 00.05-.24c0 .09 0 .19.09.22s-.1-.19 0-.27c.08.09.1.18.12.08a.14.14 0 010 .12c0-.07.11-.08.08-.21.1.1.12-.1.22.09a.4.4 0 010-.22c.08.27.15-.07.3.17-.08-.22.09-.22.08-.39v.06h.17c-.13-.15-.1-.24-.16-.35.19.09.14.19.29.3-.12-.11 0-.19-.15-.27a.5.5 0 01.21.1c-.18-.17 0-.07-.09-.19.13 0 .19.13.18 0s-.02.03-.02.03zm.47-1.76zm0-.13a.08.08 0 000 .05h-.09s.05-.03.13-.03zm-1-.07zM43.23 127.16z" class="cls-4"/><path d="M44.67 125.21h-.04l.03.02.01-.02zM40.11 128.23zM40.25 128.54v.06a.18.18 0 000-.06zM40.35 128.8zM39.16 124.87s-.02-.02 0 0zM39.51 126.09h-.07s-.01.01.07 0zM39.4 123.37h.01v-.01l-.01.01zM39.44 126v.06s.03-.06 0-.06zM41.32 129.63l.02.01v-.02l-.02.01zM41.34 129.62s.01-.02 0 0zM41.41 129.58s-.02.03 0 0zM41 129.39s0 .02 0 0zM40.85 129.33s0 .13.06.13c-.03.02.01-.18-.06-.13zM41 128.58v.08s.07-.11.1-.09c.05-.18-.1.09-.1.01zM40.88 128.35s.07 0 .09-.06-.06.01-.09.06zM40.2 126.81h.12s-.05-.02-.12 0zM39.47 126.62l-.07.05.12-.01-.05-.04zM40.34 126.25l.01.01-.05-.04.04.03zM40.63 123.7l-.13-.09s.16.14.13.09zM41.39 123.08c0 .07.06.12.06 0s-.06-.02-.06 0zM43.38 124.92l-.05-.02.04.04.01-.02z" class="cls-4"/></g><g class="cls-3"><path d="M296.13 129s.06.13.06.11l-.06-.16zM296.33 129.21a1.56 1.56 0 00-.13-.35c.05.15 0 .09.08.27l-.06-.1c-.06-.1 0 0 0 .07s.09.11.07 0a.42.42 0 01.04.11zM297.18 128.43zM296.69 127.63s0-.01 0 0zM296.56 127.38s.01-.01 0 0zM297.18 128.43c-.01-.03.01-.02 0 0zM296.32 128.77zM297.07 129.34a1.73 1.73 0 00-.07-.19.43.43 0 010 .1zM296.6 129.27zM297.39 128.54h.05zM296.56 129.92z" class="cls-4"/><path d="M296.26 129.23l.01-.01v-.08l-.01.09zM294.92 129.87c.12-.08.17 0 .29-.08-.05.02-.21.01-.29.08zM296.34 128.79zM295.21 129.79v-.01h.02l-.02.01zM295.26 127.8h.06zM295.87 127.53zM295.28 128.15s-.02 0 0 0zM295.18 128.4l.03.01-.01-.01h-.02zM296.49 129.36h.13c-.1 0-.14-.03-.13 0zM296.35 128.85a.21.21 0 010-.06zM296.27 128.65zM296.3 129.83s-.01-.03 0 0zM296.24 128.72h-.09z" class="cls-4"/><path d="M297 130.06v-.28.03l-.54-.54h-.07c.14 0 0 .06.19.09h.2s.12 0 0 0h-.27c.06 0 .2.07.14.09s-.05-.05-.2 0h.07-.27c-.05 0 .08.05 0 .08h.23c.16.07-.43 0-.2 0s.32.08.2.07l-.18-.05s.26.08.13.06h-.08c-.15 0 .11 0 .1.05l-.16-.06s.13.09.15.14l-.14-.09c.07.07 0 0-.12 0l.12.13-.08-.08.12.13-.1-.11c.1.11.18.3.06.15v-.05c-.05 0 .19.34.09.21-.05 0 0 .15-.14-.12.09.28-.05-.11.06.29-.07-.19-.09-.27-.13-.4s0 .27 0 .32v-.23.24-.27.23c0 .11 0-.16-.05-.27a1.21 1.21 0 010 .19.92.92 0 010-.18c0 .23 0-.25 0 0V129.93v-.16.06a2 2 0 01-.09.35l.06-.23c0 .14 0 .09-.07.26a3.4 3.4 0 01.09-.33v.07l.05-.18c0 .13.07-.23 0 0v-.07.07a1.72 1.72 0 01-.14.25 1.73 1.73 0 00.07-.19l-.14.2a1.08 1.08 0 01.14-.21l-.12.08-.09.1s0-.06.09-.11c-.18.1.29-.31.06-.14h-.13l.16-.08c-.2.07 0 0-.12 0l.16-.06s-.08 0 0-.07h-.14c-.12-.09.12-.21.2-.28s-.45-.06-.24-.08h.17c-.19-.1 0-.14-.13-.23h.08c.12 0 0 0-.07-.07h.13c.07 0-.14-.07 0 0h.05c-.06 0 0 0-.11-.07.07 0-.05-.06 0-.05-.14-.07.08 0-.12-.1.21.09.18 0 .09 0s.07 0 .15.07 0 0-.13-.09c.25.1-.15-.17.15 0a.44.44 0 01-.14-.24c.16.16 0 .05.17.2-.06-.07-.18-.23-.12-.21l.08.11v-.1.06-.07a2.54 2.54 0 01-.12-.37c.08.26.07.1.13.37v-.08-.03V128.26v.06s.06-.25.07-.15 0 .07-.08.25v-.14s.07-.11.05 0v.06-.07c.06-.07.12-.2.11-.14s0 0 0 .11.09-.09.07 0l-.16.19c.11-.11.06 0 .19-.12l-.12.11.1-.08-.1.1s.17-.17.12-.07c0 .06.11 0 .07.07s0 0-.17.11h.22c.23-.12-.1.09 0 .05h-.11s.08 0 .18.05h-.06c-.05 0 0 .06 0 .09a.68.68 0 00.15 0c-.35.17.24.08-.06.21h-.06.22a.21.21 0 01.13 0 .66.66 0 00-.25.05h.11c-.2.06.23 0 .1 0l.06-.11v.08s0-.07-.05-.17.06.25 0 .14a.21.21 0 010-.08c-.09-.14-.07-.1-.1-.12l-.06-.05c.11.33 0 .08 0 .31a.74.74 0 00-.1-.26.44.44 0 01-.08-.11c0 .12-.06-.07 0 .1l-.06-.11s0 .08.06.13-.16-.15-.12.09.05.25 0 .35a.67.67 0 01-.06-.17c-.05-.06-.06 0-.06 0a.45.45 0 00-.06-.12s.06.17 0 .12l-.06-.19v.19a.49.49 0 010-.18.32.32 0 000 .23.44.44 0 010-.13c0-.1 0 0 .06.08.13.26 0-.06.08-.06l.07.19v-.17a.6.6 0 01.08.19c.06.08 0-.08 0 0v-.06s.06.13 0 .11 0-.17.07 0c0-.09 0-.14-.09-.32l.18.33-.06-.14.05.06c.05.06 0 0-.06-.15.08.12 0-.09.15.13 0-.11-.06-.07-.07-.16.11.24 0-.05.08 0s0 .07.07.17c-.08-.22.07 0 .07 0v-.16c0-.07.08.06.13.09l.17-.31h-.2a.75.75 0 01.2 0h-.12.14s-.17 0-.09-.1a1.61 1.61 0 01-.44.1h.21s-.05 0 0 0h.17s.06-.06.13-.09a.35.35 0 01-.15 0s.11 0 .16-.08 0 0-.15 0l.1-.05c-.07 0-.05-.08-.19 0-.15 0 0-.14 0-.18-.07 0-.07-.06-.17 0l.12-.09s-.1 0 0 0 .06-.05.07 0 .08-.11-.06-.07c.12-.06.12-.11.07-.11l-.05.08.14-.1c.1-.21-.36.11-.17-.18-.09.07 0 .1-.13.18s.11-.25.1-.26-.2.15-.21.06a.62.62 0 01-.17.22.46.46 0 01.13-.27l.07-.09c0-.06-.05-.09 0-.17s-.06.08-.05.12-.09 0-.14-.13 0 .11 0 .1-.08.1-.14.11.06-.21 0-.15a.23.23 0 010-.2c-.09.1-.14-.09-.19-.11a.08.08 0 01-.07 0v.12s-.05 0-.05-.07v.31c0-.06-.07.07-.11-.08.1 0 0-.16 0-.19s0 0-.06 0 0 .19-.09.21-.08-.16-.09-.13.06.13.06.2 0 .07-.06.08V127.79c.05.15-.15-.1-.14 0-.05 0-.09-.14-.14-.16s-.13 0-.12.07.07 0 .12.17v-.13l.06.17v-.09s0 .07.09.14c-.14-.12 0 .12-.09 0l-.2-.21c-.15 0 0 .19-.08.2h.05c.09.09 0 0 0 .1a1.19 1.19 0 00-.17-.1c.06 0 0 0 .12.16h-.13c-.08 0 .2.2.15.23s-.16-.08-.21-.15 0 0 0 .06.09.11 0 .08.13.07.11.09a.47.47 0 00.15.08c-.3-.08 0 .14-.29.09a.35.35 0 010 .13s-.05 0 0 0 .26.11.15.13-.08-.05-.14-.05c-.32-.08 0 .07-.16.06-.12 0 .1.09.07.13a.5.5 0 01.24.17.58.58 0 00-.19 0s.2 0 .23.06a1 1 0 01-.27 0c-.18 0 0 0 0 .06h.07c0 .06.22.07.2.13h.06c.19 0-.11 0 0 0h-.2a1 1 0 01.23.11.94.94 0 01-.31-.1s0 .08.11.09-.06 0 0 0 .23.06.23.1c-.39 0-.1.1-.39.16.15.07 0 .14 0 .29.28-.11 0 0 .31-.05l-.15.14c-.08.05-.07 0-.14 0s-.11.07-.18.15c.1-.05.16 0 .13 0l.1-.3c.17 0-.21.18 0 .2h-.1c.07 0 .07.19.29.08 0 0-.09.09-.12.08 0 .14.31 0 .24.21h-.06s.12-.08.08 0-.06.05 0 .06.11-.06.1 0l-.07.05c0 .17.22-.05.29-.05a.44.44 0 00-.08.38c.08.1.24 0 .34-.09 0 .26.16.19.24.34a.38.38 0 010-.19c0 .05.08-.14.06.06 0 .21.06.16.1.17v-.27c.11.39.23-.16.32.17 0-.07 0-.08.05-.16v.15a.15.15 0 00.17-.06v.11c.05 0-.08-.43-.05-.46l.08.2c.06-.05.22.07.18-.16 0 0 .05.08 0 .1s.2 0 0-.23c.11.17.07-.05 0-.15l.08.12a1 1 0 01-.13-.3s.08.08.05.07-.08-.13 0-.11l.05.08s0-.06-.07-.15.05 0 .16 0c-.06-.06-.13-.15-.1-.14a.22.22 0 01.07.07c.11 0-.09-.19 0-.15h.07c0 .05 0 .08-.05.07s.14.05.27.2c-.06-.11-.21-.28-.14-.29h.05c.09 0 .07 0 .08-.06s-.1-.08-.21-.1v.06c-.06-.05-.11-.1 0-.08l-.2-.13a3.29 3.29 0 00.42.07c-.06-.1 0-.21-.27-.29h.18c.06 0 0-.1-.2-.13h.2c.3-.09-.41-.19-.11-.28l-.29-.3.29.3-.28-.29h.02-.09c-.05 0-.11 0-.17-.09s0 .06-.06.15v-.15.17c0 .13-.08-.37-.14-.13v.11s-.07 0-.07-.06 0 .1 0 0v.22l-.06.14c0-.06 0-.32-.05-.33a.82.82 0 00-.05.28.46.46 0 010 .13 2.09 2.09 0 000 .63v-.14.06a.35.35 0 000 .12v-.22a1.48 1.48 0 000 .23v-.27.1a.55.55 0 010 .13c0-.07 0 0 .05-.16 0 .13.06 0 .06.19a.39.39 0 01.05-.18c0 .26.06 0 .05.3 0-.24.08-.11.12-.24 0 0 0 .06 0 0v.14a1.4 1.4 0 01.05-.36 1.86 1.86 0 010 .41v-.29a1.06 1.06 0 010 .22v-.19.15a.38.38 0 01.31.21zm-.32-.35zm0 0l.08.06zm.91.37zM297.4 130z" class="cls-4"/><path d="M296.3 129.72l.01.05-.01-.04v-.01zM296.78 128.9zM296.85 128.67zM296.72 128.66v.05zM296.46 128.12s-.05.06 0 0zM296.28 128.65h-.01.01zM296.4 128.16s.01-.02 0 0zM296.22 128.81l-.01-.01.01.02v-.01zM296.22 128.82s.01.02 0 0zM296.22 128.88s-.01-.04 0 0zM296.39 128.8v-.05zM296.43 128.77s-.07-.09-.07-.05c-.01-.04.09.13.07.05zM296.86 129.27h-.05s.07.11.05.13-.05-.13 0-.13zM297 129.29v0zM297.13 128.1l.11-.06s-.04.02-.11.06zM296.49 128.33l-.06.05.1-.06-.04.01zM297.1 127.65l.02-.01h-.06l.04.01zM295.08 128.31l.15.05s-.23-.09-.15-.05zM295.08 129.11h-.05c.08 0 .07.01.05 0zM296.27 131.31l-.02.06.04-.05-.02-.01z" class="cls-4"/></g><g class="cls-3"><path d="M48.42 10.5v-.07a.24.24 0 000 .07zM46.4 17.79v-.09s-.02.09 0 .09zM45.78 18.93v-.06a.07.07 0 000 .06zM48.42 10.5l-.08.19s.05-.09.08-.19zM48.77 7.18v-.06a.15.15 0 00-.06 0zM48.93 4.64c0 .06.14.09.19.11a.22.22 0 01-.12-.13.2.2 0 00-.07.02zM49 .6V.53zM48.51 9a.08.08 0 00-.06 0zM44.74 21.05c.02-.05 0-.05 0 0zM32.06 38.12c.27 0-.22.37.16.26-.06-.03.13-.38-.16-.26zM42.42 25.93h.08zM44.45 22.43l-.06.08a.21.21 0 00.06-.08zM41.52 27.83s-.07.05-.09.12.04-.08.09-.12zM40.32 29.66l.04-.02.04-.06-.08.08zM3.31 46.15a.37.37 0 01-.09-.15c.02.11-.31.12.09.15zM42.41 28.5l-.21.29c.06-.08.14-.18.21-.29zM19.23 45.45h-.07s.06.02.07 0zM41.65 29.69a.86.86 0 00-.19.11.13.13 0 000 .06z" class="cls-4"/><path d="M49.7 3.28s0-.21.13-.17c0-.25-.09.07-.15 0-.16-.38.16-.93-.09-1.48s-.31-.56-.45-1c.06-.16.19.1.19.1a1.19 1.19 0 00-.08-.65s.07 0 .12-.1h-.27l.13.18c0 .08-.15.15-.2 0-.07.25.1.19 0 .41l.09.22c-.05 0-.14.05-.13-.09-.07.41.24.63.09.79.1.55.16 0 .36.45l-.36.3h.16c0 .06 0 .17-.07.15.11.21.06 0 .17.08-.12.29.08.77-.16.84.11.09.09-.27.17 0-.26.08 0 .34-.08.59-.14-.08-.06-.32-.19-.06.23.15 0 .49 0 .7.19 0 0 .47.09.83a6.14 6.14 0 00-.23 1c.18.08.11.42.12.67-.11 0-.15-.07-.18-.21v.23a.44.44 0 01.08.29l-.13-.07a3.34 3.34 0 010 1c.12 0 .39-.27.43.17-.08 0-.19 0-.21-.11a.3.3 0 010 .21l-.09-.19c-.07.18.09.11.06.25s-.09.1-.17.07.07-.12 0-.18a.79.79 0 01-.21.4c.05 0 .13 0 .12.14-.05.31-.14.09-.22.26s0 .27.1.3-.09.1-.13.13-.11.75.08.59c.07.56-.31 1.07-.35 1.6h-.05a5.28 5.28 0 00-.06.93c0 .1-.13.2-.18.15a1 1 0 01-.15.59c0-.25-.09.06 0-.25-.12.29-.21.34-.17.7-.09-.15-.21.18-.21.33l.14-.18a2 2 0 01-.12.44l-.14-.12c-.35.56 0 1.2-.46 1.57.06.2.19-.31.27-.12-.11.27-.43.49-.46.58-.21.35.12.43-.07.81.08 0 .24 0 .2.29s-.36.26-.34.07.05-.09.06-.08 0-.23-.07-.14v.06c-.11.12-.24.5-.3.37 0 .23.06.13.14 0-.21.33-.2.55-.39.9 0-.05.13-.08.11 0-.26.51 0 .27-.09.65-.16.17-.17-.16-.24.24-.14.2-.16 0-.17-.12 0 .38-.32.58-.42.76v-.19a1 1 0 01-.09.28h.15c-.06.09-.1.18-.14.15 0 .14.22 0 .23.25s-.12.43-.28.42c.23-.4-.17 0 0-.38a.73.73 0 01-.11.25v-.06c-.3.34.08.25-.1.67-.06-.09-.19 0-.2.1.07-.16.17 0 .16.17-.18.24-.07.31-.15.44l.11-.14c0 .09 0 .22-.09.41-.07 0 0-.19 0-.13 0 .27-.37.39-.41.71-.12.11-.16-.06-.25 0 0 .37-.28.29-.35.66.15 0 .13-.07.12.22l.19-.59V24c.08-.16.1-.38.17-.47 0 .21 0 .18.11.14-.27.15-.13.5-.36.71l-.26-.14c-.3.33-.23.75-.57 1.21l.13-.13c.07.12-.15.31-.2.5-.08-.07-.17 0-.26.05.07 0-.21.36-.06.5l-.24.16c-.26.37 0 .6-.28.95 0-.16-.19 0-.1-.32-.08.12-.16.22-.11.26s-.1.42-.25.48.08.15 0 .28-.08.25.09.19c-.51.21-.66 1.09-1.13 1.25-.16.28-.36.61-.53.85v-.07c-.31.27.08.37-.27.68-.27.1.07-.25-.06-.16-.3-.15-.28.48-.63.6v-.07c-.24.11-.27.51-.54.79a3.17 3.17 0 01-.52 1c0-.17 0-.17-.09-.2-.09.14.19.1 0 .38-.12 0-.31.18-.44.11l.19-.24c-.23 0-.25.31-.39.4l-.26-.03c-.31.36-.17.5-.53.86h.08c-.06.34-.25.1-.34.4l-.2-.08a6 6 0 01-.52.87 4.72 4.72 0 01.35-.81c-.12.14-.42.46-.41.6 0-.06.06-.17.14-.2a1.3 1.3 0 01-.49.78c-.21-.32-.78.57-1.17.53a3.24 3.24 0 01-.71.67 8.36 8.36 0 00-.87.59c.39.07-.17.14.06.35-.13.13-.19.16-.21.16l-.53.18c-.16 0 .09-.16 0-.2-.31.21-.2 0-.45.08.11.05 0 .21-.21.3l.33-.07c-.33.46-.51.08-.87.5l.09-.17c-.2.2-.85.55-.95.9-.06 0-.16 0-.07-.12-.57.33-1.09 1-1.63 1.12v-.09c-.09.08-.12.22-.29.23v-.07a1 1 0 01-.39.31l.08-.14c-.61.22-.78.65-1.24 1-.09-.2-.59-.07-.83 0a11.09 11.09 0 00-1.7 1 17.54 17.54 0 00-2.12.47c.12 0 0 .17-.07.23s-.39.28-.42.08H21c-.18-.16-.48 0-.73.07v.27c-.76-.22-1.71.54-2.15.29-.15.1-.35.14-.5.25v-.15c-.45.08-.68.09-1.23.2l.09-.11c-.31 0-.33.45-.62.5l-.11-.24a4.85 4.85 0 00-1.65.24.12.12 0 01.1-.12c-.26 0-1-.05-.9.23 0-.19-.57 0-.87.11v-.14a1 1 0 01-.6.31c-.09 0-.08-.11 0-.08-.28-.05-.21.15-.55.09l.12-.09c-.29 0-.26 0-.42.16s-.55 0-.59-.13a.36.36 0 01-.37.15c0-.05 0-.08.07-.09-.48-.11-.72.14-1.05 0a.1.1 0 00-.06-.08 4.69 4.69 0 01.67 0c0-.13-.31-.16-.07-.33a2 2 0 01-1 .22.1.1 0 010-.05.4.4 0 00-.19 0 .79.79 0 00-.25-.05c0-.11-.35-.07-.5-.08 0 .15-.2.12 0 .24H8.21a.42.42 0 01-.42 0l-.23.22c-.2-.2-.61-.32-.65-.44-.48.09-1.11 0-1.43.2-.14 0-.15-.09-.2-.13s.18 0 .22 0c-.27 0-.79-.06-.88.12-.33-.12.21-.15-.26-.17l.07-.05c-.87-.41-1.54.35-2.5-.21.07 0 .1.05.11.08A13.44 13.44 0 000 44.74v.77c.19.15.17.09.25.27.08-.24.19 0 .39-.13.28.17 0 .24.38.23.14.1-.17.13-.17.13.34.07.19-.15.28-.24.4 0 .16.17.28.28s.47-.13.65-.09c0 0 .05 0 0 .08.28-.09.78.1 1.11 0a.48.48 0 010-.26c.15 0 .3-.08.34 0s-.11 0-.16.07h.17c.12.19-.22 0-.24.17a3.35 3.35 0 01.92-.06c0 .18-.56 0-.26.19L3.61 46c.25.3-.22 0 0 .27.48.1.55 0 1 .07.12-.08 0-.14.1-.22.69-.1.5.48 1 .31.14-.1.2-.31.55-.16l-.14.18c.47.07.29-.25.77-.1-.09.07-.37 0-.31.07.31.16.24-.1.48-.09v.17c.5 0 1-.12 1.6-.14 0 .05-.13.1 0 .16a12.92 12.92 0 012.16.13l.25-.16c.06 0 .12.06 0 .09.27 0 0-.09.14-.16s.2.08.1.13a3.92 3.92 0 011.8-.21h-.09c.38 0 .4-.33.76-.21h-.07a11.1 11.1 0 012.36-.17c.08-.23.82 0 .82-.32a2.45 2.45 0 001 .09c.18 0 .22-.24.43-.32v.15l.25-.22.2.14.19-.08c-.09 0-.19 0-.19-.08a1 1 0 01.82 0l.7-.3c0 .07-.11.11-.2.17.35-.24.11.15.43-.09v-.13a1.81 1.81 0 00.89-.23v.12c.54-.15 1.11-.42 1.72-.61-.24 0-.25-.17-.08-.24l.13.13c.08-.13-.21 0 0-.19s.22.13.11.22c.08-.05.17-.09.25-.15s0 .09 0 .15c.08-.14.52 0 .61-.27.58-.25.82-.41 1.3-.62-.05-.14.15-.19.24-.35a4.55 4.55 0 001.19-.41c.25-.22 0-.15.12-.29.08.1.47-.13.31.07a11 11 0 001.16-.77c-.09 0-.18 0-.16-.05s.28-.09.29 0c.58-.53 1.71-.64 2.09-1.19l.46-.46c.26-.14-.09.17.14.12.45-.56.89-.63 1.26-1.09.58 0 1.24-1 1.82-1.19h-.08c0-.17.17-.09.26-.15s-.17.05-.13 0a12 12 0 011.51-1.31c.51-.44 1-.89 1.53-1.34s-.15-.51.43-.82v.24c.5-.87 1.31-1.54 1.79-2.39v.17c.23-.08.46-.6.38-.66.1-.11.09 0 .19 0s.18-.5.34-.52 0 .07 0 .11c0-.15.38-.5.19-.48.26-.25.35-.59.59-.78 0-.24.4-.48.24-.65.18.15.5-.43.53-.68 0 .1.17-.13.2 0 .14-.23.23-.45.11-.47.49-.26.32-.93.74-1 .27-.73.55-1.39.84-2 .19.13-.35.68-.13.77a10.2 10.2 0 01.57-1.61c.1-.14 0 .13.06.2.2-.64.58-1.14.72-1.72v.14c0-.11.14-.23 0-.26v.11c-.2.11-.1-.54-.17-.59.2.29.3-.5.52-.07 0-.08 0-.18-.07-.2s.11-.11.14 0c.11-.41-.05-.31.1-.66 0 0 0 .1.07.16a1.06 1.06 0 01.14-.7s.07 0 0 .1c.21-.5.1-1 .39-1.48.15.24.14-.16.33-.13l.06-.32-.13.09c.1-.26 0-.54.19-.74v.22l.15-.5-.17.25c0-.3-.23 0-.06-.38 0 .08.09-.26.24-.37a.74.74 0 01.07-.49c.08 0 .19.11.23.09-.1-.18.16-.64 0-.85a.15.15 0 00.14.08l.1-.08c.08-.12.11-.13.17-.09.14-.36-.26.05 0-.36v.11c.19-.43.15-.89.33-1.28.21-.08-.05.37.14.27.11-.61.12-1.28.28-1.86v.11c-.24-.14.22-.41.16-.73 0 .08.13.13.1.1a6.13 6.13 0 00.16-1.45v.09c.1-.23.14-.62.22-.87-.06-.09 0-.23-.14-.16.53-.73 0-1.53.44-2.2v.14-.6c-.12 0-.08.07-.19.18a.62.62 0 01-.07-.4c0 .27.18 0 .26-.1s-.07 0-.11 0c.24-.29-.21-.07 0-.49h.06a1.61 1.61 0 01-.06-.49c.14-.06 0 .18.16.2 0-.25-.22-.5-.07-.71 0 .1 0 .25.05.36a.72.72 0 00.17-.44l.1-.42v.11c-.32-.32 0-.63-.26-1 .21.4.12.06.27.1 0-.11.09-.27.14-.22-.17-.21.04-.34-.13-.62z" class="cls-4"/><path d="M9.4 46.34h-.28s0-.1.07-.1.12.06.21.1zM8 45.33h.15H8zM7.85 45.51h.06zM48.46 10.41zM18.52 45.69v-.04l-.05.05.05-.01zM49.44 6.9zM49.59 5.34l.06-.22a1.5 1.5 0 00-.06.22zM49.7 4.13a.07.07 0 00-.06 0zM45.34 22.75a.09.09 0 000 .05c-.04.11-.01.03 0-.05zM47.12 17.31v.2c.05-.1.07-.17 0-.2zM42.43 28.47v-.01l-.02.04.02-.03zM47 17.76a.54.54 0 00.09-.25.68.68 0 00-.09.25zM49.51.47zM49.59 1a1.43 1.43 0 000-.47c.06.02-.1.33 0 .47zM49.1 3v-.41c0 .08-.12.17-.14 0-.12.52.14-.1.14.41zM49 4.26c0-.22-.08 0-.11 0s.11.16.11 0zM47.77 13.14l-.12-.05c-.03.16.05.01.12.05zM47.96 14.98l.12-.14-.09-.1-.03.24zM46.8 15.71l.01-.08-.04.28.03-.2zM40.44 29.27l.16.05c.05-.1-.09-.22-.16-.05zM36.48 34.41a.33.33 0 00-.29.23c.11-.09.26-.16.29-.23zM19.93 44.07l.11-.08-.23.1.12-.02z" class="cls-4"/></g><g class="cls-3"><path d="M82.16.05c0-.11-.13 0-.14.25l.14.22zM81.68 2.05c0 .36.15.78.32.57-.12-.37 0-.45-.2-.84 0-.3.09-.52.15-.47 0-.11.08-.46 0-.63a2.86 2.86 0 00-.15 1.4c-.06.11-.09 0-.12-.03zM74.94 30.54l.1-.17zM64.57 45.38c.08-.11.11-.16.1-.18s-.14.19-.1.18zM62.33 47.55l.14-.13a.45.45 0 00-.14.13zM74.94 30.54l-.25.41c.03.05.14-.2.25-.41zM81.67 6.14a1.15 1.15 0 000-.27v.25zM77.66 23v-.28zM79.15 17.05c0 .14.1.21.15.28a.66.66 0 010-.32s-.1-.01-.15.04zM81 7.45zM76.21 27.16a.09.09 0 00-.07 0s.04.02.07 0zM16 155.85s0 .04 0 0zM11.09 161.13l.06-.08a.16.16 0 000-.07zM58.25 51.5c.11-.13.06-.07 0 0zM31.32 93.73c.11-.6.17 1 .3.07-.06.08-.23-.8-.3-.07zM81.64 6.3v.25a1.61 1.61 0 000-.25zM31.62 93.8zM48.63 60.37a.27.27 0 00.14 0s-.05-.04-.14 0zM56.05 54l-.19.16zM44.84 63.77a1.68 1.68 0 00-.28.23.82.82 0 01.28-.23zM40.86 67.3h.09a1.36 1.36 0 00.12-.12zM23.57 141.52a.85.85 0 01-.21.19c.12-.04-.13.7.21-.19zM81.59 6.13v.17-.18s.02-.02 0 .01zM45.39 64.76l-.65.53zM22.45 123l-.19-.08a.6.6 0 00.19.08zM42.89 66.93a2.5 2.5 0 00-.41.25.41.41 0 000 .09z" class="cls-4"/><path d="M21.41 147c.36-.72 0-.41 0-.61.35-.9.31-.35.53-.61.21-.57.26-1 .44-1.46 0 0 .08-.1.08 0 .11-.64.74-1.74.83-2.5l.08-.07c-.13.07-.23.06-.28 0 .13-.34.14-.66.3-.75a.62.62 0 00-.05.35l.09-.37c.29-.25-.13.5 0 .55.23-.7.37-1.57.61-2.08.2 0-.39 1.26 0 .61l-.36.8c.49-.54-.2.49.28 0 .44-1.07.38-1.24.79-2.31 0-.28-.16 0-.17-.24.35-1.6.81-1.1.94-2.32a1.84 1.84 0 01.15-1.3l.11.34c.31-1.08-.1-.69.32-1.79 0 .22-.16.87-.1.71.34-.7 0-.55.18-1.11l.19-.07c.26-1.16.45-2.46.69-3.75 0 .08 0 .31.15 0 .26-1.65.67-3.5.86-5.13l-.12-.63c0-.15.07-.27.1-.11.08-.64-.09 0-.14-.34s.07-.49.12-.26a18 18 0 00-1-4.37l.13.21a1.79 1.79 0 00-.6-.85 2.07 2.07 0 01-.29-.3 2.22 2.22 0 01-.38-.41l.15.11a7.8 7.8 0 00-.58-.57l-.69-.43a3 3 0 00-.74-.32l-.38-.12c-.13 0-.3-.17-.49-.09a6.82 6.82 0 00-2.7 1.07c-.06.17-.47.53-.78 1s-.45 1-.3 1.09a2.33 2.33 0 00-.13.72 1.27 1.27 0 000 .48 1.67 1.67 0 00.14.57l.18.41.33.49c.32.36.62.4 1.06.7l-.09.13c.23.11.46.22.69.31l.23.37.47.23c-.18-.1-.34-.28-.3-.3a17.62 17.62 0 011.75 1 5.72 5.72 0 002 .14 1.57 1.57 0 01-.65.11c1.08-.14.2.21 1.2 0-.14 0 .06-.1.07-.14a4.06 4.06 0 002.23-.88l-.07.17a8.5 8.5 0 003-3.53c-.31.48-.41.27-.22-.14l.23-.09c0-.31-.26.41-.12-.2s.33-.29.24 0c.09-.23.15-.46.22-.69.07 0 0 .15.07.21 0-.3.56-1.13.48-1.59h.06a18.13 18.13 0 00.38-3.49c-.14 0-.09-.52-.2-.89.06-.9.15-1.9.13-3-.08-.76-.12-.22-.21-.56.13-.06.1-1.13.2-.57 0-1.29 0-1.65-.17-3.28-.05.17-.07.37-.12.27 0-.3.05-.68.11-.63v.07c-.22-1.83.32-4.23 0-5.69v.09l-.15-1.52c0-.69.1.42.17-.1-.23-1.63 0-2.58-.16-3.92.36-1-.08-3.69.2-5.08l-.09.08c-.08-.36.06-.43.09-.7-.07 0-.09.39-.13.17a26.43 26.43 0 011.57-9.12c.4-1-.23-.77.52-2v.43A22.65 22.65 0 0138 71.74c-.06.12 0 .16-.16.32a4.43 4.43 0 001.06-1.4c.25-.25.12 0 .3-.12.37-.31.7-1 1-1.08 0 0-.06.12-.11.19.17-.27 1-1 .71-.91.65-.54 1.12-1.17 1.68-1.56.21-.42 1.13-.91 1.09-1.17.1.2 1.24-.84 1.59-1.27-.1.17.4-.25.3 0 .47-.4.87-.79.72-.81 1-.52 1.62-1.62 2.33-1.77 1.35-1.26 2.59-2.42 3.79-3.56.11.22-1.36 1.22-1.15 1.35 1.13-1.09 1.68-1.83 2.87-2.84.32-.25-.11.23-.18.35 1.1-1.12 2.25-2 3.17-3.09 0 0-.08.14-.17.25.2-.19.49-.42.39-.47l-.17.2c-.42.2.57-1 .55-1.07-.13.54 1-.9.77-.12.11-.14.24-.34.16-.36.21-.17.3-.2.16.05.66-.74.33-.57 1-1.2 0 0-.08.18-.1.29a5.62 5.62 0 011.06-1.29s.08 0-.08.18c.89-.94 1.35-1.76 2.39-2.73-.13.45.38-.31.56-.24l.48-.6-.27.17c.45-.49.75-1 1.18-1.41l-.28.42.81-1-.52.49c.38-.57-.23-.11.4-.74-.1.15.45-.5.76-.69a3.91 3.91 0 01.7-.94c.13-.06.09.22.17.18.1-.35 1-1.23 1.11-1.66-.06.13 0 .2.06.18l.07-.3c.22-.21.27-.24.3-.15.6-.71-.37.09.4-.72a1.47 1.47 0 01-.11.21c.74-.84 1.25-1.75 1.9-2.54.33-.14-.49.75-.16.56.84-1.22 1.57-2.63 2.35-3.82l-.16.21c-.12-.3.67-.83.92-1.53-.07.16 0 .28 0 .22a22.09 22.09 0 001.49-3.15v.19c.29-.5.7-1.35 1-1.92 0-.19.16-.52 0-.36 1.13-1.61 1.14-3.47 2-5-.07.2-.1.48 0 .33.14-.47.27-.93.38-1.41-.15.08-.12.17-.3.43a3.22 3.22 0 01.16-.94c-.11.64.18 0 .32-.21-.05 0-.06-.07-.1-.05.4-.67-.18-.18.22-1.14l.05.07a6.76 6.76 0 01.2-1.15c.17-.13 0 .41.05.47a8.32 8.32 0 01.29-1.66c0 .25-.09.6-.12.84a3.12 3.12 0 00.38-1l.29-.95-.1.24c-.17-.79.25-1.47.22-2.48 0 1 .09.18.23.28.09-.24.21-.61.23-.49 0-.48.23-.75.17-1.43.06 0 .1-.49.2-.37.07-.6-.11.13-.16.07 0-.95.56-2.14.51-3.51C81.13 9 81 8.77 81 7.7c.12-.35.14.31.14.31a6.52 6.52 0 00.19-1.56c0 .11.08 0 .15-.16 0-.44-.14-.31 0-.88a1.63 1.63 0 01.15.46V4.28c.1-.13.1.34.13.53a6.84 6.84 0 000-1.76l-.09.38c0-.22.13-.1.14.06 0 .53-.12.74-.17.77v-.39c-.32.36-.11 1.54-.21 2.31l-.17-.35.08.81c-.07.16-.2.26-.18-.12-.17.54 0 .49-.16 1V8c0-.11-.15.07-.08-.25-.23.95 0 1.57-.25 1.91v-.09c-.11 1.34.13.15.17 1.17l-.47.62.13.16c0 .13-.08.4-.13.34 0 .53.07-.08.13.24-.24.64-.24 1.83-.51 1.93.08.26.2-.61.16.11-.3.15-.09.82-.33 1.39-.1-.21.08-.76-.15-.18.15.4-.29 1.15-.35 1.66.19.06-.16 1.11-.3 2 0-.06-.49 1.55-.75 2.31.15.2-.13 1-.26 1.57-.1-.05-.11-.17-.06-.49l-.16.54a1.85 1.85 0 01-.09.68l-.09-.18a15.36 15.36 0 01-.71 2.38c.1.1.6-.61.33.39-.08 0-.2 0-.14-.26a1.59 1.59 0 01-.14.47V26c-.2.4 0 .25-.12.58-.09 0-.16.22-.22.14a1.75 1.75 0 00.16-.41 4.79 4.79 0 01-.5.92c.06 0 .12 0 0 .32-.27.7-.2.2-.42.58 0 .2-.26.61-.12.68a.63.63 0 01-.24.28c-.07.39-.73 1.66-.4 1.33v-.09.06a26.64 26.64 0 01-1.8 3.48c-.32.68-.82 1.47-1 2-.12.19-.35.4-.35.29a5.42 5.42 0 01-.81 1.23c.26-.53-.17.13.28-.53a6.23 6.23 0 00-1 1.44c0-.3-.46.37-.64.67l.38-.37c-.22.34-.43.61-.65.89v-.25c-1.11 1-1.5 2.3-2.5 2.99-.17.39.59-.59.46-.23a12.17 12.17 0 01-1.26 1.11c-.7.68-.4.85-1.12 1.57.13-.06.33 0-.13.56s-.77.49-.5.12c.11-.13.17-.18.18-.16.14-.18.32-.42.09-.26v.11c-.28.22-.93 1-.85.72-.31.43-.08.23.21 0-.67.62-.95 1.05-1.63 1.69.12-.08.27-.14.17 0-1 1-.33.52-1 1.22-.43.32 0-.29-.61.44-.44.37-.2 0-.08-.22a9 9 0 01-1.51 1.43l.28-.36c-.17.21-.33.37-.48.53l.26-.1c-.2.17-.35.33-.39.29-.13.25.29 0 0 .45-.3.21-.72.81-.91.78.82-.74-.2 0 .44-.71a3.45 3.45 0 01-.47.47v-.11c-.85.65-.22.47-1 1.24 0-.16-.3 0-.41.19.32-.3.25 0 0 .29a6.68 6.68 0 00-.79.81l.33-.26a3.14 3.14 0 01-.64.75c-.08 0 .29-.34.14-.24-.29.49-1 .73-1.49 1.32-.3.19-.14-.1-.4.08-.55.66-.76.52-1.36 1.19.27-.08.29-.13-.1.37l1-1L53 57c.33-.3.64-.68.85-.85-.26.38-.25.33 0 .26-.57.27-.82.88-1.43 1.26l-.18-.24c-.87.6-1.3 1.35-2.39 2.19l.36-.25c-.06.21-.63.56-.94.88 0-.1-.27 0-.45.13.06 0-.78.63-.75.86l-.55.29c-.89.67-.8 1-1.64 1.68.18-.29-.24 0 .26-.55-.27.23-.53.42-.49.48-.2.08-.68.73-1 .87a1.21 1.21 0 01-.37.5s-.43.46-.09.31c-1 .48-2.29 2.05-3.17 2.51-.54.57-1.19 1.25-1.67 1.77l.07-.12c-.75.64-.21.63-1 1.38-.5.32.33-.49 0-.27-.36-.11-.85 1-1.47 1.52l.1-.16a13.43 13.43 0 00-1.31 2c-.23.62-.82 1.69-1.18 2.51 0-.3.13-.39-.06-.3-.17.37.23 0-.1.73-.19.19-.48.7-.63.72.1-.24.19-.47.31-.7-.35.27-.39.91-.59 1.27v-.08c-.42 1.11-.23 1.19-.61 2.39l.09-.11c0 .72-.26.53-.28 1.23l-.24.16c-.06.45-.13 1.6-.2 2.4a11.57 11.57 0 010-2 7.07 7.07 0 00-.2 1.76 2.82 2.82 0 01.05-.59 10.29 10.29 0 01-.1 2.01c-.38-.2-.29 2.3-.59 2.94.09 1.58-.11 3.13-.06 5 .29-.65 0 .54.32.42a2.61 2.61 0 010 .63l-.17 1.29c-.08.3-.07-.41-.14-.37 0 .93-.12.4-.2 1 .11-.13.17.33.13.86l.13-.75c.18 1.3-.24 1.13-.06 2.43l-.1-.41a16.52 16.52 0 00.28 3.14c0 .12-.12.28-.14 0 0 1.61.3 3.58.17 4.83l-.08-.12a2.56 2.56 0 01.08.9s-.08-.12-.08 0a5.25 5.25 0 01.1 1.19l-.09-.33a28.94 28.94 0 00.31 3.72c-.22 0-.29 1.22-.34 1.82a23.52 23.52 0 01-.4 4.62c-.26.44-.58 1.22-1.06 2a6.16 6.16 0 01-1.76 1.94c.21-.12.08.16-.13.34s-.8.65-.84.44h.12c-.34 0-.93.27-1.48.3l-.07.27a10.45 10.45 0 01-2.56-.67 3.86 3.86 0 01-1.79-1.27 5.15 5.15 0 01-.86-.74l.12-.07a2 2 0 01-.32-1 1.88 1.88 0 01.35-1.11.66.66 0 000 .24c.31-.47.16-.9.69-1.31l.28.07a4.34 4.34 0 01.82-.38c.14 0 .29-.07.43-.11h.32a3.06 3.06 0 00.32.13l.43.14c.28.09.51.26.8.37h-.27a4.12 4.12 0 01.91.82c.25.36.47.64.54.48-.11.07.55 1.13.75 1.82l-.16-.07a2.81 2.81 0 01.5 1.37c0 .2-.09.18-.09-.08 0 .66.16.5.13 1.31l-.1-.3a2.83 2.83 0 00.13 1 2.67 2.67 0 01-.26 1.4 1.37 1.37 0 010 .89c-.06 0-.07-.1-.07-.18a24.85 24.85 0 01-.37 2.49c-.05 0-.08.06-.11.12.17-.9.28-1.49.3-1.57s-.28.71-.35.1a9.16 9.16 0 01-.19 2.34l-.06.09V129a1.94 1.94 0 00-.08.45c-.07.22-.12.36-.17.58a4.79 4.79 0 00-.34 1.18c.14 0 0 .47.23.06v-.32a1 1 0 000-.16c.05-.24.12-.55.2-.9a2.15 2.15 0 01-.18 1 4 4 0 01.1.56c-.31.45-.65 1.38-.8 1.48a21.17 21.17 0 00-.61 3.35c-.06.32-.18.33-.25.44a5.08 5.08 0 00.08-.51c-.1.64-.56 1.83-.43 2-.33.74 0-.49-.34.58v-.16c-1 2-.8 3.53-2.13 5.63.09-.15.13-.22.18-.24-1.27 2.47-2.36 5.25-4 7.47a3.46 3.46 0 00-.57 1.31l-.22.06-.29.78c-.53 1.05-1.42 1.46-2.06 2.8l.19-.1c-.33.41-.94 1.38-1 1.24a.51.51 0 01-.19.33h-.07l-.69 1.1c-.67.75-.13-.31-1.08.81-.32.43-.81 1.33-.64 1.21s.4-.4.47-.36l-.29.41c.12.22 0 .67 1-.17l.44-.75.26-.15-.45.57a1.74 1.74 0 00.57-.78.78.78 0 00.32-.21l.34-.8c.14 0-.09.41.3 0 .16-.38-.39.17 0-.39.33-.26.32-.11.54-.56.09 0 .06.09 0 .26a8.1 8.1 0 00.69-1.18c.36-.27.8-1.21 1-1a6.51 6.51 0 01.5-1.05c-.18.75.82-1.23.95-.92.1-.57.94-1.69 1.3-2.58a.53.53 0 01-.08.23 6.47 6.47 0 01.63-.82c-.14-.16.24-.9.34-1.35.47-.48 0 .46.27.37-.16-.05.39-1.08.17-.95.34-.38.26-.35.52-.5-.18-.19.17-.44.22-.87.43-.59.29-.07.58-.81.11-.39-.13.33-.13.33zM27 129c0 .16-.06.29-.07.38.01-.09.07-.2.07-.38zm.3-1.56c0 .19-.08.43-.12.68-.06 0-.1 0-.07-.18.01.06.1-.28.18-.51zm-1.63 3c0-.24.09-.31.12-.34l-.08.42a.27.27 0 01-.05-.04z" class="cls-4"/><path d="M25.74 131v.1l.06-.13v-.1zM75.06 30.35v-.05c0-.05.01.03 0 .05zM20.85 122.07l.02-.03-.13-.07.11.1zM78.51 22.39a.47.47 0 00.06-.1l-.06.1zM79.48 18.76l.17-.5c-.08.22-.13.38-.17.5zM80.16 16a.16.16 0 000-.06zM56.84 54.58l-.07.08c-.18.2-.05.07.07-.08zM66.05 44.51c-.08.12-.15.25-.24.37.19-.18.29-.32.24-.37zM45.46 64.7l-.07.06.07-.06zM65.39 45.35a2.91 2.91 0 00.42-.47 3.72 3.72 0 00-.42.47zM82 3.58v-.14zM82 3.43v-.16a.28.28 0 000 .16zM81.94 2.94v.33a.89.89 0 000-.33zM81.48 7.37s.02.01 0 0zM81.35 8.52a7.34 7.34 0 00.21-1.06c.02.15-.26.79-.21 1.06zM80 13.21l.2-.94c-.08.15-.19.36-.14-.08-.32 1.18.2-.19-.06 1.02zM79.41 16.15c.08-.52-.08 0-.1 0-.02.29-.02.37.1 0zM71.72 36.2l-.08-.11c-.2.34.04.03.08.11zM69.88 39.98l.3-.26.02-.22-.32.48zM67.66 41.36l.09-.15-.38.55.29-.4zM41.47 66.56h.2c.18-.17.1-.34-.2 0zM32.69 79.68a1.75 1.75 0 00-.28.86c.1-.35.25-.68.28-.86zM25.07 122.63a2.66 2.66 0 00.28 0 3 3 0 01-.52 0 1 1 0 00.24 0z" class="cls-4"/></g><g class="cls-3"><path d="M117.08 161.26v.05zM112.94 158.45h.06s-.06-.02-.06 0zM112.3 157.85s.02-.01 0 0zM117.08 161.26l-.08-.11s0 .07.08.11zM119 162.37h.07zM118 161.68v-.05a.08.08 0 000 .05zM111 156.89s.05.01 0 0zM96.82 154.27c.19.09-.23.21 0 .3.01-.05.18-.26 0-.3zM107.68 155.36v.07a.06.06 0 000-.07zM110.07 156.7zM106.28 155h-.09a.07.07 0 01.09 0zM104.87 154.61l.02.03.04.01-.06-.04zM105.87 156.06l-.21-.08a1 1 0 00.21.08zM87.86 158.27zM105 155.8a.48.48 0 00-.09-.13z" class="cls-4"/><path d="M80 163c.21-.3.51.12.59-.24 0-.14-.13-.32.11-.39l.07.2c.23-.18-.06-.33.27-.42 0 .09-.14.19-.09.18.25 0 0-.17.16-.27l.13.11c.23-.21.43-.52.69-.76 0 .05 0 .13.09.12a3.49 3.49 0 011.2-.68v-.21s.1 0 .08.06c.17 0 0-.08 0-.17a.08.08 0 01.13.08 1.61 1.61 0 01.92-.7v.07c.23-.07.09-.39.35-.38.5-.19.94-.6 1.41-.57 0-.22.51-.14.41-.42a1.84 1.84 0 00.7 0c.11 0 .08-.23.19-.32l.07.14.11-.22.16.13.11-.09s-.13 0-.14-.06a.47.47 0 01.53 0l.4-.31c0 .06 0 .11-.1.17.18-.24.11.14.27-.08v-.13a.8.8 0 00.56-.16v.11c.34-.11.69-.31 1.07-.45a.13.13 0 01-.07-.24l.09.14c0-.12-.13 0 0-.18s.16.14.1.22l.15-.12v.14c0-.12.35 0 .39-.15.38-.12.54-.23.85-.34 0-.14.09-.15.15-.28a5 5 0 00.81-.1c.18-.13 0-.13.09-.24.05.12.33 0 .21.16A4.42 4.42 0 0094 156c-.06 0-.12 0-.11-.09s.19 0 .2.06c.44-.32 1.21.07 1.52-.28l.37-.23c.19 0-.09.12.06.17.39-.31.69-.12 1-.33.35.32 1-.21 1.38 0v-.09c.08-.1.12 0 .19 0s-.11-.07-.06-.12a6.79 6.79 0 012.5.06c.3 0 .19-.46.56-.22l-.11.16c.62-.17 1.23.11 1.85.05 0 0 0 .07-.11.06.1.15.46.1.48 0s0 .09 0 .15.35-.09.39 0 0 0-.07 0 .37.11.33 0c.2.12.43.05.59.17.15-.12.34.19.44 0-.08.21.33.29.5.23-.07.05.1.11 0 .18.16.05.31.07.32 0 .19.36.66 0 .69.39a7.15 7.15 0 011.38.32c-.11.2-.46-.19-.54 0 .42.09.72 0 1.08.24.08.08-.1.06-.15.08.42.11.72.38 1.1.45h-.09c-.09 0 .13.11.17 0h-.07c0-.18.4-.13.45-.19-.25.2.3.24-.06.47a.13.13 0 00.15-.07c.06 0 .06.09 0 .13.26.08.23-.06.43.06 0 0-.07 0-.12.07a.52.52 0 01.46.09s0 .07-.07 0c.31.16.64.08.93.36-.21.12.07.12 0 .29l.21.06v-.12c.16.1.37.07.47.2h-.16l.31.15-.13-.16c.21 0 .11-.21.29 0 0 0 .15.1.18.24a.32.32 0 01.31.11c0 .07-.13.15-.13.2.16-.08.38.19.56.12a.17.17 0 00-.1.11l.13-.06v.16c.2.15.06-.25.26 0h-.08c.23.21.54.25.74.46 0 .2-.23-.1-.24.09a6.75 6.75 0 011.12.52v-.06c.19-.19.17.27.4.28 0 0-.13.08-.11.07a3.24 3.24 0 00.87.4h-.07a4.09 4.09 0 00.44.37c.08 0 .16 0 .16-.08.23.61 1 .38 1.16.91h-.11l.37.16v-.2a.38.38 0 01.29 0c-.19 0-.11.15-.08.25s0-.05.06-.09a.3.3 0 000 .09c.06 0 .13-.15.23 0h.52c-.11-.11-.26-.24-.34-.34-.14.13-.31 0-.47-.08a.21.21 0 01.22-.1l-.13-.09a.25.25 0 01-.22 0l.11-.09c-.17-.11-.43-.1-.61-.32-.08.1 0 .42-.3.33 0-.06.09-.17.16-.15s-.1 0-.12-.05h.16c-.08-.11-.11.05-.19 0s0-.1 0-.16 0 .08.1.07a.51.51 0 01-.16-.28s-.07.11-.14.07 0-.14-.07-.24-.15-.11-.23 0v-.14c0-.05-.43-.26-.42-.06-.37-.08-.56-.48-.89-.62-.2-.07-.4-.23-.58-.22s-.08-.16 0-.19c-.15-.06-.2 0-.35-.22.18 0 0-.09.17 0-.14-.15-.14-.24-.4-.25.13-.06 0-.22-.15-.24l.08.15a.78.78 0 01-.26-.17l.14-.11c-.25-.4-.83-.13-.92-.58-.16 0 .15.19 0 .25-.15-.12-.19-.44-.24-.47-.18-.22-.35.07-.55-.13 0 .07-.06.22-.26.16s-.08-.34 0-.32.06.05 0 .07.15 0 .12-.06h-.05c0-.11-.29-.24-.18-.29-.16 0-.1.05 0 .13-.17-.2-.33-.21-.52-.39v.11c-.29-.26-.2 0-.44-.1-.08-.15.16-.16-.1-.23-.11-.13 0-.15.13-.16-.26 0-.35-.29-.46-.37h.13a.75.75 0 01-.18-.08v.14c-.05-.05-.11-.08-.08-.13s0 .2-.23.22-.29-.09-.24-.24c.24.2.05-.16.28-.05a.32.32 0 01-.16-.1c-.19-.26-.2.09-.47-.06a.1.1 0 000-.18c.11.06 0 .15-.15.16-.14-.15-.21-.05-.29-.11l.08.08c-.07.06-.15 0-.29 0 0-.07.14 0 .11 0-.21.07-.23-.29-.47-.3-.06-.09.07-.15 0-.22-.27 0-.18-.23-.45-.25 0 .13 0 .11-.17.14l.41.11h-.31c.11.05.26 0 .32.1-.16 0-.13 0-.12.12-.07-.23-.35 0-.47-.24l.13-.27c-.21-.24-.54-.08-.86-.3l.1.09c-.1.09-.23-.07-.36-.08v-.22c0-.07-.25-.12-.36 0l-.11-.18c-.27-.16-.43.14-.69 0 .12-.07 0-.18.23-.18-.1 0-.18-.08-.2 0s-.3 0-.36-.09c0 0-.1.12-.2.08s-.19 0-.13.14c-.2-.38-.81-.24-1-.55-.22 0-.48 0-.68-.09 0 0 0-.05.05 0-.25-.15-.22.24-.5.08s.17 0 .09-.13c0-.33-.37 0-.55-.25h.06c-.14-.14-.41.06-.66 0a.12.12 0 000-.05 2 2 0 01-.79.19c.09-.12.12-.06.08-.19s0 .21-.21.23c-.06-.08-.22-.15-.24-.29h.22c-.1-.19-.28 0-.39-.05v-.08c-.33 0-.34.21-.68.19v.06c-.19.2-.16-.11-.34 0l-.06-.2a7 7 0 01-.66.26c.12-.16.38-.24.54-.34-.12 0-.42 0-.48.14s.11-.08.16 0a.86.86 0 01-.58.27c0-.39-.65 0-.86-.31-.42.19-.88.06-1.38.18.23.26-.14 0-.06.33h-.17l-.38-.11c-.11-.07.09-.08.07-.15-.26 0-.13-.11-.32-.15.06.1-.06.17-.21.16l.23.1c-.32.23-.36-.19-.68.05l.09-.12c-.17.1-.68.16-.79.45 0 0-.11-.1 0-.14-.45.07-.89.51-1.26.45v.04c-.08 0-.1.18-.22.13s0-.08 0-.07-.18.19-.29.17l.06-.1c-.44 0-.58.38-.91.53-.06-.21-.41-.17-.59-.15a4.29 4.29 0 00-1.18.67c-.35-.13-1 .23-1.44.28.08 0 .05.16 0 .21s-.23.26-.29.06c-.15-.15-.34 0-.51 0l.07.25c-.58-.19-1 .61-1.42.39-.07.11-.2.16-.28.27v-.14a3.27 3.27 0 00-.77.36v-.13c-.19.09-.06.49-.23.58l-.15-.16c-.34.16-.76.2-1 .54a.11.11 0 010-.13c-.15.08-.67.21-.47.43-.1-.17-.35.18-.48.36v-.14c-.06.25 0 .29-.21.46-.06 0-.1-.07 0-.08-.2 0-.06.19-.29.24v-.12c-.18.1-.14.13-.17.27a.33.33 0 01-.42.09c0 .08 0 .23-.12.26s0-.08 0-.1c-.33.11-.31.41-.57.42a.12.12 0 00-.08 0 2 2 0 01.38-.24c-.07-.11-.26 0-.22-.25-.09.18-.21.51-.4.58a.18.18 0 00-.09.1.39.39 0 00-.16.07c-.08-.07-.23.11-.31.17.09.1 0 .17.14.18l.06-.07.2-.16c0 .1-.06.2-.19.21s0 .22 0 .27c-.23-.07-.52 0-.62-.05-.21.26-.54.54-.52.87 0 .08-.12 0-.18 0s.07-.09.07-.14c-.09.17-.38.38-.29.54-.22.1 0-.21-.23 0v-.07a.78.78 0 00-.42.42z" class="cls-4"/><path d="M81.88 161.4a.45.45 0 00-.07.07.22.22 0 01.07-.07zM82.23 161.15l-.16.1v-.1c0-.02.08.01.16 0zM80.91 160.92c0-.06.08-.06.11 0l-.09.09zM80.93 161.14H81zM117.12 161.32zM87.45 158.53l-.01-.04-.02.05.03-.01zM109.68 157.56c-.11-.02-.06-.01 0 0zM113 159.14h-.13c.13.04.13.07.13 0zM105.89 156.07l-.02-.01.02.01zM112.75 159a.2.2 0 00.15.09.38.38 0 00-.15-.09zM115.64 160.2l.08-.1c-.1-.05-.03.04-.08.1zM114.32 160.12l.05.13.1-.07-.15-.06zM114.25 158.99l.06.01-.18-.06.12.05zM105.16 154.55v.17c.07-.01.13-.18 0-.17zM100.76 154.08c-.05-.08-.18-.13-.25-.05.1-.03.2.07.25.05zM88.01 156.91l.06-.08-.14.1.08-.02z" class="cls-4"/></g><g class="cls-3"><path d="M312.07 97.14l.15.07zM300.26 86.41c.07.1.12.13.13.13s-.14-.16-.13-.13zM298.87 84s.05.1.08.14a.37.37 0 00-.08-.14zM312.07 97.14l-.37-.22c-.05.08.17.14.37.22zM319 98.35h.13l.11-.08zM315.15 97.93v-.06a.07.07 0 000 .06zM261.08 2.5s-.08-.02 0 0zM296.47 79.56c.08.13.04.06 0 0zM281.49 68.19c-.56.15.73-.56-.08-.29.1.01-.59.54.08.29zM281.41 67.9h-.08zM291.26 69.09v.13c0 .05.01-.04 0-.13zM294.83 77.05l-.08-.2a.76.76 0 00.08.2zM289.15 65a1 1 0 00-.13-.29.65.65 0 01.13.29zM286.45 61l.05.08.13.08zM273.17 9.83a.7.7 0 01-.08-.23c-.01.12-.57-.28.08.23zM288.07 65.36l-.32-.67c.09.19.25.44.32.67zM288.57 38.7v-.16a.38.38 0 000 .16zM286.67 62.85a2 2 0 00-.14-.38h-.08z" class="cls-4"/><path d="M319.2 98.54c0-.11.12-.16.4-.22h-.5a1.71 1.71 0 01-.59.14l.12-.15a8.59 8.59 0 01-2.17-.08c-.07.12.64.41-.29.42 0-.08 0-.2.2-.2a1.17 1.17 0 01-.44 0 1.59 1.59 0 00.38-.07c-.38-.08-.22.08-.52 0 0-.1-.22-.13-.16-.19a1.77 1.77 0 00.38.09 3 3 0 01-.86-.36c0 .07 0 .13-.28.09-.65-.14-.19-.17-.56-.3-.18 0-.56-.15-.61 0-.18-.06-.19-.14-.25-.21-.34 0-1.51-.53-1.2-.25h.08-.06a5.39 5.39 0 01-1.58-.73l-.76-.43c-.25-.16-.48-.33-.73-.47-.59-.33-1.28-.77-1.7-1-.16-.13-.31-.37-.21-.36a4.86 4.86 0 01-1-.82c.46.26-.09-.16.45.29a7.11 7.11 0 00-1.15-1c.26.07-.26-.46-.51-.65l.27.38a9.31 9.31 0 01-.71-.68h.24c-.77-1.13-1.94-1.56-2.32-2.6-.32-.21.4.63.09.46a14.91 14.91 0 01-.73-1.31c-.46-.73-.67-.5-1.16-1.26 0 .13 0 .31-.49-.2s-.25-.77 0-.48c.09.12.12.19.1.2.14.15.32.35.22.11h-.09c-.15-.28-.64-1-.44-.88-.31-.37-.19-.12 0 .19-.38-.72-.7-1.05-1.11-1.78 0 .13.05.27 0 .16-.59-1.07-.38-.4-.84-1.09-.17-.45.27 0-.23-.64-.21-.47.08-.17.23 0a6.49 6.49 0 01-.85-1.65l.24.32a5.77 5.77 0 01-.34-.53v.2c-.1-.21-.19-.38-.15-.4-.19-.18-.08.26-.41-.11-.11-.3-.52-.8-.43-1 .42.9.08-.16.51.55a2.24 2.24 0 01-.29-.52s.05 0 .09.07c-.32-.9-.36-.3-.82-1.16.14.06 0-.28 0-.41.18.34 0 .23-.27-.06a5.44 5.44 0 00-.5-.88l.14.35c-.14-.07-.27-.36-.49-.73 0-.07.22.33.18.18-.36-.37-.36-1-.75-1.62-.08-.31.14-.1.06-.37-.44-.63-.25-.79-.68-1.46 0 .25 0 .28-.31-.18l.64 1.15-.53-.69c.18.36.44.72.52.95-.26-.32-.22-.3-.22-.08-.08-.57-.57-.93-.72-1.55l.27-.11c-.28-.91-.85-1.45-1.29-2.6l.12.38c-.18-.1-.33-.68-.54-1 .11 0 0-.25 0-.43-.06 0-.37-.82-.59-.84l-.11-.55c-.37-.92-.73-.91-1.11-1.79.22.22.1-.21.44.34-.13-.29-.24-.56-.31-.53 0-.2-.5-.74-.54-1-.11-.1-.22-.09-.37-.41s-.32-.47-.27-.14a6.1 6.1 0 00-1.18-2.35c.43-.87.79-1.75 1.17-2.34v.14a2.24 2.24 0 01.28-.78s0 .14.08 0 .06-.29.11-.51a2.81 2.81 0 01.15-.62v.32a12.77 12.77 0 00.42-3.37c.22 0 .44-1.06.54-1.61a26.34 26.34 0 00.05-4.34 29.89 29.89 0 00.23-4.73c0 .24-.17 0-.21-.3s-.21-1 0-.93v.13a3.42 3.42 0 000-1.59l-.27-.07c.26-1.54-.58-3.88-.41-4.73-.13-.35-.21-.79-.34-1.13h.14a24.83 24.83 0 00-.57-2.69l.16.23c-.15-.69-.62-.76-.8-1.38l.15-.24A15.6 15.6 0 00287.1 28s.11 0 .18.2c-.18-.54-.67-2.13-.86-1.83.18-.09-.45-1.18-.81-1.73h.16a3.84 3.84 0 01-.81-1.11c-.06-.17 0-.2.11 0-.19-.59-.33-.37-.61-1.06l.21.2a1.75 1.75 0 00-.56-.75 2.67 2.67 0 01-.46-1.21 1.39 1.39 0 01-.54-.61c0-.07.11 0 .15.08-.47-.94-.94-1.25-1.23-1.93a.14.14 0 000-.15c.47.7.79 1.29.76 1.24s-.23-.66.21-.29l-.7-.78a4.77 4.77 0 01-.69-.87.44.44 0 010-.1l.06.05a1.81 1.81 0 00-.26-.33 4.19 4.19 0 00-.29-.47c0-.13-.39-.68-.61-.94-.1.11-.36-.25-.19.14 0 0 .05 0 .2.21l.1.11.49.68a2 2 0 01-.58-.72l-.47-.22c-.14-.48-.62-1.24-.6-1.41a10.32 10.32 0 00-2.29-2.08.59.59 0 01-.22-.41c.13.1.27.25.36.3-.43-.4-1.24-1.22-1.48-1.18-.48-.56.42.16-.34-.5l.14.05a6.92 6.92 0 00-2-1.7 11.15 11.15 0 01-2.22-1.71c.11.1.17.15.18.2a71.94 71.94 0 00-6.44-4.15 2.66 2.66 0 00-1.15-.41l-.07-.21-.73-.17c-1-.35-1.5-1.07-2.8-1.38l.11.16c-.42-.2-1.39-.55-1.28-.61a.45.45 0 01-.34-.07V.51l-1.2-.26c-.25-.11-.32-.17-.34-.22h-2a2 2 0 00.56.39l.76.12.19.18-.6-.2a1.33 1.33 0 00.81.23.6.6 0 00.26.23h.77c0 .11-.37.05.08.27.36 0-.25-.3.32-.17.3.22.18.25.6.33 0 .08-.06.07-.23 0 .38.07.93.37 1.16.33.3.27 1.19.47 1.06.66a4.25 4.25 0 011 .23c-.35 0-.05.13.3.28s.72.39.59.48a15.61 15.61 0 012.35.93.43.43 0 01-.21-.05 3.41 3.41 0 01.72.55c.15-.14.8.19 1.19.29.4.46-.41 0-.35.27.06-.15.93.37.84.16.31.32.29.24.4.5.19-.17.37.16.76.24.45.46 0 .28.61.62.23.25-.32 0-.32 0 .57.4.37 0 .55 0 .73.44.25.34.43.58.46.26.89.35 1.21.59 0 0 .06.09 0 .07.53.22 1.29 1 1.92 1.29a.16.16 0 010 .09.23.23 0 01.08-.26c.25.2.54.28.55.45a.54.54 0 00-.29-.13l.3.17c.12.32-.4-.24-.48-.14a8.13 8.13 0 011.53 1.15c0 .2-.89-.75-.51-.19l-.52-.57c.27.59-.35-.31-.12.25.7.72.88.71 1.58 1.43.24.08.05-.15.28-.07 1.18.86.49 1.11 1.38 1.7a1.35 1.35 0 01.93.68l-.32-.06c.66.72.59.23 1.15 1.1-.18-.09-.54-.55-.46-.42.3.61.38.29.7.69l-.06.19 1.08 1.21c.36.44.72.88 1.07 1.35-.08 0-.24-.16-.12.09a12 12 0 011.24 1.9 18.65 18.65 0 011 2l.38.41c.06.11 0 .23 0 .13.21.5.1 0 .27.18s.12.4 0 .25a11.63 11.63 0 01.95 1.61 7.5 7.5 0 01.73 1.76l-.12-.17c.24.76.61.73.75 1.46l-.08-.12a24 24 0 011.37 4.75c.29.18.33 1.67.63 1.71.06 1 0 .72.14 2.1.05.37.28.51.39 1h-.15l.27.58-.14.36.1.42c0-.17 0-.37.06-.35a3.81 3.81 0 010 1.66c.11.51.19 1 .29 1.56-.06 0-.11-.29-.17-.5.24.83-.15.17.07.93 0-.11.1 0 .13.06a10.13 10.13 0 00.07 1.92l-.12-.12c0 1.17.15 2.47.13 3.79.05-.47.23-.36.25 0l-.17.16c.1.25.07-.41.19.11 0 .49-.19.33-.24 0v.6c-.05 0-.07-.1-.13-.14.09.25-.2 1 0 1.38h-.05c-.08 1.32-.07 1.92-.17 3 .13 0 .07.45.13.78-.14.78-.37 1.63-.53 2.56-.06.67.08.22.11.53-.13 0-.33.94-.31.44-.11.56-.2.9-.29 1.27a14.17 14.17 0 01-.52 1.41c.12-.11.21-.26.21-.16s-.31.51-.35.45v-.07a5.62 5.62 0 01-.64 1.24 18.25 18.25 0 00-1.89-1.14h.12c-.75-.48-.6 0-1.48-.5-.42-.34.53.13.25-.05 0-.37-1.16-.4-1.78-.72h.16a7.14 7.14 0 00-2.15-.16v-.05a20.4 20.4 0 00-2.46.61c.21-.19.35-.17.16-.25-.35.13.15.16-.53.42-.25 0-.75.17-.88.08.21-.1.43-.21.65-.29-.41 0-.85.38-1.18.55v-.1a2.94 2.94 0 00-.84.75c-.19.23-.38.46-.74.92l.12-.06c-.2.63-.42.38-.55 1a1.19 1.19 0 00-.25.13 3 3 0 000 1 2.81 2.81 0 00.51 1.16 1.8 1.8 0 01-.52-.77 2.94 2.94 0 01-.15-1.07 2.48 2.48 0 000 1 1.69 1.69 0 00.37.74 1.29 1.29 0 01-.26-.54 7.55 7.55 0 00.54.76c.19.28.4.57.62.9-.2 0 .07.51.47 1s.93 1 1.11 1.29a7 7 0 002.14.94 4.66 4.66 0 002.55-.17c-.36 0-.23-.09 0-.15s.41-.17.3-.29a2.48 2.48 0 01.53-.24 7.81 7.81 0 001.11-.49c.29-.09-.27.28-.2.31.74-.49.38-.1.9-.4-.16 0 .14-.31.54-.62-.21.12-.41.25-.62.36.8-.92 1-.51 1.68-1.52-.05.12-.12.23-.18.35a8.83 8.83 0 001.6-2.43c.09-.07.24-.14.1.09a8 8 0 00.48-.75l.18.27c.13.25.25.47.38.47-.21.06.47 1.23.77 1.62-.13-.11.13.4 0 .28.24.49.49.92.56.78.19 1 1.05 1.76 1 2.42.79 1.43 1.49 2.78 2.17 4.1-.23 0-.71-1.47-.9-1.32a32.6 32.6 0 011.74 3.16c.13.34-.17-.14-.26-.23.68 1.22 1.17 2.44 1.84 3.5a.92.92 0 01-.17-.21c.12.22.23.52.31.45l-.14-.2c-.05-.41.73.73.82.72-.45-.23.52 1.12-.12.71.09.14.23.29.27.23.1.22.1.31-.09.13.47.75.41.42.8 1.12 0 0-.14-.11-.23-.15a4.4 4.4 0 01.87 1.21h-.09c.57.94 1.2 1.5 1.76 2.6-.39-.2.17.41.06.56l.42.54-.07-.28c.33.5.73.87 1 1.33-.11-.1-.21-.22-.31-.33.21.31.45.6.67.9l-.31-.55c.43.43.15-.19.58.48a7.38 7.38 0 01.44.8 3.77 3.77 0 01.69.79c0 .12-.22 0-.2.13.3.14.92 1.07 1.28 1.25-.11-.07-.19 0-.18 0l.25.11c.15.24.17.28.08.3.54.63 0-.35.59.45-.06 0-.05 0-.17-.12.63.77 1.34 1.37 2 2 .07.32-.61-.52-.5-.19.51.43 1 .89 1.58 1.29a18.34 18.34 0 011.59 1.2l-.32.1c.28-.08.7.66 1.32.91-.14-.07-.26 0-.2 0a7.53 7.53 0 001.19.73l1.61.68h-.18a10.53 10.53 0 001.77.78c.18 0 .47.12.32 0a3.21 3.21 0 001.18.47c.41.1.81.16 1.21.22a11.88 11.88 0 012.33.28h-.29a6.39 6.39 0 001.31 0c-.11-.11-.17-.06-.45-.14a2.57 2.57 0 01.85-.16c-.58.1 0 .18.27.24v-.11h.24v-.41zM284.46 64v-.06c-.24.37-.48.73-.75 1.09-.42.42.18-.33-.18-.06a8.76 8.76 0 01-2.5 2.16c-.46 0-1.12.35-1.85.43a2.55 2.55 0 01-1.92-.43v.11c-.29-.06-.27-.22-.43-.34 0 .07.22.22 0 .18a6.91 6.91 0 01-2.5-3c-.64-1 0-2.11.86-2.9.7-.52.1-.74 1.26-1.13l-.22.3a5.43 5.43 0 012.72-.86 11.26 11.26 0 012.9.22c-.12 0-.14.06-.32 0a4.24 4.24 0 001.46.37c.27.13 0 .11.18.23.34.22 1 .3 1.12.52h-.06c.33.16.91.57.78.36l.86.61a19.2 19.2 0 00-1.41 2.2zM281 18.1l-.21-.28z" class="cls-4"/><path d="M281.78 19.26a4.61 4.61 0 00-.32-.52c0-.06.09 0 .16.07-.06-.05.09.25.16.45zM280.89 16.25c.14.17.16.25.16.29s-.14-.18-.24-.31zM280.5 16l-.07-.06.06.12h.09a.39.39 0 01-.08-.06zM312.25 97.23s.01 0 0 0zM288.26 37.18h.04l-.05-.12.01.12zM319.74 99h.11zM294.07 77.64l-.05-.09c-.13-.19-.02-.06.05.09zM300.68 87.9l-.28-.28c.12.19.22.32.28.28zM288.11 65.43v.01l-.04-.08.04.07zM300.07 87.16a1.7 1.7 0 00.33.46 4.84 4.84 0 00-.33-.46zM307.2 94.05l.12-.07c-.32-.21-.04.02-.12.07zM304 92.05c.06.1.12.21.19.31h.2c-.12-.08-.26-.19-.39-.31zM303.2 89.82l.12.1c-.15-.13-.27-.28-.41-.42zM287.21 61.53v.19c.14.19.35.13 0-.19zM273.92 61a1.22 1.22 0 00-.51.71c.17-.3.42-.55.51-.71zM290.01 40.71l.08.28-.09-.53.01.25z" class="cls-4"/></g><g class="cls-3"><path d="M305.13 43.4v-.13.17zM304.89 43.08a.53.53 0 00-.1.36c.06-.15.07-.08.13-.27 0 0 .06.06.05.12s.06 0 .08-.07-.1-.14-.17 0a.2.2 0 01.01-.14zM302.8 40.77zM302.66 38.73s.02-.01 0 0zM302.86 38.39s.01 0 0 0zM302.8 40.77v-.06c-.02.01 0 .03 0 .06zM304.31 43.39h.05zM303.24 41.53h.06zM303.62 42s-.11.07-.16.11h.09zM304.31 42.79zM303.08 41.1zM306.29 43.33zM305.13 43.03l.01-.01v-.08l-.01.09zM303.09 37.77s.01.02 0 0zM305.34 33.8c0-.13.14-.12.12-.28-.02.06-.14.19-.12.28zM304.3 43.37zM305.46 33.52l-.01-.01.01.01zM303.29 36.35zM302.86 37.37zM303.26 35.75s.03-.01 0 0zM303.47 35.2h-.03v.02l.03-.02zM307.46 41.43h-.13c.1.01.1.12.13 0zM304.33 43.31a.1.1 0 010 .06.11.11 0 000-.06zM302.22 35.36l.06-.09-.06.09zM307.87 36.79s.02 0 0 0zM302.37 35a.23.23 0 00.11 0z" class="cls-4"/><path d="M307.36 42.22c.05-.1-.14-.13-.23-.2s.15 0 .25 0-.14-.22-.11-.27.05 0 .07 0 .08-.23 0-.38l-.24-.08s-.08-.11 0-.09 0 0 .06.07v-.06c.18 0 0 .08.15.12s-.12-.25-.06-.3 0 .17.18.13l-.09.08c.28 0 0 .06.25.08.1-.13 0-.18.06-.31-.08-.06-.14 0-.22-.08-.11-.24.45 0 .27-.25s-.3-.13-.17-.21l.18.08c.05-.13-.25-.13-.1-.25.07 0 .05.12.07.11.17-.06-.09-.09-.08-.16h.17c0-.15-.09-.33-.1-.49.05 0 .1.05.15 0a.85.85 0 01.2-.61l-.14-.09a.09.09 0 01.1 0c.06-.07-.09 0-.15 0s.09-.05.13 0c-.11-.14-.24-.39-.08-.53.07-.11-.29-.13-.16-.23.07-.23-.07-.49.15-.68-.21 0 .08-.24-.21-.24.13-.14.19-.11.27-.31s-.19-.06-.22-.12h.15l-.17-.07.18-.07h-.05s-.06.06-.1.06.08-.24.16-.25l-.16-.21c.06 0 .08 0 .13.06-.17-.1.16 0 0-.13s-.09 0-.13 0a.19.19 0 000-.27h.11a2.21 2.21 0 00-.16-.52c0 .08-.21.1-.24.05l.15-.06c-.1 0 0 .07-.18 0s.17-.09.23-.06l-.08-.07h.14c-.11 0 .12-.19-.06-.19a2.49 2.49 0 00-.19-.4h-.25c-.13 0 .07-.28 0-.41s-.12 0-.22 0c.11-.06 0-.18.16-.16a.88.88 0 00-.32-.32s0 .08-.09.09 0-.1.06-.13c-.27-.08-.05-.71-.42-.69h-.26c-.07-.09.11 0 .1-.15-.32 0-.34-.26-.59-.23 0-.2-.18-.25-.34-.26a.62.62 0 01-.47-.09v.09c-.07.09-.09 0-.14-.06s.08.07 0 .12a4.75 4.75 0 00-1.48.54c-.14.11.26.38 0 .39l-.09-.15c-.06.37-.41.53-.41.87 0 0-.07-.06-.05-.08-.14 0-.12.2 0 .25s-.09 0-.14 0 .07.21-.06.18-.09.16.05.19c-.11.07 0 .21-.14.26.13.11-.13.14.06.24-.2-.09-.24.11-.15.21s-.09 0-.17 0 0 .16.11.18c-.31.06.12.34-.23.31a4.85 4.85 0 01.09.69c-.22-.06 0-.23-.21-.27 0 .21.21.36.12.53s-.09-.05-.12-.07c0 .21-.1.36 0 .55h-.05c-.05 0 0 .08.06.09.16 0 .29.18.37.19-.28-.09-.1.16-.45 0a.16.16 0 00.13.06h-.14c0 .13.15.1.14.21a.61.61 0 01-.12 0c.09.07.18.13.13.22s-.07 0-.07 0c0 .16.23.28.13.45-.21-.07-.07 0-.26 0l.05.1h.09c0 .08.13.16.07.23l-.08-.07v.16l.07-.09c.09.08.23 0 .18.1s0 .08-.11.12c.06 0 .12.08.07.14a1.91 1.91 0 01-.24 0c.15 0 .05.19.21.23H302h.12-.13c-.08 0 .23-.05.14.09-.05.14.1.26 0 .38s-.06-.1-.21 0c0 .18.26.34.25.51.27 0-.11.15 0 .21h-.12c0 .13.12.23.24.38h-.07v.27c0 .08.07 0 .16 0-.3.36.35.34.14.66h-.08l.15.13c.09-.07 0 0 .11-.13a.16.16 0 01.16.05c-.1 0-.16.08-.2.15h.1c-.14.18.2-.1.15.07h-.06c.05 0 .15 0 .16.06s-.08 0-.17.05.28 0 .21.1-.07 0-.12 0-.05.14 0 .2v.14c.33-.16.18.1.43 0-.23.07-.11.08-.22.18s0 .12 0 .14c.13-.05 0 .15.21.07 0 0 .05 0 0 .13.09 0 0-.08.08-.12s.14.33.41.23.28-.16.42-.19-.09.15-.09.15a.12.12 0 00.18.07v.13c0 .05.09-.16.14-.07a.59.59 0 01-.1.17c.08 0 .16-.1.24-.13s-.07.12-.1.17.22 0 .26-.17h-.05v.14c0 .03-.09-.07-.08-.12h.05c0-.29-.19 0-.29 0l.09-.19-.14.14c0-.06 0-.17.07-.19s-.07.05-.09-.07h-.07s0-.14.06-.1c-.05-.15-.22.08-.19-.08-.16 0-.08.14-.27.24l.12-.37-.09.12v-.08c0-.08 0 .06-.11.12 0-.14-.21-.08-.07-.27-.1.07 0 .11-.12.12.15-.21-.1 0-.07-.16s.1 0 .14-.12c-.19.14-.05-.13-.12-.13s-.14 0-.24-.08c.05 0 0-.2 0-.3-.17.09-.18 0-.24-.06a.29.29 0 01.2 0v-.05a.18.18 0 01-.13 0h.13c-.05-.07-.23-.08-.18-.21-.12 0-.29.22-.42.14.07 0 .17-.08.21-.06s-.07 0-.05 0h.13c0-.07-.1 0-.11 0s.06-.06.13-.08a.19.19 0 01.1-.16h-.15c-.02 0 .1-.07.13-.13s0-.07-.16 0 .06 0 .1-.07-.08-.19-.22-.1c-.19-.1 0-.31-.09-.43h.05c-.07-.08-.06-.18-.18-.23s.08-.07.14-.07-.1-.06 0-.16c.09.05.07 0 .07.05 0-.08.11-.11 0-.19.13 0 .16-.08.11-.11l-.08.07a.2.2 0 010-.13h.17c.18-.18-.36-.29 0-.44-.12 0-.08.1-.22.06 0-.08.26-.16.26-.19s-.25-.1-.18-.21-.22 0-.28-.06.25-.1.3-.05 0 .06.11 0h-.06c.06 0 .05-.15.15-.12s-.1 0-.13 0c.09-.1 0-.16.08-.26h-.11c.08-.15-.11-.08-.13-.19s.22 0 .15-.07.16 0 .2 0 .1-.17.12-.22v.05a.08.08 0 010-.08L303 38s0-.05.08-.05-.2 0-.3-.07c.07 0-.05-.13.11-.12-.07.12.16 0 .17.11v-.07c.16-.09-.17-.07-.15-.19h.16-.21c-.06 0 0-.09 0-.13-.08 0-.07-.07-.08-.13s0 .06.07 0c-.15-.09.18-.11.09-.22h.21c.04 0 .14-.07.07-.19s-.1 0-.2-.08v.18l-.15-.14s.06.12 0 .15-.06-.06-.16-.05c.19 0-.08-.16.06-.21l.29.06c.15-.08-.1-.24 0-.37H303c-.11 0 0-.1 0-.16a.34.34 0 00.2 0c-.07 0 0-.1-.15-.17h.15c.08-.1-.23-.22-.16-.32.09.07.17 0 .22.13s0-.06 0-.08-.09-.15 0-.15-.13-.07-.11-.11 0-.09-.15-.09c.33 0 .11-.33.39-.33a1.08 1.08 0 01.05-.27s-.23-.19-.08-.25.05.1.12.09c.3.14 0-.15.24-.13.13 0 0-.19.05-.27a.43.43 0 01-.05-.4c.08.11 0 .08.14.14s-.17-.11-.15-.2a.48.48 0 01.27.09v.06c.16.09.06-.08.11-.09l.05.06c.06-.1-.08-.24 0-.32-.08-.19.11.05.07-.11l.14.14a.64.64 0 01.07-.32 2.3 2.3 0 010 .36.16.16 0 00.07-.18v.06c0-.02 0-.26.08-.3.13.36.24 0 .34.31.08-.16.22.05.32.07 0-.3 0 0 .13-.29h.06a1.64 1.64 0 010 .22c0 .09-.06 0-.08.11s0 .13 0 .21c0-.09.1-.12.11-.07v-.14c.18-.09-.08.26.09.18l-.08.06c.08 0 .13.12.35 0 0 0-.07.1-.1.09s.41.11.34.31h-.07.1-.07s.16 0 .14.06h-.09c0 .19.29.13.39.25a.37.37 0 00-.24.3c0 .18.28.25.41.41-.2.17 0 .4-.1.61a.18.18 0 01.19 0s.18.09 0 .12c-.19.07-.13.14-.12.21h.26c-.35.23.2.47-.13.6.07 0 .07.09.14.13h-.14a.5.5 0 000 .34h-.11c0 .09.42.09.43.18h-.21c0 .15-.18.3 0 .45h-.1c-.01 0-.15.26.14.25-.19 0 0 .15.06.24h-.14c.17.08.22.08.26.18s-.11 0-.07 0 .13.07 0 .15h-.09c0 .08 0 .08.13.13s-.05.15-.18.15c.08 0 .18.07.14.11a.13.13 0 01-.09 0c-.11.12.13.22 0 .29h-.09c0-.1 0-.18.05-.17s-.16.06-.33 0c.09.07.28.21.21.29h-.06l-.05.06c-.1 0-.07.09-.08.13.14 0 .1.07.23 0v-.1c.07 0 .12.09 0 .12l.22.1c-.21 0-.33.11-.45.1.05.14 0 .29.22.44h-.12c-.04 0 0 0 0-.07s0 .22.14.28c-.1.07-.15-.09-.15 0-.35.14.32.54-.14.66h.07c-.26.21-.15.66-.54.73-.09 0 0 .11 0 .21l-.12-.1.07.19c0 .18-.38-.15-.35.1l.06.08c-.05 0-.12.14-.16 0s0 .1 0 .06v-.07l-.08.17c-.1 0-.06-.3-.17-.31a.65.65 0 00-.09.3s.05 0 .06.12l-.05.05c0 .23-.08.48.14.62l.12-.16.06.11h-.12c.09.1.12 0 .15-.07a.18.18 0 00.09.1 2.33 2.33 0 00.07-.25c0 .08 0 .19.1.21s-.12-.18-.05-.27c.1.07.12.16.15.05a.11.11 0 010 .13c0-.09.15-.12.12-.24.12.08.17-.14.29 0a.39.39 0 010-.26c.09.27.18-.13.35.09-.12-.22.12-.28.1-.47s.13 0 .2 0c-.16-.12-.13-.24-.2-.35.21 0 .16.17.33.24-.13-.08 0-.21-.18-.26a.51.51 0 01.23 0c-.2-.14 0-.08-.11-.2.16 0 .22.08.2 0s.13.25.13.25zm.26-2.4zm0-.19a.19.19 0 000 .08h-.09c.01 0 .07-.05.12-.08zm-1 .24zM306.8 40zM302.78 40.8z" class="cls-4"/><path d="M307.96 36.99l-.03.01.03.01v-.02zM302.73 41.93zM303 42.35a.22.22 0 000 .08zM303.17 42.68zM301.93 37.24s-.02-.02 0 0zM302.13 38.91h0zM302.22 35.37v-.01.01zM302.06 38.78a.06.06 0 000 .08.08.08 0 000-.08zM304.66 43.47zM304.68 43.46s0-.02 0 0zM304.75 43.41h-.05s.03.04.05 0zM304.16 43.29s0 .02 0 0zM304 43.25s.05.13.11.12c-.02.03-.04-.19-.11-.12zM303.81 42.42l.06.09s0-.12.08-.11c-.01-.2-.05.12-.14.02zM303.63 42.16c.05 0 .06-.06.08-.08s-.07.01-.08.08zM302.74 40h.12-.12zM302.03 39.63l-.08.05.12.02-.04-.07zM302.92 39.29l.02.02-.05-.07.03.05zM303.55 35.35l-.15-.05s.17.11.15.05zM304.29 33.87c.07 0 .14.06.1 0s-.1-.03-.1 0zM306.65 36.65l-.05-.02.05.05v-.03z" class="cls-4"/></g><g class="cls-3"><path d="M311.4 43.06v.13-.17zM311.62 43.38a.75.75 0 00.09-.37 2.61 2.61 0 00-.12.28v-.12c0-.06-.05 0-.07.06s.1.14.16 0a.2.2 0 01-.06.15zM313.77 45.3zM314 47.16zM313.76 47.47s-.01-.01 0 0zM313.77 45.3v.06c.02-.01 0-.04 0-.06zM312.14 43zM313.3 44.65h-.06zM312.9 44.25s.1-.09.14-.13a.15.15 0 01-.08.05zM312.17 43.62zM313.48 45zM310.34 43zM311.4 43.43l-.01.01v.08l.01-.09zM313.52 48s-.01 0 0 0zM311.26 51.59c0 .14-.12.14-.09.29.02-.05.12-.19.09-.29zM312.15 43.06zM311.17 51.88l.01.02-.01-.02zM313.32 49.32zM313.75 48.4zM313.33 49.87s-.03.01 0 0zM313.11 50.36l.03.01v-.02l-.03.01zM309.06 44.72h.13c-.1-.01-.09-.11-.13 0zM312.12 43.12a.1.1 0 010-.06v.06zM314.35 50.31l-.06.08a.16.16 0 00.06-.08zM308.66 49.08zM314.19 50.67h-.11z" class="cls-4"/><path d="M309.21 44c-.06.09.13.13.21.21s-.15 0-.25 0 .13.22.1.26 0 0-.07 0c.09.13-.1.21 0 .37h-.05a1.1 1.1 0 01.24.09s.08.11 0 .08 0 0-.06-.07V45c-.17 0 0-.08-.15-.12s.11.24.05.28 0-.16-.17-.13l.1-.07c-.28 0 0 0-.26-.09-.1.11 0 .18-.06.29.08.06.13 0 .21.09.11.23-.46 0-.28.23.1.06.31.13.17.2l-.17-.09c-.05.13.25.14.09.24s0-.11-.07-.1.09.09.08.15h-.17c0 .14.09.31.1.47a.22.22 0 00-.16 0c.06.2-.08.4-.19.58l.14.08a.09.09 0 01-.1 0c-.06.06.09 0 .15.05s-.09 0-.13 0c.11.14.25.37.08.5-.06.11.3.12.16.22-.07.22.08.46-.14.64.21 0-.08.23.22.22-.14.14-.19.1-.27.3s.19.05.23.1h-.16l.18.06-.18.07v.05a.14.14 0 01.11-.06c.08.07-.07.22-.15.24l.16.18h-.13c.18.08-.15 0 0 .12s.09 0 .12 0-.06.18 0 .26h-.11a2.58 2.58 0 00.18.48c0-.08.21-.11.24-.07l-.15.06c.11 0 0-.06.18 0s-.16.1-.23.08l.08.06h-.13c.1 0-.11.19.07.18h-.05a4.07 4.07 0 00.21.37c.13-.06.13 0 .25 0a.74.74 0 000 .39h.21c-.11.07 0 .18-.14.16a.79.79 0 00.33.28c0-.05 0-.08.08-.1s0 .1 0 .13c.27 0 .1.68.46.61h.24c.06.08-.1 0-.09.16.31-.07.33.22.58.13.06.43.52.1.75.3v-.09c.05-.09.08 0 .12.06s-.07-.07 0-.12a7 7 0 001.38-.44c.13-.1-.25-.39 0-.38l.08.16c.06-.36.41-.47.42-.8 0 0 .07.06 0 .08.14 0 .13-.18 0-.23s.08 0 .14 0-.06-.21.06-.18 0 0 0 .05.09-.15 0-.18c.1-.06 0-.2.14-.24-.12-.11.14-.12-.05-.23.2.1.24-.09.16-.19.05.05.08 0 .16 0a.13.13 0 00-.1-.18c.3 0-.12-.32.24-.28a3.2 3.2 0 01-.08-.65c.22.07 0 .21.2.27 0-.2-.2-.35-.11-.51s.09 0 .12.07c-.05-.19.1-.33 0-.52h.06s0-.07-.06-.08c-.15 0-.28-.17-.36-.19.28.1.1-.14.45 0a.19.19 0 00-.12-.06h.13c0-.12-.15-.09-.14-.19s.07 0 .13 0c-.09-.06-.18-.12-.13-.2s.07 0 .06 0c0-.15-.23-.28-.12-.43.21.06.07 0 .26 0l-.05-.09h-.1c0-.08-.12-.15-.06-.21h.07v-.14l-.07.08c-.1-.08-.24 0-.18-.09s0-.08.11-.12c-.06 0-.12-.07-.08-.12a2.26 2.26 0 01.25 0c-.16 0-.05-.17-.22-.21h.16-.13.14c.08 0-.24 0-.15-.09h.06c0-.13-.11-.24-.06-.36s.06.1.21 0c-.05-.17-.28-.31-.26-.48-.26 0 .1-.15 0-.2a.31.31 0 00.12 0c0-.12-.12-.21-.26-.34h.08v-.26c0-.08-.07 0-.15 0 .25-.37-.36-.28-.19-.6h.07l-.15-.11c-.09.08 0 .06-.1.14s-.14 0-.16 0 .15-.11.18-.17l-.09.06c.11-.19-.19.13-.16 0h.05-.15c-.02 0 .08 0 .16-.08s-.27.08-.22-.06.08 0 .12 0 0-.14 0-.19v-.14.05c-.29.2-.18-.06-.41 0 .21-.11.09-.09.18-.21s0-.11 0-.14 0-.14-.19 0c0 0-.05 0 0-.14-.09 0 0 .09-.06.14-.18.1-.16-.32-.41-.17s-.24.2-.37.24.08-.16.08-.16-.1-.08-.17 0a.22.22 0 000-.14c-.05 0-.06.17-.12.09a.61.61 0 01.09-.18c-.07 0-.15.11-.21.14s.05-.12.08-.17a.26.26 0 00-.23.19v-.14c0-.02.08.05.08.1h-.05c0 .29.18 0 .27 0l-.08.2.12-.15s0 .17-.05.19.07-.06.09.06h.07s0 .14-.06.11c.06.14.2-.1.19.06.16 0 .07-.14.24-.28l-.09.38.08-.13v.08c0 .08 0-.06.09-.13 0 .15.21 0 .1.25.08-.09 0-.11.09-.15-.12.24.1 0 .09.16s-.1 0-.12.14c.16-.17.06.1.13.09s.12 0 .23 0c-.05 0 .05.18 0 .28.15-.1.18 0 .25 0a.35.35 0 01-.19.08.15.15 0 01.13 0l-.12.06c0 .06.21 0 .18.17.12-.06.27-.25.4-.19-.06 0-.16.09-.2.08s.07 0 .05 0h-.12c0 .06.1 0 .1 0s0 .06-.12.09a.21.21 0 01-.09.16s.12-.06.15 0-.1.08-.13.14 0 .06.16 0-.05 0-.08.07.07.16.21.07c.19.08 0 .28.1.39.08.07.08.16.19.2s-.07.07-.13.07.1 0 0 .15-.07 0-.07 0c0 .08-.1.11 0 .17-.12 0-.15.08-.11.11l.09-.06a.21.21 0 010 .11h-.17c-.19.17.37.25 0 .39.11 0 .07-.09.21-.06 0 .08-.25.16-.25.18s.24.09.18.2.22 0 .27 0-.25.09-.3 0a.08.08 0 00-.11 0h.06c-.06 0-.06.13-.16.11.06.05.1 0 .13 0s0 .15-.07.24h.1c-.08.14.11.07.13.17s-.21 0-.14.07-.16 0-.21 0c.11.1-.09.15-.12.2v-.05a.07.07 0 010 .07H313.46c-.07 0 .19 0 .29.07-.06 0 0 .12-.1.11.06-.11-.16 0-.18-.11s0 0 0 .07c-.15.08.18.07.15.18s-.17 0-.15 0 .15 0 .21.06 0 .08 0 .12c.08 0 .07.07.08.12s0 0-.07 0c.15.09-.18.1-.09.19h-.21c-.04 0-.14.07-.07.18s.09 0 .19.08v-.17l.14.14c0-.05-.05-.12 0-.14s.05.06.15.06c-.18 0 .08.15-.06.19l-.28-.07c-.16.06.09.22 0 .34h.07c.1 0 0 .09 0 .14a.47.47 0 00-.2 0c.07 0 0 .09.14.16h-.14c-.08.09.22.22.15.31-.09-.07-.17 0-.22-.14s0 .06 0 .08.09.14 0 .14.13.08.11.11h-.05c.05 0 0 .09.15.1-.32 0-.11.3-.39.28a1.84 1.84 0 01-.05.25s.22.19.07.24 0-.1-.12-.1c-.28-.15 0 .14-.23.1-.12 0 0 .18 0 .24a.4.4 0 010 .38c-.07-.11 0-.08-.13-.15s.17.13.14.22a.71.71 0 01-.26-.12v-.06c-.15-.09-.05.08-.1.08l-.05-.06c-.06.09.07.23 0 .31h.05c.07.2-.11 0-.08.1l-.13-.15a.57.57 0 01-.07.31 2 2 0 010-.35.14.14 0 00-.07.17s0-.07 0 0 0 .25-.07.29c-.13-.36-.23 0-.33-.32-.08.16-.21 0-.32 0 0 .31 0 0-.1.3h-.06a1.42 1.42 0 010-.2c0-.1.05 0 .08-.12s0-.13 0-.22c0 .1-.08.13-.1.08v.15c-.16.1.05-.25-.1-.17l.07-.06c-.07 0-.13-.09-.33 0 0 0 .07-.1.1-.1s-.4 0-.35-.23h.07-.1-.07.09c0-.16-.28-.08-.4-.18a.35.35 0 00.23-.3c-.05-.16-.28-.2-.42-.33.2-.17 0-.37.09-.56a.28.28 0 01-.2 0c0-.05-.18-.08 0-.11.19-.07.12-.14.12-.2h-.27c.35-.23-.21-.42.12-.56-.07 0-.07-.08-.14-.12h.14a.48.48 0 000-.31h.11c0-.08-.42-.08-.43-.15h.21c0-.14.17-.28 0-.42h.1c.01 0 .14-.24-.15-.23.19 0 0-.14-.05-.22h.14c-.18-.07-.23-.08-.27-.17s.11 0 .07 0-.13-.07 0-.15h.08c0-.07 0-.07-.13-.12s.05-.13.18-.13c-.08 0-.18-.07-.14-.11a.13.13 0 01.09 0c.11-.11-.13-.2 0-.26h.09c0 .1 0 .17-.05.16s.16-.05.33 0c-.09-.07-.28-.2-.21-.27h.06s.05 0 .05-.05.08-.08.09-.11c-.14 0-.11-.07-.23 0v.1c-.07 0-.12-.09 0-.12l-.21-.09a4.4 4.4 0 01.45-.08c-.05-.13 0-.27-.22-.41h.13c.05 0 0 0 0 .07s0-.19-.14-.27c.11 0 .15.1.16 0 .35-.09-.31-.53.15-.59a.16.16 0 01-.07 0c.26-.16.18-.61.56-.61.09 0 0-.1 0-.2l.11.11-.05-.18c0-.19.34.21.34-.06l-.06-.08c.05 0 .12-.11.15 0s0-.11 0-.06v.08a1.4 1.4 0 01.09-.17c.1 0 0 .31.16.31a.58.58 0 00.09-.29l-.06-.12.05-.05c0-.23.07-.48-.12-.62l-.11.15-.06-.11h.11c-.07-.1-.1 0-.13.07a.17.17 0 00-.08-.11 2.17 2.17 0 00-.07.24c0-.08 0-.19-.08-.21s.1.18 0 .27c-.08-.08-.09-.17-.13-.07a.11.11 0 010-.12c0 .08-.15.08-.13.21-.11-.09-.16.12-.26-.07a.64.64 0 010 .24c-.07-.28-.18.1-.33-.14.08.23-.14.27-.14.45v-.05h-.19c.14.13.1.25.17.36-.2-.05-.15-.18-.31-.27.12.09 0 .21.15.27a.44.44 0 01-.23-.06c.2.15 0 .08.1.2-.15 0-.2-.1-.19 0s-.13-.2-.13-.2zm-.34 2.26zm0 .18v-.08c0-.08.09 0 .09 0s-.07.03-.11.05zm1-.19h-.05zM309.7 46.14h-.05.05zM313.79 45.27z" class="cls-4"/><path d="M308.57 48.88h.03l-.03-.01v.01zM313.76 44.21s.01-.02 0 0zM313.48 43.85v-.08.08zM313.25 43.57zM314.68 48.55s.02.02 0 0zM314.49 47l.07.05s.01-.05-.07-.05zM314.35 50.3v.01-.01z" class="cls-4"/><path d="M314.55 47.1v-.07c0-.07-.02.05 0 .07zM311.83 43zM311.81 43s-.01 0 0 0zM311.74 43s.01 0 0 0zM312.28 43.12zM312.42 43.14s-.05-.13-.11-.11c.03-.03.06.19.11.11zM312.67 43.93l-.06-.08c0 .06 0 .13-.07.12.03.2.03-.12.13-.04zM312.87 44.15c-.05 0-.05.06-.07.09s.07-.03.07-.09zM313.86 46h-.13.13zM314.58 46.31l.07-.05-.11-.01.04.06zM313.7 46.65l-.02-.02.05.07-.03-.05zM313 50.22l.15.06s-.15-.12-.15-.06zM312.28 51.54c-.06 0-.12-.07-.09 0s.09.03.09 0zM309.89 49.14l.05.02-.05-.04v.02z" class="cls-4"/></g><g class="cls-3"><path d="M289.79 102.16v.12-.16zM290.05 102.48a.53.53 0 00.09-.37c-.05.15-.06.09-.12.27 0 0-.07 0-.06-.11s-.06 0-.09.06.12.14.19 0a.21.21 0 01-.01.15zM292.62 104.71zM292.85 106.92zM292.65 107.29s-.01-.01 0 0zM292.62 104.71v.08c.02-.02 0-.04 0-.08zM290.64 102.15zM292.08 103.94h-.07zM291.59 103.45s.11-.09.15-.13a.21.21 0 01-.09.05zM290.7 102.73zM292.3 104.39zM288.6 102.15s.01 0 0 0zM289.79 102.53l-.01.01v.07l.01-.08zM292.41 108s-.01-.07 0 0zM289.6 112.23c0 .13-.13.13-.09.28.01-.05.13-.19.09-.28zM290.66 102.17s.01-.01 0 0zM289.51 112.51v.01l.01.01-.01-.02zM292.14 109.49zM292.62 108.39s0 .01 0 0zM292.12 110.13s-.02.01 0 0zM291.86 110.71l.03.01.01-.03-.04.02zM287.14 104.09h.13c-.1-.01-.09-.09-.13 0zM290.63 102.22zM293.14 110.57l-.06.1a.33.33 0 00.06-.1zM286.67 109.16s-.01-.01 0 0zM293 111a.33.33 0 00-.12 0z" class="cls-4"/><path d="M287.34 103.24c-.07.1.12.14.2.21s-.15 0-.26 0 .12.24.09.29-.05 0-.07 0c.08.14-.12.24 0 .41h-.05l.24.09s.07.12-.05.1 0-.05 0-.08v.07c-.18 0 0-.09-.15-.14 0 .12.1.27 0 .33s0-.19-.17-.14l.11-.09c-.29 0 0-.06-.26-.09-.11.14 0 .2-.08.34.08.06.14 0 .22.09.09.26-.47 0-.29.27.09.07.3.14.16.22l-.18-.08c-.05.14.25.15.08.27-.06-.05 0-.13-.06-.12s.09.1.08.18h-.17c0 .16.07.35.08.53 0 0-.1-.06-.15 0a1.06 1.06 0 01-.21.67l.14.09a.09.09 0 01-.1 0c-.06.08.09 0 .15.06s-.09 0-.13 0c.11.16.24.43.08.58h-.05c-.06.12.3.14.17.24-.07.26.08.54-.13.75.21 0-.08.26.22.26-.14.16-.19.12-.27.34 0 .06.19.06.23.13h-.15l.17.07-.17.07v.06a.17.17 0 01.11-.06c.08.09-.07.26-.15.27l.17.22h-.13c.18.09-.16 0 0 .14s.09 0 .12 0 0 .21 0 .3h-.11a2.7 2.7 0 00.2.56c0-.08.21-.12.24-.07l-.15.07c.11 0 0-.07.18 0s-.16.11-.22.08l.08.07a.59.59 0 01-.14 0c.1 0-.1.21.08.21a2.33 2.33 0 00.23.42h.25a.92.92 0 00.06.43c.12.06.12 0 .22 0-.11.07 0 .2-.14.18a1 1 0 00.37.32s0-.08.07-.1 0 .11 0 .14c.29.07.16.74.53.69h.27c.08.08-.1 0-.08.15.34-.06.37.25.64.17.09.43.6.1.85.31v-.09c.06-.09.08 0 .14.06s-.08-.08-.05-.13a6 6 0 001.53-.52c.16-.11-.23-.4.07-.4l.08.16c.09-.39.47-.54.5-.91 0 0 .06.07.05.09s.14-.21.05-.26.08 0 .14 0-.05-.23.07-.2.11-.17 0-.2c.11-.08.05-.23.16-.28-.11-.12.15-.15 0-.26.21.1.26-.11.18-.22h.17a.15.15 0 00-.1-.2c.31 0-.1-.36.26-.33a3.89 3.89 0 01-.05-.74c.22.07 0 .24.19.3 0-.24-.19-.4-.09-.59s.09.06.12.08c0-.22.11-.39 0-.6a.12.12 0 01.05 0s.05-.08-.05-.09c-.16 0-.28-.19-.36-.21.28.11.1-.17.45 0a.12.12 0 00-.12-.07h.14c0-.14-.16-.11-.14-.23s.06 0 .12.06c-.09-.08-.18-.15-.12-.24s.07 0 .06 0c0-.17-.23-.31-.12-.49.21.07.07-.06.26-.06l-.05-.1h-.09c0-.09-.13-.17-.07-.24l.08.07v-.17l-.08.09c-.09-.09-.23 0-.18-.11s0-.08.12-.13c-.06 0-.13-.08-.08-.15a1.91 1.91 0 01.24 0c-.15 0-.05-.21-.22-.25h.16-.13a.15.15 0 01.14 0c0-.12-.23.06-.14-.09h.05c0-.15-.11-.27-.06-.41s0 .11.21 0c-.06-.2-.29-.37-.28-.56-.26 0 .09-.16 0-.23h.12c-.03 0-.13-.25-.28-.4h.08v-.3c0-.09-.08 0-.16 0 .24-.4-.39-.34-.24-.69h.08l-.16-.13c-.09.08 0 .06-.1.14a.19.19 0 01-.17 0c.11 0 .15-.11.18-.18l-.09.06c.09-.21-.2.13-.17-.06h.05c-.06 0-.15 0-.17-.06s.08 0 .17-.07-.29.07-.25-.08h.14c.05-.17 0-.15 0-.2l-.05-.15v.25c-.3.19-.2-.09-.45 0 .23-.1.09-.09.19-.21s0-.12 0-.15 0-.15-.21 0c0 0-.07 0 0-.13-.1 0 0 .08-.06.13s-.19-.34-.47-.19-.26.19-.41.22.08-.15.08-.15-.12-.09-.2 0a.22.22 0 000-.14c-.06 0-.07.17-.14.08a1.62 1.62 0 01.1-.18c-.08 0-.17.11-.24.14s.06-.12.09-.17-.23 0-.26.18h.05v-.13c0-.02.09 0 .09.1h-.05c0 .3.2 0 .3 0l-.08.2.14-.16c0 .06 0 .18-.06.2s.08-.06.11.06h.08s0 .15-.06.11c.07.15.23-.09.22.07.17 0 .06-.14.25-.27l-.07.39.07-.13v.09c0 .09 0-.07.09-.14 0 .16.25.05.14.27.08-.09 0-.12.09-.15-.11.24.11 0 .11.17s-.11 0-.12.14c.16-.16.08.12.15.12s.15 0 .26.06c0 0 .07.2.07.32.15-.1.18 0 .26 0a.27.27 0 01-.2.08h.05a.15.15 0 01.13 0l-.12.07c.05.06.23.06.21.2.11 0 .26-.26.4-.18-.06 0-.16.09-.2.08s.07 0 .05 0h-.12c0 .07.1 0 .11 0s0 .07-.13.1 0-.06 0-.05a.21.21 0 01-.08.18c.05 0 .12-.06.15 0s-.1.08-.12.15 0 .07.16 0-.05.06-.08.08.09.2.22.09c.2.1 0 .33.13.47.08.07.09.19.2.23s-.08.09-.14.08.11.07.05.18c-.1 0-.08 0-.08-.06 0 .1-.1.13.05.2-.13 0-.15.09-.11.13l.09-.07a.29.29 0 010 .13h-.17c-.18.19.38.3 0 .46.12 0 .08-.1.22-.06 0 .09-.26.18-.26.21s.25.1.19.23.21 0 .27.06-.25.11-.3 0 0-.06-.11 0h.06c-.06 0-.05.16-.15.13s.1 0 .13 0c-.09.11 0 .18-.07.29s.1 0 .1 0c-.09.17.11.09.12.2s-.21 0-.14.08-.16 0-.21 0c.11.11-.09.18-.12.24v-.06a.15.15 0 010 .09h.12s0 .06-.08 0 .2 0 .3.08c-.07 0 .05.14-.11.13.07-.13-.16 0-.17-.12a.06.06 0 010 .07c-.16.1.17.08.14.21h-.16c.01 0 .15 0 .21.06s0 .1 0 .14c.09 0 .07.08.09.14s0-.06-.08 0c.15.09-.18.11-.1.22s-.16 0-.21 0-.14.08-.07.21.09 0 .19.08l-.05-.19.15.15s-.05-.13 0-.15.05.06.16.06c-.2 0 .06.17-.07.22l-.29-.07c-.16.09.09.26 0 .4h.06c.11.06 0 .11 0 .17a.47.47 0 00-.2 0c.07 0 0 .11.13.19h-.14c-.09.11.21.24.13.35-.08-.07-.17 0-.21-.15 0 0-.05.07 0 .09s.08.16 0 .17.12.07.1.12h-.05c.05 0 0 .1.15.1-.34 0-.14.36-.43.35a1.37 1.37 0 01-.07.29s.22.21.06.28 0-.11-.11-.11c-.29-.15-.05.16-.26.14-.13 0 0 .2-.08.28a.48.48 0 010 .42c-.08-.11 0-.08-.13-.15s.16.12.13.22a.48.48 0 01-.27-.1v-.07c-.16-.09-.07.09-.12.1l-.06-.06c-.07.1.06.25-.06.33.06.2-.12 0-.09.11l-.14-.14a.73.73 0 01-.1.33v-.37a.21.21 0 00-.09.19v-.06a.26.26 0 01-.11.31c-.12-.37-.27 0-.38-.3-.11.16-.27 0-.42-.06 0 .31 0 0-.11.3h-.06a.9.9 0 01-.06-.22c0-.09.05 0 .07-.11s0-.13 0-.23c0 .1-.09.13-.11.07v.16c-.19.09 0-.26-.14-.19l.08-.06c-.08 0-.17-.11-.38 0 0 0 .06-.11.1-.11s-.44-.09-.41-.29h.07-.11.07s-.16 0-.15-.06h.09c0-.18-.3-.12-.43-.24a.36.36 0 00.21-.33c-.06-.19-.3-.25-.45-.42.19-.19 0-.43.06-.66a.2.2 0 01-.2 0c0-.06-.18-.1 0-.13.18-.07.11-.15.11-.23h-.27c.34-.26-.22-.5.11-.66-.07 0-.08-.1-.15-.14h.14a.67.67 0 000-.37h.1c0-.09-.42-.09-.43-.18h.21c0-.16.17-.33 0-.49h.1c.01 0 .15-.29-.14-.27.18 0 0-.17-.06-.26h.14c-.17-.09-.22-.09-.26-.2s.11 0 .07 0-.13-.08 0-.18l.09.05c0-.09 0-.08-.13-.14s.05-.16.18-.16c-.08 0-.18-.08-.13-.12a.12.12 0 01.08 0c.11-.13-.13-.23 0-.31h.09c0 .11 0 .2-.05.19s.16-.07.33 0c-.09-.08-.28-.24-.21-.32h.06v-.12c.11 0 .08-.09.09-.13s-.11-.08-.23 0a.45.45 0 010 .11c-.06 0-.11-.1 0-.13l-.21-.11c.21 0 .33-.12.46-.11-.05-.14 0-.31-.21-.47 0-.05.09 0 .13 0s0 .06 0 .08.05-.22-.12-.3c.11-.07.14.1.15 0 .36-.13-.28-.59.2-.69a.22.22 0 01-.08 0c.29-.21.23-.7.65-.74.1 0 0-.11 0-.22l.11.11v-.19c0-.2.37.19.39-.09l-.06-.08c.06 0 .15-.13.18 0s0-.11 0-.06v.07l.11-.17c.12 0 0 .31.18.31a.56.56 0 00.12-.3s-.06 0-.07-.12h.06c0-.24.07-.48-.14-.63l-.12.16-.06-.11h.12c-.08-.1-.12 0-.15.07s-.05-.1-.09-.11a2.41 2.41 0 00-.08.25c0-.08 0-.19-.09-.22s.11.18 0 .28c-.09-.09-.1-.17-.15-.06a.12.12 0 010-.13c-.05.08-.17.09-.15.22-.12-.09-.19.13-.29-.06a.57.57 0 01-.06.25c-.06-.29-.2.12-.35-.12.07.23-.16.29-.17.48v-.05h-.21c.14.14.1.26.15.39-.21-.05-.14-.19-.3-.28.12.1 0 .23.14.28h-.24c.2.15 0 .08.1.21-.16 0-.21-.09-.21 0s-.08-.24-.08-.24zm-.45 2.6zm0 .2v-.08c0-.03.09 0 .09 0s-.08.04-.12.04zm1-.25h-.05zM287.71 105.7zM292.63 104.68z" class="cls-4"/><path d="M286.57 108.93h.04l-.03-.02-.01.02zM292.53 103.48s0-.02 0 0zM292.2 103.07v-.09a.64.64 0 000 .09zM291.93 102.75zM293.55 108.53zM293.39 106.71s.05 0 .06.06.02-.06-.06-.06zM293.15 110.56l-.01.01.01-.01z" class="cls-4"/><path d="M293.45 106.85a.05.05 0 000-.08s-.02.06 0 .08zM290.28 102.08zM290.26 102.09s0 .02 0 0zM290.19 102.14h.05s-.04-.04-.05 0zM290.81 102.23zM291 102.26s-.07-.14-.13-.12c0-.03.04.19.13.12zM291.31 103.08l-.08-.09c0 .06 0 .14-.07.13.05.2.03-.12.15-.04zM291.55 103.33c-.06 0 0 .07-.06.09s.07-.02.06-.09zM292.74 105.5h-.13s.05.01.13 0zM293.47 105.93l.07-.06-.12-.02.05.08zM292.59 106.31l-.02-.02.05.08-.03-.06zM291.8 110.56h.15s-.17-.07-.15 0zM290.87 112.11c-.06 0-.13-.06-.11 0s.11.04.11 0zM287.9 109.27l.06.03-.05-.07-.01.04z" class="cls-4"/></g><g class="cls-3"><path d="M282.57 160.5l.06.07zM276.19 155.65h.09c.01 0-.09-.02-.09 0zM275.24 154.65l.05.06s-.03-.06-.05-.06zM282.57 160.5l-.14-.16s.07.09.14.16zM285.57 162.39h.14zM284 161.28a.13.13 0 000-.06.13.13 0 000 .06zM273.45 152.91c.06.09.03.01 0 0zM267.89 137.47c-.09-.22.34 0 .18-.24-.01.04-.34.06-.18.24zM268.07 137.23zM269.23 149a.27.27 0 000 .09s.01-.01 0-.09zM272.16 152.15l-.07-.08zM267.62 147.52a.34.34 0 00-.09-.13s.06.06.09.13zM266.22 145.7v.05l.05.05-.05-.1zM252 162.55a.25.25 0 01-.16-.05c.06.07-.2.29.16.05zM266.7 148.15l-.22-.31a3 3 0 00.22.31zM264.68 151.51v0zM265.77 147a.79.79 0 000-.23h-.06z" class="cls-4"/><path d="M250.35 162.58a7.07 7.07 0 00-.8.45h1.6a2 2 0 00.61-.54h.06a.31.31 0 01-.18-.18c.13-.09.18-.26.29-.19-.08.05-.06.09-.08.15l.11-.14c.22.07-.15.18-.08.29.24-.23.47-.56.71-.66.14.12-.46.37-.09.32l-.36.15c.39.07-.21.12.18.21.45-.24.42-.39.87-.64 0-.14-.11-.09-.07-.23.49-.55.71 0 1-.47.05-.17 0-.38.34-.5v.23c.41-.28.07-.39.56-.59 0 .12-.27.28-.2.26.36-.08.13-.23.33-.38l.15.1c.4-.34.79-.78 1.22-1.16 0 .06 0 .16.1.12a11.22 11.22 0 011.84-1.34l.12-.28h.1c.24-.14-.05-.08 0-.21s.21-.08.16 0a4.79 4.79 0 011.35-1.34v.1c.34-.23.13-.52.5-.67v.06a17.11 17.11 0 011.88-1.63c-.07-.24.67-.55.48-.8a4 4 0 00.93-.58c.14-.13 0-.33.17-.53l.12.1.08-.34h.25l.11-.19c-.06.06-.17.09-.2 0 .17-.29.61-.56.68-.52l.39-.72c0 .06 0 .17-.06.28.14-.43.17 0 .3-.36-.06 0-.05-.08-.07-.1a2.23 2.23 0 00.61-.76v.11a8.44 8.44 0 00.7-1.11h.12c.14.56.84.62.78 1.07.65.5 1.22 1 1.79 1.47-.18.14-.59-.55-.74-.37a8.37 8.37 0 011.44 1.09c.11.15-.14 0-.21 0 .57.41 1 .92 1.51 1.25h-.14c.1.08.19.21.25.13l-.11-.06c0-.24.57.08.64 0-.35.08.41.45-.08.52.07 0 .18.07.21 0 .07.1.08.15-.07.13.37.24.32.06.62.32h-.18a1.18 1.18 0 01.66.36s0 .06-.11 0c.45.35.91.43 1.34.89-.28.05.12.19 0 .36l.29.16v-.15c.22.19.51.24.67.45l-.22-.08.45.32-.19-.25c.29.11.12-.2.39.08-.07 0 .23.18.28.36a.84.84 0 01.45.26c0 .08-.16.13-.15.19.21 0 .57.39.81.37a.14.14 0 00-.13.09h.18c.08.11.08.14 0 .19.31.26 0-.27.37.1h-.11c.36.34.8.51 1.12.83 0 .23-.34-.2-.31 0a17.61 17.61 0 011.69 1l-.08-.09c.22-.16.3.38.63.46-.07 0-.17.06-.13.05a6.93 6.93 0 001.33.76H282a8.7 8.7 0 00.74.59c.1 0 .22.09.2 0 .47.8 1.44.73 1.88 1.42-.08 0-.21-.07-.15 0l.56.3c0-.12 0-.1-.09-.25a.72.72 0 01.41.13c-.21-.07-.16.06-.09.18h.92l-.17-.16c-.16.11-.45-.12-.69-.24.07-.08.14-.09.28-.05l-.21-.14a.48.48 0 01-.31-.08l.13-.08a3.32 3.32 0 01-.94-.55c-.1.09.08.49-.35.3 0-.07.08-.17.2-.13a.34.34 0 01-.2-.1h.22c-.14-.15-.14 0-.27-.08.06-.08-.05-.12 0-.17s.09.11.16.11a.86.86 0 01-.29-.38c0 .05-.08.11-.19 0-.28-.18 0-.16-.16-.31-.1 0-.24-.17-.32 0-.08-.06-.06-.12-.07-.18-.18 0-.67-.44-.6-.2-.55-.2-.91-.74-1.41-1a4.68 4.68 0 00-.88-.46c-.08-.06-.13-.21-.06-.24a1.19 1.19 0 01-.54-.37c.26.08 0-.12.25.1-.24-.23-.25-.34-.62-.44.17 0-.11-.27-.25-.34l.13.21a3 3 0 01-.39-.29l.17-.09c-.42-.57-1.19-.45-1.39-1-.21 0 .24.29 0 .3-.23-.21-.34-.6-.42-.66-.28-.33-.46 0-.78-.37 0 .08 0 .24-.34.07s-.15-.43 0-.35.08.08.06.1.21.11.15 0h-.06c-.09-.14-.42-.41-.28-.42-.22-.1-.14 0 0 .15a10.33 10.33 0 00-.77-.7v.12c-.43-.44-.28-.08-.61-.32-.12-.22.2-.12-.17-.32-.15-.21.06-.16.17-.13-.36-.15-.49-.51-.64-.66l.19.09a1.08 1.08 0 01-.26-.18v.16c-.08-.09-.15-.15-.12-.19-.14 0-.06.21-.31.14-.07-.15-.39-.26-.33-.42.33.36.06-.15.39.1a.9.9 0 01-.22-.19h.07c-.26-.41-.28 0-.64-.33.1 0 0-.2-.05-.24.15.13 0 .18-.2.11-.19-.25-.29-.18-.4-.3l.11.15c-.1 0-.21-.09-.39-.22 0-.06.18.1.14 0-.28-.05-.29-.49-.6-.63-.07-.15.1-.14 0-.26-.35-.17-.21-.36-.56-.56 0 .16 0 .15-.24 0l.52.39-.42-.16c.14.14.35.23.42.33-.21-.07-.18-.08-.18.06-.07-.31-.45-.29-.59-.59l.22-.21c-.24-.42-.7-.46-1.06-1l.09.18c-.14 0-.26-.26-.43-.36.08-.06 0-.17 0-.27s-.3-.32-.48-.23l-.08-.29c-.28-.39-.58-.22-.86-.59.17 0 .08-.17.35 0-.1-.12-.18-.23-.24-.19s-.19-.17-.31-.27.39-.37.33-.6h.22c.31-.6.39-.91.62-1.42-.13-.06 0-.25-.06-.45a5.13 5.13 0 00.59-1.22c0-.35-.08-.13-.12-.3.13 0 .27-.46.28-.19a7 7 0 00.18-1.51c-.06.08-.1.16-.13.11s.09-.3.14-.27a6.14 6.14 0 01.18-1.37 1.87 1.87 0 000-1.27 5.49 5.49 0 00-.24-.68c-.05-.32.14.18.16-.07a3.12 3.12 0 01-.31-.94 1.34 1.34 0 00-.72-.89 1.39 1.39 0 00-1.22-.6c-.54 0-1.06.09-1.47.1l.07.07c-.16.14-.25 0-.4.07.05.06.24 0 .14.08a3.14 3.14 0 00-1 .77 5.1 5.1 0 00-.76.9l-.34.5c-.1.18-.17.38-.25.56a4.63 4.63 0 00-.21.59l-.09.6c-.08.6.43.33.27 1l-.18-.18c.11.57.28 1.11.41 1.66a5.54 5.54 0 00.7 1.47c-.06 0-.11 0-.16-.11 0 .26.38.74.46.69.07.15-.06.08 0 .2s.42.39.38.55-.07 0-.1-.06c.13.09.35.58.39.38.15.38.48.57.59.87.24.07.32.59.54.5a.11.11 0 000 .12 8.44 8.44 0 01-.88 1.2c.1-.07.14.11.08.23s-.15.47-.3.33c-.24 0-.39.31-.57.52l.19.19c-.74.34-1.08 1.57-1.6 1.64-.06.18-.21.34-.28.51l-.1-.1a10.88 10.88 0 00-.9 1v-.16c-.24.24 0 .59-.22.82l-.21-.08c-.4.43-1 .7-1.25 1.25a.12.12 0 010-.16c-.19.19-.88.62-.61.77-.13-.14-.45.4-.64.67l-.05-.14a1.06 1.06 0 01-.32.64h-.07c-.17.12-.07.23-.35.39v-.16c-.24.2-.19.22-.25.41s-.47.34-.59.27a.37.37 0 01-.21.36v-.12c-.45.26-.49.61-.85.72a.1.1 0 00-.1 0c.32-.25.59-.44.57-.42s-.35.09-.26-.21a2.19 2.19 0 01-.66.83h-.06a.37.37 0 00-.14.14l-.24.13c-.09-.06-.33.19-.47.28.1.1-.08.21.15.19l.09-.11.05-.05.32-.26a.44.44 0 01-.33.31v.32c-.3 0-.71.16-.83.1-.35.35-.92.73-1 1.13-.1.11-.18 0-.25 0s.14-.12.15-.18c-.19.22-.68.5-.63.69-.34.14.07-.25-.32.05v-.08c-1 .29-1 1.27-2.17 1.53.06.07.09.06.12.07zm15.87-16.83a7.53 7.53 0 01-.62-.84h.06c-.14-.41-.4-.07-.53-.54 0-.3.19.18.17 0 .26-.21-.3-.49-.28-.85l.06.06c0-.26-.35-.49-.48-.87a2.34 2.34 0 01-.58-1c.16.09.11.15.22.05-.06-.16-.2.1-.31-.23.06-.13.1-.38.23-.42v.31c.16-.19 0-.4 0-.57h.08c-.08-.46-.2-.47-.16-1h-.06c-.17-.32.15-.21.08-.51h.22v-.45a4.72 4.72 0 01.18-.53c0 .25-.12.6-.07.86 0-.18.23-.54.19-.67 0 .07 0 .17-.08.22a1.11 1.11 0 01.28-.87c.25.3.72-.72 1.07-.5a1.76 1.76 0 011.66-.08c-.11-.36.16.05.25-.24.15.06.2.09.2.12a.92.92 0 01.16.41c0 .11-.12 0-.16 0s-.07.15-.1.26c.09-.08.18.06.19.29l.07-.33c.28.48-.15.51.13 1l-.13-.15c.12.26.13 1 .39 1.26 0 0-.12.11-.14 0a7.86 7.86 0 00.07 1.06 2.34 2.34 0 01-.1 1l-.06-.06c0 .12.09.24 0 .38 0 0-.06-.07-.07 0a1.13 1.13 0 010 .51l-.06-.16a8.29 8.29 0 00-.19 1.59c-.21-.08-.47.38-.6.61-.32.66-.37 1.23-.63 1.87-.24-.39-.53-.69-.55-.99zM256.5 159l-.13.11z" class="cls-4"/><path d="M257.05 158.6l-.24.18c-.05 0-.06-.08 0-.12s.13-.03.24-.06zM255.3 158.73c.07-.08.12-.08.15-.07l-.14.13a.11.11 0 01-.01-.06zM255.25 159h.07zM282.64 160.58zM264.23 152.15l-.03-.02-.01.07.04-.05zM271.59 152.91c-.14-.09-.08-.04 0 0zM276.42 156.51a.7.7 0 01-.19-.06c.08.07.14.13.19.06zM266.73 148.19v-.01l-.03-.03.03.04zM276 156.27a.6.6 0 00.22.18 1 1 0 00-.22-.18zM280.28 158.76l.09-.09c-.15-.09-.03.04-.09.09zM278.42 158.2l.09.17.13-.05-.22-.12zM278.1 156.82l.08.04-.27-.14.19.1zM266.56 146l-.1.14c.1.03.25-.06.1-.14zM264.22 139.94a.37.37 0 00.12-.34.92.92 0 00-.12.34zM264.42 149.93l.04-.14-.12.23.08-.09z" class="cls-4"/></g><path d="M172.77 99.91s-2.57 11.43 0 14.37 31.94 3.92 31.94 3.92v1.5l-31 12s-23.75-7.85-26.32-10.79 0-14.36 0-14.36z" class="cls-5"/><path d="M174.45 99.1s-2.56 11.43 0 14.37 30.26 4.73 30.26 4.73l-30.31 11.46s-22.71-6.59-25.27-9.53 0-14.37 0-14.37z" class="cls-6"/><path fill="#007477" d="M174.45 113.47c-2.56-2.94 0-14.37 0-14.37l-25.32 6.66s-2.56 11.43 0 14.37c.06.07.15.14.23.22 8.68-2.58 17.81-3.54 26.46-6.07a3.77 3.77 0 01-1.37-.81z" opacity=".34"/><path fill="#007477" d="M175.82 114.28c-8.65 2.53-17.78 3.49-26.46 6.07 1.37 1.21 5.64 2.94 10.27 4.58a251.31 251.31 0 0125.68-8.65 49.05 49.05 0 01-9.49-2z" opacity=".25"/><path d="M107.15 126.92V23.52a11 11 0 00-4 8.49v85.62a12.78 12.78 0 004 9.29z" class="cls-5"/><path d="M107.15 126.92l99.91-23.89V40.3l-99.91-16.78v103.4z" class="cls-6"/><path d="M113.29 120.67l89.29-21.33V44.76l-89.29-15v90.91z" class="cls-9"/><g clip-path="url(#clip-path)"><path d="M250.47 125.6a47.45 47.45 0 01-18.3-2.72c-10-3.51-7.1-6.79-10.2-17.53s-9.83-7.95-21.37-7.86-13.33-8.81-13.47-25.09C187 58.82 184.4 55 184.4 55l-52.08-4s1.16 9 .51 26.27c0 20.78 2.46 32.15 17.19 32s28.25-8.61 32.21 5.1.64 16.82 13 22.39c8 3.6 18.3 3.51 18.3 3.51z" class="cls-11"/></g><path d="M225.68 89.44h5.86a5.06 5.06 0 015.06 5.06v10.93h-16V94.5a5.06 5.06 0 015.06-5.06z" class="cls-9"/><path d="M221.29 97.39v6a1.16 1.16 0 001.2 1.12h12.24a1.15 1.15 0 001.19-1.12v-5.17c-4.29.78-9.77-2.22-14.63-.83z" class="cls-5"/><path d="M239.37 66.6c-16.14 5.36-11 21.63-11 21.63s-.16-4.06 6.82-8.24c3.07-1.83 4.18-13.39 4.18-13.39z" class="cls-6"/><path d="M231.94 89.44h-6.68a1.68 1.68 0 000-3.35h6.68a1.68 1.68 0 000 3.35z" class="cls-9"/><path fill="#e5fceb" d="M257.53 122.55a47.51 47.51 0 01-18.29-2.71c-10.05-3.51-7.11-6.8-10.21-17.54s-9.82-8-21.37-7.85-13.33-8.82-13.47-25.09C194.08 55.77 184.4 55 184.4 55l-52.08-4s13.14 1 12.5 18.3c0 20.78 2.46 32.15 17.19 32s23.33-3.69 27.28 10 .64 16.81 13 22.38c8 3.61 18.3 3.52 18.3 3.52z"/><path d="M191.31 105.42l33.79-6.06M193.25 113.15l34.17-7.73M196.12 122.65l32.88-9.08M202 129.66l31.8-9.79M215.75 133.56l28.76-11.19M184.03 100.73l32.48-5.31M173.55 99.91l33.51-4.49" class="cls-13"/><path d="M220.62 99.1c8 1.88 4.39 15.27 10.25 19.18 5 3.78 12.13 5.1 18.89 4a50.48 50.48 0 01-10.52-2.43c-10.05-3.51-7.11-6.8-10.21-17.54-2.93-10.16-9.11-8.21-19.54-7.89 0 0-35.86 4.61-53.72 6.14a19.93 19.93 0 006.24.84c4.31 0 8.1-.36 11.39-.47 15.91-2.63 30.16-5.77 47.22-1.83z" class="cls-11"/><rect width="8.54" height=".9" x="224.34" y="85.19" class="cls-9" rx=".28"/><path fill="#007477" d="M228.57 99.37a37.37 37.37 0 01-.66-7.9 35.65 35.65 0 011.09-7.88 24.49 24.49 0 013-7.37l1.12-1.66c.43-.51.86-1 1.3-1.52.23-.24.44-.5.67-.74l.75-.66 1.51-1.29h.05v.06l-1.32 1.46-.68.72c-.2.25-.39.52-.59.78-.38.53-.79 1-1.18 1.56l-1 1.67a30.53 30.53 0 00-3.1 7.15 35.93 35.93 0 00-1.25 7.74 37.61 37.61 0 00.37 7.86v.05a.05.05 0 01-.08-.03z"/><path d="M144.11 55.04l42.92 2.68M147.67 61.22l42.56 1.85M148.63 68.62l42.52 1.33M148.63 75.22l42.39.95M149.16 82.58h42.87M150.35 89.44l43.45-.97M154.28 97.23l44.15-3.56" class="cls-13"/></g></g></svg>