<svg xmlns="http://www.w3.org/2000/svg" xmlns:xlink="http://www.w3.org/1999/xlink" id="Layer_1" x="0" y="0" enable-background="new 0 0 1920 574" version="1.1" viewBox="0 0 1920 574" xml:space="preserve"><style type="text/css">.st1,.st4{opacity:.21;fill:#52b0ff;enable-background:new}.st4{opacity:.31}.st15{opacity:.7}.st23{opacity:.2;fill:#ebebeb;enable-background:new}.st31{opacity:.8}.st32{fill:#f3c152}.st36{fill:#d57f1a}.st38{opacity:.4}.st40{opacity:.8}.st40,.st41,.st42{fill:#fff;enable-background:new}.st41{opacity:.89}.st42{opacity:.87}.st43{opacity:.7}.st43,.st45,.st46,.st50,.st51,.st53{fill:#fff;enable-background:new}.st45{opacity:.78}.st46{opacity:.88}.st50{opacity:.6}.st51{opacity:.74}.st53{opacity:.82}.st58{fill:#ffe222}</style><g id="autumn_new_2"><g id="bg"><rect width="1920" height="574" fill="#fff"/><path d="M1919.8,282.3c0,0.6,0,1.2,0.1,1.8v62.8c0,0,0,0-0.1,0v5.2l0,0l0,0c-0.2,0.2-0.3,0.5-0.5,0.7 c-10.6,13.6-74.9,62.8-133.4,79.9c-58.3,17.1-106.4-0.1-120.7-5.8c-130.3-34.5-210,149.9-438.1,77.8c8.2,2.6,16.3,4.6,24.3,6.1 c0.1,0,0.1,0,0.2,0c28.2,5.3,54.4,4.1,79.4-1.8c111.6-26.3,197.2-146.1,314.4-195.4c85.8-32.1,168.6-74.8,253.2-74l20.3-0.9h0.4 h0.6l0,0L1919.8,282.3L1919.8,282.3z" class="st1"/><path id="path355" d="M806.8,337c0,0-517.6,35.7-527.3,49.8C186.4,522.9,334.7,604.1,462.6,540 c172.4-86.3,313.8-104.3,456.8-10.2S806.8,337,806.8,337L806.8,337z" class="st1"/><path d="M1919.8,284.1v62.8c0,0,0,0-0.1,0l0,0c-0.2,0.1-0.4,0.3-0.6,0.4c-4.9,3.7-9.8,7.2-14.5,10.6l0,0 c-0.5,0.5-5.4,4.1-12.9,9.2c-0.4,0.3-0.8,0.5-1.2,0.8c-17.7,11.8-48.8,30.9-76.3,40.9c-49.1,17.8-85.8,11-128.9-4.3 c-63.9-22.7-121.3,25.2-198.9,63.5l0,0c-10.7,5.3-21.8,10.4-33.4,15.1c-0.1,0-0.1,0-0.2,0.1c0,0,0,0-0.1,0 c-20.8,8.5-43,15.6-67.2,20.3l0,0c-18.7,3.6-36.8,5.4-54.7,5.7c-30,0.5-59.3-3.4-89.5-10.5c-0.2,0-0.4-0.1-0.6-0.1 c-1.6-0.4-3.2-0.8-4.7-1.1c-2-0.5-4-1-6-1.5l0.1-0.1c5.2-2.7,10.4-5.3,15.6-8c2.4-1.2,4.9-2.5,7.3-3.7c0.1,0,0.2-0.1,0.3-0.1 c16.6-8.4,33.1-16.7,49.5-24.9c77.2-38.5,150.8-73.7,216.3-103.7c4.5-2,9-4.1,13.6-6.2c42.4-19.2,89.6-40.1,131.5-57.4l1.2-0.5 c29.5-12.3,61.4-24.8,61.7-24.8c41.1-15.8,148.5-56.4,191.5-49.2h-0.1c0,0.1-0.2,0.1,0.3,21.6c0.1,5.2,0.3,11.8,0.4,19.9 c0.2,6.3,0.3,13.5,0.6,21.9c0,0.5,0,1.1,0,1.6C1919.8,282.9,1919.8,283.5,1919.8,284.1L1919.8,284.1z" class="st1"/><linearGradient id="SVGID_1_" x1="955.072" x2="970.912" y1="478.772" y2="1078.428" gradientTransform="matrix(1 0 0 1 0 -504)" gradientUnits="userSpaceOnUse"><stop offset="0" stop-color="#3f60ff"/><stop offset="1" stop-color="#5a7fe5"/></linearGradient><path fill="url(#SVGID_1_)" d="M1920,0v352.9c-4.8,2.6-11.5,6.3-15.1,8.3l0,0c-7.4,4.1-48.6,28.5-104.9,30.1c-21.4,0.6-42.5-2.6-62.1-10.7 l0,0c-41.3-13.6-54.6-49.4-75.2-51.6c-6.6-0.7-22.2-2.2-38.9,19.6c-25.5,33.4-71,71.4-105.8,95.8l0,0 c-30.6,21.5-60.9,39.1-82.6,47.1c-15.1,5.6-32.2,10.8-49.6,15.1l0,0c-15.9,4-71.6,18.8-125.4,6.8c-0.1,0-0.2,0-0.2,0h-0.1l0,0 c-89.7-18-174.1-72.3-254.5-3C988.7,524.9,986,558,987.1,574h-29.9c-89-94.2-223.5-126.2-352.4-103.2c-0.1-0.1-0.6-0.4-0.5-0.3 c-50.7,9.2-76.2,20.5-122.6,36.3C397.3,532,278.3,547,260.9,460.9c-3.9-19.5-2.1-31.8,2.6-44.7l0,0c5.1-13.9,13.2-25.7,22.9-36.7 c6.5-7.3,6.5-7.3,0,0c1.7-1.9,21.2-21.7,25.3-27.1l0,0c3.2-4.3,5-8.6,1.2-12.4c-3.7-3.8-10.2-5.7-10.6-5.7 C246.2,318.4,46,391.1,0,322.7V0H1920z"/><linearGradient id="SVGID_00000164493998568174591970000012045561318347531926_" x1="895.583" x2="1023.223" y1="162.78" y2="1158.6" gradientTransform="matrix(1 0 0 1 0 -504)" gradientUnits="userSpaceOnUse"><stop offset=".16" stop-color="#69c7ff"/><stop offset=".41" stop-color="#4c86df"/><stop offset=".66" stop-color="#324dc3"/><stop offset=".84" stop-color="#2229b2"/><stop offset=".94" stop-color="#1c1cac"/></linearGradient><path fill="url(#SVGID_00000164493998568174591970000012045561318347531926_)" d="M1920,0v352.9c-4.8,2.6-11.5,6.3-15.1,8.3l0,0c-7.4,4.1-48.6,28.5-104.9,30.1c-21.4,0.6-42.5-2.6-62.1-10.7l0,0 c-41.3-13.6-54.6-49.4-75.2-51.6c-6.6-0.7-22.2-2.2-38.9,19.6c-25.5,33.4-71,71.4-105.8,95.8l0,0c-30.6,21.5-60.9,39.1-82.6,47.1 c-15.1,5.6-32.2,10.8-49.6,15.1l0,0c-15.9,4-71.6,18.8-125.4,6.8c-0.1,0-0.2,0-0.2,0h-0.1l0,0c-89.7-18-174.1-72.3-254.5-3 C988.7,524.9,986,558,987.1,574h-29.9c-89-94.2-223.5-126.2-352.4-103.2c-0.1-0.1-0.6-0.4-0.5-0.3c-50.7,9.2-76.2,20.5-122.6,36.3 C397.3,532,278.3,547,260.9,460.9c-3.9-19.5-2.1-31.8,2.6-44.7l0,0c5.1-13.9,13.2-25.7,22.9-36.7c6.5-7.3,6.5-7.3,0,0 c1.7-1.9,21.2-21.7,25.3-27.1l0,0c3.2-4.3,5-8.6,1.2-12.4c-3.7-3.8-10.2-5.7-10.6-5.7C246.2,318.4,46,391.1,0,322.7V0H1920z" enable-background="new" opacity=".7"/><g id="g679"><path id="path671" d="M774,507.2c-22.7-1.7-39,4-63.3,20c-38.3-12.7-45-32.9-45-32.9c30.3-26.1,91.1-18.4,105.2-13.5 C770.8,492.8,774,507.2,774,507.2z" class="st4"/><g id="g677"><path id="path673" fill="#7ac2ff" d="M1220.5,458.5c0.8-0.6,1.9-0.5,2.5,0.3l0,0c6.2,8.1,21.2,25.6,27.6,23c0.9-0.4,2,0,2.4,0.9 c0.2,0.4,0.2,0.8,0.1,1.2c-3.4,13.4-18.8,18.7-32.1,21c-16.8,2.9-34.3,3.1-47.3,0.3c-0.3-0.1-0.7-0.2-0.9-0.5 c-6.9-6.7-9.6-18.7-10.5-23.6c-0.2-1,0.5-2,1.5-2.1C1185.4,479,1203.1,471.5,1220.5,458.5L1220.5,458.5z" enable-background="new" opacity=".31"/><path id="path675" fill="#d3e6eb" d="M1203.3,507.5c22.3-1.4,39.1-9.2,47.8-29C1258,485.6,1250.4,504.8,1203.3,507.5z" enable-background="new" opacity=".5"/></g></g><g id="planets"><g id="bottom_planet"><linearGradient id="SVGID_00000101803110253768350100000001983438494450908825_" x1="357.192" x2="120.752" y1="708.141" y2="1020.391" gradientTransform="matrix(1 0 0 1 0 -504)" gradientUnits="userSpaceOnUse"><stop offset="0" stop-color="#3d8ae5"/><stop offset=".09" stop-color="#3c76e1"/><stop offset=".25" stop-color="#3a55db"/><stop offset=".42" stop-color="#393cd6"/><stop offset=".6" stop-color="#382ad2"/><stop offset=".79" stop-color="#381fd0"/><stop offset="1" stop-color="#381cd0"/></linearGradient><path fill="url(#SVGID_00000101803110253768350100000001983438494450908825_)" d="M383.1,414c-0.1,0.6-0.1,1.1-0.1,1.7c0,21.7-3.8,43.2-11.7,64c-59.3,12.8-94.3,12.4-110.3-26c-1.2-2.8-1.9-8.7-2.1-13.2 c0.3-8.2,1.8-16.5,4.6-24.2l0,0c5.2-13.9,13.2-25.7,22.9-36.7c6.5-7.3,6.5-7.3,0,0c1.7-1.9,3.4-3.7,5-5.5c1.1-1.2,1.1-1.2,0,0 c0.8-0.9,2.5-2.6,2.5-2.6c7.7-8,13.8-13.7,17.8-19l0,0c3.3-4.4,4.9-8.6,1.2-12.4c-3.7-3.8-10.2-5.7-10.6-5.7 c-28-8-91.4,6-154,13.6c-0.2,0-0.5,0.1-0.8,0.1c-7.6,0.9-15.1,1.8-22.6,2.4c-27,2.5-62.8,4.3-90.6-4.5c0.3-1,0.8-2,1.3-3 c40.2-91.8,147.3-133.6,239.1-93.3c16.9,7.4,32.6,17.4,46.6,29.6c4.1,3.6,8,7.4,11.8,11.3C364.9,323.9,382.7,368,383.1,414 L383.1,414z" enable-background="new" opacity=".3"/><path fill="none" stroke="#ebebeb" stroke-dasharray="0 0 0 0 0 0" stroke-linecap="round" stroke-miterlimit="10" stroke-width="2" d="M381.3,390.4c27.2-46.5,41-88.6,24.7-104.9c-12.9-12.9-39.4-10-73,5.2c-6.1,2.8-12.4,5.9-19,9.5l0,0 c-1.7,0.9-3.5,1.9-5.2,2.9c-14,8-27.6,16.8-40.7,26.3" enable-background="new" opacity=".25"/><linearGradient id="SVGID_00000023965965818940007420000007376450055441317806_" x1="299.504" x2="22.164" y1="672.613" y2="938.973" gradientTransform="matrix(1 0 0 1 0 -504)" gradientUnits="userSpaceOnUse"><stop offset=".43" stop-color="#3d8ae5"/><stop offset=".48" stop-color="#3c76e1"/><stop offset=".57" stop-color="#3a55db"/><stop offset=".67" stop-color="#393cd6"/><stop offset=".77" stop-color="#382ad2"/><stop offset=".88" stop-color="#381fd0"/><stop offset="1" stop-color="#381cd0"/></linearGradient><path fill="url(#SVGID_00000023965965818940007420000007376450055441317806_)" d="M199.8,310.4c-2.2,8.9-2.5,19.4-1,30.2c-41.3,6-117.2,18.6-157.9,7c17.3-27.4,43.4-47.5,69.5-59.5c41.2-19,82.6-18.1,89.6,5.3 C201.4,298.2,201.5,303.8,199.8,310.4L199.8,310.4z" enable-background="new" opacity=".3"/><linearGradient id="SVGID_00000056395289468335251630000001070429581297607322_" x1="379.386" x2="294.256" y1="817.596" y2="1002.486" gradientTransform="matrix(1 0 0 1 0 -504)" gradientUnits="userSpaceOnUse"><stop offset=".43" stop-color="#3d8ae5"/><stop offset=".48" stop-color="#3c76e1"/><stop offset=".57" stop-color="#3a55db"/><stop offset=".67" stop-color="#393cd6"/><stop offset=".77" stop-color="#382ad2"/><stop offset=".88" stop-color="#381fd0"/><stop offset="1" stop-color="#381cd0"/></linearGradient><path fill="url(#SVGID_00000056395289468335251630000001070429581297607322_)" d="M383,415.7c0,1.1,0,2.3,0,3.4c0,2.3-0.1,4.5-0.2,6.8c-0.1,1.2-0.1,2.3-0.2,3.5c-2.4,31.8-13.1,62.9-33.3,91.5 c-6.5-0.5-13.2-1.3-20.2-2.2c-54.9-4.6-90.8-67.9-56.7-120.2c0.2-0.3,0.4-0.6,0.6-0.9c6.8-3.1,13.2-7.2,18.8-12 c18.1-14.9,38.5-21.2,55.4-18.6c20.1,3.1,35.3,18.7,35.8,47.3C383,414.6,383,415.1,383,415.7L383,415.7z" enable-background="new" opacity=".3"/><linearGradient id="SVGID_00000075846423421995652480000001486103881802188711_" x1="27.942" x2="168.602" y1="919.821" y2="784.141" gradientTransform="matrix(1 0 0 1 0 -504)" gradientUnits="userSpaceOnUse"><stop offset=".43" stop-color="#3d8ae5"/><stop offset=".48" stop-color="#3c76e1"/><stop offset=".57" stop-color="#3a55db"/><stop offset=".67" stop-color="#393cd6"/><stop offset=".77" stop-color="#382ad2"/><stop offset=".88" stop-color="#381fd0"/><stop offset="1" stop-color="#381cd0"/></linearGradient><path fill="url(#SVGID_00000075846423421995652480000001486103881802188711_)" d="M49.7,349.5c41.2-46.7,109.8-49.9,96.1-1.5C111.1,352.2,77.1,354.4,49.7,349.5z" enable-background="new" opacity=".3"/><linearGradient id="SVGID_00000118384750808824390510000016927398753816500875_" x1="205.292" x2="443.392" y1="1058.014" y2="901.054" gradientTransform="matrix(1 0 0 1 0 -504)" gradientUnits="userSpaceOnUse"><stop offset=".43" stop-color="#3d8ae5"/><stop offset=".48" stop-color="#3c76e1"/><stop offset=".57" stop-color="#3a55db"/><stop offset=".67" stop-color="#393cd6"/><stop offset=".77" stop-color="#382ad2"/><stop offset=".88" stop-color="#381fd0"/><stop offset="1" stop-color="#381cd0"/></linearGradient><path fill="url(#SVGID_00000118384750808824390510000016927398753816500875_)" d="M349.3,522.4c-2.9-0.3-6.5-0.4-20.8-2.8c-38.5-6.3-60.3-32.2-66.9-62.2c0.1-0.1,21.1-21.2,47.9-33.3 c21.8-9.7,42.4-10.6,48.1,12.2c2.1,8.1,3.4,16.4,4,24.7C363.5,485.2,357.7,504.5,349.3,522.4L349.3,522.4z" enable-background="new" opacity=".3"/><linearGradient id="SVGID_00000029746616092293095930000002845902429400532653_" x1="423.741" x2="105.501" y1="638.748" y2="1030.808" gradientTransform="matrix(1 0 0 1 0 -504)" gradientUnits="userSpaceOnUse"><stop offset="0" stop-color="#ffdb84" stop-opacity=".8"/><stop offset=".14" stop-color="#fedf80" stop-opacity=".57"/><stop offset=".29" stop-color="#fde47e" stop-opacity=".37"/><stop offset=".43" stop-color="#fce77b" stop-opacity=".21"/><stop offset=".55" stop-color="#fce97a" stop-opacity=".09"/><stop offset=".66" stop-color="#fceb79" stop-opacity=".02"/><stop offset=".73" stop-color="#fcec79" stop-opacity="0"/></linearGradient><path fill="url(#SVGID_00000029746616092293095930000002845902429400532653_)" d="M383.1,414c-0.1,0.6-0.1,1.1-0.1,1.7 c0,21.7-3.8,43.2-11.7,64c-59.3,12.8-94.3,12.4-110.3-26c-1.2-2.8-1.9-8.7-2.1-13.2c0.3-8.2,1.8-16.5,4.6-24.2l0,0 c5.2-13.9,13.2-25.7,22.9-36.7c6.5-7.3,6.5-7.3,0,0c1.7-1.9,3.4-3.7,5-5.5c1.1-1.2,1.1-1.2,0,0c0.8-0.9,2.5-2.6,2.5-2.6 c7.7-8,13.8-13.7,17.8-19l0,0c3.3-4.4,4.9-8.6,1.2-12.4c-3.7-3.8-10.2-5.7-10.6-5.7c-28-8-91.4,6-154,13.6 c-0.2,0-0.5,0.1-0.8,0.1c-7.6,0.9-15.1,1.8-22.6,2.4c-27,2.5-62.8,4.3-90.6-4.5c0.3-1,0.8-2,1.3-3 c40.2-91.8,147.3-133.6,239.1-93.3c16.9,7.4,32.6,17.4,46.6,29.6c4.1,3.6,8,7.4,11.8,11.3C364.9,323.9,382.7,368,383.1,414 L383.1,414z"/></g><path fill="#b2dcff" d="M780,474.4c-111.4-21.1-189.5-2.4-236.8,14.4c-129.5,46-272.6,103.2-285.1-45.7c-0.2-2,0.4-5.5,0.7-7.9 c-0.1,4,0.7,13.4,2.2,17.1c17.6,42.5,58.4,38.5,129.6,21.7c3.3-0.8,6.7-1.6,10-2.6c97.8-27.1,190.1-28.4,260.3-21.6l0,0 C716,455.2,760.1,467.8,780,474.4L780,474.4z"/><g id="g529" class="st15"><linearGradient id="SVGID_00000129892190437410740140000017419819889958163336_" x1="1718.708" x2="1818.468" y1="663.106" y2="476.885" gradientTransform="matrix(1 0 0 1 0 -504)" gradientUnits="userSpaceOnUse"><stop offset="0" stop-color="#3d8ae5"/><stop offset=".09" stop-color="#3c76e1"/><stop offset=".25" stop-color="#3a55db"/><stop offset=".42" stop-color="#393cd6"/><stop offset=".6" stop-color="#382ad2"/><stop offset=".79" stop-color="#381fd0"/><stop offset="1" stop-color="#381cd0"/></linearGradient><path fill="url(#SVGID_00000129892190437410740140000017419819889958163336_)" d="M1837,0c18.3,18.3,29.7,43.5,29.7,71.4c0,55.7-45.2,100.9-101,100.9s-101-45.2-101-100.9c0-27.9,11.3-53.2,29.7-71.4H1837z" enable-background="new" opacity=".7"/><linearGradient id="SVGID_00000111181942524808766520000014572428071799959433_" x1="1680.718" x2="1903.228" y1="715.311" y2="339.341" gradientTransform="matrix(1 0 0 1 0 -504)" gradientUnits="userSpaceOnUse"><stop offset="0" stop-color="#3d8ae5"/><stop offset=".37" stop-color="#3a5bdc"/><stop offset=".79" stop-color="#382dd3"/><stop offset="1" stop-color="#381cd0"/></linearGradient><path fill="url(#SVGID_00000111181942524808766520000014572428071799959433_)" d="M1866.6,71.4c0,55.7-50.7,77.8-89.3,37.3c-61-63.8-112.7,18.4-112.7-37.3c0-27.9,11.3-53.2,29.7-71.4H1837 C1855.3,18.3,1866.6,43.5,1866.6,71.4L1866.6,71.4z" enable-background="new" opacity=".7"/><linearGradient id="SVGID_00000181797517709652111040000000607580885259101834_" x1="1749.279" x2="1824.429" y1="624.899" y2="416.729" gradientTransform="matrix(1 0 0 1 0 -504)" gradientUnits="userSpaceOnUse"><stop offset="0" stop-color="#3d8ae5"/><stop offset=".09" stop-color="#3c76e1"/><stop offset=".25" stop-color="#3a55db"/><stop offset=".42" stop-color="#393cd6"/><stop offset=".6" stop-color="#382ad2"/><stop offset=".79" stop-color="#381fd0"/><stop offset="1" stop-color="#381cd0"/></linearGradient><path fill="url(#SVGID_00000181797517709652111040000000607580885259101834_)" d="M1866.6,71.5c0,55.7-22.5-8.8-66.8-43c-60-46.4-102.6,74.3-120,26.5c-6.8-18.6,0-38.9,15.1-54.9h141.9 C1855.3,18.3,1866.6,43.5,1866.6,71.5L1866.6,71.5z" enable-background="new" opacity=".7"/><linearGradient id="SVGID_00000059292837377835554170000011472423289184987812_" x1="1553.546" x2="1910.036" y1="755.135" y2="453.395" gradientTransform="matrix(1 0 0 1 0 -504)" gradientUnits="userSpaceOnUse"><stop offset="0" stop-color="#ffdb84" stop-opacity=".8"/><stop offset=".15" stop-color="#fee080" stop-opacity=".56"/><stop offset=".29" stop-color="#fde47d" stop-opacity=".36"/><stop offset=".43" stop-color="#fce77b" stop-opacity=".21"/><stop offset=".55" stop-color="#fcea7a" stop-opacity=".09"/><stop offset=".66" stop-color="#fceb79" stop-opacity=".02"/><stop offset=".73" stop-color="#fcec79" stop-opacity="0"/></linearGradient><path fill="url(#SVGID_00000059292837377835554170000011472423289184987812_)" d="M1866.6,71.4 c0,55.7-45.2,100.9-101,100.9s-101-45.2-101-100.9c0-27.9,11.3-53.2,29.7-71.4H1837C1855.3,18.3,1866.6,43.5,1866.6,71.4z"/></g></g><path fill="#f6fbff" d="M1253.3,484.6c-3.1,12.1-16,17.6-28.3,20.3c-20.7-5.8-41.2-12.5-61.4-17.9c-0.5-2-0.9-3.8-1.1-5.1 c-0.2-1,0.5-2,1.5-2.1c21.6,0,39.3-7.5,56.7-20.5c0.8-0.6,1.9-0.5,2.5,0.3c5.8,7.5,19.2,23.3,26.2,23.3c0.5,0,1-0.1,1.4-0.3 c0.9-0.4,2,0,2.4,0.9C1253.4,483.8,1253.4,484.2,1253.3,484.6z" enable-background="new" opacity=".31"/><g id="g667"><g id="g653" opacity=".15"><path id="path651" d="M274.6,143l-9.5,25.1c-0.5,1.4-1.9,2.5-3.5,2.5c-0.8,0-1.5-0.3-2.2-0.6l-36.1-11.9V158 l37.3,11.7c0.3,0.1,0.6,0.1,0.9,0.1c1.2,0,2.5-0.8,2.9-2c1-2.8,6.5-16.6,6.5-16.6L274.6,143L274.6,143z" class="st4"/></g><linearGradient id="path655_00000156556170542384077320000013014973717450814615_" x1="420.72" x2="117.89" y1="676.35" y2="633.79" gradientTransform="matrix(1 0 0 1 0 -504)" gradientUnits="userSpaceOnUse"><stop offset="0" stop-color="#7399f9"/><stop offset=".23" stop-color="#7197f7" stop-opacity=".99"/><stop offset=".37" stop-color="#6e92f3" stop-opacity=".96"/><stop offset=".48" stop-color="#678aec" stop-opacity=".9"/><stop offset=".58" stop-color="#5e7fe2" stop-opacity=".82"/><stop offset=".67" stop-color="#5270d4" stop-opacity=".71"/><stop offset=".76" stop-color="#435ec4" stop-opacity=".59"/><stop offset=".84" stop-color="#3148b0" stop-opacity=".43"/><stop offset=".91" stop-color="#1d2f9a" stop-opacity=".26"/><stop offset=".98" stop-color="#061381" stop-opacity=".06"/><stop offset="1" stop-color="#000b7a" stop-opacity="0"/></linearGradient><path id="path655" fill="url(#path655_00000156556170542384077320000013014973717450814615_)" d="M349.1,100.7 c-29.2-6.2-68-4.8-100.9,2.5c2.2,25.6-1.1,45.2-8.1,60.5l19.7,6.4l-21.4-2.7c-4.5,8.6-10.2,15.8-16.9,21.9 c0,0,35.5,24.6,57.5,24.8C312.7,194.4,350.8,139.7,349.1,100.7L349.1,100.7z"/><path id="path657" d="M259.3,108.8c16.6-1.8,50.8-3.5,72.5-0.8c3.3,0.4,5.7,3.4,5.2,6.7v0.2 c-0.4,3.3-3.5,5.7-6.8,5.1c-15.4-2.5-48.6-4.8-71.7-3.5c-1.4,0.1-2.4-0.9-2.8-2.2c0-0.1-0.1,0.1-0.1-0.3 C255,111.4,256.8,109.1,259.3,108.8L259.3,108.8z" class="st23"/><path id="path659" d="M333.2,127.2c-12.1-3-53.2-6.7-76.9-7.1c0,3.7-0.5,6.2-0.9,9c6.4,0.8,19.5,2.8,32.2,5.1 c-3.4,9.4-10.3,25.8-11.9,29.1c1.4,0.7,29,9.9,31.5,10.8c9.8-10.6,17.4-25.4,20.2-32.2c0,0,0.1,0,0.1,0.1 C330.3,136.4,331.3,132.8,333.2,127.2L333.2,127.2z" class="st23"/><path id="path661" d="M244.1,172.5c6.2,2.6,12.8,5.4,22.4,8.8c1.8-3.2,5.9-9,7.6-13.1c9.9,3.4,26.9,9.2,30.5,10.8 c-3.5,3.9-21.6,23.2-27.4,26c-9.5-0.7-41.6-16.8-43.2-17.9C235.1,185.8,244.1,172.5,244.1,172.5L244.1,172.5z" class="st23"/><g id="g665" opacity=".39"><path id="path663" fill="#ffff83" d="M349.1,100.7c0.2,5.8-0.3,11.5-1.5,17.2s-2.8,11.2-4.8,16.6c-4,10.9-9.5,21.1-15.8,30.8 s-13.4,18.8-21.5,27.1c-4,4.1-8.2,8.1-12.6,11.8s-9.2,7-14.1,9.9c-2.6,0-5.2-0.4-7.9-1c-2.5-0.5-5.1-1.2-7.7-2.1 c-5-1.6-9.9-3.7-14.6-6c-4.8-2.3-9.4-4.8-13.9-7.4s-9-5.4-13.4-8.4l0.1-0.1c4.4,2.9,8.9,5.6,13.5,8.2c4.6,2.6,9.2,5,14,7.2 c4.8,2.3,9.6,4.3,14.6,5.9c2.5,0.8,5,1.5,7.6,2s5.2,0.9,7.7,0.9l-0.2,0.1c5-2.9,9.6-6.3,14-10s8.6-7.6,12.5-11.8 c8-8.3,15.2-17.3,21.5-27s11.8-19.8,15.9-30.6c0.5-1.3,1-2.7,1.5-4.1s0.9-2.7,1.3-4.1l0.6-2.1c0.2-0.7,0.3-1.4,0.5-2.1l0.5-2.1 l0.5-2.1C348.6,112.2,349.2,106.5,349.1,100.7L349.1,100.7z"/></g></g><linearGradient id="path649_00000133522004288904461970000009857403152804912271_" x1="264.23" x2="187.88" y1="648.261" y2="675.381" gradientTransform="matrix(1 0 0 1 0 -504)" gradientUnits="userSpaceOnUse"><stop offset="0" stop-color="#7399f9"/><stop offset=".23" stop-color="#7197f7" stop-opacity=".99"/><stop offset=".37" stop-color="#6e92f3" stop-opacity=".96"/><stop offset=".48" stop-color="#678aec" stop-opacity=".9"/><stop offset=".58" stop-color="#5e7fe2" stop-opacity=".82"/><stop offset=".67" stop-color="#5270d4" stop-opacity=".71"/><stop offset=".76" stop-color="#435ec4" stop-opacity=".59"/><stop offset=".84" stop-color="#3148b0" stop-opacity=".43"/><stop offset=".91" stop-color="#1d2f9a" stop-opacity=".26"/><stop offset=".98" stop-color="#061381" stop-opacity=".06"/><stop offset="1" stop-color="#000b7a" stop-opacity="0"/></linearGradient><path id="path649" fill="url(#path649_00000133522004288904461970000009857403152804912271_)" d="M221.1,153.7 c-0.5,1.9,0.6,3.8,2.4,4.4l37.1,12.2c1.9,0.6,3.9-0.3,4.5-2.1l9.5-25.2c0.8-2-0.4-4.2-2.5-4.8l-38.9-7.7c-2.4-0.6-4.7,0.8-5.4,3.1 L221.1,153.7L221.1,153.7z"/><linearGradient id="SVGID_00000140705209601106950850000004812264769603284118_" x1="239.203" x2="257.641" y1="651.864" y2="651.864" gradientTransform="matrix(1 0 0 1 0 -504)" gradientUnits="userSpaceOnUse"><stop offset="0" stop-color="#ffe421"/><stop offset=".18" stop-color="#fec528"/><stop offset=".4" stop-color="#fda630"/><stop offset=".61" stop-color="#fc8f35"/><stop offset=".82" stop-color="#fc8238"/><stop offset="1" stop-color="#fc7e3a"/></linearGradient><path fill="url(#SVGID_00000140705209601106950850000004812264769603284118_)" d="M239.3,151l2.6-7.4c0.4-1.1,1.7-1.5,2.6-0.9l12.7,8.6c0.7,0.5,0.4,1.5-0.5,1.5l-15.8,0.5C239.8,153.4,238.9,152.2,239.3,151 L239.3,151z" enable-background="new" opacity=".8"/><polygon fill="#ffa466" points="235.9 145.5 253.3 151.1 234.6 146.5"/><g id="g619"><linearGradient id="path599_00000008143885039482065190000005609116053406675386_" x1="1586.937" x2="1426.657" y1="746.243" y2="613.893" gradientTransform="matrix(1 0 0 1 0 -504)" gradientUnits="userSpaceOnUse"><stop offset="0" stop-color="#6789df"/><stop offset=".24" stop-color="#6587dd" stop-opacity=".99"/><stop offset=".38" stop-color="#6282da" stop-opacity=".95"/><stop offset=".5" stop-color="#5b7ad3" stop-opacity=".89"/><stop offset=".6" stop-color="#526fca" stop-opacity=".8"/><stop offset=".7" stop-color="#4660be" stop-opacity=".68"/><stop offset=".78" stop-color="#374eb0" stop-opacity=".54"/><stop offset=".87" stop-color="#25399f" stop-opacity=".37"/><stop offset=".94" stop-color="#11208b" stop-opacity=".17"/><stop offset="1" stop-color="#000b7a" stop-opacity="0"/></linearGradient><path id="path599" fill="url(#path599_00000008143885039482065190000005609116053406675386_)" d="M1526.3,138.1c-14.1,25.1-49.4,57-80.4,69c0,0,15,34.2,34.1,41.8c10.3-1.5,21.2-4.4,33.5-9.1l-2.3-8.9l5.2,7.8 c38.7-14.7,82-42.1,100-68.9C1598,153.9,1559,140.5,1526.3,138.1L1526.3,138.1z" enable-background="new" opacity=".7"/><path id="path601" d="M1461.7,207.6c17.5-8.8,51.1-31.7,65.9-55.4c1.3-2,3.8-2.7,5.9-1.6 C1555.2,154.4,1447.8,234.3,1461.7,207.6z" class="st23"/><path id="path603" d="M1492.3,202.4c20.3-13.5,41.9-31.2,51-48.8c11.9,1.6,51.1,16.1,54.8,17.8 c-7.2,12.5-32.7,31.1-44.4,36.7c-3.8-4.2-26.7-18.5-26.7-18.5s-12.6,8.9-30.3,18.9C1495.5,205.9,1493.9,204.2,1492.3,202.4z" class="st23"/><path id="path605" d="M1464.8,217.3c8.2-3.4,24-13.1,24-13.1l20.3,29.4c0,0-19.2,6.8-25.5,6.9 C1475.7,235.2,1464.8,217.3,1464.8,217.3L1464.8,217.3z" class="st23"/><linearGradient id="SVGID_00000152249976358071820110000012160889226602781360_" x1="1577.943" x2="1484.173" y1="776.179" y2="665.109" gradientTransform="matrix(1 0 0 1 0 -504)" gradientUnits="userSpaceOnUse"><stop offset="0" stop-color="#7399f9"/><stop offset=".23" stop-color="#7197f7" stop-opacity=".99"/><stop offset=".37" stop-color="#6e92f3" stop-opacity=".96"/><stop offset=".48" stop-color="#678aec" stop-opacity=".9"/><stop offset=".58" stop-color="#5e7fe2" stop-opacity=".82"/><stop offset=".67" stop-color="#5270d4" stop-opacity=".71"/><stop offset=".76" stop-color="#435ec4" stop-opacity=".59"/><stop offset=".84" stop-color="#3148b0" stop-opacity=".43"/><stop offset=".91" stop-color="#1d2f9a" stop-opacity=".26"/><stop offset=".98" stop-color="#061381" stop-opacity=".06"/><stop offset="1" stop-color="#000b7a" stop-opacity="0"/></linearGradient><path fill="url(#SVGID_00000152249976358071820110000012160889226602781360_)" d="M1503.7,212.4l24.1-15.5 c0.4-0.2,0.8-0.2,1.2,0c3.8,2.5,24.4,16.1,34.1,25c0.6,0.5,0.4,1.5-0.3,1.8c-27.8,12.3-36.3,15.6-38.6,16.4c-0.5,0.2-1,0-1.3-0.4 l-19.5-25.8C1503,213.5,1503.1,212.7,1503.7,212.4L1503.7,212.4z"/><g class="st31"><path d="M1542.8,224.4c0,1.3-0.5,2.7-1.5,3.8c-0.9,0.9-2.8,2.8-4.1,1.9c-5.9-3.9-7.8-9.6-16.8-3.8 c0.1-0.1-0.1-0.1-0.3-0.2c0,0,0,0-0.1,0c1.2-1.8,3-2.8,3.2-4.7c0.3-2.7-1.2-4.7-2.9-6.2c-1-0.9-3.3-2.5-2.7-3.9 c0.4-0.9,1.5-1.1,2.4-1.6c1-0.5,1.1-1,2-1.6c0.9-0.5,1.8-0.4,2.7-0.3c0.8,0.2,1.7,0.4,2.6,0.4c0.3,0,0.6-0.1,0.9-0.1l0,0 c1.2-0.2,2.5-0.3,3.6,0.1c0.2,0.1,0.4,0.2,0.6,0.3c1.2,0.8,1.6,2.2,1.3,3.4c-0.2,0.9-1.7,2.2-1.3,3.2c1.9-0.4,2.3-2.7,3.8-3.4 c1-0.5,2-0.3,2.8,0.3c1.1,0.7,1.9,2,2,3c0.1,1.2-1.1,2.3-0.8,3.7c0.3,1.2,1.5,2.1,2,3.4C1542.7,222.8,1542.9,223.6,1542.8,224.4 L1542.8,224.4z" class="st32"/><linearGradient id="SVGID_00000019641592586898582730000014001398204559766162_" x1="1656.483" x2="1657.663" y1="857.019" y2="866.639" gradientTransform="matrix(0.7709 0.1729 -0.1794 0.8001 409.0701 -754.9879)" gradientUnits="userSpaceOnUse"><stop offset="0" stop-color="#ffe421"/><stop offset=".27" stop-color="#fdbf2a"/><stop offset=".58" stop-color="#fc9b32"/><stop offset=".84" stop-color="#fc8538"/><stop offset="1" stop-color="#fc7e3a"/></linearGradient><path fill="url(#SVGID_00000019641592586898582730000014001398204559766162_)" d="M1542.8,224.4c0,1.3-0.5,2.7-1.5,3.8c-0.9,0.9-2.8,2.8-4.1,1.9c-5.9-3.9-7.8-9.6-16.8-3.8c0.1-0.1-0.1-0.1-0.3-0.2 C1530.8,216.8,1540,222.3,1542.8,224.4z" enable-background="new" opacity=".5"/><linearGradient id="SVGID_00000155858733330389531000000000150391002586704528_" x1="1655.297" x2="1653.287" y1="830.854" y2="883.264" gradientTransform="matrix(0.7709 0.1729 -0.1794 0.8001 409.0701 -754.9879)" gradientUnits="userSpaceOnUse"><stop offset=".18" stop-color="#ffe421"/><stop offset=".41" stop-color="#fdbf2a"/><stop offset=".66" stop-color="#fc9b32"/><stop offset=".87" stop-color="#fc8538"/><stop offset="1" stop-color="#fc7e3a"/></linearGradient><path fill="url(#SVGID_00000155858733330389531000000000150391002586704528_)" d="M1539.2,212c-3.8,6-8.4,6-18.2,13.4c7.6-7.2,10.8-13.6,10.9-17.2c0.2,0.1,0.4,0.2,0.6,0.3c1.2,0.8,1.6,2.2,1.3,3.4 c-0.2,0.9-1.7,2.2-1.3,3.2c1.9-0.4,2.3-2.7,3.8-3.4C1537.3,211.2,1538.3,211.5,1539.2,212L1539.2,212z" enable-background="new" opacity=".5"/><linearGradient id="SVGID_00000103953980560578010930000004443317549508623032_" x1="1638.47" x2="1655.6" y1="833.215" y2="872.515" gradientTransform="matrix(0.7709 0.1729 -0.1794 0.8001 409.0701 -754.9879)" gradientUnits="userSpaceOnUse"><stop offset="0" stop-color="#ffe421"/><stop offset=".27" stop-color="#fdbf2a"/><stop offset=".58" stop-color="#fc9b32"/><stop offset=".84" stop-color="#fc8538"/><stop offset="1" stop-color="#fc7e3a"/></linearGradient><path fill="url(#SVGID_00000103953980560578010930000004443317549508623032_)" d="M1524.3,222.1c3.8-10.1,1.4-12.8,0.5-14.2c0.8,0.2,1.7,0.4,2.6,0.4c0.3,0,0.6-0.1,0.9-0.1 C1528.3,211.4,1527.7,218.8,1524.3,222.1L1524.3,222.1z" enable-background="new" opacity=".5"/><path d="M1540.8,223.1c-5.5-3.1-12.4-2.4-17.6,0.9c-0.8,0.5-1.5,1-2.2,1.5c1-0.8,2.1-1.7,3.3-2.3 C1529.2,220.2,1535.9,219.9,1540.8,223.1L1540.8,223.1L1540.8,223.1z" class="st36"/><g class="st15"><path d="M1528.3,209.2c0,4-0.7,8.3-3.1,11.7C1527.3,217.3,1527.9,213.2,1528.3,209.2L1528.3,209.2z" class="st36"/></g><g class="st15"><path d="M1534.5,215c-4.2,3.5-8.6,6.8-13,9.9C1525.7,221.5,1530.1,218.2,1534.5,215L1534.5,215z" class="st36"/></g><linearGradient id="SVGID_00000108276710893826869590000014712255397965905547_" x1="1655.421" x2="1653.531" y1="885.109" y2="846.479" gradientTransform="matrix(0.7709 0.1729 -0.1794 0.8001 409.0701 -754.9879)" gradientUnits="userSpaceOnUse"><stop offset=".14" stop-color="#6789df"/><stop offset=".19" stop-color="#5472cd" stop-opacity=".82"/><stop offset=".25" stop-color="#415ab9" stop-opacity=".63"/><stop offset=".32" stop-color="#2f45a8" stop-opacity=".46"/><stop offset=".4" stop-color="#20339a" stop-opacity=".32"/><stop offset=".48" stop-color="#14248e" stop-opacity=".2"/><stop offset=".57" stop-color="#0b1985" stop-opacity=".11"/><stop offset=".67" stop-color="#04117e" stop-opacity=".05"/><stop offset=".79" stop-color="#010c7b" stop-opacity=".01"/><stop offset="1" stop-color="#000b7a" stop-opacity="0"/></linearGradient><path fill="url(#SVGID_00000108276710893826869590000014712255397965905547_)" d="M1542.8,224.4c0,1.3-0.5,2.7-1.5,3.8 c-0.9,0.9-2.8,2.8-4.1,1.9c-5.9-3.9-7.8-9.6-16.8-3.8c0.1-0.1-0.1-0.1-0.3-0.2c0,0,0,0-0.1,0c1.2-1.8,3-2.8,3.2-4.7 c0.3-2.7-1.2-4.7-2.9-6.2c-1-0.9-3.3-2.5-2.7-3.9c0.4-0.9,1.5-1.1,2.4-1.6c1-0.5,1.1-1,2-1.6c0.9-0.5,1.8-0.4,2.7-0.3 c0.8,0.2,1.7,0.4,2.6,0.4c0.3,0,0.6-0.1,0.9-0.1l0,0c1.2-0.2,2.5-0.3,3.6,0.1c0.2,0.1,0.4,0.2,0.6,0.3c1.2,0.8,1.6,2.2,1.3,3.4 c-0.2,0.9-1.7,2.2-1.3,3.2c1.9-0.4,2.3-2.7,3.8-3.4c1-0.5,2-0.3,2.8,0.3c1.1,0.7,1.9,2,2,3c0.1,1.2-1.1,2.3-0.8,3.7 c0.3,1.2,1.5,2.1,2,3.4C1542.7,222.8,1542.9,223.6,1542.8,224.4L1542.8,224.4z"/></g><g class="st38"><path fill="#ffffae" d="M1532.1,138.6c28.2,3.7,62.1,12.3,84.1,31l0.3,0.3l-0.3,0.4c-12.6,18.5-34.5,35.3-55.7,47.6 c15.7-9.6,30.4-20.8,43.2-34.1c4.2-4.4,8.2-9.1,11.7-14.1l0.1,0.6C1593.5,151.8,1560.1,143.2,1532.1,138.6L1532.1,138.6 L1532.1,138.6z"/></g></g><g id="stars"><circle cx="35.5" cy="257.2" r="1.1" class="st40"/><circle cx="376.5" cy="296.4" r="1.9" class="st41"/><circle cx="626.8" cy="258.5" r="1.3" class="st42"/><circle cx="676.4" cy="412.8" r="1.3" class="st42"/><circle cx="439.9" cy="87" r="1.5" class="st43"/><circle cx="1422.5" cy="228.2" r="3.4" fill="#fff" enable-background="new" opacity=".66"/><circle cx="179.2" cy="96.8" r="2.6" class="st45"/><circle cx="1161.2" cy="64.1" r="2.8" class="st46"/><circle cx="1342.4" cy="122" r="2.4" fill="#fff" enable-background="new" opacity=".81"/><circle cx="1670.3" cy="175.4" r="2.5" class="st46"/><circle cx="1905.6" cy="102" r="3.5" fill="#fff" enable-background="new" opacity=".69"/><circle cx="1859" cy="197.2" r=".7" fill="#fff" enable-background="new" opacity=".73"/><circle cx="778.7" cy="354.3" r="2.1" class="st45"/><circle cx="918" cy="438.2" r=".6" class="st41"/><circle cx="1501.3" cy="77.2" r="2.9" class="st42"/><circle cx="1392.8" cy="475.9" r="1.2" class="st50"/><circle cx="1074.8" cy="380.3" r="2.9" class="st42"/><circle cx="376.5" cy="217.6" r="1.3" class="st43"/><circle cx="306.7" cy="30.5" r="1.7" class="st40"/><circle cx="710.3" cy="214.7" r="2.9" class="st51"/><circle cx="944.8" cy="68.4" r="1.8" fill="#fff" enable-background="new" opacity=".71"/><circle cx="1176.7" cy="206.7" r="1.1" class="st53"/><circle cx="622.9" cy="59.6" r="2.6" class="st43"/><circle cx="577.7" cy="204.4" r="2.3" class="st53"/><circle cx="1612.3" cy="225.6" r="1.2" class="st50"/><circle cx="797" cy="83.5" r="3.5" fill="#fff" enable-background="new" opacity=".61"/><circle cx="1608.4" cy="24.6" r=".8" class="st51"/><circle cx="48.8" cy="73.7" r="3.1" class="st53"/><circle cx="1005.8" cy="157.8" r=".8" class="st50"/><circle cx="1253.3" cy="52.2" r=".9" class="st46"/><circle cx="418.8" cy="435.3" r="2.3" class="st43"/><circle cx="623.6" cy="345.3" r=".6" fill="#fff" enable-background="new" opacity=".62"/><circle cx="1278.2" cy="402.8" r="1.1" fill="#fff" enable-background="new" opacity=".84"/><circle cx="1118.9" cy="262" r="3.4" fill="#fff" enable-background="new" opacity=".63"/></g></g><g class="st15"><path d="M1479.6,426.7c-4,2.2-7.4,2.7-11.9,2.7l0,0c-9.5-0.1-17.8-1.6-33.3,4.2c-1.3,0.5-2.6,1-4,1.6 c-11.8,5.1-16.1,23.4-28.8,18.2c-7.9-2.9-12.4-8.5-12.5-8.6c-4.1-4.7-6.2-10-6-15.9c0.3-11.5-15.2-13.3-8.9-21.9 c4.3-5.9,6.7-5.8,9-9.4c4.3-4.6-3-10.5-3.4-17.2c-0.6-8.7,8.7-9.6,13.3-14.9c4.4-5.1,2.7-15.1,14.2-11.4c2.2,0.7,4.3,1.5,6.8,0.9 c4.6-1.1,6.8-6.8,12.7-7.1c14.6-0.8,12.4,24.7,12,38c-0.4,12.9-0.7,18.3,6,26.6l0,0C1452.1,421.1,1464.8,423.7,1479.6,426.7 L1479.6,426.7z" class="st58"/><linearGradient id="SVGID_00000109716972206322185950000017800576693431799952_" x1="1140.483" x2="1203.033" y1="813.681" y2="900.511" gradientTransform="matrix(0.9096 -0.4155 0.4155 0.9096 -38.7306 120.2292)" gradientUnits="userSpaceOnUse"><stop offset=".4" stop-color="#ffe421"/><stop offset=".51" stop-color="#fed724"/><stop offset=".71" stop-color="#fdb62c"/><stop offset=".98" stop-color="#fc8139"/><stop offset="1" stop-color="#fc7e3a"/></linearGradient><path fill="url(#SVGID_00000109716972206322185950000017800576693431799952_)" d="M1453.6,424c-28.7-2.8-57.3,10.6-63.3,22.1l0,0c-0.4-0.4-0.8-0.8-1.2-1.2l0,0c-3.7-4.2-6.2-9.6-6-15.9 c0.3-11.5-15.2-13.3-8.9-21.9c4.3-5.9,6.7-5.8,9-9.4C1393.4,408.7,1439.3,420.5,1453.6,424L1453.6,424z" enable-background="new" opacity=".8"/><linearGradient id="SVGID_00000168085703607571844370000001856701989431186348_" x1="1208.823" x2="1208.143" y1="843.805" y2="900.935" gradientTransform="matrix(0.9096 -0.4155 0.4155 0.9096 -38.7306 120.2292)" gradientUnits="userSpaceOnUse"><stop offset=".4" stop-color="#ffe421"/><stop offset=".51" stop-color="#fed724"/><stop offset=".71" stop-color="#fdb62c"/><stop offset=".98" stop-color="#fc8139"/><stop offset="1" stop-color="#fc7e3a"/></linearGradient><path fill="url(#SVGID_00000168085703607571844370000001856701989431186348_)" d="M1479.6,426.7 c-13.2,7.3-21.4-3.6-49.3,8.5c-11,4.8-15.7,21.5-26.5,18.9c-0.3-0.1-0.6-0.2-1-0.3c-0.3-0.1-0.6-0.2-1-0.3c-0.8-0.3-1.7-0.6-2.5-1 c-3.7-1.7-7.4-4.3-10.3-7.6l0,0c-0.6-0.6-1.1-1.3-1.6-2c0,0,0,0,0-0.1c-2.3-3.2-3.9-7-4.3-11.2 C1385.9,427.8,1437.5,418,1479.6,426.7L1479.6,426.7z"/><g class="st15"><path d="M1399,377c17.5,21.4,40.2,40.8,67.8,46.9c-3.5-0.5-6.9-1.2-10.3-2.2C1432.9,414.3,1413.1,396.9,1399,377 L1399,377L1399,377z" class="st36"/></g><g class="st15"><path d="M1393.4,442.1c21.2-11.9,48.1-17.4,72.3-16.5c-3.1,0.5-6.2,0.8-9.2,1.2 C1435,429.7,1413.7,434.6,1393.4,442.1L1393.4,442.1L1393.4,442.1z" class="st36"/></g><g class="st15"><path d="M1386.7,400.9c20.9,9.4,42.5,17.1,64.9,21.8c2.3,0.4,4.8,0.9,7,1.4c-2.3-0.1-4.8-0.2-7.2-0.4 c-7.1-0.7-14.3-2-21.2-3.8C1415,415.7,1400,409.7,1386.7,400.9L1386.7,400.9L1386.7,400.9z" class="st36"/></g><linearGradient id="SVGID_00000101784246761787939580000007521189407076810371_" x1="1147.007" x2="1259.207" y1="947.998" y2="820.458" gradientTransform="matrix(0.9096 -0.4155 0.4155 0.9096 -38.7306 120.2292)" gradientUnits="userSpaceOnUse"><stop offset=".26" stop-color="#6789df"/><stop offset=".27" stop-color="#5e7fd7" stop-opacity=".92"/><stop offset=".3" stop-color="#4b66c3" stop-opacity=".73"/><stop offset=".33" stop-color="#3950b2" stop-opacity=".55"/><stop offset=".36" stop-color="#293da2" stop-opacity=".4"/><stop offset=".4" stop-color="#1c2d96" stop-opacity=".28"/><stop offset=".44" stop-color="#12218b" stop-opacity=".17"/><stop offset=".49" stop-color="#091783" stop-opacity=".1"/><stop offset=".54" stop-color="#04107e" stop-opacity=".04"/><stop offset=".62" stop-color="#000c7a" stop-opacity="0"/><stop offset=".81" stop-color="#000b7a" stop-opacity="0"/></linearGradient><path fill="url(#SVGID_00000101784246761787939580000007521189407076810371_)" d="M1479.6,426.7c-4,2.2-7.4,2.7-11.9,2.7l0,0c-4.1,0-6.7-0.4-11.8-0.2c-8.8,0.3-19,3.2-21.5,4.5c-1.3,0.5-2.6,1-4,1.6 c-11.8,5.1-16.1,23.4-28.8,18.2c-7.9-2.9-12.4-8.5-12.5-8.6c-4.3-4.9-6.2-10.3-6-15.9c0.3-11.5-15.2-13.3-8.9-21.9 c4.3-5.9,6.7-5.8,9-9.4c4.3-4.6-3-10.5-3.4-17.2c-0.6-8.7,8.7-9.6,13.3-14.9c5.6-10.5,5.4-14.2,14.2-11.4c2.2,0.7,4.3,1.5,6.8,0.9 c4.6-1.1,6.8-6.8,12.7-7.1c14.6-0.8,12.4,24.7,12,38c-0.7,11.4-0.2,19,6,26.6l0,0C1452.1,421.1,1464.8,423.7,1479.6,426.7 L1479.6,426.7z" enable-background="new" opacity=".7"/></g><g class="st38"><path d="M422.3,185.5c1.9-0.9,3.5-0.8,5.5-0.3l0,0c4.2,1,7.9,2.8,16.2,1c0.7-0.1,1.5-0.3,2.3-0.6 c7.2-2,14.6-14.6,20.6-9.2c3.8,3,4.5,7.5,4.6,7.6c0.8,3.7,0.2,7.4-1.8,11c-3.6,6.5,4.1,9.5-1.8,13.1c-3.8,2.3-4.9,1.9-6.9,3.3 c-3.1,1.5-1.1,5-2.4,7.8c-1.6,3.4-5.7,2.6-8.6,4c-2.6,1.2-3.5,4.8-7.3,2.2c-0.7-0.5-1.4-1-2.4-1.1c-1.9-0.2-3.3,1.4-5.5,0.9 c-5.2-1.4-1.8-10.1-0.1-15.3c1.8-5.6,2.7-8.1,1-12.9l0,0C433.7,191.4,428.4,188.7,422.3,185.5L422.3,185.5z" class="st58"/><linearGradient id="SVGID_00000083806846538220645970000008605577291505283762_" x1="455.891" x2="485.291" y1="-324.765" y2="-283.945" gradientTransform="matrix(-0.9968 7.950298e-02 -7.950298e-02 -0.9968 911.18 -137.9587)" gradientUnits="userSpaceOnUse"><stop offset=".4" stop-color="#ffe421"/><stop offset=".51" stop-color="#fed724"/><stop offset=".71" stop-color="#fdb62c"/><stop offset=".98" stop-color="#fc8139"/><stop offset="1" stop-color="#fc7e3a"/></linearGradient><path fill="url(#SVGID_00000083806846538220645970000008605577291505283762_)" d="M433.4,189.7c12.8,4.7,30.7,0.2,37.8-6.7 l0,0c0.1,0.3,0.2,0.6,0.3,1l0,0c0.7,3.3,0.3,7.1-1.8,11c-3.6,6.5,4.1,9.5-1.8,13.1c-3.8,2.3-4.9,1.9-6.9,3.3 C458.8,204.8,439.4,193.1,433.4,189.7L433.4,189.7z"/><linearGradient id="SVGID_00000054987337234039905230000001154970010167773592_" x1="488.698" x2="488.328" y1="-312.123" y2="-280.763" gradientTransform="matrix(-0.9968 7.950298e-02 -7.950298e-02 -0.9968 911.18 -137.9587)" gradientUnits="userSpaceOnUse"><stop offset=".4" stop-color="#ffe421"/><stop offset=".51" stop-color="#fed724"/><stop offset=".71" stop-color="#fdb62c"/><stop offset=".98" stop-color="#fc8139"/><stop offset="1" stop-color="#fc7e3a"/></linearGradient><path fill="url(#SVGID_00000054987337234039905230000001154970010167773592_)" d="M422.3,185.5c6.2-2.8,8.9,4.2,24,0.1 c6.8-1.9,13.8-13.1,19.5-10c0.2,0.1,0.3,0.2,0.5,0.3s0.3,0.2,0.5,0.3c0.4,0.3,0.8,0.7,1.2,1c1.7,1.7,3,4,3.6,6.6l0,0 c0.1,0.5,0.2,1,0.2,1.6l0,0c0.2,2.4-0.1,5.1-1.3,7.8C467.8,195.3,439.8,194.7,422.3,185.5L422.3,185.5z"/><g class="st15"><path d="M449.7,218.1c-3.4-10.8-9.5-21.4-19-27.9c-0.7-0.5-2.4-1.4-3.1-1.8C439.4,193.7,446.6,205.9,449.7,218.1 L449.7,218.1L449.7,218.1z" class="st36"/></g><g class="st15"><path d="M468.1,185.3c-12.7,4.2-26.7,5.3-39.8,2.2c1.7,0.1,3.3,0.4,5,0.4C444.9,188.8,456.6,187.7,468.1,185.3 L468.1,185.3L468.1,185.3z" class="st36"/></g><g class="st15"><path d="M460.1,209.4c-7.4-7.2-15.7-13.6-24.9-18.3c-1.3-0.8-2.7-1.3-4-1.9C442.6,192.6,452.7,200.1,460.1,209.4 L460.1,209.4z" class="st36"/></g><linearGradient id="SVGID_00000077309311104691634690000013369310454818394009_" x1="453.455" x2="513.635" y1="-254.089" y2="-322.5" gradientTransform="matrix(-0.9968 7.950298e-02 -7.950298e-02 -0.9968 911.18 -137.9587)" gradientUnits="userSpaceOnUse"><stop offset=".29" stop-color="#6789df"/><stop offset=".29" stop-color="#6384db" stop-opacity=".96"/><stop offset=".33" stop-color="#4e6bc7" stop-opacity=".76"/><stop offset=".38" stop-color="#3b54b4" stop-opacity=".58"/><stop offset=".43" stop-color="#2b40a4" stop-opacity=".42"/><stop offset=".48" stop-color="#1e2f97" stop-opacity=".29"/><stop offset=".54" stop-color="#12228c" stop-opacity=".18"/><stop offset=".61" stop-color="#0a1784" stop-opacity=".1"/><stop offset=".68" stop-color="#04107e" stop-opacity=".04"/><stop offset=".79" stop-color="#010c7a" stop-opacity="0"/><stop offset="1" stop-color="#000b7a" stop-opacity="0"/></linearGradient><path fill="url(#SVGID_00000077309311104691634690000013369310454818394009_)" d="M422.3,185.5c1.9-0.9,3.5-0.8,5.5-0.3l0,0c1.8,0.4,3,0.9,5.3,1.4c4.1,0.8,9.5,0.1,10.9-0.4c0.7-0.1,1.5-0.3,2.3-0.6 c7.2-2,14.6-14.6,20.6-9.2c3.8,3,4.5,7.5,4.6,7.6c0.8,3.9,0.1,7.6-1.8,11c-3.6,6.5,4.1,9.5-1.8,13.1c-3.8,2.3-4.9,1.9-6.9,3.3 c-3.1,1.5-1.1,5-2.4,7.8c-1.6,3.4-5.7,2.6-8.6,4c-3.9,3-4.4,4.2-7.3,2.2c-0.7-0.5-1.4-1-2.4-1.1c-1.9-0.2-3.3,1.4-5.5,0.9 c-5.2-1.4-1.8-10.1-0.1-15.3c1.7-4.9,2.6-8.5,1-12.9l0,0C433.7,191.4,428.4,188.7,422.3,185.5L422.3,185.5z" enable-background="new" opacity=".7"/></g><g class="st38"><path d="M1555.6,303.2c1.2-0.6,2.1-0.5,3.4-0.2l0,0c2.6,0.7,4.7,1.8,9.7,0.6c0.4-0.1,0.9-0.2,1.4-0.4 c4.3-1.3,9.4-9.7,12.4-6c1.9,2,1.9,4.9,2,5c0.1,2.3-0.5,4.6-1.8,6.8c-2.4,3.9,1.4,5.5-1.9,7.6c-2.1,1.3-2.7,1.2-3.8,2 c-1.7,0.9-0.8,2.8-1.7,4.3c-1,1.9-3.1,1.5-4.6,2.3c-1.4,0.7-2,2.6-3.9,1.3c-0.4-0.2-0.7-0.5-1.2-0.5c-1,0-1.8,0.8-2.9,0.6 c-2.8-0.6-0.8-5.4,0.2-8.4c1.1-3.3,1.7-4.8,0.8-7.7l0,0C1562.4,307.1,1559.3,305.3,1555.6,303.2L1555.6,303.2z" class="st58"/><linearGradient id="SVGID_00000006668188172417616340000017381103645215824531_" x1="-639.845" x2="-623.655" y1="-513.739" y2="-491.259" gradientTransform="matrix(-0.9968 7.950298e-02 -7.950298e-02 -0.9968 911.18 -137.9587)" gradientUnits="userSpaceOnUse"><stop offset=".4" stop-color="#ffe421"/><stop offset=".51" stop-color="#fed724"/><stop offset=".71" stop-color="#fdb62c"/><stop offset=".98" stop-color="#fc8139"/><stop offset="1" stop-color="#fc7e3a"/></linearGradient><path fill="url(#SVGID_00000006668188172417616340000017381103645215824531_)" d="M1562.3,306c7.3,2.9,17.6,0,22-4.4l0,0 c0,0.2,0.1,0.4,0.1,0.6l0,0c0.1,2.1-0.4,4.5-1.8,6.8c-2.4,3.9,1.4,5.5-1.9,7.6c-2.1,1.3-2.7,1.2-3.8,2 C1576.1,314.8,1565.8,308.1,1562.3,306L1562.3,306z"/><linearGradient id="SVGID_00000121275576862866463370000007125108544769862790_" x1="-621.528" x2="-621.758" y1="-508.683" y2="-488.793" gradientTransform="matrix(-0.9968 7.950298e-02 -7.950298e-02 -0.9968 911.18 -137.9587)" gradientUnits="userSpaceOnUse"><stop offset=".4" stop-color="#ffe421"/><stop offset=".51" stop-color="#fed724"/><stop offset=".71" stop-color="#fdb62c"/><stop offset=".98" stop-color="#fc8139"/><stop offset="1" stop-color="#fc7e3a"/></linearGradient><path fill="url(#SVGID_00000121275576862866463370000007125108544769862790_)" d="M1555.6,303.2c3.8-1.9,5.4,2.7,14.5,0 c4-1.2,8.8-8.7,11.8-6.5c0.1,0.1,0.2,0.1,0.3,0.2c0.1,0.1,0.2,0.1,0.2,0.2c0.2,0.2,0.4,0.4,0.6,0.7c0.8,1.1,1.3,2.6,1.4,4.3l0,0 c0,0.3,0,0.6,0,1l0,0c-0.1,1.5-0.5,3.2-1.3,4.8C1581.6,309.2,1565.9,309.1,1555.6,303.2L1555.6,303.2z"/><g class="st15"><path d="M1570.6,322.4c-1.6-6.3-4.8-12.4-10.1-16.2c-0.4-0.2-1.3-0.8-1.7-1.1 C1565.4,308.3,1569.4,315.4,1570.6,322.4L1570.6,322.4L1570.6,322.4z" class="st36"/></g><g class="st15"><path d="M1582.4,303c-7.3,2.7-15.6,3.4-23.2,1.5c1,0.1,1.9,0.2,2.9,0.3C1568.9,305.3,1575.8,304.6,1582.4,303 L1582.4,303L1582.4,303z" class="st36"/></g><g class="st15"><path d="M1576.6,317.4c-4.4-4.9-9.6-9-15.6-11.8C1567.3,307.6,1572.9,311.9,1576.6,317.4L1576.6,317.4z" class="st36"/></g><linearGradient id="SVGID_00000156588868336396372670000015064332372460424370_" x1="-642.945" x2="-606.285" y1="-472.1" y2="-513.77" gradientTransform="matrix(-0.9968 7.950298e-02 -7.950298e-02 -0.9968 911.18 -137.9587)" gradientUnits="userSpaceOnUse"><stop offset=".29" stop-color="#6789df"/><stop offset=".29" stop-color="#6384db" stop-opacity=".96"/><stop offset=".33" stop-color="#4e6bc7" stop-opacity=".76"/><stop offset=".38" stop-color="#3b54b4" stop-opacity=".58"/><stop offset=".43" stop-color="#2b40a4" stop-opacity=".42"/><stop offset=".48" stop-color="#1e2f97" stop-opacity=".29"/><stop offset=".54" stop-color="#12228c" stop-opacity=".18"/><stop offset=".61" stop-color="#0a1784" stop-opacity=".1"/><stop offset=".68" stop-color="#04107e" stop-opacity=".04"/><stop offset=".79" stop-color="#010c7a" stop-opacity="0"/><stop offset="1" stop-color="#000b7a" stop-opacity="0"/></linearGradient><path fill="url(#SVGID_00000156588868336396372670000015064332372460424370_)" d="M1555.6,303.2c1.2-0.6,2.1-0.5,3.4-0.2l0,0c1.1,0.3,1.8,0.6,3.2,0.9c2.4,0.5,5.6,0.1,6.5-0.3c0.4-0.1,0.9-0.2,1.4-0.4 c4.3-1.3,9.4-9.7,12.4-6c1.9,2,1.9,4.9,2,5c0.1,2.4-0.6,4.7-1.8,6.8c-2.4,3.9,1.4,5.5-1.9,7.6c-2.1,1.3-2.7,1.2-3.8,2 c-1.7,0.9-0.8,2.8-1.7,4.3c-1,1.9-3.1,1.5-4.6,2.3c-2.2,1.6-2.4,2.3-3.9,1.3c-0.4-0.2-0.7-0.5-1.2-0.5c-1,0-1.8,0.8-2.9,0.6 c-2.8-0.6-0.8-5.4,0.2-8.4c1.1-2.9,1.6-5,0.8-7.7l0,0C1562.4,307.1,1559.3,305.3,1555.6,303.2L1555.6,303.2z" enable-background="new" opacity=".7"/></g><g class="st31"><path d="M1868.8,316.6c-1.1,5-3.4,9.8-7,14.1c-5,5.9-16.2,17.1-24.7,13.1c-37-17.2-53.2-46.6-91.2-9.8 c0.3-0.3-0.3-0.4-1-0.5h-0.1c-0.2,0-0.3-0.1-0.5-0.2c3.5-9.5,10.7-15.3,9.5-25.3c-1.7-14.2-11.2-23.4-20.8-29.8 c-5.5-3.6-17.8-9.6-17.2-17.7c0.4-5.5,5.4-8.3,9-12.1c0.5-0.5,0.9-1,1.3-1.5c2.8-3.6,3.1-6.4,6.2-10.4c7.1-8.8,17.5-4.1,27.1-8.3 c2.3-1,4.7-2.2,7.1-3.3c7.4-3.6,15-6.9,22.4-4.2c7.8,2.8,12.1,11.5,11.8,20c-0.2,6.3-8,16.8-4.5,22.2c11-5.1,11.3-20.4,19.9-28 c8.3-7.4,19-5,26.6,0.7c4.6,3.5,8,8.1,8.8,12.5c0.3,1.6,0.2,3.2,0,4.9c-1,6.8-5.1,13.7-2.7,20.5c2.7,7.6,11.6,11.7,16.1,19.2 c0.2,0.3,0.4,0.6,0.5,0.9C1869.2,300.5,1870.6,308.7,1868.8,316.6L1868.8,316.6z" class="st32"/><linearGradient id="SVGID_00000063605189598348618480000001170570210336987582_" x1="1742.913" x2="1761.063" y1="720.619" y2="821.259" gradientTransform="matrix(1 0 0 1 0 -504)" gradientUnits="userSpaceOnUse"><stop offset="0" stop-color="#ffe421"/><stop offset=".18" stop-color="#fed724"/><stop offset=".52" stop-color="#fdb62c"/><stop offset=".97" stop-color="#fc8139"/><stop offset="1" stop-color="#fc7e3a"/></linearGradient><path fill="url(#SVGID_00000063605189598348618480000001170570210336987582_)" d="M1758.8,314.5L1758.8,314.5c-3.6,7.1-8.2,13.6-13.9,19.1c-0.2,0.2-0.5,0.5-0.8,0.7c0.2-0.2,0.4-0.5,0.7-0.8 c32.3-36.9,0.2-71.6-18.6-86.5c2.8-3.6,3.1-6.4,6.2-10.4c7.1-8.8,17.5-4.1,27.1-8.3c2.3-1,4.7-2.2,7.1-3.3 C1770.2,243.5,1774.8,282.7,1758.8,314.5L1758.8,314.5z" enable-background="new" opacity=".5"/><linearGradient id="SVGID_00000044865669642848246810000002402355249338298038_" x1="1922.939" x2="1760.129" y1="741.818" y2="827.608" gradientTransform="matrix(1 0 0 1 0 -504)" gradientUnits="userSpaceOnUse"><stop offset="0" stop-color="#ffe421"/><stop offset=".18" stop-color="#fed724"/><stop offset=".52" stop-color="#fdb62c"/><stop offset=".97" stop-color="#fc8139"/><stop offset="1" stop-color="#fc7e3a"/></linearGradient><path fill="url(#SVGID_00000044865669642848246810000002402355249338298038_)" d="M1865.4,293.7c-15-3.2-35.2-3.6-59.1,6c-44.4,17.9-55.7,27.7-56.3,28.3c1.1-1.4,46.8-59.7,101.5-74.9c-1,6.8-5.1,13.7-2.7,20.5 c2.7,7.6,11.6,11.7,16.1,19.2C1865.1,293.1,1865.3,293.4,1865.4,293.7L1865.4,293.7z" enable-background="new" opacity=".5"/><g class="st15"><path d="M1750,328.1c19.8-27,46.3-49,75.8-64.6c4.3-2.2,8.6-4.3,13-6c-4.3,2-8.5,4.3-12.7,6.6 C1797.2,280.5,1771.1,302.2,1750,328.1L1750,328.1L1750,328.1z" class="st36"/></g><g class="st15"><path d="M1855.4,292.2c-5-1.4-10.5-0.9-15.7-0.5c-21.9,3-42.6,11.9-62.6,21.2c-5.8,2.6-11.3,5.6-17.1,8.3 c14.6-8.5,29.9-16.1,45.7-22c10-3.5,20.2-6.7,30.7-8c3.1-0.4,6.5-0.7,9.5-0.6C1849.2,290.8,1852.5,291,1855.4,292.2L1855.4,292.2 L1855.4,292.2z" class="st36"/></g><g class="st15"><path d="M1767.4,229.6c6.4,23.7,4.5,49.4-3.6,72.5c-1.2,3.1-2.8,7.6-4.3,10.5c-0.8,1.7-1.6,3.4-2.4,5.1 c2.8-7,5.6-14,7.5-21.2C1770.5,274.8,1771.8,251.7,1767.4,229.6L1767.4,229.6L1767.4,229.6z" class="st36"/></g><g class="st15"><path d="M1750.4,242.3c4.8,4.2,7.7,10.2,9.8,16c3.6,10.5,4.2,21.9,3.1,32.9c-0.7,7.9-2.4,15.6-4.6,23.2 c3-15.3,5.1-31.1,2.6-46.7c-0.8-4.3-2.1-9.4-3.7-13.5C1755.8,250,1753.6,245.7,1750.4,242.3L1750.4,242.3L1750.4,242.3z" class="st36"/></g><linearGradient id="SVGID_00000054244135227382299760000007133593326873853075_" x1="1928.577" x2="1745.507" y1="644.726" y2="843.836" gradientTransform="matrix(1 0 0 1 0 -504)" gradientUnits="userSpaceOnUse"><stop offset=".41" stop-color="#6789df"/><stop offset=".44" stop-color="#5370cb" stop-opacity=".81"/><stop offset=".49" stop-color="#3f58b8" stop-opacity=".62"/><stop offset=".53" stop-color="#2e43a7" stop-opacity=".45"/><stop offset=".58" stop-color="#203299" stop-opacity=".31"/><stop offset=".64" stop-color="#14238d" stop-opacity=".2"/><stop offset=".69" stop-color="#0b1885" stop-opacity=".11"/><stop offset=".76" stop-color="#04107e" stop-opacity=".05"/><stop offset=".85" stop-color="#010c7b" stop-opacity=".01"/><stop offset="1" stop-color="#000b7a" stop-opacity="0"/></linearGradient><path fill="url(#SVGID_00000054244135227382299760000007133593326873853075_)" d="M1745.8,334.3c38.1-37.1,54.3-7.7,91.3,9.6c8.5,4,19.7-7.2,24.7-13.2c9.8-11.5,9.9-26.7,3.1-37.9c-4.5-7.5-13.4-11.6-16.1-19.2 c-3-8.5,4.1-17.2,2.7-25.4c-2-11.5-22.1-24.9-35.3-13.2c-8.5,7.6-8.9,22.9-19.9,28c-3.5-5.4,4.3-15.9,4.5-22.2 c0.2-8.5-4.1-17.2-11.8-20c-9.8-3.5-19.7,3.4-29.5,7.6c-9.6,4.2-20.1-0.6-27.1,8.3c-3.6,4.4-3.4,7.6-7.5,11.9 c-3.6,3.8-8.5,6.6-9,12.1c-0.7,8.1,11.7,14,17.2,17.7c9.6,6.4,19.1,15.6,20.8,29.8c1.2,10-6,15.8-9.5,25.3 C1745.3,333.8,1746.5,333.7,1745.8,334.3L1745.8,334.3z" enable-background="new" opacity=".7"/></g><g opacity=".9"><path d="M510.1,391.7c-0.5,3.3-2.1,6.9-4.8,10.2c-2.2,2.8-7.1,8.2-10,7.5c-14.7-3.7-21.5-17-45.6,7 c0.2-0.2-0.4-0.1-1-0.1c-0.1,0-0.1,0-0.2,0c2.4-5.6,7.2-9.8,6.6-15.2c-1-8.2-7.8-13.4-15.5-17.1c-4.8-2.3-16.7-6.4-16.6-12.9 c0.1-4.6,4.9-6.9,8.3-10c3.7-3.5,3.5-6.2,6.8-9.8c3.3-3.7,7.4-4.1,11.7-4c3.8,0.1,7.7,0.6,11.4-0.6c1.3-0.4,2.6-0.9,3.9-1.4l0,0 c5-1.9,9.9-3.9,14.3-2.6c0.8,0.2,1.6,0.6,2.4,1.1c4.4,2.8,6.1,9.1,5.2,14.7c-0.6,4.1-5.7,10.5-4.1,13.8 c6.1-3.1,7.6-12.4,12.6-16.8c3.3-2.9,6.6-2.8,9.2-1.1c3.2,2,5.3,6.3,5,9.9c-0.3,4.3-4,8.9-3.7,13.1c0.3,3.6,3.2,5.2,4,8.5 C510.4,387.6,510.4,389.6,510.1,391.7L510.1,391.7z" class="st32"/><linearGradient id="SVGID_00000075155921041347448600000015796261467331567544_" x1="476.599" x2="479.049" y1="885.2" y2="905.14" gradientTransform="matrix(1 0 0 1 0 -504)" gradientUnits="userSpaceOnUse"><stop offset="0" stop-color="#ffe421"/><stop offset=".27" stop-color="#fdbf2a"/><stop offset=".58" stop-color="#fc9b32"/><stop offset=".84" stop-color="#fc8538"/><stop offset="1" stop-color="#fc7e3a"/></linearGradient><path fill="url(#SVGID_00000075155921041347448600000015796261467331567544_)" d="M510.1,391.7c-0.5,3.3-2.1,6.9-4.8,10.2c-2.2,2.8-7.1,8.2-10,7.5c-14.7-3.7-21.5-17-45.6,7c0.2-0.2-0.4-0.1-1-0.1 C477.3,379.5,503.6,388.6,510.1,391.7L510.1,391.7z" enable-background="new" opacity=".5"/><linearGradient id="SVGID_00000101064787496636588420000006098663372966562974_" x1="480.956" x2="474.876" y1="800.198" y2="959.348" gradientTransform="matrix(1 0 0 1 0 -504)" gradientUnits="userSpaceOnUse"><stop offset=".18" stop-color="#ffe421"/><stop offset=".41" stop-color="#fdbf2a"/><stop offset=".66" stop-color="#fc9b32"/><stop offset=".87" stop-color="#fc8538"/><stop offset="1" stop-color="#fc7e3a"/></linearGradient><path fill="url(#SVGID_00000101064787496636588420000006098663372966562974_)" d="M504.5,354.3c-12.9,25-27.2,29.3-53.8,59.5c19.8-27.4,28.6-53.9,28.4-71c0.8,0.2,1.6,0.6,2.4,1.1c4.4,2.8,6.1,9.1,5.2,14.7 c-0.6,4.1-5.7,10.5-4.1,13.8c6.1-3.1,7.6-12.4,12.6-16.8C498.7,352.6,502,352.7,504.5,354.3z" enable-background="new" opacity=".5"/><linearGradient id="SVGID_00000133502869171187741790000001059439266387475382_" x1="429.474" x2="483.814" y1="803.162" y2="927.822" gradientTransform="matrix(1 0 0 1 0 -504)" gradientUnits="userSpaceOnUse"><stop offset="0" stop-color="#ffe421"/><stop offset=".27" stop-color="#fdbf2a"/><stop offset=".58" stop-color="#fc9b32"/><stop offset=".84" stop-color="#fc8538"/><stop offset="1" stop-color="#fc7e3a"/></linearGradient><path fill="url(#SVGID_00000133502869171187741790000001059439266387475382_)" d="M458.8,401.8c7.3-38-4.1-48-9.1-54.5c3.8,0.1,7.7,0.6,11.4-0.6c1.3-0.4,2.6-0.9,3.9-1.4C466.5,361.1,467.8,389,458.8,401.8 L458.8,401.8z" enable-background="new" opacity=".5"/><path d="M505.4,389.9c-10.1-2.9-21.1-0.4-30.3,4.3c-9.4,4.7-17.2,12-24.4,19.6c3.3-4.1,6.9-8,10.8-11.5 C473.2,392.1,490,384.4,505.4,389.9L505.4,389.9L505.4,389.9z" class="st36"/><g class="st15"><path d="M465.4,351c1.9,14.4,2.3,33.3-4.2,46.6c0.3-0.9,0.6-1.9,1-2.8C466.3,380.6,465.9,365.6,465.4,351L465.4,351 L465.4,351z" class="st36"/></g><g class="st15"><path d="M488.9,370.1c-11.7,14.5-24.2,28.6-37,42.1C463.7,397.7,476.1,383.6,488.9,370.1L488.9,370.1z" class="st36"/></g><linearGradient id="SVGID_00000007403236480014480620000016481289126878535866_" x1="453.598" x2="475.598" y1="954.94" y2="836.47" gradientTransform="matrix(1 0 0 1 0 -504)" gradientUnits="userSpaceOnUse"><stop offset=".14" stop-color="#6789df"/><stop offset=".18" stop-color="#5776d0" stop-opacity=".85"/><stop offset=".25" stop-color="#435dbc" stop-opacity=".65"/><stop offset=".33" stop-color="#3147aa" stop-opacity=".48"/><stop offset=".41" stop-color="#21349b" stop-opacity=".33"/><stop offset=".49" stop-color="#15258f" stop-opacity=".21"/><stop offset=".58" stop-color="#0b1985" stop-opacity=".12"/><stop offset=".68" stop-color="#05117f" stop-opacity=".05"/><stop offset=".81" stop-color="#010c7b" stop-opacity=".01"/><stop offset="1" stop-color="#000b7a" stop-opacity="0"/></linearGradient><path fill="url(#SVGID_00000007403236480014480620000016481289126878535866_)" d="M510.1,391.7c-0.5,3.3-2.1,6.9-4.8,10.2 c-2.2,2.8-7.1,8.2-10,7.5c-14.7-3.7-21.5-17-45.6,7c0.2-0.2-0.4-0.1-1-0.1c-0.1,0-0.1,0-0.2,0c2.4-5.6,7.2-9.8,6.6-15.2 c-1-8.2-7.8-13.4-15.5-17.1c-4.8-2.3-16.7-6.4-16.6-12.9c0.1-4.6,4.9-6.9,8.3-10c3.7-3.5,3.5-6.2,6.8-9.8c3.3-3.7,7.4-4.1,11.7-4 c3.8,0.1,7.7,0.6,11.4-0.6c1.3-0.4,2.6-0.9,3.9-1.4l0,0c5-1.9,9.9-3.9,14.3-2.6c0.8,0.2,1.6,0.6,2.4,1.1c4.4,2.8,6.1,9.1,5.2,14.7 c-0.6,4.1-5.7,10.5-4.1,13.8c6.1-3.1,7.6-12.4,12.6-16.8c3.3-2.9,6.6-2.8,9.2-1.1c3.2,2,5.3,6.3,5,9.9c-0.3,4.3-4,8.9-3.7,13.1 c0.3,3.6,3.2,5.2,4,8.5C510.4,387.6,510.4,389.6,510.1,391.7L510.1,391.7z"/></g><g><path d="M167.3,195.6c-22.4-12.8-47.3-5.6-66.6,1.6c-12.3,4.2-25.1,21.7-37.2,9.8c-3.5-3.4-2-7.5-4.4-10.7 c-2.2-3-5.8-3.2-8.4-5.8c-2.4-2.4-1.2-6-0.5-9.3c0.2-1.2,0.4-2.3,0.3-3.3c-0.5-6.4-6.5-12.8-1.8-18.9c3.9-5.2,12.9-5,12.2-12.4 c-0.6-6.2-3.8-5.6-1.3-13.3c1.8-5.7,5.4-8.7,12.1-10.9c0.6-0.2,1.2-0.4,1.8-0.6c7.1-2,8.9-7.4,12.8-12.9c3.1-4.4,8.1-8.3,13.9-11 c9.9-4.7,22.4-6.3,32-2.3c15.4,7,1.4,25.4,9.4,62c1.3,6.1,4.9,11.7,8.6,17.3c2.7,4.2,6.5,8.4,9.9,12.1c0.5,0.6,4,3.4,6.5,7.6 C167,195,167.2,195.3,167.3,195.6L167.3,195.6z" class="st32"/><linearGradient id="SVGID_00000155108111682991122090000005954186117198086815_" x1="3.236" x2="197.626" y1="705.114" y2="683.923" gradientTransform="matrix(1 0 0 1 -1.62 -502.72)" gradientUnits="userSpaceOnUse"><stop offset="0" stop-color="#ffe421"/><stop offset=".67" stop-color="#fc9c32"/><stop offset="1" stop-color="#fc7e3a"/></linearGradient><path fill="url(#SVGID_00000155108111682991122090000005954186117198086815_)" d="M167.3,195.6c-22.4-12.8-47.3-5.6-66.6,1.6c-12.3,4.2-25.1,21.7-37.2,9.8c-3.5-3.4-2-7.5-4.4-10.7c-2.2-3-5.8-3.2-8.4-5.8 c-2.4-2.4-1.2-6-0.5-9.3c21.2-3.8,78.7-11,116.3,13.4C166.9,195,167.1,195.3,167.3,195.6L167.3,195.6z" enable-background="new" opacity=".7"/><linearGradient id="SVGID_00000034773789335517887660000004590407451019265178_" x1="133.258" x2="107.178" y1="585.941" y2="699.761" gradientTransform="matrix(1 0 0 1 -1.62 -502.72)" gradientUnits="userSpaceOnUse"><stop offset="0" stop-color="#ffe421"/><stop offset=".67" stop-color="#fc9c32"/><stop offset="1" stop-color="#fc7e3a"/></linearGradient><path fill="url(#SVGID_00000034773789335517887660000004590407451019265178_)" d="M158,189.7c-56.7-26.6-77.7-51.5-86.1-67.3c0.6-0.2,1.2-0.4,1.8-0.6c7.1-2,8.9-7.4,12.8-12.9c3.1-4.4,8.1-8.3,13.9-11 C103.7,119.7,115.3,162.3,158,189.7z" enable-background="new" opacity=".7"/><path d="M103.7,114c8.8,27.8,25,54.3,48.8,71.6c3.4,2.5,7,4.7,10.6,6.8C132.6,177.5,112,146.4,103.7,114L103.7,114 L103.7,114z" class="st36"/><path d="M74.4,126.8c20.7,25.9,48.1,45.9,77.9,60.2c-3.8-1.7-7.7-3.2-11.4-5.1C115.4,169.3,90.9,150.1,74.4,126.8 L74.4,126.8L74.4,126.8z" class="st36"/><path d="M61.7,179.4c21.5-4.2,43.9-3.6,65.4,0.5C105.3,177.7,83.4,177,61.7,179.4L61.7,179.4z" class="st36"/><linearGradient id="SVGID_00000124151193497422811510000005585290410999465382_" x1="172.731" x2="45.821" y1="770.898" y2="568.328" gradientTransform="matrix(1 0 0 1 -1.62 -502.72)" gradientUnits="userSpaceOnUse"><stop offset=".13" stop-color="#6789df"/><stop offset=".14" stop-color="#6384db" stop-opacity=".97"/><stop offset=".23" stop-color="#4c68c4" stop-opacity=".74"/><stop offset=".32" stop-color="#374fb0" stop-opacity=".54"/><stop offset=".41" stop-color="#263a9f" stop-opacity=".38"/><stop offset=".51" stop-color="#182992" stop-opacity=".24"/><stop offset=".62" stop-color="#0d1b87" stop-opacity=".13"/><stop offset=".73" stop-color="#06127f" stop-opacity=".06"/><stop offset=".85" stop-color="#010c7b" stop-opacity=".01"/><stop offset="1" stop-color="#000b7a" stop-opacity="0"/></linearGradient><path fill="url(#SVGID_00000124151193497422811510000005585290410999465382_)" d="M167.3,195.6 c-22.4-12.8-47.3-5.6-66.6,1.6c-12.3,4.2-25.1,21.7-37.2,9.8c-3.5-3.4-2-7.5-4.4-10.7c-2.2-3-5.8-3.2-8.4-5.8 c-2.4-2.4-1.2-6-0.5-9.3c0.2-1.2,0.4-2.3,0.3-3.3c-0.5-6.4-6.5-12.8-1.8-18.9c3.9-5.2,12.9-5,12.2-12.4c-0.6-6.2-3.8-5.6-1.3-13.3 c1.8-5.7,5.4-8.7,12.1-10.9c0.6-0.2,1.2-0.4,1.8-0.6c7.1-2,8.9-7.4,12.8-12.9c3.1-4.4,8.1-8.3,13.9-11c9.9-4.7,22.4-6.3,32-2.3 c15.4,7,1.4,25.4,9.4,62c1.3,6.1,4.9,11.7,8.6,17.3c2.7,4.2,6.5,8.4,9.9,12.1c0.5,0.6,4,3.4,6.5,7.6 C167,195,167.2,195.3,167.3,195.6L167.3,195.6z"/></g></g></svg>