<svg width="340" height="319" viewBox="0 0 274 257" xmlns="http://www.w3.org/2000/svg"><defs><linearGradient x1="43.752%" y1="-22.312%" x2="62.287%" y2="205.661%" id="a"><stop stop-color="#FFF" offset="0%"/><stop stop-color="#FBFBFB" offset="11%"/><stop stop-color="#EDEDED" offset="24%"/><stop stop-color="#D8D8D8" offset="37%"/><stop stop-color="#B9B9B9" offset="50%"/><stop stop-color="#929292" offset="64%"/><stop stop-color="#616161" offset="77%"/><stop stop-color="#292929" offset="91%"/><stop offset="100%"/></linearGradient><linearGradient x1="56.679%" y1="130.081%" x2="38.07%" y2="-112.208%" id="b"><stop stop-color="#FFF" offset="0%"/><stop stop-color="#FBFBFB" offset="11%"/><stop stop-color="#EDEDED" offset="24%"/><stop stop-color="#D8D8D8" offset="37%"/><stop stop-color="#B9B9B9" offset="50%"/><stop stop-color="#929292" offset="64%"/><stop stop-color="#616161" offset="77%"/><stop stop-color="#292929" offset="91%"/><stop offset="100%"/></linearGradient><linearGradient x1="79.969%" y1="14.026%" x2="32.091%" y2="107.542%" id="c"><stop stop-color="#F2841E" offset="0%"/><stop stop-color="#F2831E" stop-opacity=".98" offset="10%"/><stop stop-color="#F2811F" stop-opacity=".91" offset="23%"/><stop stop-color="#F17E1F" stop-opacity=".8" offset="37%"/><stop stop-color="#F17A20" stop-opacity=".66" offset="53%"/><stop stop-color="#F07421" stop-opacity=".46" offset="69%"/><stop stop-color="#F06E23" stop-opacity=".23" offset="85%"/><stop stop-color="#EF6724" stop-opacity="0" offset="100%"/></linearGradient><linearGradient x1="89.768%" y1="59.63%" x2="-11.153%" y2="45.531%" id="d"><stop stop-color="#F2841E" offset="0%"/><stop stop-color="#F2831E" stop-opacity=".98" offset="10%"/><stop stop-color="#F2811F" stop-opacity=".91" offset="23%"/><stop stop-color="#F17E1F" stop-opacity=".8" offset="37%"/><stop stop-color="#F17A20" stop-opacity=".66" offset="53%"/><stop stop-color="#F07421" stop-opacity=".46" offset="69%"/><stop stop-color="#F06E23" stop-opacity=".23" offset="85%"/><stop stop-color="#EF6724" stop-opacity="0" offset="100%"/></linearGradient><linearGradient x1="3.189%" y1="48.291%" x2="99.935%" y2="54.573%" id="e"><stop stop-color="#F2841E" offset="0%"/><stop stop-color="#F2831E" stop-opacity=".98" offset="10%"/><stop stop-color="#F2811F" stop-opacity=".91" offset="23%"/><stop stop-color="#F17E1F" stop-opacity=".8" offset="37%"/><stop stop-color="#F17A20" stop-opacity=".66" offset="53%"/><stop stop-color="#F07421" stop-opacity=".46" offset="69%"/><stop stop-color="#F06E23" stop-opacity=".23" offset="85%"/><stop stop-color="#EF6724" stop-opacity="0" offset="100%"/></linearGradient><linearGradient x1="3.241%" y1="48.323%" x2="99.93%" y2="54.778%" id="f"><stop stop-color="#F2841E" offset="0%"/><stop stop-color="#F2831E" stop-opacity=".98" offset="10%"/><stop stop-color="#F2811F" stop-opacity=".91" offset="23%"/><stop stop-color="#F17E1F" stop-opacity=".8" offset="37%"/><stop stop-color="#F17A20" stop-opacity=".66" offset="53%"/><stop stop-color="#F07421" stop-opacity=".46" offset="69%"/><stop stop-color="#F06E23" stop-opacity=".23" offset="85%"/><stop stop-color="#EF6724" stop-opacity="0" offset="100%"/></linearGradient></defs><g fill="none" fill-rule="evenodd"><path d="M273.368 255.874c-21.616 2.787-189.529-5.609-157.96-14.122 10.538-2.833-76.111-8.723-81.427-13.946-7.19-7.119 99.003-1.416 89.448 4.368-9.555 5.784 159.81 22.424 149.939 23.7z" fill="#E8E8E8" fill-rule="nonzero"/><path d="M174.693 122.422l-.211-.796c.246-.211.503-.445.773-.715a33.957 33.957 0 002.435-2.576c3.853-3.852 5.855-10.445 3.01-15.82-1.687-4.917-3.022-11.357-.399-15.14a5.164 5.164 0 012.986-1.896 9.215 9.215 0 00.352 2.939c-.914.28-1.464-.07-2.178 1.557-1.253 3.407-.211 7.869 1.17 11.71l-.093-.188c3.513 6.37 1.323 14.286-3.244 18.91a46.967 46.967 0 01-2.634 2.811c-.55.515-1.171 1.007-1.733 1.487a6.85 6.85 0 00-.234-2.283z" fill="#1E7095" fill-rule="nonzero"/><path d="M183.639 88.37a9.215 9.215 0 01-.352-2.938l.445-.188c4.532-1.522 10.761-1.826 15.667-1.908.379.038.693.31.785.679l.492 2.494a.515.515 0 01-.55.656c-2.682 0-1.008 2.342-4.684 2.342-.996 0-9.368-1.171-10.328-1.464-.457-.14-1.276.293-1.475.328z" fill="#9D4D29" fill-rule="nonzero"/><path d="M179.26 120.302c4.52-4.59 6.72-12.4 3.325-18.735-1.335-3.77-2.342-8.196-1.171-11.639.62-1.358 1.264-1.276 2.178-1.557a7.927 7.927 0 01-.258-1.335c-4.684.785-3.513 10.538-1.768 15.48 2.869 5.374.843 11.967-3.01 15.82-.766.9-1.579 1.76-2.435 2.575-.27.27-.527.504-.773.715l.211.796c.109.457.172.924.187 1.393.281-.234.562-.456.832-.702.937-.89 1.83-1.827 2.681-2.81z" fill="#145E80" fill-rule="nonzero"/><path d="M29.953 13.466S7.307 28.536 0 41.686l10.82 7.365-1.171 12.681s30.163-17.564 34.695-25.901c0 0-3.83-7.307-6.698-11.429a104.998 104.998 0 00-7.693-10.936z" fill="#F66318" fill-rule="nonzero"/><path d="M18.15 1.51l-.762 1.008a65.198 65.198 0 0111.523 11.709l1.03-.703A66.545 66.545 0 0018.15 1.511zM79.694 125.583c-.199-.714-14.695-51.837-35.35-89.74-.211.362-.48.76-.773 1.17 20.374 37.658 34.718 88.207 34.882 88.91l1.241-.34z" fill="#1E7095" fill-rule="nonzero"/><path d="M44.344 35.83s-3.83-7.306-6.698-11.428a104.998 104.998 0 00-7.693-10.936A158.147 158.147 0 0144.355 35.83h-.011z" fill="#F66318" fill-rule="nonzero"/><path d="M29.94 13.478l-1.03.702a159.997 159.997 0 0114.66 22.833c.293-.41.563-.808.774-1.17A158.147 158.147 0 0029.94 13.477z" fill="#E8580E" fill-rule="nonzero"/><path d="M26.756 25.269a2.225 2.225 0 00-.855 2.096v.094l.691 3.793.878 4.79 2.892 1.428.153.07c.416.18.878.23 1.323.14.22-.424.295-.91.21-1.38v-.176l-1.72-9.368v-.222a2.342 2.342 0 00-.387-.832 2.236 2.236 0 00-3.115-.421" fill="url(#a)" fill-rule="nonzero"/><path d="M25.901 27.353v.106l.691 3.793.878 4.79 2.892 1.428.164.07c.413.18.87.23 1.312.14.22-.424.295-.91.21-1.38v-.176l-1.72-9.368v-.234a2.342 2.342 0 00-.387-.832 2.225 2.225 0 00-3.97 1.663"/><path d="M18.618 36.662L15.76 35.28l-.164-.082a2.342 2.342 0 00-1.312-.14c.063-.134.142-.26.235-.375.114-.15.248-.283.398-.398l2.342-1.803a2.225 2.225 0 012.224-.258l.164.07 7.787 3.783 2.927 1.393.164.07c.415.172.87.22 1.312.14a2.272 2.272 0 01-.234.387c-.12.15-.257.284-.41.398l-2.342 1.804a2.272 2.272 0 01-2.237.269l-.152-.082-7.845-3.794z" fill="#F1F1F1" fill-rule="nonzero"/><path d="M18.618 36.662L15.76 35.28l-.164-.082a2.342 2.342 0 00-1.312-.14c-.21.403-.291.86-.234 1.311v.164l1.722 9.426v.223c.072.3.204.582.386.831a2.225 2.225 0 003.97-1.662v-.106l-.691-3.794-.879-4.789h.059z" fill="url(#b)" fill-rule="nonzero"/><path d="M126.848 188.158c1.03.867 2.154 1.909 2.19 3.256a3.97 3.97 0 01-1.171 2.646 5.855 5.855 0 01-4.157 2.236 7.026 7.026 0 01-3.232-1.03 36.053 36.053 0 01-3.279-2.002 7.564 7.564 0 01-3.231-3.572c-.82-2.529 1.288-7.388 4.285-7.517 2.998-.129 6.58 4.286 8.595 5.983z" fill="#5E1C3D" fill-rule="nonzero"/><path d="M118.148 180.735c-.21 1.44 1.78 2.201 1.78 2.201s24.671-25.234 24.25-30.843c-.586-7.798-23.126-27.47-23.126-27.47l-20.656 15.304s27.47 11.71 24.813 19.286c-2.658 7.576-7.061 21.522-7.061 21.522z" fill="#E8580E" fill-rule="nonzero"/><path d="M116.274 195.887l-10.89-44.672-26.556-6.627a2.962 2.962 0 01-2.085-1.405c-.983-1.64-.655-4.204 1.007-7.846l2.342 1.042c-1.791 3.911-1.323 5.2-1.17 5.504a.597.597 0 00.222.21h.234l28.103 7.026 11.205 46.147-2.412.62z" fill="#1E7095" fill-rule="nonzero"/><path d="M121.099 184.27c-3.01 0-5.996-1.86-8.864-5.526l1.979-1.546c2.47 3.15 4.882 4.684 7.177 4.544 3.22-.2 5.316-3.595 5.328-3.63l29.93-44.707 2.084 1.405-29.93 44.66c-.082.129-2.775 4.508-7.306 4.79l-.398.01zM123.572 196.48l37.003-50.65 2.033 1.485-37.003 50.65z" fill="#1E7095" fill-rule="nonzero"/><path d="M187.526 200.442c-8.63-6.815-19.836-46.838-19.906-47.271l-.14-.55a3.255 3.255 0 00-4.216-1.324c.084.854.317 1.687.691 2.46.48 0 1.382-.458 1.651.526 1.464 5.152 11.616 41.194 20.41 48.137.549.42 1.333.327 1.768-.21a1.253 1.253 0 00-.258-1.768z" fill="#003A54" fill-rule="nonzero"/><path fill="#FFD7A7" fill-rule="nonzero" d="M164.24 236.8l38.735-67.171.867.5-38.735 67.171z"/><path fill="#FFD7A7" fill-rule="nonzero" d="M154.494 224.979l56.407-44.484.62.785-56.408 44.484z"/><path d="M227.162 205.418a55.034 55.034 0 01-3.032 17.997 45.573 45.573 0 01-9.45 15.703 40.89 40.89 0 01-33.114 12.88 37.47 37.47 0 01-17.037-5.855 45.222 45.222 0 01-12.728-12.447 57.446 57.446 0 01-6.066-50.842 50.046 50.046 0 018.724-15.386 42.283 42.283 0 0113.957-11.124 36.72 36.72 0 0117.682-3.712 35.444 35.444 0 0117.33 5.773 47.119 47.119 0 0113.044 12.704 58.336 58.336 0 017.95 16.3 62.938 62.938 0 012.74 18.009zm-5.679 0a57.376 57.376 0 00-9.274-31.346 44.273 44.273 0 00-11.287-11.862 31.334 31.334 0 00-15.082-5.714 33.22 33.22 0 00-16.16 2.752 39.355 39.355 0 00-13.453 9.87 47.833 47.833 0 00-8.689 14.462 54.6 54.6 0 00-3.372 16.65 51.451 51.451 0 009.45 32.178 40.491 40.491 0 0012.388 11.265 34.367 34.367 0 0015.773 4.683 36.686 36.686 0 0029.098-12.693c7.213-8.173 10.643-19.262 10.585-30.245h.023z" fill="#9D4D29" fill-rule="nonzero"/><path d="M217.397 204.985a47.659 47.659 0 01-2.342 14.824 38.641 38.641 0 01-7.4 13.103 32.95 32.95 0 01-12.167 8.829 32.154 32.154 0 01-14.777 2.412 29.789 29.789 0 01-14.051-4.907 37.47 37.47 0 01-10.433-10.538 47.75 47.75 0 01-7.564-28.196 46.065 46.065 0 019.8-27.47 34.695 34.695 0 0111.487-9.368 28.934 28.934 0 0114.602-3.044 28.161 28.161 0 0114.11 5.117 39.215 39.215 0 0110.386 10.82 52.95 52.95 0 018.349 28.418zm-2.518 0a50.468 50.468 0 00-7.787-27.213 38.278 38.278 0 00-9.636-10.433 26.37 26.37 0 00-13.08-5.058 27.423 27.423 0 00-13.887 2.587 33.454 33.454 0 00-11.265 8.841 45.116 45.116 0 00-9.812 26.838 46.463 46.463 0 007.611 27.587 34.835 34.835 0 0010.28 10.035 28.384 28.384 0 0013.478 4.38c4.772.24 9.534-.647 13.9-2.588a31.217 31.217 0 0011.229-8.513 36.3 36.3 0 006.838-12.389 45.046 45.046 0 002.131-14.074z" fill="#2A0D00" fill-rule="nonzero"/><path d="M110.326 199.598a44.133 44.133 0 01-6.042 22.717c-.27.433-.515.866-.796 1.276l-.914 1.171a24.508 24.508 0 01-1.979 2.342 29.402 29.402 0 01-2.236 2.096 25.292 25.292 0 01-2.553 1.756c-.904.53-1.857.973-2.845 1.323-.984.374-2.004.645-3.045.808a8.782 8.782 0 01-1.569.14 11.71 11.71 0 01-1.569 0 29.273 29.273 0 01-3.044-.386 20.246 20.246 0 01-10.316-5.936 32.634 32.634 0 01-6.276-9.754 56.123 56.123 0 01-2.576-33.688 46.475 46.475 0 013.97-10.761 26.932 26.932 0 017.27-9.098c.81-.61 1.672-1.148 2.577-1.604.456-.223.913-.457 1.381-.668l1.488-.457.749-.21.784-.106 1.523-.14a13.056 13.056 0 013.173.351 16.944 16.944 0 015.62 2.564 27.26 27.26 0 014.567 3.923 42.856 42.856 0 016.78 9.649 50.35 50.35 0 015.878 22.692zm-4.777 0a43.594 43.594 0 00-1.335-10.608 51.756 51.756 0 00-3.513-10.176 40.983 40.983 0 00-5.761-9.028c-2.342-2.67-5.035-5.093-8.197-6.053a10.164 10.164 0 00-2.342-.434l-1.253.07h-.62c-.21 0-.41.094-.62.141l-1.172.293c-.398.14-.784.316-1.17.48-.819.339-1.603.755-2.342 1.241a24.496 24.496 0 00-7.096 8.068 42.493 42.493 0 00-4.227 10.246 51.334 51.334 0 00-1.5 11.006 54.25 54.25 0 00.914 11.101 45 45 0 003.513 10.538 29.063 29.063 0 006.3 8.818 17.342 17.342 0 009.227 4.683 23.56 23.56 0 002.564.164c.42 0 .839-.035 1.253-.105a6.124 6.124 0 001.17-.187 11.85 11.85 0 002.343-.797 13.29 13.29 0 002.201-1.17 21.803 21.803 0 006.721-7.752 36.58 36.58 0 003.747-9.895 46.264 46.264 0 001.195-10.644z" fill="#9D4D29" fill-rule="nonzero"/><path d="M104.284 199.06a36.3 36.3 0 01-4.684 18.173 19.812 19.812 0 01-6.557 6.873c-.686.421-1.412.774-2.166 1.054-.756.3-1.541.524-2.342.668a5.855 5.855 0 01-1.171.128c-.389.047-.78.067-1.171.059-.796-.094-1.604-.094-2.342-.258a15.96 15.96 0 01-8.197-4.543 26.252 26.252 0 01-5.199-7.81 41.78 41.78 0 01-3.419-18.29 40.152 40.152 0 014.391-17.986 21.639 21.639 0 015.972-7.248 12.775 12.775 0 012.05-1.17c.362-.177.714-.352 1.088-.504l1.171-.328.586-.153.597-.07 1.17-.117a9.883 9.883 0 012.413.316 17.06 17.06 0 017.869 5.246 35.023 35.023 0 015.304 7.822 41.92 41.92 0 014.637 18.138zm-1.241 0a40.55 40.55 0 00-4.321-17.728 34.39 34.39 0 00-5.047-7.623 16.077 16.077 0 00-7.353-5.094 8.782 8.782 0 00-2.202-.327l-1.17.081h-.55l-.551.141-1.09.281c-.35.14-.69.304-1.041.457-.691.328-1.35.72-1.968 1.17a20.75 20.75 0 00-5.925 6.956 39.812 39.812 0 00-4.683 17.822 41.287 41.287 0 003.513 18.079 24.906 24.906 0 005.199 7.564 15.222 15.222 0 007.938 4.204c.75.107 1.504.174 2.26.2.392.007.784-.016 1.171-.071a6.03 6.03 0 001.113-.14 11.604 11.604 0 002.143-.656 11.99 11.99 0 002.002-1.03 18.876 18.876 0 006.089-6.617 34.988 34.988 0 004.473-17.67z" fill="#2A0D00" fill-rule="nonzero"/><path fill="#003A54" fill-rule="nonzero" d="M187.046 202.643l-4.695.316-1.242-3.712 4.24-1.136 1.86 2.061z"/><path d="M161.496 151.59c-2.424.761-1.803 3.513-1.768 3.794 5.48 31.03 20.538 46.685 21.17 47.33.237.244.562.383.902.386.328-.005.643-.135.878-.363a1.253 1.253 0 000-1.78c-.152-.152-15.152-15.808-20.48-45.901-.198-1.171 1.394-1.312 1.687-1.3 0-.878-.691-1.65-.691-2.459a4.063 4.063 0 00-1.698.293z" fill="#1E7095" fill-rule="nonzero"/><path fill="#FFD7A7" fill-rule="nonzero" d="M76.922 222.195l9.207-54.092.986.168-9.207 54.092z"/><path fill="#FFD7A7" fill-rule="nonzero" d="M86.216 225.687l-9.87-54.66.315-.046 9.86 54.647z"/><path d="M115.747 215.71c-4.988 0-9.04-5.397-9.04-12.025 0-6.627 4.052-12.037 9.04-12.037 4.989 0 9.028 5.398 9.028 12.037 0 6.64-4.051 12.026-9.028 12.026zm0-21.545c-3.594 0-6.522 4.274-6.522 9.52 0 5.246 2.928 9.508 6.522 9.508 3.595 0 6.51-4.262 6.51-9.508 0-5.246-2.915-9.52-6.51-9.52z" fill="#53A5C6" fill-rule="nonzero"/><path fill="#53A5C6" fill-rule="nonzero" d="M119.167 213.076l-5.2-9.087.516-11.135 2.517.117-.48 10.398 4.825 8.454z"/><path fill="#53A5C6" fill-rule="nonzero" d="M115.162 205.067l-7.787-4.204 1.195-2.225 6.744 3.654 7.365-3.021.96 2.33z"/><path fill="#53A5C6" fill-rule="nonzero" d="M109.614 211.917l4.498-9.231 2.264 1.103-4.499 9.23z"/><ellipse fill="#1E7095" fill-rule="nonzero" cx="80.818" cy="195.641" rx="3.653" ry="6.136"/><path d="M122.34 213.474a8.197 8.197 0 01-5.726 3.384 7.798 7.798 0 01-3.443-.363c-1.1-.328-2.096-.773-3.15-1.17l-12.376-4.919-12.319-5.058-3.08-1.277-1.533-.644a6.077 6.077 0 01-1.475-.82 6.815 6.815 0 01-2.74-5.854 6.65 6.65 0 002.88 5.632c.95.571 1.964 1.027 3.021 1.359l3.08 1.17 12.423 4.79 12.412 4.836c2.096.76 4.087 1.744 6.218 1.557a9.368 9.368 0 005.808-2.623z" fill="#53A5C6" fill-rule="nonzero"/><path d="M80.795 189.505l1.17 4.192L112.2 195.3s8.689 1.276 9.462 6.838c.773 5.562-.387 8.256-.387 8.256s.375 3.899 3.337 2.915c2.963-.983 4.684-15.491-1.1-20.187-3.665-2.974-11.312-3.056-11.312-3.056l-31.404-.562z" fill="#1E7095" fill-rule="nonzero"/><path fill="#1E7095" fill-rule="nonzero" d="M81.556 195.758l33.84 6.955-.316 1.944-34.285-4.192zM109.483 171.262c-2.682-12.787-22.892-12.88-23.161-12.88h-1.265v-13.185h2.518v10.749c3.46.176 6.886.757 10.21 1.733 7.963 2.342 12.88 6.932 14.157 13.114l-2.46.469z"/><path d="M131.883 144.53c.902-1.816 3.77-2.343 5.304-3.877a191.402 191.402 0 00-16.135-16.03l-20.656 15.304a116.65 116.65 0 0117.799 9.614c5-1.148 11.194 2.47 13.688-5.012z" fill="#DB4A00" fill-rule="nonzero"/><path d="M68.687 135.83s-6.018-7.975 1.382-11.64c5.023-2.564 9.368-.2 11.827 2.424 2.2 2.342 44.343 11.522 48.734 16.72.75.89-.972 3.713-1.393 4.1-4.485 4.11-47.763-2.331-60.55-11.605z" fill="#003A54" fill-rule="nonzero"/><path d="M69.8 132.644s-5.855-5.562 1.51-9.215c5.024-2.565 9.274-2.623 11.71 0 2.435 2.623 51.966 16.78 47.47 20.936-4.497 4.157-47.904-2.412-60.69-11.72z" fill="#175470" fill-rule="nonzero"/><path d="M148.64 59.214c4.273.82 11.99-5.573 16.264-10.76 7.622-9.25 8.102-17.963 7.775-19.438a15.023 15.023 0 00-1.886-3.794l-.854-6.007.644.258c.743.3 1.31.92 1.545 1.686.23.958.702 1.84 1.37 2.564 1.054.808 1.51-.503 1.51-.503s7.143-3.818 4.216 5.058a97.926 97.926 0 00-2.623 9.918c-3.876 18.01-7.295 34.894-29.063 47.915-23.16 14.883-24.062-27.142 1.101-26.897z" fill="#F66318" fill-rule="nonzero"/><path d="M155.15 57.154c-2.436 1.51-4.766 2.341-6.51 2.06-25.164-.245-24.263 41.78-1.09 26.932 15.773-9.438 21.908-20.913 25.562-33.372-2.518 6.019-15.035 23.337-17.962 4.38z" fill="#E8580E" fill-rule="nonzero"/><path d="M206.402 46.24a1.44 1.44 0 01-.14 1.277l-1.031.632-37.459-29.414.691-.984a.808.808 0 01.41-.327l22.47-8.29a1.464 1.464 0 011.874.866l13.185 36.24z" fill="#1E7095" fill-rule="nonzero"/><rect fill="#54A6C5" fill-rule="nonzero" transform="rotate(-19.97 186.606 33.299)" x="173.298" y="12.907" width="26.615" height="40.784" rx="1.241"/><path d="M202.374 45.339l-19.906 7.236a1.323 1.323 0 01-1.71-.796l-11.346-30.878a1.347 1.347 0 01.808-1.721l19.906-7.225a1.323 1.323 0 011.71.797l11.346 30.877a1.335 1.335 0 01-.808 1.71z" fill="#D9E2F8" fill-rule="nonzero"/><path d="M183.838 16.182c-.094.762-2.612 7.787-6.745 6.16-1.054-.434-2.342-3.384-2.763-4.345 0-.093-.094-.175-.13-.257l9.474-3.431a4.59 4.59 0 01.164 1.873z" fill="#C6D4F5" fill-rule="nonzero"/><path d="M192.631 14.93c-5.48 7.365-11.428 14.507-17.564 21.568l3.068 8.443c5.644-8.197 11.276-16.475 16.183-25.304l-1.687-4.708z" fill="#ECF0FB" fill-rule="nonzero"/><rect fill="#2F4E9C" fill-rule="nonzero" transform="rotate(-19.97 193.017 50.586)" x="189.335" y="50.007" width="7.365" height="1.159" rx=".351"/><rect fill="#54A6C5" fill-rule="nonzero" transform="rotate(-19.885 192.841 51.19)" x="189.16" y="50.611" width="7.362" height="1.159" rx=".351"/><path fill="#C8E8E8" fill-rule="nonzero" opacity=".36" d="M141.028 46.779l-3.162 12.974"/><path d="M91.544 132.632s-3.642 4.263-7.271 5.75c-6.675 2.728-14.052 2.342-4.298-7.155 0 0-21.92 7.33-2.869-4.683 0 0-33.254 8.969-3.84-5.668 0 0-32.658-3.115-3.232-8.677 0 0-41.79-1.405-2.248-8.196 0 0-18.49-4.684-1.323-5.597 0 0-35.538-7.248-1.171-8.607 0 0-31.335-12.646-1.171-10.117 0 0-29.824-12.599-.258-7.576 0 0-34.426-10.234-.714-8.594 0 0-26.417-8.946 1.815-9.005 0 0-24.122-16.943 2.201-5.468 0 0-22.049-18.887 5.27-6.885 0 0-21.558-23.91 5.257-6.37 0 0-14.894-21.674 5.234-5.855 0 0-6.522-15.843 3.618-2.4 0 0-11.955-34.168 5.62-2.342 0 0-4.788-22.33 5.61-1.827 0 0-1.71-24.25 4.086-1.873 0 0-3.513-28.349 6.112-1.815 0 0-.421-32.271 6.593-1.288 0 0 1.71-20.609 7.025.246 0 0 4.31-23.044 4.017.632 0 0 14.707-17.646 8.993 2.342 0 0 13.348-7.108-.844 10.058 0 0-26.931-9.473-41.662 9.684-14.73 19.156-16.838 38.711-12.294 65.21 4.309 25.07 11.744 26.076 11.744 26.076z" fill="#2D355C" fill-rule="nonzero"/><path d="M95.244 125.197c-1.463 4.684-12.482 12.529-14.73 10.093-1.03-1.17 1.464-3.02 4.93-11.78 0 0-24.965 12.881-2.436-3.945 0 0-33.15 6.346-3.279-4.836 0 0-27.81-2.658-2.751-7.389 0 0-35.585-1.17-1.909-6.932 0 0-15.75-3.97-1.171-4.766 0 0-30.269-6.17-1.042-7.33 0 0-26.674-10.772-.995-8.618 0 0-25.386-10.726-.211-6.452 0 0-29.274-8.711-.61-7.318 0 0-22.493-7.623 1.547-7.67 0 0-20.55-14.426 1.873-4.683 0 0-18.735-16.09 4.496-5.855 0 0-18.372-20.375 4.473-5.433 0 0-12.68-18.454 4.462-5 0 0-5.562-13.49 3.068-2.038 0 0-10.176-29.11 4.789-1.99 0 0-4.075-19.028 4.777-1.558 0 0-1.452-20.655 3.513-1.592 0 0-3.044-24.145 5.199-1.546 0 0-.363-27.493 5.62-1.1 0 0 1.452-17.565 6.007.199 0 0 3.665-19.625 3.42.55 0 0 12.517-15.035 7.658 1.979 0 0 14.543-8.302-2.858 8.278 0 0-20.772-7.798-33.348 8.525s-23.348 36.603-10.433 55.479c9.239 13.524 11.733 16.967 9.941 22.728z" fill="#3A436B" fill-rule="nonzero"/><path d="M68.98 107.352c0 .96 3.7 1.616 8.197 1.452 4.496-.164 8.067-1.078 8.032-2.038-.035-.96-3.7-1.616-8.196-1.452-4.497.164-8.068 1.078-8.033 2.038zM74.027 117.094c.398.878 4.028.094 8.103-1.768s7.025-4.063 6.639-4.941c-.386-.879-4.028-.082-8.103 1.768s-7.037 4.075-6.64 4.941zM82.82 126.462c.668.702 3.841-1.171 7.096-4.286 3.256-3.115 5.363-6.136 4.684-6.838-.679-.703-3.84 1.23-7.096 4.297-3.255 3.068-5.35 6.112-4.683 6.827zM66.966 92.247c0 .972 3.689 1.65 8.197 1.534 4.508-.117 8.08-.996 8.044-1.956-.035-.96-3.677-1.65-8.197-1.534-4.52.117-8.067 1.042-8.044 1.956zM65.701 64.402c-.222.936 3.115 2.564 7.471 3.641 4.356 1.078 8.056 1.171 8.279.246.222-.925-3.115-2.564-7.46-3.641-4.343-1.078-8.055-1.242-8.29-.246zM72.856 48.126c-.223.925 3.115 2.564 7.47 3.63 4.356 1.065 8.057 1.17 8.279.257.223-.913-3.126-2.576-7.459-3.641-4.332-1.066-8.056-1.195-8.29-.246zM84.788 33.056c-.808.538.538 3.993 3.01 7.74 2.47 3.747 5.128 6.334 5.936 5.796.808-.539-.55-4.005-3.021-7.74-2.47-3.736-5.117-6.335-5.925-5.796zM100.256 28.395c-.726.164-.703 3.021 0 6.394.702 3.372 1.944 5.971 2.658 5.854.714-.117.702-3.02 0-6.393-.703-3.372-1.932-6.019-2.658-5.855zM115.232 23.196c-.737 0-1.487 2.729-1.674 6.183-.188 3.454.257 6.276.995 6.311.738.035 1.487-2.728 1.675-6.182.187-3.455-.305-6.277-.996-6.312zM128.241 26.932c-.609-.398-2.67 1.592-4.59 4.473-1.92 2.88-2.974 5.538-2.342 5.936.633.398 2.67-1.58 4.59-4.461 1.92-2.88 2.963-5.55 2.342-5.948z" fill="#575F81" fill-rule="nonzero"/><path d="M96.404 117.504c-1.171 1.23-12.26 11.393-6.44-1.452 0 0-21.078 10.82-2.062-3.326 0 0-27.938 5.352-2.751-4.074 0 0-23.419-2.237-2.342-6.23 0 0-30-1.019-1.604-5.855 0 0-13.279-3.348-.96-4.016 0 0-25.515-5.199-.867-6.182 0 0-22.494-9.087-.843-7.272 0 0-21.417-9.04-.176-5.433 0 0-24.73-7.342-.515-6.171 0 0-18.97-6.428 1.3-6.464 0 0-17.33-12.166 1.58-3.934 0 0-15.83-13.56 3.783-4.93 0 0-15.48-17.177 3.77-4.578 0 0-10.69-15.562 3.77-4.215 0 0-4.683-11.382 2.588-1.722 0 0-8.583-24.59 4.04-1.674 0 0-3.442-16.042 4.016-1.312 0 0-1.17-17.411 2.951-1.346 0 0-2.576-20.363 4.38-1.3 0 0-.305-23.173 4.683-.937 0 0 1.171-14.789 5.059.176 0 0 3.091-16.545 2.88.457 0 0 10.539-12.67 6.452 1.674 0 0 12.272-7.026-2.342 7.026 0 0-17.564-6.57-28.102 7.19-2.611 3.383-5.34 7.107-7.764 10.994-7.423 11.85-11.92 25.223-.925 34.695 12.74 10.996 9.836 16.452 6.44 20.21z" fill="#474F76" fill-rule="nonzero"/><path d="M101.567 37.47l-5 5.246L87.2 36.86a5.714 5.714 0 01-.21-8.08 5.702 5.702 0 018.079-.198l6.498 8.887z" fill="#F66318" fill-rule="nonzero"/><path d="M97.61 34.578s-3.513-6.405-6.944-5.082a3.888 3.888 0 00-2.155 5.855 27.798 27.798 0 005.164 2.974l3.935-3.747z" fill="#E8580E" fill-rule="nonzero"/><path d="M98.862 95.912s3.197-1.792.235-7.026c0 0 3.512 1.019 1.17-2.869 0 0 5.06 1.066 2.635-5.737 0 0 6.241 1.557 2.178-4.18 0 0 3.7 3.255 4.344-2.542 0 0 4.918.387 1.733-4.87 0 0 8.08-.399 4.508-7.471 0 0 5.153.175 1.312-5.55 0 0 7.716 3.84 1.663-2.858 0 0 4.683-.292 3.103-5.725 0 0 2.786 3.91 4.086-1.429 0 0 10.258-14.32-.164-6.698 0 0 5.855-12.564-4.531-.398 0 0-.796-9.66-4.485.293 0 0-6.85-9.637-5.199 1.393 0 0-7.962-9.683-4.567 2.342 0 0-13.067-10.972-5.667 2.272 0 0-10.538-7.026-3.232 2.81 0 0-10.749-6.862-3.513 3.513 0 0-13.02-12.564-2.81 3.513 0 0-17.295-5.281-3.278 4.156 0 0-15.024-6.112-2.178 4.86 0 0-8.946-.305-2.342 4.613 0 0-17.962 1.171-1.476 4.216 0 0-19.683-1.113-.854 5.117 0 0-10.925-1.265-1.043 4.45 0 0-13.243.9-.14 4.25 0 0-11.019 2.482 2.236 4.075 0 0-12.74 8.337 3.033 5.515 0 0-12.529 6.756 2.166 2.342 0 0-8.524 5.854 1.593 2.143 0 0-4.532 11.861 3.43 1.826 0 0-1.041 6.077.118 6.394 2.634.714 2.494-7.588 2.494-7.588s8.138-1.171 8.068-3.372c-.012-1.394-4.626-1.78-4.626-1.78z" fill="#575F81" fill-rule="nonzero"/><path d="M81.404 81.052c-.129.773 2.166 1.815 5.128 2.342 2.963.527 5.48.317 5.61-.456.128-.773-2.167-1.815-5.13-2.342-2.962-.527-5.48-.316-5.608.456zM81.45 61.03c-.198.573 2.342 1.978 5.656 3.114 3.314 1.136 6.171 1.604 6.37 1.019.2-.586-2.33-1.932-5.655-3.103-3.326-1.171-6.171-1.604-6.37-1.03zM80.092 74.19c-.222.75 1.944 2.038 4.825 2.881 2.88.843 5.41.925 5.62.176.21-.75-1.944-2.05-4.824-2.892-2.88-.843-5.41-.914-5.62-.164zM88.85 73.64c-.222.75 1.945 2.05 4.825 2.893s5.398.913 5.62.164c.223-.75-1.943-2.038-4.835-2.928-2.892-.89-5.398-.878-5.61-.129zM79.706 70.256c0 .773 2.986 1.3 6.604 1.171 3.618-.128 6.534-.866 6.499-1.65-.035-.785-2.986-1.312-6.604-1.172-3.619.14-6.581.879-6.5 1.651z" fill="#575F81" fill-rule="nonzero"/><path d="M82.985 78.921c.105.492 2.2.469 4.683 0 2.483-.468 4.415-1.323 4.321-1.815-.094-.491-2.201-.468-4.684 0-2.482.469-4.414 1.347-4.32 1.815zM85.15 65.678c-.292.527 1.254 1.967 3.514 3.22 2.26 1.253 4.227 1.862 4.52 1.335.292-.527-1.242-1.967-3.443-3.22-2.202-1.253-4.262-1.862-4.59-1.335zM89.25 60.175c-.446.398.245 1.932 1.556 3.419 1.312 1.487 2.729 2.342 3.185 1.99.457-.35-.246-1.92-1.557-3.419l-.199-.222c-1.253-1.359-2.553-2.143-2.986-1.768zM112.785 49.367c-.422.363.117 1.663 1.17 2.892 1.055 1.23 2.343 1.92 2.74 1.557.399-.363-.116-1.674-1.17-2.904l-.164-.175c-1.054-1.113-2.178-1.721-2.576-1.37zM93.886 79.038c-.457.399.234 1.933 1.546 3.42 1.311 1.487 2.728 2.341 3.185 1.99.456-.351-.258-1.92-1.558-3.419l-.199-.234c-1.253-1.347-2.552-2.131-2.974-1.757zM112.633 40.702c-.597-.082-1.277 1.464-1.51 3.43-.235 1.968 0 3.63.632 3.7.632.071 1.276-1.463 1.51-3.442.234-1.979-.035-3.618-.632-3.688zM108.628 63.23c-.597-.07-1.276 1.476-1.522 3.443-.246 1.968 0 3.619.644 3.7.644.082 1.265-1.475 1.51-3.442.246-1.967-.035-3.7-.632-3.7zM121.04 42.154c-.234-.281-1.663.55-3.173 1.85s-2.553 2.576-2.342 2.845c.21.27 1.651-.55 3.173-1.85s2.576-2.611 2.342-2.845zM102.422 43.395c-.457.398.246 1.932 1.546 3.42 1.3 1.486 2.74 2.341 3.185 1.99.445-.351-.246-1.967-1.546-3.42-1.3-1.451-2.74-2.388-3.185-1.99z" fill="#474F76" fill-rule="nonzero"/><path d="M125.22 44.086c-.398-.445-1.932.246-3.419 1.546s-2.342 2.716-2.002 3.173c.34.456 1.92-.234 3.419-1.546 1.499-1.311 2.4-2.763 2.002-3.173z" fill="#575F81" fill-rule="nonzero"/><path d="M88.699 93.055c.093.491 1.487.62 3.103.292s2.845-.995 2.751-1.487c-.093-.492-1.487-.62-3.103-.28-1.615.339-2.857.995-2.751 1.475zM91.333 59.062c.094.48 1.487.61 3.103.281 1.616-.328 2.846-.995 2.752-1.487-.094-.492-1.499-.62-3.115-.28-1.616.339-2.88.971-2.74 1.486zM96.17 61.404c-.165.48.983 1.265 2.564 1.78 1.58.515 2.962.539 3.126.07.164-.468-.995-1.276-2.564-1.78-1.57-.503-2.974-.585-3.127-.07zM97.855 76.86c.106.492 1.488.621 3.103.293 1.616-.328 2.846-.995 2.752-1.487-.094-.492-1.487-.62-3.103-.293-1.616.328-2.845.996-2.752 1.488zM120.209 45.245c-.352 0-.633.96-.633 2.131 0 1.171.293 2.131.644 2.131.352 0 .633-.948.621-2.13-.012-1.183-.234-2.132-.632-2.132zM124.237 39.695c-.316-.152-.984.597-1.5 1.663-.514 1.065-.666 2.06-.35 2.213.316.152.983-.597 1.498-1.663.516-1.066.668-2.096.352-2.213zM95.502 52.06c-.21.445.82 1.393 2.342 2.096 1.522.703 2.869.902 3.091.457.223-.445-.82-1.394-2.342-2.096-1.522-.703-2.869-.914-3.091-.457z" fill="#474F76" fill-rule="nonzero"/><path d="M100.361 47.33c-.503.07-.679 1.697-.41 3.641.27 1.944.879 3.454 1.37 3.384.492-.07.68-1.686.41-3.63-.269-1.944-.878-3.454-1.37-3.396zM90.162 71.872c-.316.375.644 1.698 2.143 2.963 1.499 1.264 2.986 1.955 3.302 1.58.316-.374-.644-1.709-2.143-2.962-1.498-1.253-3.044-1.967-3.302-1.58zM104.81 51.287c-.48.152-.362 1.78.247 3.642.609 1.862 1.487 3.243 1.955 3.091.469-.152.352-1.78-.246-3.642-.597-1.861-1.487-3.243-1.955-3.09zM86.11 86.31c.106.492 1.5.62 3.116.293 1.616-.328 2.845-.996 2.74-1.487-.106-.492-1.487-.621-3.103-.293s-2.846.995-2.752 1.487z" fill="#474F76" fill-rule="nonzero"/><path d="M86.11 89.413c-.14.773 1.84 1.756 4.404 2.201 2.564.445 4.754.176 4.894-.585.14-.761-1.838-1.757-4.414-2.201-2.576-.445-4.754-.188-4.883.585zM101.286 61.591c.106.785 2.342 1.113 4.871.762 2.53-.352 4.59-1.288 4.485-2.061-.105-.773-2.283-1.171-4.871-.75-2.588.422-4.59 1.277-4.485 2.05zM94.448 67.317c-.222.75 1.616 1.968 4.11 2.705 2.494.738 4.684.75 4.941 0 .258-.75-1.627-1.955-4.121-2.705-2.494-.75-4.707-.737-4.93 0zM107.422 50.49c-.445.434.667 2.343 2.494 4.158 1.827 1.815 3.677 3.02 4.122 2.588.445-.434-.68-2.342-2.506-4.169-1.827-1.827-3.665-3.01-4.11-2.576zM91.462 51.521c-.585.48.422 2.647 2.237 4.825 1.815 2.178 3.782 3.512 4.367 3.068.586-.445-.421-2.647-2.248-4.825-1.827-2.178-3.77-3.56-4.356-3.068zM117.785 40.105c-.539-.164-1.499 1.475-2.155 3.676-.655 2.202-.75 4.099-.21 4.263.538.164 1.51-1.487 2.154-3.677.644-2.19.75-4.098.21-4.262zM94.67 46.756c-.585.48.422 2.646 2.249 4.824 1.826 2.178 3.77 3.513 4.356 3.056.585-.457-.422-2.635-2.237-4.824-1.815-2.19-3.782-3.548-4.367-3.056zM105.677 40.503c-.585.492.422 2.646 2.237 4.824 1.815 2.178 3.782 3.513 4.367 3.068.586-.445-.421-2.646-2.248-4.824-1.826-2.178-3.77-3.548-4.356-3.068zM97.036 45.233c-.2.586 2.342 1.98 5.655 3.115 3.314 1.136 6.171 1.604 6.37 1.019.2-.586-2.342-1.967-5.655-3.115-3.314-1.147-6.218-1.592-6.37-1.019z" fill="#575F81" fill-rule="nonzero"/><path d="M92.785 87.984c.094.492 1.487.621 3.103.293s2.846-.995 2.74-1.487c-.105-.492-1.487-.62-3.103-.28-1.616.339-2.845.994-2.74 1.474zM100.771 67.516c-.457.387.234 1.92 1.546 3.42 1.311 1.498 2.728 2.341 3.185 1.978.456-.363-.246-1.92-1.558-3.419l-.199-.222c-1.253-1.358-2.552-2.131-2.974-1.757zM96.626 66.404c-.504.07-.68 1.698-.41 3.642.27 1.943.878 3.512 1.37 3.395.492-.117.68-1.697.41-3.641-.27-1.944-.878-3.455-1.37-3.396zM101.544 56.814c-.445.386.246 1.92 1.557 3.42 1.312 1.498 2.729 2.341 3.185 1.978.457-.363-.246-1.92-1.557-3.42-1.312-1.498-2.728-2.376-3.185-1.978zM108.991 60.76c-.164.468.995 1.265 2.564 1.78 1.57.515 2.975.539 3.127.07.152-.468-.995-1.276-2.564-1.78-1.57-.503-2.975-.538-3.127-.07zM110.888 51.767c-.492.07-.68 1.698-.398 3.63.28 1.932.878 3.513 1.37 3.396.492-.117.68-1.686.41-3.63-.27-1.944-.89-3.466-1.382-3.396z" fill="#474F76" fill-rule="nonzero"/><path d="M116.895 23.735c5.058-.223 18.068 3.513 19.683 7.412 1.698 4.122 3.993 7.354 10.328 11.393 6.335 4.04 11.827 7.108 17.916 8.08 6.088.972 5.96-3.045 5.667-1.253-.293 1.791-7.646 13.419-22.833 12.88-1.417 0-2.682-.445-3.384.246-13.782 13.618 19.59 74.437-16.241 79.19-14.45 1.36-42.552.844-47.646-7.025-11.17-17.248-4.602-38.16.258-48.969C93.793 56.498 87.82 50.912 98.58 33.7c5.773-9.203 14.649-9.8 18.314-9.964z" fill="#F66318" fill-rule="nonzero"/><path d="M125.782 78.875c-6.3-2.518-10.07 3.77-10.07 8.805 0 13.852-3.15 24.59-14.484 32.154a27.365 27.365 0 01-14.578 2.225c.34.784.69 1.58 1.1 2.342 5.515 11.053 47.166 23.29 53.278-3.712 3.665-10.386-.316-27.166-1.077-34.098-.61-5.41-8.876-5.445-14.169-7.716z" fill="url(#c)" fill-rule="nonzero" opacity=".39"/><path d="M115.923 135.244c-5.035-7.553-16.908-29.133-24.285-20.925a36.803 36.803 0 00-10.62 21.147c6.37 7.096 33.032 7.53 47.048 6.183a19.332 19.332 0 0011.053-4.778c-7.857 3.642-19.46 4.66-23.196-1.627z" fill="#E8580E" fill-rule="nonzero"/><path d="M128.616 35.257l-6.64-3.91 3.806-11.16a6.089 6.089 0 018.314-2.155 6.077 6.077 0 012.166 8.314l-7.646 8.911z" fill="#F66318" fill-rule="nonzero"/><path d="M130.22 34.847s.796-3.91 4.579-3.794c3.782.117 5.772 7.693 11.17 11.136 5.398 3.443 10.059 6.042 15.223 6.873 5.163.832 10.398-.866 10.14.656-.258 1.522-10.62 13.091-23.536 12.611-12.915-.48-20.632-1.288-26.428-14.39-5.796-13.104-7.564-15.832-2.342-16.265 5.222-.433 11.194 3.173 11.194 3.173z" fill="#F66318" fill-rule="nonzero"/><path d="M130.22 34.847s.796-3.91 4.579-3.794c3.782.117 5.772 7.693 11.17 11.136 5.398 3.443 10.059 6.042 15.223 6.873 5.163.832 10.398-.866 10.14.656-.258 1.522-10.62 13.091-23.536 12.611-12.915-.48-20.632-1.288-26.428-14.39-5.796-13.104-7.564-15.832-2.342-16.265 5.222-.433 11.194 3.173 11.194 3.173z" fill="url(#d)" fill-rule="nonzero" opacity=".39"/><circle fill="#FFF" fill-rule="nonzero" cx="120.127" cy="42.599" r="6.405"/><path d="M122.281 40.76a9.742 9.742 0 011.019 5.855c2.213-3.7 1.1-5.445-1.019-5.855z" fill="#FAF5DF" fill-rule="nonzero"/><circle fill="#8B6239" fill-rule="nonzero" cx="119.74" cy="43.29" r="4.45"/><path d="M123.745 43.325a4.005 4.005 0 11-8.01 0c0-2.213 1.804 1.99 4.017 1.967 2.213-.023 3.981-4.239 3.993-1.967z" fill="#D9A556" fill-rule="nonzero" opacity=".4"/><circle fill="#1A1A1A" fill-rule="nonzero" transform="rotate(-81.37 119.759 43.296)" cx="119.759" cy="43.296" r="3.244"/><circle fill="#FFF" fill-rule="nonzero" cx="121.239" cy="42.002" r="1"/><circle fill="#FFF" fill-rule="nonzero" cx="140.712" cy="40.245" r="5.246"/><path d="M142.222 39.121a8.829 8.829 0 01.644 5.574c1.534-3.513 1.02-4.988-.644-5.574z" fill="#FAF5DF" fill-rule="nonzero"/><circle fill="#8B6239" fill-rule="nonzero" cx="139.834" cy="41.322" r="3.642"/><path d="M143.1 41.077a3.282 3.282 0 11-6.545.491c-.129-1.815 1.593 1.523 3.396 1.382 1.803-.14 3.02-3.677 3.15-1.873z" fill="#D9A556" fill-rule="nonzero" opacity=".4"/><circle fill="#1A1A1A" fill-rule="nonzero" transform="rotate(-85.25 139.843 41.325)" cx="139.843" cy="41.325" r="2.658"/><circle fill="#FFF" fill-rule="nonzero" cx="140.981" cy="40.187" r="1"/><path d="M164.33 49.297s7.798-1.698 8.407-.89c.609.808-.995 4.976-5.316 5.995-4.32 1.019-3.091-5.105-3.091-5.105z" fill="#010101" fill-rule="nonzero"/><circle fill="#81524F" fill-rule="nonzero" cx="157.082" cy="54.753" r="1.019"/><circle fill="#81524F" fill-rule="nonzero" cx="154.588" cy="56.182" r="1"/><circle fill="#81524F" fill-rule="nonzero" cx="156.929" cy="57.399" r="1"/><path d="M126.625 22.833s.164-4.075 3.443-3.875c3.279.199 4.31 1.311 5.047 2.622a3.513 3.513 0 01-1.066 4.263c-1.218.655-7.424-3.01-7.424-3.01z" fill="#E8580E" fill-rule="nonzero"/><path d="M144.74 62.224s-4.473 1.077-13.548-4.005-5.901 25.445 13.548 4.005z" fill="#FFF" fill-rule="nonzero"/><path d="M147.105 38.934s-5.784-3.326-13.56.913c-7.774 4.239.375-7.763 7.026-6.136 6.651 1.628 6.534 5.223 6.534 5.223zM127.632 40.538s-5.784-3.326-13.559.913c-7.775 4.24 1.955-8.395 7.026-6.135 6.533 1.615 6.533 5.222 6.533 5.222z" fill="#F66318" fill-rule="nonzero"/><path d="M147.105 38.934s-5.784-3.326-13.56.913c-7.774 4.239.375-7.763 7.026-6.136 6.651 1.628 6.534 5.223 6.534 5.223z" fill="url(#e)" fill-rule="nonzero" opacity=".39"/><path d="M127.632 40.538s-5.784-3.326-13.559.913c-7.775 4.24 1.955-8.395 7.026-6.135 6.533 1.615 6.533 5.222 6.533 5.222z" fill="url(#f)" fill-rule="nonzero" opacity=".39"/><path d="M91.205 66.193s-2.214 20.925 4.543 27.611c6.756 6.686 27.74 13.08 27.74 13.08l3.325-1.359s-16.288-10.76-17.47-18.793c-1.183-8.033-1.546-20.539-1.546-20.539s.257-8.196-8.618-7.74c-8.36.41-7.974 7.74-7.974 7.74z" fill="#E8580E" fill-rule="nonzero"/><path d="M91.123 65.292s-.54 20.514 6.065 27.318c6.604 6.803 26.288 14.273 26.288 14.273l3.349-1.3s-16.874-10.432-17.928-18.477c-1.053-8.044-1.1-20.913-1.1-20.913s.27-9.145-8.618-8.864a7.693 7.693 0 00-8.056 7.963z" fill="#F66318" fill-rule="nonzero"/><path d="M115.162 203.498l-1.112-.586c.456-.89 7.376-12.13 8.828-14.613l-4.46.503-.141-1.253 5.69-.644.305.153a.75.75 0 01.176 1.054c-1.628 2.751-8.888 14.613-9.286 15.386z" fill="#1B6687" fill-rule="nonzero"/><path d="M72.071 134.038a1.956 1.956 0 00-.585 0c-.475.098-.915.32-1.276.644-3.139 2.505-4.778 11.159-5.094 13.29l1.253.187c.667-4.684 2.342-10.257 4.215-12.201a1.874 1.874 0 011.405-.726c.12.01.24.038.352.082.113.038.22.093.316.164 1.545.644 4.274 9.742 5.035 14.918l1.253-.188c-.433-2.787-2.6-15.948-6.874-16.17z" fill="#008990" fill-rule="nonzero"/><path d="M71.427 134.038a1.92 1.92 0 00-.585 0c-.478.098-.922.32-1.288.644-3.127 2.505-4.766 11.159-5.082 13.29l1.253.187c.667-4.684 2.342-10.257 4.215-12.201a1.874 1.874 0 011.405-.726c.12.012.239.04.352.082.112.04.218.095.316.164 1.545.644 4.274 9.742 5.035 14.918l1.253-.188c-.387-2.787-2.553-15.948-6.874-16.17z" fill="#119FA4" fill-rule="nonzero"/><path d="M72.996 136.649c-1.02.57-2.304.3-3.009-.633a1.429 1.429 0 01-.164-.257 14.881 14.881 0 01-.222-1.019c-1.171-5.855.808-3.712.808-3.712.072 1.035.233 2.061.48 3.068.088.529.4.994.855 1.276.096.07.203.126.316.164.445.176.925 1.066.936 1.113z" fill="#1E7095" fill-rule="nonzero"/><path d="M171.414 16.463c2.834-4.496 9.684-6.018 11.92-4.426a3.044 3.044 0 01.855 2.846c-.082.772-2.588 7.798-6.733 6.159-1.054-.422-2.342-3.373-2.763-4.344-.621-1.406-2.073-.633-3.28-.235zM115.923 146.368c.21-8.384-10.28-27.33-18.185-32.974-5.632-4.028-20.304 12.997-17.353 21.264 2.95 8.267 14.555 12.213 19.145 20.257 4.59 8.045 5.398 27.389 5.398 27.389l2.6-.434s8.114-26.275 8.395-35.502z" fill="#F66318" fill-rule="nonzero"/><path d="M63.23 148.23l2.776 32.551s17.564 6.534 20.96 8.197c2.037-.55 5.609-1.768 6.276-2.822l-3.279-34.952-1.17-1.171-25.562-1.804z" fill="#008990" fill-rule="nonzero"/><path d="M90.022 152l-.082-.832-1.171-1.17-7.775-.54c.632 2.577.855 4.685 1.827 7.67 2.412-2.447 3.676-6.077 7.2-5.128z" fill="#008187" fill-rule="nonzero"/><path d="M56.86 150.36l2.764 32.553s14.578 7.025 27.318 6.03l-3.349-35.644-26.732-2.939z" fill="#119FA4" fill-rule="nonzero"/><path d="M82.961 151.39c-.082-.55-.152-1.112-.234-1.674-.006-.325.017-.65.07-.971-6.791-.762-17.786-2.94-17.786-2.94a6.241 6.241 0 00-4.684.715c-2.342 1.417-3.923 2.014-3.244 3.758 0 0 6.417 16.98 10.246 17.225 3.829.246 8.806-.129 16.499-11.569a19.531 19.531 0 010-2.763 5.855 5.855 0 01-.867-1.78z" fill="#008187" fill-rule="nonzero" opacity=".41"/><path d="M56.86 150.36s6.652 15.914 10.48 16.148c3.83.234 9.134-1.616 16.827-13.045 0 0 1.932-4.46 5.773-2.341 0 0 .246-2.178-3.84-2.167-5.352-.117-21.523-3.313-22.752-3.513a.281.281 0 00-.14 0c-.364.094-1.944.504-3.408 1.03-1.792.657-3.49 1.757-2.94 3.888z" fill="#77C6C1" fill-rule="nonzero"/><ellipse fill="#008187" fill-rule="nonzero" cx="68.418" cy="163.03" rx="2.412" ry="1.534"/><ellipse fill="#119FA4" fill-rule="nonzero" cx="68.102" cy="162.901" rx="2.412" ry="1.534"/><path d="M82.551 153.288c-4.192-.445-8.36-1.1-12.517-1.757-4.157-.655-8.302-1.405-12.424-2.342 4.192.434 8.35 1.101 12.518 1.745 4.168.644 8.325 1.44 12.423 2.354z" fill="#FFF" fill-rule="nonzero"/><circle fill="#1B6687" fill-rule="nonzero" cx="115.747" cy="202.901" r="2.951"/><path d="M120.103 186.414c-2.342 4.332-11.416 9.754-14.672 7.974-3.255-1.78-2.833-7.752-.456-12.084 2.377-4.333 10.058-9.005 13.29-7.213 3.232 1.791 4.215 6.978 1.838 11.323z" fill="#5E1C3D" fill-rule="nonzero"/><path d="M119.436 187.69c-2.342 4.344-10.773 8.478-14.051 6.698-3.279-1.78 1.276-8.431 3.653-12.775 2.377-4.344 6.932-6.405 10.187-4.625 3.255 1.78 2.611 6.37.21 10.702z" fill="#3F122A" fill-rule="nonzero"/><path d="M107.06 186.414l-5.188 8.395s5.011 1.886 16.217-1.264l5.738-8.83-16.768 1.699z" fill="#1B6687" fill-rule="nonzero"/><path d="M101.872 194.81a1.85 1.85 0 01-.89-2.553l5.351-8.42 2.19 2.471-6.651 8.501z" fill="#003A54" fill-rule="nonzero"/><path d="M122.07 182.175s2.67.14 1.78 2.54l-15.327 1.617s-2.448-.445-2.19-2.471l15.738-1.686z" fill="#1E7095" fill-rule="nonzero"/><circle fill="#1E7095" fill-rule="nonzero" cx="114.6" cy="203.029" r="2.951"/><circle fill="#1E7095" fill-rule="nonzero" cx="20.058" cy="3.56" r="3.56"/><path d="M19.285 5.995s-2.025.176-2.248-2.248a2.248 2.248 0 012.248-2.248s-2.892 2.283 0 4.496z" fill="#119FA4" fill-rule="nonzero" opacity=".31"/><path d="M243.392 253.614c0-1.171 1.592-2.073 3.512-2.084 1.92-.012 3.595.89 3.607 2.025.012 1.136-7.108 1.195-7.12.059z" fill="#2F4E9C" fill-rule="nonzero"/><ellipse fill="#294887" fill-rule="nonzero" cx="246.986" cy="252.174" rx="1.019" ry="1"/><path d="M246.424 244a6.815 6.815 0 01.96-4.18 17.19 17.19 0 012.682-3.349 32.248 32.248 0 015.421-4.683 13.817 13.817 0 016.628-2.342.96.96 0 01.515.07.738.738 0 01.21.925 2.342 2.342 0 01-.643.761 8.548 8.548 0 00-2.342 3.97 25.585 25.585 0 00-.539 4.742 8.84 8.84 0 01-1.346 4.496 6.873 6.873 0 01-1.745 1.651c-2.962 2.014-9.157 3.092-9.8-2.06z" fill="#83D4B9" fill-rule="nonzero"/><path d="M253.25 236.413a7.026 7.026 0 01-.819 2.26c-1.089 2.06-3.606 4.367-6.03 4.52a7.131 7.131 0 01.984-3.373 17.634 17.634 0 012.681-3.349c.96-.983 1.932-1.955 2.974-2.845.262.905.333 1.853.21 2.787z" fill="#007477" fill-rule="nonzero" opacity=".25"/><path d="M253.555 237.385a38.266 38.266 0 00-3.29 4.566 27.482 27.482 0 00-2.342 5.153 19.59 19.59 0 00-.82 5.327h.082a25.76 25.76 0 011.171-5.175 31.955 31.955 0 012.342-4.988 46.451 46.451 0 013.127-4.579 57.862 57.862 0 013.63-4.239 31.007 31.007 0 00-3.9 3.935z" fill="#007477" fill-rule="nonzero"/><path d="M241.858 240.359a6.862 6.862 0 01-1.019-4.169c.115-1.428.41-2.837.878-4.192a32.318 32.318 0 012.728-6.639 13.805 13.805 0 014.848-5.105.96.96 0 01.492-.176.75.75 0 01.609.726c-.008.34-.088.676-.234.984a8.454 8.454 0 00-.352 4.613 26.007 26.007 0 001.651 4.473 8.923 8.923 0 01.832 4.684 7.365 7.365 0 01-.82 2.26c-1.674 3.103-6.745 6.908-9.613 2.54z" fill="#83D4B9" fill-rule="nonzero"/><path d="M246.986 252.431h.082a27.166 27.166 0 01-1.534-6.51 42.33 42.33 0 01-.105-6.675c.088-2.233.287-4.46.597-6.674.281-2.225.629-4.438 1.042-6.64a51.908 51.908 0 00-1.522 6.57 55.994 55.994 0 00-.75 6.71 38.43 38.43 0 00.258 6.767 21.756 21.756 0 001.932 6.452z" fill="#007477" fill-rule="nonzero"/><path d="M160.641 123.64l-.14-.726c-.328 0-.68-.07-1.042-.13a32.037 32.037 0 01-3.513-.655c-5.492-.948-9.368-4.953-10.539-11.112-.667-4.848-2.939-11.71-7.365-12.74a14.426 14.426 0 00-4.508-.398c.56.806.957 1.712 1.171 2.67a5.386 5.386 0 013.325.374c3.185 2.342 4.626 7.284 4.872 10.07a15.023 15.023 0 0012.365 13.572c1.17.304 2.459.527 3.723.714.738.082 1.5.14 2.26.164a4.941 4.941 0 01-.609-1.803z" fill="#1E7095" fill-rule="nonzero"/><path d="M134.857 100.549a7.576 7.576 0 00-1.17-2.67h-.633a81.03 81.03 0 00-17.88 4.086.726.726 0 00-.445.972l1.616 3.724a.808.808 0 001.1.386l.656-.328c.913-.234 2.799.469 4.133-.105a2.799 2.799 0 001.85-2.12 2.95 2.95 0 002.659.165 2.775 2.775 0 001.978-2.014 2.986 2.986 0 002.635.363c1.405-.387 1.862-2.085 2.986-2.342l.515-.117z" fill="#9D4D29" fill-rule="nonzero"/><path d="M131.403 107.06c-.387.655-.234 2.727-1.44 2.34-.62-1.252-1.464-4.015-1.98-5.01-.514-.996.668 5.854-1.697 6.358-1.276.28-2.799-8.197-2.752-6.909.14 3.513-1.17 7.283-2.517 5.995-2.342-2.201-2.436-6.569-2.963-7.33a1.932 1.932 0 00-2.13-.632c.713-2.003 7.856-5.855 13.758-2.342.655.468 1.815 4.684 1.72 7.53z" fill="#854123" fill-rule="nonzero"/><path d="M154.482 123.206h0a2.681 2.681 0 00-.831 2.81l9.566 26.335" stroke="#233B75" stroke-width="3.513"/><path d="M132.527 106.556c-.386.655-.234 2.728-1.452 2.341-.609-1.264-1.452-4.028-1.967-5.023-.515-.995.667 5.855-1.71 6.37-1.264.27-2.787-8.197-2.74-6.909.14 3.513-1.17 7.284-2.517 5.984-2.342-2.201-2.447-6.569-2.974-7.318a1.909 1.909 0 00-2.167-.691c.715-2.003 7.857-5.855 13.759-2.342.702.562 1.85 4.695 1.768 7.588z" fill="#E8580E" fill-rule="nonzero"/><path d="M119.963 101.029c.527.76.644 5.128 2.962 7.33 1.37 1.3 1.932-2.213 1.804-5.773 0-1.3 2.166 6.897 3.512 6.698 1.347-.2.668-7.541 1.265-6.393.738 1.405 1.803 5.538 2.54 5.444 1.055-.14.598-9.648-.444-10.269-5.855-3.513-13.208.398-13.923 2.412a2.131 2.131 0 012.284.55z" fill="#F66318" fill-rule="nonzero"/><path d="M120.256 100.326c.07.065.154.113.245.14.2 0 .387-.116.55-.245a3.43 3.43 0 012.834-.691.773.773 0 01.422-.457 3.946 3.946 0 013.126-.304c.193-.3.504-.504.855-.562a5.234 5.234 0 012.553 0c-.74-.31-1.54-.45-2.342-.41a2.342 2.342 0 00-1.452.48 3.337 3.337 0 00-3.115.468.34.34 0 01-.14.082.386.386 0 01-.2 0 3.232 3.232 0 00-2.68.972.48.48 0 01-.153.117.644.644 0 01-.21 0c-.621-.093-1.523-.328-2.062.07a2.705 2.705 0 011.769.34z" fill="#E8580E" fill-rule="nonzero"/><path fill="#1E7095" fill-rule="nonzero" d="M145.91 126.169l34.626-10.21 22.728 4.835-33.29 9.79z"/><path fill="#D47C00" fill-rule="nonzero" d="M145.91 126.169l34.626-10.21 22.728 4.835-33.29 9.79z"/><path d="M197.362 141.04l-.913.105-20.398-46.182 2.178-.421 19.074 6.639a1.979 1.979 0 011.335 1.862l.48 36.006a2.002 2.002 0 01-1.756 1.99z" fill="#1E7095" fill-rule="nonzero"/><path d="M195.723 141.075l-19.122-6.651a1.57 1.57 0 01-1.042-1.464l-.492-36.475a1.57 1.57 0 012.073-1.498l19.121 6.65c.62.223 1.04.805 1.054 1.464l.492 36.475a1.57 1.57 0 01-2.084 1.499z" fill="#54A6C5" fill-rule="nonzero"/><path d="M193.873 137l-15.433-5.363a1.464 1.464 0 01-.972-1.358l-.399-29.73a1.453 1.453 0 011.933-1.394l15.433 5.363c.575.205.963.747.971 1.358l.399 29.73a1.453 1.453 0 01-1.932 1.394z" fill="#D9E2F8" fill-rule="nonzero"/><path d="M195.406 105.876c-5.971 5.223-12.048 9.708-18.079 14.508v2.225c6.054-4.332 12.073-8.97 18.091-13.641l-.012-3.092z" fill="#ECF0FB" fill-rule="nonzero"/><rect fill="#1E7095" fill-rule="nonzero" transform="rotate(19.21 186.728 100.179)" x="182.635" y="99.751" width="8.185" height="1" rx=".398"/><path d="M192.35 138.335c.102.51-.013 1.04-.316 1.464l-3.196-1.171-13.466-19.192-.223-16.768 8.689 1.171a1.838 1.838 0 011.557 1.546l6.955 32.95z" fill="#1F4CBD" fill-rule="nonzero" opacity=".26"/><path d="M188.357 141.31l-.82.268-27.118-38.723 1.932-.784 18.735 2.646c.781.11 1.412.693 1.58 1.464l6.944 32.974a1.862 1.862 0 01-1.253 2.154z" fill="#1E7095" fill-rule="nonzero"/><path d="M186.859 141.684l-18.735-2.658a1.475 1.475 0 01-1.23-1.171l-7.026-33.407a1.464 1.464 0 011.628-1.745l18.735 2.658c.62.085 1.114.557 1.23 1.171l7.025 33.395a1.464 1.464 0 01-1.627 1.757z" fill="#54A6C5" fill-rule="nonzero"/><path d="M184.411 138.17l-15.14-2.142a1.37 1.37 0 01-1.17-1.077l-5.703-27.225a1.358 1.358 0 011.522-1.639l15.14 2.143a1.37 1.37 0 011.171 1.077l5.726 27.213a1.37 1.37 0 01-1.546 1.65z" fill="#D9E2F8" fill-rule="nonzero"/><path d="M180.208 109.378c-4.544 5.854-9.368 11.077-13.981 16.58l.433 2.037c4.777-5.07 9.473-10.42 14.145-15.784l-.597-2.833z" fill="#ECF0FB" fill-rule="nonzero"/><rect fill="#1E7095" fill-rule="nonzero" transform="rotate(8.08 171.215 105.702)" x="167.386" y="105.298" width="7.658" height="1" rx=".375"/><path d="M178.697 112.34l3.431 28.618-8.618-1.171-9.848-17.12-3.349-15.983 16.803 3.923a2.073 2.073 0 011.581 1.733z" fill="#1F4CBD" fill-rule="nonzero" opacity=".26"/><path d="M175.805 149.53l-.937.21-26.252-45.667 2.213-.667 20.515 4.789c.85.195 1.486.902 1.592 1.768l4.461 37.318a2.084 2.084 0 01-1.592 2.248z" fill="#1E7095" fill-rule="nonzero"/><path d="M174.107 149.74l-20.573-4.801a1.64 1.64 0 01-1.253-1.393l-4.52-37.798a1.628 1.628 0 011.99-1.78l20.574 4.8a1.64 1.64 0 011.253 1.394l4.52 37.798a1.628 1.628 0 01-1.99 1.78z" fill="#54A6C5" fill-rule="nonzero"/><path d="M171.73 145.677l-16.604-3.876a1.546 1.546 0 01-1.17-1.3l-3.678-30.807a1.522 1.522 0 011.85-1.663l16.604 3.876c.622.15 1.087.666 1.171 1.3l3.677 30.819a1.522 1.522 0 01-1.85 1.65z" fill="#D9E2F8" fill-rule="nonzero"/><path d="M169.903 113.253c-5.632 6.078-11.44 11.394-17.166 17.038l.281 2.341c5.855-5.163 11.534-10.632 17.272-16.147l-.387-3.232z" fill="#ECF0FB" fill-rule="nonzero"/><rect fill="#1E7095" fill-rule="nonzero" transform="rotate(13.16 160.268 108.289)" x="155.994" y="107.838" width="8.548" height="1" rx=".422"/><path fill="#FFB739" fill-rule="nonzero" d="M145.91 126.169l7.905 27.119 16.159 1.545v-24.25z"/><path fill="#F58F00" fill-rule="nonzero" d="M203.264 120.794l-33.29 9.79v24.25l29.144-8.256z"/><path d="M200.676 86.51l-.445-2.05c-4.602 4.028-11.112.503-16.873 2.67.056.418.138.833.245 1.24.153 0 1.02-.468 1.417-.374 1.007.258 9.368 1.452 10.328 1.464 3.735 0 2.06-2.237 4.684-2.342.48.035.726-.21.644-.609z" fill="#854123" fill-rule="nonzero"/></g></svg>
