<svg xmlns="http://www.w3.org/2000/svg" width="320" height="163" viewBox="0 0 320 163"><defs><clipPath id="clip-path"><path fill="none" d="M116.15 76.69V53.94l50.02-25.35 43.46 20.34-.82 19.71-48.78 25.59-43.88-17.54z"/></clipPath><style>.cls-3{opacity:.39}.cls-4{fill:#fff}.cls-5{fill:#ffb691}.cls-7{fill:#e05a16}.cls-9{fill:#ba4b12}.cls-11{fill:#f69360}.cls-12{fill:#ffe6d9;opacity:.8}</style></defs><g id="Layer_2"><g id="FULL_PAGE_MOCKUP"><path fill="#f6854a" d="M0 0h320v163H0z"/><g class="cls-3"><path d="M94.74 24.77v-.12.16zM94.62 24.45a1.1 1.1 0 00-.07.37c0-.16 0-.09.08-.28v.06c0-.06 0-.14-.09 0s.08-.12.08-.15zM93.73 23.31zM93.72 22.36zM93.91 22.21s.01 0 0 0zM93.73 23.31c-.01-.03.01-.02 0 0zM94.29 24.81zM94 23.61h.06zM94.17 23.81l-.16.12.08-.06zM94.37 24.24zM94 23.42zM95.48 24.84zM94.73 24.4l.01-.01v-.07l-.01.08zM94.12 22s.01 0 0 0zM94.77 20.34c0-.13.07-.16.09-.31a1.93 1.93 0 00-.09.31zM94.28 24.79zM94.86 20.03v-.01.01zM94.15 21.3zM93.86 21.74zM94 21s.06 0 0 0zM94.14 20.76l-.03-.01v.01h.03zM96.14 23.76h-.12c.09 0 .11.06.12 0zM94.31 24.73v.06zM93 20.63v-.05a.09.09 0 000 .05zM96.34 21.4s.02 0 0 0zM93.08 20.42h.1z" class="cls-4"/><path d="M96.17 24.22l-.24-.16c-.09-.06.13 0 .23.05S96 24 96 23.92h.07c-.11-.09 0-.12-.12-.23l-.24-.08s-.1-.08 0 0 0 0 .08 0h-.05c.17 0 .05 0 .17.09 0-.07-.16-.16-.1-.18s0 .1.19.1h-.08c.27.05 0 0 .25.08.08-.06 0-.11 0-.17-.09 0-.14 0-.22-.07s.43 0 .23-.1-.31-.11-.19-.13l.18.06c0-.07-.26-.1-.12-.14s.06.06.08.06-.1-.06-.09-.09h.17c0-.08-.12-.18-.14-.26a.39.39 0 00.15 0c-.07-.11.05-.21.16-.3l-.14-.05H96.32c-.12-.08-.26-.2-.1-.27.06-.06-.3-.07-.16-.12.07-.12-.07-.24.14-.34-.21 0 .09-.12-.2-.11.14-.08.2-.06.29-.17s-.19 0-.22-.05h.15-.16.18-.11c-.05 0 .1-.13.17-.14l-.14-.1h.13c-.17 0 .16 0 0-.07a.59.59 0 01-.13 0c.09 0 .09-.11 0-.15h.1c0-.09-.09-.17-.1-.26a.42.42 0 01-.25.06l.16-.05h-.18c-.12 0 .17-.06.23-.06h-.07.14c-.11 0 .14-.12 0-.1h.05c0-.1-.1-.13-.14-.21s-.11 0-.23 0 .11-.17.06-.24-.11 0-.2.05c.12-.05.07-.12.17-.12a.35.35 0 00-.22-.15.25.25 0 01-.1.08s0-.07.08-.1c-.21 0 0-.54-.26-.46h-.18s.08-.06.08-.15c-.23.11-.2-.15-.37-.08 0-.37-.33 0-.45-.28V19c0 .1 0 0-.07-.05s0 .07 0 .12c-.26.14-.58.06-.93.21-.12.08.26.39 0 .34l-.09-.14c0 .3-.24.31-.18.54 0 0-.08 0-.07-.07s-.07.11 0 .16-.08 0-.13 0 .1.14 0 .11-.06.09.08.13c-.09 0 0 .12-.08.13.13.08-.11.06.09.15-.21-.09-.21 0-.11.09h-.17c-.09 0 0 .09.14.12-.28 0 .16.2-.18.14a2.84 2.84 0 01.17.38c-.22-.05 0-.11-.23-.17.07.12.24.22.17.3s-.09 0-.13 0-.06.18 0 .29 0 0 .06.05c.15 0 .3.12.38.13-.29-.07-.08.07-.45 0a.49.49 0 00.14 0h-.14c-.08 0 .16.06.15.11a.27.27 0 01-.12 0c.09 0 .18.08.13.12s-.06 0-.06 0 .24.15.15.23-.08 0-.26 0H93s.13.08.07.11h-.08v.07h.07c.09 0 .24 0 .18.05s0 0-.11.06c.06 0 .12 0 .07.07s-.2 0-.24 0c.15 0 0 .09.21.11a.23.23 0 01-.13 0h.13c0 .07.09.12 0 .18s0-.05-.21 0c0 .09.24.16.21.25.27 0-.11.09 0 .11a.31.31 0 00-.12 0c0 .07.09.11.19.17h-.07c-.06.05 0 .1 0 .15s.07 0 .16 0c-.32.25.26.13 0 .35h-.06l.1.06a.81.81 0 00.13-.11.24.24 0 01.14 0 .36.36 0 00-.21.14l.09-.05c-.15.15.21-.11.12 0h-.05.11s-.06 0-.15.07.24-.09.15 0 0 0-.09 0-.07.1-.08.14v.09c.29-.19.12 0 .32-.08-.19.11-.09.08-.2.19a.45.45 0 01-.06.12c.11-.07 0 .11.13 0v.12c0 .12 0-.07.08-.12s0 .26.23.11.2-.19.28-.24a.3.3 0 01-.08.15c0 .09 0 .09.09.05a.44.44 0 000 .13s.06-.17.08-.1a1.46 1.46 0 01-.07.19 2 2 0 00.14-.16.29.29 0 01-.07.17.26.26 0 00.16-.19v-.05a.27.27 0 010 .14v-.1c0-.28-.1 0-.15 0l.07-.2-.09.16a.33.33 0 01.06-.19v-.06-.1c0-.13-.13.11-.08 0-.09 0-.07.13-.21.27a3.54 3.54 0 01.16-.34l-.09.12v-.07c0-.07 0 .06-.1.13 0-.12-.12 0 0-.2-.09.08 0 .09-.11.13.16-.21-.07 0 0-.11s.07 0 .13-.13c-.17.15 0-.07 0-.06s-.1 0-.16 0 0-.13.07-.2c-.16.09-.15 0-.2 0a.77.77 0 01.19-.08h-.12l.13-.05s-.18 0-.11-.07c-.12 0-.32.18-.42.15.07 0 .18-.07.21-.07s-.06 0 0 0h.12-.09l.13-.07a.25.25 0 01.12-.1h-.14c-.02 0 .11-.05.15-.09s0 0-.15 0 .06 0 .1-.05 0-.08-.19 0c-.16 0 0-.16 0-.2-.07 0 0-.08-.16-.09s.08 0 .14-.05-.1 0 0-.07.08 0 .07 0 .12-.06 0-.09c.13 0 .16 0 .12-.06h-.09v-.06h.17c.19-.09-.36-.12 0-.19h-.22s.26-.08.26-.09-.25-.05-.18-.1a.49.49 0 01-.27 0h.29c.04 0 0 0 0 0h.11-.06c.06 0 .06-.06.15-.05a.1.1 0 00-.12 0c.08-.05 0-.08.06-.12s-.1 0-.1 0-.11 0-.14-.09.22 0 .14 0a.3.3 0 01.21 0c-.11-.06.08-.08.11-.1H94h.07a2.07 2.07 0 01-.3-.05c.06 0-.05-.06.1-.05-.06.05.16 0 .18.06.14 0-.18-.05-.17-.1s.17 0 .15 0h-.21c-.07 0 0 0 0-.07-.09 0-.07 0-.1-.07s0 0 .08 0c-.15-.06.17 0 .07-.09h.21c.04 0 .13 0 0-.08a.43.43 0 01-.2-.06l.06.09-.16-.09s.07.07 0 .08a.3.3 0 00-.16-.05c.19 0-.09-.08 0-.09l.29.06c.14 0-.13-.12 0-.18h-.06c-.11 0 0 0 0-.08a.49.49 0 00.19 0c-.07 0 0 0-.16-.1h.13c.07 0-.25-.15-.2-.19s.17 0 .23.1 0 0 0-.05S94 21 94 21s-.14-.06-.12-.08a.26.26 0 00-.16-.07c.31.05 0-.16.31-.11a.24.24 0 010-.14s-.24-.15-.12-.15.06.06.12.07c.3.15 0-.07.18 0 .11 0-.07-.12 0-.15a.39.39 0 01-.15-.26.64.64 0 00.15.13s-.17-.12-.17-.18a.86.86 0 01.23.15c.15.1 0 0 0 0l.06.05s-.14-.18-.09-.21c-.09-.19.08.08 0-.06l.11.17a.61.61 0 010-.27c0 .16 0 .25.08.33s0 0 0-.13 0 .07 0 0v-.26c.11.39.12.08.17.39 0-.17.06.07.08.05.06-.32 0 0 .09-.33a.76.76 0 010 .21v.13a1.59 1.59 0 01-.08.21c0-.11.07-.15 0-.11l.06-.14c.1-.13-.11.25 0 .11l-.05.08c0-.05 0 0 .17-.17l-.09.1s.24-.12.14 0h-.07s.13-.05.07 0h-.07.1-.08c-.06.1.24 0 .3 0a.54.54 0 00-.28.2c0 .08.22.06.33.12-.22.11-.06.2-.18.3a.47.47 0 01.2 0s.16 0 0 .06c-.19.05-.13.08-.14.11h.27c-.38.13.16.2-.17.28.06 0 .07 0 .13.05h-.14v.16h-.1s.41 0 .41.07h-.21c0 .07-.17.14 0 .21h-.1s-.15.12.14.12c-.19 0 0 .07.06.11h-.14c.18 0 .23 0 .27.09s-.11 0-.07 0 .13 0 0 .08h-.09l.14.07c.14.07 0 .07-.17.06.08 0 .18 0 .14.06a.3.3 0 01-.09 0c-.1.05.15.11 0 .13h-.09v-.08a1.35 1.35 0 01-.32 0c.09 0 .29.12.23.15h-.06s-.07 0-.08.05h.23c.07 0 .13.06 0 .06l.22.07h-.43c.06.07 0 .14.27.24h-.12c-.04 0 0 0 0 0s0 .09.17.15c-.09 0-.15-.07-.14 0-.31 0 .39.33 0 .31h.06c-.2 0 0 .35-.28.28-.06 0 0 .06.08.14L95 24l.11.15c0 .13-.29-.26-.19 0l.06.08s0 .1-.08 0 0 .1 0 .05v-.07.14c0-.05-.08-.31-.1-.32s0 .24 0 .3v.12c0 .23 0 .47.09.62a1.11 1.11 0 00.07-.16L95 25h-.08c.06.1.08 0 .09-.07A.35.35 0 0095 25a1.94 1.94 0 000-.24c0 .09 0 .19.1.22s-.11-.19-.07-.27c.07.09.1.17.11.08a.15.15 0 010 .12c0-.08.08-.08 0-.2.1.09.09-.1.21.08a.4.4 0 010-.21c.11.25.12-.07.29.14-.14-.2 0-.2 0-.34s.11 0 .16 0c-.15-.12-.15-.2-.24-.29.19.06.18.15.34.23-.13-.08-.09-.16-.21-.21a.57.57 0 01.21.07c-.21-.13 0-.05-.14-.15.13 0 .21.09.17 0a.24.24 0 01.24.19zm0-1.31zm0-.09h-.09c.01 0 .01.01.05 0zm-1 0zM95.32 22.91zM96.43 21.5h-.04l.03.01.01-.01zM93.47 24z" class="cls-4"/><path d="M93.57 24.19a.13.13 0 000 .06.18.18 0 000-.06zM93.67 24.39zM92.93 21.61zM93.19 22.45h0zM92.99 20.63l.01.01v-.01h-.01zM93.13 22.39s.02.01 0 0zM94.47 24.85zM94.49 24.83zM94.53 24.79s-.01.04 0 0zM94.21 24.73v.05zM94.13 24.71s0 .12.05.1c-.03.03-.01-.17-.05-.1zM94.18 24a.13.13 0 000 .06.31.31 0 01.08-.12c.06-.12-.05.14-.08.06zM94.14 23.88l.08-.08c.02-.02-.06.03-.08.08zM93.76 23h.12-.12zM93.08 22.81l-.08.03h.12l-.04-.03zM93.98 22.61l.02.01-.05-.03.03.02zM94.23 20.85l-.14-.05s.18.09.14.05zM94.43 20.21c.06.06.09.1 0 0s0-.02 0 0zM95.14 21.41h-.05l.05.02v-.02z" class="cls-4"/></g><g class="cls-3"><path d="M99.67 8.7v.12-.17zM99.88 9a.64.64 0 00.08-.37 2.91 2.91 0 00-.1.28s-.06-.06 0-.12l-.07.07c-.07.07.09.14.15 0a.2.2 0 01-.06.14zM101.94 10.86zM102.11 12.64zM101.91 12.93zM101.94 10.86v.06c.06-.02-.01-.04 0-.06zM100.38 8.67zM101.48 10.25h-.06zM101.1 9.87s.09-.1.14-.14l-.08.06zM100.41 9.25zM101.65 10.61zM98.64 8.65s.01 0 0 0zM99.67 9.06l-.01.01v.08l.01-.09zM99.55 16.87c0 .13-.12.13-.09.28.01-.05.11-.15.09-.28zM100.4 8.69zM99.46 17.15v.02-.02zM101.48 14.7zM101.91 13.83zM101.5 15.23s-.02.01 0 0zM101.3 15.7l.03.01v-.02l-.03.01zM97.41 10.29h.12c-.09-.01-.09-.11-.12 0zM100.37 8.75a.1.1 0 010-.06.11.11 0 000 .06zM102.53 15.67l-.06.08zM97 14.48zM102.37 16a.19.19 0 00-.11 0zM97.54 10.31z" class="cls-4"/><path d="M97.54 9.56c-.05.09.13.14.21.21s-.14 0-.25 0 .14.22.11.27 0 0-.07 0c.09.13-.1.21 0 .36l.23.09s.09.11 0 .08 0 0-.07-.07v.06c-.18 0 0-.07-.16-.12 0 .1.12.23.06.27s0-.15-.18-.13l.1-.07c-.28 0 0-.05-.25-.08-.1.11 0 .17-.06.28.08.06.13 0 .21.09.11.22-.45 0-.27.21s.3.13.17.2l-.17-.21c-.05.11.25.13.09.23s0-.11-.06-.1.09.08.08.15h-.17c0 .14.09.3.1.45 0 0-.1-.05-.16 0 .06.19-.07.38-.19.55l.14.08H96.9c.12.13.25.36.09.48-.06.1.3.12.16.21-.07.21.08.44-.14.61.22 0-.07.22.22.21-.13.14-.19.11-.27.29s.19.05.23.1h-.15l.17.06-.18.06.05.05s.06-.05.1-.06-.07.22-.15.24l.16.17h-.13c.17.08-.16.05 0 .12a.29.29 0 01.13 0c-.09.06-.06.17 0 .25H97c0 .16.12.3.17.47 0-.08.21-.11.24-.07l-.15.06c.11 0 0-.06.18 0s-.16.1-.23.08l.08.06h-.13c.1 0-.12.18.07.17a1.9 1.9 0 00.21.35c.13-.05.12 0 .24 0s0 .27 0 .38.11 0 .21 0c-.11.07 0 .17-.15.16a.76.76 0 00.33.26c0-.05 0-.08.07-.1s0 .1 0 .13c.27 0 .1.67.45.6h.23c.06.08-.1.05-.09.16.31-.08.32.21.56.13.06.42.51.09.73.29v-.08c0-.1.08 0 .12.05s-.07-.07 0-.12a6.74 6.74 0 001.34-.42c.13-.09-.25-.39 0-.37l.09.15c.05-.35.4-.45.4-.77 0 0 .07.06 0 .08.13 0 .12-.18 0-.23s.08 0 .13 0-.06-.2.06-.16.09-.14 0-.18c.11-.05 0-.19.14-.22-.12-.11.14-.12-.05-.23.2.1.23-.08.15-.18.06.05.09 0 .17 0a.13.13 0 00-.11-.18c.31 0-.11-.31.24-.26a3.1 3.1 0 01-.08-.63c.21.07 0 .2.19.26 0-.2-.2-.34-.11-.49s.09.05.12.07c0-.19.1-.32 0-.5h.06s0-.06-.06-.07c-.15 0-.28-.17-.36-.19.28.1.1-.13.45 0a.13.13 0 00-.13-.06h.14c0-.12-.15-.09-.14-.19a.61.61 0 01.12.05c-.09-.07-.18-.13-.13-.2s.07 0 .07 0c0-.14-.24-.26-.13-.4.21.06.07-.05.26-.05v-.08h-.09c0-.08-.13-.15-.07-.21l.08.06v-.14l-.07.08c-.09-.08-.23 0-.18-.09s0-.07.11-.11-.12-.07-.08-.12a2.26 2.26 0 01.25 0c-.16 0 0-.17-.22-.2h.16-.13.14c.08 0-.23.05-.14-.08s-.11-.22-.06-.34.06.09.21 0c0-.17-.27-.3-.25-.46-.26 0 .1-.14 0-.19a.31.31 0 00.12 0c0-.11-.11-.2-.25-.32h.07v-.25c0-.08-.08 0-.16 0 .26-.36-.35-.27-.18-.58h.07l-.3.12c-.08.08 0 .06-.1.14a.21.21 0 01-.16 0c.11 0 .15-.11.18-.18s-.06 0-.09.07c.11-.2-.19.13-.15 0s-.13 0-.15 0 .08 0 .16-.08-.27.08-.22 0 .08 0 .12 0 0-.13 0-.18v-.13.05c-.28.2-.17-.06-.4.06.22-.12.09-.09.19-.21s0-.12 0-.15 0-.13-.19 0V9.1c0-.14 0 .09-.06.14s-.15-.32-.39-.16-.23.2-.36.24.08-.16.08-.16-.1-.08-.17 0a.28.28 0 000-.13c-.06 0-.07.16-.12.08a1.42 1.42 0 01.08-.18c-.07 0-.14.11-.2.14s0-.12.08-.17a.26.26 0 00-.22.19V9c0-.02.07.06.07.1 0 .29.16 0 .25 0l-.07.2.11-.15v.19c0 .02.07-.06.09.06h.06v.11c0 .14.19-.11.17 0 .15 0 .06-.14.23-.27l-.08.38.07-.14v.09c0 .09 0-.07.09-.14 0 .15.2 0 .09.24.08-.08 0-.1.09-.14-.12.24.1 0 .08.15s-.09 0-.12.14c.16-.16.06.11.13.1s.12 0 .22 0 0 .18 0 .28c.15-.11.17 0 .24 0a.45.45 0 01-.19.09.16.16 0 01.13 0l-.12.07c0 .05.21 0 .17.16.12-.06.27-.25.41-.2-.06 0-.17.1-.2.09s.06 0 0 0h-.12c0 .06.1 0 .11 0s-.06.06-.13.09 0-.05 0 0a.26.26 0 01-.1.16s.12-.06.15 0-.1.07-.13.13 0 .05.16 0 0 .05-.09.07.08.15.21.06c.18.07 0 .27.09.38.08.06.08.15.19.18s-.08.07-.14.07.11 0 0 .15-.07 0-.07 0c0 .08-.11.1 0 .16-.13 0-.15.08-.11.11l.08-.06a.09.09 0 010 .1h-.17c-.18.16.38.24 0 .38.12 0 .08-.09.21-.06s-.25.15-.25.18.25.08.18.18.22 0 .27 0-.25.08-.29 0 0-.06-.11 0h.23c-.06 0-.06.13-.15.1s.09 0 .12 0 0 .14-.06.23h.1c-.09.13.11.07.13.16s-.22 0-.15.06-.16 0-.2 0-.09.14-.12.18a.1.1 0 010 .07H101.71c-.08 0 .2 0 .3.07-.07 0 0 .12-.11.11.07-.1-.16 0-.17-.11s0 0 0 .07c-.15.08.17.07.15.18s-.17 0-.16 0 .15 0 .21.06 0 .08 0 .12c.08 0 .06.06.08.12s0-.06-.07 0c.15.08-.18.08-.09.18h-.21c-.04 0-.14.06-.07.16s.1 0 .2.08l-.05-.16.14.13v-.13c0-.02 0 .06.16.06-.19 0 .07.14-.06.18l-.29-.07c-.15.06.1.21 0 .32h.06c.11.05 0 .08 0 .14a.37.37 0 00-.2 0c.07 0 0 .09.14.16h-.14c-.08.08.23.21.16.3-.09-.07-.18 0-.22-.14s0 0 0 .08.09.14 0 .13.13.07.11.11 0 .08.15.09c-.32 0-.1.3-.38.27a1.69 1.69 0 010 .24s.22.19.07.23 0-.09-.11-.09c-.29-.16 0 .13-.23.09-.11 0 0 .18 0 .24a.43.43 0 010 .37c-.08-.1 0-.07-.14-.15s.17.13.14.21a.48.48 0 01-.25-.11v-.06c-.16-.1 0 .07-.1.07l-.06-.05c0 .08.08.22 0 .29.07.19-.11-.05-.07.1l-.13-.15a.65.65 0 01-.06.3 2.16 2.16 0 010-.35.15.15 0 00-.06.17v-.05c0 .02 0 .25-.06.28-.13-.36-.23 0-.33-.31-.07.15-.19-.06-.29-.05 0 .3 0 0-.1.29h-.05a1.55 1.55 0 010-.21c0-.09 0 0 .07-.11s0-.14 0-.22c0 .1-.08.13-.09.08v.15c-.16.1.06-.25-.09-.16l.07-.07c-.06 0-.12-.08-.32.06 0 0 .07-.1.1-.1s-.39 0-.33-.21h.06s-.14.05-.09 0 .07 0 .06 0h-.13.09c0-.15-.28-.07-.39-.16a.36.36 0 00.23-.29c0-.16-.27-.19-.41-.32.2-.17 0-.35.09-.54a.23.23 0 01-.2 0s-.17-.07 0-.1c.19-.07.12-.13.11-.19h-.26c.35-.23-.21-.4.12-.54-.07 0-.07-.08-.14-.11h.14a.41.41 0 000-.29h.1c0-.08-.42-.07-.43-.14h.21c0-.13.17-.26 0-.39h.1s.15-.24-.14-.22c.19 0 0-.14-.06-.21h.14c-.17-.07-.22-.08-.27-.17s.11 0 .08 0-.13-.07 0-.14h.08c0-.07 0-.07-.13-.12s0-.13.18-.12c-.08 0-.18-.07-.14-.11a.13.13 0 01.09 0c.11-.1-.13-.19 0-.25H98v.15c0-.01.16 0 .33 0-.09-.07-.28-.2-.21-.26h.06s.05 0 .05-.05.08-.07.09-.11-.11-.06-.23 0v.09c-.06 0-.11-.09 0-.11l-.21-.1c.2 0 .32-.08.44-.07 0-.12 0-.25-.22-.39h.13c.05 0 0 .05 0 .07s0-.19-.14-.26c.11-.05.15.1.15 0 .35-.09-.31-.51.14-.57h-.07c.26-.15.16-.58.54-.57.08 0 0-.1 0-.2l.11.11v-.18c0-.18.33.21.32-.05v-.08s.11-.11.14 0 0-.1 0-.06v.08a1.3 1.3 0 01.08-.17c.1 0 0 .31.15.32a.65.65 0 00.09-.3v-.12c0-.23.07-.47-.12-.62l-.1.15-.06-.1h.1c-.07-.1-.09 0-.12.06a.35.35 0 00-.07-.11 1.82 1.82 0 00-.07.25c0-.09 0-.19-.08-.22s.1.18 0 .27c-.08-.08-.09-.17-.13-.07a.11.11 0 010-.12c0 .08-.14.08-.12.21-.11-.09-.16.12-.26-.08a.47.47 0 010 .24c-.07-.28-.17.1-.32-.14.08.23-.13.26-.13.44v-.05h-.19c.14.14.11.25.17.37-.2-.06-.15-.18-.31-.28.13.1 0 .22.16.27a.44.44 0 01-.23-.06c.2.15 0 .08.11.2-.15 0-.21-.1-.2 0s-.23-.53-.23-.53zm-.31 2.19zm0 .17v-.07c0-.02.09 0 .09 0s-.06.05-.11.07zm1-.18zM98.05 11.66z" class="cls-4"/><path d="M96.93 14.3l.04-.01-.04-.01v.02zM101.94 9.8zM101.68 9.46v-.08a.45.45 0 000 .08zM101.46 9.18v.05zM102.84 14s.02 0 0 0zM102.64 12.47h0zM102.53 15.66v.01-.01zM102.71 12.59v-.07c0-.02-.03.04 0 .07zM100.08 8.61zM100.06 8.63zM100 8.67s0-.04 0 0zM100.52 8.75V8.7a.2.2 0 000 .05zM100.65 8.77s-.05-.13-.1-.11c.03-.03.05.19.1.11zM100.89 9.55l-.06-.08c0 .06 0 .13-.07.13.02.19.03-.12.13-.05zM101.07 9.76s0 .07-.06.09.06-.03.06-.09zM102 11.49h-.13s.07.01.13 0zM102.73 11.82l.08-.05h-.12l.04.05zM101.85 12.15l-.02-.01.05.06-.03-.05zM101.22 15.57h.15s-.17-.06-.15 0zM100.51 16.83c-.06 0-.12-.07-.09 0s.09.02.09 0zM98.25 14.54l.05.02-.05-.05v.03z" class="cls-4"/></g><g class="cls-3"><path d="M275.88 101.59v.12-.16zM276.08 101.91a.85.85 0 00.11-.37c-.06.16-.06.09-.13.27 0 0-.05 0 0-.11s0 0-.07.06.08.14.15 0a.43.43 0 01-.06.15zM277.28 104.07zM277.28 105.71zM277.09 106s-.02 0 0 0zM277.28 104.07v.05c.01 0-.01-.03 0-.05zM276.62 101.65h-.05zM277 103.42zM276.78 103a1.2 1.2 0 00.18-.07h-.09zM276.47 102.22zM277.06 103.79zM274.83 101.82s0-.01 0 0zM275.89 101.95l-.01.01v.08l.01-.09zM275.83 109.66c0 .13-.12.12-.16.27a1.13 1.13 0 00.16-.27zM276.63 101.68zM275.67 109.93v.02-.02zM276.79 107.62zM277.12 106.8zM276.89 108.1s-.03.01 0 0zM276.77 108.56h.03v-.02l-.03.02zM274.2 103.47h.12c-.1-.01-.11-.09-.12 0zM276.59 101.73zM278 108.38v.08a.2.2 0 000-.08zM274 107.14zM277.88 108.71h-.11zM274.33 103.48z" class="cls-4"/><path d="M274.15 102.84c0 .08.16.09.26.14s-.14 0-.24 0 .17.17.16.21-.05 0-.08 0c.13.1 0 .19.12.3h.24s.11.09 0 .08 0 0-.08 0c-.18 0 0-.06-.18-.08 0 .08.17.19.11.23s0-.14-.2-.09l.08-.07h-.26c-.07.1.06.14 0 .24.09 0 .14 0 .23.06s-.45 0-.24.21.32.09.19.15h-.18c0 .1.26.1.12.19s-.05-.09-.08-.08.1.07.1.12H274c0 .12.12.26.14.39a.22.22 0 00-.16 0c.07.17 0 .34-.16.49l.15.07a.11.11 0 01-.1 0c-.06.06.09 0 .15 0h-.13c.12.11.26.31.1.41-.06.09.3.1.17.18-.07.19.07.39-.14.54.21 0-.09.19.2.19-.14.11-.19.08-.28.24s.18 0 .22.1H274h.17-.18a.16.16 0 01.11 0c.08.07-.09.19-.17.2l.15.16a.22.22 0 01-.13 0c.16.08-.16 0 0 .11s.09 0 .12 0a.16.16 0 000 .22h-.1c0 .13.08.26.1.41 0-.06.23-.08.25 0h-.16c.11 0 .06-.05.19 0s-.18.06-.24 0l.07.06a.65.65 0 01-.14 0c.11 0-.14.15 0 .16H274c0 .14.1.2.13.32h.24c0 .1-.11.22-.07.32s.12 0 .21 0c-.12 0-.08.14-.18.12a.58.58 0 00.22.28s.06-.07.11-.07 0 .08-.09.1c.24.09-.17.57.16.6l.22.08c0 .1-.12 0-.14.11.31.1.25.35.49.38a.28.28 0 00.27.32c.15 0 .3 0 .42.15V111c.05-.08.06 0 .11.06s-.07-.06 0-.12a6 6 0 00.68-.22 2.09 2.09 0 00.64-.46c.1-.11-.35-.3-.09-.34l.12.12c0-.32.24-.46.17-.74 0 0 .08 0 .07.06s.07-.17 0-.2.09 0 .14 0-.1-.17 0-.16.06-.14-.08-.15c.09-.06 0-.17.08-.21-.14-.09.11-.12-.09-.19.21.06.21-.1.12-.18s.08 0 .16 0 0-.13-.13-.14c.29 0-.16-.27.19-.26a2.16 2.16 0 01-.16-.54c.22 0 0 .18.22.21-.06-.16-.24-.28-.16-.42s.09 0 .13.06c-.08-.16.06-.29-.05-.44h.06s0-.06-.06-.07c-.15 0-.3-.14-.38-.15.29.08.09-.12.45 0a.16.16 0 00-.13 0h.14c.07 0-.16-.07-.15-.16h.13c-.1 0-.19-.1-.14-.17s.07 0 .06 0-.23-.22-.14-.35h.26l-.05-.08h-.09c0-.07-.13-.13-.07-.18h.08v-.12l-.07.07c-.1-.07-.24 0-.19-.09s0-.06.12-.09c-.06 0-.13-.06-.08-.11s.21 0 .25 0c-.16 0 0-.14-.21-.18h.16-.13.14c.08 0-.24 0-.14-.07a.06.06 0 01.05 0c.05-.11-.09-.2 0-.3s.05.08.21 0c-.05-.14-.24-.28-.21-.42-.27 0 .12-.11 0-.17s.15 0 .12 0-.09-.19-.19-.31h.07c.05-.06 0-.15 0-.21s-.07 0-.16 0c.34-.27-.27-.3 0-.53h.07l-.1-.12c-.11.05-.06 0-.14.09s-.13 0-.14 0 .18 0 .23-.1a.35.35 0 01-.11 0c.17-.13-.22.06-.12-.07s-.12 0-.12-.07.07 0 .17 0-.27 0-.17-.11.06 0 .1 0 .09-.1.09-.15v-.12c-.34.09-.12-.11-.37-.08.24 0 .12 0 .26-.12s0-.1.08-.11c-.13 0 0-.13-.16-.09l.08-.11c-.07 0-.06.06-.11.09s0-.32-.28-.28-.28.11-.4.12.12-.14.12-.14-.07-.1-.14-.08 0-.07 0-.13-.1.15-.13.06a1 1 0 01.12-.16 2.29 2.29 0 00-.23.1c0-.08.07-.11.11-.15a.27.27 0 00-.25.14v-.07c0-.01.07.06.06.11h-.05c0 .29.16 0 .24.06l-.12.17.14-.12a.32.32 0 01-.1.18c0 .11.08-.05.05.07h.08s-.08.13-.09.09c0 .14.2 0 .12.09.13 0 .11-.12.3-.18a3.55 3.55 0 01-.23.31l.12-.1v.08c.11 0 0 0 .14-.09-.07.12.15.09 0 .24.11 0 0-.1.14-.09-.2.16.08 0 0 .15s-.09 0-.16.08c.21-.09 0 .11.06.13s.11 0 .19.09 0 .17-.07.26c.17-.06.17 0 .22.07a.41.41 0 01-.21 0h.12-.14c0 .05.2.08.13.18.12 0 .33-.15.43-.08h-.21c-.03 0 .06 0 0 0h-.03s-.06 0-.14.06a.2.2 0 01-.12.12h.14c.01 0-.11 0-.15.1s0 .05.16 0-.07 0-.11 0 0 .15.2.09c.17.09 0 .25 0 .36.06.06 0 .15.16.19s-.09 0-.14 0 .09 0 0 .13-.07 0-.06 0c0 .07-.12.09 0 .16-.13 0-.15.06-.11.08h.08a.12.12 0 010 .1h-.16c-.2.14.35.24 0 .35.12 0 .08-.07.22 0 0 .06-.26.13-.26.15s.24.08.18.17.21 0 .27.05-.25.07-.3 0a.1.1 0 00-.12 0h.06c-.06 0-.05.11-.15.09a.08.08 0 00.13 0c-.09.08 0 .13-.07.21h.1c-.08.12.11.06.13.15s-.21 0-.14 0h-.21c.11.08-.08.14-.11.18a.11.11 0 010 .07h.09c-.07 0 .2 0 .3.06-.06 0 .05.1-.1.09.06-.09-.16 0-.18-.08s.17.06.16.16-.17 0-.15 0h.21c.06 0 0 .07 0 .11.09 0 .07.06.09.1s0 0-.07 0c.15.07-.18.09-.08.17h-.21c-.04 0-.13.07-.05.16s.09 0 .2.06l-.06-.15.16.11s-.07-.09 0-.11.06 0 .16 0c-.19 0 .09.12 0 .17h-.29c-.15.07.12.19 0 .3h.06c.11 0 0 .08 0 .12a.67.67 0 00-.2 0c.08 0 0 .09.17.14h-.14c-.07.08.26.17.2.25s-.18 0-.24-.1 0 0 0 .07.11.12 0 .12.14.05.12.09h.01c.05 0 .05.07.17.06-.32 0-.06.28-.33.29a.54.54 0 010 .22s.25.14.12.2-.06-.08-.13-.07c-.31-.09 0 .13-.2.12-.12 0 .07.16 0 .22h-.05a.46.46 0 01.15.33c-.11-.08-.05-.06-.17-.11s.19.09.19.17a.89.89 0 01-.27-.06v-.06c-.17-.06 0 .07-.08.09h-.06c0 .09.14.2.08.27h.05c.12.16-.11 0 0 .09l-.15-.13a.54.54 0 010 .29 3.46 3.46 0 00-.11-.34v.1c0 .02.07.26 0 .3-.14-.39-.17 0-.24-.37-.06.17-.1-.08-.12-.07-.11.31 0 0-.16.29a1.17 1.17 0 01.06-.2c0-.08 0 0 .09-.1s.08-.12.13-.18l-.08.08a.31.31 0 00-.09.11c-.16.07.18-.18 0-.11a.25.25 0 00.09 0c-.06 0-.07-.13-.31-.06 0 0 .1-.07.13-.06s-.35-.15-.24-.3h.07-.08.07s-.14 0-.11-.07h.09c.05-.15-.26-.14-.34-.24a.36.36 0 00.29-.23c0-.15-.23-.22-.35-.35.22-.13.06-.33.17-.49a.34.34 0 01-.2 0s-.16-.08 0-.1c.19-.05.13-.12.13-.17h-.26c.37-.19-.18-.38.16-.49-.07 0-.07-.07-.14-.11h.15a.36.36 0 000-.27h.11c0-.07-.41-.07-.42-.14h.21c0-.12.17-.24 0-.36h.1s.15-.21-.14-.2c.19 0 0-.12-.06-.19h.14c-.18-.06-.23-.07-.27-.15s.11 0 .07 0-.13 0-.05-.12h.08c0-.06 0-.06-.13-.1s0-.12.17-.12c-.08 0-.18 0-.14-.09a.3.3 0 01.09 0c.1-.09-.15-.16 0-.23a.26.26 0 00.09 0v.14c0-.01.16 0 .33 0-.09-.06-.29-.17-.23-.23h.06c.11 0 .06-.06.07-.1s-.11-.05-.23 0v.08c-.07 0-.12-.06 0-.09l-.22-.07c.2 0 .31-.1.44-.1-.07-.11 0-.24-.27-.34h.12c.04 0 0 0 .05.06s0-.18-.18-.22c.1-.06.16.07.15 0h.06c.32-.12-.4-.42 0-.54h-.06c.22-.18 0-.55.34-.64.08 0 0-.09-.08-.17l.14.06-.12-.14c0-.17.39.1.26-.13l-.08-.06s.06-.13.12 0-.05-.09 0-.06l.05.07a.43.43 0 010-.16c.08 0 .12.28.16.29s0-.24 0-.29V101.72c0-.23.08-.48-.16-.61l-.11.16-.08-.09h.12c-.1-.09-.12 0-.14.1a.2.2 0 00-.1-.09 1.15 1.15 0 000 .26c-.06-.07 0-.19-.14-.19s.15.15.11.25-.15-.13-.14 0c0 0-.06-.08 0-.12s-.12.13-.06.24c-.13 0-.09.16-.26 0a.53.53 0 01.06.23c-.17-.22-.11.13-.33 0 .16.18 0 .25.05.4 0 0-.05 0 0 0h-.18c.18.09.19.18.28.27-.2 0-.19-.12-.37-.17.15 0 .1.17.23.19a.44.44 0 01-.23 0c.23.09 0 .06.15.15-.13 0-.22-.06-.17 0s-.23.14-.23.14zm.07 1.91zm0 .15a.13.13 0 000-.06h.1s-.07.04-.11.06zm1-.21zM275 104.63zM277.3 104.05z" class="cls-4"/><path d="M273.93 106.98h.03l-.03-.01v.01zM277.58 103.15zM277.47 102.79v-.07a.25.25 0 000 .07zM277.4 102.49zM278.06 106.89s.02.02 0 0zM277.82 105.57h0zM277.97 108.38h-.01v.01l.01-.01zM277.88 105.67v-.06c0-.06-.02.04 0 .06zM276.32 101.53zM276.3 101.54s-.01.02 0 0zM276.23 101.58s.01-.04 0 0zM276.73 101.77zM276.86 101.84s0-.15-.07-.14c.04-.02-.01.19.07.14zM276.75 102.61a.31.31 0 010-.08s-.08.1-.11.08c-.09.17.06-.09.11 0zM276.81 102.86h-.1c-.03 0 .07.05.1 0zM277.26 104.66h-.13s.05.01.13 0zM277.94 105.01l.08-.04-.12-.02.04.06zM277.03 105.26l-.02-.02.05.06-.03-.04zM276.67 108.44h.16s-.19-.05-.16 0zM276.31 109.71c-.07 0-.12-.06-.06 0s.07.02.06 0zM275.22 107.27l.05.02-.04-.05-.01.03z" class="cls-4"/></g><g class="cls-3"><path d="M270.83 107.81v.13-.17zM271 108.13a.77.77 0 00.11-.36c-.06.15-.07.09-.13.27 0 0-.05-.05 0-.12s-.05 0-.07.07.08.14.15 0a.3.3 0 01-.06.14zM272.22 110.3zM272.23 111.94zM272 112.21zM272.22 110.3c.01.05 0 .02 0 0zM271.57 107.88h-.05zM271.94 109.65zM271.73 109.19a1.2 1.2 0 00.18-.07.24.24 0 01-.1 0zM271.42 108.45zM272 110zM269.77 108.05s.01-.05 0 0zM270.84 108.18l-.01.01v.08l.01-.09zM270.78 115.89c0 .13-.12.12-.16.27a1.13 1.13 0 00.16-.27zM271.58 107.91zM270.62 116.16v.02-.02zM271.74 113.85h.06zM272.07 113zM271.84 114.33s-.03.01 0 0zM271.72 114.79l.03-.01-.01-.01-.02.02zM269.14 109.7h.13c-.1-.01-.12-.09-.13 0zM271.53 108h.05s-.04-.06-.05 0zM272.91 114.61v.08a.2.2 0 000-.08zM269 113.37s-.06 0 0 0zM272.83 114.94h-.11z" class="cls-4"/><path d="M269.1 109.07c0 .08.16.09.26.14s-.15 0-.25 0 .18.17.17.21 0 0-.08 0c.12.1 0 .19.12.3h-.05.25s.1.09 0 .08 0 0-.07 0c-.17 0-.05-.06-.17-.09 0 .09.16.2.11.24s0-.14-.2-.09l.08-.08h-.26c-.07.1.06.14 0 .24.08 0 .14 0 .22.06s-.44 0-.23.21.32.09.19.15H269c0 .1.27.09.13.19s-.06-.09-.08-.08.1.07.09.12H269c0 .12.12.26.14.39a.2.2 0 00-.15 0c.07.17-.05.34-.16.49l.14.06h-.07c.12.11.26.3.1.41h-.05c-.06.09.3.1.17.18-.07.19.07.39-.15.54.22 0-.09.19.21.19-.14.11-.19.08-.28.24s.18.05.22.1h-.16l.17.05h-.18a.16.16 0 01.11 0c.08.07-.09.19-.17.2l.14.16h-.12c.16.08-.16 0 0 .11s.09 0 .12 0a.14.14 0 000 .22h-.11c0 .13.09.26.11.41 0-.06.23-.08.25 0h-.16.18c.13 0-.17.06-.23 0l.07.06a.65.65 0 01-.14 0c.1 0-.14.15 0 .15h-.05a2.37 2.37 0 00.13.32h.24c0 .1-.11.22-.07.32s.12 0 .21 0c-.12 0-.08.14-.19.12a.67.67 0 00.23.27s.06-.06.1-.06 0 .08-.08.1c.24.09-.17.57.16.6l.21.08c.05.1-.11 0-.13.11.31.09.25.35.49.38a.28.28 0 00.27.32c.15 0 .3 0 .42.14v-.09c.06-.07.07.06.12.07s-.07-.07 0-.12c.22-.08.44-.11.68-.22a2.09 2.09 0 00.64-.46c.1-.11-.35-.3-.09-.34l.12.12c0-.32.24-.46.17-.75 0 0 .07 0 .07.07s.07-.17 0-.2.09 0 .14 0-.1-.16 0-.15.06-.14-.08-.15c.09-.06 0-.17.08-.21-.14-.09.11-.12-.1-.2.22.07.22-.09.13-.17s.08 0 .16 0 0-.13-.13-.15c.29 0-.17-.26.19-.25a2.16 2.16 0 01-.16-.54c.22 0 0 .18.22.21-.06-.16-.24-.28-.17-.42s.1 0 .13.06c-.07-.17.07-.29 0-.44h.06c.06 0 0-.06-.07-.07-.15 0-.3-.14-.38-.15.29.08.09-.12.45 0a.16.16 0 00-.13 0h.14c.08 0-.16-.07-.15-.16h.13c-.1 0-.19-.1-.14-.17s.07 0 .06 0-.24-.22-.14-.35h.26l-.05-.08h-.09c0-.07-.13-.13-.07-.18h.08v-.12l-.08.06c-.09-.06-.23 0-.18-.08s0-.06.11-.09c-.05 0-.12-.06-.07-.11s.21 0 .25 0c-.16 0 0-.15-.21-.18h.15-.12.13c.07 0-.23 0-.13-.08h.05c.05-.11-.09-.2 0-.3s.05.08.21 0c-.05-.14-.25-.28-.21-.42-.27 0 .12-.11 0-.17a.28.28 0 00.12 0c0-.1-.08-.19-.19-.31h.07c.06-.06 0-.15 0-.21s-.07 0-.16 0c.34-.26-.27-.29 0-.52h.07l-.1-.12c-.11 0-.06 0-.14.09s-.13 0-.14 0 .17 0 .23-.1h-.11c.17-.13-.22.06-.13-.07h.06s-.13 0-.12-.07.07 0 .17 0-.27 0-.17-.11.06 0 .1 0 .09-.1.09-.15v-.12c-.34.09-.12-.11-.37-.08.24 0 .12 0 .25-.12s0-.1.09-.11c-.14 0 0-.13-.16-.09 0 0 0-.05.08-.11-.07 0-.06.06-.11.09s0-.32-.28-.28-.28.1-.41.11.13-.13.13-.13-.07-.1-.15-.08a.22.22 0 000-.13s-.11.15-.13 0a.57.57 0 01.12-.15c-.07 0-.17.08-.23.1s.07-.11.11-.16-.2 0-.25.15V107.59c0-.02.07.07 0 .12-.05.29.16 0 .23.06l-.11.17.14-.12c0 .06-.06.16-.1.17s.07 0 .05.08h.07s-.07.13-.08.09c0 .14.2-.05.12.09.13 0 .11-.12.3-.18l-.23.31.12-.1v.08c.11 0 0 0 .13-.09-.06.12.16.09 0 .24.11-.05 0-.1.14-.09-.21.16.08 0 0 .15s-.09 0-.17.08c.22-.09 0 .11.06.13s.12 0 .2.09 0 .17-.08.26c.18 0 .18 0 .22.07a.31.31 0 01-.2 0 .16.16 0 01.12 0h-.14s.2.08.13.18c.12 0 .33-.15.43-.08h-.21c-.03 0 .06 0 0 0h-.13c0 .05.1 0 .1 0s-.06 0-.14.06a.22.22 0 01-.13.12h.15c.02 0-.11 0-.15.1s0 0 .15 0h-.1c-.04 0 .05.15.19.09.17.09 0 .25 0 .36h-.05c.06.06.05.15.16.19s-.09.05-.15.05.1 0 0 .13-.07 0-.06 0-.12.09 0 .16c-.13 0-.16 0-.12.08h.09a.12.12 0 010 .1H272c-.2.14.35.24 0 .35.12 0 .08-.07.22 0 0 .06-.26.13-.26.15s.24.08.17.17.22 0 .28 0-.25.07-.3 0 0 0-.11 0h.06c-.06 0-.06.11-.15.09s.09 0 .13 0 0 .12-.07.21.1 0 .1 0 .11.06.13.14-.21 0-.14.06-.16 0-.21 0c.11.08-.08.14-.11.18a.11.11 0 010 .07h.12a.07.07 0 01-.07 0c.07 0 .19 0 .3.06-.07 0 .05.1-.11.09.07-.09-.15 0-.17-.08-.15.08.17.06.16.16s-.17 0-.15 0h.21c-.08 0 0 .07 0 .11.08 0 .07.06.09.1s0 0-.07 0c.15.07-.18.09-.08.17h-.21c-.04 0-.13.06 0 .16s.09 0 .2.06l-.07-.15.16.11s-.06-.09 0-.11.06 0 .16 0c-.19 0 .09.12 0 .17l-.29-.05c-.15.07.12.19 0 .3h.06c.11 0 0 .07 0 .12a.67.67 0 00-.2 0c.07 0 0 .09.17.14h-.14c-.07.08.25.17.2.25s-.18 0-.24-.1 0 0 0 .07.1.11 0 .12.13 0 .12.09 0 .08.17.07c-.32 0-.06.28-.33.29a.81.81 0 010 .22s-.05 0 0 0 .25.14.12.2-.06-.08-.13-.07c-.31-.09 0 .13-.2.12-.12 0 .07.16 0 .22a.46.46 0 01.15.33c-.11-.08-.05-.06-.17-.11s.19.09.19.16a.66.66 0 01-.28 0v-.06c-.18-.06 0 .07-.08.09h-.06c0 .09.13.2.07.27h.06c.12.16-.11 0 0 .09l-.16-.13a.46.46 0 01.05.29 3.46 3.46 0 00-.11-.34v.15c0 .09 0-.07 0 0s.07.26 0 .3c-.14-.39-.18 0-.25-.37-.05.17-.09-.08-.12-.07-.11.31 0 0-.15.29a.66.66 0 01.06-.2c.05-.08.05 0 .09-.1s.08-.12.13-.18-.11.11-.09.08l-.09.11c-.15.07.19-.18 0-.11a.25.25 0 00.09 0c-.06 0-.07-.13-.31-.06 0 0 .1-.07.13-.06s-.36-.15-.24-.31h.07-.09.08s-.15 0-.12-.06h.09c.06-.15-.25-.14-.33-.24a.38.38 0 00.29-.23c0-.16-.24-.22-.35-.36.22-.12 0-.32.17-.48a.34.34 0 01-.2 0s-.16-.08 0-.1c.19 0 .13-.12.13-.17H270c.36-.18-.18-.37.16-.48-.07 0-.07-.07-.14-.11h.14a.32.32 0 000-.27h.1c0-.07-.41-.07-.42-.14h.21c0-.12.18-.24 0-.36h.1c.01 0 .15-.21-.14-.2.18 0 0-.12-.06-.19h.14c-.18-.06-.23-.06-.28-.14s.12 0 .08 0-.13 0-.05-.12h.08c0-.06 0-.06-.13-.1s0-.12.17-.12c-.08 0-.18 0-.14-.09a.14.14 0 01.09 0c.1-.09-.15-.17 0-.23h.09v.14c0-.01.16-.05.33 0-.09-.06-.29-.17-.23-.23h.06a.12.12 0 00.05 0c.1 0 .06-.07.07-.1s-.11 0-.23 0v.32c-.07 0-.13-.07 0-.09l-.22-.07c.2 0 .31-.1.43-.1-.06-.11 0-.24-.26-.34h.12c.04 0 0 0 .05.06s0-.18-.18-.22c.1-.06.16.07.15 0h.05c.33-.13-.39-.42 0-.54H270c.23-.18 0-.55.35-.64.08 0 0-.1-.08-.17l.14.06-.12-.14c-.05-.17.38.1.26-.13l-.08-.06s.06-.13.12 0-.05-.09 0-.06v.06a.81.81 0 010-.15c.07 0 .12.28.16.29s0-.24 0-.29v-.12c0-.23.08-.48-.16-.61l-.11.16-.08-.09h.12c-.1-.09-.12 0-.14.1s-.07-.09-.1-.09a1.15 1.15 0 000 .26c-.06-.08 0-.19-.14-.19s.15.15.11.25-.15-.13-.15 0a.16.16 0 010-.12c0 .1-.11.14-.05.25-.13 0-.09.16-.26 0a.53.53 0 01.06.23c-.17-.23-.11.13-.34 0 .16.18 0 .25.05.4s-.11 0-.17 0c.18.08.19.18.28.27-.2 0-.2-.12-.37-.17.15 0 .1.17.23.19a.59.59 0 01-.23 0c.23.09 0 .06.15.14-.13 0-.22 0-.17.05s-.18-.31-.18-.31zm.07 1.91zm0 .15a.13.13 0 000-.06h.1s-.07.04-.11.06zm1-.21zM270 110.86z" class="cls-4"/><path d="M268.88 113.21h.03l-.03-.02v.02zM272.53 109.38zM272.42 109v-.07a.25.25 0 000 .07zM272.35 108.72h-.06zM273 113.12s0 .02 0 0zM272.76 111.8h0zM272.92 114.61h-.01.01zM272.83 111.9v-.06c0-.06-.02.04 0 .06zM271.27 107.76zM271.24 107.77s0 .02 0 0zM271.18 107.81s.01-.04 0 0zM271.68 108zM271.8 108.07s0-.15-.06-.14c.04-.02-.01.19.06.14zM271.69 108.84v-.08c0-.02-.08.1-.11.08-.08.16.07-.09.11 0zM271.76 109.09h-.1c-.03 0 .07.05.1 0zM272.21 110.89h-.13.13zM272.89 111.24l.08-.04-.12-.01.04.05zM271.98 111.49l-.02-.02.05.06-.03-.04zM271.62 114.67h.16s-.19-.05-.16 0zM271.26 115.94c-.07 0-.12-.06-.07 0s.08.06.07 0zM270.17 113.5l.05.02-.05-.05v.03z" class="cls-4"/></g><g class="cls-3"><path d="M116 11.77l.08-.13a.74.74 0 00-.08.13zM109.47 24.71c0-.1.06-.15 0-.16s-.02.17 0 .16zM108 26.72l.09-.12a.31.31 0 00-.09.12zM116 11.77l-.21.33c.01.05.1-.16.21-.33zM118.71 6l.06-.11a.5.5 0 000-.12zM121.16 1.68c-.07.09 0 .2.06.27a.48.48 0 010-.26s-.01-.02-.06-.01zM117.08 9.09h-.06s.04.02.06 0zM105.3 30.24c.07-.11.03-.06 0 0zM68.93 33.63c.3.38-.7-.32-.22.21-.02-.08.64.16.22-.21zM68.71 33.84h.05zM97.67 36.91h.12c.05 0-.04-.01-.12 0zM103.79 32.41a1.49 1.49 0 01-.14.12.87.87 0 00.14-.12zM94.13 38.67a1.08 1.08 0 00-.26.08.45.45 0 01.26-.08zM90.12 39.62H90.33zM28.07 4.22a.62.62 0 01-.19-.14c.06.11-.57.1.19.14zM94.32 39.78l-.66.2a6.64 6.64 0 00.66-.2zM55.71 9.64l-.09-.12zM91.68 40.48a1.8 1.8 0 00-.4 0h-.08z" class="cls-4"/><path d="M122.59 0a2.89 2.89 0 01-.49.75c0-.19.3-.53-.08-.2 0 .37-.56.77-.75 1.14.14.11-.42.79-.71 1.42a16.62 16.62 0 00-1.11 1.6c.1.2-.26.76-.45 1.2-.08-.07-.08-.17 0-.42l-.21.4a1.36 1.36 0 01-.16.53l-.07-.16a13.48 13.48 0 01-.85 1.8c.1.1.6-.39.31.38-.08 0-.2 0-.13-.23a1.1 1.1 0 01-.15.36v-.35c-.21.3 0 .21-.14.46-.08-.05-.15.15-.2.08a1.76 1.76 0 00.16-.31 2.79 2.79 0 01-.51.67c.06 0 .12.06 0 .28-.26.54-.2.13-.4.43 0 .16-.23.47-.1.54-.08.16-.15.16-.22.21-.07.31-.61 1.32-.31 1.07v-.07c-.3 1-1 1.88-1.34 2.83h-.05c-.2.57-.53 1.24-.62 1.67-.08.16-.26.34-.28.25a4.07 4.07 0 01-.5 1.07c.12-.46-.13.11.15-.46a3.68 3.68 0 00-.58 1.25c0-.25-.34.34-.43.61l.26-.33c-.12.29-.25.54-.38.79l-.09-.21c-.72 1-.67 2.13-1.4 2.8 0 .34.38-.55.36-.23a10 10 0 01-.84 1.05c-.45.62-.13.74-.58 1.42.11-.06.29-.07 0 .48s-.56.47-.43.14c.07-.12.12-.16.13-.15.07-.17.17-.38 0-.22v.09c-.19.21-.57.88-.57.67-.16.4 0 .21.18-.05-.43.59-.59 1-1 1.56.09-.08.2-.14.14 0-.63.89-.16.47-.55 1.1-.3.29-.09-.25-.44.41-.3.34-.18 0-.12-.19a5.07 5.07 0 01-1 1.28l.17-.32a3.83 3.83 0 01-.31.47l.21-.09c-.14.15-.24.29-.28.26-.06.22.26 0 .09.39-.22.18-.48.7-.66.68.59-.64-.19 0 .26-.61a2.69 2.69 0 01-.34.4v-.09c-.64.54-.1.41-.66 1.06 0-.14-.26 0-.34.15.23-.25.22 0 .06.26-.43.36-.37.48-.57.69l.25-.22a1.74 1.74 0 01-.46.63c-.08 0 .21-.28.09-.2-.19.41-.8.56-1.15 1.05-.25.14-.14-.1-.35 0-.42.52-.62.38-1.08.9.22 0 .24-.07-.08.32.29-.25.55-.54.83-.8l-.45.61c.27-.22.51-.53.68-.65-.2.3-.19.25 0 .22-.49.17-.64.72-1.17.94l-.17-.24a4.09 4.09 0 00-.93.71 6.26 6.26 0 01-1.11.79l.32-.14c-.07.17-.55.38-.83.58 0-.1-.23 0-.39 0 0 0-.69.36-.69.58a3.71 3.71 0 01-.48.1c-.81.29-.79.66-1.58.95.2-.19-.18-.11.31-.4-.25.12-.5.18-.48.24-.17 0-.68.37-1 .37-.09.07-.1.19-.4.28s-.46.19-.16.23a5.18 5.18 0 00-1.61.26 5 5 0 01-1.53.16c-.6.13-1.33.19-1.88.26h.1c-.76 0-.45.3-1.33.23-.45-.16.46-.1.18-.15-.12-.33-1 .08-1.63-.16h.15c-.44-.15-1.1.1-1.82 0v-.05a7.58 7.58 0 01-2.17 0c.24-.09.33 0 .22-.16-.32 0 0 .22-.58.14-.19-.11-.62-.25-.65-.4l.58.1c-.26-.22-.75-.13-1-.25l.06-.06a13.36 13.36 0 01-1.89-.29l.08.09c-.57 0-.4-.24-1-.26l-.09-.24a13.8 13.8 0 01-1.84-.44 12.32 12.32 0 011.57.27 5.65 5.65 0 00-1.11-.58 1.32 1.32 0 01.44.13 4 4 0 01-1.65-.44c.13-.14-.27-.35-.75-.58a3.67 3.67 0 01-1.17-.78 18.21 18.21 0 01-3.26-2c.25.53-.35-.23-.46.07-.28-.17-.38-.26-.39-.29l-.7-.76c-.13-.22.29.14.31.07-.55-.47-.16-.29-.47-.65 0 .14-.3 0-.58-.34l.35.48c-.88-.54-.5-.75-1.34-1.33l.3.15a23.65 23.65 0 00-1.83-1.61c0-.09 0-.23.12-.07-.37-.49-.82-1-1.19-1.55a5.16 5.16 0 01-.85-1.53l.11.05c-.12-.2-.32-.3-.37-.6 0 0 .11.06.07 0a3.12 3.12 0 01-.43-.83l.18.22a9.54 9.54 0 00-.61-1.4 7.76 7.76 0 01-.61-1.26c.22-.07 0-1-.09-1.49-.36-1.4-.79-2.33-1.22-3.62a23.9 23.9 0 00-.91-4.19c0 .21-.18 0-.28-.2s-.43-.78-.23-.8v.11c.09-.3-.21-.9-.41-1.38h-.27a5.77 5.77 0 00-1-2.15c-.43-.69-1-1.21-1.06-1.63a9.3 9.3 0 00-.83-.7l.08-.05a7.91 7.91 0 00-1.93-1.66l.25.06c-.52-.4-.91-.11-1.4-.4l-.06-.27a8.65 8.65 0 00-3.1-1.23s.08-.08.25 0c-.49-.19-1.93-.64-1.81-.31 0-.19-1.11-.23-1.71-.21l.11-.13a3 3 0 01-1.23.15c-.16 0-.14-.12.08-.07-.54-.1-.44.1-1.09 0l.25-.08a1.5 1.5 0 00-.83.11 2.16 2.16 0 01-1.15-.17 1.12 1.12 0 01-.71.15s.07-.08.13-.09c-.94-.08-1.38.21-2 .11a.15.15 0 00-.11-.08 12.19 12.19 0 011.28 0c0-.13-.61-.13-.13-.33a7.93 7.93 0 01-1.88.36.2.2 0 01-.08 0h.06a1.08 1.08 0 00-.37 0h-.49c-.07-.1-.69 0-1 0 0 .14-.36.15 0 .23h.37l.74-.07a1.44 1.44 0 01-.8.12l-.4.26C35.8 3 35 3 34.89 2.85a12.12 12.12 0 00-2.67.5c-.25 0-.3-.06-.4-.1a1.55 1.55 0 00.4-.08c-.5.1-1.51.09-1.63.27-.65-.06.36-.17-.52-.13l.11-.05c-1.71-.3-2.86.43-4.73-.25.13.05.19.07.21.1-2.11-.48-4.44-1-6.1-2.46a2.4 2.4 0 00-.94-.5V0h-1.4c.25.25.51.51.38.55.48.11 1.3.93 2 1.2a.52.52 0 01-.19-.06 8.48 8.48 0 01.66.54c.15-.15.76.15 1.14.17.41.39-.39.08-.31.31 0-.15.91.24.8 0 .33.26.3.18.44.41.15-.21.36.11.74.06.52.29.08.27.72.38.28.15-.31.09-.3.08.64.19.35-.09.51-.16.77.14.32.22.56.38.5.05.9 0 1.25 0 0 0 .09.06 0 .08A14.91 14.91 0 0027.8 4h.08a.27.27 0 01-.08-.26c.29 0 .54-.08.64 0a.42.42 0 00-.27.07h.3c.26.19-.42 0-.42.17a16.14 16.14 0 011.73.02c.1.17-1.06 0-.45.2l-.7-.08c.52.28-.43 0 .05.27.93.08 1-.06 2 0 .2-.1-.08-.14.13-.23 1.29-.21 1 .39 2 .11a1.15 1.15 0 011-.28l-.22.2c.88 0 .48-.31 1.41-.25-.15.09-.68.12-.55.13.61.1.42-.14.88-.18l.1.16c.94-.1 2-.31 3-.42-.06.06-.23.12 0 .16a17.35 17.35 0 014 0l.48-.14c.11 0 .2.08.08.1.48.07 0-.09.26-.14s.36.1.18.13a8.84 8.84 0 013.31.27h-.18c.67.19.83-.14 1.43.14h-.12a10.45 10.45 0 013.89 1.65c.32-.08 1.18.88 1.41.72.57.65.36.53 1.12 1.44.21.23.46.22.72.52l-.11.1.46.32v.34a2.2 2.2 0 01.24.28c-.07-.13-.11-.3-.06-.31a2.93 2.93 0 01.6 1.31l.73 1.17c-.07 0-.19-.2-.31-.34.47.59-.07.18.33.73 0-.09.1 0 .14 0a8.54 8.54 0 00.56 1.59l-.14-.07c.33 1 .74 2.06 1 3.2-.07-.42.14-.38.24 0l-.12.18c.16.19 0-.37.21 0 .09.43-.11.34-.22.11l.19.5s-.09-.07-.16-.09c.15.19.07.94.32 1.2.29 1.15.47 1.66.74 2.6.14 0 .21.36.39.61a16.24 16.24 0 00.57 2.32c.26.55.17.13.34.36-.11.08.19.9 0 .51a13.31 13.31 0 001.2 2.39c0-.16-.07-.31 0-.25s.2.51.13.51v-.05c.2.31.42.65.62 1s.37.76.59 1.12a5.32 5.32 0 001.4 1.72h-.06c.32.27.64.53 1 .78s-.31-.16-.06.18c1.12.75 1.56 1.41 2.52 2a4.85 4.85 0 001.52 1.25 13.55 13.55 0 011.83 1.18v-.11c.29.08.28.21.47.34 0-.08-.25-.22-.06-.18A47.08 47.08 0 0079 40c.91.24.63-.31 1.72.16l-.36.09a34.46 34.46 0 005.69.55c-.11 0-.12.08-.3.07a2.58 2.58 0 001.46-.09c.28 0 .07.09.24.14.4.07 1-.19 1.2-.1 0 0-.11 0-.18.07.25-.08 1.19-.1.94-.21.7 0 1.3-.25 1.87-.25.33-.19 1.18-.17 1.24-.41 0 .22 1.25-.09 1.62-.37-.12.11.38-.06.25.09.48-.17.9-.35.78-.43 1-.09 1.63-.92 2.24-.83a33.57 33.57 0 003.45-2.42c0 .1-.24.33-.53.55s-.58.39-.49.47a10.9 10.9 0 001.24-1.08c.38-.33.75-.66 1.23-1.06.27-.19-.07.19-.13.3a22.18 22.18 0 002.51-2.54s0 .12-.11.22c.14-.17.37-.36.28-.41l-.13.18c-.34.16.36-.86.33-.94 0 .48.77-.79.67-.09.08-.13.15-.3.08-.32.15-.15.23-.18.15 0 .45-.65.19-.5.64-1.06v.25a4 4 0 01.67-1.15s.08 0 0 .16c.62-.84.8-1.59 1.5-2.49 0 .4.26-.28.45-.24l.28-.54-.21.16c.29-.45.41-.93.69-1.3l-.13.39.47-.89-.34.46c.18-.52-.24-.07.16-.66 0 .14.27-.46.5-.65A2.41 2.41 0 01111 23c.1-.06.14.17.21.13 0-.3.54-1.12.55-1.49 0 .12.07.17.1.14v-.25c.15-.2.18-.22.23-.15.36-.65-.31.1.17-.63v.18c.43-.77.69-1.56 1.09-2.27.27-.13-.27.66 0 .48.47-1.06.84-2.28 1.35-3.28l-.1.18c-.18-.25.47-.71.6-1.28v.19a23.54 23.54 0 001-2.56v.16c.25-.39.55-1.07.79-1.5 0-.16.13-.41 0-.3 1-1.19 1.08-2.69 2-3.74-.08.15-.13.37-.07.26l.48-1c-.15 0-.13.1-.32.27a2.11 2.11 0 01.24-.73c-.17.5.16.09.33-.08 0 0 0-.07-.09-.07.47-.42-.16-.2.36-.84v.06a5.65 5.65 0 01.37-.84c.18-.06-.11.31 0 .38.22-.4.24-.91.57-1.2-.07.18-.21.43-.28.61a2 2 0 00.55-.65c.15-.2.29-.41.45-.61l-.15.15c0-.67.58-1 .81-1.81-.23.76 0 .18.13.31.15-.14.36-.36.34-.27.11-.35.39-.45.55-.9zM38.38 3.51h-.3z" class="cls-4"/><path d="M39.63 3.43h-.54c-.05 0 0-.1.12-.1-.07.06.23.07.42.1zM36.92 2.65h.29-.34a.15.15 0 01.05 0zM36.58 2.86h-.08.18zM116.08 11.62zM54.87 8.6l.03-.02-.09-.06.06.08zM119.59 5.68a.15.15 0 00.07-.06zM121.08 3.13l.26-.34c-.12.15-.2.21-.26.34zM122.35 1.24a.24.24 0 000-.07zM104.58 32.94l-.06.07c-.12.17-.03.06.06-.07zM110.58 23.84c0 .12-.07.23-.11.34.1-.18.17-.29.11-.34zM94.39 39.76l-.07.02.07-.02zM110.21 24.62a2.1 2.1 0 00.26-.44 2.82 2.82 0 00-.26.44zM121.62 1.08c.21-.36-.06 0-.08-.07-.1.25-.12.31.08.07zM113.69 16.45l-.1-.09c-.12.3.04.03.1.09zM112.86 19.72l.21-.24-.04-.19-.17.43zM111.17 21.05l.05-.13-.2.49.15-.36zM90.82 39.38l.12.14c.21-.07.22-.25-.12-.14zM78.63 38.69a1 1 0 00-.65-.26c.26.09.51.24.65.26zM57.7 10.72l.16.22-.26-.42.1.2z" class="cls-4"/></g><g class="cls-3"><path d="M33.83 119.46c0 .05.05.13.05.11l-.06-.15z" class="cls-4"/><path d="M34 119.71a1.75 1.75 0 00-.13-.35l.08.27-.06-.09c-.06-.09 0 0 0 .07s.08.11.06 0a.42.42 0 01.05.1zM34.84 119zM34.37 118.19zM34.25 117.94s0-.01 0 0zM34.84 119s.01 0 0 0zM34 119.28zM34.74 119.85s-.05-.12-.07-.18a.42.42 0 010 .09.36.36 0 00.07.09zM34.29 119.78zM35.05 119.07h.05zM34.24 120.43zM33.96 119.73v-.08.08zM33.75 117.73s.01-.01 0 0zM32.64 120.3c.12 0 .17 0 .29-.06-.05.02-.22.01-.29.06zM34 119.3zM32.93 120.24h.02-.02zM33 118.35h.05zM33.58 118.09zM33 118.69zM32.91 118.94h.02v-.01l-.02.01zM34.15 119.86h.13c-.1 0-.14-.03-.13 0zM34 119.35zM34 119.19s0 .01 0 0zM34 119.26h-.09.09z" class="cls-4"/><path d="M34.65 120.57v-.29.03l-.54-.54h-.07c.14 0 0 0 .19.08h.2s.12 0 0 0h-.27c.06 0 .2.07.15.08s-.06 0-.21 0h.07-.27s.08 0 0 .07h.23c.17.07-.43 0-.21 0s.33.06.21.07h-.19s.27.07.14.08-.06 0-.08 0 .1 0 .1.05h-.17s.13.1.15.15h-.15c.06.07 0 .09-.16.08l.13.07a.31.31 0 01-.09 0c-.06 0 .08 0 .13.07s-.08 0-.11 0 .19.2 0 .14c-.06 0 .24.18.11.12-.07 0 0 .12-.17 0 .13.17-.07-.06.1.18a.69.69 0 01-.11-.15v.09-.05.06c0-.09 0 0 0 0a.92.92 0 01.07-.13s-.11.19-.12.19l.09-.14-.11.15.14-.2a.55.55 0 00.06-.08s.09-.11 0 0h-.06a1.62 1.62 0 01-.19.13s.11-.12.09-.13a.76.76 0 00-.18.09c.1-.07.08-.08.17-.12h-.15l-.11.06.1-.07c-.2 0 .31-.23 0-.18H33.86c-.22 0 0-.08-.13-.09.37-.09 0-.1.19-.17H33.78c-.12-.08.12-.19.2-.26s-.45-.06-.24-.08h.17c-.2-.09 0-.13-.13-.22h.08l-.08-.07c-.08-.07.09 0 .14 0s-.14-.07 0 0 0 0-.11-.06c.07 0 0-.06 0-.05-.14-.07.08 0-.12-.1.21.09.18 0 .09 0l.15.06-.13-.09c.25.11-.16-.16.14 0a.67.67 0 01-.14-.23c.16.16 0 0 .18.19-.07-.06-.19-.22-.13-.2L34 119v-.1V118.89a1.29 1.29 0 01-.12-.37 1.51 1.51 0 00.06.18.16.16 0 010 .06v.12-.07a.21.21 0 010-.06V118.73v.07s0-.26.06-.16l-.07.23v-.09s.08-.11.06-.05v.06-.07c.07-.07.12-.2.12-.14v.11c0-.05.09-.09.07 0l-.16.19c.11-.12.06 0 .18-.12l-.11.11.1-.09a.46.46 0 01-.1.1s.17-.16.12-.07.1 0 .07.06-.05 0-.18.11c0 0 .24-.06.22 0 .23-.12-.1.09 0 0h-.11.18-.07c-.05 0 0 .06 0 .09a.73.73 0 00.16 0c-.36.17.23.07-.07.21h-.06.35a.6.6 0 00-.24 0h.1c-.19.06.23 0 .1 0l.06-.11v.07c0-.01 0-.06-.06-.16s.06.25 0 .13a.21.21 0 000-.08c-.08-.13-.07-.09-.09-.11h-.06c.12.33 0 .08 0 .3 0-.21 0-.11-.1-.25a.34.34 0 01-.07-.11c0 .11-.07-.08 0 .09l-.07-.11c0 .05 0 .08.06.14s-.16-.15-.11.08 0 .25 0 .35a.41.41 0 01-.06-.17c0-.06-.07 0-.06 0a1.33 1.33 0 00-.06-.12s.06.17 0 .11a1.27 1.27 0 01-.06-.18v.19a.55.55 0 01-.05-.18.29.29 0 000 .22.59.59 0 01-.05-.13c0-.11 0 0 .06.07.13.25 0-.07.07-.06l.08.19v-.17a.6.6 0 01.08.19c.06.08 0-.08.05 0v-.06s.06.13 0 .11 0-.17.07 0c0-.09 0-.14-.09-.32l.18.33-.06-.14v.07c0-.11 0-.06-.06-.16.08.12.05-.09.15.13 0-.11-.06-.07-.07-.15.12.23 0-.06.08 0s0 .07.07.17c-.08-.21.07 0 .07 0v-.15c0-.06.08.06.13.09l.18-.31h-.2a.57.57 0 01.21 0h-.11.13s-.17 0-.09-.1a1.58 1.58 0 01-.43.09 1.07 1.07 0 01.21 0s-.06 0 0 0h.11-.09a1.31 1.31 0 00.15-.05.32.32 0 01.13-.08h-.14s.11 0 .15-.08 0 0-.15 0h.1c.03 0 0-.08-.18 0-.15 0 0-.14-.05-.16h.05c-.07 0-.07-.05-.17 0s.07-.07.12-.09-.1 0 0-.06.06-.05.07 0 .08-.11-.06-.07c.12-.06.12-.12.08-.11l-.06.08.14-.09c.09-.21-.36.1-.17-.18-.09.07 0 .09-.13.17s.11-.24.1-.26-.2.16-.21.07a.52.52 0 01-.17.22.52.52 0 01.13-.27s.05 0 .07-.09c0-.07-.06-.09 0-.17a.09.09 0 000 .12c0-.11-.09 0-.13-.13a.31.31 0 010 .1c-.08-.1-.08.1-.14.11s.06-.21 0-.15 0-.15 0-.2c-.09.11-.14-.09-.2-.11h-.08v.35c0-.06-.06.07-.1-.08.1 0 0-.15 0-.19s0 0-.06 0 0 .19-.09.21-.08-.16-.09-.13.07.13.06.21 0 .07-.05.07V118.07c0 .15-.15-.1-.14 0-.05 0-.1-.14-.14-.16s-.13-.05-.12.06.07.06.12.17v-.12l.06.17v-.09a.28.28 0 00.1.14c-.14-.12 0 .12-.09 0l-.2-.22c-.14 0 0 .19-.08.2h.06c.08.08 0 0 0 .09a.62.62 0 00-.17-.1c.06 0 0 .05.12.16h-.12c-.08 0 .2.2.15.22s-.16-.07-.21-.14.09.11 0 .08.13.07.11.09a.47.47 0 00.15.08c-.3-.08 0 .13-.29.08a.46.46 0 010 .13c-.1 0 .27.11.16.12s-.08 0-.14 0c-.32-.08 0 .07-.17.06-.12 0 .1.09.07.13h-.05a.58.58 0 01.25.16.69.69 0 00-.2 0s.21 0 .24.06a1.86 1.86 0 01-.27 0c-.18 0 0 0 0 .06h-.03c0 .06.21.08.2.13h.1c.19 0-.11 0 0 .05h-.2c.05 0 .19.08.23.11a1.3 1.3 0 01-.31-.09s0 .07.11.08-.07 0 0 0 .23 0 .23.09c-.39 0-.1.1-.39.15.15.06-.05.16 0 .25.29-.08 0 0 .31 0l-.17.1h-.14c-.07 0-.12 0-.19.1h.12l.13-.07c.17 0-.24.12-.06.15h-.1c.06 0 0 .14.28.09a.24.24 0 01-.13 0c0 .1.31.08.19.2h-.07.08-.07.11-.08c0 .13.25 0 .32 0-.18.12-.19.23-.19.28.06.12.28 0 .42 0-.09.23.15.23.25.39 0 0 0-.16.08-.17s.12-.13.07.07c0 .2.08.16.14.17v-.26c.06.2.17.15.24.1s.12-.12.22 0c0-.07.05-.09 0-.16l.07.12a.24.24 0 00.21-.11v.09c.06 0-.2-.36-.17-.39l.15.15c.06-.06.26 0 .16-.2 0 0 .07.06.07.07s.21 0 0-.19c.16.1.06-.06 0-.13l.08.33c-.14-.11-.18-.14-.21-.2s.11 0 .07 0-.11-.08 0-.08h.07l-.11-.1c-.11-.1.06 0 .18 0-.07 0-.16-.09-.12-.1h.08c.11 0-.12-.13 0-.12h.08s0 .08-.05.07a1 1 0 01.32.1c-.08-.06-.27-.18-.2-.19h.14c.01 0-.11 0-.23-.06-.06 0-.11-.06 0-.06l-.22-.08h.43c-.06-.07 0-.14-.28-.22h.12c-.06 0 0-.09-.19-.12h.14c.3-.09-.41-.18-.11-.27l-.29-.3.29.29-.28-.29a.32.32 0 00-.09 0s-.11 0-.16-.09 0 .06-.06.15v-.15.18c0 .12-.08-.37-.13-.13v.1s-.06.06-.06-.06v.05-.08l-.06.14c0-.06 0-.31-.05-.33a.82.82 0 000 .28.24.24 0 010 .13 2.54 2.54 0 000 .64v-.14.05a.42.42 0 000 .13v-.22a1.48 1.48 0 000 .23v-.28.11a.38.38 0 010 .12c0-.07 0 0 .06-.15 0 .13.05 0 .05.18v-.18c0 .26.05 0 .05.3 0-.24.07-.11.11-.24s0 .06 0 0a.4.4 0 010 .13 1.47 1.47 0 01.05-.36 1.86 1.86 0 010 .41v-.29a1.06 1.06 0 010 .22v-.19.15a.58.58 0 01.31.49zm-.35-.28zm0 0h.09zm1 .14zM35.09 120.41zM34.83 119zM33.94 120.63zM34.45 119.42zM34.52 119.19zM34.39 119.17v.06zM34 118.94s0 .06 0 0zM34.14 118.68s-.05.06 0 0zM34 119.19h-.01.01zM34.08 118.71s.02-.01 0 0z" class="cls-4"/><path d="M33.91 119.31h-.01l.01.02v-.02zM33.91 119.33zM33.91 119.38s-.01-.03 0 0zM34.07 119.31zM34.11 119.28s-.07-.09-.07-.06c-.04-.03.09.14.07.06zM34.54 119.78s.06.11 0 .13-.06-.13 0-.13zM34.68 119.8v.1a.18.18 0 000-.1zM34.8 118.64l.11-.06s-.04.03-.11.06zM34.16 118.88l-.06.05.1-.06-.04.01zM34.78 118.2h.02-.07.05zM32.8 118.85l.15.05s-.18-.09-.15-.05zM32.81 119.62h-.05c.08 0 .07.01.05 0zM33.98 121.76l-.03.05.05-.04-.02-.01z" class="cls-4"/></g><g class="cls-3"><path d="M305.37 140.12v.16s-.01-.1 0-.16zM307.37 124.37v.18c0 .01.02-.2 0-.18zM307.8 121.69v.16a.32.32 0 000-.16zM305.37 140.12l.1-.41c-.05-.04-.07.21-.1.41zM306 162.06a2 2 0 00.11.21l-.08-.21zM304.88 147.08v.12l.06.11zM304.94 152.4c0-.12-.14-.15-.21-.2a.44.44 0 01.11.26s.06-.02.1-.06zM306.19 160.74l.06.14zM305.2 143.27a.12.12 0 00.05-.05s-.04.02-.05.05zM277.24.49s0-.04 0 0zM308.39 116.75c0 .15 0 .08 0 0zM307.06 71.19c0 .53-.3-.81-.31 0 .05-.1.34.65.31 0zM306 161.92l-.07-.21c.07.1.07.16.07.21zM306.75 71.17zM308.85 105.3a.44.44 0 00-.06.12s.03-.03.06-.12zM308.3 113.81v-.21a1 1 0 000 .21zM308.71 100.87a.74.74 0 000-.31.44.44 0 010 .31zM308.71 96.26v.23zM279.41 14.41a.7.7 0 01.06-.24c-.08.1-.29-.55-.06.24z" class="cls-4"/><path d="M306.09 162s-.07-.05-.1-.11l.06.14s.04.04.04-.03zM307.61 100.67v-.72c.01.2 0 .46 0 .72zM297.06 42l-.09-.14a.56.56 0 00.09.14zM307.62 97.78a1.43 1.43 0 00.09-.41.2.2 0 000-.08z" class="cls-4"/><path d="M277.28 2.61a22.56 22.56 0 01.45 2.47.39.39 0 01-.06-.2 4.65 4.65 0 01-.05.91c.2 0 .34.74.52 1.11-.11.59-.28-.31-.44-.11.16 0 .3 1 .4.74-.05.45 0 .38-.13.63.25 0 .1.39.31.72 0 .64-.19.2 0 .87 0 .34-.21-.25-.21-.25.13.69.24.29.37.42.2.81-.06.4-.1.7.14.51.41.87.49 1.25 0 0 0 .11-.08 0 .26.51.38 1.61.74 2.18a.14.14 0 010 .09.25.25 0 01.22-.16c.09.3.27.53.18.67 0-.18-.09-.18-.16-.26l.14.3c-.08.34-.17-.41-.3-.38.22.61.57 1.28.69 1.76-.13.15-.42-1.08-.35-.41a5.85 5.85 0 01-.16-.75c-.1.64-.11-.45-.24.15.24 1 .43 1.05.7 2 .16.19.11-.11.27.07.64 1.28 0 1.2.6 2.1a1.52 1.52 0 01.64.95l-.28-.16c.4.9.49.39.81 1.37-.14-.13-.39-.66-.34-.52.15.67.3.37.52.83l-.11.18c.55.89 1.18 1.85 1.88 2.77-.08 0-.24-.16-.13.1s.44.6.66.91l.7.93c.23.31.45.63.68.93l.7.85.48.29c.09.09.11.22 0 .14.34.44.09-.05.31.1s.22.35.06.25a12 12 0 012.58 2.59l-.16-.12c.46.62.8.46 1.16 1.09l-.11-.09a23.24 23.24 0 012.74 3.95c.31.09.85 1.43 1.15 1.36a12.83 12.83 0 00.78 1.91c.17.31.43.37.68.74l-.13.08c.15.15.3.3.43.45v.38l.22.35c-.07-.15-.1-.35-.05-.34a3.73 3.73 0 01.57 1.51c.27.44.55.87.81 1.32-.07 0-.2-.23-.33-.39.51.67-.08.2.37.83 0-.11.1 0 .14 0a7.91 7.91 0 00.7 1.73l-.15-.07c.46 1 1 2.21 1.43 3.41-.11-.45.1-.41.25-.07l-.1.2c.18.2-.09-.39.21 0s-.06.37-.21.13l.26.52c0 .05-.11-.07-.18-.08.18.19.21 1 .49 1.26v.05c.39 1.23.62 1.76.95 2.76.14 0 .23.38.44.64.21.75.3 1.61.55 2.51.24.61.17.15.32.41-.11.08.14 1-.07.53.29 1.08.42 1.37.82 2.72 0-.16 0-.33.06-.25.08.24.08.58 0 .56v-.07c.51 1.52.43 3.65.91 4.84v-.07l.36 1.27c.08.6-.16-.34-.16.12.45 1.35.34 2.2.68 3.33-.24.94.43 3.16.35 4.4l.08-.08c.13.3 0 .38 0 .62.06 0 0-.35.11-.16a29.87 29.87 0 01.38 4.07l.18 4.13c0 1 .49.54.34 1.81l-.18-.35c.29 2 .22 4.12.45 6.09 0-.12-.09-.12-.1-.31a3.21 3.21 0 00.12 1.54c0 .31-.09.08-.13.27-.07.42.17 1 .05 1.27 0 0 0-.12-.05-.19.06.27 0 1.27.14 1-.05.75.08 1.42 0 2 .16.39 0 1.27.17 1.39-.23-.05-.2 1.3-.1 1.77-.07-.15-.08.41-.17.23 0 .53 0 1 .15.93-.29 1 .19 2-.17 2.53.12 1.6.13 3.07.13 4.5-.23-.06 0-1.58-.2-1.53a27.21 27.21 0 01.09 3.49c-.05.35-.09-.2-.12-.32 0 1.36-.13 2.62-.1 3.83a.58.58 0 010-.26c0 .24-.07.55 0 .53v-.23c.17-.37.25 1 .32 1-.27-.43-.15 1.18-.48.52 0 .15.05.35.12.32 0 .23-.08.3-.15.06a13.1 13.1 0 01.08 1.33c-.05 0-.06-.16-.11-.25a3.9 3.9 0 01.05 1.45s-.07 0-.06-.17a28.19 28.19 0 01-.11 3.14c-.19-.38-.11.41-.3.46v.66l.12-.25a13.1 13.1 0 01-.08 1.59v-.44l-.08 1.08.13-.6c0 .59.25 0 .11.72a6.93 6.93 0 01-.21.87 2.93 2.93 0 010 1c-.07.1-.2-.11-.25 0 .13.3-.1 1.36 0 1.73 0-.12-.13-.14-.15-.1l.1.25c-.07.26-.1.3-.17.25-.12.79.27-.23.05.71v-.2c-.17.95-.15 1.85-.32 2.72-.21.24 0-.77-.14-.49-.12 1.27-.11 2.65-.31 3.86l.05-.22c.24.2-.25.89-.2 1.53 0-.15-.12-.22-.1-.17a26.46 26.46 0 00-.22 3l-.05-.16c-.12.49-.21 1.3-.29 1.83.06.17 0 .47.13.3-.56 1.61-.12 3.17-.52 4.62v-.28 1.26c.12-.1.08-.16.19-.42a2.42 2.42 0 01.07.82c0-.56-.2 0-.26.24h.11c-.21.65.24.12.09 1l-.06-.05a8.26 8.26 0 01.08 1c-.13.15-.06-.36-.17-.38a5.72 5.72 0 01.12 1.46c-.06-.22 0-.53-.08-.74a2.09 2.09 0 00-.13.93v.87-.23c.39.62.14 1.3.42 2.13-.26-.81-.13-.12-.28-.17 0 .22 0 .56-.09.47.18.39 0 .69.26 1.24 0 0 .06.43-.07.36.11.52.06-.14.13-.11a5.34 5.34 0 01.19 1.41 6.13 6.13 0 00.42 1.63 21.2 21.2 0 00.86 2c0 .32-.25-.2-.25-.2a5 5 0 00.42 1.31c-.07-.08-.07 0-.08.18.13.37.25.19.34.7a1.39 1.39 0 01-.31-.3c.11.24.24.49.36.73h.23a11.19 11.19 0 01-.48-1.08l.29.2-.38-.6c0-.15.09-.28.22 0-.05-.49-.2-.38-.22-.81l-.21-.43c.07.08.12-.11.18.17-.15-.83-.48-1.27-.42-1.62v.07c-.33-1.12-.17-.07-.55-.89l.24-.65-.18-.08c0-.12-.07-.36 0-.32-.18-.43 0 .08-.19-.15.05-.6-.3-1.58-.07-1.74-.15-.19 0 .56-.18 0 .23-.21-.15-.71-.1-1.25.15.15.15.65.2.12-.27-.3 0-1-.1-1.47-.18 0-.13-1-.24-1.71.06.05.12-1.41.19-2.1-.18-.14-.16-.86-.16-1.38.11 0 .14.12.18.4v-.49a1.49 1.49 0 01-.07-.59l.13.13a13.64 13.64 0 01.07-2.16c-.13-.05-.4.65-.43-.25.07 0 .19-.05.2.18a1.26 1.26 0 010-.43l.09.37c.08-.38-.08-.21 0-.51.1 0 .09-.22.16-.17a3.18 3.18 0 000 .38 3.17 3.17 0 01.25-.88c-.06 0-.14 0-.12-.27.06-.65.14-.21.23-.59-.06-.16.06-.57-.09-.6a.43.43 0 01.14-.29c0-.34.16-1.57 0-1.21v.08c0-1.12.36-2.29.44-3.39h.05c0-.67.15-1.47.11-2 0-.19.15-.44.19-.35a4.42 4.42 0 01.16-1.28c0 .51.1-.17 0 .52a4.1 4.1 0 00.18-1.5c.1.26.22-.47.22-.78l-.15.44c0-.35.08-.65.13-1l.14.19c.36-1.31 0-2.45.41-3.42-.08-.37-.16.71-.26.38a11.92 11.92 0 01.42-1.42c.18-.83-.16-.81 0-1.68-.07.1-.24.19-.22-.47s.33-.73.33-.34c0 .15 0 .22-.06.21 0 .2 0 .46.09.23l-.05-.09c.1-.3.18-1.14.25-.94 0-.47-.07-.2-.14.14.16-.78.12-1.24.25-2 0 .12-.13.23-.11.1.18-1.18-.07-.53 0-1.34.13-.45.2.18.2-.64.1-.49.16-.09.19.11a7.45 7.45 0 01.26-1.8V117.96l-.13.21c0-.22.05-.42.1-.41-.06-.24-.21.17-.29-.31.08-.3 0-.94.16-1-.11 1 .17-.1.14.72a3.19 3.19 0 010-.58v.1c.2-.92-.15-.44-.09-1.4.09.13.19-.21.18-.36 0 .38-.16.17-.21-.19a4.38 4.38 0 000-1l-.06.37a2.46 2.46 0 01-.05-.87c.07 0 0 .4.06.24-.12-.48.24-1.06.16-1.73.07-.3.16 0 .22-.28-.09-.75.15-.8.09-1.59-.13.22-.1.26-.2-.29v1.28l-.14-.83v1c-.09-.39-.06-.35-.16-.17.2-.52-.07-1 .08-1.66h.29c.17-.92-.08-1.64 0-2.83l-.07.38c-.11-.17 0-.74 0-1.13.1 0 .14-.2.2-.36-.07 0 0-.88-.18-1l.14-.53c.07-1-.27-1.11-.22-2 .1.28.18-.14.25.49v-.6c.06-.18-.13-.86 0-1.14a.92.92 0 01-.13-.52h.05s-.06-.55-.17-.24c.34-1 0-2.67.22-3.5-.05-.68-.09-1.49-.11-2.11 0 0 .05 0 0 .12.08-.85-.29-.51-.2-1.48.15-.49.09.51.15.2.32-.14-.07-1.16.11-1.81v.15a16.69 16.69 0 00-.19-2 13.09 13.09 0 01-.38-2.36c.14.23.08.35.2.19 0-.35-.2.11-.27-.58.06-.23.09-.73.23-.81v.66c.16-.35-.05-.85 0-1.2h.08c-.08-1-.25-1-.34-2.09l-.05.12c-.24-.58.07-.51-.13-1.08l.18-.2c-.08-.38-.31-1.34-.4-2a12.86 12.86 0 01.45 1.69 7 7 0 00-.24-1.5 1.74 1.74 0 01.08.5 5.83 5.83 0 01-.39-1.84c.4.1-.08-2 .12-2.6-.31-1.34-.28-2.7-.5-4.28-.23.6-.07-.46-.36-.32a3.55 3.55 0 01-.08-.54V70c0-.28.12.33.18.29-.11-.81.08-.36.07-.9-.09.13-.21-.25-.24-.72v.67c-.35-1.09.09-1-.26-2.12l.15.34a10.64 10.64 0 00-.73-2.65c0-.11.06-.26.14 0-.26-1.38-.92-3-1-4.1l.1.08a2.22 2.22 0 01-.25-.74s.1.08.07 0a3.92 3.92 0 01-.35-1l.16.27a22.42 22.42 0 00-1.08-3.08c.22-.06 0-1.11-.16-1.64a33.72 33.72 0 00-1.57-3.9 32.44 32.44 0 00-1.45-4.36c0 .22-.17 0-.3-.2s-.53-.82-.32-.85l.05.12a3.75 3.75 0 00-.49-1.47h-.27c-.3-1.47-1.82-3.35-1.93-4.19-.24-.27-.46-.65-.69-.92h.13a17.16 17.16 0 00-1.38-2.29l.22.15c-.38-.57-.82-.49-1.18-1l.07-.28a15.7 15.7 0 00-2.12-2.86s.1 0 .23.13c-.31-.46-1.29-1.75-1.37-1.41.13-.13-.78-.95-1.28-1.35h.17a3.48 3.48 0 01-1.12-.74c-.11-.15 0-.2.11 0-.36-.48-.42-.24-.87-.81l.25.13a1.81 1.81 0 00-.71-.54c-.3-.24-.76-.85-.73-1a1 1 0 01-.6-.48c0-.07.11 0 .16.05-.53-.85-1.07-1.05-1.35-1.71v-.14c.44.67.87 1.14.81 1.11.1-.08-.28-.59.18-.31a5.44 5.44 0 01-1.37-1.48.34.34 0 010-.1l.05.05a1.34 1.34 0 00-.24-.32c-.09-.17-.15-.29-.25-.45.05-.11-.31-.66-.46-.94-.11.09-.3-.29-.21.11 0-.05 0 .05.16.23a.31.31 0 00.08.11c.11.18.23.42.4.68a1.48 1.48 0 01-.48-.73c-.16-.09-.33-.21-.42-.27a12.83 12.83 0 01-.29-1.44c-.24-.43-.51-.94-.77-1.4a4.69 4.69 0 00-.72-1.14c-.13-.25 0-.33 0-.44a2 2 0 00.22.38c-.29-.48-.64-1.52-.84-1.6-.14-.69.29.32-.05-.59l.1.11a11.64 11.64 0 00-.82-2.4 6.79 6.79 0 01-.66-2.6.63.63 0 010 .25c-.36-2.38-1.09-4.88-1-7.29a2.91 2.91 0 00-.26-1.15l.14-.16-.22-.69a11.53 11.53 0 01-.04-2.31h-.89c0 .27 0 .5-.11.49a4.7 4.7 0 01.23 1c-.31-.62.07 1.27-.22 1.12z" class="cls-4"/><path d="M284.22 24.68c-.08-.11-.15-.21-.19-.28zM285 25.82c-.11-.14-.23-.31-.35-.49s.08-.06.16.06c-.06-.04.09.24.19.43zM284.22 22.88c.12.17.14.25.13.29s-.12-.18-.2-.31a.21.21 0 01.07.02zM283.88 22.64l-.06-.07v.12h.08zM305.32 140.31v.06zM296.3 40.73l.03-.02-.09-.08.06.1zM304.2 147.77a.41.41 0 000 .1s-.01-.04 0-.1zM304.16 151v.47a4.38 4.38 0 000-.47zM304.24 153.57a.17.17 0 00.07 0zM307.35 113.93v-.1c-.02-.22-.02-.07 0 .1zM306.68 125.73v-.39c-.06.21-.08.37 0 .39zM307.61 100.75v.01-.09.08zM306.72 124.8a2.17 2.17 0 00-.06.54 3.31 3.31 0 00.06-.54zM305.73 161h-.06a.09.09 0 00.06 0zM305.41 160a4.31 4.31 0 00.21.93h.05c-.12-.08-.13-.69-.26-.93zM305.16 155.8l.08.83c0-.15.08-.36.15 0 .01-1.05-.09.25-.23-.83zM304.92 153.21c.05.45.08 0 .11 0-.03-.27-.03-.33-.11 0zM306.17 134.47l.12.07c.03-.35-.05-.01-.12-.07zM305.96 130.81l-.12.33.1.17.02-.5zM307.13 128.8v.16l.02-.59-.02.43zM308.84 97.08l-.15.11c.03.23.21.28.15-.11zM308.17 83.38a1.31 1.31 0 000-.78c0 .31-.03.62 0 .78zM299.09 43.37l.17.23-.27-.45.1.22z" class="cls-4"/></g><g class="cls-3"><path d="M274.3 140.1l-.08.15a.53.53 0 00.08-.15zM280.69 125.42c0 .12-.05.17 0 .18s.03-.19 0-.18zM281.91 123a.91.91 0 01-.07.14.26.26 0 00.07-.14zM274.3 140.1l.21-.38s-.12.19-.21.38zM268.23 161.49a.88.88 0 000 .24v-.22zM272 146.75v.13a.27.27 0 000 .12zM270.54 151.94c0-.12-.09-.19-.14-.25a.51.51 0 010 .28s.09.03.14-.03zM268.9 160.32zM273.32 143.12a.09.09 0 00.06 0 .09.09 0 00-.06 0zM254.82 4.42s.01-.04 0 0zM283.9 118.35c-.04.15-.01.08 0 0zM284 73c0 .54-.41-.76-.3 0 .01-.06.4.64.3 0zM268.26 161.35v-.22c.01.1 0 .17 0 .22zM283.68 73zM287.1 107.19s-.05.06-.08.1.04-.02.08-.1zM284.62 115.47l.09-.2a1.59 1.59 0 00-.09.2zM287.63 102.71a1.23 1.23 0 000-.31.5.5 0 010 .31zM288 98v.24zM252.51 18.47a.58.58 0 01.13-.21c-.1.07-.12-.62-.13.21zM268.31 161.49s0-.06-.05-.14v.16s.04.02.05-.02zM286.54 102.39l.08-.72c-.03.2-.06.47-.08.72zM266.2 47.81l-.14-.09a.46.46 0 00.14.09zM286.78 99.52a1.7 1.7 0 00.13-.4v-.09z" class="cls-4"/><path d="M252.71 21.45c.23 1.42-.36 1.16-.05 2.2a1.5 1.5 0 01.33 1.11l-.22-.24c.11 1 .33.53.35 1.56-.11-.16-.16-.75-.17-.6-.07.68.17.45.25 1l-.15.13c.2 1 .55 2.14.87 3.26-.06 0-.17-.23-.15 0 .44 1.41.87 3 1.31 4.38.11.15.22.3.34.44s0 .24 0 .13c.18.53.09 0 .26.21s.09.41 0 .25c.26.42.61 1 1 1.62s.7 1.22.91 1.7l-.14-.15c.37.71.7.62 1 1.29l-.1-.1c.9 1.5 2.28 2.84 3 4 .31 0 1.19 1.25 1.46 1.11a10.75 10.75 0 001.44 1.57c.28.25.53.2.89.46l-.08.13.56.27.14.35.34.24c-.12-.12-.22-.28-.18-.3A3.7 3.7 0 01267 48.6c.42.3.86.59 1.27.9a1.68 1.68 0 01-.46-.24c.74.42 0 .21.65.64 0-.1.1 0 .14 0a8 8 0 001.27 1.39h-.17a35.39 35.39 0 012.54 2.71c-.25-.39-.05-.43.2-.14v.22c.23.13-.2-.35.21 0s.06.37-.15.19l.41.42c0 .06-.12 0-.19 0 .23.12.5.89.85 1.05a25.52 25.52 0 011.72 2.26c.12-.06.32.3.59.5.38.68.8 1.43 1.28 2.23.38.54.19.11.41.32-.09.11.37.92.06.54.56 1 .71 1.24 1.49 2.44 0-.16-.09-.32 0-.26s.24.53.17.53c.84 1.37 1.24 3.48 1.95 4.54v-.06l.6 1.18c.2.57-.22-.3-.13.14a26.47 26.47 0 011.27 3.17c-.1 1 1.05 3 1.08 4.3l.07-.09c.17.29 0 .39.09.62.06 0 0-.36.09-.18.19.64.37 1.3.54 2s.26 1.35.38 2c.26 1.37.42 2.76.6 4.12.13 1 .57.49.52 1.78l-.21-.34a25.8 25.8 0 01.47 3c.08 1 .2 2 .33 3 0-.12-.09-.12-.1-.31a3.17 3.17 0 00.18 1.54c0 .31-.08.08-.12.27 0 .42.18 1 .07 1.27 0 0 0-.11-.05-.19.07.27 0 1.27.15 1a17.71 17.71 0 01-.07 2c.12.39-.18 1.26 0 1.39-.22-.06-.29 1.28-.22 1.76-.06-.16-.1.4-.18.21 0 .53-.09 1 0 .94-.44.93-.12 2-.56 2.48a32.39 32.39 0 01-.73 4.44c-.21-.1.36-1.54.12-1.54a20.7 20.7 0 01-.66 3.44c-.14.33 0-.21 0-.34-.32 1.33-.81 2.51-1.06 3.7v-.27c-.06.23-.2.52-.09.53v-.23c.27-.31 0 1 0 1.07-.14-.48-.49 1.1-.61.37 0 .15-.06.35 0 .34-.1.21-.16.27-.15 0a12.09 12.09 0 01-.31 1.31v-.27a4.61 4.61 0 01-.36 1.41s-.08 0 0-.18a23.74 23.74 0 01-1 3c-.06-.42-.22.36-.42.35l-.2.64.19-.21a12.82 12.82 0 01-.56 1.5l.1-.43-.4 1 .31-.54c-.14.58.25 0-.11.73a5.44 5.44 0 01-.45.77 2.9 2.9 0 01-.34 1c-.1.08-.15-.17-.22-.12 0 .33-.5 1.28-.49 1.68 0-.13-.08-.18-.11-.15v.27c-.15.23-.18.26-.24.19-.34.74.33-.14-.16.7a1 1 0 010-.2c-.44.87-.68 1.75-1.1 2.55-.28.16.27-.74 0-.52-.49 1.19-.86 2.53-1.39 3.66l.11-.21c.17.27-.49.8-.63 1.43.05-.15-.05-.24 0-.19a28.58 28.58 0 00-1 2.87v-.17c-.25.44-.54 1.21-.77 1.7 0 .18-.11.47.05.33-.94 1.44-.94 3.06-1.72 4.36.05-.17.07-.42 0-.29l-.33 1.23c.14-.06.12-.13.29-.36a2.65 2.65 0 01-.14.83c.1-.56-.18-.05-.31.16 0 0 .05.07.09.06-.39.57.19.17-.21 1l-.05-.06a7.3 7.3 0 01-.21 1c-.18.11 0-.36-.05-.41-.16.49-.05 1-.29 1.45 0-.22.1-.52.11-.74a2.59 2.59 0 00-.36.87l-.28.82.09-.2c.18.71-.25 1.29-.24 2.17 0-.86-.09-.16-.22-.25-.1.2-.23.52-.24.42 0 .42-.23.65-.16 1.25-.06 0-.08.44-.19.32-.05.54.11-.11.16-.05 0 .84-.53 1.87-.5 3.07 0 1 .15 1.24.16 2.18-.11.31-.16-.27-.16-.27a5 5 0 00-.11 1.38c0-.1-.08 0-.15.14 0 .39.16.27 0 .78a1.63 1.63 0 01-.16-.4v.69c0 .23.06.38.08.58h.19a3 3 0 000-.41 5.56 5.56 0 01-.05-1.14l.19.29-.12-.7c.07-.15.19-.24.2.1.14-.48 0-.44.11-.84 0-.05 0 0 0 0v-.48c0 .1.15-.07.1.22.18-.83-.05-1.38.13-1.68v.07c.06-1.18-.15-.13-.19-1l.47-.53-.13-.14c0-.12.08-.35.13-.3 0-.46-.08.07-.13-.21.24-.55.21-1.61.47-1.69-.08-.23-.18.54-.15-.1.29-.12.06-.72.32-1.21.09.19-.1.66.15.17-.14-.36.3-1 .37-1.44-.17-.07.16-1 .29-1.72a3.06 3.06 0 00.27-.74c.16-.42.35-.93.49-1.25-.13-.19.12-.87.25-1.38.1.05.11.15.07.44l.15-.47a1.48 1.48 0 01.07-.6l.1.16a9.17 9.17 0 01.64-2.08c-.1-.09-.57.51-.34-.36.08 0 .2 0 .14.23a1.61 1.61 0 01.13-.42v.38c.19-.34 0-.22.1-.51.09 0 .15-.19.2-.12s-.13.24-.13.36a3.19 3.19 0 01.46-.8c-.07 0-.13-.05-.05-.29.22-.62.19-.17.37-.51 0-.18.2-.55.07-.61.07-.18.15-.19.21-.25.05-.34.58-1.49.29-1.19v.08c.29-1.1 1-2.13 1.32-3.19h.05c.21-.63.55-1.37.64-1.85.08-.18.27-.39.29-.29a4.61 4.61 0 01.51-1.2c-.13.5.14-.13-.15.51a4.51 4.51 0 00.59-1.4c0 .27.34-.4.44-.7l-.27.39c.12-.33.26-.61.39-.89l.09.22c.73-1.16.66-2.38 1.39-3.18 0-.38-.37.64-.37.29.27-.56.75-1.06.82-1.24.43-.75.1-.83.51-1.63-.1.08-.29.12-.08-.52s.53-.6.42-.22c0 .14-.1.2-.11.18-.06.2-.14.45 0 .25v-.1c.18-.26.51-1 .52-.83.14-.45 0-.22-.17.09.39-.7.47-1.16.84-1.9-.08.11-.19.19-.14.07.53-1.09.1-.53.38-1.3.26-.4.14.24.38-.56.25-.44.19 0 .16.17a8.53 8.53 0 01.76-1.68l-.1.39a5.26 5.26 0 01.2-.6l-.19.17c.1-.21.17-.4.21-.38 0-.25-.25.11-.18-.38.16-.27.26-.91.45-1-.39.89.18 0-.08.74a3.37 3.37 0 01.21-.56v.11c.46-.83 0-.47.32-1.37 0 .14.24-.16.28-.31-.14.36-.21.12-.15-.24a3.31 3.31 0 00.27-1l-.14.34a2.73 2.73 0 01.16-.86c.08 0-.07.39 0 .25 0-.5.48-1 .58-1.66.15-.27.17 0 .29-.22.11-.76.37-.74.5-1.53-.17.19-.15.23-.13-.34-.07.43-.18.85-.28 1.27l.08-.84c-.12.37-.18.81-.27 1 0-.41.05-.36-.1-.21.34-.46.22-1 .47-1.61l.28.09c.36-.87.26-1.65.62-2.81l-.14.37c-.08-.18.16-.73.21-1.12.09.06.18-.18.26-.33-.07 0 .16-.88 0-1l.21-.51c.22-1-.08-1.15.11-2.07.06.29.2-.12.17.51.05-.31.12-.58.05-.6.11-.17 0-.88.09-1.16a.9.9 0 01-.09-.54h.05s0-.56-.16-.26c.37-.94.24-2.69.5-3.52 0-.69-.07-1.52-.1-2.14 0 0 .05 0 0 .12.07-.86-.28-.52-.24-1.49.13-.51.12.51.16.2.32-.16-.11-1.18 0-1.85v.16a16 16 0 00-.28-2h.05a17.74 17.74 0 01-.54-2.36c.16.23.11.35.22.18-.06-.35-.19.13-.32-.56 0-.24 0-.75.17-.84l.09.66c.13-.36-.12-.85-.13-1.2h.08c-.19-1-.39-1-.55-2.07v.12c-.29-.55 0-.51-.22-1.07l.16-.22c-.1-.38-.47-1.32-.64-2a14.33 14.33 0 01.66 1.64 7 7 0 00-.43-1.48 1.78 1.78 0 01.14.5 6.33 6.33 0 01-.61-1.81c.43 0-.38-2-.25-2.61a15 15 0 01-.55-2c-.19-.69-.37-1.41-.63-2.18-.11.64-.15-.45-.41-.26a1.93 1.93 0 01-.16-.52c-.06-.38-.11-.77-.18-1.14s.18.31.23.26c-.25-.79 0-.37-.11-.91-.06.14-.25-.21-.38-.67l.1.67c-.56-1-.11-1-.68-2l.22.31A9.73 9.73 0 00281.6 67c0-.11 0-.27.13 0-.58-1.3-1.51-2.79-1.94-3.81l.12.06c-.15-.22-.35-.34-.44-.66h.06a4.52 4.52 0 01-.59-.89l.22.22a13.44 13.44 0 00-1.88-2.71c.19-.11-.36-1.06-.63-1.54a20.22 20.22 0 00-1.28-1.76c-.47-.49-.94-1-1.44-1.52a10.82 10.82 0 00-1.2-1.74c-.51-.7-1.22-1.32-1.67-1.92.13.2-.15.09-.35-.08s-.79-.59-.61-.69l.09.09c-.05-.33-.59-.81-1-1.22l-.24.13c-.85-1.27-3-2.38-3.44-3.17-.31-.18-.65-.46-.95-.61l.1-.1c-.72-.63-1.08-.93-2-1.72l.24.09c-.47-.46-.9-.27-1.33-.72v-.29a11 11 0 01-1.1-1.35c-.35-.46-.73-.9-1.12-1.32 0 0 .1 0 .22.13-.16-.22-.43-.67-.68-1s-.44-.63-.52-.47c.17-.12-.64-1-1-1.55h.17a3.3 3.3 0 01-.85-1c-.06-.18 0-.19.1 0-.18-.56-.31-.36-.54-1l.19.21a1.72 1.72 0 00-.49-.76 2.24 2.24 0 01-.3-1.22 1.11 1.11 0 01-.4-.67c0-.06.09 0 .13.11-.21-1-.65-1.38-.68-2.1a.16.16 0 000-.14c.19.79.41 1.39.38 1.34.12 0-.06-.66.27-.22a6.73 6.73 0 01-.8-1.89.3.3 0 010-.1v.06a1.53 1.53 0 00-.12-.38 4.34 4.34 0 00-.07-.52c.09-.1-.1-.74-.17-1.05-.13.05-.18-.37-.23 0 0 0 0 .06.09.27a.4.4 0 000 .13l.18.79a1.78 1.78 0 01-.24-.85 4.92 4.92 0 01-.31-.41c.12-.47.08-1.34.18-1.47a20.07 20.07 0 00-.65-2.91.48.48 0 01.08-.43c0 .16.05.35.09.44-.13-.56-.12-1.67-.31-1.8.05-.72.18.39.11-.58l.06.13c.26-1.92-.48-3.15 0-5.27a.57.57 0 01-.08.25c.34-2.41.44-5 1.25-7.32a2.82 2.82 0 00.13-1.18l.19-.1v-.73c.17-1 .85-1.57 1.07-2.84l-.15.12c.17-.43.47-1.38.56-1.26a.4.4 0 01.08-.33h.08c.1-.36.23-.72.35-1.07.44-.76.21.25.82-.85L258 0h-1.06l-.22.16.08-.16a2.91 2.91 0 00-.12.39.52.52 0 00-.25.23l-.13.77c-.12.05 0-.38-.27.06-.05.36.31-.23.15.33-.24.29-.28.16-.37.59-.08 0-.08-.06 0-.23a5 5 0 00-.31 1.17c-.27.31-.39 1.22-.59 1.11a5 5 0 01-.14 1c-.07-.69-.4 1.24-.61 1a21.32 21.32 0 01-.45 2.58.41.41 0 010-.22 7.93 7.93 0 01-.32.86c.18.1.08.83.13 1.23-.28.53-.17-.38-.38-.24.16 0 0 1 .16.84-.19.42-.12.37-.32.57.23.11 0 .41.09.79-.21.61-.25.13-.27.84-.12.32-.12-.31-.12-.31-.1.71.13.35.22.51 0 .85-.18.38-.3.66 0 .53.12.95.09 1.34 0 0-.05.11-.08 0 .11.57-.1 1.67.08 2.32a.31.31 0 01-.05.09.25.25 0 01.26-.1c0 .32.1.59 0 .71a.5.5 0 00-.07-.3v.33c-.18.3-.05-.45-.18-.46a18.14 18.14 0 01.15 1.91c-.17.1-.06-1.17-.21-.5l.06-.77c-.26.59 0-.47-.27.07 0 1 .08 1.14.08 2.16.11.2.15-.11.25.12zM254 29.82l-.1-.33z" class="cls-4"/><path d="M254.34 31.16c-.05-.16-.1-.37-.16-.58 0-.06.1 0 .13.11-.05-.07 0 .31.03.47zM254.57 28.1c.06.21.05.28 0 .32s-.06-.22-.1-.37a.28.28 0 01.1.05zM254.31 27.76v-.09.14l.06.06zM274.21 140.27v.05s-.01-.04 0-.05zM265 46.89l.02-.03-.11-.05.09.08zM271.18 147.25a.25.25 0 00-.07.09s.04-.04.07-.09zM270.21 150.4l-.16.44zM269.52 152.84a.21.21 0 00.05.07zM283.68 115.34v-.1c.07-.24.03-.07 0 .1zM279.64 126.53a3 3 0 01.09-.38c-.1.19-.16.34-.09.38zM286.53 102.47l.01.01v-.09l-.01.08zM280 125.64a2 2 0 00-.22.51 3.92 3.92 0 00.22-.51zM268.37 160.4zM268.44 159.38a5.45 5.45 0 00-.15.94c-.03-.13.22-.7.15-.94zM269.66 155.27l-.18.83c.08-.14.18-.32.13.06.39-1.02-.16.2.05-.89zM270.27 152.72c-.09.44.08 0 .1 0 .02-.25.03-.32-.1 0zM276.6 134.83l.1.1c.12-.33-.04-.03-.1-.1zM277.45 131.23l-.21.28.04.2.17-.48zM279.15 129.63l-.05.14.2-.55-.15.41zM288.06 98.88l-.16.1c.01.24.18.3.16-.1zM286.76 85.05a1.27 1.27 0 00-.07-.78c.04.31.03.63.07.78zM268.62 48.27l.25.15-.44-.31.19.16z" class="cls-4"/></g><g class="cls-3"><path d="M56.92 151.54v.12a.24.24 0 000-.12zM54.32 140.32c0 .08.06.11.08.11s-.08-.13-.08-.11zM53.73 138.42v.11a.16.16 0 000-.11zM56.92 151.54v-.31c-.05-.02-.01.16 0 .31zM57.58 156.57v.1l.08.07zM57.83 160.46c0-.09-.14-.11-.2-.15a.3.3 0 01.1.19.16.16 0 00.1-.04zM57.35 153.79s.02-.02 0 0zM52.12 135.12c.08.09.04.04 0 0zM24.16 123c.15.36-.52-.35-.26.16.01-.08.5.22.26-.16zM23.9 123.15zM45.78 129.42a.47.47 0 00.06.09s-.01-.04-.06-.09zM50.64 133.52l-.08-.13a1.05 1.05 0 00.08.13zM42.38 129.33a.63.63 0 00-.23 0 .31.31 0 01.23 0zM39.1 130.09h.17zM1.58 82.9a.42.42 0 01.07-.19c-.08.08-.29-.36-.07.19zM42.41 130.45a3 3 0 00-.5.06c.14-.01.33-.05.5-.06zM11.22 104.78l-.07-.1a.26.26 0 00.07.1zM40.43 130.89a.76.76 0 00-.3 0 .15.15 0 00-.06 0z" class="cls-4"/><path d="M38 131.47c.19-.09.94-.18.72-.27.56 0 1-.31 1.45-.33.22-.22.89-.16.93-.4 0 .23.92 0 1.23-.18-.1.08.28 0 .17.15.36 0 .68-.13.61-.24a1.93 1.93 0 001 0 .71.71 0 01.7.21 5.69 5.69 0 011.48.34c.45.23.89.45 1.31.72-.14.13-.92-.57-1-.35a5.66 5.66 0 012 1.27c.17.18-.17 0-.26-.05.76.58 1.22 1.38 1.89 1.92 0 0-.1-.05-.17-.1.12.11.22.32.29.24a1.31 1.31 0 00-.12-.11c0-.32.63.36.71.35-.4-.07.42.75-.15.58.08.08.2.17.24.11.08.15.07.21-.08.12.38.47.35.23.66.69 0 0-.13-.06-.21-.08a1.57 1.57 0 01.64.81s0 .05-.11-.07a12 12 0 011.07 1.96c-.29-.15 0 .31-.1.43l.23.41v-.21a8.66 8.66 0 01.5 1l-.19-.25.33.7-.11-.43c.25.35.21-.13.37.4a2.27 2.27 0 01.1.64 1.54 1.54 0 01.3.67c0 .09-.22 0-.24.07.21.14.34.91.58 1.1-.07-.07-.16 0-.17 0l.17.13c0 .19 0 .22-.07.22.12.56.18-.25.25.45l-.08-.13c.12.69.41 1.28.51 1.91-.14.23-.19-.52-.29-.28a19 19 0 01.76 2.69v-.17c.28.07 0 .67.21 1.09 0-.1-.17-.12-.14-.09a15.31 15.31 0 00.48 2.12l-.09-.11c0 .37.11.94.12 1.33.08.11.09.33.17.18-.25 1.24.47 2.25.22 3.34 0-.12-.08-.29-.07-.19l.13.89c.11-.08.06-.12.14-.32a1.38 1.38 0 01.17.59c-.11-.41-.19 0-.24.19h.11c-.17.49.25.06.15.72h-.07a3.28 3.28 0 01.14.72c-.13.11-.08-.26-.19-.27 0 .37.29.71.18 1.05 0-.15-.06-.38-.11-.53a1.51 1.51 0 00-.1.68v.62-.16c.37.44.09.93.34 1.54-.23-.59-.12-.1-.28-.14 0 .16-.07.4-.12.34.13.28-.08.48.11.89 0 0 0 .31-.12.25 0 .38.09-.09.15-.06a2.06 2.06 0 010 .26h.39c0-.27 0-.51.11-.57-.12-.15-.08.41-.17 0 .26-.14-.06-.52 0-.91.14.12.08.48.19.1-.23-.23 0-.75 0-1.08-.17 0-.1-.7-.19-1.24a15.4 15.4 0 00.08-1.54c-.18-.08-.19-.61-.26-1 .11 0 .16.07.22.27v-.35a1 1 0 01-.14-.42l.14.08a8.65 8.65 0 01-.19-1.57c-.13 0-.31.52-.46-.11.07 0 .18-.07.23.1a.68.68 0 01-.06-.31l.14.25c0-.29-.11-.14-.12-.36.09 0 .05-.17.13-.15s0 .2 0 .28a1.77 1.77 0 01.07-.67c-.05 0-.13 0-.16-.17-.06-.47.1-.17.12-.45-.08-.11-.05-.42-.19-.41a.26.26 0 01.08-.23c-.08-.24-.16-1.15-.28-.85a23.11 23.11 0 01-.35-2.46 9.7 9.7 0 00-.41-1.36c0-.13 0-.34.1-.29a2.52 2.52 0 01-.2-.92c.16.34.06-.14.14.36A2 2 0 0056 146c.17.14.07-.39 0-.6v.35a5.31 5.31 0 01-.17-.69l.19.08c-.05-1-.75-1.62-.68-2.42-.19-.22.09.53-.11.35a6.66 6.66 0 01-.08-1.09c-.1-.62-.41-.47-.55-1.11 0 .1-.14.22-.37-.2s0-.6.17-.36.05.16 0 .16.17.3.16.11h-.08c0-.22-.27-.8-.12-.7-.18-.3-.15-.1-.08.15-.14-.57-.34-.84-.52-1.42v.12c-.28-.83-.27-.3-.55-.82-.08-.34.25 0-.1-.48-.11-.36.11-.14.22 0a3.87 3.87 0 01-.54-1.23l.17.23a2.81 2.81 0 01-.23-.39v.2c-.06-.16-.13-.29-.08-.31-.17-.11-.1.21-.38 0-.08-.22-.44-.54-.35-.69.35.62.09-.15.45.34a1.6 1.6 0 01-.24-.36h.07c-.26-.65-.32-.17-.71-.75.12 0 0-.24 0-.33.16.24 0 .2-.24 0-.19-.42-.34-.36-.49-.55l.16.22c-.13 0-.27-.19-.5-.4 0-.07.22.18.17.08-.35-.16-.4-.7-.8-1-.11-.21.11-.13 0-.31-.43-.34-.33-.52-.84-.85.05.2.09.2-.3 0l.79.57-.59-.28c.22.19.53.33.61.49-.26-.15-.22-.14-.2 0-.16-.39-.65-.43-.9-.81l.19-.22c-.42-.59-1.09-.61-1.82-1.14a1 1 0 01.23.18c-.14 0-.51-.22-.8-.29.06-.08-.1-.19-.2-.29s-.16 0-.33-.08-.38 0-.45 0l-.37-.2a1.06 1.06 0 00-.8 0 1.76 1.76 0 01-.75.12c.2-.11-.12-.18.35-.25-.24 0-.45 0-.45.05s-.63.21-.85.14-.11.16-.36.21-.38.15-.14.21c-.75-.18-1.88.49-2.51.37a15 15 0 01-1.45.39s0-.05.08-.06c-.6 0-.32.33-1 .32-.36-.12.35-.13.13-.16-.06-.16-.26-.11-.5-.08a1.5 1.5 0 01-.76 0h.11c-.34-.08-.84.08-1.4 0a4.2 4.2 0 01-1.68-.16c.2-.07.26 0 .2-.15-.24-.05 0 .23-.48.1-.12-.13-.43-.34-.41-.48l.42.18c-.15-.26-.54-.24-.75-.37l.06-.06c-.65-.26-.75-.1-1.39-.53v.09c-.46-.06-.24-.28-.68-.38v-.23a7.51 7.51 0 01-1.31-.7 10 10 0 011.15.5 3.91 3.91 0 00-.92-.56.89.89 0 01.31.19 3 3 0 01-1.19-.65c.32-.22-1-1-1.1-1.52a15 15 0 01-2.08-2.23c0 .5-.23-.25-.41 0-.19-.19-.26-.27-.26-.3-.13-.24-.27-.47-.38-.72s.2.15.24.08c-.34-.46-.05-.27-.23-.62 0 .13-.24 0-.42-.34l.18.45c-.63-.52-.24-.7-.87-1.23l.23.14c-.31-.28-.92-1.24-1.37-1.42 0-.08 0-.2.12-.07a21 21 0 01-1.83-2.4h.11c-.12-.14-.3-.18-.37-.42 0 0 .11 0 .06-.06a2.18 2.18 0 01-.48-.58l.19.14c-.45-.88-1-1.15-1.47-1.83.18-.11-.16-.81-.33-1.15-.59-1-1.15-1.57-1.76-2.44a32.93 32.93 0 00-1.39-3c0 .17-.17.06-.27-.09s-.46-.54-.26-.6v.08c.09-.26-.19-.68-.38-1l-.26.07c-.15-1.1-1.37-2.37-1.32-3-.18-.19-.31-.48-.48-.67h.13a18.06 18.06 0 00-.81-1.72l.16.11c-.2-.44-.63-.37-.83-.78l.13-.21a12.07 12.07 0 00-1.08-2.3s.1 0 .16.12c-.16-.37-.51-1.46-.71-1.21.17-.09-.35-.8-.61-1.19h.16a1.92 1.92 0 01-.63-.75c0-.12 0-.15.09 0-.1-.42-.25-.25-.4-.75l.16.14a.92.92 0 00-.38-.54c-.17-.23-.3-.78-.21-.88a.74.74 0 01-.37-.62s.09 0 .12.06c-.2-.71-.58-.94-.64-1.46a.15.15 0 000-.11c.22.54.4 1 .37.94.12 0 0-.49.27-.22a4.53 4.53 0 01-.81-1.27v-.07a.64.64 0 00-.13-.26 2 2 0 00-.11-.37c.08-.09-.15-.52-.24-.74-.12.07-.22-.22-.21.09l.09.18c.09.18 0 .07.06.08l.23.54a.85.85 0 01-.21-.56 3.42 3.42 0 01-.34-.22c.06-.37-.07-1 0-1.11a7.69 7.69 0 00-1.1-1.87c-.1-.17 0-.24 0-.33a2 2 0 00.17.28c-.21-.36-.47-1.12-.67-1.14-.12-.51.26.21 0-.44l.09.07c-.23-1.4-1.26-1.94-1.44-3.51v.19C1.24 79.12.36 77.56 0 75.92v2.72c.1.07.08.28.26.43 0 .46-.17.18.07.62 0 .25-.22-.13-.22-.13.17.47.25.16.38.22.26.55 0 .31 0 .53.17.34.43.55.53.81 0 0 0 .09-.07 0 .27.32.42 1.11.76 1.47a.45.45 0 010 .08.28.28 0 01.21-.16c.08.21.26.35.18.47-.05-.13-.1-.12-.16-.17l.13.2c-.08.26-.17-.28-.29-.23A6.42 6.42 0 012.35 84c-.13.13-.35-.76-.32-.26l-.14-.53c-.1.48-.1-.32-.23.14.22.69.37.72.59 1.41.15.12.11-.1.26 0 .53.89-.1.91.38 1.53.18.13.4.13.5.66l-.25-.09c.25.65.41.26.56 1-.11-.1-.26-.49-.24-.38 0 .49.23.27.36.61l-.13.13c.3.68.74 1.39 1.08 2.13-.06 0-.17-.13-.14.07a20.45 20.45 0 011.15 3l.28.29c0 .08 0 .18-.06.1.11.38.1 0 .23.13s0 .31-.06.19a8.66 8.66 0 011.19 2.42l-.09-.11c.18.53.53.45.63 1l-.07-.08a27.47 27.47 0 011.35 3.26c.26.07.44 1.13.74 1.07a7.94 7.94 0 00.39 1.47c.11.24.34.27.51.55l-.13.08.34.32v.29l.17.26c-.05-.12-.06-.27 0-.27a2.08 2.08 0 01.37 1.13l.64.95c-.07 0-.18-.15-.28-.27.42.46-.1.17.29.6 0-.09.1 0 .13 0a4.42 4.42 0 00.6 1.23h-.14c.37.76.9 1.53 1.35 2.36-.12-.32.08-.35.23-.11l-.09.17c.17.11-.09-.28.2 0s0 .3-.2.15l.26.34h-.16c.17.1.22.72.5.85.48.81.73 1.16 1.15 1.81.12-.06.25.21.47.35a14.74 14.74 0 00.86 1.66c.32.37.18.06.37.19-.09.1.29.66 0 .42a15 15 0 001.25 1.66c0-.13-.07-.24 0-.21s.2.38.13.39c.8.85 1.24 2.4 2 3 .23.23.45.46.7.68s-.25-.15-.1.15c.82.67 1 1.32 1.67 1.86a3.14 3.14 0 00.9 1.25 7.3 7.3 0 011.16 1.27v-.1c.23.11.17.24.27.38 0-.07-.12-.24 0-.17a40 40 0 004.72 3.93c.66.39.6-.22 1.36.38h-.31c.72.28 1.49.48 2.25.7a7.1 7.1 0 002.33.17c-.09 0-.09.09-.24.09a1.84 1.84 0 00.72 0c.25 0 .46-.13.46-.17.23 0 .06.08.21.11.33 0 .78-.24 1-.17s-.23.03-.23.05zM4.81 90.37l-.1-.22z" class="cls-4"/><path d="M5.2 91.28c0-.11-.1-.25-.16-.4s.09 0 .13.06.01.19.03.34zM5.29 89c.08.13.07.19.06.22a2.65 2.65 0 01-.12-.22.16.16 0 01.06 0zM5 88.79a.33.33 0 010-.06v.1h.06zM56.92 151.68v0zM10.66 103.82l.03-.01-.07-.07.04.08zM57 157.14a.16.16 0 000 .08.22.22 0 000-.08zM57.09 159.49v.33a3.14 3.14 0 000-.33zM57.09 161.29h.06zM50 134.2h-.05c-.14-.15-.06-.07.05 0zM54.17 141.47a1.88 1.88 0 01-.14-.24c.03.15.06.26.14.24zM42.46 130.44l-.05.01.05-.01zM53.89 140.86a1.43 1.43 0 00.14.37 1.28 1.28 0 00-.14-.37zM57.78 161.05c0 .33.08 0 .11 0-.06-.19-.07-.24-.11 0zM56.32 147.44h.13c-.07-.24-.05.02-.13 0zM55.1 145.04l-.02.26.14.08-.12-.34zM55.59 143.31l.05.1-.18-.39.13.29zM39.64 129.82l.11.13c.16-.07.15-.25-.11-.13zM30.47 128.9a.65.65 0 00-.43-.33 3.58 3.58 0 00.43.33zM12.97 105.59l.15.15-.22-.31.07.16z" class="cls-4"/></g><g class="cls-3"><path d="M227.8 158.73h.09zM218.57 158.33c.07 0 .1 0 .1-.05s-.11.03-.1.05zM217 158.23h.09a.1.1 0 00-.09 0zM227.8 158.73l-.24-.1c-.03.05.12.06.24.1zM231.71 160h.16zM234.35 161.8c0-.06-.16 0-.22.07a.22.22 0 01.18 0 .19.19 0 00.04-.07zM229.63 159.07a.13.13 0 000-.06.13.13 0 000 .06zM214.15 158.15c.09-.01.04-.01 0 0zM191.56 146.76c.18.27-.5-.14-.2.23 0-.07.47.01.2-.23zM191.36 147zM207.78 157.49v.08c0 .08.04-.04 0-.08zM212.48 158.42h-.12zM205.38 156.81c-.06 0-.07-.06-.16-.07a.18.18 0 01.16.07zM203.07 155.58l.03.05.07.04-.1-.09zM160.56 155.79a.4.4 0 01-.16.06c.1.01-.02.37.16-.06zM204.82 157.78c-.14-.06-.26-.14-.39-.21a2 2 0 00.39.21zM174.18 144.39h-.09a.12.12 0 00.09 0zM203.27 157a.78.78 0 00-.16-.2H203c.12.07.2.12.27.2zM160.39 155.85z" class="cls-4"/><path d="M157.55 162.16a1.92 1.92 0 01-.34.84h.84a1.69 1.69 0 010-.23c.17.41.2-.7.45-.54-.17-.31.14-.94.15-1.43a.19.19 0 010 .13 1.77 1.77 0 01.27-.45c-.18-.09-.11-.49-.15-.74.28-.25.16.25.36.21-.15 0 0-.58-.14-.51.19-.2.12-.19.32-.26-.22-.12 0-.23-.05-.47.24-.29.25 0 .31-.4.13-.15.1.21.1.21.14-.37-.11-.24-.18-.35.11-.47.2-.17.35-.28.06-.29 0-.57.07-.77h.08c0-.35.35-.85.32-1.26h.06a.34.34 0 01-.25 0c.07-.17 0-.35.17-.36-.05.09 0 .12 0 .18v-.19c.23-.08-.06.26.06.31a4.17 4.17 0 01.32-1c.18 0-.23.62.07.35l-.25.36c.39-.18-.13.23.26.08.29-.49.19-.62.5-1.09 0-.15-.14 0-.17-.18.23-.8.67-.35.77-1 0-.18-.17-.35.14-.65l.09.22c.3-.45-.06-.41.36-.82 0 .13-.19.4-.12.34.33-.22.05-.28.21-.52h.17c.31-.48.59-1.08 1-1.59 0 .06 0 .18.13.1a6.65 6.65 0 011.79-1.72l.12-.31h.11c.26-.16 0-.08 0-.22s.22-.09.17 0a3.85 3.85 0 011.6-1.33l-.07.09c.4-.18.24-.53.67-.62l-.05.06a8.12 8.12 0 012.51-1.06c.06-.25.92-.23.88-.53a7.15 7.15 0 001.19 0c.2 0 .25-.26.49-.35v.15l.31-.22.21.14.23-.08c-.1 0-.21 0-.21-.08a1.33 1.33 0 01.93 0l.86-.22c0 .06-.16.1-.27.15.45-.2.1.15.51 0-.06 0 0-.1 0-.13a3.9 3.9 0 001.07 0l-.07.11c.65 0 1.37-.1 2.11-.05-.26-.06-.2-.25 0-.25l.08.16c.14-.09-.23-.07.07-.18s.17.19 0 .24h.34s-.06.08-.09.14c.15-.1.57.18.77 0v.05c.73.08 1.06.06 1.66.11 0-.14.26-.07.45-.15a10.21 10.21 0 001.43.38c.38 0 .13-.1.31-.15 0 .14.51.25.23.28.6.14.78.14 1.57.29-.07-.08-.15-.13-.09-.16s.29.17.25.22a3.45 3.45 0 011.33.6 2.85 2.85 0 001.19.6h-.05c.25.06.48.16.72.24s-.22 0 0 .17c.8.22 1.08.66 1.7.92.23.58 1.52 1 1.94 1.63v-.09c.2 0 .15.17.24.26s-.1-.18 0-.15a33.89 33.89 0 013.6 3.13c.44.39.54-.14 1 .48h-.26c1 .58 1.89 1.5 2.94 2h-.21c.14.23.75.52.81.44.14.11 0 .1 0 .2s.59.23.64.4-.08 0-.13 0c.17 0 .64.41.58.21.34.28.75.39 1 .64.27 0 .63.42.8.26-.14.18.6.52.9.55-.12 0 .19.15.05.2.3.12.59.2.58.07.45.48 1.17.25 1.38.66l1.37.25 1.29.16c-.06.21-.92-.17-.94.07.83.09 1.31 0 2.09.11.21.06-.12.08-.2.11a16 16 0 002.27.07s-.08 0-.15.06c.14 0 .32 0 .31-.07h-.14c-.21-.15.56-.3.59-.38-.24.29.69.09.32.45.09 0 .21-.06.18-.13.14 0 .18.06.05.14.5-.07.32-.17.77-.18 0 .05-.09.07-.14.13a1.55 1.55 0 01.84-.17v.06a8.81 8.81 0 011.76-.23c-.2.22.24.05.29.24l.38-.08-.16-.08a4.56 4.56 0 01.92-.12l-.25.09.63-.07-.36-.06c.33-.11 0-.23.4-.2-.09 0 .33 0 .51.08a1 1 0 01.58-.1c.07 0 0 .2 0 .24.15-.16.78-.08 1-.25a.13.13 0 00-.05.16l.13-.14c.16 0 .18.06.16.14.47 0-.15-.24.4-.15h-.11c.56 0 1.07-.11 1.58 0 .15.19-.44 0-.27.2a12.83 12.83 0 012.22-.1h-.13c.12-.27.52.17.88.09-.09 0-.13.13-.1.11.47.09 1 0 1.72.11h-.11c.27.1.73.17 1 .3.11-.05.27 0 .2-.11a3.54 3.54 0 001.26.5 2 2 0 011.16.53h-.17c.07 0 .45.16.66.26 0-.13-.05-.1-.14-.26a1 1 0 01.48.13c-.33-.09-.09.16 0 .28 0 0 0-.05.06-.09.22.37.18-.16.54.23h-.05a2.28 2.28 0 01.53.24c0 .16-.2-.06-.27 0 .23.16.61.12.75.39-.12 0-.27-.15-.39-.19a1 1 0 00.34.43l.34.36-.07-.11c.51 0 .61.42 1.13.57-.5-.16-.14 0-.27.13 0 .08.1.18.12.23h.73c0-.16-.35-.2-.47-.45.16 0 .33.22.18-.08-.29 0-.42-.44-.65-.58-.12.13-.49-.3-.88-.52a5.94 5.94 0 00-.93-.83c-.16.11-.5-.15-.79-.26.06-.09.13-.1.3-.06l-.25-.14a.62.62 0 01-.36-.07l.13-.09a9.48 9.48 0 01-1.2-.47c-.08.11.22.47-.29.36 0-.07 0-.19.17-.16a.53.53 0 01-.24-.07h.24c-.2-.13-.15.05-.31 0 0-.09-.1-.11 0-.18s.13.1.21.09a1.32 1.32 0 01-.45-.34c0 .06 0 .13-.19.09-.37-.11-.08-.16-.29-.27-.11 0-.33-.1-.38.05-.1 0-.11-.11-.14-.16-.21 0-.91-.22-.73 0-.67 0-1.32-.35-2-.35a4.21 4.21 0 00-1.14 0c-.11 0-.26-.1-.21-.16a1.63 1.63 0 01-.75 0c.3-.07-.1-.08.3-.05a1.33 1.33 0 00-.88 0c.14-.12-.29-.16-.47-.12l.27.09a3.55 3.55 0 01-.57 0l.1-.16c-.79-.19-1.41.36-2 .06-.2.12.43.06.25.2a4.07 4.07 0 01-.7-.33c-.5-.07-.45.27-1 .23.07.06.14.21-.24.29s-.46-.22-.23-.28h.12c-.01 0 .27-.06.12-.11v.06c-.18 0-.67 0-.56-.12-.27.07-.11.1.09.12-.46-.06-.72 0-1.19 0 .08 0 .15.09.07.09-.69 0-.29.14-.76.18-.27-.08.09-.22-.38-.12-.29 0-.07-.16 0-.21a2.26 2.26 0 01-1-.06l.22-.05a2.35 2.35 0 01-.35 0l.13.11c-.13 0-.24 0-.24-.06s.11.19-.16.3c-.18-.05-.54.08-.6-.08.55 0-.06-.16.41-.19a1 1 0 01-.34 0h.06c-.53-.13-.24.18-.79.17.07-.09-.12-.17-.21-.15.22 0 .1.15-.1.21-.35-.07-.38.05-.57 0h.21c-.07.09-.25.08-.49.09 0-.07.22 0 .13-.07-.28.14-.6-.2-1-.12-.17-.08 0-.17-.15-.22-.43.07-.44-.18-.88-.14.11.14.14.11-.19.19h.73l-.48.11h.6c-.23.07-.21 0-.12.16-.27-.22-.6 0-.94-.14l.06-.29c-.49-.2-.93 0-1.58-.23l.2.1c-.12.1-.41-.08-.63-.1.05-.09-.08-.17-.15-.25 0 .07-.46-.15-.58 0l-.25-.21c-.5-.21-.68 0-1.16-.19.19 0 0-.2.35-.13-.16-.07-.3-.15-.33-.09-.07-.09-.5-.06-.61-.21-.09 0-.15.1-.33 0s-.31-.08-.2.1c-.35-.53-1.38-.68-1.64-1.18-.35-.17-.76-.39-1.06-.57h.07c-.34-.36-.4.06-.8-.34-.14-.29.29.1.18 0 .12-.31-.57-.35-.77-.71h.09c-.17-.25-.63-.31-1-.61a4.15 4.15 0 01-1.25-.62c.19 0 .21.07.22-.09-.17-.11-.08.2-.42 0-.06-.13-.25-.36-.19-.49l.3.23c0-.26-.39-.3-.53-.45h.07c-.47-.34-.6-.19-1.07-.6v.09c-.39-.06-.16-.27-.51-.37v-.22a12.08 12.08 0 01-1.07-.57 4.8 4.8 0 011 .39 2.38 2.38 0 00-.76-.47.6.6 0 01.25.16 2.16 2.16 0 01-1-.51c.3-.25-.86-.79-.94-1.22-.72-.37-1.22-1-2-1.51.11.43-.23-.15-.36.14-.19-.1-.25-.15-.26-.18l-.45-.52c-.08-.16.21.06.23 0-.38-.28-.09-.22-.32-.46 0 .13-.23.05-.44-.12l.26.31c-.66-.19-.37-.51-1-.71h.23a3.75 3.75 0 00-1.56-.52c0-.06-.08-.17.07-.13-.72-.43-1.82-.45-2.37-.83l.09-.05c-.16 0-.31.06-.47-.06 0 0 .08-.06 0-.08a1.36 1.36 0 01-.63-.07h.19a5 5 0 00-1.92-.14c0-.21-.58-.39-.88-.47a12 12 0 00-2.47 0 10.88 10.88 0 00-2.69-.27c.13 0 0 .17-.17.2s-.56.17-.54 0h.08c-.17-.2-.59-.09-.91-.07v.27c-.91-.32-2.19.47-2.72.23-.18.12-.43.19-.61.3v-.14a6.28 6.28 0 00-1.52.46l.11-.15c-.39.13-.35.55-.68.69l-.18-.15a5.5 5.5 0 00-1.89.94.14.14 0 01.08-.16c-.3.14-1.19.53-.92.72-.11-.15-.63.37-.87.67v-.15a1.38 1.38 0 01-.44.69h-.08c-.2.14-.11.24-.43.44l.06-.17a.62.62 0 00-.3.46c-.13.19-.53.42-.66.37a.5.5 0 01-.21.43c-.06 0 0-.09 0-.13-.48.37-.5.75-.87 1a.08.08 0 00-.1 0 3.82 3.82 0 01.56-.6c-.09-.09-.38.17-.29-.17a4.12 4.12 0 01-.62 1.09h-.07a.59.59 0 00-.13.19 1.25 1.25 0 00-.23.23c-.11 0-.31.32-.43.47.12.07 0 .26.19.14l.08-.15v-.07c.07-.11.17-.24.28-.39a.64.64 0 01-.27.45v.35c-.32.08-.68.45-.82.44a4 4 0 00-.66 1.65c-.05.16-.16.13-.23.16s.09-.19.08-.26c-.11.32-.44.88-.32 1-.27.33 0-.29-.28.23v-.09c-.77.89-.37 1.84-1.17 2.85 0-.07.08-.11.11-.12-.68 1.27-.84 2.8-1.47 4.07-.16.37-.06.44 0 .7h-.17zM163.71 150.26l-.12.15z" class="cls-4"/><path d="M164.21 149.67l-.22.25c-.06 0-.08-.07 0-.12s.11-.07.22-.13zM162.39 150.35c.06-.12.11-.13.14-.13l-.12.19a.11.11 0 01-.02-.06zM162.4 150.64v.05h.07v-.06zM227.9 158.77zM173.35 144.61l-.01-.03-.06.04.07-.01zM231.77 160.78a.06.06 0 000 .06s.01-.03 0-.06zM233.28 161.84l.18.2a2 2 0 00-.18-.2zM234.34 162.79h.06zM212.55 159.36h-.06c-.13.03-.04.02.06 0zM219.42 158.81l-.21.08c.12 0 .21 0 .21-.08zM204.86 157.8l-.04-.02.04.02zM218.89 158.91a.68.68 0 00.32 0 1.15 1.15 0 00-.32 0zM234.67 162.16c.22.16.05-.06.08-.07-.16-.09-.2-.09-.08.07zM224.49 158.21v-.12c-.17 0 .03.05 0 .12zM222.39 158.83l.19.08.1-.12-.29.04zM221.13 157.95l.09-.02-.34.06.25-.04zM203.53 155.72v.17c.1.04.21-.09 0-.17zM197.09 151.24a.43.43 0 00-.32-.32c.13.08.23.28.32.32zM175.21 143.03l.16-.07-.3.07h.14z" class="cls-4"/></g><g class="cls-3"><path d="M97.42 123.63s.06.13.06.11l-.06-.16zM97.62 123.88a1.56 1.56 0 00-.13-.35 2.46 2.46 0 00.08.27l-.06-.1c-.06-.1 0 0 0 .07s.09.11.06 0a.47.47 0 01.05.11zM98.44 123.13zM98 122.36s0-.02 0 0zM97.84 122.1s.01-.01 0 0zM98.44 123.13s.01-.02 0 0zM97.6 123.45zM98.66 123.44zM98.33 124a.76.76 0 00-.07-.19.21.21 0 010 .1zM97.88 124zM98.65 123.23zM97.84 124.59zM97.56 123.9v-.09.09zM97.35 121.9s0-.01 0 0zM96.23 124.46h.3a.89.89 0 00-.3 0zM96.53 124.41l.01-.01-.01.01zM96.57 122.52h.06zM97.17 122.25zM96.6 122.86s-.02 0 0 0zM96.5 123.1l.03.01-.01-.02-.02.01zM97.75 124h.13-.13zM97.63 123.52a.18.18 0 010-.06zM97.59 123.36zM97.55 124.83zM97.56 123.43h-.09z" class="cls-4"/><path d="M98.24 124.73v-.29V124.48l-.54-.55h-.07c.15 0 0 .06.19.09h.21s.12 0 0 0h-.18s.19.06.14.08 0-.05-.2 0h.06-.26c-.06 0 .08 0 0 .07h.23c.16.08-.43 0-.21 0s.32.07.21.07h-.19s.26.07.13.08-.06 0-.08 0 .1 0 .1.06h-.17s.13.1.15.15h-.15c.07.07 0 .09-.16.08l.13.07h-.08c-.06 0 .08 0 .13.07s-.08 0-.12 0 .2.2.05.14c-.06 0 .23.19.11.13-.07 0 0 .13-.18 0 .13.16-.07-.07.1.17-.08-.09-.15-.23-.11-.15V125.15c0-.09 0 0 0 0a.61.61 0 01.06-.13 1.4 1.4 0 01-.12.18l.09-.14c-.06.09 0 .06-.1.16a1.32 1.32 0 01.13-.2l.06-.09s.08-.1 0 0a.16.16 0 01-.06 0 1.11 1.11 0 01-.18.12s.1-.12.08-.13a1.12 1.12 0 00-.18.1c.11-.07.09-.09.17-.12s0 0-.15 0h-.1l.09-.06c-.2 0 .31-.24 0-.19h-.13.17c-.22 0 0-.07-.13-.08.36-.09 0-.1.19-.17h-.15c-.11-.09.12-.2.21-.26s-.46-.06-.24-.08h.16c-.19-.08 0-.12-.13-.21h.09l-.08-.07c-.08-.07.08 0 .13 0s-.14-.07 0 0h.05c-.06 0 0 0-.11-.07.07 0-.05-.06 0 0-.15-.07.08 0-.12-.09.21.09.18 0 .09 0a.93.93 0 01.15.07l-.13-.1c.24.11-.16-.16.14 0a.51.51 0 01-.14-.24c.16.16 0 0 .17.2-.06-.07-.18-.23-.12-.2s0 .08.08.11 0 0 0-.1v-.06a2.2 2.2 0 01-.12-.37.62.62 0 00.07.18.31.31 0 010 .07v.11-.07-.22s.06-.25.06-.15l-.07.23V123s.07-.11 0-.06v.07-.07c.06-.08.12-.21.11-.15s0 0 0 .11.1-.08.08 0l-.16.19c.11-.11 0 0 .18-.12l-.11.11.09-.08-.09.1s.16-.17.11-.08c0 .06.11 0 .07.06s0 0-.17.11c0 0 .23-.05.22 0 .24-.11-.1.1 0 .06h-.11.18-.06v.08a.56.56 0 00.15 0c-.35.16.24.07-.06.2h-.07.36a.51.51 0 00-.25 0h.11c-.2.06.23 0 .1 0l.06-.11V123.33c0-.1.06.25 0 .14s0 0 0-.08-.07-.1-.1-.12h-.07c.11.33 0 .09 0 .31a1 1 0 00-.11-.26.41.41 0 01-.07-.11c0 .12-.07-.08 0 .1l-.06-.11s0 .07.06.13-.16-.15-.12.08.06.26 0 .35a.56.56 0 01-.06-.17h-.06a.34.34 0 00-.06-.12s.06.16 0 .11a1.39 1.39 0 00-.06-.19v.19a.76.76 0 01-.06-.18.39.39 0 000 .23s0-.1-.06-.13.05 0 .07.08c.13.26 0-.06.07-.06l.07.2v-.17a.55.55 0 01.08.18c.06.09 0-.07.05 0v-.07s.06.13 0 .11 0-.17.07 0c0-.09-.06-.15-.09-.33l.17.34-.06-.14v.06c0 .06 0-.06-.06-.15.08.11 0-.09.14.13 0-.11-.06-.07-.06-.16.11.24 0 0 .08 0s0 .07.07.17c-.08-.22.06 0 .06 0v-.16c0-.07.08.06.13.1l.17-.32h-.19a.48.48 0 01.2 0h-.12.14s-.18 0-.1-.1a1.55 1.55 0 01-.43.1h.21s-.05 0 0 0h.12-.09.14a.48.48 0 01.14-.09.35.35 0 01-.15 0s.11 0 .16-.08 0 0-.15 0h.1c-.07 0 0-.08-.19 0-.16 0 0-.14 0-.17-.06 0-.06-.06-.17 0l.12-.09s-.09 0 0 0 .06-.05.07 0 .08-.11-.06-.06c.11-.06.11-.12.07-.11l-.06.07v-.05l.14-.09c.1-.21-.36.11-.16-.18-.1.07 0 .1-.13.18s.11-.25.1-.26-.2.15-.21.07a.68.68 0 01-.17.21.43.43 0 01.13-.26.11.11 0 00.07-.08v-.17c0-.08-.06.08-.05.12s-.09 0-.14-.12 0 .1 0 .1-.07.09-.13.11 0-.21 0-.15a.23.23 0 010-.2c-.09.1-.14-.09-.19-.11v-.05a.08.08 0 01-.07 0v.36c0-.06-.06.07-.1-.08.09 0 0-.16 0-.2s0 0-.07 0c-.13-.12 0 .18-.1.2s-.07-.15-.08-.13.06.14.06.21 0 .07-.06.07V122.32c0 .15-.14-.1-.14 0-.05 0-.09-.14-.13-.16s-.13 0-.12.07.07.05.12.17v-.13l.07.17v-.09s0 .07.09.14c-.14-.11 0 .12-.08 0l-.21-.21c-.14 0 0 .19-.07.2h.05c.09.08 0 0 0 .1a.45.45 0 00-.17-.1c.06 0 0 0 .12.16h-.13c-.08 0 .21.21.16.23s-.16-.08-.21-.15 0 0 0 .06.1.1 0 .08.12.07.11.08 0 .06.15.09c-.3-.08 0 .13-.29.08a.3.3 0 010 .12c-.1 0 .26.1.15.12s-.08 0-.14 0c-.32-.07 0 .07-.16.06-.11 0 .11.09.08.13a.52.52 0 01.24.16.58.58 0 00-.19 0s.21 0 .24.06a1.07 1.07 0 01-.27 0c-.18 0 0 0 0 .06h-.08c0 .06.22.07.2.12h.06c.2 0-.11 0 0 .06h-.2a.76.76 0 01.22.11 1.2 1.2 0 01-.3-.09s0 .07.11.08-.07 0 0 0 .23 0 .23.09c-.38 0-.09.11-.38.16.14.06 0 .15 0 .24.29-.08 0 0 .31 0l-.17.09h-.13c-.06 0-.13 0-.2.1h.12l.13-.07c.17 0-.23.12-.06.14h-.1c.07 0 0 .13.28.08 0 0-.1.06-.13 0s.31.08.2.2h-.07.08-.07.11-.08c0 .13.24 0 .32 0a.37.37 0 00-.2.28c.06.11.28 0 .41 0-.09.24.15.23.25.4a.31.31 0 01.09-.18c0 .06.11-.12.07.07 0 .2.07.16.13.17v-.27c0 .2.17.16.24.1s.12-.12.22 0v-.17l.06.13a.22.22 0 00.21-.12v.1c.06 0-.2-.36-.18-.4l.16.15c0-.06.26 0 .16-.2 0 0 .07.06.07.08s.21 0-.05-.19c.16.1.06-.06 0-.14l.12.08c-.14-.12-.19-.14-.21-.2s.1 0 .06 0-.1-.08 0-.09l.08.06-.11-.11c-.11-.11 0 0 .17 0-.07 0-.15-.09-.11-.09h.08c.11 0-.13-.13 0-.12h.09v.06a1.3 1.3 0 01.31.11c-.08-.07-.26-.18-.19-.2s.07 0 .08 0a1.06 1.06 0 00-.23 0c-.06 0-.12-.06 0-.06l-.21-.08a3.64 3.64 0 00.43 0c-.07-.07 0-.14-.29-.21h.18c.06 0 0-.1-.2-.12h.2c.29-.08-.42-.18-.11-.27l-.3-.29.29.29-.27-.29h-.08c-.03 0-.11 0-.17-.09s0 .07-.05.16v-.15.17c0 .13-.08-.37-.14-.13v.1s-.07.06-.06 0 0 .1 0 0v-.08-.19a.82.82 0 000 .28.38.38 0 010 .13 2.48 2.48 0 000 .63v-.14.11c0 .11 0 0 0 0a.29.29 0 000 .12v-.22V124.07v.1a.45.45 0 010 .13v-.16c0 .13.06 0 .06.19a.6.6 0 010-.18c0 .26.06 0 .05.29 0-.23.08-.1.11-.23s0 .09 0 .14a1.4 1.4 0 010-.36v.12a1 1 0 010 .22v-.2.16a.42.42 0 01.52.44zm-.34-.28zm0 0h.08c-.01 0-.06.06-.1.05zm1 .15zM98.68 124.58zM97.54 124.79zM98 123.59zM98.11 123.35zM98 123.34zM97.58 123.1s.01.02 0 0zM97.73 122.84s-.04.07 0 0zM97.59 123.36zM97.68 122.88s.01-.02 0 0z" class="cls-4"/><path d="M97.5 123.48v-.01l.01.02-.01-.01zM97.51 123.49zM97.51 123.55s-.01-.04 0 0zM97.67 123.48zM97.7 123.44s-.06-.09-.07 0c0-.08.1.09.07 0zM98.13 123.94s.07.11.06.13-.11-.13-.06-.13zM98.27 124v.1a.14.14 0 000-.1zM98.39 122.81l.12-.06s-.05.02-.12.06zM97.75 123.04l-.05.06.1-.07-.05.01zM98.37 122.37l.02-.01h-.06l.04.01zM96.4 123h.15-.15zM96.4 123.78h-.05c.08 0 .07.01.05 0zM97.57 125.92l-.03.06.06-.05-.03-.01z" class="cls-4"/></g><path d="M208.88 68.64l-48.85 25.59.24 36.19 48.61-30.23V68.64z" class="cls-5"/><path fill="#e05a16" d="M160.03 95.37l7.51 16.11 13.09-8.82-20.6-7.29z" opacity=".6"/><path d="M116.15 76.69l43.88 17.54.24 36.19-44.12-19.25V76.69z" class="cls-7"/><path fill="#ba4b12" d="M160.15 95.37l-8.39 16.41-10.5-5.6 18.89-10.81z" opacity=".6"/><path d="M116.15 76.69l48.92-25.35 43.81 17.3-48.85 25.59-43.88-17.54z" class="cls-7"/><path d="M116.15 76.69l48.92-25.35 43.81 17.3-48.85 25.59-43.88-17.54z" class="cls-9"/><path d="M160.03 95.37l14.28 14.39 48.92-30.37v-1.13l-63.2 15.97v1.14z" class="cls-7"/><path d="M160.03 94.23l14.28 14.4 48.92-30.37-14.29-9.62-48.91 25.59z" class="cls-5"/><path d="M101 89.97v1.06l43.94 19.35 15.1-15.01-.01-1.14L101 89.97z" class="cls-7"/><path d="M101 89.97v1.06l43.94 19.35 15.1-15.01-.01-1.14L101 89.97z" class="cls-9"/><path d="M116.15 76.69L101 89.97l43.94 19.35 15.09-15.09-43.88-17.54z" class="cls-7"/><g clip-path="url(#clip-path)"><path d="M165.92 64.76L119.76 90.2l-1.39-.78v-33a1.35 1.35 0 01.72-1.19L164 32c.89-.47 3.42.14 3.34 1.43z" class="cls-7"/><path d="M167.31 65.54L119.76 90.2V57a1 1 0 01.54-.89l45.54-23.62a1 1 0 011.47.9z" class="cls-11"/><path d="M164.62 66.88l-42.17 21.86V59.57l42.17-21.87v29.18zM164.33 37.06l-40.78 20.67a.9.9 0 01-1.31-.8.91.91 0 01.5-.81l40.77-20.67a.9.9 0 011.32.8.91.91 0 01-.5.81z" class="cls-12"/><path d="M175 62.83l-46.15 25.45-1.38-.79v-26.9a1.33 1.33 0 01.72-1.19l44.87-23.27c.89-.46 3.42.14 3.34 1.43z" class="cls-7"/><path d="M176.4 63.62l-47.55 24.66v-27.1a1 1 0 01.55-.9l45.53-23.61a1 1 0 011.47.89z" class="cls-11"/><path d="M173.71 64.95l-42.17 21.87V63.7l42.17-21.86v23.11zM173.42 41.19l-40.77 20.68a.91.91 0 01-1.32-.81.9.9 0 01.5-.8l40.78-20.68a.9.9 0 011.31.81.88.88 0 01-.5.8z" class="cls-12"/><path d="M183.11 73.35L137 98.79l-1.44-.79V66.14a1.34 1.34 0 01.73-1.19l44.87-23.27c.89-.46 3.42.14 3.34 1.43z" class="cls-7"/><path d="M184.5 74.13L137 98.79V66.73a1 1 0 01.55-.9L183 42.22a1 1 0 011.47.89z" class="cls-11"/><path d="M181.81 75.47l-42.17 21.86V69.25l42.17-21.86v28.08zM181.52 46.74l-40.78 20.68a.9.9 0 01-1.31-.81.88.88 0 01.5-.8l40.78-20.68a.9.9 0 011.31.81.88.88 0 01-.5.8z" class="cls-12"/><path d="M193.41 78.25l-46.16 25.44-1.39-.78V69.27a1.35 1.35 0 01.72-1.19l44.88-23.27c.89-.47 3.42.14 3.34 1.43z" class="cls-7"/><path d="M194.8 79l-47.55 24.65v-33.8a1 1 0 01.54-.89l45.54-23.62a1 1 0 011.47.9z" class="cls-11"/><path d="M192.11 80.37l-42.17 21.86V72.38l42.17-21.87v29.86zM191.82 49.87L151 70.54a.9.9 0 01-1.31-.8.91.91 0 01.5-.81L191 48.26a.9.9 0 011.32.8.93.93 0 01-.5.81z" class="cls-12"/><path d="M202 75.61l-46.16 25.44-1.39-.78V73.36a1.32 1.32 0 01.73-1.18L200 48.9c.89-.46 3.42.14 3.34 1.43z" class="cls-7"/><path d="M203.34 76.39l-47.55 24.66V74a1 1 0 01.55-.9l45.53-23.61a1 1 0 011.47.89z" class="cls-11"/><path d="M200.65 77.72l-42.17 21.87V76.47l42.17-21.86v23.11zM200.36 54l-40.77 20.64a.91.91 0 01-1.32-.81.88.88 0 01.5-.8l40.78-20.68a.9.9 0 011.31.81.88.88 0 01-.5.84z" class="cls-12"/></g></g></g></svg>