<svg xmlns="http://www.w3.org/2000/svg" xmlns:xlink="http://www.w3.org/1999/xlink" id="Layer_1" width="232" height="88" x="0" y="0" enable-background="new 0 0 232 88" version="1.1" viewBox="0 0 232 88" xml:space="preserve"><style type="text/css">.st0{fill:#2d355c}.st2{fill:#575f81}.st4{fill:#ed6624}.st5{opacity:.39}.st11{opacity:.6}.st13{fill:#de5b26}.st14{fill:#cc4415}.st18{fill:#fff}</style><g><g><g><path d="M148.5,65.6c0,0,28.4-8.2-2-8.6c0,0,30.1-13-2.2-8.2c0,0,23-13.8-2.4-7.7c0,0,12.7-11.9-2.3-3.8 c0,0,25.5-26.6-4.2-4.6c0,0,13.8-18.7-4.4-4.1c0,0,11.8-21.8-3-3.4c0,0,15.3-24.8-4.9-4.2c0,0,14-29.8-5.6-4 c0,0,9.5-20.6-4.2-3.5c0.6-1.2,8.3-20.6-4.1-3.9c2.2-10.5-1.5-6.8-3.8-0.7c-0.6-1.5-1.4-3.1-2.1-4.4c-4.3-8.1-6.2,0.8-7.5,5.1 C95,9,94.8,7.8,94.5,7c-7.5-16-3.3,5.6-3.3,5.6c-13.8-17-6.6,2.7-6.6,2.7c-19.6-25.8-5.6,4-5.6,4c-20.2-20.5-4.9,4.2-4.9,4.2 C59.3,5.3,71,27,71,27c-18.3-14.6-4.4,4.1-4.4,4.1c-29.8-22.1-4.2,4.6-4.2,4.6c-15-8.2-2.3,3.8-2.3,3.8 c-25.4-6.2-2.4,7.7-2.4,7.7c-32.2-5-2.2,8.2-2.2,8.2c-30.4,0.4-2,8.6-2,8.6c-29.3,0.5,0.2,6,0.2,6c-26.2,12,2.2,9.1,2.2,9.1 c-11,4.4-13.9,6.6-13,7.8h16.5c0.5-0.1,0.8-0.1,0.8-0.1c-0.2,0-0.2,0.1-0.4,0.1H76c-5-13-6-25.8-2.6-40.6S89.1,24.9,98,21.9 c8.1,1.7,26.2,7.4,30.6,25.9c3.3,14.2,2.4,26.6-2,39h31.8c-1.4-1.4-5.2-3.3-12.4-6.2c0,0,28.2,2.9,2.2-9.1 C148.2,71.6,177.7,66.1,148.5,65.6z" class="st0"/><path fill="#39436b" d="M139.7,66.6c0,0,24.2-7-1.7-7.4c0,0,25.6-11.1-1.8-7c0,0,19.5-11.8-2-6.5c0,0,10.9-10.2-2-3.2 c0,0,21.8-22.6-3.6-3.8c0,0,11.8-15.9-3.8-3.4c0,0,10.1-18.6-2.6-3c0,0,13-21.1-4.2-3.6c0,0,11.9-25.4-4.7-3.4 c0,0,5.6-15.7-4.4-3.8c2.2-6.5,1.5-7.3,0.2-6.3c0.1-2-0.6-2.2-3.4,3.8c-0.1,0.1-0.1,0.1-0.1,0.1c-1.4-9.4-3.5-8.5-5.3-5.5 c-1.3-1.1-2.6-0.4-3.6,4.8c-4.6-10.1-4.2-5.4-3.4-1.1c-1.1-1-2.1-1.3-1.6,1.2c-8.2-8.9-3.1,5.3-3.1,5.3C72.1,1.8,84.1,27,84.1,27 c-17.2-17.4-4.2,3.6-4.2,3.6c-12.8-15.4-2.7,3-2.7,3c-15.6-12.5-3.8,3.4-3.8,3.4C48.1,18.3,69.8,41,69.8,41c-12.8-7-2,3.2-2,3.2 c-21.6-5.2-2,6.5-2,6.5c-27.4-4.2-1.8,7-1.8,7c-25.9,0.3-1.7,7.4-1.7,7.4c-24.9,0.4,0.2,5.1,0.2,5.1c-22.2,10.2,1.8,7.8,1.8,7.8 c-27.2,10.8,3.7,6.6,3.7,6.6c-3.7,1-6.2,1.8-7.8,2.5h18.1c-3.4-11.3-1.8-24.6,1-37c2.8-12.1,11.9-17.6,18.8-20.1 c6,1.1,21,5.4,24.8,21.7c2.7,11.8,4.3,24.4,1.5,35.4h12.7c-1-0.2-2-0.6-3.1-0.9c0,0,30.9,4.3,3.7-6.6c0,0,24.1,2.4,1.8-7.8 C139.5,71.7,164.6,67,139.7,66.6z"/><g><path d="M58.7,78.6c0.2,1,4,1,8.5,0.2c4.5-0.9,8-2.3,7.8-3.3c-0.2-1-4-1-8.5-0.2C62,76.2,58.5,77.7,58.7,78.6z" class="st2"/></g><g><path d="M58.5,60.6c0.2,1,4,1,8.5,0.2c4.5-0.9,8-2.3,7.8-3.3c-0.2-1-4-1-8.5-0.2S58.2,59.7,58.5,60.6z" class="st2"/></g><g><path d="M63.1,41.6c-0.6,0.8,2.2,3.4,6.1,5.9c3.8,2.4,7.4,3.7,7.9,2.9c0.6-0.8-2.2-3.4-6.1-5.9 C67.2,42.1,63.7,40.8,63.1,41.6z" class="st2"/></g><g><path d="M75.5,30.7c-0.6,0.5,0.6,3.1,2.7,5.9c2.1,2.8,4.3,4.7,4.9,4.2c0.6-0.5-0.6-3.1-2.7-5.9 C78.3,32.2,76.1,30.3,75.5,30.7z" class="st2"/></g><g><path d="M87.2,19.6c-0.7,0.2-0.2,3.2,1,6.4c1.3,3.3,2.9,5.7,3.6,5.4c0.7-0.2,0.2-3.1-1-6.4 C89.5,21.8,87.9,19.4,87.2,19.6z" class="st2"/></g><g><path d="M100.9,17.6c-0.7-0.1-1.8,2.6-2.4,6.1s-0.4,6.4,0.3,6.5c0.7,0.2,1.8-2.6,2.4-6.1S101.6,17.7,100.9,17.6z" class="st2"/></g><g><g><path d="M143.3,80.2c-0.2,1-4,1-8.5,0.2c-4.5-0.9-8-2.3-7.8-3.3c0.2-1,4-1,8.5-0.2 C140.1,77.8,143.5,79.3,143.3,80.2z" class="st2"/></g><g><path d="M143.6,62.2c-0.2,1-4,1-8.5,0.2c-4.5-0.9-8-2.3-7.8-3.3c0.2-1,4-1,8.5-0.2S143.7,61.3,143.6,62.2z" class="st2"/></g><g><path d="M138.9,43.2c0.6,0.8-2.2,3.4-6.1,5.9c-3.8,2.4-7.4,3.7-7.9,2.9c-0.6-0.8,2.2-3.4,6.1-5.9 C134.8,43.7,138.4,42.4,138.9,43.2z" class="st2"/></g><g><path d="M126.5,32.3c0.6,0.5-0.6,3.1-2.7,5.9c-2.1,2.8-4.3,4.7-4.9,4.2c-0.6-0.5,0.6-3.1,2.7-5.9 C123.7,33.8,125.9,31.9,126.5,32.3z" class="st2"/></g><g><path d="M114.8,21.2c0.7,0.2,0.2,3.2-1,6.4c-1.3,3.3-2.9,5.7-3.6,5.4c-0.7-0.2-0.2-3.1,1-6.4 C112.5,23.4,114.1,21,114.8,21.2z" class="st2"/></g><g><path d="M101.2,19.2c0.7-0.1,1.8,2.6,2.4,6.1s0.4,6.4-0.3,6.5c-0.7,0.2-1.8-2.6-2.4-6.1S100.5,19.3,101.2,19.2z" class="st2"/></g><path fill="#485077" d="M132.5,67.2c0,0,20.4-5.9-1.4-6.2c0,0,21.6-9.4-1.6-5.8c0,0,16.5-9.9-1.7-5.5c0,0,9.1-8.6-1.7-2.7 c0,0,18.3-19.1-3-3.3c0,0,10-13.4-3.2-2.9c0,0,8.5-15.6-2.2-2.5c0,0,11-17.8-3.5-3c0,0,10.1-21.4-4-2.9c0,0,3.3-9-0.5-6.5 c1.4-5.6-2.6-0.6-3.5,0.7c0.5-2.6,0.7-5.3-0.8-2.9c-1.5-5.9-3.5-2.6-4.9,0.6c-1-2.1-2.3-3.4-3.4-1c-2.8-5.3-1.8,0.6-1,3.8 c-0.1,0.3-0.2,0.7-0.2,1c-9-11-4.2,2.7-4.2,2.7c-14.1-18.5-4,2.9-4,2.9c-14.5-14.7-3.5,3-3.5,3C73.5,23.7,82,39.3,82,39.3 c-13.1-10.5-3.2,2.9-3.2,2.9c-21.4-15.8-3,3.3-3,3.3c-10.8-5.8-1.7,2.7-1.7,2.7c-18.2-4.4-1.7,5.5-1.7,5.5 c-23.2-3.5-1.6,5.8-1.6,5.8c-21.8,0.3-1.4,6.2-1.4,6.2c-21,0.3,0.2,4.3,0.2,4.3c-18.8,8.6,1.5,6.6,1.5,6.6 c-23,9.1,3.1,5.5,3.1,5.5c-13.5,3.6-8.8,4.6-3.6,4.9h11.6c-2.1-5.9-2-13.2-1-20.5c0.6-4.6,1.6-9.2,2.6-13.4 c2.2-9.5,9-14.2,14.6-16.4c5.6,1.2,16.8,5.3,19.8,18c1,4.2,1.9,8.9,2.6,13.4c0.9,6.6,1,13.3-0.6,18.9h16.3 c-0.6-0.7-3-1.8-8.7-3.3c0,0,26,3.6,3.1-5.5c0,0,20.3,2.1,1.5-6.6C132.3,71.5,153.5,67.6,132.5,67.2z"/></g></g><g><path d="M66.9,87.2c-4.9-21-1.5-45,12.1-62.2c8.9-11.3,34.1-11.8,44.2,0c9.6,11.2,17.6,32.4,13.8,61.7" class="st4"/></g><g class="st5"><radialGradient id="SVGID_1_" cx="110.878" cy="59.341" r="45.844" gradientTransform="matrix(1 0 0 -1 0 88)" gradientUnits="userSpaceOnUse"><stop offset=".003" stop-color="#f2a11e"/><stop offset=".242" stop-color="#f19c1f" stop-opacity=".76"/><stop offset=".545" stop-color="#f08c21" stop-opacity=".457"/><stop offset=".88" stop-color="#ed7224" stop-opacity=".12"/><stop offset="1" stop-color="#ec6726" stop-opacity="0"/></radialGradient><path fill="url(#SVGID_1_)" d="M66.9,87.2c-4.9-21-1.5-45,12.1-62.2c8.9-11.3,34.1-11.8,44.2,0c9.6,11.2,17.7,33.4,13.8,61.7"/></g><g><path d="M83.1,46.2c0.6,2.1,1.8,3.9,3.2,5.6c1.4,1.7,3,3.1,4.7,4.4c1.7,1.4,3.5,2.6,5.4,3.7c0.9,0.6,1.8,1.1,2.8,1.7 c1,0.5,1.8,1.2,2.9,1.4c1,0.1,2.1-0.5,3-1s1.9-1,2.9-1.5c1.8-1,3.7-2.3,5.3-3.8c3.2-2.8,5.8-6.4,7.2-10.6h0.1 c-0.5,2.1-1.4,4.1-2.6,6c-1.2,1.8-2.6,3.5-4.2,5c-1.6,1.5-3.4,2.8-5.3,3.9c-1,0.6-1.9,1.1-2.9,1.5c-0.5,0.2-1,0.5-1.5,0.7 s-1.2,0.4-1.9,0.3c-0.7-0.1-1.3-0.3-1.8-0.6c-0.5-0.3-1-0.6-1.4-0.9c-1-0.6-1.8-1.1-2.7-1.7c-1.8-1.2-3.7-2.4-5.3-3.8 c-1.7-1.4-3.3-2.9-4.6-4.6C84.6,50.3,83.5,48.3,83.1,46.2L83.1,46.2z" class="st0"/></g><radialGradient id="SVGID_2_" cx="109.214" cy="30.396" r="17.996" gradientTransform="matrix(1 0 0 -1 0 88)" gradientUnits="userSpaceOnUse"><stop offset=".003" stop-color="#f2a11e"/><stop offset=".999" stop-color="#f2a11e" stop-opacity="0"/></radialGradient><path fill="url(#SVGID_2_)" d="M120.2,46.2c-2.2,7.6-9.5,13.1-16.1,16.2c-0.7,0.3-1.4,0.6-2.2,0.6s-1.4-0.4-2-0.8c-8.2-4.9-14.1-9-16.9-16 C78.9,35.9,123,36.2,120.2,46.2z" enable-background="new" opacity=".6"/><linearGradient id="SVGID_3_" x1="95.831" x2="91.097" y1="60.881" y2="53.347" gradientTransform="matrix(1 0 0 -1 0 88)" gradientUnits="userSpaceOnUse"><stop offset=".003" stop-color="#f2a11e"/><stop offset=".242" stop-color="#f19c1f" stop-opacity=".76"/><stop offset=".545" stop-color="#f08c21" stop-opacity=".456"/><stop offset=".881" stop-color="#ed7225" stop-opacity=".119"/><stop offset="1" stop-color="#ec6726" stop-opacity="0"/></linearGradient><path fill="url(#SVGID_3_)" d="M84.8,35.4c1.8,1.8,4.5,2.4,7,1.9c2.5-0.5,4.6-2,6.3-3.8c0,0-2.5-5.5-6.8-4.7C86.7,29.7,84.8,35.4,84.8,35.4" enable-background="new" opacity=".6"/><linearGradient id="SVGID_4_" x1="114.695" x2="112.357" y1="60.99" y2="54.211" gradientTransform="matrix(1 0 0 -1 0 88)" gradientUnits="userSpaceOnUse"><stop offset=".003" stop-color="#f2a11e"/><stop offset=".242" stop-color="#f19c1f" stop-opacity=".76"/><stop offset=".545" stop-color="#f08c21" stop-opacity=".456"/><stop offset=".881" stop-color="#ed7225" stop-opacity=".119"/><stop offset="1" stop-color="#ec6726" stop-opacity="0"/></linearGradient><path fill="url(#SVGID_4_)" d="M118.8,35.4c-1.8,1.8-4.5,2.4-7,1.9c-2.5-0.5-4.6-2-6.3-3.8c0,0,3-5.4,7.4-4.7c4,0.6,5.9,6.1,5.9,6.1" enable-background="new" opacity=".6"/><g><path d="M84.8,35.4c1,0.8,2.2,1.3,3.3,1.5c1.2,0.2,2.4,0.2,3.5,0c2.4-0.5,4.5-1.8,6.4-3.4c-1.4,2-3.7,3.7-6.2,4.2 c-1.3,0.2-2.6,0.2-3.8-0.2C86.6,37.1,85.5,36.4,84.8,35.4z" class="st0"/></g><g><path d="M118.8,35.4c-0.7,1-1.9,1.8-3.1,2.2c-1.3,0.4-2.6,0.4-3.8,0.2c-2.6-0.6-4.8-2.2-6.2-4.2 c1.9,1.6,4.1,3,6.4,3.4c1.2,0.2,2.4,0.2,3.5,0C116.7,36.6,117.8,36.2,118.8,35.4z" class="st0"/></g><g><path d="M84.7,25.4c-2.7-0.6-6.2-2.1-8.1-4.2c-3.8-4.2,3.3-12.4,8.6-7.8c2.7,2.3,3.1,6.1,4,8.5" class="st4"/></g><g class="st5"><linearGradient id="SVGID_5_" x1="86.686" x2="78.82" y1="72.195" y2="66.862" gradientTransform="matrix(1 0 0 -1 0 88)" gradientUnits="userSpaceOnUse"><stop offset=".003" stop-color="#f2a11e"/><stop offset=".242" stop-color="#f19c1f" stop-opacity=".76"/><stop offset=".545" stop-color="#f08c21" stop-opacity=".456"/><stop offset=".881" stop-color="#ed7225" stop-opacity=".119"/><stop offset="1" stop-color="#ec6726" stop-opacity="0"/></linearGradient><path fill="url(#SVGID_5_)" d="M84.7,25.4c-2.7-0.6-6.2-2.1-8.1-4.2c-3.8-4.2,3.3-12.4,8.6-7.8c2.7,2.3,3.1,6.1,4,8.5"/></g><g class="st11"><linearGradient id="SVGID_6_" x1="84.647" x2="82.58" y1="73.475" y2="68.942" gradientTransform="matrix(1 0 0 -1 0 88)" gradientUnits="userSpaceOnUse"><stop offset=".003" stop-color="#f2a11e"/><stop offset=".242" stop-color="#f19c1f" stop-opacity=".76"/><stop offset=".545" stop-color="#f08c21" stop-opacity=".456"/><stop offset=".881" stop-color="#ed7225" stop-opacity=".119"/><stop offset="1" stop-color="#ec6726" stop-opacity="0"/></linearGradient><path fill="url(#SVGID_6_)" d="M84.7,25.4c-2.7-0.6-6.2-2.1-8.1-4.2c-3.8-4.2,3.3-12.4,8.6-7.8c2.7,2.3,3.1,6.1,4,8.5"/></g><g><path d="M83,22.7c-1.6-0.4-3.7-1.3-4.8-2.5c-2.3-2.5,1.9-7.4,5.1-4.7c1.6,1.4,1.9,3.6,2.4,5.1" class="st13"/></g><g><path d="M79,15.6c0.6-0.6,1.4-1.2,2.4-1.2s1.9,0.5,2.6,1.2c0.6,0.7,1,1.5,1.3,2.4c0.2,0.9,0.3,1.8,0.5,2.6 c-0.5-0.8-0.7-1.6-1-2.4c-0.3-0.8-0.7-1.5-1.3-2.1c-0.6-0.6-1.2-1-2-1.1C80.6,15,79.7,15.2,79,15.6z" class="st14"/></g><g><path d="M115.3,25.4c2.7-0.6,6.2-2.1,8.1-4.2c3.8-4.2-3.3-12.4-8.6-7.8c-2.7,2.3-3.1,6.1-4,8.5" class="st4"/></g><g class="st5"><linearGradient id="SVGID_7_" x1="110.766" x2="124.458" y1="69.308" y2="69.308" gradientTransform="matrix(1 0 0 -1 0 88)" gradientUnits="userSpaceOnUse"><stop offset=".003" stop-color="#f2a11e"/><stop offset=".242" stop-color="#f19c1f" stop-opacity=".76"/><stop offset=".545" stop-color="#f08c21" stop-opacity=".456"/><stop offset=".881" stop-color="#ed7225" stop-opacity=".119"/><stop offset="1" stop-color="#ec6726" stop-opacity="0"/></linearGradient><path fill="url(#SVGID_7_)" d="M115.3,25.4c2.7-0.6,6.2-2.1,8.1-4.2c3.8-4.2-3.3-12.4-8.6-7.8c-2.7,2.3-3.1,6.1-4,8.5"/></g><g class="st11"><linearGradient id="SVGID_8_" x1="121.84" x2="118.44" y1="73.047" y2="70.147" gradientTransform="matrix(1 0 0 -1 0 88)" gradientUnits="userSpaceOnUse"><stop offset=".003" stop-color="#f2a11e"/><stop offset=".242" stop-color="#f19c1f" stop-opacity=".76"/><stop offset=".545" stop-color="#f08c21" stop-opacity=".456"/><stop offset=".881" stop-color="#ed7225" stop-opacity=".119"/><stop offset="1" stop-color="#ec6726" stop-opacity="0"/></linearGradient><path fill="url(#SVGID_8_)" d="M115.3,25.4c2.7-0.6,6.2-2.1,8.1-4.2c3.8-4.2-3.3-12.4-8.6-7.8c-2.7,2.3-3.1,6.1-4,8.5"/></g><g><path d="M116.9,22.8c1.7-0.4,3.8-1.3,5-2.6c2.4-2.6-2-7.7-5.3-4.9c-1.7,1.4-1.9,3.8-2.5,5.3" class="st13"/></g><g><path d="M122,20.2c0.5-0.7,0.5-1.6,0.3-2.3c-0.2-0.7-0.6-1.4-1.2-2s-1.3-1-2-1c-0.8-0.2-1.6,0.1-2.3,0.5 c0.6-0.6,1.4-1.1,2.4-1.1s1.8,0.5,2.6,1.1c0.6,0.6,1.2,1.5,1.3,2.4C123,18.7,122.7,19.8,122,20.2z" class="st14"/></g><path d="M107.2,61.7c0,2.2-2.6,5.5-4.7,5.5s-4.7-3.4-4.7-5.5c0-2.2,2.6-2.3,4.7-2.3S107.2,59.5,107.2,61.7z" class="st0"/></g><path fill="none" stroke="#b8caf1" stroke-linecap="round" stroke-linejoin="round" stroke-miterlimit="10" stroke-width="2.4" d="M180.9,29.6c14.2-9.7,33.6-6,43.4,8.2s6,33.6-8.2,43.4c-5.4,3.7-11.7,5.5-17.8,5.5c-45.4,0-196.2,0-196.2,0"/><g><g><path d="M143.8,51.2c-19.1-1.5-65.2-1.6-82.8,0c-1,0.1-1.8,1-1.8,2.2c1.4,11.2,4.5,24,9.1,34.6h67 c4.9-10,8.5-24.2,10.2-34.6C145.7,52.2,144.9,51.3,143.8,51.2z" class="st18"/></g><g><radialGradient id="SVGID_9_" cx="102.186" cy="-9.929" r="58.083" gradientTransform="matrix(1 0 0 -1 0 88)" gradientUnits="userSpaceOnUse"><stop offset="0" stop-color="#a1b6e6"/><stop offset=".287" stop-color="#b1c3ed"/><stop offset=".683" stop-color="#c1d0f4"/><stop offset=".997" stop-color="#c6d5f7"/></radialGradient><path fill="url(#SVGID_9_)" d="M143.8,53.6c-19.1-1.5-65.2-1.6-82.8,0c-1,0.1-1.8,1-1.8,2.2c1.2,10.4,3.9,22.2,8,32.2h69.2 c4.3-9.8,7.5-22.6,9-32.2C145.7,54.6,144.9,53.7,143.8,53.6z"/></g><g class="st5"><radialGradient id="SVGID_10_" cx="102.186" cy="-16.529" r="58.083" gradientTransform="matrix(1 0 0 -1 0 88)" gradientUnits="userSpaceOnUse"><stop offset=".003" stop-color="#009ee2"/><stop offset=".105" stop-color="#059dde" stop-opacity=".898"/><stop offset=".235" stop-color="#1599d1" stop-opacity=".768"/><stop offset=".379" stop-color="#2f93bc" stop-opacity=".623"/><stop offset=".534" stop-color="#538ba0" stop-opacity=".468"/><stop offset=".698" stop-color="#82807b" stop-opacity=".303"/><stop offset=".866" stop-color="#ba734e" stop-opacity=".135"/><stop offset="1" stop-color="#ec6726" stop-opacity="0"/></radialGradient><path fill="url(#SVGID_10_)" d="M143.8,53.6c-19.1-1.5-65.2-1.6-82.8,0c-1,0.1-1.8,1-1.8,2.2c1.2,10.4,3.9,22.2,8,32.2h69.2 c4.3-9.8,7.5-22.6,9-32.2C145.7,54.6,144.9,53.7,143.8,53.6z"/></g><path d="M106.6,70.6c1,2.1-3.3,5-4.8,5c-1.6,0-6.2-3.2-4.8-5c1.6-2.2,4.8,0.6,4.8,0.6S105.4,68.1,106.6,70.6z" class="st18"/></g><g><g><path fill="#b8caf1" d="M157.6,33.3l21.8,11.3l12.4-18.4l-4.3-4.7c-1.6-1.8-4.2-2.2-6.2-1L157.6,33.3z"/></g><g><linearGradient id="SVGID_11_" x1="143.245" x2="139.64" y1="10.368" y2="27.672" gradientTransform="matrix(1 -7.028748e-03 -7.028748e-03 -1 34.6558 55.5686)" gradientUnits="userSpaceOnUse"><stop offset="0" stop-color="#a1b6e6"/><stop offset=".287" stop-color="#b1c3ed"/><stop offset=".683" stop-color="#c1d0f4"/><stop offset=".997" stop-color="#c6d5f7"/></linearGradient><path fill="url(#SVGID_11_)" d="M157.6,33.3l21.8,11.3l12.4-18.4l-4.3-4.7c-1.6-1.8-4.2-2.2-6.2-1L157.6,33.3z"/></g><linearGradient id="SVGID_12_" x1="144.005" x2="124.898" y1="10.117" y2="20.752" gradientTransform="matrix(1 -7.028748e-03 -7.028748e-03 -1 34.6558 55.5686)" gradientUnits="userSpaceOnUse"><stop offset="0" stop-color="#3f2e92"/><stop offset="1" stop-color="#2e3192"/></linearGradient><path fill="url(#SVGID_12_)" d="M179.4,44.5c-0.3,0.6-5.5-1.3-11.5-4.4c-6-3.1-10.6-6.1-10.3-6.7c0.3-0.6,5.5,1.3,11.5,4.4 C175.1,40.9,179.7,43.8,179.4,44.5z"/><linearGradient id="SVGID_13_" x1="140.069" x2="137.545" y1="34.925" y2="20.505" gradientTransform="matrix(1 -7.028748e-03 -7.028748e-03 -1 34.6558 55.5686)" gradientUnits="userSpaceOnUse"><stop offset="0" stop-color="#fff"/><stop offset="1" stop-color="#fff" stop-opacity=".3"/></linearGradient><path fill="url(#SVGID_13_)" d="M180.5,22.6l-17,9.5l8.1,3l10.7-10.1c0.4-0.4,0.6-1,0.4-1.6l0,0C182.4,22.6,181.3,22.2,180.5,22.6z" enable-background="new" opacity=".5"/></g><g><circle cx="15.3" cy="78.7" r="4.5" fill="none" stroke="#b8caf1" stroke-linecap="round" stroke-linejoin="round" stroke-miterlimit="10" stroke-width="2.521"/><linearGradient id="SVGID_14_" x1="28.045" x2="14.794" y1="9.08" y2="9.08" gradientTransform="matrix(1 0 0 -1 0 88)" gradientUnits="userSpaceOnUse"><stop offset="0" stop-color="#a1b6e6"/><stop offset=".287" stop-color="#b1c3ed"/><stop offset=".683" stop-color="#c1d0f4"/><stop offset=".997" stop-color="#c6d5f7"/></linearGradient><path fill="url(#SVGID_14_)" d="M28.4,70.4c-0.1-0.6-3.4-0.3-7.5-0.3c-4.2,0-7.5-0.3-7.5,0.3v0.1c0.1,1.1,0.6,13.1,1.8,16.9 c0.1,0.2,0.2,0.3,0.3,0.5h10.8c0.2-0.2,0.2-0.3,0.3-0.5C27.9,83.6,28.4,71.1,28.4,70.4C28.4,70.5,28.4,70.4,28.4,70.4L28.4,70.4 L28.4,70.4L28.4,70.4z"/><radialGradient id="SVGID_15_" cx="20.785" cy="-6.531" r="11.747" gradientTransform="matrix(1 0 0 -1 0 88)" gradientUnits="userSpaceOnUse"><stop offset=".003" stop-color="#009ee2"/><stop offset="1" stop-color="#009ee2" stop-opacity="0"/></radialGradient><path fill="url(#SVGID_15_)" d="M28.4,70.4c-0.1-0.6-3.4-0.3-7.5-0.3c-4.2,0-7.5-0.3-7.5,0.3v0.1c0.1,1.1,0.6,13.1,1.8,16.9 c0.1,0.2,0.2,0.3,0.3,0.5h10.8c0.2-0.2,0.2-0.3,0.3-0.5C27.9,83.6,28.4,71.1,28.4,70.4C28.4,70.5,28.4,70.4,28.4,70.4L28.4,70.4 L28.4,70.4L28.4,70.4z" enable-background="new" opacity=".2"/><linearGradient id="SVGID_16_" x1="-3849.218" x2="-3851.48" y1="11746.519" y2="11733.591" gradientTransform="matrix(-0.6077 0.7942 0.7942 0.6077 -11644.9619 -3997.1624)" gradientUnits="userSpaceOnUse"><stop offset="0" stop-color="#fff"/><stop offset="1" stop-color="#fff" stop-opacity=".3"/></linearGradient><path fill="url(#SVGID_16_)" d="M19.3,85l0.1-13.4h-3.9l1.2,13.4c0.1,0.5,0.4,1,0.9,1.1l0,0C18.3,86.3,19.2,85.8,19.3,85z" enable-background="new" opacity=".4"/></g></g></svg>