<svg width="580" height="502" viewBox="0 0 492 426" xmlns="http://www.w3.org/2000/svg"><defs><linearGradient x1="33.463%" y1="10.719%" x2="83.359%" y2="106.004%" id="a"><stop stop-color="#F2841E" offset="0%"/><stop stop-color="#F2831E" stop-opacity=".98" offset="10%"/><stop stop-color="#F2811F" stop-opacity=".91" offset="23%"/><stop stop-color="#F17E1F" stop-opacity=".8" offset="37%"/><stop stop-color="#F17A20" stop-opacity=".66" offset="53%"/><stop stop-color="#F07421" stop-opacity=".46" offset="69%"/><stop stop-color="#F06E23" stop-opacity=".23" offset="85%"/><stop stop-color="#EF6724" stop-opacity="0" offset="100%"/></linearGradient><linearGradient x1="87.41%" y1="55.921%" x2="-11.49%" y2="45.969%" id="b"><stop stop-color="#F2841E" offset="0%"/><stop stop-color="#F2831E" stop-opacity=".98" offset="10%"/><stop stop-color="#F2811F" stop-opacity=".91" offset="23%"/><stop stop-color="#F17E1F" stop-opacity=".8" offset="37%"/><stop stop-color="#F17A20" stop-opacity=".66" offset="53%"/><stop stop-color="#F07421" stop-opacity=".46" offset="69%"/><stop stop-color="#F06E23" stop-opacity=".23" offset="85%"/><stop stop-color="#EF6724" stop-opacity="0" offset="100%"/></linearGradient><linearGradient x1="60.628%" y1="82.932%" x2="39.826%" y2="18.626%" id="c"><stop stop-color="#D04827" offset="0%"/><stop stop-color="#EF6724" stop-opacity="0" offset="100%"/></linearGradient><linearGradient x1="60.65%" y1="82.943%" x2="39.886%" y2="18.562%" id="d"><stop stop-color="#D04827" offset="0%"/><stop stop-color="#EF6724" stop-opacity="0" offset="100%"/></linearGradient><linearGradient x1="83.012%" y1="33.532%" x2=".512%" y2="59.363%" id="e"><stop stop-color="#F2841E" offset="0%"/><stop stop-color="#F2831E" stop-opacity=".98" offset="10%"/><stop stop-color="#F2811F" stop-opacity=".91" offset="23%"/><stop stop-color="#F17E1F" stop-opacity=".8" offset="37%"/><stop stop-color="#F17A20" stop-opacity=".66" offset="53%"/><stop stop-color="#F07421" stop-opacity=".46" offset="69%"/><stop stop-color="#F06E23" stop-opacity=".23" offset="85%"/><stop stop-color="#EF6724" stop-opacity="0" offset="100%"/></linearGradient><linearGradient x1="80.636%" y1="46.773%" x2="12.571%" y2="54.64%" id="f"><stop stop-color="#F2841E" offset="0%"/><stop stop-color="#F2831E" stop-opacity=".98" offset="10%"/><stop stop-color="#F2811F" stop-opacity=".91" offset="23%"/><stop stop-color="#F17E1F" stop-opacity=".8" offset="37%"/><stop stop-color="#F17A20" stop-opacity=".66" offset="53%"/><stop stop-color="#F07421" stop-opacity=".46" offset="69%"/><stop stop-color="#F06E23" stop-opacity=".23" offset="85%"/><stop stop-color="#EF6724" stop-opacity="0" offset="100%"/></linearGradient></defs><g fill="none" fill-rule="evenodd"><path d="M27.54 409.946c32.25 1.825 13.252 25.253 73.032 10.79 42.608-10.32 153.452-12.568 112.228-23.33-14.77-3.489 89.184 10.762 194.253 10.762 44.415 0 53.534-3.844 66.305-7.688 26.118-7.793-209.59-4.497-174.631-11.877 51.4-10.849-150.944-16.874-136.751-8.571 17.556 10.205-245.77 23.562-134.436 29.914z" fill="#E8E8E8" fill-rule="nonzero"/><path d="M117.83 333.628l-.663.058c.173.22.461.134.663-.058zM125.739 315.899l-.356.105a.836.836 0 00.356-.105z" fill="#C5E9FA" fill-rule="nonzero"/><path d="M195.07 291.356a4.18 4.18 0 01-1.49 1.999c-.259-5.131-.96-11.032-5.207-13.876l1.085 2.796a14.933 14.933 0 00-13.558-4.324l4.91-1.557c-5.566.122-11.1.886-16.49 2.278a10.916 10.916 0 013.969-1.864 109.374 109.374 0 00-21.506 5.14l2.98-2.402a321.448 321.448 0 01-24.303 5.324 10.964 10.964 0 013.844-2.22l-19.402 4.44a2.595 2.595 0 011.922-1.46c-2.633.46-5.227 1.7-7.889 2.238a21.14 21.14 0 01-2.431.336 66.468 66.468 0 0060.616-2.046c3.056-1.528 6.88-4.584 12.232-3.844-1.527 1.528-3.843 2.296-4.583 3.844 1.528 0 3.844 0 5.352.759-6.88 1.537-13.001 4.593-16.826 10.705 0-2.287 2.297-3.844 3.066-5.353-7.688 5.353-13.77 11.474-20.65 17.585 2.296-3.055 3.843-6.111 6.88-8.408-8.293 3.017-12.877 11.973-21.814 14.414a.836.836 0 01-.355.106l.355-.106c.416-.277.8-.599 1.144-.96a40.36 40.36 0 01-17.653 5.092c-.461.34-.913.686-1.355 1.038 1.847.107 3.644.643 5.247 1.566l-3.844.538 3.402 2.749-1.73.586a11.704 11.704 0 003.47 2.268l-1.74 1.326 4.238 2.095c.432.22.913.49 1.018.96a.605.605 0 01-.192.548 43.03 43.03 0 0011.81-2.796 8.187 8.187 0 01-3.238 2.44c4.83-1.507 9.55-3.346 14.125-5.505a3.094 3.094 0 01-1.585 1.556 95.43 95.43 0 0019.536-9.513c-.3.869-.808 1.65-1.48 2.277a78.441 78.441 0 0017.297-7.61 3.19 3.19 0 01-1.518 2.239 23.524 23.524 0 0013.097-10.398c-.173.615-.336 1.23-.5 1.855a37.054 37.054 0 007.304-7.15c2.018-2.834 3.19-6.37 2.44-9.705z" fill="#C5E9FA" fill-rule="nonzero"/><path d="M126.844 314.9l.797-.424c-.307.042-.59.192-.797.423z" fill="#C5E9FA" fill-rule="nonzero"/><path fill="#7A3C20" fill-rule="nonzero" d="M47.97 348.522l-17.23 53.553h2.95l22.698-53.927z"/><path fill="#9D4D29" fill-rule="nonzero" d="M46.702 348.148L30.74 402.075h1.624l20.555-53.927z"/><path fill="#7A3C20" fill-rule="nonzero" d="M59.319 347.907l11.8 70.034h3.238l-8.946-70.274z"/><path fill="#9D4D29" fill-rule="nonzero" d="M61 348.215L71.12 417.94h3.238l-7.14-70.476z"/><path fill="#7A3C20" fill-rule="nonzero" d="M161.188 333.753l-14.078 54.83 3.969-.21 18.036-54.13z"/><path fill="#9D4D29" fill-rule="nonzero" d="M160.208 333.887l-13.098 54.697 1.624-.087 15.5-54.744z"/><path fill="#7A3C20" fill-rule="nonzero" d="M168.98 332.782l30.991 69.12 3.229-.317-26.878-70.273z"/><path fill="#9D4D29" fill-rule="nonzero" d="M174.487 332.292l25.484 69.61 3.229-.317-25.177-70.398z"/><path d="M42.867 345.938s23.668 20.256 69.303 8.542l-19.036-16.816-46.605-.961-3.662 9.235z" fill="#7A3C20" fill-rule="nonzero"/><path d="M40.302 342.18S9.926 322.78 13.952 261.29c3.921-59.905 69.909-55.639 81.988-52.708 12.079 2.931 32.94 68.813 35.141 95.892 2.201 27.08 63.682 18.671 63.682 18.671l-12.08 6.957-59.289 20.497s-25.58 6.198-32.24 1.643c-11.973-8.225-50.795-10.685-50.852-10.06z" fill="#B56B4A" fill-rule="nonzero"/><path d="M141.027 318.33c-15.75 3.046-31.394 5.871-46.692 11.29l-.682.28 1.509.076c6.65.289 13.193 1.125 19.862 1.125.74-.007 1.473.14 2.153.432 4.708-.134 9.273.884 13.972 1.47 2.834.497 5.735.474 8.562-.067 2.066-.51 3.968-1.49 6.073-1.922 4.805-.96 10.032.586 13.616-3.536a30.529 30.529 0 002.672-3.67c-7.669-.74-15.28-2.355-21.045-5.478z" fill="#9D4D29" fill-rule="nonzero"/><path d="M154.269 238.553c3.42-3.844 7.88-7.092 6.13-10.052-1.508-2.565-1.2-8.927-.864-12.194a1.124 1.124 0 011.518-.96c3.517 1.43 2.643 6.956 4.247 8.436 1.788 1.643 17.912 4.641 24.764-4.286 3.44-4.487 6.851-.288-3.133 10.686 1.71-.067 1.336 3.075-2.556 5.304-2.277 1.317-7.995 3.018-10.253 3.47-2.258.451-7.4 8.696-7.4 8.696l-12.453-9.1z" fill="#00B4D2"/><path d="M185.874 230.298a41.53 41.53 0 01-4.891 0c-1.624-.096-3.248-.153-4.805-.115a6.006 6.006 0 00-1.076.106 1.201 1.201 0 00-.298.115s0-.106 0 0c.127.3.306.577.529.817.254.274.524.533.807.778a16.048 16.048 0 004.18 2.268 10.378 10.378 0 01-4.709-1.538 6.39 6.39 0 01-1.018-.826 3.488 3.488 0 01-.836-1.182 1.23 1.23 0 01-.048-.548.96.96 0 01.298-.567c.223-.202.494-.344.788-.413a6.13 6.13 0 011.326-.173 34.46 34.46 0 014.92.375c1.633.27 3.228.548 4.833.903z" fill="#049CBE" fill-rule="nonzero"/><path d="M123.798 286.446c.595-1.547-.135-3.267-.961-4.728a63.21 63.21 0 00-1.817-3.133c2.883.087 6.16-.182 8.13-1.633a.183.183 0 000-.317c-2.72-1.442-3.786-2.883-4.007-3.68a.192.192 0 01.24-.231 15.221 15.221 0 013.085 1.806.192.192 0 00.269-.26c-3.363-5.496-7.409-11.992-12.406-15.95a8.418 8.418 0 015.766 1.537 53.14 53.14 0 00-7.688-6.91 8.648 8.648 0 013.46 1.221c-3.21-2.7-5.37-6.44-6.102-10.57l3.459 3.18c-3.315-3.046-7.755-20.18-15.298-17.95-1.643.49-8.918 4.507-10.484 13.367a20.228 20.228 0 011.99-3.277l.076.067a9.148 9.148 0 00-1.403 5.16c.394-.557.798-1.095 1.23-1.624.096 1.51 3.066 8.87-.375 12.867a1.98 1.98 0 001.624-.913 7.947 7.947 0 001.163-2.315c.135.365.27.73.413 1.095v.077c-.163 1.499-1.441-1.518-1.278.73.212 2.931 5.19 13.386 6.198 16.144a16.5 16.5 0 01-.5-6.851 78.624 78.624 0 0010.09 22.293.185.185 0 10.337-.153 12.213 12.213 0 01-.221-1.029.192.192 0 01.355-.125 4.593 4.593 0 01.52 3.44.192.192 0 00.287.212 9.042 9.042 0 015.881-.961c2.21.24 4.44.76 6.621.375a1.74 1.74 0 00.692-.23c.292-.166.522-.423.654-.731z" fill="#ADDCF1" fill-rule="nonzero"/><path d="M126.844 265.151a17.739 17.739 0 003.709-4.939 6.285 6.285 0 00.596-2.027 2.076 2.076 0 00-.058-.788.673.673 0 00-.106-.279 1.297 1.297 0 00-.144-.24.836.836 0 010-1.115.192.192 0 000-.269 48.047 48.047 0 01-10.57-11.233 4.247 4.247 0 003.95 1.422 37.89 37.89 0 01-8.909-11.733c-1.249-2.575-2.22-5.295-3.786-7.688-2.882-4.362-10.397-7.802-15.788-2.738 6.506 43.838-4.69-.836 15.51 33.95a492.101 492.101 0 007.63 12.742.202.202 0 00.23.086 21.813 21.813 0 007.736-5.15z" fill="#F6FBFD" fill-rule="nonzero"/><path d="M166.8 248.681c-.779 1.307-1.836 2.777-3.354 2.777a18.306 18.306 0 006.64-11.09 6.669 6.669 0 01-4.19 1.116c.167-.075.327-.161.48-.26l3.672-1.691c-1.84.154-3.692.038-5.497-.346a18.027 18.027 0 014.622-3.142 44.559 44.559 0 00-5.996-.183 3.42 3.42 0 001.922-2.306 3.642 3.642 0 01-2.585.211c1.191-.682 2.998-1.297 4.247-.74-1.73-2.96-4.459-.884-5.314-.134a5.15 5.15 0 001.672-4.334 26.33 26.33 0 01-10.897 10.013 5.766 5.766 0 012.614-3.373c-6.217 3.027-12.608 6.179-17.297 11.31l1.259-3.055a16.336 16.336 0 00-7.178 8.187c-.25-1.422-.51-2.883-.77-4.257a7.793 7.793 0 01-5.015 8.437.192.192 0 01-.173-.337 9.398 9.398 0 001.672-1.537.192.192 0 00-.221-.298c-1.874.76-4.497.961-5.862 2.037-1.364 1.076-2.767 5.458-3.594 7.313a.192.192 0 00.135.26l1.643.403a.183.183 0 01.067.327 88.578 88.578 0 00-5.765 5.035c-2.066 1.999-7.227 7.563-3.498 10.138a46.125 46.125 0 004.574 2.287 44.77 44.77 0 016.13 3.22.192.192 0 00.28-.25 5.593 5.593 0 00-.904-1.125.192.192 0 01.192-.317c.453.184.89.406 1.307.663.07.048.161.048.23 0a13.223 13.223 0 011.923-1.7.192.192 0 01.269.268.192.192 0 00.182.308 17.97 17.97 0 009.907-5.766 5.89 5.89 0 00-2.527.538 56.11 56.11 0 0114.26-4.805 10.503 10.503 0 00-3.795-.153 24.09 24.09 0 0015.202-9.946 8.235 8.235 0 01-3.277 1.73A42.022 42.022 0 00166.8 248.68z" fill="#F6FBFD" fill-rule="nonzero"/><path d="M170.086 240.369l-.058.279.058-.28z" fill="#C5E9FA" fill-rule="nonzero"/><path d="M170.086 240.369a7.486 7.486 0 01-4.295 1.124c.701-.336 4.218-1.835 4.257-1.922a19.45 19.45 0 01-5.449-.336 17.864 17.864 0 014.574-3.152c-2.21.125-2.556.067-4.507 1.269-2.527 1.547-2.835 5.429-5.516 6.601a4.45 4.45 0 003.114-2.037 4.516 4.516 0 01-1.105 2.883 7.447 7.447 0 01-1.855 1.605c-.574.209-1.17.35-1.778.422l.116.068c-.865.057-1.74.096-2.604.086 1.702.636 3.543.806 5.333.49a22.102 22.102 0 01-14.126 3.786 11.992 11.992 0 008.293.692 22.707 22.707 0 01-17.028 6.131c1.913.947 3.91 1.71 5.968 2.277-.346.116-7.688 11.906-29.665 8.85a.173.173 0 00-.163.058c-2.172 2.2-7.169 10.926-3.546 13.453a41.58 41.58 0 004.584 2.287 46.384 46.384 0 016.121 3.23.192.192 0 00.279-.25 5.276 5.276 0 00-.904-1.125.192.192 0 01.193-.317c.299.106.586.245.855.413-.17.467-.09.989.211 1.384.961 1.028 4.632-.557 5.66-.884a41.32 41.32 0 0012.195-6.198l-5.122 1.557a75.722 75.722 0 0026.906-20.42l-4.805 2.594a24.158 24.158 0 007.688-10.138c.394-.903.75-1.826 1.076-2.758a40.459 40.459 0 001.797-3.373 9.61 9.61 0 01-1.259 1.73c.144-.452.279-.913.413-1.374a18.258 18.258 0 004.027-8.35c-.058.067.125-.587.067-.356z" fill="#C5E9FA" fill-rule="nonzero"/><path d="M122.366 279.815c.605-1.537-.125-3.257-.961-4.718a56.69 56.69 0 00-1.816-3.142c2.94.096 6.169-.183 8.139-1.624a.192.192 0 000-.327c-2.72-1.441-3.777-2.883-3.998-3.67a.192.192 0 01.24-.24 15.375 15.375 0 013.076 1.815.192.192 0 00.269-.26c-3.354-5.496-7.41-11.992-12.406-15.95a8.36 8.36 0 015.766 1.537 52.083 52.083 0 00-7.64-6.91 8.735 8.735 0 013.47 1.221 17.864 17.864 0 01-6.103-10.57l3.45 3.19c-3.306-3.056-7.745-20.18-15.298-17.95-1.634.49-8.908 4.507-10.474 13.366a19.824 19.824 0 011.989-3.276l.077.057a9.033 9.033 0 00-1.403 5.16c.384-.547.797-1.085 1.22-1.614.106 1.5 3.075 8.87-.375 12.867a1.98 1.98 0 001.701-.855 7.995 7.995 0 001.163-2.326c.134.375.278.74.413 1.105v.077a55.792 55.792 0 00.144 7.352c.212 2.93 3.757 6.726 4.805 9.522a16.509 16.509 0 01-.49-6.851 78.595 78.595 0 0010.08 22.294.192.192 0 00.346-.154 12.212 12.212 0 01-.221-1.028.192.192 0 01.355-.135 4.612 4.612 0 01.52 3.45.192.192 0 00.288.211c1.662-1.095 3.843-1.172 5.88-.96 2.201.23 4.43.749 6.621.374a1.98 1.98 0 00.692-.24c.237-.211.405-.49.48-.798z" fill="#C5E9FA" fill-rule="nonzero"/><path d="M96.036 236.237c.279 1.134.586 2.248.961 3.354-.154-2.403 1.7-8.207 2.076-8.697-.3 1.415-.363 2.87-.183 4.305-.173-1.355 1.047-3.844 1.595-5.045.24-.538 4.92-8.149 10.36-4.459-2.25-6.207-14.915-9.859-15.126-9.609-2.047 2.787-6.563 5.497-7.62 8.081 0 0 .211 7.073-1.643 11.81a17.2 17.2 0 002.18-3.747c.328.96-1.171 9.61-.624 10.57.25-1.922 2.566-3.844 3.633-5.477a7.87 7.87 0 012.527 4.603 38.505 38.505 0 011.864-5.69z" fill="#F6FBFD" fill-rule="nonzero"/><path d="M104.877 238.15c-.153-1.9.153-3.809.893-5.565a3.46 3.46 0 01-.096 4.219 11.531 11.531 0 002.883-2.739 4.67 4.67 0 00.807-3.844c-.26-.96-1.46-2.479-2.652-2.277-.96.154-1.518 1.922-1.806 2.739a10.955 10.955 0 00-.03 7.466z" fill="#F6FBFD" fill-rule="nonzero"/><path d="M110.623 240.705a11.637 11.637 0 01-2.767-9.763c.903.827 1.816 1.634 2.71 2.46.566.519 1.037.961.96 1.749a20.18 20.18 0 01-.595 2.325c-.087.52-.683 2.816-.308 3.23z" fill="#F6FBFD" fill-rule="nonzero"/><path d="M89.175 213.847a27.963 27.963 0 007.841 3.661 4.132 4.132 0 01-2.883.394 24.59 24.59 0 015.603 6.246 4.737 4.737 0 00-2.652-1.653 44.953 44.953 0 015.842 11.878 18.094 18.094 0 00-3.017-3.479 40.013 40.013 0 014.141 14.414l-2.729-4.218a55.11 55.11 0 01-.326 12.79l-.49-1.432a31.836 31.836 0 00-.837 6.726c-1.652 3.143-3.497 11.051-2.882 14.876l-1.336-2.624a37.236 37.236 0 005.766 15.212 4.805 4.805 0 01-2.403-2.095c1.855 4.507 6.006 15.76 8.514 19.92a13.126 13.126 0 01-3.632-3.228c.874 1.499 3.536 10.464 4.026 16.499-.96-1.297-1.922-1.999-1.922-1.413.423 5.478.73 10.82.961 13.03-.413-.96-4.055 1.384-4.468.462-3.162 6.361-.577 9.542-6.727 12.242-6.851 3.008-28.655-13.51-34.872-9.292.25 2.085-15.75 3.498-15.5 5.583a33.258 33.258 0 01-4.834-11.887c-.451 1.173.577 5.766.961 7.102-2.96-4.805-7.197-11.157-6.947-8.85 3.719-6.4 1.335-17.663-.183-25.715l.23 5.285c-6.995-8.283 1.923-20.949 1.615-31.644l-1.326 4.372a38.351 38.351 0 01-1.48-22.928l-2.162 2.412c-2.95-6.246-2.335-13.972 1.5-18.719a4.084 4.084 0 00-3.114 2.749 38.245 38.245 0 014.362-17.393 3.536 3.536 0 00-2.104 1.441c.605-5.967 11.09-6.323 16.019-8.485a4.805 4.805 0 00-4.95-.5 22.726 22.726 0 0113.166-4.804 6.861 6.861 0 00-5.487-1.865c5.247-3.613 5.17-9.301 11.58-7.159l-3.672-2.508c3.831.011 7.61.881 11.06 2.547a58.694 58.694 0 016.727 4.478c4.392 3.075 8.524 4.574 13.021 7.572z" fill="#ADDCF1" fill-rule="nonzero"/><path d="M88.58 223.898a23.341 23.341 0 006.668 2.518 4.247 4.247 0 01-2.498.442 17.2 17.2 0 014.593 4.651 3.748 3.748 0 00-2.21-1.21 29.54 29.54 0 014.535 9.09 12.175 12.175 0 00-2.46-2.604 26.81 26.81 0 012.931 11.146l-2.181-3.2a39.552 39.552 0 01-.894 10.09l-.355-1.105a34.786 34.786 0 00-1.23 11.214l-1.134-2.68a13.223 13.223 0 00-1.855 8.648l-1.047-2.008a24.629 24.629 0 004.286 11.704 3.44 3.44 0 01-2-1.538 19.824 19.824 0 006.881 8.649l-2.21-.096a27.954 27.954 0 005.064 6.13 7.466 7.466 0 00-6.909 7.688l-.96-2.124c-3.066 5.16-4.623 17.854-10.11 20.276-6.121 2.69-13.636 1.499-19.219 5.112.125 1.634.183 2.739.298 4.372-1.922-2.69-9.888-10.81-10.436-14.077a4.507 4.507 0 00-.288 3.065 28.53 28.53 0 01-4.363-12.089 21.544 21.544 0 00-.336 5.391 36.362 36.362 0 01-7.553-17.297v4.161c-5.708-6.198-4.314-17.152-4.045-25.57l-1.365 3.507a27.146 27.146 0 01-.211-17.998l-2 1.999a13.79 13.79 0 012.182-14.818 4.046 4.046 0 00-2.883 2.306 30.539 30.539 0 014.632-13.905c-.76.19-1.435.626-1.922 1.24a14.866 14.866 0 018.524-10.907 4.459 4.459 0 00-4.296-.173 23.668 23.668 0 0111.608-4.333 5.843 5.843 0 00-4.689-1.211 20.852 20.852 0 0116.278-2.72l-3.075-1.806a23.062 23.062 0 019.61 1.422 44.501 44.501 0 015.612 3.21c3.718 2.258 7.245 3.248 11.031 5.438z" fill="#F6FBFD" fill-rule="nonzero"/><path d="M30.27 294.595a6.313 6.313 0 001.44-4.392c0-.279-.374-.365-.45-.096-.144.442-.263.89-.356 1.345-.058.279-.433.231-.452-.067a117.32 117.32 0 012.008-33.027 21.929 21.929 0 00-3.401 8.273c.5-3.91-1.096-10.897.355-14.414a74.953 74.953 0 014.065-8.648v-.077c.058-.529.125-1.047.192-1.576a8.648 8.648 0 01-2.575 1.855 2.19 2.19 0 01-2.268-.077c5.977-2.143 2.883-12.723 3.613-14.53-.759.308-1.508.635-2.239.961a10.705 10.705 0 014.469-4.958l-.058-.125a22.275 22.275 0 00-4.007 2.354c6.726-9.119 15.548-9.523 17.585-8.917 8.648-1.99 9.446 6.669 10.003 13.76a82.448 82.448 0 01-.105 10.34c-.24 6.727 1.614 15.375 3.69 21.775a6.14 6.14 0 01-3.412-4.497c.567 6.246 1.461 6.544 3.575 12.492 1.835 0-4.891 3.7-3.027 3.719.24 0-4.295 1.528 9.004-2.643-.831.412-1.704.734-2.604.961a.23.23 0 100 .461 9.504 9.504 0 009.61-7.14L73.8 272.85a19.92 19.92 0 0111.916-5.843l-2.883 2.883c7.62-3.613 16.336-4.161 24.715-4.641a6.89 6.89 0 00-4.526 2.565 32.028 32.028 0 0017.095-6.227 6.313 6.313 0 01-3.91 4.094c1.316-.442 10.003 4.622 10.57 8.754-1.154-1.201-3.47-1.355-5.122-1.153a4.41 4.41 0 002.998.961 4.228 4.228 0 01-3.258 1.691 52.477 52.477 0 016.66 3.008c-.548 0-1.096.077-1.634.144h-.288a21.14 21.14 0 00-4.67 1.22c1.076.74.682-4.15 1.921-3.603a27.4 27.4 0 002.066.826l.48.164c-.076.096-3.286.144-4.929.182-.212.04-.427.063-.644.068a8.033 8.033 0 002.201.74c1.006.101 2.02.101 3.027 0 .22-.222-.288.442-.211.326l-.193.27a3.479 3.479 0 01-.211.307l-.461.624-.25.317-.308.375-.26.308-.432.49-.336.355-.365.366-.288.288-.375.346-.298.278-.567.48-.307.25-.394.299-.308.24-.644.452-.298.201-.442.279-.336.211-.48.279-.346.192-.558.298c-.365.452-.73.913-1.105 1.355l.288-.134.28-.145.268-.153.25-.154.24-.144h.058l.211-.144.106-.068.163-.125.27-.192-1.038.913-.346.288c-.24.202-.48.404-.73.596l-.395.317-.816.635-.279.21a49.054 49.054 0 01-2.498 2.595 29.558 29.558 0 01-13.454 7.794l6.64-.663c-12.27 6.4-24.023 12.348-37.87 12.742l6.496.653a72.243 72.243 0 01-17.922 1.662c-1.316 0-8.302-.663-4.132-.47 1.528.182-1.922-.77-2.152-1.01a.23.23 0 00-.365.27c.22.547-3.979-6.15-3.296-1.999-2.095-1.23-3.066-8.889-2.998-6.064a9.61 9.61 0 01-.73-2.075l-.174.173c-.276.274-.64.444-1.028.48a2.047 2.047 0 01-.874-.23c-2.556-1.125-4.642-3.335-6.871-5.19-2.018-1.69-.25-3.228-2.652-3.228a.27.27 0 01-.192-.413z" fill="#ADDCF1" fill-rule="nonzero"/><path d="M56.628 284.774a18.911 18.911 0 006.794-3.056 6.89 6.89 0 001.797-1.922c.194-.29.328-.617.394-.96a.798.798 0 000-.385c.01-.128.01-.257 0-.385a1.076 1.076 0 01.682-1.268.25.25 0 00.115-.336 74.742 74.742 0 01-4.9-20.622 6.15 6.15 0 003.41 4.497 58.79 58.79 0 01-2.795-19.987c.134-3.844.663-7.688.355-11.59-.557-7.09-6.64-16.499-15.317-14.51-8.005 24.341-3.604 26.465-2.883 50.402.202 6.726.47 13.453.855 20.228a.27.27 0 00.192.25c3.74.805 7.62.683 11.301-.356z" fill="#C5E9FA" fill-rule="nonzero"/><path d="M46.404 197.175l1.922-4.853a142.353 142.353 0 0112.213 9.744c3.469 3.267 7.044 8.14 11.925 8.975a3.027 3.027 0 003.2.183c.596 1.403 2.624 2.046 3.517 3.276 2.73 3.008 21.371 3.172 21.371 3.172l-1.816 5.035-2.066-1.759-.23 8.284-6.38-4.603-3.047 5.4-3.315-6.265-3.729 4.622-1.797-7.178-2.171 2.96-5.65-5.881-3.085 6.38-6.304-12.944-5.122 4.488-.307-8.649-5.564 6.496 1.653-14.414s-6.794 1.653-5.218-2.47z" fill="#ADDCF1" fill-rule="nonzero"/><path d="M30.673 299.755c1.922-1.192 2.604-3.68 2.97-5.92.268-1.643.47-3.286.643-4.939 3.162 2.537 6.977 4.901 10.369 4.959a.27.27 0 00.25-.375c-1.797-3.844-1.769-6.275-1.336-7.342.086-.192-.586.442-.471.606.769 1.066 2.393 2.604 2.825 3.843a.26.26 0 00.51-.067c.96-8.792 1.921-19.219-.28-27.713a11.416 11.416 0 015.123 6.477 71.446 71.446 0 00-2.624-13.876 11.675 11.675 0 012.797 4.199A24.321 24.321 0 0153.6 243.01c.378 2.127.756 4.245 1.134 6.352-1.095-6.082 7.159-29.654-3.104-33.43-2.23-.818-12.348-1.327-21.554 7.081a28.56 28.56 0 014.968-1.922v.135a12.608 12.608 0 00-5.91 4.488 37.997 37.997 0 012.72-.76c-1.153 1.72.692 12.598-6.496 14.117.75.53 1.712.659 2.575.346a11.118 11.118 0 003.239-1.576c-.154.509-.317 1.028-.471 1.547l-.067.077a78.672 78.672 0 00-6.045 8.168c-2.239 3.372-1.537 10.512-2.748 14.356a22.87 22.87 0 015.228-7.899 106.664 106.664 0 00-7.64 32.74.27.27 0 00.51.115c.18-.448.384-.884.614-1.307a.27.27 0 01.5.144 6.256 6.256 0 01-2.325 4.2.26.26 0 00.144.47c2.758.183.48 1.566 2.527 3.46 2.249 2.085 4.276 4.497 7.015 5.89.295.17.622.277.96.317a2.22 2.22 0 001.298-.365z" fill="#F6FBFD" fill-rule="nonzero"/><path d="M49.133 231.682a51.098 51.098 0 01-2.2 2.95c1.047-2.316 1.412-8.754 1.22-9.379a13.453 13.453 0 01-1.432 4.325c.682-1.278.403-4.161.327-5.583 0-.615-1.797-9.917-8.562-8.313 4.064-1.547 6.61-2.71 8.062-4.939 1.922-2.93 20.276-5.16 20.381-4.804.961 3.526-5.4 16.845-5.41 16.845-.01 0-2.883-1.144-1.845 11.272-.442-1.461-1.672-1.98-1.73-3.517-.691.836-2.46 9.916-3.372 10.704.47-1.998-1.096-4.756-1.528-6.726a8.322 8.322 0 00-4.248 3.507c.28-2.102.392-4.222.337-6.342z" fill="#F6FBFD" fill-rule="nonzero"/><path d="M42.281 287.042c.053.065.11.126.173.182l-.077.173a.965.965 0 01-.096-.355z" fill="#1B1A18" fill-rule="nonzero"/><path d="M92.096 308.624c-.759 3.556-1.73 7.102-1.73 7.102s-.317-3.546-.96-4.19c-.644-.644 2.69-2.883 2.69-2.883" fill="#F6FBFD" fill-rule="nonzero"/><path d="M85.773 319.685c.721-.73.404-2.662.404-2.662s-1.922 3.219-3.229 3.546c-.72.182 2.825-.884 2.825-.884z" fill="#ADDCF1" fill-rule="nonzero"/><path fill="#C5E9FA" fill-rule="nonzero" d="M52.506 194.244l1.528 3.123 1.22-6.784zM51.141 180.781l1.941 4.075 5.285-6.16zM51.141 177.216l3.123 1.999 8.668-6.237zM57.032 168.452s2.527 2.643 1.268 4.123l9.61-4.036s-1.346-5.468-10.878-.087zM63.508 159.842s1.326 3.171-.336 5.007l8.254 1.124s2.614-6.563-7.918-6.13z"/><path d="M69.284 151.261s4.007 6.996.201 9.37c0 0 5.641 2.882 5.535 4.573.03.02 7.332-7.466-5.736-13.943zM81.074 148.628s.904 4.997-3.373 6.88l3.662 8.226s8.225-6.246-.289-15.106zM88.54 152.5s-1.546 4.411-2.623 3.009l2.163 2.825s2.69-3.21.46-5.833zM106.664 157.844s-3.094 3.344-1.691 6.313l-8.149 2.2s.548-9.196 9.84-8.513zM116.033 164.81s-5.41 2.066-3.844 6.842l-12.3-1.922s4.719-8.83 16.144-4.92zM118.657 178.994s-3.988.173-4.584 1.922l-7.918-6.91s7.14-3.094 12.502 4.988zM119.272 189.727s-3.095-1.748-3.69.289l-4.805-9.302s8.024 3.901 8.495 9.013zM119.521 199.73s-4.036-2.161-5.563-.45l-1.375-9.84s5.526 6.534 6.938 10.29zM116.667 208.322s-3.103-1.086-5.131 1.018l-3.142-6.986 8.273 5.968zM109.412 217.566c0-1.317-1.922-3.786-1.922-3.786l2.97-4.017a27.127 27.127 0 01-1.048 7.803z" fill="#C5E9FA" fill-rule="nonzero"/><path d="M46.183 208.86a20.727 20.727 0 013.709-2.816 64.43 64.43 0 01-.115 9.437l1.739-1.855 3.257 8.783 3.268-2.412 3.459 8.12 3.334-2.095a23.274 23.274 0 011.288 5.17 12.079 12.079 0 011.845-3.248l1.422 4.353c1.105-.384 1.73-1.797 2.825-1.99.788-.114 2.297 2.701 2.336 3.508l4.103-2.825a21.506 21.506 0 002.738 3.844l4.642-3.046 1.566 2.604 6.525-5.526-.961 3.566a153.396 153.396 0 007.505-10.705c-4.91 2.075-9.984 4.18-15.308 4.218a20.372 20.372 0 01-8.879-2.047c-7.86-3.738-12.492-11.963-19.113-17.594-1.441-1.22-3.604-4.104-5.43-4.565-4.439-1.028-4.64 3.652-5.755 7.12z" fill="#ADDCF1" fill-rule="nonzero"/><path d="M49.825 202.758a26.993 26.993 0 011.364 9.254l2.422-2.2a37.275 37.275 0 011.854 9.733 34.594 34.594 0 013.085-5.563l4.43 9.426 2.268-4.939a8.293 8.293 0 012.325 6.458 4.065 4.065 0 001.999-2.268 10.57 10.57 0 012.431 5.535l2.268-2.883 2.883 4.805 3.055-2.22 1.47 3.757 7.198-2.72a3.69 3.69 0 00.394 2.432l8.158-6.198a19.93 19.93 0 00-3.613 7.072 30.558 30.558 0 006.314-6.986c.201.961 1.114 1.567 1.69 2.355 3.047-3.47 2.49-8.466 3.595-13.03-3.45-1.682-7.572-1.01-11.234.143-3.66 1.154-7.293 2.73-11.146 2.73-6.208 0-11.532-4.017-16.442-7.86a22.64 22.64 0 01-4.641-4.45c-1.586-2.249-2.316-5.007-3.844-7.246-1.528-2.239-4.641-3.92-7.053-2.604a6.794 6.794 0 00-2.797 4.334c-.403 1.422-1.768 5.055-.528 6.15.23-.355 2.239-2.594 2.095-3.017z" fill="#C5E9FA" fill-rule="nonzero"/><path d="M67.343 189.987s2.604-13.242 12.847-19.565c0 0 2.576 5.41.961 9.83l6.9-4.66 2.392 5.958 3.844-2.681 1.547 9.657 7.082-5.765 2.384 5.352 4.516-6.784a32.23 32.23 0 01-1.23 23.822l-3.258-2.326.894 3.844-3.757-1.845-.586 3.575-3.7-3.844-.961 9.83-2.085-1.49v5.017l-2.383-1.778-1.845 4.949-1.538-4.872-3.507 2.806-2.258-3.767-5.824 2.028-.461-3.95-4.238-.413 4.161-4.17-3.286.307 3.45-5.612-3.518.423 4.805-7.342-6.62.183 2.7-3.335-4.469-1.489 3.075-1.922-6.034.029z" fill="#00B4D2" fill-rule="nonzero"/><path fill="#049CBE" fill-rule="nonzero" d="M78.105 169.788l.365 11.916 7.438-6.746 1.624 9.667 4.103-3.613.634 10.243 8.543-9.148 2.239 7.419 6.765-8.207z"/><circle fill="#465578" fill-rule="nonzero" cx="89.78" cy="196.886" r="1.172"/><circle fill="#465578" fill-rule="nonzero" cx="94.335" cy="198.405" r="1.172"/><path d="M88.108 198.683a4.046 4.046 0 006.42 2.143l-6.42-2.143z" fill="#049CBE" fill-rule="nonzero"/><path d="M83.313 188.113a3.95 3.95 0 012.662 4.363 3.969 3.969 0 00-6.986-3.748 4.055 4.055 0 00-.423 1.288 3.95 3.95 0 014.747-1.903zM101.571 194.34a3.969 3.969 0 012.662 4.372 3.969 3.969 0 10-7.419-2.46 3.978 3.978 0 014.757-1.912z" fill="#465578" fill-rule="nonzero"/><path d="M80.498 200.836c-.058.23-.183.452-.26.682a7.735 7.735 0 0014.683 4.872l.212-.75a37.419 37.419 0 01-6.63-1.585 46.548 46.548 0 01-8.005-3.22z" fill="#FFF" fill-rule="nonzero"/><path d="M87.657 213.04a4.113 4.113 0 01-5.093-1.586l-.827-.307a4.142 4.142 0 004.959 3.142c.67-.17 1.29-.5 1.806-.96l-.845-.29z" fill="#049CBE" fill-rule="nonzero"/><path d="M112.776 190.14l6.726 9.61s-3.113-11.531-8.187-18.402c0 0 6.88 4.468 7.937 8.39 0 0 .231-8.467-11.81-15.251a14.606 14.606 0 0111.215 4.516s-4.594-11.262-17.413-9.753c0 0 4.123-6.563 14.77-4.43 0 0-8.168-5.295-18.585.375 0 0 2.374-7.745 9.61-7.351a20.305 20.305 0 00-15.548.788s.163-5.305-2.883-6.14c0 0 .73 3.843-.711 4.525 0 0-3.171-7.803-6.727-8.389 0 0 5.958 9.523.24 14.174a12.185 12.185 0 00-12.04-11.531s10.128 5.958 5.852 13.453c0 0 .298-6.265-11.867-4.94 0 0 8.59 1.663 7.88 5.593 0 0-4.719-4.939-14.117 3.056 0 0 6.496-2.815 10.369-.125l-7.217 1.97-9.052 6.928 11.243-4.237s-9.61 4.949-11.32 7.755l6.246-1.5s-7.264 5.132-9.12 13.713a3.392 3.392 0 001.923-1.557s-3.748 11.272-3.565 14.904l5.42-9.119 1.671 9.292 1.307-2.152 1.567 8.456 3.843-5.064 3.844 7.62 2.335-3.42 1.922 8.58 2.018-2.498 2.393 4.805 3.69-2.143.836 2.075 2.623-1.921 1.086 5.131 6.13-3.527.846 2.826 5.833-5.017 1.038 2.883 5.766-6.582s2.883 6.9.845 11.204c0 0 6.314-5.246 7.976-16.806a18.585 18.585 0 01-.202 6.726s2.787-6.025 2.432-7.937c-.356-1.912-.961-5.67-.961-5.67l5.765 4.296-3.872-18.181zm-4.123 15.01l-3.267-2.315.894 3.843-3.748-1.835-.596 3.575-3.7-3.844-.96 9.83-2.086-1.49-.057 5.007-2.383-1.777-1.836 4.948-1.48-4.881-3.507 2.806-2.325-3.767-5.833 2.028-.423-3.921-4.238-.413 4.161-4.17-3.277.297 3.45-5.602-3.517.423 4.805-7.342-6.621.173 2.69-3.334-4.458-1.49 3.065-1.922h-5.948s2.604-13.241 12.848-19.564c0 0 2.575 5.41.96 9.82l6.9-4.65 2.393 5.957 3.844-2.69 1.547 9.61 7.082-5.767 2.383 5.353 4.507-6.784a32.201 32.201 0 01-1.26 23.879l-.009.01z" fill="#F6FBFD" fill-rule="nonzero"/><path d="M94.066 208.927a17.018 17.018 0 01-5.487-1.153 22.198 22.198 0 01-4.9-2.431 21.88 21.88 0 005.083 1.835 16 16 0 005.227.5.644.644 0 11.144 1.278l-.067-.029z" fill="#9DD9EF" fill-rule="nonzero"/><path d="M142.651 312.593c-.346-1.922-2.47-3.411-4.257-2.71l.894-1.624a23.197 23.197 0 01-14.414-2.748 2.258 2.258 0 002.239-1.23 49.969 49.969 0 01-13.453-5.602c.896.39 1.94.17 2.604-.548a67.708 67.708 0 00-10.56-4.084l2.152-.615c-6.285-2.143-10.648-7.745-14.626-13.069v2.556l-10.897-11.031c-.048.672-.106 1.345-.154 2.027-2.488-2.335-6.13-3.104-9.523-2.796a35.776 35.776 0 00-9.801 2.796 3.527 3.527 0 013.844.788 10.955 10.955 0 00-8.312 6.775l.442-4.084a79.095 79.095 0 00-4.42 13.77c-.26-.548-.52-1.105-.77-1.653a47.528 47.528 0 01-7.283 15.471l-.068-2.44c-3.344 5.044-7.908 16.749-8.033 17.815-.548 4.363.058 3.306 2.508 7.342 3.161 5.18 10.023 6.726 15.375 8.514a3.94 3.94 0 012.095 5.765c19.007 2.259 46.605-.259 55.734-3.055 3.738-1.144 4.805-6.823 9.61-10.503 3.997-3.056 8.34-6.189 11.53-9.024 1.85-.23 3.62-.888 5.17-1.921a5.276 5.276 0 002.374-4.882z" fill="#20419A" fill-rule="nonzero" opacity=".21"/><path d="M107.529 288.618s29.28-2.806 47.586-7.448c18.305-4.641 33.306-3.66 36.717 7.572 3.411 11.234-68.227 33.057-83.813 35.257-15.586 2.2-22.207-36.112-22.207-36.112l21.717.73z" fill="#136D7C" fill-rule="nonzero"/><path d="M111.786 285.658a2.595 2.595 0 00-1.922 1.46l19.401-4.439a10.964 10.964 0 00-3.843 2.22 322.825 322.825 0 0024.302-5.324l-2.98 2.403a109.374 109.374 0 0121.507-5.142c-1.42.343-2.757.967-3.93 1.836a72.262 72.262 0 0116.47-2.306l-4.91 1.556c4.96-.943 10.06.684 13.558 4.325l-1.095-2.768c4.276 2.883 4.949 8.745 5.208 13.876a4.18 4.18 0 001.518-1.999c.74 3.335-.432 6.871-2.402 9.667a37.054 37.054 0 01-7.303 7.15l.5-1.855a23.524 23.524 0 01-13.098 10.397 3.19 3.19 0 001.518-2.239 78.441 78.441 0 01-17.297 7.611 5.612 5.612 0 001.48-2.277 95.43 95.43 0 01-19.536 9.513 3.094 3.094 0 001.586-1.557 109.653 109.653 0 01-14.126 5.506 8.187 8.187 0 003.238-2.44 42.877 42.877 0 01-12.492 2.882c.298.375.961-.134.856-.605-.106-.47-.587-.75-1.02-.961l-4.237-2.095 1.74-1.326a11.704 11.704 0 01-3.47-2.268l1.73-.586-3.402-2.748 3.844-.538a11.896 11.896 0 00-5.266-1.634 36.737 36.737 0 0110.148-5.765 5.91 5.91 0 00-2.681-.24 26.628 26.628 0 0014.817-8.707 29.001 29.001 0 01-20.18-3.229c-5.227-3.007-11.473-8.446-14.317-13.799 2.402-.913 5.564-.778 8.168-1.307 2.604-.528 5.285-1.787 7.918-2.248z" fill="#C5E9FA" fill-rule="nonzero"/><path d="M127.68 314.476l-.798.423a6.727 6.727 0 01-1.143.961c8.936-2.45 13.52-11.406 21.813-14.414-3.056 2.297-4.584 5.353-6.88 8.408 6.88-6.111 13.001-12.232 20.65-17.585-.769 1.538-3.065 3.066-3.065 5.353 3.844-6.112 9.945-9.168 16.826-10.705-1.528-.76-3.844-.76-5.353-.76.76-1.527 3.056-2.296 4.584-3.843-5.352-.76-9.177 2.296-12.233 3.844a66.468 66.468 0 01-60.616 2.123c-1.954.077-3.891.4-5.765.961 2.883 5.353 9.09 10.792 14.318 13.8a29.001 29.001 0 0020.18 3.228 26.628 26.628 0 01-14.818 8.706 5.91 5.91 0 012.68.24 36.4 36.4 0 00-8.792 4.805 40.36 40.36 0 0017.576-5.122c.217-.24.514-.39.836-.423z" fill="#F6FBFD" fill-rule="nonzero"/><path d="M153.673 293.835c-10.705 2.288-20.64 6.88-31.346 3.056.76 0 2.287 0 2.287-1.528-6.851 0-12.184-4.554-17.508-8.36-1.051.362-2.123.66-3.21.894-2.604.528-5.765.394-8.167 1.307 2.882 5.352 9.09 10.791 14.318 13.799a29.001 29.001 0 0020.18 3.229 26.628 26.628 0 01-14.818 8.706 5.91 5.91 0 012.68.24 36.074 36.074 0 00-7.802 4.065c17.69-1.451 35.112-8.86 43.386-25.408z" fill="#F6FBFD" fill-rule="nonzero"/><path d="M117.83 333.628l-.663.058c.173.22.461.134.663-.058z" fill="#20419A" fill-rule="nonzero" opacity=".21"/><path d="M44.914 312.987c10.004-7.764 13.703-19.66 19.517-30.087 5.814-10.426 20.535-6.054 27.367.96 6.833 7.016 32.576 24.072 49.777 24.899 11.82.557-3.575 10.849-14.789 20.093-5.208 4.295-5.122 10.378-8.917 11.531-11.954 3.633-55.389 6.794-70.034-.49-14.644-7.284-7.418-23.427-2.92-26.906z" fill="#C5E9FA" fill-rule="nonzero"/><path d="M158.949 305.069a5.4 5.4 0 015.458 5.535c.22 5.63-3.498 12.81-10.11 17.354-6.61 4.546-20.506-2.882-20.506-2.882l25.158-20.007z" fill="#049CBE" fill-rule="nonzero"/><path d="M123.711 308.307c-1.163-.413-3.632 5.91-1.076 10.993 2.556 5.084 17.768 11.253 29.01 8.87 4.863-1.028 13.646-17.557 9.13-21.256-4.517-3.7-10.292 3.027-15.376 3.411-5.083.385-13.75.817-21.688-2.018z" fill="#00B4D2" fill-rule="nonzero"/><path d="M146.927 313.496c-.346-1.922-2.479-3.411-4.266-2.71l.903-1.614a23.235 23.235 0 01-14.414-2.748 2.258 2.258 0 002.239-1.24 49.613 49.613 0 01-13.453-5.602c.898.398 1.95.177 2.614-.548a68.774 68.774 0 00-10.57-4.122l2.161-.606c-6.294-2.143-10.656-7.745-14.635-13.068v2.556L86.61 272.79c-.057.673-.105 1.355-.163 2.028-2.48-2.336-6.121-3.095-9.523-2.797a36.304 36.304 0 00-9.792 2.806 3.536 3.536 0 013.844.798 10.945 10.945 0 00-8.322 6.726c.154-1.355.298-2.72.442-4.074a79.912 79.912 0 00-4.42 13.847l-.769-1.662a47.24 47.24 0 01-7.284 15.47l-.067-2.43a17.893 17.893 0 01-8.476 9.907c.654-1.115-1.98 1.922-2.498 5.064-.307-.702-.615-1.413-.913-2.114a67.189 67.189 0 00-.192 12.665l-1.278-1.067c1.874 4.92 6.342 9.12 11.041 11.464 14.635 7.323 58.07 4.152 70.024.49 3.738-1.143 4.804-6.813 9.609-10.493 3.997-3.056 8.34-6.198 11.531-9.033a12.05 12.05 0 005.17-1.922 5.324 5.324 0 002.354-4.968z" fill="#20419A" fill-rule="nonzero" opacity=".21"/><path d="M143.506 313.717c-.346-1.922-2.47-3.411-4.257-2.71l.894-1.624a23.197 23.197 0 01-14.414-2.748 2.258 2.258 0 002.239-1.23 49.969 49.969 0 01-13.434-5.592c.896.39 1.941.17 2.604-.548a67.708 67.708 0 00-10.57-4.123l2.152-.615c-6.284-2.133-10.647-7.745-14.625-13.059v2.547l-10.907-11.003c0 .673-.105 1.345-.153 2.028-2.49-2.336-6.131-3.104-9.523-2.797a35.776 35.776 0 00-9.802 2.797 3.536 3.536 0 013.844.787 10.955 10.955 0 00-8.312 6.727c.144-1.364.288-2.72.442-4.084a78.134 78.134 0 00-4.469 13.8l-.768-1.663a47.72 47.72 0 01-7.284 15.47l-.02-2.42a17.94 17.94 0 01-8.475 9.907c.654-1.106-1.98 1.921-2.508 5.073a34.254 34.254 0 00-.96-2.114 68.745 68.745 0 00-.193 12.656l-1.278-1.067c1.922 4.92 6.352 9.129 11.041 11.474 14.645 7.322 58.08 4.151 70.033.49 3.738-1.144 4.805-6.823 9.61-10.503 4.007-3.046 8.35-6.189 11.53-9.023a12.03 12.03 0 005.17-1.922 5.266 5.266 0 002.393-4.91z" fill="#C5E9FA" fill-rule="nonzero"/><path d="M37.678 335.925l1.22.288a27.127 27.127 0 01-9.263-11.704l1.922 2.325a21.602 21.602 0 010-8.312 11.627 11.627 0 01-2.296 3.229 63.037 63.037 0 012.882-9.975l-1.672 1.97c-.163-3.027 1.105-5.92 2.057-8.792a44.482 44.482 0 002.23-13.271c.057-3.767-.481-7.793-2.884-10.686 5.122 7.227 12.3 13.108 15.856 21.218 2.364 5.4 2.883 11.416 2.95 17.297 0 4.016-.23 8.11-1.72 11.829-.76 1.922-2.066 4.218-1.557 6.332.567 2.316 2.73 2.21 3.844 3.844-4.488 1.365-10.743-2.393-13.569-5.592zM58.896 312.545v-1.124a.96.96 0 000 1.124zM59.741 313.612c0 .288-.086.576-.115.864.158-.26.2-.573.115-.864z" fill="#C5E9FA" fill-rule="nonzero"/><path d="M109.326 318.3c1.528-1.527 3.056-2.296 4.593-3.843-4.593.76-9.177 2.297-13.77 0 0 3.844 3.844 1.528 4.593 3.056-7.687 1.528-13.76-3.844-17.585-9.177-.769 2.297.76 3.844 2.287 5.352-6.88-3.055-5.343-13.76-13.76-15.288.768 1.528 3.065 3.056 3.065 5.352-1.538-4.583-6.121-4.583-9.946-3.055 0-1.528 1.528-3.066 1.528-4.594-5.88 4.42-9.61 10.244-10.57 17.49.084.291.042.605-.116.864 0-.288.077-.576.116-.865-.144-.422-.596-.701-.846-1.066-.5 4.881 2.316 10.522 5.324 15.692l-2.297-2.297c1.48 8.725 9.763 11.925 14.53 18.095 15.634 0 31.787-1.922 38.38-3.93 2.959-.913 4.247-4.652 7.043-7.996-1.778-6.447-5.506-12.03-12.57-13.79z" fill="#F6FBFD" fill-rule="nonzero"/><path d="M117.417 319.723s-5.247 3.18-9.61 3.546c-4.362.365.606 10.493.606 10.493s13.453-1.71 15.615-2.44c2.162-.73-6.611-11.599-6.611-11.599z" fill="#6CCCE6" fill-rule="nonzero"/><path d="M107.423 334.762c-4.026 4.391-33.43 1.336-35.862 0-.365-.212-1.922-.375-1.922-1.019a1.182 1.182 0 01.846-1.403c.72-.326 5.064-1.749 3.786-1.643-1.816 1.086-4.401.961-5.574.077-1.172-.884-1.489-3.421-.326-4.891 1.162-1.47 6.582-2.047 5.025-2.047-10.483 3.142-10.137-6.506-3.786-6.91 1.25-.076 5.833.904 4.805.424-1.48-.385-9.61-.27-7.11-5.862a3.392 3.392 0 012.7-2.095c5.054-.519 8.705 6.256 13.702 8.091 4.997 1.836 14.53 6.583 23.303 5.977 1.336-.144 4.459 6.9.413 11.3z" fill="#049CBE" fill-rule="nonzero"/><path d="M108.144 334.608c-4.026 4.392-33.431 1.336-35.862 0-.365-.202-1.922-.163-1.922-1.019-.106-.682.567-1.316 1.24-1.614.672-.298 3.324-1.22 2.056-1.115a3.969 3.969 0 01-4.238-.23c-1.191-.961-2.056-3.315-.894-4.805 1.163-1.49 6.208-2.027 4.642-2.066-9.389 2.623-8.937-7.457-2.883-6.87 1.24.124 4.987.749 3.997.278-1.48-.394-9.34-.903-6.073-6.333.663-1.095 1.105-1.316 1.692-1.47 3.075-.817 10.262 3.565 15.903 6.727 4.66 2.585 13.184 7.793 21.958 7.188 1.306-.106 4.41 6.938.384 11.329z" fill="#00B4D2" fill-rule="nonzero"/><path d="M152.904 294.595a35.19 35.19 0 00-10.983 1.835 3.92 3.92 0 002.393-.096 37.256 37.256 0 01-11.436 7.438 3.969 3.969 0 012.066-.097 51.727 51.727 0 01-16.172 8.87l1.518.538-4.363 1.816c-1.037.433-8.216 1.547-8.955 2.355-1.278 1.393 7.264 2.882 8.225 4.353l-2.152-.76a17.883 17.883 0 012.479 7.323c.163-.625.317-1.24.47-1.864a22.909 22.909 0 01-1.075 8.533l6.572-3.22-.605 1.452a61.375 61.375 0 0120.372-6.083l-2.22 1.576a68.774 68.774 0 0117.633-6.861l-1.922 1.23a75.568 75.568 0 0120.468-7.774 1.605 1.605 0 00-1.652-.202c3.91-2.028 7.005-5.285 10.032-8.485a36.852 36.852 0 006.16-7.822 14.491 14.491 0 001.623-5.18c-10.59 5.583-26.762 1.125-38.476 1.125z" fill="#F6FBFD" fill-rule="nonzero"/><path d="M116.273 322.51l-2.152-.76a17.883 17.883 0 012.48 7.313l.47-1.854a22.697 22.697 0 01-1.086 8.523l6.583-3.219-.606 1.451c6.371-3.19 11.531-4.238 18.594-5.054-.74.528-1.326 2.104-2.066 2.633 5.526-3.085 13.117-7.486 19.277-8.947l-1.922 1.23a75.568 75.568 0 0120.468-7.774 1.634 1.634 0 00-1.653-.201c3.901-2.028 7.005-5.286 10.032-8.486a36.794 36.794 0 006.16-7.812c1.547-2.95 2.277-6.486 1.201-9.61-1.5-4.4-6.256-7.081-10.897-7.408-4.641-.327-9.196 1.24-13.453 3.056s-8.524 3.92-13.107 4.727a7.524 7.524 0 012.392.394 171.192 171.192 0 00-13.933 6.65 3.95 3.95 0 002.402-.106 37.256 37.256 0 01-11.435 7.438 3.969 3.969 0 012.066-.096 51.727 51.727 0 01-16.173 8.87l1.519.538-4.363 1.816c-1.038.432-3.373.913-4.113 1.73-1.345 1.364 2.355 3.478 3.315 4.958z" fill="#C5E9FA" fill-rule="nonzero"/><path d="M108.144 334.608c-1.355 1.48-5.554 2.114-10.628 2.258.125-.432.24-.845.355-1.278a1.172 1.172 0 000-.845c-.192-.366-.691-.423-1.105-.423-1.535.003-3.07.102-4.593.298a24.11 24.11 0 004.805-6.583l-4.632.846c1.778-1.5 3.536-3.008 5.314-4.517-1.778-.422-5.054-2.094-5.525-4.103-.071-.26-.09-.53-.058-.797 4.478 2.181 10.013 4.19 15.654 3.843 1.335-.134 4.44 6.91.413 11.301z" fill="#049CBE" fill-rule="nonzero" opacity=".16"/><path d="M100.35 324.797l-5.313 4.516 4.631-.845a24.437 24.437 0 01-4.804 6.582 36.89 36.89 0 014.603-.298c.422 0 .96.048 1.105.423.105.269.105.567 0 .836l-1.643 5.833a104.886 104.886 0 0114-4.959c2.662-.74 5.555-1.499 7.255-3.66 2.422-3.085 1.403-7.544.077-11.234-.73-2.028-1.825-4.305-3.93-4.757-1.922-.403-3.719.961-5.477 1.845a19.488 19.488 0 01-13.905 1.077c-1.441-.423-2.48-1.211-2.076.528.414 1.999 3.71 3.68 5.478 4.113z" fill="#C5E9FA" fill-rule="nonzero"/><path d="M180.656 245.087l-49.382.404a1.922 1.922 0 00-1.586.845l-27.521 39.774a1.922 1.922 0 01-1.586.836l-35.237.317c-1.062 0-1.923.86-1.923 1.922a1.926 1.926 0 001.923 1.98l88.406-.76a1.922 1.922 0 001.624-.884l26.906-41.426a1.922 1.922 0 00-1.624-3.008z" fill="#F58F00"/><path d="M179.494 246.788l-48.105.413c-.634 0-1.227.313-1.586.836l-27.511 39.773c-.358.53-.956.847-1.595.846l-36.516.308a1.922 1.922 0 00-1.922 1.97c0 1.06.86 1.921 1.922 1.921l88.406-.75a1.922 1.922 0 001.615-.893l26.906-41.416a1.922 1.922 0 00-1.614-3.008z" fill="#FFB739"/><path d="M118.676 271.186a155.25 155.25 0 01-17.047.961 95.412 95.412 0 00-25.715 3.517c-8.821 2.489-17.527 3.738-25.945 7.447a249.969 249.969 0 00-23.197 12.031 5.42 5.42 0 01-2.047.683c.24.851.717 1.617 1.374 2.21-.47-4.18 14.971 7.62 14.77 7.063a.24.24 0 01.384-.25c.26.25 3.623 1.374 2.095 1.105-4.151-.394 3.517 3.248 4.805 3.43 5.54.785 11.17.638 16.662-.432l-6.448-.96a92.317 92.317 0 0040.292-8.37l-6.668.326a29.626 29.626 0 0013.827-7.101 48.91 48.91 0 002.624-2.47 69.423 69.423 0 001.72-1.21l.375-.28a69.464 69.464 0 001.652-1.287c-.173.115-.345.23-.528.336l-.548.327-.576.298-.596.25c.403-.423.788-.855 1.172-1.298l.116-.057c.355-.164 7.485-10.311 7.495-10.32l.346-.174a4.891 4.891 0 010-.663 45.818 45.818 0 00-.394-5.112z" fill="#20419A" fill-rule="nonzero" opacity=".15"/><path d="M109.066 265.959s9.735-4.94 9.985-6.18c0 0 .96 2.076-1.528 5.17-2.49 3.095-8.457 1.01-8.457 1.01z" fill="#ADDCF1" fill-rule="nonzero"/><path d="M112.43 282.131l-8.649-10.762s5.766-3.844 7.918-6.563c2.153-2.72 4.19-10.619 6.266-12.214 1.355-1.047 4.949-5.372 5.102-8.245.144-2.662.76-3.844 1.538-3.411 2.94 1.691 2.21 12.07-.961 13.357 3.075-.567 6.86-2.643 9.946-4.536 2.335-1.441 4.593 3.95 2.123 5.66-1.384.961-2.114.49-2.066.894.048.403 2.009-.461 2.595-.961.817-.634 3.94 4.41-.606 6.726 1.922-1.44 4.382 1.769 1.865 4.478-2.806 3.027-3.527 3.354-14.357 8.072-3.305 1.365-10.743 7.505-10.743 7.505" fill="#00B4D2"/><path d="M123.711 254.783c-1.202.26-2.423.428-3.651.5 1.11-.345 2.2-.75 3.267-1.211.96-.423 1.47-2.48 1.47-2.48l-.279 1.72c.204-.711.458-1.408.76-2.085 0 .327 0 2.46.172 2.384.173-.077 2.633-.74 2.633-.74a26.676 26.676 0 01-4.372 1.912z" fill="#049CBE"/><path d="M111.084 285.004c-1.49 1.115-3.363 2.278-5.073 1.557a22.255 22.255 0 0012.617-9.379 8.062 8.062 0 01-5.228-.71c.22-.003.438-.022.654-.058l4.93-.193a22.909 22.909 0 01-6.016-2.96c2.14-.786 4.39-1.23 6.669-1.316a53.15 53.15 0 00-6.66-3.017 4.17 4.17 0 003.258-1.691 4.391 4.391 0 01-2.998-.961c1.643-.202 3.969 0 5.112 1.153-.557-4.132-4.593-3.075-5.91-2.633 1.845-.644 1.509-2.249 2.076-4.122-4.91 3.622-9.033 5.823-15.116 6.198a6.89 6.89 0 014.517-2.566c-8.418.48-17.086 1.028-24.706 4.641l2.883-2.883a19.92 19.92 0 00-11.945 5.804l1.125-5.14a9.504 9.504 0 01-9.61 7.14.23.23 0 110-.462c.903-.217 1.777-.54 2.605-.961a.23.23 0 00-.106-.442c-2.47 0-5.516-1.038-7.563-.452-2.047.587-5.67 4.805-7.457 6.544a.23.23 0 000 .356l1.663 1.22a.221.221 0 01-.077.404 96.928 96.928 0 00-8.812 2.979c-3.267 1.278-6.62 2.729-8.158 9.936a45.635 45.635 0 003.555 4.545c1.826 2.143 3.911 4.113 5.381 6.496a.23.23 0 00.423-.154 6.727 6.727 0 00-.48-1.681.23.23 0 01.365-.27c.424.417.81.87 1.153 1.355a.24.24 0 00.279.068 16.336 16.336 0 012.883-1.038.23.23 0 01.182.423.23.23 0 00.067.432 21.87 21.87 0 0013.828-1.787 6.986 6.986 0 00-3.094-.577 68.227 68.227 0 0118.258 1.317 12.607 12.607 0 00-4.2-1.922 29.405 29.405 0 0021.814-4.075 9.965 9.965 0 01-4.507.414 51.199 51.199 0 0021.42-11.532zM123.202 277.182l-.183.28.183-.28z" fill="#C5E9FA" fill-rule="nonzero"/><path d="M118.628 277.182a9.062 9.062 0 01-5.353-.74c.961-.057 5.612-.096 5.708-.22a23.514 23.514 0 01-5.977-2.931 21.736 21.736 0 016.63-1.394c-2.555-.903-2.882-1.124-5.669-.692-3.565.548-5.765 4.805-9.302 4.805a5.468 5.468 0 004.46-.836 5.477 5.477 0 01-2.605 2.758 8.86 8.86 0 01-2.835.96 8.648 8.648 0 01-2.2-.355l.096.135a51.887 51.887 0 01-2.98-1.124 12.492 12.492 0 005.766 3.055 27.06 27.06 0 01-17.68-2.354 14.683 14.683 0 009.013 4.66 27.723 27.723 0 01-22.044-1.085 40.455 40.455 0 005.66 5.352c-.452 0-24.812 12.492-35.17-5.506 0-.067-2.509 1.537-2.576 1.557-3.478 1.47-7.322-4.373-8.389-.173-.442 1.758-11.906 8.149-10.57 10.628-.067-2.816.913 4.804 2.998 6.063-.682-4.151 15.375 6.861 15.106 6.314a.23.23 0 01.365-.26c.279.24 3.69 1.192 2.153.961-4.17-.183 3.68 3.065 4.987 3.18a50.41 50.41 0 0016.624-1.268l-6.486-.653a92.25 92.25 0 0039.821-10.369l-6.64.654a29.558 29.558 0 0013.453-7.793 45.31 45.31 0 002.498-2.585 39.125 39.125 0 003.604-2.97c-.688.535-1.432.992-2.22 1.365.365-.442.74-.894 1.096-1.355a22.342 22.342 0 008.456-7.505c-.087.163.423-.5.202-.279z" fill="#F6FBFD" fill-rule="nonzero"/><path d="M68.505 314.227c0 1.114 4.997 1.595 5.766 1.278.769-.317 1.297-2.105 1.297-2.96s-3.027-3.008-4.853-2.671c-1.48.278-2.21 3.017-2.21 4.353zM67.957 322.971c.25.336 4.44.087 4.748-.673.201-.5.163-3.123-.212-3.507-.375-.384-4.007-.846-4.507-.432a4.574 4.574 0 00-.029 4.612zM70.466 330.36c.06.069.136.121.22.154a.586.586 0 00.231 0 5.15 5.15 0 001.778-.326c.247-.076.471-.211.653-.394.22-.314.34-.685.346-1.067a4.65 4.65 0 000-1.21 1.547 1.547 0 00-.576-1.029 1.768 1.768 0 00-.615-.269c-.856-.221-3.19-.394-3.585.702-.394 1.095.865 2.767 1.548 3.44z" fill="#049CBE" fill-rule="nonzero"/><path d="M39.84 342.478s8.303-10.09 54.178-9.61c45.875.481 45.385 3.748 55.629-.153a64.075 64.075 0 01-42.176 16.105c-25.868 0-67.63-6.342-67.63-6.342z" fill="#9D4D29" fill-rule="nonzero"/><path d="M39.84 342.478s8.303-9.273 54.178-8.792c45.875.48 45.385 2.93 55.629-.961 0 0-16.336 16.95-42.176 16.95-25.84 0-67.63-7.197-67.63-7.197z" fill="#B56B4A" fill-rule="nonzero"/><path d="M157.776 290.55a24.686 24.686 0 01-10.022 2.69l10.051-3.287-3.555.26a30.221 30.221 0 0013.75-7.178 24.984 24.984 0 01-9.33 6.976 4.67 4.67 0 011.826 0 15.875 15.875 0 01-12.127 3.844" fill="#F6FBFD" fill-rule="nonzero"/><path d="M107.048 355.912c-17.066 0-35.497-5.045-41.887-8.879-6.16-3.7-20.247-.538-25.157.96a2.671 2.671 0 11-1.566-5.073c2.046-.644 20.18-6.054 29.5-.48 8.236 4.939 40.033 12.367 57.387 5.189 17.355-7.178 45.5-17.893 52.775-19.219 6.4-1.144 16.336-5.833 16.394-5.88a2.681 2.681 0 012.306 4.804c-.432.202-10.657 5.045-17.768 6.313-6.227 1.115-32.23 10.84-51.66 18.873-5.823 2.45-12.944 3.392-20.324 3.392z" fill="#CC9B85" fill-rule="nonzero"/><path d="M181.896 131.495l25.513 52.65s87.176-25.811 92.634 13.53c2.374 17.123-26.906 28.309-37.217 33.411 0 0-49.469 42.07 13.184 82.103l6.727-2.383s-18.258-19.22-5.641-35.305c12.617-16.086 53.12-.961 80.238-48.787 21.006-37.044-3.152-74.367-34.055-92.192-7.083-4.094-43.492-26.503-107.183-17.48-16.711 4.161-34.2 14.453-34.2 14.453z" fill="#2F4E9C" fill-rule="nonzero"/><path d="M181.896 131.495l18.825 55.042s87.176-25.82 92.634 13.52c2.374 17.115-23.62 20.046-41.243 23.841 0 0-60.54 6.573-35.132 89.54l59.03-.21s-18.258-19.22-5.64-35.296c12.616-16.077 53.12-.961 80.238-48.787 21.006-37.044-3.152-74.367-34.056-92.202-44.309-25.6-95.056-23.831-134.656-5.448z" fill="#3D64C9" fill-rule="nonzero"/><ellipse fill="#2F4E9C" fill-rule="nonzero" transform="rotate(-6.37 260.935 363.087)" cx="260.935" cy="363.087" rx="37.717" ry="33.21"/><ellipse fill="#3D64C9" fill-rule="nonzero" cx="255.686" cy="363.465" rx="37.717" ry="33.671"/><path d="M340.402 322.385c16.25-9.936 17.25-7.841 28.521-14.635 22.102-13.3 23.216-85.706 76.52-84.14 55.542 1.634 73.127 164.724-16.48 174.756-15.846 1.768-40.197 5.276-67.737-4.391-41.733-14.626-39.6-60.116-20.824-71.59z" fill="#83D4B9" fill-rule="nonzero"/><path d="M445.308 223.61c-51.89-1.403-54.254 67.352-74.819 83.035-3.2 8.264-5.006 13.645-5.006 13.645s59.06 15.221 70.033 18.354c10.974 3.133 21.227 7.178 27.867 3.728 20.218-10.58 20.218-100.475-18.075-118.762z" fill="#83D4B9" fill-rule="nonzero"/><path d="M445.308 223.61c-51.89-1.403-54.254 67.352-74.819 83.035-3.2 8.264-5.006 13.645-5.006 13.645s59.06 15.221 70.033 18.354c10.974 3.133 21.227 7.178 27.867 3.728 20.218-10.58 20.218-100.475-18.075-118.762z" fill="#007477" fill-rule="nonzero" opacity=".25"/><path d="M475.981 245.04c20.478 48.757 8.504 138.826-57.81 143.179-15.903 1.038-40.36 3.42-67.458-7.496a54.178 54.178 0 01-19.42-12.915c4.728 10.801 14.212 20.69 29.933 26.196 27.54 9.667 51.89 6.16 67.736 4.391 69.765-7.841 74.57-108.46 47.02-153.356z" fill="#83D4B9" fill-rule="nonzero"/><path d="M475.981 245.04c20.478 48.757 8.504 138.826-57.81 143.179-15.903 1.038-40.36 3.42-67.458-7.496a54.178 54.178 0 01-19.42-12.915c4.728 10.801 14.212 20.69 29.933 26.196 27.54 9.667 51.89 6.16 67.736 4.391 69.765-7.841 74.57-108.46 47.02-153.356z" fill="#007477" fill-rule="nonzero" opacity=".25"/><path d="M374.593 292.74a66.526 66.526 0 00-9.927 2.383c-1.23.423-4.939 2.354-4.516 3.075.423.72 2.835-1.23 3.844-1.518 1.287-.365 2.344-.702 2.546-.538.202.163-1.691.663-2.71 1.297-1.018.634-3.94 2.44-3.267 3.2.673.759 3.844-1.922 4.699-2.191 1.345-.48 2.787-1.268 3.277-1.076.49.192-1.922 1.018-2.835 1.672-.913.653-4.103 3.161-3.277 3.844.827.682 3.488-2.201 4.622-2.835 1.134-.634 5.353-2.21 5.44-1.73a1.768 1.768 0 01-.962 1.787c-.874.529-3.123 1.596-2.652 2.191.47.596 3.556-.826 4.747-1.595a8.504 8.504 0 003.046-3.526l5.766.115 1.067-5.256-8.908.701z" fill="#E2A36A" fill-rule="nonzero"/><path d="M444.491 323.134a29.52 29.52 0 01-4.132 9.437l-63.518-9.994s-2.546-11.147 2.316-15.567c5.785-5.276 47.346 4.2 65.334 16.124z" fill="#3D4359" fill-rule="nonzero"/><path d="M374.593 292.74a66.526 66.526 0 00-9.927 2.383c-1.23.423-4.939 2.354-4.516 3.075.423.72 2.835-1.23 3.844-1.518 1.287-.365 2.344-.702 2.546-.538.202.163-1.691.663-2.71 1.297-1.018.634-3.94 2.44-3.267 3.2.673.759 3.844-1.922 4.699-2.191 1.345-.48 2.787-1.268 3.277-1.076.49.192-1.922 1.018-2.835 1.672-.913.653-4.103 3.161-3.277 3.844.827.682 3.488-2.201 4.622-2.835 1.134-.634 5.353-2.21 5.44-1.73a1.768 1.768 0 01-.962 1.787c-.874.529-3.123 1.596-2.652 2.191.47.596 3.556-.826 4.747-1.595a8.504 8.504 0 003.046-3.526l5.766.115 1.067-5.256-8.908.701z" fill="#E2A36A" fill-rule="nonzero"/><path d="M444.491 323.134a29.52 29.52 0 01-4.132 9.437l-63.518-9.994s-2.546-11.147 2.316-15.567c5.785-5.276 47.346 4.2 65.334 16.124z" fill="#3D4359" fill-rule="nonzero"/><path d="M406.054 265.834c-7.88 2.316-20.18 8.235-40.139-10.503-5.91-10.57-3.065-19.91-3.469-22.265-5.765 5.285-3.92 16.393-4.266 14.702-.346-1.691-1.057-8.1-1.75-10.1-3.68 6.977.26 12.733-.556 11.743a21.602 21.602 0 01-2.355-3.19c.289 5.208 2.98 7.053 6.102 11.243.884 5.035 7.37 21.948 19.92 28.703 6.304 2.883 15.875 3.325 30.28 0 19.045-4.449 12.136-26.608-3.767-20.333z" fill="#FCB514" fill-rule="nonzero"/><path d="M423.908 263.902a11.041 11.041 0 001.009-5.41 5.708 5.708 0 00-3.479-4.583 6.38 6.38 0 00-4.228.115c-6.909 14.202-26.906 32.047-35.833 32.45a7.005 7.005 0 01-5.112-1.537 79.311 79.311 0 00-1.855-3.132c-.22 1.345-.375 2.882-.51 4.67 5.526 10.695 45.338-10.61 50.008-22.573z" fill="#E18026" fill-rule="nonzero" opacity=".22"/><path d="M428.953 345.63c7.687.903 10.868 7.495 17.864 5.823 22.39-5.333 16.758-35.708 15.72-49.651-2.325-31.067-8.926-32.019-8.379-34.594-3.084 1.922-9.302 2.306-13.088 2.258-7.62-.106-24.12-8.139-28.674-2.729-31.029 26.676-12.492 61.452-50.334 50.651-3.479-.96 37.909 31.778 51.554 30.039" fill="#F68E1E" fill-rule="nonzero"/><path d="M428.578 307.02c-.394-4.805.586-9.87-2.172-14.415-1.537-2.508-5.573-5.025-9.513-4.007a8.783 8.783 0 00-3.046 1.567c-7.601 5.64-8.966 14.318-3.267 20.804 2.825 3.22 0 5.045 4.266 7.563 3.911 2.306 20.843 7.533 26.138 10.407-6.746-6.823-11.772-13.703-12.406-21.92zM413.866 333.686h-.163a41.56 41.56 0 01-.279 2.162c.144-.73.298-1.442.442-2.162z" fill="#E38027" fill-rule="nonzero"/><path d="M436.564 274.011c-2.826 7.14-5.564 19.632-30.827 23.534-11.224-1.759-16.432-9.206-18.393-10.254.577 7.284 9.821 12.32 8.38 11.599-1.442-.72-6.583-3.844-8.447-4.526 3.017 6.727 9.523 7.13 8.331 7.169-1.236.081-2.478.049-3.709-.097 3.998 2.787 6.9 1.855 11.79 1.97 4.22 2.24 20.402 7.198 32.605 1.836 5.766-2.98 11.58-9.792 17.393-22.323 7.698-16.576-12.617-24.235-17.123-8.908z" fill="#FCB514" fill-rule="nonzero"/><path d="M354.672 280.18l6.89 37.89a2.537 2.537 0 002.518 2.076h53.015a2.537 2.537 0 002.518-2.998l-7.438-37.88a2.547 2.547 0 00-2.518-2.047H357.19a2.537 2.537 0 00-2.518 2.96z" fill="#BA4B12" fill-rule="nonzero"/><path d="M354.586 280.69l6.87 38.437a2.259 2.259 0 002.259 1.827h52.678a2.26 2.26 0 002.22-2.692l-7.409-38.437a2.268 2.268 0 00-2.22-1.836h-52.14a2.269 2.269 0 00-2.258 2.7z" fill="#E05A16" fill-rule="nonzero"/><path d="M379.993 293.566l.702 3.96A1.317 1.317 0 00382 298.61h6.102a1.307 1.307 0 001.288-1.566l-.759-3.96a1.317 1.317 0 00-1.297-1.066h-6.045a1.317 1.317 0 00-1.297 1.547z" fill="#BA4B12" fill-rule="nonzero"/><path d="M447.172 267.948c-2.104 5.91-9.686 7.226-15.75 1.922-2.19 2.066-13.914 9.686-17.604-4.344-3.315 1.163-7.745 3.277-12.492 1.768 3.2 2.364 8.802 3.44 12.002 1.47 3.652 13.579 15.932 5.363 18.123 3.297 6.064 5.323 12.877 3.594 14.981-2.316 8.87 4.343 14.876-3.902 14.655-4.027-2.345 2.23-6.823 5.699-13.915 2.23z" fill="#E18026" fill-rule="nonzero"/><path d="M414.731 267.477a7.687 7.687 0 004.488 6.582c4.324 2.038 10.041-1.585 12.232-3.651 6.064 5.314 13.646 3.296 15.76-2.614 8.86 4.344 13.991-1.778 15.51-3.373-.431-.287-.877-.55-1.336-.788-15.702-8.254-13.627-27.81-14.895-34.132-2.153-27.272-26.628-18.45-26.628-18.45-.96.701-10.983 4.074-13.107 17.056 3.969 23.236-1.384 26.34-8.033 38.005 2.95 2.057 12.81 3.335 16.009 1.365z" fill="#F68E1E" fill-rule="nonzero"/><path d="M417.316 242.887s5.497 14.471-4.468 22.88c.113 1.52.436 3.017.96 4.449.894 2.517 7.13-6.42 7.13-6.42s4.805-21.87-3.622-20.91z" fill="#E18026" fill-rule="nonzero"/><path d="M461.385 263.633c-13.406-7.043-14.088-21.813-14.79-33.19-1.393-23.332-19.65-23.246-26.733-19.392-2.729 1.307-9.878 3.843-12.492 12.434-.154 10.09 11.397 8.802 7.41 17.893 8.917 10.368 2.2 22.101-1.356 24.782.077 2.97 3.123 7.17 5.526 8.303 5.035 2.239 10.291-1.99 12.492-4.055 6.063 5.314 13.645 3.296 15.76-2.614 8.859 4.344 13.99-1.778 15.509-3.373-.428-.287-.87-.55-1.326-.788z" fill="#F8AA2A" fill-rule="nonzero"/><path d="M423.35 208.84c-1.844.28-2.094 1.452-3.488 2.21-2.056-.566-5.64-3.968-3.67-8.148 1.864-3.978 8.648-.548 9.07.432-3.007-5.861.164-20.314 13.223-14.558.794.365 1.54.826 2.22 1.374 14.414 11.349 10.417 21.958 10.157 27.09 1.5-.481 5.362-11.705 9.196-4.114 3.095 6.131-8.09 15.558-13.568 16.336-1.682-8.446-13.78-22.015-23.14-20.621z" fill="#D1683E" fill-rule="nonzero"/><path d="M417.412 201.518c1.605-.634 7.457 2.595 8.1 3.738a49.951 49.951 0 012.105 4.228c-2.105.256-4.15.874-6.044 1.826-1.999 1.163-5.958 3.277-5.17 5.689-2.306-.144-10.695-10.888 1.009-15.48z" fill="#D1683E" fill-rule="nonzero"/><path d="M424.734 209.484a14.5 14.5 0 00-4.804 1.567c-2.191-1.672-4.43-4.219-2.998-7.467 2.123-4.804 7.966-1.23 8.398-.25-2.22-5.929 1.509-19.67 14.578-13.914a10.35 10.35 0 012.21 1.374c14.414 11.349 9.523 22.332 9.263 27.464 1.5-.48 6.073-13.367 9.12-4.113 2.152 6.525-8.37 15.48-13.838 16.336-1.749-8.504-12.598-22.39-21.929-20.997z" fill="#C44349" fill-rule="nonzero"/><path d="M418.296 201.797c1.586-.663 7.457 2.594 8.1 3.748.76 1.354 13.78 4.19 14.569 13.453-14.943-11.416-23.418-3.316-24.264-1.922-2.316-.164-9.523-10.676 1.595-15.28z" fill="#C44349" fill-rule="nonzero"/><circle fill="#EF6A6D" fill-rule="nonzero" opacity=".33" cx="427.761" cy="246.817" r="6.89"/><path fill="#CE8A4D" fill-rule="nonzero" d="M415.221 247.384l-2.373 7.812 10.724-8.812z"/><path fill="#B56E33" fill-rule="nonzero" d="M415.221 247.384l-1.105 5.996 9.456-6.996z"/><ellipse fill="#F6BC67" fill-rule="nonzero" transform="rotate(-83.77 412.643 233.039)" cx="412.643" cy="233.039" rx="10.753" ry="7.832"/><ellipse fill="#F4E7D9" fill-rule="nonzero" transform="rotate(-83.77 412.314 233.803)" cx="412.314" cy="233.803" rx="9.475" ry="6.9"/><ellipse fill="#F6BC67" fill-rule="nonzero" transform="rotate(-83.77 425.655 235.863)" cx="425.655" cy="235.863" rx="10.753" ry="8.773"/><ellipse fill="#F4E7D9" fill-rule="nonzero" transform="rotate(-83.77 425.24 236.615)" cx="425.241" cy="236.615" rx="9.475" ry="7.726"/><ellipse fill="#481C19" fill-rule="nonzero" transform="rotate(-13.18 421.214 241.929)" cx="421.214" cy="241.929" rx="1.835" ry="2.912"/><ellipse fill="#481C19" fill-rule="nonzero" transform="rotate(-13.18 408.796 239.35)" cx="408.796" cy="239.35" rx="1.835" ry="2.912"/><path fill="#EDA864" fill-rule="nonzero" d="M412.848 255.196l9.292-2.2 1.432-6.612z"/><path d="M410.84 252.996l2.661-10.033 3.354-6.053s-1.403 12.146-6.016 16.086z" fill="#F9B76B" fill-rule="nonzero"/><path d="M416.855 236.91a76.606 76.606 0 01-6.016 16.086l12.733-6.612s-6.189-1.287-6.717-9.474z" fill="#F7C890" fill-rule="nonzero"/><path d="M403.738 234.411c1.662 1.028 8.043 1.624 13.184.49.413 2.585 17.835 4.296 18.027 4.123.192-.173 2.989-14.847-8.081-16.202-2.633-.327-5.949 1.557-7.736 3.517-.96-2.517-2.883-4.804-5.689-4.987-8.58-.47-10.09 11.627-9.705 13.06z" fill="#F68E1F" fill-rule="nonzero"/><path d="M403.738 234.411c1.662 1.028 8.033 1.23 13.174.087.414 2.585 18.018 4.699 18.258 4.535.24-.163 2.796-15.26-8.274-16.614-2.632-.327-5.948 1.566-7.687 3.517-.961-2.508-2.883-4.805-5.689-4.978-8.667-.48-10.166 12.021-9.782 13.453z" fill="#F8AA2A" fill-rule="nonzero"/><path d="M406.41 225.426c.855-.893 1.7-2.421 2.776-3.45-4.804 2.95-5.765 11.282-5.448 12.435 1.537.961 8.283 1.624 13.174.087-3.094.076-6.87-.068-7.255-.058-4.852-.49-4.977-5.333-3.248-9.014zM418.642 226.945a8.38 8.38 0 01-.96 2.239 15.144 15.144 0 00-.731 5.4c.115.365.557.72 1.249 1.057 3.065 1.518 9.379 2.816 16.95 3.392-5.947-4.084-18.968-.115-16.508-12.088z" fill="#F68E1F" fill-rule="nonzero" opacity=".54"/><path d="M419.084 225.82c-.96-2.479-2.883-4.727-5.65-4.881a7.582 7.582 0 00-6.948 3.68 8.36 8.36 0 014.805-2.71c4.795-.394 7.678 3.96 7.793 3.911zM426.858 222.419c-2.268-.28-5.045 1.085-6.919 2.719a11.416 11.416 0 019.687-1.172c6.726 3.267 5.477 15.086 5.506 15.067.173-.192 2.796-15.26-8.274-16.614zM419.123 225.936c-.443 1.518-.904 2.969-1.288 4.449a36.516 36.516 0 00-.913 4.516 10.1 10.1 0 01.211-4.699 12.742 12.742 0 011.99-4.266zM361.409 335.242c-6.035-3.66-8.303-12.242-5.92-17.172 2.383-4.93 8.14-12.098 13.607-12.165 4.593-.058 14.087 3.651 18.325 5.42 3.21 1.345 15.596 6.726 18.498 8.927 5.602 4.285 15.462 7.591 15.77 14.654-.962 0-1.875.058-2.816.058l-57.464.278z" fill="#F68E1F" fill-rule="nonzero"/><path d="M361.409 335.242c-6.035-3.66-8.303-12.242-5.92-17.172 2.383-4.93 8.14-12.098 13.607-12.165 4.593-.058 14.087 3.651 18.325 5.42 3.21 1.345 15.596 6.726 18.498 8.927 5.602 4.285 15.462 7.591 15.77 14.654-.962 0-1.875.058-2.816.058l-57.464.278z" fill="#4C1715" fill-rule="nonzero" opacity=".15"/><path d="M421.688 334.906c-.307-7.063-10.167-10.369-15.769-14.654-2.883-2.23-15.288-7.582-18.498-8.927-4.238-1.769-13.732-5.478-18.325-5.42-3.7.048-7.534 3.354-10.359 7.005 2.047-.788 2.883-3.402 5.449-3.402-.606 2.422-5.449 4.805-3.633 6.054 9.677-9.61 16.336-5.42 20.814-4.036-11.589 16.384 3.008 19.036-14.885 23.697l52.39-.26c.942 0 1.874-.038 2.816-.057z" fill="#4C1715" fill-rule="nonzero" opacity=".15"/><path d="M393.6 308.403a4.18 4.18 0 00-.96-.105l.96.105zM369.778 322.548c-.374-1.143-.75-1.797-2.777-2.988 1.47 1.605.875 5.093.51 7.236a9.888 9.888 0 00-1.548-4.757c-.064.463-.25.9-.538 1.268a16.394 16.394 0 01-4.737 4.104 7.044 7.044 0 002.94-6.131c-1.066-.346-5.39 1.47-6.303 2.114 1.249-1.576 3.536-3.777 5.535-4.036-.606-.452-3.68.817-4.805 1.672.615-1.105 5.766-4.267 7.87-3.2.192.125 3.075.596 3.853 4.718z" fill="#F68E1F" fill-rule="nonzero"/><path d="M381.905 331.802c.961.865 2.48 2.748 3.844 3.325l30.664-.163c-13.53-.27-19.796-5.113-20.785-3.777-7.323 3.796-16.615-1.893-13.723.615z" fill="#E18026" fill-rule="nonzero" opacity=".76"/><path d="M353.49 327.881s8.985 11.34 28.829.961c19.017 1.624 44.798 5.622 69.11 15.289.039.01-80.18 21.727-97.939-16.25z" fill="#83D4B9" fill-rule="nonzero"/><path d="M335.434 353.356c1.682 1.374 1.855-.452 3.594-.673 1.451-.182 1.153 1.682 4.498-.72.49-.26 15.461-12.704 17.883-15.635 5.237-.125 16.105-2.45 17.806-3.027 5.208 6.525 22.159-2.825 3.142-4.449-17.527 8.84-24.696.836-24.696.836.894 5.68-25.955 20.631-22.227 23.668z" fill="#007477" fill-rule="nonzero" opacity=".25"/><path d="M362.687 321.482c-5.766 8.648-12.57 21.188-21.823 25.945.096.75-.212 1.528-.125 2.277.002.382.142.751.394 1.038.49.423 1.249.096 1.797-.25 5.91-3.69 10.57-8.956 15.519-13.828 2.883-2.805 7.62-10.118 7.62-13.818-1.143-6.37-2.623-.144-3.382-1.364z" fill="#F68E1F" fill-rule="nonzero"/><path d="M361.418 320.674c-5.765 8.649-12.569 21.19-21.832 25.946.096.74-.212 1.528-.125 2.277.004.394.15.773.413 1.067.5.413 1.25.096 1.797-.25 5.91-3.7 10.945-8.648 15.932-13.453 2.883-2.796 6.42-9.312 7.688-13.107 1.278-2.797-1.163-5.535-3.873-2.48z" fill="#F8AA2A" fill-rule="nonzero"/><path d="M347.071 340.777c-2.46 2.48-5.256 3.902-8.043 5.824.183.73 0 1.547.173 2.277.06.374.25.715.538.96.548.356 1.73 1.923 2.23 1.51 1.922-1.576 2.21-1.663 3.719-2.768.538-1.422 1.777-6.006 1.383-7.803z" fill="#E18026" fill-rule="nonzero" opacity=".32"/><path d="M337.155 352.203c-2.095.778-4.661-6.794-7.16-10.119-.826-1.105-3.151-4.228-3.545-4.641-.394-.413-4.853-2.45-6.035-3.844.74-.202 5.15-1.095 7.582 1.057.586.51 3.315 1.999 4.209 4.709a13.54 13.54 0 00-.135-2.412c-.403-3.565-4.305-12.579-4.632-13.204-.595-1.143-1.326-1.575-.816-2.757.355.47 1.73 1.249 2.075 1.73 1.634 2.315 3.671 2.719 4.891 5.275.75 1.576 3.393 6.467 3.767 10.647.961-1.547-1.47-9.869-1.441-11.243a20.18 20.18 0 010-2.412 2.47 2.47 0 011.268-1.922c-.451.913 3.623 8.745 5.266 15.52.413 1.671.769 3.478.096 5.063a17.873 17.873 0 012-3.248c.255-.279.492-.574.71-.884.425-.667.661-1.438.683-2.229 1.23 2.883.586 6.62-.414 9.475-.692 2.008-1.604 4.555-4.382 5.064-.768.135-.96-1.038-1.633-.73-.673.307-1.576.817-2.354 1.105z" fill="#F8AA2A" fill-rule="nonzero"/><path d="M335.444 351.838c-1.807-1.298-3.623-5.458-6.121-8.783-.827-1.096-3.152-4.228-3.546-4.642-.394-.413-4.363-3.382-5.545-4.804a9.869 9.869 0 017.102 1.989c.576.51 3.305 1.999 4.199 4.708a13.597 13.597 0 00-.134-2.412c-.404-3.565-4.305-12.578-4.632-13.203a4.401 4.401 0 01-.144-3.728c.355.47.72.96 1.057 1.422 1.643 2.316 4.016 3.997 5.237 6.554.759 1.575 3.392 6.467 3.767 10.647.96-1.547-1.47-9.87-1.432-11.243a16.826 16.826 0 010-2.412c.115-.788.96-2.73 1.922-2.883-1.278 2.037 2.95 9.715 4.603 16.49.403 1.681.759 3.478.086 5.073a7.687 7.687 0 011.922-3.45 8.59 8.59 0 001.922-4.16c1.23 2.883.048 7.89-.961 10.743-.702 2.008-1.653 3.488-3.719 4.094-.75.211-1.778-.49-2.47-.173-.576-.212-1.537 1.643-3.113.173z" fill="#F68E1F" fill-rule="nonzero"/><path d="M332.926 345.813c.25.643.452 1.306.76 1.921a6.803 6.803 0 002.882 2.989c.311.184.66.296 1.019.327.605 0 1.192-.346 1.807-.298.615.048.96.327 1.383.211.238-.082.452-.22.625-.403a8.648 8.648 0 001.787-2.403 1.99 1.99 0 00.077-2.095c-.25.567-.615 1.22-1.23 1.24a1.326 1.326 0 01-1.057-.75 7.13 7.13 0 01-.605-3.401 27.502 27.502 0 00-.289-3.075c0-.279-.144-.615-.422-.663-.28-.048-.548.48-.548.865a3.911 3.911 0 01-.221 1.527 1.384 1.384 0 01-1.163.894 1.451 1.451 0 01-1.124-.634 6.044 6.044 0 01-.606-1.192 9.86 9.86 0 00-1.854-2.825c-.24-.26-.654-.519-.961-.269a.529.529 0 00-.154.288c-.432 1.461.423 2.96.692 4.469a.356.356 0 010 .298.384.384 0 01-.24.115c-1.422.192-2.057-1.922-3.44-1.74-.135.856.816 1.144 1.268 1.702.677.883 1.221 1.86 1.614 2.902z" fill="#E18026" fill-rule="nonzero" opacity=".76"/><path d="M363.234 320.732a4.737 4.737 0 011.72 1.307c.479.783.694 1.7.615 2.614.275-.319.443-.715.48-1.134a9.744 9.744 0 00.145-1.672 2.768 2.768 0 00-.567-1.922 2.422 2.422 0 00-2.44-.452c-.27.077-1.923.788-1.788 1.211.067.211 1.595-.077 1.835.048z" fill="#F68E1F" fill-rule="nonzero"/><path d="M362.197 319.992a.538.538 0 01.288.135h-.48c-.208.18-.404.372-.587.576l-1.066 1.528a5.016 5.016 0 012.536-.125 10.08 10.08 0 01-3.613 5.766 15.634 15.634 0 005.036-3.488c.349-.31.608-.708.75-1.153l.066.211c.048-.125.097-.25.135-.375 1.182-2.44-.692-4.9-3.065-3.075z" fill="#E18026" fill-rule="nonzero" opacity=".32"/><path d="M369.778 322.548c-.374-1.143-.75-1.797-2.777-2.988 1.47 1.605.875 5.093.51 7.236a9.888 9.888 0 00-1.548-4.757c-.064.463-.25.9-.538 1.268a16.394 16.394 0 01-4.737 4.104 7.044 7.044 0 002.94-6.131c-1.066-.346-5.39 1.47-6.303 2.114 1.249-1.576 3.536-3.777 5.535-4.036-.606-.452-3.68.817-4.805 1.672.615-1.105 5.766-4.267 7.87-3.2.192.125 3.075.596 3.853 4.718z" fill="#E18026" fill-rule="nonzero" opacity=".76"/><path d="M388.055 319.031a.567.567 0 010 .327 3.719 3.719 0 00-.26-.413 6.794 6.794 0 00-.797-.212l-1.864-.067a4.94 4.94 0 011.422 2.105c-2.219.759-4.633.728-6.832-.087a15.875 15.875 0 005.593 2.498c.447.12.917.12 1.364 0l-.134.173.384-.076c2.748-.28 3.873-3.152 1.124-4.248z" fill="#E18026" fill-rule="nonzero" opacity=".32"/><path d="M385.73 335.127c-6.794 1.922-8.37-12.127-5.977-17.057 2.393-4.93 8.13-12.098 13.607-12.165a49.969 49.969 0 0121.083 3.969c3.228 1.297 8.6 2.719 22.726 13.03 2.537 4.209 3.623 5.765 8.773 12.002-.96 0-2.7 5.871-3.632 5.871 0 0-34.873-11.82-56.58-5.65z" fill="#F68E1E" fill-rule="nonzero"/><path d="M393.6 307.144c9.206 1.086 23.524 1.826 43.569 15.76-3.315-4.238-25.81-17.826-43.81-17-5.14.068-10.512 6.391-13.126 11.234 3.777-4.507 7.87-10.522 13.367-9.994z" fill="#E38027" fill-rule="nonzero"/><path d="M386.998 320.232c-10.378-.47-24.628.231-33.479-5.227-.595.47-1.422.605-2.018 1.076a1.614 1.614 0 00-.701.903c-.096.644.567 1.115 1.143 1.413 6.227 3.133 13.127 4.363 19.873 6.102 3.843.96 12.607 1.268 15.778-.644 4.843-4.295-1.25-2.345-.596-3.623z" fill="#F68E1F" fill-rule="nonzero"/><path d="M387.027 318.724c-10.388-.471-24.638.23-33.488-5.228-.587.471-1.423.615-2.009 1.077a1.576 1.576 0 00-.701.903c-.106.644.567 1.114 1.143 1.412 6.227 3.143 13.04 4.901 19.796 6.63 3.843.962 11.28.673 15.192-.21 3.017-.337 4.084-3.844.067-4.584z" fill="#F8AA2A" fill-rule="nonzero"/><path d="M362.398 316.879c-3.392-.817-6.063-2.48-9.138-3.844-.529.538-1.336.788-1.864 1.326-.302.24-.506.582-.577.961 0 .644-.74 2.47-.134 2.681 2.344.826 2.575 1.028 4.295 1.749 1.528-.288 6.092-1.605 7.418-2.873z" fill="#E18026" fill-rule="nonzero" opacity=".32"/><path d="M347.485 314.313c-1.74-1.384 3.41-7.505 4.958-11.358.51-1.278 1.98-4.891 2.124-5.449.144-.557-.423-5.41.163-7.15.557.53 3.604 3.845 3.027 7.035-.135.76 0 3.844-1.845 6.035.703-.39 1.369-.844 1.99-1.355 2.882-2.2 8.532-10.205 8.897-10.801.663-1.105.654-1.922 1.922-2.134-.211.548-.173 2.134-.403 2.672-1.134 2.604-.423 4.545-1.98 6.919-.96 1.46-3.767 6.255-7.15 8.735 1.836.048 7.688-6.371 8.87-7.054.664-.452 1.358-.86 2.076-1.22a2.46 2.46 0 012.316.086c-1.019.087-5.602 7.63-10.57 12.55-1.23 1.211-2.585 2.45-4.296 2.7 1.277-.14 2.566-.14 3.844 0 .368.072.74.12 1.115.145a4.276 4.276 0 002.2-.615c-1.816 2.536-5.352 3.93-8.312 4.554-2.085.442-4.728.961-6.602-1.133-.519-.577.394-1.336-.23-1.769-.625-.432-1.461-.874-2.114-1.393z" fill="#F8AA2A" fill-rule="nonzero"/><path d="M346.898 312.66c.173-2.22 2.797-5.92 4.344-9.782.51-1.278 1.98-4.882 2.124-5.439.144-.557.643-5.477 1.22-7.217a9.86 9.86 0 011.97 7.102c-.135.759 0 3.843-1.845 6.034.7-.393 1.366-.847 1.989-1.355 2.883-2.2 8.533-10.205 8.898-10.81a4.42 4.42 0 013.114-2.057 39.392 39.392 0 01-.673 1.644c-1.124 2.594-1.336 5.506-2.883 7.88-.96 1.45-3.767 6.255-7.15 8.734 1.836 0 7.688-6.37 8.87-7.053.668-.453 1.364-.86 2.086-1.22.74-.308 2.815-.625 3.488.153-2.412 0-6.784 7.553-11.724 12.493-1.22 1.22-2.585 2.46-4.285 2.71a7.688 7.688 0 013.93-.154 8.725 8.725 0 004.564-.49c-1.806 2.536-6.726 4.122-9.676 4.756-2.076.442-3.844.394-5.42-1.066-.577-.52-.51-1.769-1.134-2.201-.144-.682-2.22-.548-1.807-2.662z" fill="#F68E1F" fill-rule="nonzero"/><path d="M350.742 307.385c-.413.557-.874 1.066-1.249 1.653a6.727 6.727 0 00-1.067 4.007c.002.36.084.714.24 1.037.298.539.913.846 1.192 1.394.279.548.202.96.538 1.287.194.165.425.28.673.337.97.26 1.977.354 2.979.278.73-.067 1.585-.326 1.826-1.018-.606.086-1.365.106-1.692-.413a1.316 1.316 0 01.096-1.298 7.12 7.12 0 012.585-2.267 26.041 26.041 0 002.49-1.845c.21-.183.45-.442.345-.702-.106-.26-.692-.22-1.028 0-.427.29-.907.493-1.413.596a1.384 1.384 0 01-1.374-.529 1.441 1.441 0 010-1.287c.197-.405.435-.788.711-1.144a9.936 9.936 0 001.451-3.036c.096-.346.106-.836-.24-.961a.634.634 0 00-.327 0c-1.48.384-2.315 1.922-3.459 2.882a.375.375 0 01-.27.125.288.288 0 01-.22-.144c-.903-1.114.615-2.777-.308-3.843-.797.326-.547 1.297-.788 1.921a11.531 11.531 0 01-1.69 2.97z" fill="#E18026" fill-rule="nonzero" opacity=".76"/><path d="M387.93 320.338a4.497 4.497 0 01-.23 2.143 4.228 4.228 0 01-1.922 1.922c.412.076.837.015 1.21-.173a9.965 9.965 0 001.51-.74 2.767 2.767 0 001.354-1.49 2.45 2.45 0 00-.874-2.325c-.212-.183-1.663-1.21-1.97-.903-.135.115.903 1.268.922 1.566z" fill="#F68E1F" fill-rule="nonzero"/><path d="M389.766 326.853c.778-.96 1.143-1.576 1.115-3.93-.615 2.095-3.902 3.383-5.93 4.19a9.878 9.878 0 003.268-3.786 2.604 2.604 0 01-1.355.201 16.49 16.49 0 01-5.968-1.921 7.015 7.015 0 006.727-.663c-.26-1.096-4.046-3.844-5.074-4.296 1.999.25 5.055 1.067 6.314 2.643.076-.75-2.595-2.73-3.93-3.258 1.268-.048 6.63 2.71 6.822 5.074.058.26 1.134 2.96-1.99 5.746z" fill="#E18026" fill-rule="nonzero" opacity=".76"/><path d="M409.6 371.249c-51.891-1.394 14.942-35.738 25.945-32.605 11.003 3.133 21.227 7.178 27.867 3.728 20.19-10.58-15.529 47.173-53.812 28.877z" fill="#83D4B9" fill-rule="nonzero"/><path d="M373.9 339.912a61.183 61.183 0 015.718-2.882 74.155 74.155 0 015.958-2.412h-.067c4.708-1.778 9.61-2.066 14.414-2.182 4.841-.04 9.678.28 14.472.961 1.2.135 2.392.327 3.574.538l3.575.606c2.354.5 4.718.96 7.063 1.528 2.345.567 4.68 1.172 6.996 1.806l6.928 2.057h.058a51.939 51.939 0 005.861 1.845c1.991.525 4.018.904 6.064 1.134 2.042.259 4.108.259 6.15 0a12.165 12.165 0 005.698-2.23 11.531 11.531 0 01-5.602 2.777c-2.08.422-4.204.577-6.323.462a44.76 44.76 0 01-6.294-.817 51.689 51.689 0 01-6.131-1.663h.048l-6.928-1.825-6.967-1.663c-2.326-.51-4.67-.96-7.005-1.45a83.437 83.437 0 00-7.044-1.173 111.843 111.843 0 00-14.203-1.25 64.892 64.892 0 00-7.101.173c-2.333.154-4.64.57-6.88 1.24h-.058a92.068 92.068 0 00-6.054 1.922c-1.999.711-3.959 1.653-5.92 2.498z" fill="#B2EDD5" fill-rule="nonzero"/><path d="M292.126 156.911v.068c-1.058 3.257-4.806 1.672-5.94 1.24a15.932 15.932 0 01-6.073-3.844c-1.105-1.163-.634-1.596-.519-2.95.179-.876.256-1.77.231-2.662-.096-.538-2.546-13.972-6.727-15.952-3.45-1.633-20.977-9.725-20.977-9.725 0 .75-4.353-.874-4.4.173-.356 8.649 1.921 28.55 1.585 30.943-.004.107-.02.213-.048.317a4.805 4.805 0 001.97 5.006c2.517 1.97 6.457 4.882 5.91 6.67-.04.129-.091.254-.154.374v.077c-1.922 3.248-5.564.624-6.727-.125a17.374 17.374 0 01-5.573-5.583c-.913-1.509-.308-1.864.163-3.296.406-.899.709-1.84.903-2.806 0-.596-.413-13.155-4.41-16.336-3.44-2.69-23.697-4.593-37.218-11.858-6.726-3.623-9.782-7.87-10.954-11.733 12.357-3.229 32.46-5.766 44.818-5.535.624.346 1.249.701 1.845 1.067 0-.356.105-.692.163-1.019 13.953.442 20.66.288 34.306 5.497a24.312 24.312 0 014.64 6.534c1.654 3.46 3.595 23.235 3.845 25.993v.298a4.305 4.305 0 002.738 4.026c2.624 1.23 6.727 3.018 6.573 4.7.023.146.032.294.03.441z" fill="#2F4E9C" fill-rule="nonzero"/><path d="M182.444 58.31s-25.946-7.832 1.47-8.803c0 0-23.937-15.653 1.922-5.371 0 0-21.987-17.605 4.89-6.842 0 0-21.687-22.496 4.892-6.352 0 0-15.144-20.535 4.882-5.862 0 0-6.833-15.154 3.43-2.44 0 0-12.694-32.75 5.372-2.441 0 0-5.362-21.506 5.381-1.922 0 0-2.431-23.456 3.911-1.922 0 0-4.382-27.367 5.862-1.922 0 0-1.442-31.278 6.361-1.46 0 0 .961-20.036 6.842 0 0 0 3.43-22.477 3.901.49 0 0 13.703-17.585 8.803 1.922 0 0 12.713-7.323-.5 9.772 0 0-26.387-8.321-40.08 10.734-13.694 19.055-15.068 38.005-9.812 63.528 2.44 11.829 5.41 18.046 7.822 21.323l-1.23.701-.202.077c-2.114.779-4.16 1.682-6.178 2.652l.749-.807s-21.016 7.813-2.883-4.4c0 0-31.97 9.762-3.91-5.373 0 0-31.77-1.98-3.422-8.312 0 0-40.56 0-2.43-7.822 0 0-18.086-3.92-1.471-5.381 0 0-34.69-5.88-1.46-8.302 0 0-30.75-11.263-1.461-9.783 0 0-29.319-11.252-.48-7.332 0-.048-33.72-8.86-.971-8.35z" fill="#2D355C" fill-rule="nonzero"/><path d="M215.586 116.985c-1.268 4.622-11.694 12.492-13.962 10.253-1.038-1.048 1.316-2.98 4.41-11.532 0 0-23.802 13.252-2.498-3.747 0 0-31.941 7.216-3.325-4.584 0 0-27.06-1.681-2.882-7.072 0 0-34.546 0-2.076-6.67 0 0-15.375-3.334-1.25-4.573 0 0-29.548-5.016-1.239-7.082 0 0-26.224-9.61-1.25-8.322 0 0-24.984-9.61-.412-6.246 0 0-28.713-7.505-.827-7.073 0 0-22.053-6.726 1.25-7.495 0 0-20.382-13.328 1.671-4.574 0 0-18.719-15 4.161-5.823 0 0-18.46-19.161 4.17-5.41 0 0-12.895-17.49 4.162-4.997 0 0-5.814-12.906 2.882-2.076 0 0-10.81-27.867 4.575-2.076 0 0-4.565-18.325 4.583-1.662 0 0-2.066-19.988 3.335-1.672 0 0-3.738-23.303 4.987-1.662 0 0-1.23-26.638 5.42-1.24 0 0 .836-17.066 5.823 0 0 0 2.883-19.142 3.334.423 0 0 11.657-14.981 7.486 1.662 0 0 13.847-8.504-2.498 8.12 0 0-20.391-6.88-32.057 9.35-11.666 16.23-21.487 36.208-8.36 54.1 9.417 12.772 11.973 16.02 10.387 21.68z" fill="#3A436B" fill-rule="nonzero"/><path d="M189.555 100.524c.067.96 3.632 1.441 7.966 1.143 4.334-.298 7.793-1.307 7.687-2.239-.106-.932-3.642-1.441-7.976-1.143-4.333.298-7.754 1.297-7.677 2.239zM195.07 103.781c.414.836 3.642 6.016 7.534 4.084 3.892-1.931 6.727-4.17 6.285-5.006-.442-.836-3.921 0-7.803 1.922-3.882 1.921-6.487-1.855-6.016-1zM203.844 112.535c.672.663 3.69-1.306 6.726-4.391 3.037-3.085 4.738-.048 4.075-.711-.663-.663-3.421-4.747-6.487-1.663-3.065 3.085-4.977 6.112-4.314 6.765zM187.114 85.946c.057.961 3.622 1.48 7.956 1.22 4.334-.259 7.803-1.23 7.736-2.161-.067-.933-3.623-1.48-7.957-1.22-4.334.259-7.803 1.23-7.735 2.161zM184.99 58.925c-.192.96 3.094 2.383 7.351 3.286s7.851.894 8.043 0c.192-.894-3.104-2.393-7.35-3.296-4.248-.903-7.861-.903-8.044.01zM191.4 42.964c-.183.912 3.103 2.383 7.36 3.286s7.851.894 8.043 0c.193-.894-3.103-2.393-7.36-3.296s-7.851-.913-8.043.01zM202.489 27.973c-.769.538.653 3.844 3.17 7.4 2.519 3.555 5.17 5.976 5.93 5.438.759-.538-.654-3.844-3.171-7.409-2.518-3.565-5.17-5.977-5.93-5.43zM217.335 22.957c-.701.182-.586 2.95.24 6.198.827 3.248 2.076 5.765 2.768 5.544.692-.22.586-2.95-.25-6.198s-2.066-5.727-2.758-5.544zM231.692 17.431c-.721 0-1.365 2.7-1.432 6.045-.067 3.344.451 6.082 1.172 6.092.72.01 1.355-2.69 1.432-6.044.077-3.354-.461-6.083-1.172-6.093zM244.424 20.631c-.605-.374-2.537 1.624-4.305 4.478-1.768 2.854-2.71 5.458-2.095 5.833.615.375 2.537-1.624 4.305-4.468 1.768-2.845 2.71-5.468 2.095-5.843z" fill="#575F81" fill-rule="nonzero"/><path d="M216.46 109.49c-1.037 1.22-11.53 11.434-6.284-1.212 0 0-20.064 11.176-2.104-3.161 0 0-26.906 6.092-2.806-3.844 0 0-22.813-1.422-2.45-5.967 0 0-29.127 0-1.759-5.622 0 0-12.982-2.815-1.047-3.843 0 0-24.908-4.229-1.048-5.968 0 0-22.101-8.091-1.047-7.024 0 0-21.054-8.082-.346-5.257 0 0-24.216-6.332-.702-5.967 0 0-18.594-5.631 1.057-6.323 0 0-17.19-11.233 1.403-3.844 0 0-15.778-12.646 3.517-4.91 0 0-15.567-16.154 3.508-4.565 0 0-10.868-14.74 3.507-4.209 0 0-4.9-10.877 2.46-1.748 0 0-9.11-23.515 3.844-1.75 0 0-3.844-15.442 3.844-1.402 0 0-1.75-16.846 2.806-1.403 0 0-3.143-19.651 4.208-1.403 0 0-1.037-22.457 4.565-1.048 0 0 .711-14.414 4.91 0 0 0 2.47-16.143 2.806.356 0 0 9.84-12.627 6.323 1.403 0 0 11.666-7.169-2.114 6.842 0 0-17.191-5.766-27.021 7.88-2.422 3.372-4.959 7.072-7.179 10.916-6.822 11.762-10.752 24.85.221 33.71 12.752 10.224 10.1 15.576 6.929 19.362z" fill="#474F76" fill-rule="nonzero"/><path d="M218.133 88.474s3.036-1.845 0-6.842c0 0 3.469.864 1.086-2.826 0 0 4.939.865 2.364-5.65 0 0 6.111 1.307 1.98-4.122 0 0 3.699 3.036 4.131-2.604 0 0 4.805.22 1.528-4.805 0 0 7.812-.644 4.132-7.38 0 0 4.987 0 1.086-5.43 0 0 7.6 3.48 1.518-2.825 0 0 4.565-.432 2.835-5.64 0 0 2.816 3.69 3.911-1.519 0 0 9.484-14.221-.375-6.495 0 0 5.305-12.377-4.4-.24 0 0-1.087-9.341-4.354.432 0 0-6.938-9.13-4.997 1.518 0 0-8.024-9.129-4.343 2.383 0 0-13.02-10.215-5.43 2.383 0 0-10.426-6.524-3.046 2.825 0 0-10.637-6.303-3.257 3.47 0 0-13.03-11.762-2.614 3.459 0 0-16.932-4.555-3.037 4.141 0 0-14.77-5.438-1.921 4.805 0 0-8.649 0-2.172 4.565 0 0-17.384 1.73-1.307 4.122 0 0-19.113-.442-.653 4.997 0 0-10.648-.875-.875 4.343 0 0-12.819 1.298 0 4.132 0 0-10.57 2.758 2.297 3.844 0 0-12.08 8.495 3.123 5.247 0 0-11.935 6.957 2.171 2.181 0 0-8.081 6.006 1.615 2.028 0 0-4.007 11.646 3.382 1.653 0 0-.816 5.928.327 6.198 2.575.615 2.172-7.438 2.172-7.438s7.85-1.413 7.687-3.527c-.057-1.162-4.564-1.383-4.564-1.383z" fill="#575F81" fill-rule="nonzero"/><path d="M200.75 74.617c-.106.75 2.152 1.691 5.044 2.095 2.893.403 5.324.115 5.43-.635.105-.75-2.162-1.69-5.055-2.094-2.892-.404-5.333-.116-5.42.634zM200.144 55.206c-.173.567 2.326 1.835 5.583 2.835 3.258.999 6.044 1.355 6.217.788.173-.567-2.325-1.845-5.583-2.883-3.257-1.038-6.044-1.307-6.217-.74zM199.25 68.006c-.182.73 1.922 1.921 4.805 2.642 2.883.72 5.266.72 5.458 0 .192-.72-1.922-1.922-4.804-2.642-2.883-.721-5.266-.74-5.459 0zM207.726 67.198c-.183.73 1.922 1.922 4.805 2.643 2.882.72 5.265.72 5.448 0 .183-.72-1.922-1.922-4.805-2.643-2.882-.72-5.266-.74-5.448 0zM198.75 64.21c0 .759 2.941 1.172 6.449.96 3.507-.21 6.303-1.056 6.246-1.806-.058-.75-2.94-1.172-6.448-.96-3.508.21-6.304 1.018-6.246 1.806z" fill="#686D83" fill-rule="nonzero"/><path d="M202.22 72.503c.105.47 2.143.384 4.535-.192 2.393-.577 4.238-1.423 4.123-1.922-.116-.5-2.143-.385-4.536.192-2.393.576-4.238 1.49-4.122 1.922zM203.892 59.578c-.279.519 1.268 1.922 3.44 3.017 2.172 1.096 4.16 1.663 4.43 1.154.269-.51-1.269-1.874-3.44-3.027-2.172-1.153-4.161-1.653-4.43-1.144zM207.687 54.13c-.422.394.298 1.854 1.615 3.267 1.316 1.412 2.729 2.22 3.152 1.826.422-.394-.308-1.865-1.615-3.268l-.202-.22c-1.258-1.27-2.546-1.98-2.95-1.605zM230.154 42.887c-.394.365.173 1.614 1.259 2.767 1.086 1.153 2.306 1.797 2.7 1.422.394-.374-.163-1.614-1.259-2.777l-.163-.173c-1.047-1.047-2.162-1.595-2.537-1.24zM212.78 72.272c-.422.394.298 1.855 1.615 3.267 1.316 1.413 2.729 2.22 3.152 1.816.422-.403-.298-1.854-1.615-3.257l-.202-.212c-1.258-1.278-2.546-1.998-2.95-1.614zM229.731 34.488c-.576 0-1.182 1.46-1.355 3.373-.173 1.912.154 3.517.73 3.565.577.048 1.192-1.46 1.365-3.373.173-1.912-.154-3.517-.74-3.565zM226.57 56.426c-.577-.057-1.182 1.46-1.355 3.373-.173 1.912.154 3.517.73 3.565.577.048 1.192-1.46 1.365-3.373.173-1.912-.164-3.517-.74-3.565zM237.928 35.555c-.24-.26-1.585.586-3.017 1.922-1.432 1.335-2.393 2.575-2.162 2.882.23.308 1.585-.586 3.017-1.922 1.432-1.335 2.393-2.584 2.162-2.882zM219.92 37.477c-.432.403.298 1.864 1.615 3.267 1.316 1.403 2.719 2.22 3.142 1.826.423-.394-.298-1.855-1.615-3.268-1.316-1.412-2.719-2.267-3.142-1.825z" fill="#474F76" fill-rule="nonzero"/><path d="M242.04 37.37c-.393-.422-1.854.29-3.266 1.606-1.413 1.316-2.23 2.72-1.836 3.142.394.423 1.865-.298 3.268-1.605 1.403-1.307 2.239-2.72 1.835-3.142z" fill="#686D83" fill-rule="nonzero"/><path d="M208.206 86.033c.116.47 1.47.547 3.018.173 1.547-.375 2.729-1.057 2.623-1.528-.106-.471-1.47-.548-3.027-.173-1.557.375-2.729 1.018-2.614 1.528zM209.629 52.976c.115.471 1.47.548 3.026.173 1.557-.374 2.73-1.047 2.614-1.518-.115-.47-1.46-.557-3.017-.182-1.557.374-2.768 1.057-2.623 1.527zM214.424 55.09c-.135.471 1.009 1.202 2.546 1.644 1.538.442 2.883.432 3.037 0 .153-.433-.961-1.201-2.547-1.643-1.585-.442-2.902-.462-3.036 0zM216.566 70.033c.116.471 1.461.548 3.018.173 1.557-.375 2.729-1.057 2.623-1.528-.106-.47-1.47-.548-3.027-.173-1.556.375-2.729 1.057-2.614 1.528zM237.217 38.649c-.336 0-.577.96-.538 2.095.038 1.134.346 2.056.692 2.047.346-.01.576-.961.538-2.095-.039-1.134-.346-2.057-.692-2.047zM240.955 33.143c-.307-.135-.96.615-1.403 1.662-.442 1.048-.586 2.018-.269 2.153.317.134.961-.606 1.403-1.663.442-1.057.577-2.018.27-2.152zM213.491 46.048c-.201.452.836 1.326 2.307 1.922 1.47.596 2.815.788 3.007.346.193-.442-.836-1.326-2.306-1.922-1.47-.596-2.815-.788-3.008-.346z" fill="#474F76" fill-rule="nonzero"/><path d="M218.037 41.32c-.471.087-.596 1.663-.279 3.537.317 1.873.961 3.334 1.451 3.248.49-.087.605-1.663.279-3.537-.327-1.874-.97-3.334-1.451-3.248zM208.889 65.43c-.298.385.682 1.634 2.171 2.806 1.49 1.173 2.96 1.816 3.248 1.432.289-.384-.672-1.634-2.171-2.806-1.5-1.172-2.95-1.807-3.248-1.432zM222.486 45c-.452.164-.288 1.74.355 3.527.644 1.788 1.548 3.095 2 2.883.45-.211.287-1.74-.366-3.517-.653-1.778-1.537-3.056-1.99-2.892zM205.487 79.566c.106.47 1.46.557 3.017.182 1.557-.375 2.73-1.057 2.614-1.528-.115-.47-1.46-.557-3.017-.182-1.557.374-2.73 1.057-2.614 1.528z" fill="#474F76" fill-rule="nonzero"/><path d="M205.583 82.573c-.106.76 1.835 1.644 4.334 2 2.498.355 4.622 0 4.728-.731.105-.73-1.845-1.643-4.344-1.999-2.498-.356-4.66-.02-4.718.73zM219.401 55.12c.125.74 2.249.96 4.747.566 2.499-.394 4.411-1.393 4.286-2.143-.125-.75-2.258-.96-4.747-.567-2.489.394-4.41 1.394-4.286 2.143zM212.953 60.885c-.192.73 1.634 1.845 4.075 2.489 2.44.644 4.593.567 4.804-.164.212-.73-1.633-1.845-4.074-2.488-2.44-.644-4.612-.567-4.805.163zM224.994 44.203c-.423.433.73 2.2 2.556 3.95 1.826 1.748 3.661 2.777 4.036 2.325.375-.452-.73-2.21-2.556-3.959s-3.623-2.806-4.036-2.316zM209.552 45.664c-.548.48.49 2.546 2.325 4.603 1.835 2.056 3.777 3.324 4.324 2.834.548-.49-.49-2.556-2.325-4.612-1.836-2.056-3.777-3.325-4.324-2.825zM234.709 33.748c-.529-.144-1.413 1.48-1.97 3.623-.557 2.143-.596 4.007-.067 4.142.528.134 1.412-1.48 1.97-3.633.557-2.152.596-3.997.067-4.132zM212.511 40.936c-.547.49.49 2.546 2.335 4.603 1.845 2.056 3.767 3.325 4.325 2.883.557-.442-.5-2.556-2.335-4.603-1.836-2.047-3.767-3.373-4.325-2.883zM222.938 34.526c-.548.481.5 2.547 2.335 4.603 1.835 2.057 3.766 3.325 4.324 2.883.557-.442-.49-2.556-2.335-4.612-1.845-2.057-3.729-3.364-4.325-2.874zM214.75 39.398c-.173.567 2.326 1.836 5.583 2.835 3.258 1 6.045 1.355 6.218.788.173-.567-2.326-1.845-5.583-2.883-3.258-1.037-6.045-1.316-6.218-.74z" fill="#686D83" fill-rule="nonzero"/><path d="M212.002 80.978c.115.471 1.46.558 3.017.183 1.557-.375 2.73-1.057 2.614-1.528-.115-.471-1.46-.548-3.017-.183-1.557.365-2.73 1.057-2.614 1.528zM219.094 60.866c-.423.403.298 1.864 1.614 3.267 1.317 1.403 2.73 2.22 3.152 1.826.423-.394-.298-1.855-1.614-3.267l-.202-.212c-1.269-1.268-2.556-1.94-2.95-1.614zM215.029 59.934c-.47.077-.596 1.662-.279 3.536.317 1.874.961 3.325 1.451 3.248.49-.077.596-1.663.279-3.536-.317-1.874-.97-3.325-1.451-3.248zM219.497 50.468c-.422.394.308 1.855 1.624 3.258 1.317 1.403 2.72 2.23 3.143 1.826.422-.404-.298-1.855-1.615-3.258-1.316-1.403-2.72-2.23-3.152-1.826zM226.839 54.062c-.135.462 1.009 1.192 2.546 1.644 1.538.451 2.883.422 3.037 0 .154-.423-1.009-1.202-2.547-1.644-1.537-.442-2.902-.47-3.036 0zM228.396 45.28c-.471.076-.596 1.662-.279 3.536.317 1.873.96 3.324 1.451 3.248.49-.077.605-1.663.279-3.537-.327-1.873-.97-3.363-1.451-3.248z" fill="#474F76" fill-rule="nonzero"/><path d="M280.882 90.674c2.498 6.458 5.228 17.009 6.544 19.546 3.344 6.428 14.731 13.126 14.818 14.539.211 2.335-8.168-3.671-14.414-4.507-3.373-.462-5.362-4.334-6.727-7.457-1.047-2.412-9.398-13.155-12.742-17.778-6.64-9.157-7.61-32.594-7.322-36.515.134-1.787.317-12.223 3.497-8.937 6.006 12.329 15.154 38.034 16.346 41.11z" fill="#F66318" fill-rule="nonzero"/><path d="M270.1 97.42c-.74-1.269-1.374-2.297-1.854-2.96-6.621-9.148-7.448-32.047-7.15-35.949.125-1.777.308-12.223 3.498-8.936.827 16.25 12.156 37.515 5.506 47.845z" fill="#E8580E" fill-rule="nonzero"/><path d="M277.71 131.59c3.45 2.105 6.045 14.636 6.084 15.116.163 2.393 2.738-.576 2.738-.576 0-.961.24-20.007-.96-23.341-6.266-17.826-32.423-23.957-33.403-22.313 0 0-17.008 13.549-2.075 19.045 10.685 3.94 24.59 10.206 27.617 12.07z" fill="#F66318" fill-rule="nonzero"/><path d="M250.065 119.521s.96-15.317 12.953-16.845c.836-.106 6.727 3.162 6.727 3.162s-13.636 13.27-4.805 19.718l-14.875-6.035z" fill="#E8580E" fill-rule="nonzero"/><path d="M283.477 151.636a13.934 13.934 0 004.939 3.911c.96.48 4.084 2.22 5.304-.529.346-.778-9.08-7.37-10.426-6.005-.25 1.172-.702 1.508.183 2.623z" fill="#3F122A" fill-rule="nonzero"/><path d="M283.477 150.982a16.019 16.019 0 004.939 4.056c3.844 2.171 5.208.663 5.4-.404.27-1.46-3.123-3.402-5.295-4.728a3.757 3.757 0 01-2.017-3.776c.115-1.49-1.403-.788-2.74.576.04 1.278-1.162 3.2-.287 4.276z" fill="#5E1C3D" fill-rule="nonzero"/><path d="M246 30.567l-6.486-2.7 2.066-10.57a5.545 5.545 0 017.303-2.979 5.545 5.545 0 012.979 7.255L246 30.567z" fill="#F66318" fill-rule="nonzero"/><path d="M203.517 84.697c-1.643-4.68 1.422-13.847 1.413-17.105-3.22-16.614 7.581-29.98 8.83-33.114 1.865-4.699 10.158-13.453 19.22-14.51 9.06-1.057 19.016.606 22.159 6.727 3.142 6.121 10.57 17.93 9.417 22.86-5.257 12.666 15.778 43.243-1.096 60.02-7.985 7.313-10.926 10.388-18.527 10.792-6.793.615-37.14 4.862-38.62 3.104-11.608-13.78 2.585-26.042-2.796-38.774z" fill="#F66318" fill-rule="nonzero"/><path d="M261.644 61.615c-3.411-.788-8.716 2.739-12.185 3.296-3.988.635-9.253 1.029-13.299-.605-8.053 5.208-13.27 11.3-15.471 21.14-.961 4.546-1.509 9.917 0 14.415 1.662 4.804 6.39 8.648 10.503 11.32 3.613 2.383 7.313 4.026 11.32 4.266 4.18-5.88 12.06-4.545 18.258-10.263 11.473-11.406 4.756-29.414 1.604-43.31a4.709 4.709 0 00-.73-.259z" fill="url(#a)" fill-rule="nonzero" opacity=".39"/><rect fill="#E8580E" fill-rule="nonzero" transform="rotate(54.1 228.806 100.38)" x="222.18" y="89.324" width="13.251" height="22.111" rx=".769"/><path d="M249.969 126.258s-5.68-13.348-29.415-17.297l14.54 15.279 14.875 2.018z" fill="#E8580E" fill-rule="nonzero"/><path d="M247.393 27.56s.106-3.527 3.421-3.979c3.316-.451 6.17 5.833 11.368 8.024 5.199 2.191 9.658 3.767 14.29 3.729 4.631-.039 8.926-2.297 8.926-.961 0 1.335-7.274 13.357-18.594 14.856-11.32 1.499-18.18 1.566-25.167-8.985-6.986-10.551-8.936-12.655-4.458-13.809 4.478-1.153 10.214 1.125 10.214 1.125z" fill="#F66318" fill-rule="nonzero"/><path d="M247.384 27.617s.105-3.517 3.42-3.978c3.316-.461 6.17 5.833 11.378 8.034 5.208 2.2 9.658 3.766 14.28 3.718 4.622-.048 8.927-2.296 8.927-.96 0 1.335-7.274 13.347-18.594 14.846-11.32 1.499-18.181 1.595-25.167-8.918-6.986-10.512-8.937-12.665-4.459-13.818 4.478-1.153 10.215 1.076 10.215 1.076z" fill="url(#b)" fill-rule="nonzero" opacity=".39"/><ellipse fill="url(#c)" fill-rule="nonzero" opacity=".49" transform="rotate(-83.82 239.802 35.095)" cx="239.802" cy="35.095" rx="6.208" ry="6.784"/><ellipse fill="url(#d)" fill-rule="nonzero" opacity=".49" transform="rotate(-83.82 256.206 31.207)" cx="256.206" cy="31.207" rx="5.266" ry="5.746"/><path d="M279.23 35.074s6.534-2.633 7.187-2.018c.653.615-.134 4.469-3.738 6.006-3.604 1.538-3.45-3.988-3.45-3.988z" fill="#020202" fill-rule="nonzero"/><circle fill="#835350" fill-rule="nonzero" cx="273.694" cy="39.927" r="1.038"/><circle fill="#835350" fill-rule="nonzero" cx="271.426" cy="41.791" r="1"/><circle fill="#835350" fill-rule="nonzero" cx="273.992" cy="42.608" r="1"/><circle fill="#FFF" fill-rule="nonzero" cx="239.85" cy="34.498" r="5.66"/><circle fill="#8D633A" fill-rule="nonzero" cx="239.85" cy="34.498" r="3.93"/><path d="M243.357 34.872a3.536 3.536 0 11-7.024-.759c.202-1.922 1.384 1.922 3.325 2.134 1.94.211 3.91-3.316 3.7-1.375z" fill="#DCA857" fill-rule="nonzero" opacity=".4"/><circle fill="#1A1A1A" fill-rule="nonzero" transform="rotate(-74.82 239.865 34.497)" cx="239.865" cy="34.497" r="2.864"/><circle fill="#FFF" fill-rule="nonzero" cx="241.282" cy="33.517" r="1"/><path d="M244.241 31.884s.961 3.382-.403 6.035c2.306-3.421 2.056-5.084.403-6.035z" fill="#FBF6E0" fill-rule="nonzero"/><circle fill="#FFF" fill-rule="nonzero" cx="257.329" cy="30.692" r="4.632"/><circle fill="#8D633A" fill-rule="nonzero" cx="257.329" cy="30.692" r="3.219"/><path d="M260.203 31.01a2.9 2.9 0 01-5.766-.625c.173-1.595 1.134 1.576 2.73 1.74 1.594.163 3.247-2.71 3.036-1.116z" fill="#DCA857" fill-rule="nonzero" opacity=".4"/><circle fill="#1A1A1A" fill-rule="nonzero" transform="rotate(-74.82 257.336 30.7)" cx="257.336" cy="30.699" r="2.345"/><circle fill="#FFF" fill-rule="nonzero" cx="258.502" cy="29.895" r="1"/><path d="M260.933 28.56a7.793 7.793 0 01-.336 4.938c1.893-2.748 1.681-4.16.336-4.939z" fill="#FBF6E0" fill-rule="nonzero"/><path d="M264.69 49.488s-12.578 1.547-23.158-3.95c-10.58-5.496 1.931 28.656 23.158 3.95z" fill="#FFF" fill-rule="nonzero"/><path d="M224.638 28.607l-4.67 5.256-9.311-5.39a5.545 5.545 0 01-.462-7.832 5.545 5.545 0 017.832-.452l6.611 8.418z" fill="#F66318" fill-rule="nonzero"/><path d="M220.727 25.81s-3.613-6.101-6.9-4.708c-3.286 1.394-2.93 4.805-1.921 5.766 1.009.96 5.083 2.68 5.083 2.68l3.738-3.737zM242.666 19.584s-.356-3.7 2.633-3.93c2.988-.231 4.064.653 4.89 1.749a3.22 3.22 0 01-.432 3.987c-1.018.712-7.091-1.806-7.091-1.806z" fill="#E8580E" fill-rule="nonzero"/><path d="M244.395 30.52s-5.765-.673-10.57 5.39c-4.805 6.064-2.364-6.332 3.479-7.312 5.842-.98 7.091 1.921 7.091 1.921zM262.211 28.972s-5.314-2.335-11.647 2.066c-6.332 4.401-.403-6.726 5.478-5.977 5.88.75 6.169 3.911 6.169 3.911z" fill="#F66318" fill-rule="nonzero"/><path d="M245.25 30.577s-5.698-1.076-10.877 4.641c-5.18 5.718-1.922-6.476 3.988-7.053 5.91-.576 6.89 2.412 6.89 2.412z" fill="url(#e)" fill-rule="nonzero" opacity=".39"/><path d="M262.211 28.972s-5.314-2.335-11.647 2.066c-6.332 4.401-.403-6.726 5.478-5.977 5.88.75 6.169 3.911 6.169 3.911z" fill="url(#f)" fill-rule="nonzero" opacity=".39"/><path d="M196.992 65.2c3.488-5.516 7.188-10.888 10.715-16.336a17.537 17.537 0 013.228 1.922c2.681 2.094 4.363 5.87 3.296 9.234a1.768 1.768 0 00-.076.365C210.897 68.17 203.41 76.51 203.41 76.51c3.94 3.959 3.267 5.91 12.492 13.107l7.995 1.393 3.181 1.24-1.922 1.47-1.153 3.2-5.67 2.393-7.889-4.18c-13.693-8.889-17.133-9.37-18.46-16.634a13.27 13.27 0 01.827-6.102 55.552 55.552 0 014.18-7.197z" fill="#E8580E" fill-rule="nonzero"/><path d="M202.249 72.243c1.422-1.383 8.206-17.527 8.321-21.746l.365.279c2.681 2.095 4.363 5.871 3.296 9.235a1.768 1.768 0 00-.076.365C210.897 68.159 203.41 76.5 203.41 76.5a15.673 15.673 0 00-5.218-3.844l4.056-.413zM225.196 93.759l-1.941-1.672 1.547-.74 2.277.941zM225.993 99.62l-3.901-2.748s-3.104 3.104-5.766 3.584l3.844 3.767 5.823-4.603z" fill="#E8580E" fill-rule="nonzero"/><path d="M222.524 111.21l-7.476-9.831a1.086 1.086 0 01.221-1.509l16.548-11.973a1.316 1.316 0 011.835.317l6.919 9.61a.663.663 0 01-.144.96l-16.529 12.685a1.413 1.413 0 01-1.374-.26z" fill="#008990" fill-rule="nonzero"/><path d="M222.207 110.777l-7.188-9.437a1.038 1.038 0 01.231-1.403l16.269-11.819a1.278 1.278 0 011.777.279l6.64 9.177a.644.644 0 01-.144.912l-16.22 12.493a1.345 1.345 0 01-1.365-.202z" fill="#119FA4" fill-rule="nonzero"/><path d="M228.924 97.823c-.605 5.949-8.523 6.112-8.523 6.112l-4.565-4.468 9.09-6.535s4.123 3.623 3.998 4.891z" fill="#1B2C59" fill-rule="nonzero" opacity=".26"/><rect fill="#008990" fill-rule="nonzero" transform="rotate(54.1 232.526 91.587)" x="230.234" y="89.66" width="4.584" height="3.853" rx=".519"/><path d="M232.278 94.172l-1.922-2.662a.653.653 0 01.144-.96l2.047-1.48c.108-.08.24-.121.375-.116a.653.653 0 00-.73 0l-2.057 1.499a.634.634 0 00-.154.903l1.922 2.662c.124.172.326.27.538.26a.826.826 0 01-.163-.106z" fill="#1B2C59" fill-rule="nonzero" opacity=".26"/><path d="M191.9 79.249c1.325 7.274 5.352 7.572 19.045 16.47l8.35 8.168s7.919-.163 8.514-6.112c.135-1.268-3.517-4.353-3.517-4.353l1.922-1.47-2.277-.96-7.986-1.039c-9.234-7.187-9.465-9.85-13.395-13.799 0 0 12.07-14.779 14.674-22.908 3.161-9.85-10.484-4.978-10.484-4.978s-16.384 22.543-14.847 30.98z" fill="#F66318" fill-rule="nonzero"/><path fill="#E8580E" fill-rule="nonzero" d="M224.292 93.422l-1.94-1.662 3.046.807.778-.615zM226.406 100.37s-6.217 3.844-10.954-.24l3.844 3.757s6.39-.769 7.11-3.517z"/><circle fill="#1B2C59" fill-rule="nonzero" opacity=".26" cx="232.643" cy="90.367" r="1"/><circle fill="#119FA4" fill-rule="nonzero" cx="232.691" cy="90.319" r="1"/><circle fill="#008990" fill-rule="nonzero" cx="232.729" cy="90.29" r="1"/><circle fill="#1B2C59" fill-rule="nonzero" opacity=".26" cx="231.682" cy="91.856" r="1"/><circle fill="#119FA4" fill-rule="nonzero" cx="231.74" cy="91.798" r="1"/><circle fill="#008990" fill-rule="nonzero" cx="231.788" cy="91.731" r="1"/><circle fill="#1B2C59" fill-rule="nonzero" opacity=".26" cx="233.642" cy="92.067" r="1"/><circle fill="#119FA4" fill-rule="nonzero" cx="233.69" cy="92.019" r="1"/><circle fill="#008990" fill-rule="nonzero" cx="233.7" cy="91.942" r="1"/><circle fill="#77C6C1" fill-rule="nonzero" cx="233.71" cy="91.635" r="1"/><circle fill="#119FA4" fill-rule="nonzero" cx="233.854" cy="91.818" r="1"/><circle fill="#77C6C1" fill-rule="nonzero" cx="233.738" cy="91.789" r="1"/><circle fill="#77C6C1" fill-rule="nonzero" cx="232.739" cy="90.021" r="1"/><circle fill="#119FA4" fill-rule="nonzero" cx="232.845" cy="90.155" r="1"/><circle fill="#77C6C1" fill-rule="nonzero" cx="232.758" cy="90.136" r="1"/><circle fill="#77C6C1" fill-rule="nonzero" cx="231.749" cy="91.549" r="1"/><circle fill="#119FA4" fill-rule="nonzero" cx="231.817" cy="91.635" r="1"/><circle fill="#77C6C1" fill-rule="nonzero" cx="231.77" cy="91.637" r="1"/><path d="M247.922 159.516a16.336 16.336 0 005.612 4.804c1.105.606 4.67 2.758 6.217-.394.442-.893-10.301-8.984-11.925-7.447-.298 1.297-.865 1.672.096 3.037z" fill="#3F122A" fill-rule="nonzero"/><path d="M247.98 158.728a18.92 18.92 0 005.602 4.939c4.41 2.69 6.063.96 6.332-.25.366-1.691-3.517-4.103-5.996-5.766a4.42 4.42 0 01-2.21-4.497c.202-1.74-1.595-.96-3.22.558.02 1.508-1.46 3.68-.508 5.016z" fill="#5E1C3D" fill-rule="nonzero"/><path d="M242.002 135.829c3.95 2.613 6.468 17.354 6.487 17.911.096 2.806 3.219-.557 3.219-.557.048-1.105.269-23.312-1.74-26.906-7.581-13.607-46.98-22.928-47.748-20.824 0 0-7.813 17.643 10.003 22.976 13.088 3.892 26.368 5.141 29.78 7.4z" fill="#F66318" fill-rule="nonzero"/></g></svg>
