<svg xmlns="http://www.w3.org/2000/svg" width="92" height="23" viewBox="0 0 92 23"><path fill="#283352" fill-rule="evenodd" d="M0 5.248L9.988 0l10.096 5.248-10.096 5.266L0 5.248zm59.965 2.551v-.124c0-1.732 1.003-2.285 2.694-2.16V2.356c-4.05-.25-5.97 1.803-5.97 5.319v.124h-1.832v3.16h1.832v9.566h3.276v-9.567h3.768v9.567h3.276v-9.567h2.695V7.8h-2.695v-.124c0-1.732.986-2.285 2.695-2.16V2.356c-4.05-.25-5.97 1.803-5.97 5.319v.124h-3.769zm-22.896 3.463c1.04-.84 1.673-2.035 1.673-3.57 0-2.98-2.395-5.015-5.406-5.015h-6.992v17.812h7.555c3.082 0 5.548-2.106 5.548-5.158-.035-1.839-.951-3.249-2.378-4.07zm-3.716-5.283c1.127 0 1.902.839 1.902 1.963s-.81 1.963-1.902 1.963h-3.505V5.98h3.505zm.529 11.244h-4.034v-4.195h4.034c1.197 0 2.06.893 2.06 2.089 0 1.213-.863 2.106-2.06 2.106zm15.78-9.442v6.871c0 2.213-1.198 3.16-2.8 3.16-1.48 0-2.52-.893-2.52-2.624V7.78h-3.275v7.817c0 3.391 2.096 5.265 4.808 5.265 1.708 0 3.03-.642 3.769-1.785v1.428h3.276V7.781h-3.258zm33.62 7.71h-9.58c.475 1.678 1.849 2.392 3.557 2.392 1.286 0 2.307-.535 2.853-1.267l2.642 1.517c-1.18 1.731-3.082 2.73-5.53 2.73-4.262 0-6.957-2.926-6.957-6.728 0-3.801 2.712-6.728 6.71-6.728 3.752 0 6.429 2.98 6.429 6.728 0 .5-.053.928-.124 1.356zm-6.305-5.104c-1.761 0-2.958.946-3.328 2.57h6.48c-.405-1.838-1.778-2.57-3.152-2.57zm11.166-.41V7.782h-3.276v12.725h3.276V14.42c0-2.677 2.149-3.445 3.857-3.23V7.53c-1.602 0-3.205.715-3.857 2.446zM9.988 19.52L3.174 15.77 0 17.511 9.988 23l10.096-5.488-3.21-1.74-6.886 3.748zM3.174 9.857l6.814 3.4 6.887-3.4 3.21 1.586L9.987 16.43 0 11.443l3.174-1.586z"/></svg>