<svg xmlns="http://www.w3.org/2000/svg" width="64" height="23" viewBox="0 0 64 23"><path fill="#283352" fill-rule="nonzero" d="M23.382 5.553c1.402 0 2.557.543 3.398 1.428V5.904h2.306v11.171A5.92 5.92 0 0123.171 23a5.881 5.881 0 01-3.201-.942l1.155-2.004c.582.401 1.312.687 2.046.687 2.043 0 3.61-1.67 3.61-3.666v-1.604c-.842.885-1.997 1.429-3.399 1.429-3.062 0-5.199-2.594-5.199-5.674 0-3.08 2.137-5.673 5.2-5.673zm34.252 0c1.63 0 3.034.656 4.06 1.717V5.904H64v12.05h-2.306v-1.366a5.568 5.568 0 01-4.06 1.718c-3.43 0-5.865-2.91-5.865-6.377 0-3.467 2.434-6.376 5.865-6.376zM9.546 0v2.26h-7.24v4.89h5.56v2.26h-5.56v8.548L0 17.95V0L9.546 0zm5.284 5.904v12.05h-2.306V5.904h2.306zm30.31-.351c2.624 0 4.257 2.12 4.273 4.744v7.657h-2.306v-7.619c0-1.366-1.105-2.523-2.469-2.523-1.363 0-2.469 1.157-2.469 2.523v7.62h-2.305v-7.62c0-1.366-1.106-2.523-2.47-2.523-1.363 0-2.468 1.157-2.468 2.523v7.62H32.62V5.904h2.306v1.103c.676-.875 1.671-1.455 2.97-1.455 1.616 0 2.856.803 3.574 2.034.799-1.189 2.101-2.034 3.67-2.034zm12.744 2.259c-2.05 0-3.81 1.817-3.81 4.117s1.76 4.117 3.81 4.117c2.052 0 3.81-1.817 3.81-4.117s-1.758-4.117-3.81-4.117zm-34.251 0c-1.684 0-3.144 1.503-3.144 3.414 0 1.912 1.46 3.414 3.144 3.414 1.684 0 3.144-1.502 3.144-3.414 0-1.911-1.46-3.414-3.144-3.414zM13.697.632c.83 0 1.504.675 1.504 1.507A1.505 1.505 0 1113.697.632z"/></svg>