<svg xmlns="http://www.w3.org/2000/svg" width="63" height="23" viewBox="0 0 63 23"><path fill="#283352" fill-rule="nonzero" d="M32.332 5.065c.628 0 1.184.105 1.67.317.486.211.916.54 1.291.985.2-.362.446-.647.74-.855.295-.208.596-.311.902-.312.635 0 1.103.218 1.406.652.302.434.453 1.1.453 2v7.353c0 1.352-.067 2.408-.2 3.167-.135.759-.359 1.388-.672 1.886a5.26 5.26 0 01-2.244 2.045c-.953.465-2.083.697-3.392.697-1.599 0-2.904-.253-3.914-.76-1.01-.505-1.515-1.143-1.515-1.914 0-.46.151-.842.454-1.144.302-.302.683-.453 1.142-.453.222 0 .755.162 1.6.487.846.325 1.636.487 2.37.487.92 0 1.63-.268 2.136-.804.505-.537.757-1.296.757-2.278 0-.045-.004-.117-.011-.215a3.123 3.123 0 01-.012-.227c-.405.574-.887 1.003-1.446 1.286-.558.284-1.197.425-1.917.425-1.5 0-2.768-.608-3.804-1.824-1.037-1.216-1.556-2.727-1.556-4.532 0-1.82.559-3.354 1.676-4.6 1.117-1.246 2.48-1.87 4.086-1.87zM50.64 5.2c.62 0 1.079.216 1.377.646.298.43.448 1.1.448 2.006v4.872c0 1.737-.479 3.064-1.435 3.982-.957.918-2.341 1.377-4.155 1.377-1.813 0-3.2-.46-4.16-1.377-.96-.918-1.44-2.245-1.44-3.982V7.852c0-.9.152-1.566.458-2 .306-.434.773-.652 1.4-.652.62 0 1.081.218 1.383.652.303.434.454 1.1.454 2v4.124c0 .974.149 1.663.447 2.068.299.404.785.606 1.458.606.673 0 1.16-.202 1.458-.606.298-.405.447-1.094.447-2.068V7.852c0-.9.151-1.566.454-2 .302-.434.77-.652 1.406-.652zm-29.991-.045c1.324 0 2.353.42 3.087 1.258.735.838 1.102 2.02 1.102 3.546v5.246c0 .899-.153 1.567-.459 2.005-.306.438-.773.657-1.4.657-.628 0-1.09-.217-1.389-.651-.298-.434-.447-1.105-.447-2.011v-4.136c0-.959-.136-1.661-.408-2.107-.272-.446-.698-.668-1.28-.668-.642 0-1.113.219-1.411.657-.299.438-.448 1.129-.448 2.073v4.18c0 .9-.153 1.568-.46 2.006-.305.438-.772.657-1.4.657-.627 0-1.094-.219-1.4-.657-.306-.438-.459-1.106-.459-2.005v-4.136c0-.966-.134-1.67-.401-2.113-.268-.441-.69-.662-1.263-.662-.643 0-1.113.219-1.412.657-.298.438-.447 1.129-.447 2.073v4.18c0 .9-.153 1.568-.46 2.006-.305.438-.772.657-1.4.657-.627 0-1.092-.219-1.394-.657-.302-.438-.454-1.106-.454-2.005V7.852c0-.907.154-1.583.46-2.028.306-.446.769-.669 1.388-.669.36 0 .687.1.982.3.294.2.556.505.786.912a3.604 3.604 0 011.297-.917c.482-.197 1.037-.295 1.664-.295.796 0 1.5.144 2.112.43.612.288 1.14.718 1.584 1.292.558-.611 1.128-1.051 1.71-1.32.581-.268 1.255-.402 2.02-.402zm40.47-.022c.512 0 .954.179 1.325.538.371.358.557.783.557 1.274 0 .733-.681 1.345-2.043 1.836-.49.174-.857.317-1.102.43-.467.22-.776.463-.93.731-.153.268-.23.754-.23 1.456v3.807c0 .899-.152 1.567-.458 2.005-.306.438-.773.657-1.4.657-.628 0-1.093-.219-1.395-.657-.302-.438-.453-1.106-.453-2.005V7.852c0-.9.15-1.566.453-2 .302-.434.767-.651 1.395-.652.375 0 .707.097.998.29.29.192.547.485.77.877a4.182 4.182 0 011.216-.923c.428-.208.86-.311 1.297-.311zM2.146 5.2c.62 0 1.08.218 1.378.652.298.434.447 1.1.447 2v7.353c0 .906-.149 1.577-.447 2.011-.299.434-.758.651-1.378.651-.627 0-1.094-.219-1.4-.657-.306-.438-.46-1.106-.46-2.005V7.852c0-.9.152-1.566.454-2 .303-.434.771-.652 1.406-.652zm30.68 3.343c-.712 0-1.293.277-1.745.833-.451.555-.677 1.274-.677 2.158 0 .914.226 1.654.677 2.22.452.567 1.033.85 1.745.85.711 0 1.297-.285 1.756-.855.459-.57.688-1.309.688-2.215 0-.884-.23-1.603-.688-2.158-.46-.556-1.045-.833-1.756-.833zM2.146 0c.582 0 1.08.208 1.492.623.414.416.62.914.62 1.496a2.03 2.03 0 01-.614 1.495c-.41.408-.909.612-1.498.612-.604 0-1.113-.204-1.526-.612A2.021 2.021 0 010 2.12c0-.582.21-1.08.631-1.496A2.08 2.08 0 012.146 0z"/></svg>