<svg xmlns="http://www.w3.org/2000/svg" width="99" height="25" viewBox="0 0 99 25"><path fill="#283352" fill-rule="nonzero" d="M99 0v25H0V0h99zM74 6c-.851 0-1.666.134-2.446.403a6.7 6.7 0 00-2.117 1.19c-.632.525-1.14 1.226-1.524 2.103-.384.877-.576 1.864-.576 2.962 0 1.05.192 1.993.576 2.828.384.835.898 1.504 1.541 2.005a7.18 7.18 0 002.136 1.145c.78.263 1.594.394 2.445.394 1.3 0 2.498-.268 3.597-.805v-2.631c-.756.692-1.82 1.038-3.19 1.038a5.33 5.33 0 01-1.603-.242 4.697 4.697 0 01-1.4-.707 3.262 3.262 0 01-1.001-1.244c-.248-.519-.372-1.113-.372-1.78 0-1.409.428-2.474 1.284-3.196.857-.722 1.887-1.083 3.092-1.083 1.229 0 2.263.329 3.101.985v-2.56C76.48 6.268 75.3 6 74 6zm-60.66.25H8.662v12.53h2.658v-4.117h2.02c3.568 0 5.352-1.402 5.352-4.206 0-2.804-1.784-4.206-5.352-4.206zm13.47 0h-5.103v12.53h2.658v-4.386h1.95l3.348 4.385h3.066l-3.704-4.725c1.808-.584 2.711-1.825 2.711-3.723 0-.763-.139-1.42-.416-1.968a3.07 3.07 0 00-1.152-1.271 5.396 5.396 0 00-1.56-.645 7.733 7.733 0 00-1.798-.196zm11.308 0H35.46v12.53h2.658V6.25zm5.798 0h-2.87l4.82 12.53h2.728l4.838-12.53H50.56l-3.331 9.38-3.314-9.38zm17.252 0h-2.87L53.23 18.78h2.746l.922-2.345h5.67l.904 2.344h2.746l-5.05-12.528zm21.349 0h-2.995l4.855 8.09v4.44h2.64v-4.44l4.838-8.09H88.86l-3.172 5.62-3.171-5.62zM59.733 8.739c.059.323.147.65.266.985l1.736 4.492h-4.004l1.718-4.492c.118-.287.213-.615.284-.985zm-46.269-.125c1.678 0 2.517.615 2.517 1.844s-.84 1.843-2.517 1.843H11.32V8.613h2.144zm13.47 0c.615 0 1.117.143 1.506.43.39.286.585.734.585 1.342 0 .597-.198 1.041-.593 1.334-.396.292-.895.438-1.498.438h-2.569V8.613h2.57z"/></svg>