<svg xmlns="http://www.w3.org/2000/svg" width="130" height="40" viewBox="0 0 314.6 96.4"><style>.st0{fill-rule:evenodd;clip-rule:evenodd;fill:#00263a}.st1{fill:#f88d2b}.st2{fill:#00263a}</style><g id="Isolation_Mode"><g id="Layer_1_1_"><path class="st0" d="M15.8 79.2c4.2 0 7.6 3.4 7.6 7.6s-3.4 7.6-7.6 7.6c-4.2 0-7.6-3.4-7.6-7.6 0-4.2 3.4-7.6 7.6-7.6zM44.6 79.2c4.2 0 7.6 3.4 7.6 7.6s-3.4 7.6-7.6 7.6c-4.2 0-7.6-3.4-7.6-7.6-.1-4.2 3.4-7.6 7.6-7.6zM34.8 75.1h18.7C57.6 47.6 69.1 22.5 86 1.9 62.2 20.4 44.1 45.8 34.8 75.1zM13.2 75.1h12.3c-4.6-28.4-13-45.2-13-45.2h10.9c2.3 0 2.8 1.8 3.4 3 .9 2 3.4 8.7 5.1 13.5 6.1-9.1 13.3-17.6 21.2-25.1h-45C3.5 21.3-.1 25.4.5 30l5 38.5c.6 3.7 3.8 6.6 7.7 6.6z"/><path class="st1" d="M148 28.8h9.5v3H148zM252.3 24.3l.5-3.1h-9.4s-4-.1-4.4 4.1c-.3 3.6-1.6 10.2-1.6 10.2s-.6 3.1 2.9 3.2h9.6l.5-3.2h-8.2c-.6 0-.9-.5-.9-.9l.5-3.1h8.1l.5-3.2h-8l.5-3.3c.1-.3.4-.8 1.1-.8l8.3.1zM271.1 21.2h-9.2l-2.8 17.6h3.7l1.1-6.6h3.3l2.2 6.6h4.3l-2.7-7c2.8-.1 4.2-3.7 4.2-6.2v-.7c.1-2-1.5-3.7-4.1-3.7zm0 6.6c-.3.9-1 1.4-1.7 1.4h-4.9l.8-5H270.2c1.4 0 1.4 1.6 1.3 2.2l-.4 1.4z"/><path class="st1" d="M144.2 38.8l2.8-17.6h3.8L148 38.8zM154.8 38.8l2.8-17.6h3.8l-2.8 17.6zM169.4 28.1l-.6 3.6c-.4 2.5-.4 7 5.1 7.1h3.5c3.6 0 6.4-2.5 7.3-6.9l.5-3.4c.7-4.9-1.1-6.8-3.9-7.3-.9-.2-2-.2-3.8-.2-4.3-.1-7 2.1-8.1 7.1zm3.2 3.8l.6-3.5c.6-3.1 2-4.2 3.8-4.2h2.2c1.7 0 2.6 1.1 2.4 4.1-.1 1.3-.6 3.7-.6 3.7-.5 2.6-2.1 3.8-4 3.8h-1.6c-2.1 0-3.3-1.3-2.8-3.9zM204.8 21.2h-9.4l-2.8 17.6h3.8l1.1-6.5 6.1-.1c2.8-.1 5-2.7 5.2-6.3v-1.2c-.1-2-1.7-3.5-4-3.5zm0 5.4l-.2.9c-.2 1.2-1.2 1.8-2 1.8h-4.7l.8-5.2h4.7c1.5 0 1.6 1.9 1.4 2.5zM227.2 21.2h-9.4L215 38.8h3.8l1.1-6.5 6.1-.1c2.8-.1 5-2.7 5.2-6.3v-1.2c0-2-1.6-3.5-4-3.5zm.1 5.4l-.2.9c-.2 1.2-1.2 1.8-2 1.8h-4.7l.8-5.2h4.7c1.5 0 1.5 1.9 1.4 2.5zM128.3 24.3h7.9l.4-3.1h-8.5c-2.8 0-4.8 1.8-5.3 4.1l-.2 1.8-.1.8c-.2 1.9.9 3.7 4.3 3.7l3.8.1c.5 0 .9.4.9.9l-.2 1.7c0 .7-.8 1.4-1.7 1.4l-5.6.1h-2.3l-.5 3.1h3l5.6-.1c2.8 0 4.9-1.9 5.3-4.5l.3-2.5c0-1.9-1.1-3.4-3.5-3.5h-4.5s-1.2-.1-1.2-1l.2-1.6c.5-.9 1.2-1.4 1.9-1.4z"/><g><path class="st2" d="M313.6 39.1c0 2.2-1.7 3.9-4 3.9-2.2 0-4-1.7-4-3.9 0-2.1 1.8-3.9 4-3.9 2.3 0 4 1.8 4 3.9zm-7 0c0 1.7 1.3 3.1 3 3.1s2.9-1.4 2.9-3.1c0-1.7-1.2-3.1-3-3.1-1.6 0-2.9 1.4-2.9 3.1zm2.4 2h-.9v-3.9c.4-.1.8-.1 1.5-.1s1.1.1 1.3.3c.2.2.4.5.4.8 0 .4-.3.8-.8.9.4.1.6.4.7.9.1.6.2.8.3 1h-1c-.1-.1-.2-.5-.3-.9-.1-.4-.3-.6-.8-.6h-.4v1.6zm0-2.2h.4c.5 0 .9-.2.9-.6 0-.4-.3-.6-.8-.6h-.5v1.2z"/></g></g><path class="st2" d="M96.4 64.1l1.4 11h7.1c-.1-4.3-4.2-39.3-4.2-39.3h-3.6c-4.2 0-7.7 1.3-11.3 7.4-8 13.5-16.3 28.2-18.4 31.9h7.2c1.3-2.3 1.4-3 2.4-4.6 3-4.8 6.8-6.4 11.6-6.4h7.8zm-2.2-21.4L96 60H82.9s9.2-14.9 9.8-16c.6-1.1 1.5-1.3 1.5-1.3zM244.1 45.8l.1-.1h-7.6l-10.8 22.5-2.8-22.5h-7.3c.5 3 4.5 29.4 4.5 29.4H228.8s13.4-25.8 15.3-29.3zM300.9 35.7H294l-1.5 10h-7.3c-8.3 0-11.8 3.6-13.4 13.7-1 6-.3 10.4 1.9 12.9 1.6 1.8 4 2.8 7.2 2.8h13.8l6.2-39.4zM288.7 70h-5.9c-1.7 0-2.8-.4-3.5-1.3-1.2-1.4-1.4-4-.6-8.5 1-6.5 3.1-9.5 6.8-9.5h6.4L288.7 70zM267.7 48c-1.3-1.6-3.6-2.4-6.4-2.4h-5.9c-7.7.3-10.9 3.9-12.5 13.7-1 6-.3 10.4 1.9 12.9 1.6 1.8 4 2.8 7.2 2.8h12.9l1-5.1h-12c-1.7 0-2.8-.4-3.5-1.3-.9-1-1.2-2-1-4.6h12.9l.8-.1c1.4-.2 5-1.4 6.1-8.5.4-3.2 0-5.7-1.5-7.4zm-5.6 7.7c-.3 2.5-1.2 4.2-4.1 4.2h-8.3c.1-.6.4-1.7.5-2.2 1.1-4.7 3.1-6.9 6.3-6.9h3.4c.8.1 1.4.3 1.8.7.6.6.6 2.5.4 4.2zM189.1 45.4c-.5-.1-1.1-.1-1.8-.1-1.5 0-2.9.2-4.2.7-1.3.4-2.3.9-3.1 1.4-.7.4-1.7 1-2.8 1.8l.6-3.6H171l-4.6 29.6h6.9L176 58c.4-2.5 2.1-4.7 4.6-5.5 1.3-.4 2.7-.6 4.4-.7.9-2.8 2.3-4.9 4.1-6.4zM213.1 61.3c1-6.2.5-10.5-1.6-12.9-2.2-2.6-6-3-9.5-3-8.4 0-13.7 1-15.9 14.4-1 6-.5 10.1 1.5 12.5 2.2 2.6 6.1 2.9 9.7 2.9 8.2 0 13.8-.9 15.8-13.9zm-19.6 7.2c-1.1-1.2-1.2-3.3-.4-8 1.4-8.4 3-9.7 8.1-9.7 2.1 0 3.7.2 4.6 1.3 1.1 1.3 1.3 3.7.5 8.5-1.2 7.2-2.9 9.2-8.1 9.2-2.6.1-3.9-.3-4.7-1.3zM133.4 48.4c-1.6-1.8-4-2.8-7.2-2.8h-13.8L106.3 85h6.9l1.5-10h7.3c8.3 0 11.8-3.6 13.4-13.7.9-6 .2-10.3-2-12.9zm-4.9 12c-1 6.5-3.1 9.5-6.8 9.5h-6.4l3.1-19.2h5.9c1.7 0 2.8.4 3.5 1.3 1.2 1.3 1.4 4 .7 8.4zM162.6 48.4c-1.6-1.8-4-2.8-7.2-2.8h-13.8L135.4 85h6.9l1.5-10h7.3c8.3 0 11.8-3.6 13.4-13.7.9-6 .3-10.3-1.9-12.9zm-5 12c-1 6.5-3.1 9.5-6.8 9.5h-6.4l3.1-19.2h5.9c1.7 0 2.8.4 3.5 1.3 1.2 1.3 1.4 4 .7 8.4z"/></g></svg>
